solid VexF_Spacer_Thin
   facet normal 0.000000e+000 -3.491483e-015 1.000000e+000
      outer loop
         vertex 5.829659e+000 2.716554e+000 4.826000e+000
         vertex 7.294649e+000 1.251564e+000 4.826000e+000
         vertex 6.306840e+000 3.430707e+000 4.826000e+000
      endloop
   endfacet
   facet normal 0.000000e+000 -3.491483e-015 1.000000e+000
      outer loop
         vertex 6.306840e+000 3.430707e+000 4.826000e+000
         vertex 7.294649e+000 1.251564e+000 4.826000e+000
         vertex 8.220942e+000 2.637859e+000 4.826000e+000
      endloop
   endfacet
   facet normal 0.000000e+000 -3.491483e-015 1.000000e+000
      outer loop
         vertex 6.306840e+000 3.430707e+000 4.826000e+000
         vertex 8.220942e+000 2.637859e+000 4.826000e+000
         vertex 6.474404e+000 4.273107e+000 4.826000e+000
      endloop
   endfacet
   facet normal 0.000000e+000 -3.491483e-015 1.000000e+000
      outer loop
         vertex 6.474404e+000 4.273107e+000 4.826000e+000
         vertex 8.220942e+000 2.637859e+000 4.826000e+000
         vertex 8.546213e+000 4.273107e+000 4.826000e+000
      endloop
   endfacet
   facet normal 0.000000e+000 -3.491483e-015 1.000000e+000
      outer loop
         vertex 6.474404e+000 4.273107e+000 4.826000e+000
         vertex 8.546213e+000 4.273107e+000 4.826000e+000
         vertex 6.306840e+000 5.115506e+000 4.826000e+000
      endloop
   endfacet
   facet normal 0.000000e+000 -3.491483e-015 1.000000e+000
      outer loop
         vertex 6.306840e+000 5.115506e+000 4.826000e+000
         vertex 8.546213e+000 4.273107e+000 4.826000e+000
         vertex 8.220942e+000 5.908353e+000 4.826000e+000
      endloop
   endfacet
   facet normal 0.000000e+000 -3.491483e-015 1.000000e+000
      outer loop
         vertex 6.306840e+000 5.115506e+000 4.826000e+000
         vertex 8.220942e+000 5.908353e+000 4.826000e+000
         vertex 5.829659e+000 5.829659e+000 4.826000e+000
      endloop
   endfacet
   facet normal 0.000000e+000 -3.491483e-015 1.000000e+000
      outer loop
         vertex 5.829659e+000 5.829659e+000 4.826000e+000
         vertex 8.220942e+000 5.908353e+000 4.826000e+000
         vertex 7.294649e+000 7.294649e+000 4.826000e+000
      endloop
   endfacet
   facet normal 0.000000e+000 -3.491483e-015 1.000000e+000
      outer loop
         vertex 5.829659e+000 5.829659e+000 4.826000e+000
         vertex 7.294649e+000 7.294649e+000 4.826000e+000
         vertex 5.115506e+000 6.306840e+000 4.826000e+000
      endloop
   endfacet
   facet normal 0.000000e+000 -3.491483e-015 1.000000e+000
      outer loop
         vertex 5.115506e+000 6.306840e+000 4.826000e+000
         vertex 7.294649e+000 7.294649e+000 4.826000e+000
         vertex 5.908353e+000 8.220942e+000 4.826000e+000
      endloop
   endfacet
   facet normal 0.000000e+000 -3.491483e-015 1.000000e+000
      outer loop
         vertex 5.115506e+000 6.306840e+000 4.826000e+000
         vertex 5.908353e+000 8.220942e+000 4.826000e+000
         vertex 4.273107e+000 6.474404e+000 4.826000e+000
      endloop
   endfacet
   facet normal 0.000000e+000 -3.491483e-015 1.000000e+000
      outer loop
         vertex 4.273107e+000 6.474404e+000 4.826000e+000
         vertex 5.908353e+000 8.220942e+000 4.826000e+000
         vertex 4.273107e+000 8.546213e+000 4.826000e+000
      endloop
   endfacet
   facet normal 0.000000e+000 -3.491483e-015 1.000000e+000
      outer loop
         vertex 4.273107e+000 6.474404e+000 4.826000e+000
         vertex 4.273107e+000 8.546213e+000 4.826000e+000
         vertex 3.430707e+000 6.306840e+000 4.826000e+000
      endloop
   endfacet
   facet normal 0.000000e+000 -3.491483e-015 1.000000e+000
      outer loop
         vertex 3.430707e+000 6.306840e+000 4.826000e+000
         vertex 4.273107e+000 8.546213e+000 4.826000e+000
         vertex 2.637859e+000 8.220942e+000 4.826000e+000
      endloop
   endfacet
   facet normal 0.000000e+000 -3.491483e-015 1.000000e+000
      outer loop
         vertex 3.430707e+000 6.306840e+000 4.826000e+000
         vertex 2.637859e+000 8.220942e+000 4.826000e+000
         vertex 2.716554e+000 5.829659e+000 4.826000e+000
      endloop
   endfacet
   facet normal 0.000000e+000 -3.491483e-015 1.000000e+000
      outer loop
         vertex 2.716554e+000 5.829659e+000 4.826000e+000
         vertex 2.637859e+000 8.220942e+000 4.826000e+000
         vertex 1.251564e+000 7.294649e+000 4.826000e+000
      endloop
   endfacet
   facet normal 0.000000e+000 -3.491483e-015 1.000000e+000
      outer loop
         vertex 2.716554e+000 5.829659e+000 4.826000e+000
         vertex 1.251564e+000 7.294649e+000 4.826000e+000
         vertex 2.239373e+000 5.115506e+000 4.826000e+000
      endloop
   endfacet
   facet normal 0.000000e+000 -3.491483e-015 1.000000e+000
      outer loop
         vertex 2.239373e+000 5.115506e+000 4.826000e+000
         vertex 1.251564e+000 7.294649e+000 4.826000e+000
         vertex 3.252705e-001 5.908353e+000 4.826000e+000
      endloop
   endfacet
   facet normal 0.000000e+000 -3.491483e-015 1.000000e+000
      outer loop
         vertex 2.239373e+000 5.115506e+000 4.826000e+000
         vertex 3.252705e-001 5.908353e+000 4.826000e+000
         vertex 2.071809e+000 4.273107e+000 4.826000e+000
      endloop
   endfacet
   facet normal 0.000000e+000 -3.491483e-015 1.000000e+000
      outer loop
         vertex 2.071809e+000 4.273107e+000 4.826000e+000
         vertex 3.252705e-001 5.908353e+000 4.826000e+000
         vertex 0.000000e+000 4.273107e+000 4.826000e+000
      endloop
   endfacet
   facet normal 0.000000e+000 -3.491483e-015 1.000000e+000
      outer loop
         vertex 2.071809e+000 4.273107e+000 4.826000e+000
         vertex 0.000000e+000 4.273107e+000 4.826000e+000
         vertex 2.239373e+000 3.430707e+000 4.826000e+000
      endloop
   endfacet
   facet normal 0.000000e+000 -3.491483e-015 1.000000e+000
      outer loop
         vertex 2.239373e+000 3.430707e+000 4.826000e+000
         vertex 0.000000e+000 4.273107e+000 4.826000e+000
         vertex 3.252705e-001 2.637859e+000 4.826000e+000
      endloop
   endfacet
   facet normal 0.000000e+000 -3.491483e-015 1.000000e+000
      outer loop
         vertex 2.239373e+000 3.430707e+000 4.826000e+000
         vertex 3.252705e-001 2.637859e+000 4.826000e+000
         vertex 2.716554e+000 2.716554e+000 4.826000e+000
      endloop
   endfacet
   facet normal 0.000000e+000 -3.491483e-015 1.000000e+000
      outer loop
         vertex 2.716554e+000 2.716554e+000 4.826000e+000
         vertex 3.252705e-001 2.637859e+000 4.826000e+000
         vertex 1.251564e+000 1.251564e+000 4.826000e+000
      endloop
   endfacet
   facet normal 0.000000e+000 -3.491483e-015 1.000000e+000
      outer loop
         vertex 2.716554e+000 2.716554e+000 4.826000e+000
         vertex 1.251564e+000 1.251564e+000 4.826000e+000
         vertex 3.430707e+000 2.239373e+000 4.826000e+000
      endloop
   endfacet
   facet normal 0.000000e+000 -3.491483e-015 1.000000e+000
      outer loop
         vertex 3.430707e+000 2.239373e+000 4.826000e+000
         vertex 1.251564e+000 1.251564e+000 4.826000e+000
         vertex 2.637859e+000 3.252705e-001 4.826000e+000
      endloop
   endfacet
   facet normal 0.000000e+000 -3.491483e-015 1.000000e+000
      outer loop
         vertex 3.430707e+000 2.239373e+000 4.826000e+000
         vertex 2.637859e+000 3.252705e-001 4.826000e+000
         vertex 4.273107e+000 2.071809e+000 4.826000e+000
      endloop
   endfacet
   facet normal 0.000000e+000 -3.491483e-015 1.000000e+000
      outer loop
         vertex 4.273107e+000 2.071809e+000 4.826000e+000
         vertex 2.637859e+000 3.252705e-001 4.826000e+000
         vertex 4.273107e+000 0.000000e+000 4.826000e+000
      endloop
   endfacet
   facet normal 0.000000e+000 -3.491483e-015 1.000000e+000
      outer loop
         vertex 4.273107e+000 2.071809e+000 4.826000e+000
         vertex 4.273107e+000 0.000000e+000 4.826000e+000
         vertex 5.115506e+000 2.239373e+000 4.826000e+000
      endloop
   endfacet
   facet normal 0.000000e+000 -3.491483e-015 1.000000e+000
      outer loop
         vertex 5.115506e+000 2.239373e+000 4.826000e+000
         vertex 4.273107e+000 0.000000e+000 4.826000e+000
         vertex 5.908353e+000 3.252705e-001 4.826000e+000
      endloop
   endfacet
   facet normal 0.000000e+000 -3.491483e-015 1.000000e+000
      outer loop
         vertex 5.115506e+000 2.239373e+000 4.826000e+000
         vertex 5.908353e+000 3.252705e-001 4.826000e+000
         vertex 5.829659e+000 2.716554e+000 4.826000e+000
      endloop
   endfacet
   facet normal 0.000000e+000 -3.491483e-015 1.000000e+000
      outer loop
         vertex 5.829659e+000 2.716554e+000 4.826000e+000
         vertex 5.908353e+000 3.252705e-001 4.826000e+000
         vertex 7.294649e+000 1.251564e+000 4.826000e+000
      endloop
   endfacet
   facet normal 0.000000e+000 3.491483e-015 -1.000000e+000
      outer loop
         vertex 5.829659e+000 2.716554e+000 9.484806e-015
         vertex 7.294649e+000 1.251564e+000 4.369816e-015
         vertex 5.115506e+000 2.239373e+000 7.818734e-015
      endloop
   endfacet
   facet normal 0.000000e+000 3.491483e-015 -1.000000e+000
      outer loop
         vertex 5.115506e+000 2.239373e+000 7.818734e-015
         vertex 7.294649e+000 1.251564e+000 4.369816e-015
         vertex 5.908353e+000 3.252705e-001 1.135678e-015
      endloop
   endfacet
   facet normal 0.000000e+000 3.491483e-015 -1.000000e+000
      outer loop
         vertex 5.115506e+000 2.239373e+000 7.818734e-015
         vertex 5.908353e+000 3.252705e-001 1.135678e-015
         vertex 4.273107e+000 2.071809e+000 7.233688e-015
      endloop
   endfacet
   facet normal 0.000000e+000 3.491483e-015 -1.000000e+000
      outer loop
         vertex 4.273107e+000 2.071809e+000 7.233688e-015
         vertex 5.908353e+000 3.252705e-001 1.135678e-015
         vertex 4.273107e+000 0.000000e+000 0.000000e+000
      endloop
   endfacet
   facet normal 0.000000e+000 3.491483e-015 -1.000000e+000
      outer loop
         vertex 4.273107e+000 2.071809e+000 7.233688e-015
         vertex 4.273107e+000 0.000000e+000 0.000000e+000
         vertex 3.430707e+000 2.239373e+000 7.818734e-015
      endloop
   endfacet
   facet normal 0.000000e+000 3.491483e-015 -1.000000e+000
      outer loop
         vertex 3.430707e+000 2.239373e+000 7.818734e-015
         vertex 4.273107e+000 0.000000e+000 0.000000e+000
         vertex 2.637859e+000 3.252705e-001 1.135678e-015
      endloop
   endfacet
   facet normal 0.000000e+000 3.491483e-015 -1.000000e+000
      outer loop
         vertex 3.430707e+000 2.239373e+000 7.818734e-015
         vertex 2.637859e+000 3.252705e-001 1.135678e-015
         vertex 2.716554e+000 2.716554e+000 9.484805e-015
      endloop
   endfacet
   facet normal 0.000000e+000 3.491483e-015 -1.000000e+000
      outer loop
         vertex 2.716554e+000 2.716554e+000 9.484806e-015
         vertex 2.637859e+000 3.252705e-001 1.135678e-015
         vertex 1.251564e+000 1.251564e+000 4.369816e-015
      endloop
   endfacet
   facet normal 0.000000e+000 3.491483e-015 -1.000000e+000
      outer loop
         vertex 2.716554e+000 2.716554e+000 9.484806e-015
         vertex 1.251564e+000 1.251564e+000 4.369816e-015
         vertex 2.239373e+000 3.430707e+000 1.197826e-014
      endloop
   endfacet
   facet normal 0.000000e+000 3.491483e-015 -1.000000e+000
      outer loop
         vertex 2.239373e+000 3.430707e+000 1.197826e-014
         vertex 1.251564e+000 1.251564e+000 4.369816e-015
         vertex 3.252705e-001 2.637859e+000 9.210043e-015
      endloop
   endfacet
   facet normal 0.000000e+000 3.491483e-015 -1.000000e+000
      outer loop
         vertex 2.239373e+000 3.430707e+000 1.197826e-014
         vertex 3.252705e-001 2.637859e+000 9.210043e-015
         vertex 2.071809e+000 4.273107e+000 1.491948e-014
      endloop
   endfacet
   facet normal 0.000000e+000 3.491483e-015 -1.000000e+000
      outer loop
         vertex 2.071809e+000 4.273107e+000 1.491948e-014
         vertex 3.252705e-001 2.637859e+000 9.210043e-015
         vertex 0.000000e+000 4.273107e+000 1.491948e-014
      endloop
   endfacet
   facet normal 0.000000e+000 3.491483e-015 -1.000000e+000
      outer loop
         vertex 2.071809e+000 4.273107e+000 1.491948e-014
         vertex 0.000000e+000 4.273107e+000 1.491948e-014
         vertex 2.239373e+000 5.115506e+000 1.786071e-014
      endloop
   endfacet
   facet normal 0.000000e+000 3.491483e-015 -1.000000e+000
      outer loop
         vertex 2.239373e+000 5.115506e+000 1.786071e-014
         vertex 0.000000e+000 4.273107e+000 1.491948e-014
         vertex 3.252705e-001 5.908353e+000 2.062892e-014
      endloop
   endfacet
   facet normal 0.000000e+000 3.491483e-015 -1.000000e+000
      outer loop
         vertex 2.239373e+000 5.115506e+000 1.786071e-014
         vertex 3.252705e-001 5.908353e+000 2.062892e-014
         vertex 2.716554e+000 5.829659e+000 2.035416e-014
      endloop
   endfacet
   facet normal 0.000000e+000 3.491483e-015 -1.000000e+000
      outer loop
         vertex 2.716554e+000 5.829659e+000 2.035416e-014
         vertex 3.252705e-001 5.908353e+000 2.062892e-014
         vertex 1.251564e+000 7.294649e+000 2.546915e-014
      endloop
   endfacet
   facet normal 0.000000e+000 3.491483e-015 -1.000000e+000
      outer loop
         vertex 2.716554e+000 5.829659e+000 2.035416e-014
         vertex 1.251564e+000 7.294649e+000 2.546915e-014
         vertex 3.430707e+000 6.306840e+000 2.202023e-014
      endloop
   endfacet
   facet normal 0.000000e+000 3.491483e-015 -1.000000e+000
      outer loop
         vertex 3.430707e+000 6.306840e+000 2.202023e-014
         vertex 1.251564e+000 7.294649e+000 2.546915e-014
         vertex 2.637859e+000 8.220942e+000 2.870328e-014
      endloop
   endfacet
   facet normal 0.000000e+000 3.491483e-015 -1.000000e+000
      outer loop
         vertex 3.430707e+000 6.306840e+000 2.202023e-014
         vertex 2.637859e+000 8.220942e+000 2.870328e-014
         vertex 4.273107e+000 6.474404e+000 2.260527e-014
      endloop
   endfacet
   facet normal 0.000000e+000 3.491483e-015 -1.000000e+000
      outer loop
         vertex 4.273107e+000 6.474404e+000 2.260527e-014
         vertex 2.637859e+000 8.220942e+000 2.870328e-014
         vertex 4.273107e+000 8.546213e+000 2.983896e-014
      endloop
   endfacet
   facet normal 0.000000e+000 3.491483e-015 -1.000000e+000
      outer loop
         vertex 4.273107e+000 6.474404e+000 2.260527e-014
         vertex 4.273107e+000 8.546213e+000 2.983896e-014
         vertex 5.115506e+000 6.306840e+000 2.202023e-014
      endloop
   endfacet
   facet normal 0.000000e+000 3.491483e-015 -1.000000e+000
      outer loop
         vertex 5.115506e+000 6.306840e+000 2.202023e-014
         vertex 4.273107e+000 8.546213e+000 2.983896e-014
         vertex 5.908353e+000 8.220942e+000 2.870328e-014
      endloop
   endfacet
   facet normal 0.000000e+000 3.491483e-015 -1.000000e+000
      outer loop
         vertex 5.115506e+000 6.306840e+000 2.202023e-014
         vertex 5.908353e+000 8.220942e+000 2.870328e-014
         vertex 5.829659e+000 5.829659e+000 2.035416e-014
      endloop
   endfacet
   facet normal 0.000000e+000 3.491483e-015 -1.000000e+000
      outer loop
         vertex 5.829659e+000 5.829659e+000 2.035416e-014
         vertex 5.908353e+000 8.220942e+000 2.870328e-014
         vertex 7.294649e+000 7.294649e+000 2.546915e-014
      endloop
   endfacet
   facet normal 0.000000e+000 3.491483e-015 -1.000000e+000
      outer loop
         vertex 5.829659e+000 5.829659e+000 2.035416e-014
         vertex 7.294649e+000 7.294649e+000 2.546915e-014
         vertex 6.306840e+000 5.115506e+000 1.786071e-014
      endloop
   endfacet
   facet normal 0.000000e+000 3.491483e-015 -1.000000e+000
      outer loop
         vertex 6.306840e+000 5.115506e+000 1.786071e-014
         vertex 7.294649e+000 7.294649e+000 2.546915e-014
         vertex 8.220942e+000 5.908353e+000 2.062892e-014
      endloop
   endfacet
   facet normal 0.000000e+000 3.491483e-015 -1.000000e+000
      outer loop
         vertex 6.306840e+000 5.115506e+000 1.786071e-014
         vertex 8.220942e+000 5.908353e+000 2.062892e-014
         vertex 6.474404e+000 4.273107e+000 1.491948e-014
      endloop
   endfacet
   facet normal 0.000000e+000 3.491483e-015 -1.000000e+000
      outer loop
         vertex 6.474404e+000 4.273107e+000 1.491948e-014
         vertex 8.220942e+000 5.908353e+000 2.062892e-014
         vertex 8.546213e+000 4.273107e+000 1.491948e-014
      endloop
   endfacet
   facet normal 0.000000e+000 3.491483e-015 -1.000000e+000
      outer loop
         vertex 6.474404e+000 4.273107e+000 1.491948e-014
         vertex 8.546213e+000 4.273107e+000 1.491948e-014
         vertex 6.306840e+000 3.430707e+000 1.197826e-014
      endloop
   endfacet
   facet normal 0.000000e+000 3.491483e-015 -1.000000e+000
      outer loop
         vertex 6.306840e+000 3.430707e+000 1.197826e-014
         vertex 8.546213e+000 4.273107e+000 1.491948e-014
         vertex 8.220942e+000 2.637859e+000 9.210043e-015
      endloop
   endfacet
   facet normal 0.000000e+000 3.491483e-015 -1.000000e+000
      outer loop
         vertex 6.306840e+000 3.430707e+000 1.197826e-014
         vertex 8.220942e+000 2.637859e+000 9.210043e-015
         vertex 5.829659e+000 2.716554e+000 9.484805e-015
      endloop
   endfacet
   facet normal 0.000000e+000 3.491483e-015 -1.000000e+000
      outer loop
         vertex 5.829659e+000 2.716554e+000 9.484806e-015
         vertex 8.220942e+000 2.637859e+000 9.210043e-015
         vertex 7.294649e+000 1.251564e+000 4.369816e-015
      endloop
   endfacet
   facet normal 1.950903e-001 9.807853e-001 3.424395e-015
      outer loop
         vertex 4.273107e+000 8.546213e+000 4.826000e+000
         vertex 5.908353e+000 8.220942e+000 4.826000e+000
         vertex 4.273107e+000 8.546213e+000 2.966463e-014
      endloop
   endfacet
   facet normal 1.950903e-001 9.807853e-001 3.424395e-015
      outer loop
         vertex 4.273107e+000 8.546213e+000 2.966463e-014
         vertex 5.908353e+000 8.220942e+000 4.826000e+000
         vertex 5.908353e+000 8.220942e+000 2.879727e-014
      endloop
   endfacet
   facet normal -1.950903e-001 9.807853e-001 3.424395e-015
      outer loop
         vertex 2.637859e+000 8.220942e+000 4.826000e+000
         vertex 4.273107e+000 8.546213e+000 4.826000e+000
         vertex 2.637859e+000 8.220942e+000 2.706255e-014
      endloop
   endfacet
   facet normal -1.950903e-001 9.807853e-001 3.424395e-015
      outer loop
         vertex 2.637859e+000 8.220942e+000 2.706255e-014
         vertex 4.273107e+000 8.546213e+000 4.826000e+000
         vertex 4.273107e+000 8.546213e+000 2.792991e-014
      endloop
   endfacet
   facet normal -5.555702e-001 8.314696e-001 2.903062e-015
      outer loop
         vertex 1.251564e+000 7.294649e+000 4.826000e+000
         vertex 2.637859e+000 8.220942e+000 4.826000e+000
         vertex 1.251564e+000 7.294649e+000 2.532782e-014
      endloop
   endfacet
   facet normal -5.555702e-001 8.314696e-001 2.903062e-015
      outer loop
         vertex 1.251564e+000 7.294649e+000 2.532782e-014
         vertex 2.637859e+000 8.220942e+000 4.826000e+000
         vertex 2.637859e+000 8.220942e+000 2.879727e-014
      endloop
   endfacet
   facet normal -8.314696e-001 5.555702e-001 1.939764e-015
      outer loop
         vertex 3.252705e-001 5.908353e+000 4.826000e+000
         vertex 1.251564e+000 7.294649e+000 4.826000e+000
         vertex 3.252705e-001 5.908353e+000 2.099101e-014
      endloop
   endfacet
   facet normal -8.314696e-001 5.555702e-001 1.939764e-015
      outer loop
         vertex 3.252705e-001 5.908353e+000 2.099101e-014
         vertex 1.251564e+000 7.294649e+000 4.826000e+000
         vertex 1.251564e+000 7.294649e+000 2.532782e-014
      endloop
   endfacet
   facet normal -9.807853e-001 1.950903e-001 6.811546e-016
      outer loop
         vertex 0.000000e+000 4.273107e+000 4.826000e+000
         vertex 3.252705e-001 5.908353e+000 4.826000e+000
         vertex 0.000000e+000 4.273107e+000 1.665420e-014
      endloop
   endfacet
   facet normal -9.807853e-001 1.950903e-001 6.811546e-016
      outer loop
         vertex 0.000000e+000 4.273107e+000 1.665420e-014
         vertex 3.252705e-001 5.908353e+000 4.826000e+000
         vertex 3.252705e-001 5.908353e+000 2.272574e-014
      endloop
   endfacet
   facet normal -9.807853e-001 -1.950903e-001 -6.811546e-016
      outer loop
         vertex 3.252705e-001 2.637859e+000 4.826000e+000
         vertex 0.000000e+000 4.273107e+000 4.826000e+000
         vertex 3.252705e-001 2.637859e+000 7.113226e-015
      endloop
   endfacet
   facet normal -9.807853e-001 -1.950903e-001 -6.811546e-016
      outer loop
         vertex 3.252705e-001 2.637859e+000 7.113225e-015
         vertex 0.000000e+000 4.273107e+000 4.826000e+000
         vertex 0.000000e+000 4.273107e+000 1.318476e-014
      endloop
   endfacet
   facet normal -8.314696e-001 -5.555702e-001 -1.939764e-015
      outer loop
         vertex 1.251564e+000 1.251564e+000 4.826000e+000
         vertex 3.252705e-001 2.637859e+000 4.826000e+000
         vertex 1.251564e+000 1.251564e+000 2.776417e-015
      endloop
   endfacet
   facet normal -8.314696e-001 -5.555702e-001 -1.939764e-015
      outer loop
         vertex 1.251564e+000 1.251564e+000 2.776417e-015
         vertex 3.252705e-001 2.637859e+000 4.826000e+000
         vertex 3.252705e-001 2.637859e+000 7.113226e-015
      endloop
   endfacet
   facet normal -5.555702e-001 -8.314696e-001 -2.903062e-015
      outer loop
         vertex 2.637859e+000 3.252705e-001 4.826000e+000
         vertex 1.251564e+000 1.251564e+000 4.826000e+000
         vertex 2.637859e+000 3.252705e-001 1.041693e-015
      endloop
   endfacet
   facet normal -5.555702e-001 -8.314696e-001 -2.903062e-015
      outer loop
         vertex 2.637859e+000 3.252705e-001 1.041693e-015
         vertex 1.251564e+000 1.251564e+000 4.826000e+000
         vertex 1.251564e+000 1.251564e+000 4.511140e-015
      endloop
   endfacet
   facet normal -1.950903e-001 -9.807853e-001 -3.424395e-015
      outer loop
         vertex 4.273107e+000 0.000000e+000 4.826000e+000
         vertex 2.637859e+000 3.252705e-001 4.826000e+000
         vertex 4.273107e+000 0.000000e+000 1.743316e-016
      endloop
   endfacet
   facet normal -1.950903e-001 -9.807853e-001 -3.424395e-015
      outer loop
         vertex 4.273107e+000 0.000000e+000 1.743316e-016
         vertex 2.637859e+000 3.252705e-001 4.826000e+000
         vertex 2.637859e+000 3.252705e-001 1.041693e-015
      endloop
   endfacet
   facet normal 1.950903e-001 -9.807853e-001 -3.424395e-015
      outer loop
         vertex 5.908353e+000 3.252705e-001 4.826000e+000
         vertex 4.273107e+000 0.000000e+000 4.826000e+000
         vertex 5.908353e+000 3.252705e-001 -6.930301e-016
      endloop
   endfacet
   facet normal 1.950903e-001 -9.807853e-001 -3.424395e-015
      outer loop
         vertex 5.908353e+000 3.252705e-001 -6.930301e-016
         vertex 4.273107e+000 0.000000e+000 4.826000e+000
         vertex 4.273107e+000 0.000000e+000 -1.560392e-015
      endloop
   endfacet
   facet normal 5.555702e-001 -8.314696e-001 -2.903062e-015
      outer loop
         vertex 7.294649e+000 1.251564e+000 4.826000e+000
         vertex 5.908353e+000 3.252705e-001 4.826000e+000
         vertex 7.294649e+000 1.251564e+000 4.511140e-015
      endloop
   endfacet
   facet normal 5.555702e-001 -8.314696e-001 -2.903062e-015
      outer loop
         vertex 7.294649e+000 1.251564e+000 4.511140e-015
         vertex 5.908353e+000 3.252705e-001 4.826000e+000
         vertex 5.908353e+000 3.252705e-001 1.041693e-015
      endloop
   endfacet
   facet normal 8.314696e-001 -5.555702e-001 -1.939764e-015
      outer loop
         vertex 8.220942e+000 2.637859e+000 4.826000e+000
         vertex 7.294649e+000 1.251564e+000 4.826000e+000
         vertex 8.220942e+000 2.637859e+000 8.847949e-015
      endloop
   endfacet
   facet normal 8.314696e-001 -5.555702e-001 -1.939764e-015
      outer loop
         vertex 8.220942e+000 2.637859e+000 8.847949e-015
         vertex 7.294649e+000 1.251564e+000 4.826000e+000
         vertex 7.294649e+000 1.251564e+000 4.511140e-015
      endloop
   endfacet
   facet normal 9.807853e-001 -1.950903e-001 -6.811546e-016
      outer loop
         vertex 8.546213e+000 4.273107e+000 4.826000e+000
         vertex 8.220942e+000 2.637859e+000 4.826000e+000
         vertex 8.546213e+000 4.273107e+000 1.318476e-014
      endloop
   endfacet
   facet normal 9.807853e-001 -1.950903e-001 -6.811546e-016
      outer loop
         vertex 8.546213e+000 4.273107e+000 1.318476e-014
         vertex 8.220942e+000 2.637859e+000 4.826000e+000
         vertex 8.220942e+000 2.637859e+000 7.113226e-015
      endloop
   endfacet
   facet normal 9.807853e-001 1.950903e-001 6.811546e-016
      outer loop
         vertex 8.220942e+000 5.908353e+000 4.826000e+000
         vertex 8.546213e+000 4.273107e+000 4.826000e+000
         vertex 8.220942e+000 5.908353e+000 2.099101e-014
      endloop
   endfacet
   facet normal 9.807853e-001 1.950903e-001 6.811546e-016
      outer loop
         vertex 8.220942e+000 5.908353e+000 2.099101e-014
         vertex 8.546213e+000 4.273107e+000 4.826000e+000
         vertex 8.546213e+000 4.273107e+000 1.491948e-014
      endloop
   endfacet
   facet normal 8.314696e-001 5.555702e-001 1.939764e-015
      outer loop
         vertex 7.294649e+000 7.294649e+000 4.826000e+000
         vertex 8.220942e+000 5.908353e+000 4.826000e+000
         vertex 7.294649e+000 7.294649e+000 2.532782e-014
      endloop
   endfacet
   facet normal 8.314696e-001 5.555702e-001 1.939764e-015
      outer loop
         vertex 7.294649e+000 7.294649e+000 2.532782e-014
         vertex 8.220942e+000 5.908353e+000 4.826000e+000
         vertex 8.220942e+000 5.908353e+000 2.099101e-014
      endloop
   endfacet
   facet normal 5.555702e-001 8.314696e-001 2.903062e-015
      outer loop
         vertex 5.908353e+000 8.220942e+000 4.826000e+000
         vertex 7.294649e+000 7.294649e+000 4.826000e+000
         vertex 5.908353e+000 8.220942e+000 2.879727e-014
      endloop
   endfacet
   facet normal 5.555702e-001 8.314696e-001 2.903062e-015
      outer loop
         vertex 5.908353e+000 8.220942e+000 2.879727e-014
         vertex 7.294649e+000 7.294649e+000 4.826000e+000
         vertex 7.294649e+000 7.294649e+000 2.532782e-014
      endloop
   endfacet
   facet normal -1.950903e-001 -9.807853e-001 -3.424395e-015
      outer loop
         vertex 5.115506e+000 6.306840e+000 4.826000e+000
         vertex 4.273107e+000 6.474404e+000 4.826000e+000
         vertex 5.115506e+000 6.306840e+000 2.012365e-014
      endloop
   endfacet
   facet normal -1.950903e-001 -9.807853e-001 -3.424395e-015
      outer loop
         vertex 5.115506e+000 6.306840e+000 2.012365e-014
         vertex 4.273107e+000 6.474404e+000 4.826000e+000
         vertex 4.273107e+000 6.474404e+000 2.099101e-014
      endloop
   endfacet
   facet normal 1.950903e-001 -9.807853e-001 -3.424395e-015
      outer loop
         vertex 4.273107e+000 6.474404e+000 4.826000e+000
         vertex 3.430707e+000 6.306840e+000 4.826000e+000
         vertex 4.273107e+000 6.474404e+000 2.099101e-014
      endloop
   endfacet
   facet normal 1.950903e-001 -9.807853e-001 -3.424395e-015
      outer loop
         vertex 4.273107e+000 6.474404e+000 2.099101e-014
         vertex 3.430707e+000 6.306840e+000 4.826000e+000
         vertex 3.430707e+000 6.306840e+000 2.012365e-014
      endloop
   endfacet
   facet normal 5.555702e-001 -8.314696e-001 -2.903062e-015
      outer loop
         vertex 3.430707e+000 6.306840e+000 4.826000e+000
         vertex 2.716554e+000 5.829659e+000 4.826000e+000
         vertex 3.430707e+000 6.306840e+000 2.012365e-014
      endloop
   endfacet
   facet normal 5.555702e-001 -8.314696e-001 -2.903062e-015
      outer loop
         vertex 3.430707e+000 6.306840e+000 2.012365e-014
         vertex 2.716554e+000 5.829659e+000 4.826000e+000
         vertex 2.716554e+000 5.829659e+000 1.838893e-014
      endloop
   endfacet
   facet normal 8.314696e-001 -5.555702e-001 -1.939764e-015
      outer loop
         vertex 2.716554e+000 5.829659e+000 4.826000e+000
         vertex 2.239373e+000 5.115506e+000 4.826000e+000
         vertex 2.716554e+000 5.829659e+000 2.012365e-014
      endloop
   endfacet
   facet normal 8.314696e-001 -5.555702e-001 -1.939764e-015
      outer loop
         vertex 2.716554e+000 5.829659e+000 2.012365e-014
         vertex 2.239373e+000 5.115506e+000 4.826000e+000
         vertex 2.239373e+000 5.115506e+000 1.752157e-014
      endloop
   endfacet
   facet normal 9.807853e-001 -1.950903e-001 -6.811546e-016
      outer loop
         vertex 2.239373e+000 5.115506e+000 4.826000e+000
         vertex 2.071809e+000 4.273107e+000 4.826000e+000
         vertex 2.239373e+000 5.115506e+000 1.752157e-014
      endloop
   endfacet
   facet normal 9.807853e-001 -1.950903e-001 -6.811546e-016
      outer loop
         vertex 2.239373e+000 5.115506e+000 1.752157e-014
         vertex 2.071809e+000 4.273107e+000 4.826000e+000
         vertex 2.071809e+000 4.273107e+000 1.491948e-014
      endloop
   endfacet
   facet normal 9.807853e-001 1.950903e-001 6.811546e-016
      outer loop
         vertex 2.071809e+000 4.273107e+000 4.826000e+000
         vertex 2.239373e+000 3.430707e+000 4.826000e+000
         vertex 2.071809e+000 4.273107e+000 1.318476e-014
      endloop
   endfacet
   facet normal 9.807853e-001 1.950903e-001 6.811546e-016
      outer loop
         vertex 2.071809e+000 4.273107e+000 1.318476e-014
         vertex 2.239373e+000 3.430707e+000 4.826000e+000
         vertex 2.239373e+000 3.430707e+000 1.058267e-014
      endloop
   endfacet
   facet normal 8.314696e-001 5.555702e-001 1.939764e-015
      outer loop
         vertex 2.239373e+000 3.430707e+000 4.826000e+000
         vertex 2.716554e+000 2.716554e+000 4.826000e+000
         vertex 2.239373e+000 3.430707e+000 1.231740e-014
      endloop
   endfacet
   facet normal 8.314696e-001 5.555702e-001 1.939764e-015
      outer loop
         vertex 2.239373e+000 3.430707e+000 1.231740e-014
         vertex 2.716554e+000 2.716554e+000 4.826000e+000
         vertex 2.716554e+000 2.716554e+000 9.715311e-015
      endloop
   endfacet
   facet normal 5.555702e-001 8.314696e-001 2.903062e-015
      outer loop
         vertex 2.716554e+000 2.716554e+000 4.826000e+000
         vertex 3.430707e+000 2.239373e+000 4.826000e+000
         vertex 2.716554e+000 2.716554e+000 9.715311e-015
      endloop
   endfacet
   facet normal 5.555702e-001 8.314696e-001 2.903062e-015
      outer loop
         vertex 2.716554e+000 2.716554e+000 9.715310e-015
         vertex 3.430707e+000 2.239373e+000 4.826000e+000
         vertex 3.430707e+000 2.239373e+000 7.980587e-015
      endloop
   endfacet
   facet normal 1.950903e-001 9.807853e-001 3.424395e-015
      outer loop
         vertex 3.430707e+000 2.239373e+000 4.826000e+000
         vertex 4.273107e+000 2.071809e+000 4.826000e+000
         vertex 3.430707e+000 2.239373e+000 7.980587e-015
      endloop
   endfacet
   facet normal 1.950903e-001 9.807853e-001 3.424395e-015
      outer loop
         vertex 3.430707e+000 2.239373e+000 7.980587e-015
         vertex 4.273107e+000 2.071809e+000 4.826000e+000
         vertex 4.273107e+000 2.071809e+000 7.113226e-015
      endloop
   endfacet
   facet normal -1.950903e-001 9.807853e-001 3.424395e-015
      outer loop
         vertex 4.273107e+000 2.071809e+000 4.826000e+000
         vertex 5.115506e+000 2.239373e+000 4.826000e+000
         vertex 4.273107e+000 2.071809e+000 7.113226e-015
      endloop
   endfacet
   facet normal -1.950903e-001 9.807853e-001 3.424395e-015
      outer loop
         vertex 4.273107e+000 2.071809e+000 7.113225e-015
         vertex 5.115506e+000 2.239373e+000 4.826000e+000
         vertex 5.115506e+000 2.239373e+000 7.980587e-015
      endloop
   endfacet
   facet normal -5.555702e-001 8.314696e-001 2.903062e-015
      outer loop
         vertex 5.115506e+000 2.239373e+000 4.826000e+000
         vertex 5.829659e+000 2.716554e+000 4.826000e+000
         vertex 5.115506e+000 2.239373e+000 6.245864e-015
      endloop
   endfacet
   facet normal -5.555702e-001 8.314696e-001 2.903062e-015
      outer loop
         vertex 5.115506e+000 2.239373e+000 6.245864e-015
         vertex 5.829659e+000 2.716554e+000 4.826000e+000
         vertex 5.829659e+000 2.716554e+000 7.980587e-015
      endloop
   endfacet
   facet normal -8.314696e-001 5.555702e-001 1.939764e-015
      outer loop
         vertex 5.829659e+000 2.716554e+000 4.826000e+000
         vertex 6.306840e+000 3.430707e+000 4.826000e+000
         vertex 5.829659e+000 2.716554e+000 9.715311e-015
      endloop
   endfacet
   facet normal -8.314696e-001 5.555702e-001 1.939764e-015
      outer loop
         vertex 5.829659e+000 2.716554e+000 9.715310e-015
         vertex 6.306840e+000 3.430707e+000 4.826000e+000
         vertex 6.306840e+000 3.430707e+000 1.231740e-014
      endloop
   endfacet
   facet normal -9.807853e-001 1.950903e-001 6.811546e-016
      outer loop
         vertex 6.306840e+000 3.430707e+000 4.826000e+000
         vertex 6.474404e+000 4.273107e+000 4.826000e+000
         vertex 6.306840e+000 3.430707e+000 1.231740e-014
      endloop
   endfacet
   facet normal -9.807853e-001 1.950903e-001 6.811546e-016
      outer loop
         vertex 6.306840e+000 3.430707e+000 1.231740e-014
         vertex 6.474404e+000 4.273107e+000 4.826000e+000
         vertex 6.474404e+000 4.273107e+000 1.491948e-014
      endloop
   endfacet
   facet normal -9.807853e-001 -1.950903e-001 -6.811546e-016
      outer loop
         vertex 6.474404e+000 4.273107e+000 4.826000e+000
         vertex 6.306840e+000 5.115506e+000 4.826000e+000
         vertex 6.474404e+000 4.273107e+000 1.491948e-014
      endloop
   endfacet
   facet normal -9.807853e-001 -1.950903e-001 -6.811546e-016
      outer loop
         vertex 6.474404e+000 4.273107e+000 1.491948e-014
         vertex 6.306840e+000 5.115506e+000 4.826000e+000
         vertex 6.306840e+000 5.115506e+000 1.752157e-014
      endloop
   endfacet
   facet normal -8.314696e-001 -5.555702e-001 -1.939764e-015
      outer loop
         vertex 6.306840e+000 5.115506e+000 4.826000e+000
         vertex 5.829659e+000 5.829659e+000 4.826000e+000
         vertex 6.306840e+000 5.115506e+000 1.578684e-014
      endloop
   endfacet
   facet normal -8.314696e-001 -5.555702e-001 -1.939764e-015
      outer loop
         vertex 6.306840e+000 5.115506e+000 1.578684e-014
         vertex 5.829659e+000 5.829659e+000 4.826000e+000
         vertex 5.829659e+000 5.829659e+000 1.838893e-014
      endloop
   endfacet
   facet normal -5.555702e-001 -8.314696e-001 -2.903062e-015
      outer loop
         vertex 5.829659e+000 5.829659e+000 4.826000e+000
         vertex 5.115506e+000 6.306840e+000 4.826000e+000
         vertex 5.829659e+000 5.829659e+000 2.012365e-014
      endloop
   endfacet
   facet normal -5.555702e-001 -8.314696e-001 -2.903062e-015
      outer loop
         vertex 5.829659e+000 5.829659e+000 2.012365e-014
         vertex 5.115506e+000 6.306840e+000 4.826000e+000
         vertex 5.115506e+000 6.306840e+000 2.185838e-014
      endloop
   endfacet
endsolid