solid VexF_Nut_Keps_top_steve
   facet normal 0.000000e+000 0.000000e+000 1.000000e+000
      outer loop
         vertex 4.351698e+000 8.036819e+000 3.048000e+000
         vertex 5.080000e+000 5.923409e+000 3.048000e+000
         vertex 5.808302e+000 8.036819e+000 3.048000e+000
      endloop
   endfacet
   facet normal 0.000000e+000 0.000000e+000 1.000000e+000
      outer loop
         vertex 5.808302e+000 8.036819e+000 3.048000e+000
         vertex 5.080000e+000 5.923409e+000 3.048000e+000
         vertex 5.663209e+000 5.807402e+000 3.048000e+000
      endloop
   endfacet
   facet normal 0.000000e+000 0.000000e+000 1.000000e+000
      outer loop
         vertex 5.808302e+000 8.036819e+000 3.048000e+000
         vertex 5.663209e+000 5.807402e+000 3.048000e+000
         vertex 7.865937e+000 6.848842e+000 3.048000e+000
      endloop
   endfacet
   facet normal 0.000000e+000 0.000000e+000 1.000000e+000
      outer loop
         vertex 7.865937e+000 6.848842e+000 3.048000e+000
         vertex 5.663209e+000 5.807402e+000 3.048000e+000
         vertex 6.157631e+000 5.477040e+000 3.048000e+000
      endloop
   endfacet
   facet normal 0.000000e+000 0.000000e+000 1.000000e+000
      outer loop
         vertex 7.865937e+000 6.848842e+000 3.048000e+000
         vertex 6.157631e+000 5.477040e+000 3.048000e+000
         vertex 8.594240e+000 5.587385e+000 3.048000e+000
      endloop
   endfacet
   facet normal 0.000000e+000 0.000000e+000 1.000000e+000
      outer loop
         vertex 6.157631e+000 5.477040e+000 3.048000e+000
         vertex 6.487993e+000 4.982619e+000 3.048000e+000
         vertex 8.594240e+000 5.587385e+000 3.048000e+000
      endloop
   endfacet
   facet normal 0.000000e+000 0.000000e+000 1.000000e+000
      outer loop
         vertex 8.594240e+000 5.587385e+000 3.048000e+000
         vertex 6.487993e+000 4.982619e+000 3.048000e+000
         vertex 6.604000e+000 4.399409e+000 3.048000e+000
      endloop
   endfacet
   facet normal 0.000000e+000 0.000000e+000 1.000000e+000
      outer loop
         vertex 8.594240e+000 5.587385e+000 3.048000e+000
         vertex 6.604000e+000 4.399409e+000 3.048000e+000
         vertex 8.594240e+000 3.211433e+000 3.048000e+000
      endloop
   endfacet
   facet normal 0.000000e+000 0.000000e+000 1.000000e+000
      outer loop
         vertex 8.594240e+000 3.211433e+000 3.048000e+000
         vertex 6.604000e+000 4.399409e+000 3.048000e+000
         vertex 6.487993e+000 3.816200e+000 3.048000e+000
      endloop
   endfacet
   facet normal 0.000000e+000 0.000000e+000 1.000000e+000
      outer loop
         vertex 8.594240e+000 3.211433e+000 3.048000e+000
         vertex 6.487993e+000 3.816200e+000 3.048000e+000
         vertex 7.865937e+000 1.949976e+000 3.048000e+000
      endloop
   endfacet
   facet normal 0.000000e+000 0.000000e+000 1.000000e+000
      outer loop
         vertex 7.865937e+000 1.949976e+000 3.048000e+000
         vertex 6.487993e+000 3.816200e+000 3.048000e+000
         vertex 6.157631e+000 3.321778e+000 3.048000e+000
      endloop
   endfacet
   facet normal 0.000000e+000 0.000000e+000 1.000000e+000
      outer loop
         vertex 7.865937e+000 1.949976e+000 3.048000e+000
         vertex 6.157631e+000 3.321778e+000 3.048000e+000
         vertex 5.808302e+000 7.620000e-001 3.048000e+000
      endloop
   endfacet
   facet normal 0.000000e+000 0.000000e+000 1.000000e+000
      outer loop
         vertex 1.565760e+000 5.587385e+000 3.048000e+000
         vertex 3.672008e+000 4.982619e+000 3.048000e+000
         vertex 2.294063e+000 6.848842e+000 3.048000e+000
      endloop
   endfacet
   facet normal 0.000000e+000 0.000000e+000 1.000000e+000
      outer loop
         vertex 2.294063e+000 6.848842e+000 3.048000e+000
         vertex 3.672008e+000 4.982619e+000 3.048000e+000
         vertex 4.002369e+000 5.477040e+000 3.048000e+000
      endloop
   endfacet
   facet normal 0.000000e+000 0.000000e+000 1.000000e+000
      outer loop
         vertex 2.294063e+000 6.848842e+000 3.048000e+000
         vertex 4.002369e+000 5.477040e+000 3.048000e+000
         vertex 4.351698e+000 8.036819e+000 3.048000e+000
      endloop
   endfacet
   facet normal 0.000000e+000 0.000000e+000 1.000000e+000
      outer loop
         vertex 4.351698e+000 8.036819e+000 3.048000e+000
         vertex 4.002369e+000 5.477040e+000 3.048000e+000
         vertex 4.496790e+000 5.807402e+000 3.048000e+000
      endloop
   endfacet
   facet normal 0.000000e+000 0.000000e+000 1.000000e+000
      outer loop
         vertex 4.351698e+000 8.036819e+000 3.048000e+000
         vertex 4.496790e+000 5.807402e+000 3.048000e+000
         vertex 5.080000e+000 5.923409e+000 3.048000e+000
      endloop
   endfacet
   facet normal 0.000000e+000 0.000000e+000 1.000000e+000
      outer loop
         vertex 6.157631e+000 3.321778e+000 3.048000e+000
         vertex 5.663209e+000 2.991416e+000 3.048000e+000
         vertex 5.808302e+000 7.620000e-001 3.048000e+000
      endloop
   endfacet
   facet normal 0.000000e+000 0.000000e+000 1.000000e+000
      outer loop
         vertex 5.808302e+000 7.620000e-001 3.048000e+000
         vertex 5.663209e+000 2.991416e+000 3.048000e+000
         vertex 5.080000e+000 2.875409e+000 3.048000e+000
      endloop
   endfacet
   facet normal 0.000000e+000 0.000000e+000 1.000000e+000
      outer loop
         vertex 5.808302e+000 7.620000e-001 3.048000e+000
         vertex 5.080000e+000 2.875409e+000 3.048000e+000
         vertex 4.351698e+000 7.620000e-001 3.048000e+000
      endloop
   endfacet
   facet normal 0.000000e+000 0.000000e+000 1.000000e+000
      outer loop
         vertex 4.351698e+000 7.620000e-001 3.048000e+000
         vertex 5.080000e+000 2.875409e+000 3.048000e+000
         vertex 4.496790e+000 2.991416e+000 3.048000e+000
      endloop
   endfacet
   facet normal 0.000000e+000 0.000000e+000 1.000000e+000
      outer loop
         vertex 4.351698e+000 7.620000e-001 3.048000e+000
         vertex 4.496790e+000 2.991416e+000 3.048000e+000
         vertex 2.294063e+000 1.949976e+000 3.048000e+000
      endloop
   endfacet
   facet normal 0.000000e+000 0.000000e+000 1.000000e+000
      outer loop
         vertex 2.294063e+000 1.949976e+000 3.048000e+000
         vertex 4.496790e+000 2.991416e+000 3.048000e+000
         vertex 4.002369e+000 3.321778e+000 3.048000e+000
      endloop
   endfacet
   facet normal 0.000000e+000 0.000000e+000 1.000000e+000
      outer loop
         vertex 2.294063e+000 1.949976e+000 3.048000e+000
         vertex 4.002369e+000 3.321778e+000 3.048000e+000
         vertex 1.565760e+000 3.211433e+000 3.048000e+000
      endloop
   endfacet
   facet normal 0.000000e+000 0.000000e+000 1.000000e+000
      outer loop
         vertex 1.565760e+000 3.211433e+000 3.048000e+000
         vertex 4.002369e+000 3.321778e+000 3.048000e+000
         vertex 3.672008e+000 3.816200e+000 3.048000e+000
      endloop
   endfacet
   facet normal 0.000000e+000 0.000000e+000 1.000000e+000
      outer loop
         vertex 1.565760e+000 3.211433e+000 3.048000e+000
         vertex 3.672008e+000 3.816200e+000 3.048000e+000
         vertex 1.565760e+000 5.587385e+000 3.048000e+000
      endloop
   endfacet
   facet normal 0.000000e+000 0.000000e+000 1.000000e+000
      outer loop
         vertex 1.565760e+000 5.587385e+000 3.048000e+000
         vertex 3.672008e+000 3.816200e+000 3.048000e+000
         vertex 3.556000e+000 4.399409e+000 3.048000e+000
      endloop
   endfacet
   facet normal 0.000000e+000 0.000000e+000 1.000000e+000
      outer loop
         vertex 1.565760e+000 5.587385e+000 3.048000e+000
         vertex 3.556000e+000 4.399409e+000 3.048000e+000
         vertex 3.672008e+000 4.982619e+000 3.048000e+000
      endloop
   endfacet
   facet normal 0.000000e+000 0.000000e+000 -1.000000e+000
      outer loop
         vertex 0.000000e+000 4.399409e+000 0.000000e+000
         vertex 3.556000e+000 4.399409e+000 0.000000e+000
         vertex 3.672008e+000 3.816200e+000 0.000000e+000
      endloop
   endfacet
   facet normal 0.000000e+000 0.000000e+000 -1.000000e+000
      outer loop
         vertex 7.620000e+000 8.798818e+000 0.000000e+000
         vertex 5.663209e+000 5.807402e+000 0.000000e+000
         vertex 5.080000e+000 5.923409e+000 0.000000e+000
      endloop
   endfacet
   facet normal 0.000000e+000 0.000000e+000 -1.000000e+000
      outer loop
         vertex 0.000000e+000 4.399409e+000 0.000000e+000
         vertex 3.672008e+000 3.816200e+000 0.000000e+000
         vertex 2.540000e+000 0.000000e+000 0.000000e+000
      endloop
   endfacet
   facet normal 0.000000e+000 0.000000e+000 -1.000000e+000
      outer loop
         vertex 7.620000e+000 8.798818e+000 0.000000e+000
         vertex 5.080000e+000 5.923409e+000 0.000000e+000
         vertex 2.540000e+000 8.798818e+000 0.000000e+000
      endloop
   endfacet
   facet normal 0.000000e+000 0.000000e+000 -1.000000e+000
      outer loop
         vertex 5.080000e+000 5.923409e+000 0.000000e+000
         vertex 4.496790e+000 5.807402e+000 0.000000e+000
         vertex 2.540000e+000 8.798818e+000 0.000000e+000
      endloop
   endfacet
   facet normal 0.000000e+000 0.000000e+000 -1.000000e+000
      outer loop
         vertex 2.540000e+000 8.798818e+000 0.000000e+000
         vertex 4.496790e+000 5.807402e+000 0.000000e+000
         vertex 4.002369e+000 5.477040e+000 0.000000e+000
      endloop
   endfacet
   facet normal 0.000000e+000 0.000000e+000 -1.000000e+000
      outer loop
         vertex 2.540000e+000 8.798818e+000 0.000000e+000
         vertex 4.002369e+000 5.477040e+000 0.000000e+000
         vertex 0.000000e+000 4.399409e+000 0.000000e+000
      endloop
   endfacet
   facet normal 0.000000e+000 0.000000e+000 -1.000000e+000
      outer loop
         vertex 0.000000e+000 4.399409e+000 0.000000e+000
         vertex 4.002369e+000 5.477040e+000 0.000000e+000
         vertex 3.672008e+000 4.982619e+000 0.000000e+000
      endloop
   endfacet
   facet normal 0.000000e+000 0.000000e+000 -1.000000e+000
      outer loop
         vertex 0.000000e+000 4.399409e+000 0.000000e+000
         vertex 3.672008e+000 4.982619e+000 0.000000e+000
         vertex 3.556000e+000 4.399409e+000 0.000000e+000
      endloop
   endfacet
   facet normal 0.000000e+000 0.000000e+000 -1.000000e+000
      outer loop
         vertex 6.487993e+000 3.816200e+000 0.000000e+000
         vertex 1.016000e+001 4.399409e+000 0.000000e+000
         vertex 6.157631e+000 3.321778e+000 0.000000e+000
      endloop
   endfacet
   facet normal 0.000000e+000 0.000000e+000 -1.000000e+000
      outer loop
         vertex 6.157631e+000 3.321778e+000 0.000000e+000
         vertex 1.016000e+001 4.399409e+000 0.000000e+000
         vertex 7.620000e+000 0.000000e+000 0.000000e+000
      endloop
   endfacet
   facet normal 0.000000e+000 0.000000e+000 -1.000000e+000
      outer loop
         vertex 6.157631e+000 3.321778e+000 0.000000e+000
         vertex 7.620000e+000 0.000000e+000 0.000000e+000
         vertex 5.663209e+000 2.991416e+000 0.000000e+000
      endloop
   endfacet
   facet normal 0.000000e+000 0.000000e+000 -1.000000e+000
      outer loop
         vertex 6.487993e+000 3.816200e+000 0.000000e+000
         vertex 6.604000e+000 4.399409e+000 0.000000e+000
         vertex 1.016000e+001 4.399409e+000 0.000000e+000
      endloop
   endfacet
   facet normal 0.000000e+000 0.000000e+000 -1.000000e+000
      outer loop
         vertex 1.016000e+001 4.399409e+000 0.000000e+000
         vertex 6.604000e+000 4.399409e+000 0.000000e+000
         vertex 6.487993e+000 4.982619e+000 0.000000e+000
      endloop
   endfacet
   facet normal 0.000000e+000 0.000000e+000 -1.000000e+000
      outer loop
         vertex 1.016000e+001 4.399409e+000 0.000000e+000
         vertex 6.487993e+000 4.982619e+000 0.000000e+000
         vertex 7.620000e+000 8.798818e+000 0.000000e+000
      endloop
   endfacet
   facet normal 0.000000e+000 0.000000e+000 -1.000000e+000
      outer loop
         vertex 7.620000e+000 8.798818e+000 0.000000e+000
         vertex 6.487993e+000 4.982619e+000 0.000000e+000
         vertex 6.157631e+000 5.477040e+000 0.000000e+000
      endloop
   endfacet
   facet normal 0.000000e+000 0.000000e+000 -1.000000e+000
      outer loop
         vertex 7.620000e+000 8.798818e+000 0.000000e+000
         vertex 6.157631e+000 5.477040e+000 0.000000e+000
         vertex 5.663209e+000 5.807402e+000 0.000000e+000
      endloop
   endfacet
   facet normal 0.000000e+000 0.000000e+000 -1.000000e+000
      outer loop
         vertex 3.672008e+000 3.816200e+000 0.000000e+000
         vertex 4.002369e+000 3.321778e+000 0.000000e+000
         vertex 2.540000e+000 0.000000e+000 0.000000e+000
      endloop
   endfacet
   facet normal 0.000000e+000 0.000000e+000 -1.000000e+000
      outer loop
         vertex 2.540000e+000 0.000000e+000 0.000000e+000
         vertex 4.002369e+000 3.321778e+000 0.000000e+000
         vertex 4.496790e+000 2.991416e+000 0.000000e+000
      endloop
   endfacet
   facet normal 0.000000e+000 0.000000e+000 -1.000000e+000
      outer loop
         vertex 2.540000e+000 0.000000e+000 0.000000e+000
         vertex 4.496790e+000 2.991416e+000 0.000000e+000
         vertex 7.620000e+000 0.000000e+000 0.000000e+000
      endloop
   endfacet
   facet normal 0.000000e+000 0.000000e+000 -1.000000e+000
      outer loop
         vertex 7.620000e+000 0.000000e+000 0.000000e+000
         vertex 4.496790e+000 2.991416e+000 0.000000e+000
         vertex 5.080000e+000 2.875409e+000 0.000000e+000
      endloop
   endfacet
   facet normal 0.000000e+000 0.000000e+000 -1.000000e+000
      outer loop
         vertex 7.620000e+000 0.000000e+000 0.000000e+000
         vertex 5.080000e+000 2.875409e+000 0.000000e+000
         vertex 5.663209e+000 2.991416e+000 0.000000e+000
      endloop
   endfacet
   facet normal -8.660254e-001 5.000000e-001 0.000000e+000
      outer loop
         vertex 2.540000e+000 8.798818e+000 1.692012e+000
         vertex 2.540000e+000 8.798818e+000 8.673617e-016
         vertex 1.854122e+000 7.610842e+000 2.286000e+000
      endloop
   endfacet
   facet normal -8.660254e-001 5.000000e-001 0.000000e+000
      outer loop
         vertex 1.854122e+000 7.610842e+000 2.286000e+000
         vertex 2.540000e+000 8.798818e+000 8.673617e-016
         vertex 0.000000e+000 4.399409e+000 8.673617e-016
      endloop
   endfacet
   facet normal -8.660254e-001 5.000000e-001 0.000000e+000
      outer loop
         vertex 1.854122e+000 7.610842e+000 2.286000e+000
         vertex 0.000000e+000 4.399409e+000 8.673617e-016
         vertex 6.858786e-001 5.587385e+000 2.286000e+000
      endloop
   endfacet
   facet normal -8.660254e-001 5.000000e-001 0.000000e+000
      outer loop
         vertex 6.858786e-001 5.587385e+000 2.286000e+000
         vertex 0.000000e+000 4.399409e+000 8.673617e-016
         vertex 0.000000e+000 4.399409e+000 1.692012e+000
      endloop
   endfacet
   facet normal -8.660254e-001 -5.000000e-001 0.000000e+000
      outer loop
         vertex 0.000000e+000 4.399409e+000 1.692012e+000
         vertex 0.000000e+000 4.399409e+000 0.000000e+000
         vertex 6.858786e-001 3.211433e+000 2.286000e+000
      endloop
   endfacet
   facet normal -8.660254e-001 -5.000000e-001 0.000000e+000
      outer loop
         vertex 6.858786e-001 3.211433e+000 2.286000e+000
         vertex 0.000000e+000 4.399409e+000 0.000000e+000
         vertex 2.540000e+000 0.000000e+000 0.000000e+000
      endloop
   endfacet
   facet normal -8.660254e-001 -5.000000e-001 0.000000e+000
      outer loop
         vertex 6.858786e-001 3.211433e+000 2.286000e+000
         vertex 2.540000e+000 0.000000e+000 0.000000e+000
         vertex 1.854122e+000 1.187976e+000 2.286000e+000
      endloop
   endfacet
   facet normal -8.660254e-001 -5.000000e-001 0.000000e+000
      outer loop
         vertex 1.854122e+000 1.187976e+000 2.286000e+000
         vertex 2.540000e+000 0.000000e+000 0.000000e+000
         vertex 2.540000e+000 0.000000e+000 1.692012e+000
      endloop
   endfacet
   facet normal -1.707405e-016 -1.000000e+000 0.000000e+000
      outer loop
         vertex 2.540000e+000 0.000000e+000 1.692012e+000
         vertex 2.540000e+000 0.000000e+000 8.673617e-016
         vertex 3.911757e+000 0.000000e+000 2.286000e+000
      endloop
   endfacet
   facet normal -1.707405e-016 -1.000000e+000 0.000000e+000
      outer loop
         vertex 3.911757e+000 0.000000e+000 2.286000e+000
         vertex 2.540000e+000 0.000000e+000 8.673617e-016
         vertex 7.620000e+000 0.000000e+000 8.673617e-016
      endloop
   endfacet
   facet normal -1.707405e-016 -1.000000e+000 0.000000e+000
      outer loop
         vertex 3.911757e+000 0.000000e+000 2.286000e+000
         vertex 7.620000e+000 0.000000e+000 8.673617e-016
         vertex 6.248243e+000 0.000000e+000 2.286000e+000
      endloop
   endfacet
   facet normal -1.707405e-016 -1.000000e+000 0.000000e+000
      outer loop
         vertex 6.248243e+000 0.000000e+000 2.286000e+000
         vertex 7.620000e+000 0.000000e+000 8.673617e-016
         vertex 7.620000e+000 0.000000e+000 1.692012e+000
      endloop
   endfacet
   facet normal 8.660254e-001 -5.000000e-001 0.000000e+000
      outer loop
         vertex 7.620000e+000 0.000000e+000 1.692012e+000
         vertex 7.620000e+000 0.000000e+000 0.000000e+000
         vertex 8.305879e+000 1.187976e+000 2.286000e+000
      endloop
   endfacet
   facet normal 8.660254e-001 -5.000000e-001 0.000000e+000
      outer loop
         vertex 8.305879e+000 1.187976e+000 2.286000e+000
         vertex 7.620000e+000 0.000000e+000 0.000000e+000
         vertex 1.016000e+001 4.399409e+000 0.000000e+000
      endloop
   endfacet
   facet normal 8.660254e-001 -5.000000e-001 0.000000e+000
      outer loop
         vertex 8.305879e+000 1.187976e+000 2.286000e+000
         vertex 1.016000e+001 4.399409e+000 0.000000e+000
         vertex 9.474121e+000 3.211433e+000 2.286000e+000
      endloop
   endfacet
   facet normal 8.660254e-001 -5.000000e-001 0.000000e+000
      outer loop
         vertex 9.474121e+000 3.211433e+000 2.286000e+000
         vertex 1.016000e+001 4.399409e+000 0.000000e+000
         vertex 1.016000e+001 4.399409e+000 1.692012e+000
      endloop
   endfacet
   facet normal 8.660254e-001 5.000000e-001 0.000000e+000
      outer loop
         vertex 1.016000e+001 4.399409e+000 1.692012e+000
         vertex 1.016000e+001 4.399409e+000 0.000000e+000
         vertex 9.474121e+000 5.587385e+000 2.286000e+000
      endloop
   endfacet
   facet normal 8.660254e-001 5.000000e-001 0.000000e+000
      outer loop
         vertex 9.474121e+000 5.587385e+000 2.286000e+000
         vertex 1.016000e+001 4.399409e+000 0.000000e+000
         vertex 7.620000e+000 8.798818e+000 0.000000e+000
      endloop
   endfacet
   facet normal 8.660254e-001 5.000000e-001 0.000000e+000
      outer loop
         vertex 9.474121e+000 5.587385e+000 2.286000e+000
         vertex 7.620000e+000 8.798818e+000 0.000000e+000
         vertex 8.305879e+000 7.610842e+000 2.286000e+000
      endloop
   endfacet
   facet normal 8.660254e-001 5.000000e-001 0.000000e+000
      outer loop
         vertex 8.305879e+000 7.610842e+000 2.286000e+000
         vertex 7.620000e+000 8.798818e+000 0.000000e+000
         vertex 7.620000e+000 8.798818e+000 1.692012e+000
      endloop
   endfacet
   facet normal -1.707405e-016 1.000000e+000 0.000000e+000
      outer loop
         vertex 7.620000e+000 8.798818e+000 1.692012e+000
         vertex 7.620000e+000 8.798818e+000 8.673617e-016
         vertex 6.248243e+000 8.798818e+000 2.286000e+000
      endloop
   endfacet
   facet normal -1.707405e-016 1.000000e+000 0.000000e+000
      outer loop
         vertex 6.248243e+000 8.798818e+000 2.286000e+000
         vertex 7.620000e+000 8.798818e+000 8.673617e-016
         vertex 2.540000e+000 8.798818e+000 8.673617e-016
      endloop
   endfacet
   facet normal -1.707405e-016 1.000000e+000 0.000000e+000
      outer loop
         vertex 6.248243e+000 8.798818e+000 2.286000e+000
         vertex 2.540000e+000 8.798818e+000 8.673617e-016
         vertex 3.911757e+000 8.798818e+000 2.286000e+000
      endloop
   endfacet
   facet normal -1.707405e-016 1.000000e+000 0.000000e+000
      outer loop
         vertex 3.911757e+000 8.798818e+000 2.286000e+000
         vertex 2.540000e+000 8.798818e+000 8.673617e-016
         vertex 2.540000e+000 8.798818e+000 1.692012e+000
      endloop
   endfacet
   facet normal 9.807853e-001 -1.950903e-001 0.000000e+000
      outer loop
         vertex 3.672008e+000 4.982619e+000 3.048000e+000
         vertex 3.556000e+000 4.399409e+000 3.048000e+000
         vertex 3.672008e+000 4.982619e+000 0.000000e+000
      endloop
   endfacet
   facet normal 9.807853e-001 -1.950903e-001 0.000000e+000
      outer loop
         vertex 3.672008e+000 4.982619e+000 0.000000e+000
         vertex 3.556000e+000 4.399409e+000 3.048000e+000
         vertex 3.556000e+000 4.399409e+000 0.000000e+000
      endloop
   endfacet
   facet normal 9.807853e-001 1.950903e-001 0.000000e+000
      outer loop
         vertex 3.556000e+000 4.399409e+000 3.048000e+000
         vertex 3.672008e+000 3.816200e+000 3.048000e+000
         vertex 3.556000e+000 4.399409e+000 0.000000e+000
      endloop
   endfacet
   facet normal 9.807853e-001 1.950903e-001 0.000000e+000
      outer loop
         vertex 3.556000e+000 4.399409e+000 0.000000e+000
         vertex 3.672008e+000 3.816200e+000 3.048000e+000
         vertex 3.672008e+000 3.816200e+000 0.000000e+000
      endloop
   endfacet
   facet normal 8.314696e-001 5.555702e-001 0.000000e+000
      outer loop
         vertex 3.672008e+000 3.816200e+000 3.048000e+000
         vertex 4.002369e+000 3.321778e+000 3.048000e+000
         vertex 3.672008e+000 3.816200e+000 -1.734723e-015
      endloop
   endfacet
   facet normal 8.314696e-001 5.555702e-001 0.000000e+000
      outer loop
         vertex 3.672008e+000 3.816200e+000 -1.734723e-015
         vertex 4.002369e+000 3.321778e+000 3.048000e+000
         vertex 4.002369e+000 3.321778e+000 -1.734723e-015
      endloop
   endfacet
   facet normal 5.555702e-001 8.314696e-001 0.000000e+000
      outer loop
         vertex 4.002369e+000 3.321778e+000 3.048000e+000
         vertex 4.496790e+000 2.991416e+000 3.048000e+000
         vertex 4.002369e+000 3.321778e+000 0.000000e+000
      endloop
   endfacet
   facet normal 5.555702e-001 8.314696e-001 0.000000e+000
      outer loop
         vertex 4.002369e+000 3.321778e+000 0.000000e+000
         vertex 4.496790e+000 2.991416e+000 3.048000e+000
         vertex 4.496790e+000 2.991416e+000 0.000000e+000
      endloop
   endfacet
   facet normal 1.950903e-001 9.807853e-001 0.000000e+000
      outer loop
         vertex 4.496790e+000 2.991416e+000 3.048000e+000
         vertex 5.080000e+000 2.875409e+000 3.048000e+000
         vertex 4.496790e+000 2.991416e+000 0.000000e+000
      endloop
   endfacet
   facet normal 1.950903e-001 9.807853e-001 0.000000e+000
      outer loop
         vertex 4.496790e+000 2.991416e+000 0.000000e+000
         vertex 5.080000e+000 2.875409e+000 3.048000e+000
         vertex 5.080000e+000 2.875409e+000 0.000000e+000
      endloop
   endfacet
   facet normal -1.950903e-001 9.807853e-001 0.000000e+000
      outer loop
         vertex 5.080000e+000 2.875409e+000 3.048000e+000
         vertex 5.663209e+000 2.991416e+000 3.048000e+000
         vertex 5.080000e+000 2.875409e+000 0.000000e+000
      endloop
   endfacet
   facet normal -1.950903e-001 9.807853e-001 0.000000e+000
      outer loop
         vertex 5.080000e+000 2.875409e+000 0.000000e+000
         vertex 5.663209e+000 2.991416e+000 3.048000e+000
         vertex 5.663209e+000 2.991416e+000 0.000000e+000
      endloop
   endfacet
   facet normal -5.555702e-001 8.314696e-001 0.000000e+000
      outer loop
         vertex 5.663209e+000 2.991416e+000 3.048000e+000
         vertex 6.157631e+000 3.321778e+000 3.048000e+000
         vertex 5.663209e+000 2.991416e+000 0.000000e+000
      endloop
   endfacet
   facet normal -5.555702e-001 8.314696e-001 0.000000e+000
      outer loop
         vertex 5.663209e+000 2.991416e+000 0.000000e+000
         vertex 6.157631e+000 3.321778e+000 3.048000e+000
         vertex 6.157631e+000 3.321778e+000 0.000000e+000
      endloop
   endfacet
   facet normal -8.314696e-001 5.555702e-001 0.000000e+000
      outer loop
         vertex 6.157631e+000 3.321778e+000 3.048000e+000
         vertex 6.487993e+000 3.816200e+000 3.048000e+000
         vertex 6.157631e+000 3.321778e+000 0.000000e+000
      endloop
   endfacet
   facet normal -8.314696e-001 5.555702e-001 0.000000e+000
      outer loop
         vertex 6.157631e+000 3.321778e+000 0.000000e+000
         vertex 6.487993e+000 3.816200e+000 3.048000e+000
         vertex 6.487993e+000 3.816200e+000 0.000000e+000
      endloop
   endfacet
   facet normal -9.807853e-001 1.950903e-001 0.000000e+000
      outer loop
         vertex 6.487993e+000 3.816200e+000 3.048000e+000
         vertex 6.604000e+000 4.399409e+000 3.048000e+000
         vertex 6.487993e+000 3.816200e+000 -1.734723e-015
      endloop
   endfacet
   facet normal -9.807853e-001 1.950903e-001 0.000000e+000
      outer loop
         vertex 6.487993e+000 3.816200e+000 -1.734723e-015
         vertex 6.604000e+000 4.399409e+000 3.048000e+000
         vertex 6.604000e+000 4.399409e+000 -1.734723e-015
      endloop
   endfacet
   facet normal -9.807853e-001 -1.950903e-001 0.000000e+000
      outer loop
         vertex 6.604000e+000 4.399409e+000 3.048000e+000
         vertex 6.487993e+000 4.982619e+000 3.048000e+000
         vertex 6.604000e+000 4.399409e+000 0.000000e+000
      endloop
   endfacet
   facet normal -9.807853e-001 -1.950903e-001 0.000000e+000
      outer loop
         vertex 6.604000e+000 4.399409e+000 0.000000e+000
         vertex 6.487993e+000 4.982619e+000 3.048000e+000
         vertex 6.487993e+000 4.982619e+000 0.000000e+000
      endloop
   endfacet
   facet normal -8.314696e-001 -5.555702e-001 0.000000e+000
      outer loop
         vertex 6.487993e+000 4.982619e+000 3.048000e+000
         vertex 6.157631e+000 5.477040e+000 3.048000e+000
         vertex 6.487993e+000 4.982619e+000 0.000000e+000
      endloop
   endfacet
   facet normal -8.314696e-001 -5.555702e-001 0.000000e+000
      outer loop
         vertex 6.487993e+000 4.982619e+000 0.000000e+000
         vertex 6.157631e+000 5.477040e+000 3.048000e+000
         vertex 6.157631e+000 5.477040e+000 0.000000e+000
      endloop
   endfacet
   facet normal -5.555702e-001 -8.314696e-001 0.000000e+000
      outer loop
         vertex 6.157631e+000 5.477040e+000 3.048000e+000
         vertex 5.663209e+000 5.807402e+000 3.048000e+000
         vertex 6.157631e+000 5.477040e+000 0.000000e+000
      endloop
   endfacet
   facet normal -5.555702e-001 -8.314696e-001 0.000000e+000
      outer loop
         vertex 6.157631e+000 5.477040e+000 0.000000e+000
         vertex 5.663209e+000 5.807402e+000 3.048000e+000
         vertex 5.663209e+000 5.807402e+000 0.000000e+000
      endloop
   endfacet
   facet normal -1.950903e-001 -9.807853e-001 0.000000e+000
      outer loop
         vertex 5.663209e+000 5.807402e+000 3.048000e+000
         vertex 5.080000e+000 5.923409e+000 3.048000e+000
         vertex 5.663209e+000 5.807402e+000 0.000000e+000
      endloop
   endfacet
   facet normal -1.950903e-001 -9.807853e-001 0.000000e+000
      outer loop
         vertex 5.663209e+000 5.807402e+000 0.000000e+000
         vertex 5.080000e+000 5.923409e+000 3.048000e+000
         vertex 5.080000e+000 5.923409e+000 0.000000e+000
      endloop
   endfacet
   facet normal 1.950903e-001 -9.807853e-001 0.000000e+000
      outer loop
         vertex 5.080000e+000 5.923409e+000 3.048000e+000
         vertex 4.496790e+000 5.807402e+000 3.048000e+000
         vertex 5.080000e+000 5.923409e+000 0.000000e+000
      endloop
   endfacet
   facet normal 1.950903e-001 -9.807853e-001 0.000000e+000
      outer loop
         vertex 5.080000e+000 5.923409e+000 0.000000e+000
         vertex 4.496790e+000 5.807402e+000 3.048000e+000
         vertex 4.496790e+000 5.807402e+000 0.000000e+000
      endloop
   endfacet
   facet normal 5.555702e-001 -8.314696e-001 0.000000e+000
      outer loop
         vertex 4.496790e+000 5.807402e+000 3.048000e+000
         vertex 4.002369e+000 5.477040e+000 3.048000e+000
         vertex 4.496790e+000 5.807402e+000 -1.734723e-015
      endloop
   endfacet
   facet normal 5.555702e-001 -8.314696e-001 0.000000e+000
      outer loop
         vertex 4.496790e+000 5.807402e+000 -1.734723e-015
         vertex 4.002369e+000 5.477040e+000 3.048000e+000
         vertex 4.002369e+000 5.477040e+000 -1.734723e-015
      endloop
   endfacet
   facet normal 8.314696e-001 -5.555702e-001 0.000000e+000
      outer loop
         vertex 4.002369e+000 5.477040e+000 3.048000e+000
         vertex 3.672008e+000 4.982619e+000 3.048000e+000
         vertex 4.002369e+000 5.477040e+000 -1.734723e-015
      endloop
   endfacet
   facet normal 8.314696e-001 -5.555702e-001 0.000000e+000
      outer loop
         vertex 4.002369e+000 5.477040e+000 -1.734723e-015
         vertex 3.672008e+000 4.982619e+000 3.048000e+000
         vertex 3.672008e+000 4.982619e+000 -1.734723e-015
      endloop
   endfacet
   facet normal 6.123725e-001 3.535534e-001 7.071068e-001
      outer loop
         vertex 9.474121e+000 5.587385e+000 2.286000e+000
         vertex 8.305879e+000 7.610842e+000 2.286000e+000
         vertex 8.594240e+000 5.587385e+000 3.048000e+000
      endloop
   endfacet
   facet normal 6.123725e-001 3.535534e-001 7.071068e-001
      outer loop
         vertex 8.594240e+000 5.587385e+000 3.048000e+000
         vertex 8.305879e+000 7.610842e+000 2.286000e+000
         vertex 7.865937e+000 6.848842e+000 3.048000e+000
      endloop
   endfacet
   facet normal -1.207318e-016 7.071068e-001 7.071068e-001
      outer loop
         vertex 6.248243e+000 8.798818e+000 2.286000e+000
         vertex 3.911757e+000 8.798818e+000 2.286000e+000
         vertex 5.808302e+000 8.036819e+000 3.048000e+000
      endloop
   endfacet
   facet normal -1.207318e-016 7.071068e-001 7.071068e-001
      outer loop
         vertex 5.808302e+000 8.036819e+000 3.048000e+000
         vertex 3.911757e+000 8.798818e+000 2.286000e+000
         vertex 4.351698e+000 8.036819e+000 3.048000e+000
      endloop
   endfacet
   facet normal 6.123725e-001 -3.535534e-001 7.071068e-001
      outer loop
         vertex 8.305879e+000 1.187976e+000 2.286000e+000
         vertex 9.474121e+000 3.211433e+000 2.286000e+000
         vertex 7.865937e+000 1.949976e+000 3.048000e+000
      endloop
   endfacet
   facet normal 6.123725e-001 -3.535534e-001 7.071068e-001
      outer loop
         vertex 7.865937e+000 1.949976e+000 3.048000e+000
         vertex 9.474121e+000 3.211433e+000 2.286000e+000
         vertex 8.594240e+000 3.211433e+000 3.048000e+000
      endloop
   endfacet
   facet normal -6.123725e-001 3.535534e-001 7.071068e-001
      outer loop
         vertex 1.854122e+000 7.610842e+000 2.286000e+000
         vertex 6.858786e-001 5.587385e+000 2.286000e+000
         vertex 2.294063e+000 6.848842e+000 3.048000e+000
      endloop
   endfacet
   facet normal -6.123725e-001 3.535534e-001 7.071068e-001
      outer loop
         vertex 2.294063e+000 6.848842e+000 3.048000e+000
         vertex 6.858786e-001 5.587385e+000 2.286000e+000
         vertex 1.565760e+000 5.587385e+000 3.048000e+000
      endloop
   endfacet
   facet normal -1.207318e-016 -7.071068e-001 7.071068e-001
      outer loop
         vertex 3.911757e+000 0.000000e+000 2.286000e+000
         vertex 6.248243e+000 0.000000e+000 2.286000e+000
         vertex 4.351698e+000 7.620000e-001 3.048000e+000
      endloop
   endfacet
   facet normal -1.207318e-016 -7.071068e-001 7.071068e-001
      outer loop
         vertex 4.351698e+000 7.620000e-001 3.048000e+000
         vertex 6.248243e+000 0.000000e+000 2.286000e+000
         vertex 5.808302e+000 7.620000e-001 3.048000e+000
      endloop
   endfacet
   facet normal -6.123725e-001 -3.535534e-001 7.071068e-001
      outer loop
         vertex 2.294063e+000 1.949976e+000 3.048000e+000
         vertex 1.565760e+000 3.211433e+000 3.048000e+000
         vertex 1.854122e+000 1.187976e+000 2.286000e+000
      endloop
   endfacet
   facet normal -6.123725e-001 -3.535534e-001 7.071068e-001
      outer loop
         vertex 1.854122e+000 1.187976e+000 2.286000e+000
         vertex 1.565760e+000 3.211433e+000 3.048000e+000
         vertex 6.858786e-001 3.211433e+000 2.286000e+000
      endloop
   endfacet
   facet normal -6.546537e-001 -5.475878e-016 7.559289e-001
      outer loop
         vertex 0.000000e+000 4.399409e+000 1.692012e+000
         vertex 6.858786e-001 3.211433e+000 2.286000e+000
         vertex 6.858786e-001 5.587385e+000 2.286000e+000
      endloop
   endfacet
   facet normal -6.546537e-001 -5.475878e-016 7.559289e-001
      outer loop
         vertex 6.858786e-001 5.587385e+000 2.286000e+000
         vertex 6.858786e-001 3.211433e+000 2.286000e+000
         vertex 1.565760e+000 3.211433e+000 3.048000e+000
      endloop
   endfacet
   facet normal -6.546537e-001 -5.475878e-016 7.559289e-001
      outer loop
         vertex 6.858786e-001 5.587385e+000 2.286000e+000
         vertex 1.565760e+000 3.211433e+000 3.048000e+000
         vertex 1.565760e+000 5.587385e+000 3.048000e+000
      endloop
   endfacet
   facet normal -3.273268e-001 -5.669467e-001 7.559289e-001
      outer loop
         vertex 4.351698e+000 7.620000e-001 3.048000e+000
         vertex 2.294063e+000 1.949976e+000 3.048000e+000
         vertex 3.911757e+000 0.000000e+000 2.286000e+000
      endloop
   endfacet
   facet normal -3.273268e-001 -5.669467e-001 7.559289e-001
      outer loop
         vertex 3.911757e+000 0.000000e+000 2.286000e+000
         vertex 2.294063e+000 1.949976e+000 3.048000e+000
         vertex 1.854122e+000 1.187976e+000 2.286000e+000
      endloop
   endfacet
   facet normal -3.273268e-001 -5.669467e-001 7.559289e-001
      outer loop
         vertex 3.911757e+000 0.000000e+000 2.286000e+000
         vertex 1.854122e+000 1.187976e+000 2.286000e+000
         vertex 2.540000e+000 0.000000e+000 1.692012e+000
      endloop
   endfacet
   facet normal 3.273268e-001 -5.669467e-001 7.559289e-001
      outer loop
         vertex 7.620000e+000 0.000000e+000 1.692012e+000
         vertex 8.305879e+000 1.187976e+000 2.286000e+000
         vertex 6.248243e+000 0.000000e+000 2.286000e+000
      endloop
   endfacet
   facet normal 3.273268e-001 -5.669467e-001 7.559289e-001
      outer loop
         vertex 6.248243e+000 0.000000e+000 2.286000e+000
         vertex 8.305879e+000 1.187976e+000 2.286000e+000
         vertex 7.865937e+000 1.949976e+000 3.048000e+000
      endloop
   endfacet
   facet normal 3.273268e-001 -5.669467e-001 7.559289e-001
      outer loop
         vertex 6.248243e+000 0.000000e+000 2.286000e+000
         vertex 7.865937e+000 1.949976e+000 3.048000e+000
         vertex 5.808302e+000 7.620000e-001 3.048000e+000
      endloop
   endfacet
   facet normal 6.546537e-001 9.126464e-017 7.559289e-001
      outer loop
         vertex 1.016000e+001 4.399409e+000 1.692012e+000
         vertex 9.474121e+000 5.587385e+000 2.286000e+000
         vertex 9.474121e+000 3.211433e+000 2.286000e+000
      endloop
   endfacet
   facet normal 6.546537e-001 9.126464e-017 7.559289e-001
      outer loop
         vertex 9.474121e+000 3.211433e+000 2.286000e+000
         vertex 9.474121e+000 5.587385e+000 2.286000e+000
         vertex 8.594240e+000 5.587385e+000 3.048000e+000
      endloop
   endfacet
   facet normal 6.546537e-001 9.126464e-017 7.559289e-001
      outer loop
         vertex 9.474121e+000 3.211433e+000 2.286000e+000
         vertex 8.594240e+000 5.587385e+000 3.048000e+000
         vertex 8.594240e+000 3.211433e+000 3.048000e+000
      endloop
   endfacet
   facet normal 3.273268e-001 5.669467e-001 7.559289e-001
      outer loop
         vertex 5.808302e+000 8.036819e+000 3.048000e+000
         vertex 7.865937e+000 6.848842e+000 3.048000e+000
         vertex 6.248243e+000 8.798818e+000 2.286000e+000
      endloop
   endfacet
   facet normal 3.273268e-001 5.669467e-001 7.559289e-001
      outer loop
         vertex 6.248243e+000 8.798818e+000 2.286000e+000
         vertex 7.865937e+000 6.848842e+000 3.048000e+000
         vertex 8.305879e+000 7.610842e+000 2.286000e+000
      endloop
   endfacet
   facet normal 3.273268e-001 5.669467e-001 7.559289e-001
      outer loop
         vertex 6.248243e+000 8.798818e+000 2.286000e+000
         vertex 8.305879e+000 7.610842e+000 2.286000e+000
         vertex 7.620000e+000 8.798818e+000 1.692012e+000
      endloop
   endfacet
   facet normal -3.273268e-001 5.669467e-001 7.559289e-001
      outer loop
         vertex 2.540000e+000 8.798818e+000 1.692012e+000
         vertex 1.854122e+000 7.610842e+000 2.286000e+000
         vertex 3.911757e+000 8.798818e+000 2.286000e+000
      endloop
   endfacet
   facet normal -3.273268e-001 5.669467e-001 7.559289e-001
      outer loop
         vertex 3.911757e+000 8.798818e+000 2.286000e+000
         vertex 1.854122e+000 7.610842e+000 2.286000e+000
         vertex 2.294063e+000 6.848842e+000 3.048000e+000
      endloop
   endfacet
   facet normal -3.273268e-001 5.669467e-001 7.559289e-001
      outer loop
         vertex 3.911757e+000 8.798818e+000 2.286000e+000
         vertex 2.294063e+000 6.848842e+000 3.048000e+000
         vertex 4.351698e+000 8.036819e+000 3.048000e+000
      endloop
   endfacet
endsolid