solid VexO_Battery_NiCd
   facet normal 1.000000e+000 0.000000e+000 -3.491483e-015
      outer loop
         vertex 1.285875e+002 1.317625e+001 3.889375e+001
         vertex 1.285875e+002 1.492250e+001 4.603750e+001
         vertex 1.285875e+002 1.063625e+001 3.889375e+001
      endloop
   endfacet
   facet normal 1.000000e+000 0.000000e+000 -3.491483e-015
      outer loop
         vertex 1.285875e+002 1.063625e+001 3.889375e+001
         vertex 1.285875e+002 1.492250e+001 4.603750e+001
         vertex 1.285875e+002 8.890000e+000 4.603750e+001
      endloop
   endfacet
   facet normal 1.000000e+000 0.000000e+000 -3.491483e-015
      outer loop
         vertex 1.285875e+002 1.063625e+001 3.889375e+001
         vertex 1.285875e+002 8.890000e+000 4.603750e+001
         vertex 1.285875e+002 8.468225e+000 3.799573e+001
      endloop
   endfacet
   facet normal 1.000000e+000 0.000000e+000 -3.491483e-015
      outer loop
         vertex 1.285875e+002 8.468225e+000 3.799573e+001
         vertex 1.285875e+002 8.890000e+000 4.603750e+001
         vertex 1.285875e+002 4.553949e+000 4.424145e+001
      endloop
   endfacet
   facet normal 1.000000e+000 0.000000e+000 -3.491483e-015
      outer loop
         vertex 1.285875e+002 8.468225e+000 3.799573e+001
         vertex 1.285875e+002 4.553949e+000 4.424145e+001
         vertex 1.285875e+002 5.556251e+000 3.508375e+001
      endloop
   endfacet
   facet normal 1.000000e+000 0.000000e+000 -3.491483e-015
      outer loop
         vertex 1.285875e+002 5.556251e+000 3.508375e+001
         vertex 1.285875e+002 4.553949e+000 4.424145e+001
         vertex 1.285875e+002 0.000000e+000 3.968750e+001
      endloop
   endfacet
   facet normal 1.000000e+000 0.000000e+000 -3.491483e-015
      outer loop
         vertex 1.285875e+002 5.556251e+000 3.508375e+001
         vertex 1.285875e+002 0.000000e+000 3.968750e+001
         vertex 1.285875e+002 5.556251e+000 1.095375e+001
      endloop
   endfacet
   facet normal 1.000000e+000 0.000000e+000 -3.491483e-015
      outer loop
         vertex 1.285875e+002 5.556251e+000 1.095375e+001
         vertex 1.285875e+002 0.000000e+000 3.968750e+001
         vertex 1.285875e+002 0.000000e+000 6.349999e+000
      endloop
   endfacet
   facet normal 1.000000e+000 0.000000e+000 -3.491483e-015
      outer loop
         vertex 1.285875e+002 5.556251e+000 1.095375e+001
         vertex 1.285875e+002 0.000000e+000 6.349999e+000
         vertex 1.285875e+002 8.468225e+000 8.041775e+000
      endloop
   endfacet
   facet normal 1.000000e+000 0.000000e+000 -3.491483e-015
      outer loop
         vertex 1.285875e+002 8.468225e+000 8.041775e+000
         vertex 1.285875e+002 0.000000e+000 6.349999e+000
         vertex 1.285875e+002 4.553949e+000 1.796050e+000
      endloop
   endfacet
   facet normal 1.000000e+000 0.000000e+000 -3.491483e-015
      outer loop
         vertex 1.285875e+002 8.468225e+000 8.041775e+000
         vertex 1.285875e+002 4.553949e+000 1.796050e+000
         vertex 1.285875e+002 1.063625e+001 7.143749e+000
      endloop
   endfacet
   facet normal 1.000000e+000 0.000000e+000 -3.491483e-015
      outer loop
         vertex 1.285875e+002 1.063625e+001 7.143749e+000
         vertex 1.285875e+002 4.553949e+000 1.796050e+000
         vertex 1.285875e+002 8.890000e+000 0.000000e+000
      endloop
   endfacet
   facet normal 1.000000e+000 0.000000e+000 -3.491483e-015
      outer loop
         vertex 1.285875e+002 1.063625e+001 7.143749e+000
         vertex 1.285875e+002 8.890000e+000 0.000000e+000
         vertex 1.285875e+002 1.317625e+001 7.143749e+000
      endloop
   endfacet
   facet normal 1.000000e+000 0.000000e+000 -3.491483e-015
      outer loop
         vertex 1.285875e+002 1.317625e+001 7.143749e+000
         vertex 1.285875e+002 8.890000e+000 0.000000e+000
         vertex 1.285875e+002 1.492250e+001 0.000000e+000
      endloop
   endfacet
   facet normal 1.000000e+000 0.000000e+000 -3.491483e-015
      outer loop
         vertex 1.285875e+002 1.317625e+001 7.143749e+000
         vertex 1.285875e+002 1.492250e+001 0.000000e+000
         vertex 1.285875e+002 1.534428e+001 8.041775e+000
      endloop
   endfacet
   facet normal 1.000000e+000 0.000000e+000 -3.491483e-015
      outer loop
         vertex 1.285875e+002 1.534428e+001 8.041775e+000
         vertex 1.285875e+002 1.492250e+001 0.000000e+000
         vertex 1.285875e+002 1.925855e+001 1.796050e+000
      endloop
   endfacet
   facet normal 1.000000e+000 0.000000e+000 -3.491483e-015
      outer loop
         vertex 1.285875e+002 1.534428e+001 8.041775e+000
         vertex 1.285875e+002 1.925855e+001 1.796050e+000
         vertex 1.285875e+002 1.825625e+001 1.095375e+001
      endloop
   endfacet
   facet normal 1.000000e+000 0.000000e+000 -3.491483e-015
      outer loop
         vertex 1.285875e+002 1.825625e+001 1.095375e+001
         vertex 1.285875e+002 1.925855e+001 1.796050e+000
         vertex 1.285875e+002 2.381250e+001 6.349999e+000
      endloop
   endfacet
   facet normal 1.000000e+000 0.000000e+000 -3.491483e-015
      outer loop
         vertex 1.285875e+002 1.825625e+001 1.095375e+001
         vertex 1.285875e+002 2.381250e+001 6.349999e+000
         vertex 1.285875e+002 1.825625e+001 3.508375e+001
      endloop
   endfacet
   facet normal 1.000000e+000 0.000000e+000 -3.491483e-015
      outer loop
         vertex 1.285875e+002 1.825625e+001 3.508375e+001
         vertex 1.285875e+002 2.381250e+001 6.349999e+000
         vertex 1.285875e+002 2.381250e+001 3.968750e+001
      endloop
   endfacet
   facet normal 1.000000e+000 0.000000e+000 -3.491483e-015
      outer loop
         vertex 1.285875e+002 1.825625e+001 3.508375e+001
         vertex 1.285875e+002 2.381250e+001 3.968750e+001
         vertex 1.285875e+002 1.534428e+001 3.799573e+001
      endloop
   endfacet
   facet normal 1.000000e+000 0.000000e+000 -3.491483e-015
      outer loop
         vertex 1.285875e+002 1.534428e+001 3.799573e+001
         vertex 1.285875e+002 2.381250e+001 3.968750e+001
         vertex 1.285875e+002 1.925855e+001 4.424145e+001
      endloop
   endfacet
   facet normal 1.000000e+000 0.000000e+000 -3.491483e-015
      outer loop
         vertex 1.285875e+002 1.534428e+001 3.799573e+001
         vertex 1.285875e+002 1.925855e+001 4.424145e+001
         vertex 1.285875e+002 1.317625e+001 3.889375e+001
      endloop
   endfacet
   facet normal 1.000000e+000 0.000000e+000 -3.491483e-015
      outer loop
         vertex 1.285875e+002 1.317625e+001 3.889375e+001
         vertex 1.285875e+002 1.925855e+001 4.424145e+001
         vertex 1.285875e+002 1.492250e+001 4.603750e+001
      endloop
   endfacet
   facet normal 3.491483e-015 0.000000e+000 1.000000e+000
      outer loop
         vertex 1.285875e+002 8.890000e+000 4.603750e+001
         vertex 1.285875e+002 1.492250e+001 4.603750e+001
         vertex 1.636363e-013 8.890000e+000 4.603750e+001
      endloop
   endfacet
   facet normal 3.491483e-015 0.000000e+000 1.000000e+000
      outer loop
         vertex 1.636363e-013 8.890000e+000 4.603750e+001
         vertex 1.285875e+002 1.492250e+001 4.603750e+001
         vertex 1.636363e-013 1.492250e+001 4.603750e+001
      endloop
   endfacet
   facet normal 0.000000e+000 -1.000000e+000 0.000000e+000
      outer loop
         vertex 1.414654e-013 0.000000e+000 3.968750e+001
         vertex 2.506806e-014 0.000000e+000 6.349999e+000
         vertex 1.285875e+002 0.000000e+000 3.968750e+001
      endloop
   endfacet
   facet normal 0.000000e+000 -1.000000e+000 0.000000e+000
      outer loop
         vertex 1.285875e+002 0.000000e+000 3.968750e+001
         vertex 2.506806e-014 0.000000e+000 6.349999e+000
         vertex 1.285875e+002 0.000000e+000 6.349999e+000
      endloop
   endfacet
   facet normal -3.491483e-015 2.913971e-016 -1.000000e+000
      outer loop
         vertex -2.897144e-015 8.890000e+000 0.000000e+000
         vertex -2.897144e-015 1.492250e+001 0.000000e+000
         vertex 1.285875e+002 8.890000e+000 0.000000e+000
      endloop
   endfacet
   facet normal -3.491483e-015 2.913971e-016 -1.000000e+000
      outer loop
         vertex 1.285875e+002 8.890000e+000 0.000000e+000
         vertex -2.897144e-015 1.492250e+001 0.000000e+000
         vertex 1.285875e+002 1.492250e+001 0.000000e+000
      endloop
   endfacet
   facet normal 0.000000e+000 1.000000e+000 0.000000e+000
      outer loop
         vertex 2.506806e-014 2.381250e+001 6.349999e+000
         vertex 1.414654e-013 2.381250e+001 3.968750e+001
         vertex 1.285875e+002 2.381250e+001 6.349999e+000
      endloop
   endfacet
   facet normal 0.000000e+000 1.000000e+000 0.000000e+000
      outer loop
         vertex 1.285875e+002 2.381250e+001 6.349999e+000
         vertex 1.414654e-013 2.381250e+001 3.968750e+001
         vertex 1.285875e+002 2.381250e+001 3.968750e+001
      endloop
   endfacet
   facet normal -1.000000e+000 0.000000e+000 3.491483e-015
      outer loop
         vertex 1.385682e-013 0.000000e+000 3.968750e+001
         vertex 1.544683e-013 4.553949e+000 4.424145e+001
         vertex 6.270883e-015 1.925855e+001 1.796050e+000
      endloop
   endfacet
   facet normal -1.000000e+000 0.000000e+000 3.491483e-015
      outer loop
         vertex 6.270883e-015 1.925855e+001 1.796050e+000
         vertex 1.544683e-013 4.553949e+000 4.424145e+001
         vertex 1.607392e-013 8.890000e+000 4.603750e+001
      endloop
   endfacet
   facet normal -1.000000e+000 0.000000e+000 3.491483e-015
      outer loop
         vertex 6.270883e-015 4.553949e+000 1.796050e+000
         vertex 2.217092e-014 0.000000e+000 6.349999e+000
         vertex 0.000000e+000 8.890000e+000 0.000000e+000
      endloop
   endfacet
   facet normal -1.000000e+000 0.000000e+000 3.491483e-015
      outer loop
         vertex 0.000000e+000 8.890000e+000 0.000000e+000
         vertex 2.217092e-014 0.000000e+000 6.349999e+000
         vertex 1.385682e-013 0.000000e+000 3.968750e+001
      endloop
   endfacet
   facet normal -1.000000e+000 0.000000e+000 3.491483e-015
      outer loop
         vertex 0.000000e+000 8.890000e+000 0.000000e+000
         vertex 1.385682e-013 0.000000e+000 3.968750e+001
         vertex 0.000000e+000 1.492250e+001 0.000000e+000
      endloop
   endfacet
   facet normal -1.000000e+000 0.000000e+000 3.491483e-015
      outer loop
         vertex 0.000000e+000 1.492250e+001 0.000000e+000
         vertex 1.385682e-013 0.000000e+000 3.968750e+001
         vertex 6.270883e-015 1.925855e+001 1.796050e+000
      endloop
   endfacet
   facet normal -1.000000e+000 0.000000e+000 3.491483e-015
      outer loop
         vertex 1.385682e-013 2.381250e+001 3.968750e+001
         vertex 2.217092e-014 2.381250e+001 6.349999e+000
         vertex 1.544683e-013 1.925855e+001 4.424145e+001
      endloop
   endfacet
   facet normal -1.000000e+000 0.000000e+000 3.491483e-015
      outer loop
         vertex 1.544683e-013 1.925855e+001 4.424145e+001
         vertex 2.217092e-014 2.381250e+001 6.349999e+000
         vertex 6.270883e-015 1.925855e+001 1.796050e+000
      endloop
   endfacet
   facet normal -1.000000e+000 0.000000e+000 3.491483e-015
      outer loop
         vertex 1.544683e-013 1.925855e+001 4.424145e+001
         vertex 6.270883e-015 1.925855e+001 1.796050e+000
         vertex 1.607392e-013 1.492250e+001 4.603750e+001
      endloop
   endfacet
   facet normal -1.000000e+000 0.000000e+000 3.491483e-015
      outer loop
         vertex 1.607392e-013 1.492250e+001 4.603750e+001
         vertex 6.270883e-015 1.925855e+001 1.796050e+000
         vertex 1.607392e-013 8.890000e+000 4.603750e+001
      endloop
   endfacet
   facet normal -2.468852e-015 -7.071068e-001 -7.071068e-001
      outer loop
         vertex 1.285875e+002 4.553949e+000 1.796050e+000
         vertex 1.285875e+002 0.000000e+000 6.349999e+000
         vertex -2.897144e-015 4.553949e+000 1.796050e+000
      endloop
   endfacet
   facet normal -2.468852e-015 -7.071068e-001 -7.071068e-001
      outer loop
         vertex -2.897144e-015 4.553949e+000 1.796050e+000
         vertex 1.285875e+002 0.000000e+000 6.349999e+000
         vertex 2.485843e-014 0.000000e+000 6.349999e+000
      endloop
   endfacet
   facet normal -2.468852e-015 7.071068e-001 -7.071068e-001
      outer loop
         vertex -2.897144e-015 1.925855e+001 1.796050e+000
         vertex 2.485843e-014 2.381250e+001 6.349999e+000
         vertex 1.285875e+002 1.925855e+001 1.796050e+000
      endloop
   endfacet
   facet normal -2.468852e-015 7.071068e-001 -7.071068e-001
      outer loop
         vertex 1.285875e+002 1.925855e+001 1.796050e+000
         vertex 2.485843e-014 2.381250e+001 6.349999e+000
         vertex 1.285875e+002 2.381250e+001 6.349999e+000
      endloop
   endfacet
   facet normal 2.468852e-015 7.071068e-001 7.071068e-001
      outer loop
         vertex 1.285875e+002 1.925855e+001 4.424145e+001
         vertex 1.285875e+002 2.381250e+001 3.968750e+001
         vertex 1.636363e-013 1.925855e+001 4.424145e+001
      endloop
   endfacet
   facet normal 2.468852e-015 7.071068e-001 7.071068e-001
      outer loop
         vertex 1.636363e-013 1.925855e+001 4.424145e+001
         vertex 1.285875e+002 2.381250e+001 3.968750e+001
         vertex 1.358807e-013 2.381250e+001 3.968750e+001
      endloop
   endfacet
   facet normal 2.468852e-015 -7.071068e-001 7.071068e-001
      outer loop
         vertex 1.636363e-013 4.553949e+000 4.424145e+001
         vertex 1.358807e-013 0.000000e+000 3.968750e+001
         vertex 1.285875e+002 4.553949e+000 4.424145e+001
      endloop
   endfacet
   facet normal 2.468852e-015 -7.071068e-001 7.071068e-001
      outer loop
         vertex 1.285875e+002 4.553949e+000 4.424145e+001
         vertex 1.358807e-013 0.000000e+000 3.968750e+001
         vertex 1.285875e+002 0.000000e+000 3.968750e+001
      endloop
   endfacet
   facet normal 3.225710e-015 -3.826834e-001 9.238795e-001
      outer loop
         vertex 1.285875e+002 4.553949e+000 4.424145e+001
         vertex 1.285875e+002 8.890000e+000 4.603750e+001
         vertex 1.636363e-013 4.553949e+000 4.424145e+001
      endloop
   endfacet
   facet normal 3.225710e-015 -3.826834e-001 9.238795e-001
      outer loop
         vertex 1.636363e-013 4.553949e+000 4.424145e+001
         vertex 1.285875e+002 8.890000e+000 4.603750e+001
         vertex 1.636363e-013 8.890000e+000 4.603750e+001
      endloop
   endfacet
   facet normal 3.225710e-015 3.826834e-001 9.238795e-001
      outer loop
         vertex 1.081252e-013 1.925855e+001 4.424145e+001
         vertex 1.081252e-013 1.492250e+001 4.603750e+001
         vertex 1.285875e+002 1.925855e+001 4.424145e+001
      endloop
   endfacet
   facet normal 3.225710e-015 3.826834e-001 9.238795e-001
      outer loop
         vertex 1.285875e+002 1.925855e+001 4.424145e+001
         vertex 1.081252e-013 1.492250e+001 4.603750e+001
         vertex 1.285875e+002 1.492250e+001 4.603750e+001
      endloop
   endfacet
   facet normal -3.225710e-015 -3.826834e-001 -9.238795e-001
      outer loop
         vertex -2.897144e-015 4.553949e+000 1.796050e+000
         vertex -2.897144e-015 8.890000e+000 0.000000e+000
         vertex 1.285875e+002 4.553949e+000 1.796050e+000
      endloop
   endfacet
   facet normal -3.225710e-015 -3.826834e-001 -9.238795e-001
      outer loop
         vertex 1.285875e+002 4.553949e+000 1.796050e+000
         vertex -2.897144e-015 8.890000e+000 0.000000e+000
         vertex 1.285875e+002 8.890000e+000 0.000000e+000
      endloop
   endfacet
   facet normal -3.225710e-015 3.826834e-001 -9.238795e-001
      outer loop
         vertex 1.285875e+002 1.925855e+001 1.796050e+000
         vertex 1.285875e+002 1.492250e+001 0.000000e+000
         vertex -2.897144e-015 1.925855e+001 1.796050e+000
      endloop
   endfacet
   facet normal -3.225710e-015 3.826834e-001 -9.238795e-001
      outer loop
         vertex -2.897144e-015 1.925855e+001 1.796050e+000
         vertex 1.285875e+002 1.492250e+001 0.000000e+000
         vertex -2.897144e-015 1.492250e+001 0.000000e+000
      endloop
   endfacet
   facet normal 3.491483e-015 0.000000e+000 1.000000e+000
      outer loop
         vertex 1.301750e+002 1.063625e+001 3.889375e+001
         vertex 1.301750e+002 1.317625e+001 3.889375e+001
         vertex 1.285875e+002 1.063625e+001 3.889375e+001
      endloop
   endfacet
   facet normal 3.491483e-015 0.000000e+000 1.000000e+000
      outer loop
         vertex 1.285875e+002 1.063625e+001 3.889375e+001
         vertex 1.301750e+002 1.317625e+001 3.889375e+001
         vertex 1.285875e+002 1.317625e+001 3.889375e+001
      endloop
   endfacet
   facet normal 0.000000e+000 -1.000000e+000 0.000000e+000
      outer loop
         vertex 1.285875e+002 5.556251e+000 3.508375e+001
         vertex 1.285875e+002 5.556251e+000 1.095375e+001
         vertex 1.301750e+002 5.556251e+000 3.508375e+001
      endloop
   endfacet
   facet normal 0.000000e+000 -1.000000e+000 0.000000e+000
      outer loop
         vertex 1.301750e+002 5.556251e+000 3.508375e+001
         vertex 1.285875e+002 5.556251e+000 1.095375e+001
         vertex 1.301750e+002 5.556251e+000 1.095375e+001
      endloop
   endfacet
   facet normal -3.491483e-015 0.000000e+000 -1.000000e+000
      outer loop
         vertex 1.285875e+002 1.063625e+001 7.143749e+000
         vertex 1.285875e+002 1.317625e+001 7.143749e+000
         vertex 1.301750e+002 1.063625e+001 7.143749e+000
      endloop
   endfacet
   facet normal -3.491483e-015 0.000000e+000 -1.000000e+000
      outer loop
         vertex 1.301750e+002 1.063625e+001 7.143749e+000
         vertex 1.285875e+002 1.317625e+001 7.143749e+000
         vertex 1.301750e+002 1.317625e+001 7.143749e+000
      endloop
   endfacet
   facet normal 0.000000e+000 1.000000e+000 0.000000e+000
      outer loop
         vertex 1.301750e+002 1.825625e+001 3.508375e+001
         vertex 1.301750e+002 1.825625e+001 1.095375e+001
         vertex 1.285875e+002 1.825625e+001 3.508375e+001
      endloop
   endfacet
   facet normal 0.000000e+000 1.000000e+000 0.000000e+000
      outer loop
         vertex 1.285875e+002 1.825625e+001 3.508375e+001
         vertex 1.301750e+002 1.825625e+001 1.095375e+001
         vertex 1.285875e+002 1.825625e+001 1.095375e+001
      endloop
   endfacet
   facet normal 1.000000e+000 0.000000e+000 -3.491483e-015
      outer loop
         vertex 1.301750e+002 8.468225e+000 8.041775e+000
         vertex 1.301750e+002 1.063625e+001 7.143749e+000
         vertex 1.301750e+002 1.317625e+001 7.143749e+000
      endloop
   endfacet
   facet normal 1.000000e+000 0.000000e+000 -3.491483e-015
      outer loop
         vertex 1.301750e+002 8.468225e+000 8.041775e+000
         vertex 1.301750e+002 1.317625e+001 7.143749e+000
         vertex 1.301750e+002 1.317625e+001 3.889375e+001
      endloop
   endfacet
   facet normal 1.000000e+000 0.000000e+000 -3.491483e-015
      outer loop
         vertex 1.301750e+002 1.317625e+001 3.889375e+001
         vertex 1.301750e+002 1.317625e+001 7.143749e+000
         vertex 1.301750e+002 1.534428e+001 8.041775e+000
      endloop
   endfacet
   facet normal 1.000000e+000 0.000000e+000 -3.491483e-015
      outer loop
         vertex 1.301750e+002 1.317625e+001 3.889375e+001
         vertex 1.301750e+002 1.534428e+001 8.041775e+000
         vertex 1.301750e+002 1.534428e+001 3.799573e+001
      endloop
   endfacet
   facet normal 1.000000e+000 0.000000e+000 -3.491483e-015
      outer loop
         vertex 1.301750e+002 1.534428e+001 3.799573e+001
         vertex 1.301750e+002 1.534428e+001 8.041775e+000
         vertex 1.301750e+002 1.825625e+001 1.095375e+001
      endloop
   endfacet
   facet normal 1.000000e+000 0.000000e+000 -3.491483e-015
      outer loop
         vertex 1.301750e+002 1.534428e+001 3.799573e+001
         vertex 1.301750e+002 1.825625e+001 1.095375e+001
         vertex 1.301750e+002 1.825625e+001 3.508375e+001
      endloop
   endfacet
   facet normal 1.000000e+000 0.000000e+000 -3.491483e-015
      outer loop
         vertex 1.301750e+002 5.556251e+000 3.508375e+001
         vertex 1.301750e+002 5.556251e+000 1.095375e+001
         vertex 1.301750e+002 8.468225e+000 3.799573e+001
      endloop
   endfacet
   facet normal 1.000000e+000 0.000000e+000 -3.491483e-015
      outer loop
         vertex 1.301750e+002 8.468225e+000 3.799573e+001
         vertex 1.301750e+002 5.556251e+000 1.095375e+001
         vertex 1.301750e+002 8.468225e+000 8.041775e+000
      endloop
   endfacet
   facet normal 1.000000e+000 0.000000e+000 -3.491483e-015
      outer loop
         vertex 1.301750e+002 8.468225e+000 3.799573e+001
         vertex 1.301750e+002 8.468225e+000 8.041775e+000
         vertex 1.301750e+002 1.063625e+001 3.889375e+001
      endloop
   endfacet
   facet normal 1.000000e+000 0.000000e+000 -3.491483e-015
      outer loop
         vertex 1.301750e+002 1.063625e+001 3.889375e+001
         vertex 1.301750e+002 8.468225e+000 8.041775e+000
         vertex 1.301750e+002 1.317625e+001 3.889375e+001
      endloop
   endfacet
   facet normal -2.468852e-015 7.071068e-001 -7.071068e-001
      outer loop
         vertex 1.285875e+002 1.534428e+001 8.041775e+000
         vertex 1.285875e+002 1.825625e+001 1.095375e+001
         vertex 1.301750e+002 1.534428e+001 8.041775e+000
      endloop
   endfacet
   facet normal -2.468852e-015 7.071068e-001 -7.071068e-001
      outer loop
         vertex 1.301750e+002 1.534428e+001 8.041775e+000
         vertex 1.285875e+002 1.825625e+001 1.095375e+001
         vertex 1.301750e+002 1.825625e+001 1.095375e+001
      endloop
   endfacet
   facet normal -2.468852e-015 -7.071068e-001 -7.071068e-001
      outer loop
         vertex 1.301750e+002 8.468225e+000 8.041775e+000
         vertex 1.301750e+002 5.556251e+000 1.095375e+001
         vertex 1.285875e+002 8.468225e+000 8.041775e+000
      endloop
   endfacet
   facet normal -2.468852e-015 -7.071068e-001 -7.071068e-001
      outer loop
         vertex 1.285875e+002 8.468225e+000 8.041775e+000
         vertex 1.301750e+002 5.556251e+000 1.095375e+001
         vertex 1.285875e+002 5.556251e+000 1.095375e+001
      endloop
   endfacet
   facet normal -3.225710e-015 -3.826834e-001 -9.238795e-001
      outer loop
         vertex 1.285875e+002 8.468225e+000 8.041775e+000
         vertex 1.285875e+002 1.063625e+001 7.143749e+000
         vertex 1.301750e+002 8.468225e+000 8.041775e+000
      endloop
   endfacet
   facet normal -3.225710e-015 -3.826834e-001 -9.238795e-001
      outer loop
         vertex 1.301750e+002 8.468225e+000 8.041775e+000
         vertex 1.285875e+002 1.063625e+001 7.143749e+000
         vertex 1.301750e+002 1.063625e+001 7.143749e+000
      endloop
   endfacet
   facet normal -3.225710e-015 3.826834e-001 -9.238795e-001
      outer loop
         vertex 1.301750e+002 1.534428e+001 8.041775e+000
         vertex 1.301750e+002 1.317625e+001 7.143749e+000
         vertex 1.285875e+002 1.534428e+001 8.041775e+000
      endloop
   endfacet
   facet normal -3.225710e-015 3.826834e-001 -9.238795e-001
      outer loop
         vertex 1.285875e+002 1.534428e+001 8.041775e+000
         vertex 1.301750e+002 1.317625e+001 7.143749e+000
         vertex 1.285875e+002 1.317625e+001 7.143749e+000
      endloop
   endfacet
   facet normal 2.468852e-015 -7.071068e-001 7.071068e-001
      outer loop
         vertex 1.285875e+002 8.468225e+000 3.799573e+001
         vertex 1.285875e+002 5.556251e+000 3.508375e+001
         vertex 1.301750e+002 8.468225e+000 3.799573e+001
      endloop
   endfacet
   facet normal 2.468852e-015 -7.071068e-001 7.071068e-001
      outer loop
         vertex 1.301750e+002 8.468225e+000 3.799573e+001
         vertex 1.285875e+002 5.556251e+000 3.508375e+001
         vertex 1.301750e+002 5.556251e+000 3.508375e+001
      endloop
   endfacet
   facet normal 2.468852e-015 7.071068e-001 7.071068e-001
      outer loop
         vertex 1.301750e+002 1.534428e+001 3.799573e+001
         vertex 1.301750e+002 1.825625e+001 3.508375e+001
         vertex 1.285875e+002 1.534428e+001 3.799573e+001
      endloop
   endfacet
   facet normal 2.468852e-015 7.071068e-001 7.071068e-001
      outer loop
         vertex 1.285875e+002 1.534428e+001 3.799573e+001
         vertex 1.301750e+002 1.825625e+001 3.508375e+001
         vertex 1.285875e+002 1.825625e+001 3.508375e+001
      endloop
   endfacet
   facet normal 3.225710e-015 -3.826834e-001 9.238795e-001
      outer loop
         vertex 1.301750e+002 8.468225e+000 3.799573e+001
         vertex 1.301750e+002 1.063625e+001 3.889375e+001
         vertex 1.285875e+002 8.468225e+000 3.799573e+001
      endloop
   endfacet
   facet normal 3.225710e-015 -3.826834e-001 9.238795e-001
      outer loop
         vertex 1.285875e+002 8.468225e+000 3.799573e+001
         vertex 1.301750e+002 1.063625e+001 3.889375e+001
         vertex 1.285875e+002 1.063625e+001 3.889375e+001
      endloop
   endfacet
   facet normal 3.225710e-015 3.826834e-001 9.238795e-001
      outer loop
         vertex 1.285875e+002 1.534428e+001 3.799573e+001
         vertex 1.285875e+002 1.317625e+001 3.889375e+001
         vertex 1.301750e+002 1.534428e+001 3.799573e+001
      endloop
   endfacet
   facet normal 3.225710e-015 3.826834e-001 9.238795e-001
      outer loop
         vertex 1.301750e+002 1.534428e+001 3.799573e+001
         vertex 1.285875e+002 1.317625e+001 3.889375e+001
         vertex 1.301750e+002 1.317625e+001 3.889375e+001
      endloop
   endfacet
endsolid