solid VexP_Square_Shaft_03
   facet normal 6.643070e-001 -7.474598e-001 -7.538904e-015
      outer loop
         vertex 2.892136e+000 2.963340e-002 7.622540e+001
         vertex 2.892136e+000 2.963340e-002 2.539998e-002
         vertex 3.024341e+000 1.506590e-001 7.622540e+001
      endloop
   endfacet
   facet normal 6.860129e-001 -7.275894e-001 -7.283458e-015
      outer loop
         vertex 3.024341e+000 1.506590e-001 7.622540e+001
         vertex 2.892136e+000 2.963340e-002 2.539998e-002
         vertex 3.024341e+000 1.506590e-001 2.539998e-002
      endloop
   endfacet
   facet normal 7.275894e-001 -6.860129e-001 -7.138293e-015
      outer loop
         vertex 3.024341e+000 1.506590e-001 7.622540e+001
         vertex 3.024341e+000 1.506590e-001 2.539998e-002
         vertex 3.145367e+000 2.828639e-001 7.622540e+001
      endloop
   endfacet
   facet normal 7.474598e-001 -6.643070e-001 -7.056100e-015
      outer loop
         vertex 3.145367e+000 2.828639e-001 7.622540e+001
         vertex 3.024341e+000 1.506590e-001 2.539998e-002
         vertex 3.145367e+000 2.828639e-001 2.539998e-002
      endloop
   endfacet
   facet normal 7.474598e-001 6.643070e-001 2.029090e-015
      outer loop
         vertex 3.145367e+000 2.892136e+000 7.622540e+001
         vertex 3.145367e+000 2.892136e+000 2.539998e-002
         vertex 3.024341e+000 3.024341e+000 7.622540e+001
      endloop
   endfacet
   facet normal 7.275894e-001 6.860129e-001 1.426377e-015
      outer loop
         vertex 3.024341e+000 3.024341e+000 7.622540e+001
         vertex 3.145367e+000 2.892136e+000 2.539998e-002
         vertex 3.024341e+000 3.024341e+000 2.539998e-002
      endloop
   endfacet
   facet normal 6.860129e-001 7.275894e-001 1.861867e-015
      outer loop
         vertex 3.024341e+000 3.024341e+000 7.622540e+001
         vertex 3.024341e+000 3.024341e+000 2.539998e-002
         vertex 2.892136e+000 3.145367e+000 7.622540e+001
      endloop
   endfacet
   facet normal 6.643070e-001 7.474598e-001 2.076407e-015
      outer loop
         vertex 2.892136e+000 3.145367e+000 7.622540e+001
         vertex 3.024341e+000 3.024341e+000 2.539998e-002
         vertex 2.892136e+000 3.145367e+000 2.539998e-002
      endloop
   endfacet
   facet normal 9.933182e-001 1.154079e-001 -2.662265e-015
      outer loop
         vertex 3.175000e+000 2.810596e+000 7.622540e+001
         vertex 3.175000e+000 2.810596e+000 2.539998e-002
         vertex 3.167362e+000 2.853975e+000 2.539998e-002
      endloop
   endfacet
   facet normal 9.729975e-001 2.308157e-001 -1.785426e-015
      outer loop
         vertex 3.175000e+000 2.810596e+000 7.622540e+001
         vertex 3.167362e+000 2.853975e+000 2.539998e-002
         vertex 3.167362e+000 2.853975e+000 7.622540e+001
      endloop
   endfacet
   facet normal 8.941589e-001 4.477498e-001 4.680865e-018
      outer loop
         vertex 3.167362e+000 2.853975e+000 7.622540e+001
         vertex 3.167362e+000 2.853975e+000 2.539998e-002
         vertex 3.145367e+000 2.892136e+000 2.539998e-002
      endloop
   endfacet
   facet normal 8.356410e-001 5.492759e-001 9.179490e-016
      outer loop
         vertex 3.167362e+000 2.853975e+000 7.622540e+001
         vertex 3.145367e+000 2.892136e+000 2.539998e-002
         vertex 3.145367e+000 2.892136e+000 7.622540e+001
      endloop
   endfacet
   facet normal 8.356410e-001 -5.492759e-001 -6.753203e-015
      outer loop
         vertex 3.145367e+000 2.828639e-001 7.622540e+001
         vertex 3.145367e+000 2.828639e-001 2.539998e-002
         vertex 3.167362e+000 3.210249e-001 2.539998e-002
      endloop
   endfacet
   facet normal 8.941589e-001 -4.477498e-001 -6.248563e-015
      outer loop
         vertex 3.145367e+000 2.828639e-001 7.622540e+001
         vertex 3.167362e+000 3.210249e-001 2.539998e-002
         vertex 3.167362e+000 3.210249e-001 7.622540e+001
      endloop
   endfacet
   facet normal 9.729975e-001 -2.308157e-001 -5.008983e-015
      outer loop
         vertex 3.167362e+000 3.210249e-001 7.622540e+001
         vertex 3.167362e+000 3.210249e-001 2.539998e-002
         vertex 3.175000e+000 3.644036e-001 2.539998e-002
      endloop
   endfacet
   facet normal 9.933182e-001 -1.154079e-001 -4.274044e-015
      outer loop
         vertex 3.167362e+000 3.210249e-001 7.622540e+001
         vertex 3.175000e+000 3.644036e-001 2.539998e-002
         vertex 3.175000e+000 3.644036e-001 7.622540e+001
      endloop
   endfacet
   facet normal 1.154079e-001 -9.933182e-001 -7.339252e-015
      outer loop
         vertex 2.810596e+000 0.000000e+000 7.622540e+001
         vertex 2.810596e+000 0.000000e+000 2.539998e-002
         vertex 2.853975e+000 7.638009e-003 2.539998e-002
      endloop
   endfacet
   facet normal 2.308157e-001 -9.729975e-001 -7.600299e-015
      outer loop
         vertex 2.810596e+000 0.000000e+000 7.622540e+001
         vertex 2.853975e+000 7.638009e-003 2.539998e-002
         vertex 2.853975e+000 7.638009e-003 7.622540e+001
      endloop
   endfacet
   facet normal 4.477498e-001 -8.941589e-001 -7.807193e-015
      outer loop
         vertex 2.853975e+000 7.638009e-003 7.622540e+001
         vertex 2.853975e+000 7.638009e-003 2.539998e-002
         vertex 2.892136e+000 2.963340e-002 2.539998e-002
      endloop
   endfacet
   facet normal 5.492759e-001 -8.356410e-001 -7.753042e-015
      outer loop
         vertex 2.853975e+000 7.638009e-003 7.622540e+001
         vertex 2.892136e+000 2.963340e-002 2.539998e-002
         vertex 2.892136e+000 2.963340e-002 7.622540e+001
      endloop
   endfacet
   facet normal -5.492759e-001 -8.356410e-001 -3.917466e-015
      outer loop
         vertex 2.828639e-001 2.963340e-002 7.622540e+001
         vertex 2.828639e-001 2.963340e-002 2.539998e-002
         vertex 3.210248e-001 7.638009e-003 2.539998e-002
      endloop
   endfacet
   facet normal -4.477498e-001 -8.941589e-001 -4.680571e-015
      outer loop
         vertex 2.828639e-001 2.963340e-002 7.622540e+001
         vertex 3.210248e-001 7.638009e-003 2.539998e-002
         vertex 3.210248e-001 7.638009e-003 7.622540e+001
      endloop
   endfacet
   facet normal -2.308157e-001 -9.729975e-001 -5.988520e-015
      outer loop
         vertex 3.210248e-001 7.638009e-003 7.622540e+001
         vertex 3.210248e-001 7.638009e-003 2.539998e-002
         vertex 3.644036e-001 0.000000e+000 2.539998e-002
      endloop
   endfacet
   facet normal -1.154079e-001 -9.933182e-001 -6.533363e-015
      outer loop
         vertex 3.210248e-001 7.638009e-003 7.622540e+001
         vertex 3.644036e-001 0.000000e+000 2.539998e-002
         vertex 3.644036e-001 0.000000e+000 7.622540e+001
      endloop
   endfacet
   facet normal 5.492759e-001 8.356410e-001 3.917466e-015
      outer loop
         vertex 2.892136e+000 3.145367e+000 7.622540e+001
         vertex 2.892136e+000 3.145367e+000 2.539998e-002
         vertex 2.853975e+000 3.167362e+000 2.539998e-002
      endloop
   endfacet
   facet normal 4.477498e-001 8.941589e-001 4.680571e-015
      outer loop
         vertex 2.892136e+000 3.145367e+000 7.622540e+001
         vertex 2.853975e+000 3.167362e+000 2.539998e-002
         vertex 2.853975e+000 3.167362e+000 7.622540e+001
      endloop
   endfacet
   facet normal 2.308157e-001 9.729975e-001 5.988520e-015
      outer loop
         vertex 2.853975e+000 3.167362e+000 7.622540e+001
         vertex 2.853975e+000 3.167362e+000 2.539998e-002
         vertex 2.810596e+000 3.175000e+000 2.539998e-002
      endloop
   endfacet
   facet normal 1.154079e-001 9.933182e-001 6.533363e-015
      outer loop
         vertex 2.853975e+000 3.167362e+000 7.622540e+001
         vertex 2.810596e+000 3.175000e+000 2.539998e-002
         vertex 2.810596e+000 3.175000e+000 7.622540e+001
      endloop
   endfacet
   facet normal -7.474598e-001 -6.643070e-001 -2.029090e-015
      outer loop
         vertex 2.963329e-002 2.828639e-001 7.622540e+001
         vertex 2.963329e-002 2.828639e-001 2.539998e-002
         vertex 1.506590e-001 1.506590e-001 7.622540e+001
      endloop
   endfacet
   facet normal -7.275894e-001 -6.860129e-001 -1.426377e-015
      outer loop
         vertex 1.506590e-001 1.506590e-001 7.622540e+001
         vertex 2.963329e-002 2.828639e-001 2.539998e-002
         vertex 1.506590e-001 1.506590e-001 2.539998e-002
      endloop
   endfacet
   facet normal -6.860129e-001 -7.275894e-001 -1.861867e-015
      outer loop
         vertex 1.506590e-001 1.506590e-001 7.622540e+001
         vertex 1.506590e-001 1.506590e-001 2.539998e-002
         vertex 2.828639e-001 2.963340e-002 7.622540e+001
      endloop
   endfacet
   facet normal -6.643070e-001 -7.474598e-001 -2.076407e-015
      outer loop
         vertex 2.828639e-001 2.963340e-002 7.622540e+001
         vertex 1.506590e-001 1.506590e-001 2.539998e-002
         vertex 2.828639e-001 2.963340e-002 2.539998e-002
      endloop
   endfacet
   facet normal 1.000000e+000 0.000000e+000 -3.491483e-015
      outer loop
         vertex 3.175000e+000 2.810596e+000 2.539998e-002
         vertex 3.175000e+000 2.810596e+000 7.622540e+001
         vertex 3.175000e+000 3.644036e-001 2.539998e-002
      endloop
   endfacet
   facet normal 1.000000e+000 0.000000e+000 -3.491483e-015
      outer loop
         vertex 3.175000e+000 3.644036e-001 2.539998e-002
         vertex 3.175000e+000 2.810596e+000 7.622540e+001
         vertex 3.175000e+000 3.644036e-001 7.622540e+001
      endloop
   endfacet
   facet normal -2.438091e-029 -1.000000e+000 -6.982966e-015
      outer loop
         vertex 2.810596e+000 0.000000e+000 2.539998e-002
         vertex 2.810596e+000 0.000000e+000 7.622540e+001
         vertex 3.644036e-001 0.000000e+000 2.539998e-002
      endloop
   endfacet
   facet normal -2.438091e-029 -1.000000e+000 -6.982966e-015
      outer loop
         vertex 3.644036e-001 0.000000e+000 2.539998e-002
         vertex 2.810596e+000 0.000000e+000 7.622540e+001
         vertex 3.644036e-001 0.000000e+000 7.622540e+001
      endloop
   endfacet
   facet normal 2.438091e-029 1.000000e+000 6.982966e-015
      outer loop
         vertex 3.644036e-001 3.175000e+000 2.539998e-002
         vertex 3.644036e-001 3.175000e+000 7.622540e+001
         vertex 2.810596e+000 3.175000e+000 2.539998e-002
      endloop
   endfacet
   facet normal 2.438091e-029 1.000000e+000 6.982966e-015
      outer loop
         vertex 2.810596e+000 3.175000e+000 2.539998e-002
         vertex 3.644036e-001 3.175000e+000 7.622540e+001
         vertex 2.810596e+000 3.175000e+000 7.622540e+001
      endloop
   endfacet
   facet normal -9.933182e-001 -1.154079e-001 2.662265e-015
      outer loop
         vertex 0.000000e+000 3.644036e-001 7.622540e+001
         vertex 0.000000e+000 3.644036e-001 2.539998e-002
         vertex 7.638009e-003 3.210249e-001 2.539998e-002
      endloop
   endfacet
   facet normal -9.729975e-001 -2.308157e-001 1.785426e-015
      outer loop
         vertex 0.000000e+000 3.644036e-001 7.622540e+001
         vertex 7.638009e-003 3.210249e-001 2.539998e-002
         vertex 7.638009e-003 3.210249e-001 7.622540e+001
      endloop
   endfacet
   facet normal -8.941589e-001 -4.477498e-001 -4.680865e-018
      outer loop
         vertex 7.638009e-003 3.210249e-001 7.622540e+001
         vertex 7.638009e-003 3.210249e-001 2.539998e-002
         vertex 2.963329e-002 2.828639e-001 2.539998e-002
      endloop
   endfacet
   facet normal -8.356410e-001 -5.492759e-001 -9.179490e-016
      outer loop
         vertex 7.638009e-003 3.210249e-001 7.622540e+001
         vertex 2.963329e-002 2.828639e-001 2.539998e-002
         vertex 2.963329e-002 2.828639e-001 7.622540e+001
      endloop
   endfacet
   facet normal -3.491483e-015 6.982967e-015 -1.000000e+000
      outer loop
         vertex 3.167362e+000 3.210249e-001 2.539998e-002
         vertex 3.145367e+000 2.828639e-001 2.539998e-002
         vertex 3.175000e+000 3.644036e-001 2.539998e-002
      endloop
   endfacet
   facet normal -3.491483e-015 6.982967e-015 -1.000000e+000
      outer loop
         vertex 3.175000e+000 3.644036e-001 2.539998e-002
         vertex 3.145367e+000 2.828639e-001 2.539998e-002
         vertex 3.024341e+000 1.506590e-001 2.539998e-002
      endloop
   endfacet
   facet normal -3.491483e-015 6.982967e-015 -1.000000e+000
      outer loop
         vertex 3.024341e+000 3.024341e+000 2.539998e-002
         vertex 2.810596e+000 0.000000e+000 2.539998e-002
         vertex 3.644036e-001 0.000000e+000 2.539998e-002
      endloop
   endfacet
   facet normal -3.491483e-015 6.982967e-015 -1.000000e+000
      outer loop
         vertex 2.810596e+000 3.175000e+000 2.539998e-002
         vertex 1.506590e-001 1.506590e-001 2.539998e-002
         vertex 3.644036e-001 3.175000e+000 2.539998e-002
      endloop
   endfacet
   facet normal -3.491483e-015 6.982967e-015 -1.000000e+000
      outer loop
         vertex 3.644036e-001 3.175000e+000 2.539998e-002
         vertex 1.506590e-001 1.506590e-001 2.539998e-002
         vertex 1.506590e-001 3.024341e+000 2.539998e-002
      endloop
   endfacet
   facet normal -3.491483e-015 6.982967e-015 -1.000000e+000
      outer loop
         vertex 3.644036e-001 3.175000e+000 2.539998e-002
         vertex 1.506590e-001 3.024341e+000 2.539998e-002
         vertex 3.210248e-001 3.167362e+000 2.539998e-002
      endloop
   endfacet
   facet normal -3.491483e-015 6.982967e-015 -1.000000e+000
      outer loop
         vertex 3.210248e-001 3.167362e+000 2.539998e-002
         vertex 1.506590e-001 3.024341e+000 2.539998e-002
         vertex 2.828639e-001 3.145367e+000 2.539998e-002
      endloop
   endfacet
   facet normal -3.491483e-015 6.982967e-015 -1.000000e+000
      outer loop
         vertex 2.810596e+000 3.175000e+000 2.539998e-002
         vertex 2.853975e+000 3.167362e+000 2.539998e-002
         vertex 2.892136e+000 3.145367e+000 2.539998e-002
      endloop
   endfacet
   facet normal -3.491483e-015 6.982967e-015 -1.000000e+000
      outer loop
         vertex 3.145367e+000 2.892136e+000 2.539998e-002
         vertex 3.167362e+000 2.853975e+000 2.539998e-002
         vertex 3.024341e+000 3.024341e+000 2.539998e-002
      endloop
   endfacet
   facet normal -3.491483e-015 6.982967e-015 -1.000000e+000
      outer loop
         vertex 3.024341e+000 3.024341e+000 2.539998e-002
         vertex 3.167362e+000 2.853975e+000 2.539998e-002
         vertex 3.175000e+000 2.810596e+000 2.539998e-002
      endloop
   endfacet
   facet normal -3.491483e-015 6.982967e-015 -1.000000e+000
      outer loop
         vertex 2.853975e+000 7.638009e-003 2.539998e-002
         vertex 2.810596e+000 0.000000e+000 2.539998e-002
         vertex 2.892136e+000 2.963340e-002 2.539998e-002
      endloop
   endfacet
   facet normal -3.491483e-015 6.982967e-015 -1.000000e+000
      outer loop
         vertex 2.892136e+000 2.963340e-002 2.539998e-002
         vertex 2.810596e+000 0.000000e+000 2.539998e-002
         vertex 3.024341e+000 3.024341e+000 2.539998e-002
      endloop
   endfacet
   facet normal -3.491483e-015 6.982967e-015 -1.000000e+000
      outer loop
         vertex 2.892136e+000 2.963340e-002 2.539998e-002
         vertex 3.024341e+000 3.024341e+000 2.539998e-002
         vertex 3.024341e+000 1.506590e-001 2.539998e-002
      endloop
   endfacet
   facet normal -3.491483e-015 6.982967e-015 -1.000000e+000
      outer loop
         vertex 3.024341e+000 1.506590e-001 2.539998e-002
         vertex 3.024341e+000 3.024341e+000 2.539998e-002
         vertex 3.175000e+000 2.810596e+000 2.539998e-002
      endloop
   endfacet
   facet normal -3.491483e-015 6.982967e-015 -1.000000e+000
      outer loop
         vertex 3.024341e+000 1.506590e-001 2.539998e-002
         vertex 3.175000e+000 2.810596e+000 2.539998e-002
         vertex 3.175000e+000 3.644036e-001 2.539998e-002
      endloop
   endfacet
   facet normal -3.491483e-015 6.982967e-015 -1.000000e+000
      outer loop
         vertex 2.810596e+000 3.175000e+000 2.539998e-002
         vertex 2.892136e+000 3.145367e+000 2.539998e-002
         vertex 1.506590e-001 1.506590e-001 2.539998e-002
      endloop
   endfacet
   facet normal -3.491483e-015 6.982967e-015 -1.000000e+000
      outer loop
         vertex 1.506590e-001 1.506590e-001 2.539998e-002
         vertex 2.892136e+000 3.145367e+000 2.539998e-002
         vertex 3.024341e+000 3.024341e+000 2.539998e-002
      endloop
   endfacet
   facet normal -3.491483e-015 6.982967e-015 -1.000000e+000
      outer loop
         vertex 1.506590e-001 1.506590e-001 2.539998e-002
         vertex 3.024341e+000 3.024341e+000 2.539998e-002
         vertex 2.828639e-001 2.963340e-002 2.539998e-002
      endloop
   endfacet
   facet normal -3.491483e-015 6.982967e-015 -1.000000e+000
      outer loop
         vertex 2.828639e-001 2.963340e-002 2.539998e-002
         vertex 3.024341e+000 3.024341e+000 2.539998e-002
         vertex 3.644036e-001 0.000000e+000 2.539998e-002
      endloop
   endfacet
   facet normal -3.491483e-015 6.982967e-015 -1.000000e+000
      outer loop
         vertex 2.828639e-001 2.963340e-002 2.539998e-002
         vertex 3.644036e-001 0.000000e+000 2.539998e-002
         vertex 3.210248e-001 7.638009e-003 2.539998e-002
      endloop
   endfacet
   facet normal -3.491483e-015 6.982967e-015 -1.000000e+000
      outer loop
         vertex 7.638009e-003 2.853975e+000 2.539998e-002
         vertex 2.963329e-002 2.892136e+000 2.539998e-002
         vertex 0.000000e+000 2.810596e+000 2.539998e-002
      endloop
   endfacet
   facet normal -3.491483e-015 6.982967e-015 -1.000000e+000
      outer loop
         vertex 0.000000e+000 2.810596e+000 2.539998e-002
         vertex 2.963329e-002 2.892136e+000 2.539998e-002
         vertex 1.506590e-001 3.024341e+000 2.539998e-002
      endloop
   endfacet
   facet normal -3.491483e-015 6.982967e-015 -1.000000e+000
      outer loop
         vertex 0.000000e+000 2.810596e+000 2.539998e-002
         vertex 1.506590e-001 3.024341e+000 2.539998e-002
         vertex 0.000000e+000 3.644036e-001 2.539998e-002
      endloop
   endfacet
   facet normal -3.491483e-015 6.982967e-015 -1.000000e+000
      outer loop
         vertex 0.000000e+000 3.644036e-001 2.539998e-002
         vertex 1.506590e-001 3.024341e+000 2.539998e-002
         vertex 1.506590e-001 1.506590e-001 2.539998e-002
      endloop
   endfacet
   facet normal -3.491483e-015 6.982967e-015 -1.000000e+000
      outer loop
         vertex 0.000000e+000 3.644036e-001 2.539998e-002
         vertex 1.506590e-001 1.506590e-001 2.539998e-002
         vertex 7.638009e-003 3.210249e-001 2.539998e-002
      endloop
   endfacet
   facet normal -3.491483e-015 6.982967e-015 -1.000000e+000
      outer loop
         vertex 7.638009e-003 3.210249e-001 2.539998e-002
         vertex 1.506590e-001 1.506590e-001 2.539998e-002
         vertex 2.963329e-002 2.828639e-001 2.539998e-002
      endloop
   endfacet
   facet normal 3.491483e-015 -6.982967e-015 1.000000e+000
      outer loop
         vertex 2.828639e-001 2.963340e-002 7.622540e+001
         vertex 3.210248e-001 7.638009e-003 7.622540e+001
         vertex 1.506590e-001 1.506590e-001 7.622540e+001
      endloop
   endfacet
   facet normal 3.491483e-015 -6.982967e-015 1.000000e+000
      outer loop
         vertex 1.506590e-001 1.506590e-001 7.622540e+001
         vertex 3.210248e-001 7.638009e-003 7.622540e+001
         vertex 3.644036e-001 0.000000e+000 7.622540e+001
      endloop
   endfacet
   facet normal 3.491483e-015 -6.982967e-015 1.000000e+000
      outer loop
         vertex 1.506590e-001 1.506590e-001 7.622540e+001
         vertex 3.175000e+000 3.644036e-001 7.622540e+001
         vertex 3.175000e+000 2.810596e+000 7.622540e+001
      endloop
   endfacet
   facet normal 3.491483e-015 -6.982967e-015 1.000000e+000
      outer loop
         vertex 0.000000e+000 3.644036e-001 7.622540e+001
         vertex 3.024341e+000 3.024341e+000 7.622540e+001
         vertex 0.000000e+000 2.810596e+000 7.622540e+001
      endloop
   endfacet
   facet normal 3.491483e-015 -6.982967e-015 1.000000e+000
      outer loop
         vertex 0.000000e+000 2.810596e+000 7.622540e+001
         vertex 3.024341e+000 3.024341e+000 7.622540e+001
         vertex 1.506590e-001 3.024341e+000 7.622540e+001
      endloop
   endfacet
   facet normal 3.491483e-015 -6.982967e-015 1.000000e+000
      outer loop
         vertex 0.000000e+000 2.810596e+000 7.622540e+001
         vertex 1.506590e-001 3.024341e+000 7.622540e+001
         vertex 7.638009e-003 2.853975e+000 7.622540e+001
      endloop
   endfacet
   facet normal 3.491483e-015 -6.982967e-015 1.000000e+000
      outer loop
         vertex 7.638009e-003 2.853975e+000 7.622540e+001
         vertex 1.506590e-001 3.024341e+000 7.622540e+001
         vertex 2.963329e-002 2.892136e+000 7.622540e+001
      endloop
   endfacet
   facet normal 3.491483e-015 -6.982967e-015 1.000000e+000
      outer loop
         vertex 0.000000e+000 3.644036e-001 7.622540e+001
         vertex 7.638009e-003 3.210249e-001 7.622540e+001
         vertex 2.963329e-002 2.828639e-001 7.622540e+001
      endloop
   endfacet
   facet normal 3.491483e-015 -6.982967e-015 1.000000e+000
      outer loop
         vertex 2.853975e+000 7.638009e-003 7.622540e+001
         vertex 2.892136e+000 2.963340e-002 7.622540e+001
         vertex 2.810596e+000 0.000000e+000 7.622540e+001
      endloop
   endfacet
   facet normal 3.491483e-015 -6.982967e-015 1.000000e+000
      outer loop
         vertex 2.810596e+000 0.000000e+000 7.622540e+001
         vertex 2.892136e+000 2.963340e-002 7.622540e+001
         vertex 3.024341e+000 1.506590e-001 7.622540e+001
      endloop
   endfacet
   facet normal 3.491483e-015 -6.982967e-015 1.000000e+000
      outer loop
         vertex 3.167362e+000 3.210249e-001 7.622540e+001
         vertex 3.175000e+000 3.644036e-001 7.622540e+001
         vertex 3.145367e+000 2.828639e-001 7.622540e+001
      endloop
   endfacet
   facet normal 3.491483e-015 -6.982967e-015 1.000000e+000
      outer loop
         vertex 3.145367e+000 2.828639e-001 7.622540e+001
         vertex 3.175000e+000 3.644036e-001 7.622540e+001
         vertex 1.506590e-001 1.506590e-001 7.622540e+001
      endloop
   endfacet
   facet normal 3.491483e-015 -6.982967e-015 1.000000e+000
      outer loop
         vertex 3.145367e+000 2.828639e-001 7.622540e+001
         vertex 1.506590e-001 1.506590e-001 7.622540e+001
         vertex 3.024341e+000 1.506590e-001 7.622540e+001
      endloop
   endfacet
   facet normal 3.491483e-015 -6.982967e-015 1.000000e+000
      outer loop
         vertex 3.024341e+000 1.506590e-001 7.622540e+001
         vertex 1.506590e-001 1.506590e-001 7.622540e+001
         vertex 3.644036e-001 0.000000e+000 7.622540e+001
      endloop
   endfacet
   facet normal 3.491483e-015 -6.982967e-015 1.000000e+000
      outer loop
         vertex 3.024341e+000 1.506590e-001 7.622540e+001
         vertex 3.644036e-001 0.000000e+000 7.622540e+001
         vertex 2.810596e+000 0.000000e+000 7.622540e+001
      endloop
   endfacet
   facet normal 3.491483e-015 -6.982967e-015 1.000000e+000
      outer loop
         vertex 0.000000e+000 3.644036e-001 7.622540e+001
         vertex 2.963329e-002 2.828639e-001 7.622540e+001
         vertex 3.024341e+000 3.024341e+000 7.622540e+001
      endloop
   endfacet
   facet normal 3.491483e-015 -6.982967e-015 1.000000e+000
      outer loop
         vertex 3.024341e+000 3.024341e+000 7.622540e+001
         vertex 2.963329e-002 2.828639e-001 7.622540e+001
         vertex 1.506590e-001 1.506590e-001 7.622540e+001
      endloop
   endfacet
   facet normal 3.491483e-015 -6.982967e-015 1.000000e+000
      outer loop
         vertex 3.024341e+000 3.024341e+000 7.622540e+001
         vertex 1.506590e-001 1.506590e-001 7.622540e+001
         vertex 3.145367e+000 2.892136e+000 7.622540e+001
      endloop
   endfacet
   facet normal 3.491483e-015 -6.982967e-015 1.000000e+000
      outer loop
         vertex 3.145367e+000 2.892136e+000 7.622540e+001
         vertex 1.506590e-001 1.506590e-001 7.622540e+001
         vertex 3.175000e+000 2.810596e+000 7.622540e+001
      endloop
   endfacet
   facet normal 3.491483e-015 -6.982967e-015 1.000000e+000
      outer loop
         vertex 3.145367e+000 2.892136e+000 7.622540e+001
         vertex 3.175000e+000 2.810596e+000 7.622540e+001
         vertex 3.167362e+000 2.853975e+000 7.622540e+001
      endloop
   endfacet
   facet normal 3.491483e-015 -6.982967e-015 1.000000e+000
      outer loop
         vertex 3.210248e-001 3.167362e+000 7.622540e+001
         vertex 2.828639e-001 3.145367e+000 7.622540e+001
         vertex 3.644036e-001 3.175000e+000 7.622540e+001
      endloop
   endfacet
   facet normal 3.491483e-015 -6.982967e-015 1.000000e+000
      outer loop
         vertex 3.644036e-001 3.175000e+000 7.622540e+001
         vertex 2.828639e-001 3.145367e+000 7.622540e+001
         vertex 1.506590e-001 3.024341e+000 7.622540e+001
      endloop
   endfacet
   facet normal 3.491483e-015 -6.982967e-015 1.000000e+000
      outer loop
         vertex 3.644036e-001 3.175000e+000 7.622540e+001
         vertex 1.506590e-001 3.024341e+000 7.622540e+001
         vertex 2.810596e+000 3.175000e+000 7.622540e+001
      endloop
   endfacet
   facet normal 3.491483e-015 -6.982967e-015 1.000000e+000
      outer loop
         vertex 2.810596e+000 3.175000e+000 7.622540e+001
         vertex 1.506590e-001 3.024341e+000 7.622540e+001
         vertex 3.024341e+000 3.024341e+000 7.622540e+001
      endloop
   endfacet
   facet normal 3.491483e-015 -6.982967e-015 1.000000e+000
      outer loop
         vertex 2.810596e+000 3.175000e+000 7.622540e+001
         vertex 3.024341e+000 3.024341e+000 7.622540e+001
         vertex 2.853975e+000 3.167362e+000 7.622540e+001
      endloop
   endfacet
   facet normal 3.491483e-015 -6.982967e-015 1.000000e+000
      outer loop
         vertex 2.853975e+000 3.167362e+000 7.622540e+001
         vertex 3.024341e+000 3.024341e+000 7.622540e+001
         vertex 2.892136e+000 3.145367e+000 7.622540e+001
      endloop
   endfacet
   facet normal -1.154079e-001 9.933182e-001 7.339252e-015
      outer loop
         vertex 3.644036e-001 3.175000e+000 7.622540e+001
         vertex 3.644036e-001 3.175000e+000 2.539998e-002
         vertex 3.210248e-001 3.167362e+000 2.539998e-002
      endloop
   endfacet
   facet normal -2.308157e-001 9.729975e-001 7.600299e-015
      outer loop
         vertex 3.644036e-001 3.175000e+000 7.622540e+001
         vertex 3.210248e-001 3.167362e+000 2.539998e-002
         vertex 3.210248e-001 3.167362e+000 7.622540e+001
      endloop
   endfacet
   facet normal -4.477498e-001 8.941589e-001 7.807193e-015
      outer loop
         vertex 3.210248e-001 3.167362e+000 7.622540e+001
         vertex 3.210248e-001 3.167362e+000 2.539998e-002
         vertex 2.828639e-001 3.145367e+000 2.539998e-002
      endloop
   endfacet
   facet normal -5.492759e-001 8.356410e-001 7.753042e-015
      outer loop
         vertex 3.210248e-001 3.167362e+000 7.622540e+001
         vertex 2.828639e-001 3.145367e+000 2.539998e-002
         vertex 2.828639e-001 3.145367e+000 7.622540e+001
      endloop
   endfacet
   facet normal -1.000000e+000 0.000000e+000 3.491483e-015
      outer loop
         vertex 0.000000e+000 3.644036e-001 2.539998e-002
         vertex 0.000000e+000 3.644036e-001 7.622540e+001
         vertex 0.000000e+000 2.810596e+000 2.539998e-002
      endloop
   endfacet
   facet normal -1.000000e+000 0.000000e+000 3.491483e-015
      outer loop
         vertex 0.000000e+000 2.810596e+000 2.539998e-002
         vertex 0.000000e+000 3.644036e-001 7.622540e+001
         vertex 0.000000e+000 2.810596e+000 7.622540e+001
      endloop
   endfacet
   facet normal -6.643070e-001 7.474598e-001 7.538904e-015
      outer loop
         vertex 2.828639e-001 3.145367e+000 7.622540e+001
         vertex 2.828639e-001 3.145367e+000 2.539998e-002
         vertex 1.506590e-001 3.024341e+000 7.622540e+001
      endloop
   endfacet
   facet normal -6.860129e-001 7.275894e-001 7.283458e-015
      outer loop
         vertex 1.506590e-001 3.024341e+000 7.622540e+001
         vertex 2.828639e-001 3.145367e+000 2.539998e-002
         vertex 1.506590e-001 3.024341e+000 2.539998e-002
      endloop
   endfacet
   facet normal -7.275894e-001 6.860129e-001 7.138293e-015
      outer loop
         vertex 1.506590e-001 3.024341e+000 7.622540e+001
         vertex 1.506590e-001 3.024341e+000 2.539998e-002
         vertex 2.963329e-002 2.892136e+000 7.622540e+001
      endloop
   endfacet
   facet normal -7.474598e-001 6.643070e-001 7.056100e-015
      outer loop
         vertex 2.963329e-002 2.892136e+000 7.622540e+001
         vertex 1.506590e-001 3.024341e+000 2.539998e-002
         vertex 2.963329e-002 2.892136e+000 2.539998e-002
      endloop
   endfacet
   facet normal -8.356410e-001 5.492759e-001 6.753203e-015
      outer loop
         vertex 2.963329e-002 2.892136e+000 7.622540e+001
         vertex 2.963329e-002 2.892136e+000 2.539998e-002
         vertex 7.638009e-003 2.853975e+000 2.539998e-002
      endloop
   endfacet
   facet normal -8.941589e-001 4.477498e-001 6.248563e-015
      outer loop
         vertex 2.963329e-002 2.892136e+000 7.622540e+001
         vertex 7.638009e-003 2.853975e+000 2.539998e-002
         vertex 7.638009e-003 2.853975e+000 7.622540e+001
      endloop
   endfacet
   facet normal -9.729975e-001 2.308157e-001 5.008983e-015
      outer loop
         vertex 7.638009e-003 2.853975e+000 7.622540e+001
         vertex 7.638009e-003 2.853975e+000 2.539998e-002
         vertex 0.000000e+000 2.810596e+000 2.539998e-002
      endloop
   endfacet
   facet normal -9.933182e-001 1.154079e-001 4.274044e-015
      outer loop
         vertex 7.638009e-003 2.853975e+000 7.622540e+001
         vertex 0.000000e+000 2.810596e+000 2.539998e-002
         vertex 0.000000e+000 2.810596e+000 7.622540e+001
      endloop
   endfacet
endsolid