solid Vex_Bump_Switch_base
   facet normal 0.000000e+000 1.000000e+000 0.000000e+000
      outer loop
         vertex 4.705352e+001 2.540000e+000 1.803405e+001
         vertex 5.181602e+001 2.540000e+000 2.438405e+001
         vertex 5.181602e+001 2.540000e+000 5.029142e-005
      endloop
   endfacet
   facet normal 0.000000e+000 1.000000e+000 0.000000e+000
      outer loop
         vertex 5.181602e+001 2.540000e+000 2.438405e+001
         vertex 4.705352e+001 2.540000e+000 1.803405e+001
         vertex 3.708402e+001 2.540000e+000 2.438405e+001
      endloop
   endfacet
   facet normal 0.000000e+000 1.000000e+000 0.000000e+000
      outer loop
         vertex 3.708402e+001 2.540000e+000 2.438405e+001
         vertex 4.705352e+001 2.540000e+000 1.803405e+001
         vertex 4.229102e+001 2.540000e+000 1.803405e+001
      endloop
   endfacet
   facet normal 0.000000e+000 1.000000e+000 0.000000e+000
      outer loop
         vertex 3.708402e+001 2.540000e+000 2.438405e+001
         vertex 4.229102e+001 2.540000e+000 1.803405e+001
         vertex 3.708402e+001 2.540000e+000 5.029142e-005
      endloop
   endfacet
   facet normal 0.000000e+000 1.000000e+000 0.000000e+000
      outer loop
         vertex 3.708402e+001 2.540000e+000 5.029142e-005
         vertex 4.229102e+001 2.540000e+000 1.803405e+001
         vertex 4.229102e+001 2.540000e+000 6.350050e+000
      endloop
   endfacet
   facet normal 0.000000e+000 1.000000e+000 0.000000e+000
      outer loop
         vertex 3.708402e+001 2.540000e+000 5.029142e-005
         vertex 4.229102e+001 2.540000e+000 6.350050e+000
         vertex 5.181602e+001 2.540000e+000 5.029142e-005
      endloop
   endfacet
   facet normal 0.000000e+000 1.000000e+000 0.000000e+000
      outer loop
         vertex 5.181602e+001 2.540000e+000 5.029142e-005
         vertex 4.229102e+001 2.540000e+000 6.350050e+000
         vertex 4.705352e+001 2.540000e+000 6.350050e+000
      endloop
   endfacet
   facet normal 0.000000e+000 1.000000e+000 0.000000e+000
      outer loop
         vertex 5.181602e+001 2.540000e+000 5.029142e-005
         vertex 4.705352e+001 2.540000e+000 6.350050e+000
         vertex 4.705352e+001 2.540000e+000 1.803405e+001
      endloop
   endfacet
   facet normal 1.000000e+000 0.000000e+000 0.000000e+000
      outer loop
         vertex 5.181602e+001 2.540000e+000 5.029142e-005
         vertex 5.181602e+001 2.540000e+000 2.438405e+001
         vertex 5.181602e+001 8.673617e-016 5.029142e-005
      endloop
   endfacet
   facet normal 1.000000e+000 0.000000e+000 0.000000e+000
      outer loop
         vertex 5.181602e+001 8.673617e-016 5.029142e-005
         vertex 5.181602e+001 2.540000e+000 2.438405e+001
         vertex 5.181602e+001 8.673617e-016 2.438405e+001
      endloop
   endfacet
   facet normal -1.339141e-016 0.000000e+000 -1.000000e+000
      outer loop
         vertex 2.235174e-005 8.673617e-016 5.029142e-005
         vertex 2.235174e-005 2.540000e+000 5.029142e-005
         vertex 5.181602e+001 8.673617e-016 5.029142e-005
      endloop
   endfacet
   facet normal -1.339141e-016 0.000000e+000 -1.000000e+000
      outer loop
         vertex 5.181602e+001 8.673617e-016 5.029142e-005
         vertex 2.235174e-005 2.540000e+000 5.029142e-005
         vertex 1.473203e+001 2.540000e+000 5.029142e-005
      endloop
   endfacet
   facet normal -1.339141e-016 0.000000e+000 -1.000000e+000
      outer loop
         vertex 5.181602e+001 2.540000e+000 5.029142e-005
         vertex 5.181602e+001 8.673617e-016 5.029142e-005
         vertex 3.708402e+001 2.540000e+000 5.029142e-005
      endloop
   endfacet
   facet normal -1.339141e-016 0.000000e+000 -1.000000e+000
      outer loop
         vertex 3.708402e+001 2.540000e+000 5.029142e-005
         vertex 5.181602e+001 8.673617e-016 5.029142e-005
         vertex 1.473203e+001 2.540000e+000 5.029142e-005
      endloop
   endfacet
   facet normal -1.339141e-016 0.000000e+000 -1.000000e+000
      outer loop
         vertex 3.708402e+001 2.540000e+000 5.029142e-005
         vertex 1.473203e+001 2.540000e+000 5.029142e-005
         vertex 3.708402e+001 6.604000e+000 5.029142e-005
      endloop
   endfacet
   facet normal -1.339141e-016 0.000000e+000 -1.000000e+000
      outer loop
         vertex 3.708402e+001 6.604000e+000 5.029142e-005
         vertex 1.473203e+001 2.540000e+000 5.029142e-005
         vertex 1.473203e+001 6.604000e+000 5.029142e-005
      endloop
   endfacet
   facet normal -1.000000e+000 0.000000e+000 0.000000e+000
      outer loop
         vertex 2.235174e-005 2.540000e+000 2.438405e+001
         vertex 2.235174e-005 2.540000e+000 5.029142e-005
         vertex 2.235174e-005 8.673617e-016 2.438405e+001
      endloop
   endfacet
   facet normal -1.000000e+000 0.000000e+000 0.000000e+000
      outer loop
         vertex 2.235174e-005 8.673617e-016 2.438405e+001
         vertex 2.235174e-005 2.540000e+000 5.029142e-005
         vertex 2.235174e-005 8.673617e-016 5.029142e-005
      endloop
   endfacet
   facet normal 1.224606e-016 0.000000e+000 1.000000e+000
      outer loop
         vertex 5.181602e+001 8.673617e-016 2.438405e+001
         vertex 5.181602e+001 2.540000e+000 2.438405e+001
         vertex 2.235174e-005 8.673617e-016 2.438405e+001
      endloop
   endfacet
   facet normal 1.224606e-016 0.000000e+000 1.000000e+000
      outer loop
         vertex 2.235174e-005 8.673617e-016 2.438405e+001
         vertex 5.181602e+001 2.540000e+000 2.438405e+001
         vertex 3.708402e+001 2.540000e+000 2.438405e+001
      endloop
   endfacet
   facet normal 1.224606e-016 0.000000e+000 1.000000e+000
      outer loop
         vertex 2.235174e-005 2.540000e+000 2.438405e+001
         vertex 2.235174e-005 8.673617e-016 2.438405e+001
         vertex 1.473203e+001 2.540000e+000 2.438405e+001
      endloop
   endfacet
   facet normal 1.224606e-016 0.000000e+000 1.000000e+000
      outer loop
         vertex 1.473203e+001 2.540000e+000 2.438405e+001
         vertex 2.235174e-005 8.673617e-016 2.438405e+001
         vertex 3.708402e+001 2.540000e+000 2.438405e+001
      endloop
   endfacet
   facet normal 1.224606e-016 0.000000e+000 1.000000e+000
      outer loop
         vertex 1.473203e+001 2.540000e+000 2.438405e+001
         vertex 3.708402e+001 2.540000e+000 2.438405e+001
         vertex 1.473203e+001 6.604000e+000 2.438405e+001
      endloop
   endfacet
   facet normal 1.224606e-016 0.000000e+000 1.000000e+000
      outer loop
         vertex 1.473203e+001 6.604000e+000 2.438405e+001
         vertex 3.708402e+001 2.540000e+000 2.438405e+001
         vertex 3.708402e+001 6.604000e+000 2.438405e+001
      endloop
   endfacet
   facet normal 0.000000e+000 1.000000e+000 0.000000e+000
      outer loop
         vertex 9.525023e+000 2.540000e+000 1.803405e+001
         vertex 1.473203e+001 2.540000e+000 2.438405e+001
         vertex 9.525023e+000 2.540000e+000 6.350050e+000
      endloop
   endfacet
   facet normal 0.000000e+000 1.000000e+000 0.000000e+000
      outer loop
         vertex 9.525023e+000 2.540000e+000 6.350050e+000
         vertex 1.473203e+001 2.540000e+000 2.438405e+001
         vertex 1.473203e+001 2.540000e+000 5.029142e-005
      endloop
   endfacet
   facet normal 0.000000e+000 1.000000e+000 0.000000e+000
      outer loop
         vertex 9.525023e+000 2.540000e+000 6.350050e+000
         vertex 1.473203e+001 2.540000e+000 5.029142e-005
         vertex 4.762523e+000 2.540000e+000 6.350050e+000
      endloop
   endfacet
   facet normal 0.000000e+000 1.000000e+000 0.000000e+000
      outer loop
         vertex 4.762523e+000 2.540000e+000 6.350050e+000
         vertex 1.473203e+001 2.540000e+000 5.029142e-005
         vertex 2.235174e-005 2.540000e+000 5.029142e-005
      endloop
   endfacet
   facet normal 0.000000e+000 1.000000e+000 0.000000e+000
      outer loop
         vertex 4.762523e+000 2.540000e+000 6.350050e+000
         vertex 2.235174e-005 2.540000e+000 5.029142e-005
         vertex 4.762523e+000 2.540000e+000 1.803405e+001
      endloop
   endfacet
   facet normal 0.000000e+000 1.000000e+000 0.000000e+000
      outer loop
         vertex 4.762523e+000 2.540000e+000 1.803405e+001
         vertex 2.235174e-005 2.540000e+000 5.029142e-005
         vertex 2.235174e-005 2.540000e+000 2.438405e+001
      endloop
   endfacet
   facet normal 0.000000e+000 1.000000e+000 0.000000e+000
      outer loop
         vertex 4.762523e+000 2.540000e+000 1.803405e+001
         vertex 2.235174e-005 2.540000e+000 2.438405e+001
         vertex 9.525023e+000 2.540000e+000 1.803405e+001
      endloop
   endfacet
   facet normal 0.000000e+000 1.000000e+000 0.000000e+000
      outer loop
         vertex 9.525023e+000 2.540000e+000 1.803405e+001
         vertex 2.235174e-005 2.540000e+000 2.438405e+001
         vertex 1.473203e+001 2.540000e+000 2.438405e+001
      endloop
   endfacet
   facet normal 0.000000e+000 -1.000000e+000 0.000000e+000
      outer loop
         vertex 5.181602e+001 8.673617e-016 5.029142e-005
         vertex 4.705352e+001 0.000000e+000 6.350050e+000
         vertex 4.229102e+001 8.673617e-016 6.350050e+000
      endloop
   endfacet
   facet normal 0.000000e+000 -1.000000e+000 0.000000e+000
      outer loop
         vertex 4.762523e+000 0.000000e+000 6.350050e+000
         vertex 4.762523e+000 0.000000e+000 1.803405e+001
         vertex 2.235174e-005 8.673617e-016 2.438405e+001
      endloop
   endfacet
   facet normal 0.000000e+000 -1.000000e+000 0.000000e+000
      outer loop
         vertex 2.235174e-005 8.673617e-016 2.438405e+001
         vertex 4.762523e+000 0.000000e+000 1.803405e+001
         vertex 9.525023e+000 8.673617e-016 1.803405e+001
      endloop
   endfacet
   facet normal 0.000000e+000 -1.000000e+000 0.000000e+000
      outer loop
         vertex 4.705352e+001 0.000000e+000 6.350050e+000
         vertex 5.181602e+001 8.673617e-016 5.029142e-005
         vertex 4.705352e+001 0.000000e+000 1.803405e+001
      endloop
   endfacet
   facet normal 0.000000e+000 -1.000000e+000 0.000000e+000
      outer loop
         vertex 4.705352e+001 0.000000e+000 1.803405e+001
         vertex 5.181602e+001 8.673617e-016 5.029142e-005
         vertex 5.181602e+001 8.673617e-016 2.438405e+001
      endloop
   endfacet
   facet normal 0.000000e+000 -1.000000e+000 0.000000e+000
      outer loop
         vertex 4.705352e+001 0.000000e+000 1.803405e+001
         vertex 5.181602e+001 8.673617e-016 2.438405e+001
         vertex 4.229102e+001 0.000000e+000 1.803405e+001
      endloop
   endfacet
   facet normal 0.000000e+000 -1.000000e+000 0.000000e+000
      outer loop
         vertex 5.181602e+001 8.673617e-016 2.438405e+001
         vertex 2.235174e-005 8.673617e-016 2.438405e+001
         vertex 4.229102e+001 0.000000e+000 1.803405e+001
      endloop
   endfacet
   facet normal 0.000000e+000 -1.000000e+000 0.000000e+000
      outer loop
         vertex 4.229102e+001 0.000000e+000 1.803405e+001
         vertex 2.235174e-005 8.673617e-016 2.438405e+001
         vertex 9.525023e+000 8.673617e-016 1.803405e+001
      endloop
   endfacet
   facet normal 0.000000e+000 -1.000000e+000 0.000000e+000
      outer loop
         vertex 4.229102e+001 0.000000e+000 1.803405e+001
         vertex 9.525023e+000 8.673617e-016 1.803405e+001
         vertex 4.229102e+001 8.673617e-016 6.350050e+000
      endloop
   endfacet
   facet normal 0.000000e+000 -1.000000e+000 0.000000e+000
      outer loop
         vertex 4.229102e+001 8.673617e-016 6.350050e+000
         vertex 9.525023e+000 8.673617e-016 1.803405e+001
         vertex 9.525023e+000 0.000000e+000 6.350050e+000
      endloop
   endfacet
   facet normal 0.000000e+000 -1.000000e+000 0.000000e+000
      outer loop
         vertex 4.229102e+001 8.673617e-016 6.350050e+000
         vertex 9.525023e+000 0.000000e+000 6.350050e+000
         vertex 5.181602e+001 8.673617e-016 5.029142e-005
      endloop
   endfacet
   facet normal 0.000000e+000 -1.000000e+000 0.000000e+000
      outer loop
         vertex 5.181602e+001 8.673617e-016 5.029142e-005
         vertex 9.525023e+000 0.000000e+000 6.350050e+000
         vertex 4.762523e+000 0.000000e+000 6.350050e+000
      endloop
   endfacet
   facet normal 0.000000e+000 -1.000000e+000 0.000000e+000
      outer loop
         vertex 5.181602e+001 8.673617e-016 5.029142e-005
         vertex 4.762523e+000 0.000000e+000 6.350050e+000
         vertex 2.235174e-005 8.673617e-016 5.029142e-005
      endloop
   endfacet
   facet normal 0.000000e+000 -1.000000e+000 0.000000e+000
      outer loop
         vertex 2.235174e-005 8.673617e-016 5.029142e-005
         vertex 4.762523e+000 0.000000e+000 6.350050e+000
         vertex 2.235174e-005 8.673617e-016 2.438405e+001
      endloop
   endfacet
   facet normal 1.000000e+000 0.000000e+000 -1.422837e-016
      outer loop
         vertex 3.708402e+001 6.604000e+000 5.029142e-005
         vertex 3.708402e+001 6.604000e+000 2.438405e+001
         vertex 3.708402e+001 2.540000e+000 5.029142e-005
      endloop
   endfacet
   facet normal 1.000000e+000 0.000000e+000 -1.422837e-016
      outer loop
         vertex 3.708402e+001 2.540000e+000 5.029142e-005
         vertex 3.708402e+001 6.604000e+000 2.438405e+001
         vertex 3.708402e+001 2.540000e+000 2.438405e+001
      endloop
   endfacet
   facet normal -1.000000e+000 0.000000e+000 2.845675e-016
      outer loop
         vertex 1.473203e+001 6.604000e+000 2.438405e+001
         vertex 1.473203e+001 6.604000e+000 5.029142e-005
         vertex 1.473203e+001 2.540000e+000 2.438405e+001
      endloop
   endfacet
   facet normal -1.000000e+000 0.000000e+000 2.845675e-016
      outer loop
         vertex 1.473203e+001 2.540000e+000 2.438405e+001
         vertex 1.473203e+001 6.604000e+000 5.029142e-005
         vertex 1.473203e+001 2.540000e+000 5.029142e-005
      endloop
   endfacet
   facet normal 0.000000e+000 1.000000e+000 0.000000e+000
      outer loop
         vertex 1.473203e+001 6.604000e+000 5.029142e-005
         vertex 1.473203e+001 6.604000e+000 2.438405e+001
         vertex 3.708402e+001 6.604000e+000 5.029142e-005
      endloop
   endfacet
   facet normal 0.000000e+000 1.000000e+000 0.000000e+000
      outer loop
         vertex 3.708402e+001 6.604000e+000 5.029142e-005
         vertex 1.473203e+001 6.604000e+000 2.438405e+001
         vertex 3.708402e+001 6.604000e+000 2.438405e+001
      endloop
   endfacet
   facet normal -1.000000e+000 0.000000e+000 2.227050e-016
      outer loop
         vertex 4.705352e+001 2.540000e+000 6.350050e+000
         vertex 4.705352e+001 0.000000e+000 6.350050e+000
         vertex 4.705352e+001 2.540000e+000 1.803405e+001
      endloop
   endfacet
   facet normal -1.000000e+000 0.000000e+000 2.227050e-016
      outer loop
         vertex 4.705352e+001 2.540000e+000 1.803405e+001
         vertex 4.705352e+001 0.000000e+000 6.350050e+000
         vertex 4.705352e+001 0.000000e+000 1.803405e+001
      endloop
   endfacet
   facet normal 0.000000e+000 0.000000e+000 -1.000000e+000
      outer loop
         vertex 4.705352e+001 2.540000e+000 1.803405e+001
         vertex 4.705352e+001 0.000000e+000 1.803405e+001
         vertex 4.229102e+001 2.540000e+000 1.803405e+001
      endloop
   endfacet
   facet normal 0.000000e+000 0.000000e+000 -1.000000e+000
      outer loop
         vertex 4.229102e+001 2.540000e+000 1.803405e+001
         vertex 4.705352e+001 0.000000e+000 1.803405e+001
         vertex 4.229102e+001 0.000000e+000 1.803405e+001
      endloop
   endfacet
   facet normal 1.000000e+000 0.000000e+000 -1.484700e-016
      outer loop
         vertex 4.229102e+001 2.540000e+000 1.803405e+001
         vertex 4.229102e+001 0.000000e+000 1.803405e+001
         vertex 4.229102e+001 2.540000e+000 6.350050e+000
      endloop
   endfacet
   facet normal 1.000000e+000 0.000000e+000 -1.484700e-016
      outer loop
         vertex 4.229102e+001 2.540000e+000 6.350050e+000
         vertex 4.229102e+001 0.000000e+000 1.803405e+001
         vertex 4.229102e+001 8.673617e-016 6.350050e+000
      endloop
   endfacet
   facet normal 0.000000e+000 0.000000e+000 1.000000e+000
      outer loop
         vertex 4.229102e+001 2.540000e+000 6.350050e+000
         vertex 4.229102e+001 8.673617e-016 6.350050e+000
         vertex 4.705352e+001 2.540000e+000 6.350050e+000
      endloop
   endfacet
   facet normal 0.000000e+000 0.000000e+000 1.000000e+000
      outer loop
         vertex 4.705352e+001 2.540000e+000 6.350050e+000
         vertex 4.229102e+001 8.673617e-016 6.350050e+000
         vertex 4.705352e+001 0.000000e+000 6.350050e+000
      endloop
   endfacet
   facet normal 1.000000e+000 0.000000e+000 0.000000e+000
      outer loop
         vertex 4.762523e+000 2.540000e+000 1.803405e+001
         vertex 4.762523e+000 0.000000e+000 1.803405e+001
         vertex 4.762523e+000 2.540000e+000 6.350050e+000
      endloop
   endfacet
   facet normal 1.000000e+000 0.000000e+000 0.000000e+000
      outer loop
         vertex 4.762523e+000 2.540000e+000 6.350050e+000
         vertex 4.762523e+000 0.000000e+000 1.803405e+001
         vertex 4.762523e+000 0.000000e+000 6.350050e+000
      endloop
   endfacet
   facet normal 0.000000e+000 0.000000e+000 1.000000e+000
      outer loop
         vertex 4.762523e+000 2.540000e+000 6.350050e+000
         vertex 4.762523e+000 0.000000e+000 6.350050e+000
         vertex 9.525023e+000 2.540000e+000 6.350050e+000
      endloop
   endfacet
   facet normal 0.000000e+000 0.000000e+000 1.000000e+000
      outer loop
         vertex 9.525023e+000 2.540000e+000 6.350050e+000
         vertex 4.762523e+000 0.000000e+000 6.350050e+000
         vertex 9.525023e+000 0.000000e+000 6.350050e+000
      endloop
   endfacet
   facet normal -1.000000e+000 0.000000e+000 0.000000e+000
      outer loop
         vertex 9.525023e+000 2.540000e+000 6.350050e+000
         vertex 9.525023e+000 0.000000e+000 6.350050e+000
         vertex 9.525023e+000 2.540000e+000 1.803405e+001
      endloop
   endfacet
   facet normal -1.000000e+000 0.000000e+000 0.000000e+000
      outer loop
         vertex 9.525023e+000 2.540000e+000 1.803405e+001
         vertex 9.525023e+000 0.000000e+000 6.350050e+000
         vertex 9.525023e+000 8.673617e-016 1.803405e+001
      endloop
   endfacet
   facet normal -1.821232e-016 0.000000e+000 -1.000000e+000
      outer loop
         vertex 9.525023e+000 2.540000e+000 1.803405e+001
         vertex 9.525023e+000 8.673617e-016 1.803405e+001
         vertex 4.762523e+000 2.540000e+000 1.803405e+001
      endloop
   endfacet
   facet normal -1.821232e-016 0.000000e+000 -1.000000e+000
      outer loop
         vertex 4.762523e+000 2.540000e+000 1.803405e+001
         vertex 9.525023e+000 8.673617e-016 1.803405e+001
         vertex 4.762523e+000 0.000000e+000 1.803405e+001
      endloop
   endfacet
endsolid