solid Vex_Encoder_Base
   facet normal 0.000000e+000 1.000000e+000 0.000000e+000
      outer loop
         vertex 8.461399e+001 4.064000e+000 4.583750e+001
         vertex 8.461399e+001 4.064000e+000 5.377500e+001
         vertex 8.778691e+001 4.064000e+000 6.257397e+001
      endloop
   endfacet
   facet normal 0.000000e+000 1.000000e+000 0.000000e+000
      outer loop
         vertex 8.778691e+001 4.064000e+000 6.257397e+001
         vertex 8.461399e+001 4.064000e+000 5.377500e+001
         vertex 7.372808e+001 4.064000e+000 6.257397e+001
      endloop
   endfacet
   facet normal 0.000000e+000 1.000000e+000 0.000000e+000
      outer loop
         vertex 7.372808e+001 4.064000e+000 6.257397e+001
         vertex 8.461399e+001 4.064000e+000 5.377500e+001
         vertex 7.985150e+001 4.064000e+000 5.377500e+001
      endloop
   endfacet
   facet normal 0.000000e+000 1.000000e+000 0.000000e+000
      outer loop
         vertex 7.372808e+001 4.064000e+000 6.257397e+001
         vertex 7.985150e+001 4.064000e+000 5.377500e+001
         vertex 7.985150e+001 4.064000e+000 4.583750e+001
      endloop
   endfacet
   facet normal 0.000000e+000 1.000000e+000 0.000000e+000
      outer loop
         vertex 7.985150e+001 4.064000e+000 3.313750e+001
         vertex 7.372808e+001 4.064000e+000 6.257397e+001
         vertex 7.985150e+001 4.064000e+000 4.107500e+001
      endloop
   endfacet
   facet normal 0.000000e+000 1.000000e+000 0.000000e+000
      outer loop
         vertex 7.985150e+001 4.064000e+000 4.107500e+001
         vertex 7.372808e+001 4.064000e+000 6.257397e+001
         vertex 7.985150e+001 4.064000e+000 4.583750e+001
      endloop
   endfacet
   facet normal 0.000000e+000 1.000000e+000 0.000000e+000
      outer loop
         vertex 7.985150e+001 4.064000e+000 4.107500e+001
         vertex 7.985150e+001 4.064000e+000 4.583750e+001
         vertex 8.461399e+001 4.064000e+000 4.107500e+001
      endloop
   endfacet
   facet normal 0.000000e+000 1.000000e+000 0.000000e+000
      outer loop
         vertex 8.461399e+001 4.064000e+000 2.043750e+001
         vertex 8.778691e+001 4.064000e+000 1.250000e+001
         vertex 7.985150e+001 4.064000e+000 2.043750e+001
      endloop
   endfacet
   facet normal 0.000000e+000 1.000000e+000 0.000000e+000
      outer loop
         vertex 7.985150e+001 4.064000e+000 2.043750e+001
         vertex 8.778691e+001 4.064000e+000 1.250000e+001
         vertex 7.372808e+001 4.064000e+000 1.250000e+001
      endloop
   endfacet
   facet normal 0.000000e+000 1.000000e+000 0.000000e+000
      outer loop
         vertex 7.985150e+001 4.064000e+000 2.043750e+001
         vertex 7.372808e+001 4.064000e+000 1.250000e+001
         vertex 7.985150e+001 4.064000e+000 2.837500e+001
      endloop
   endfacet
   facet normal 0.000000e+000 1.000000e+000 0.000000e+000
      outer loop
         vertex 7.372808e+001 4.064000e+000 1.250000e+001
         vertex 7.372808e+001 4.064000e+000 6.257397e+001
         vertex 7.985150e+001 4.064000e+000 2.837500e+001
      endloop
   endfacet
   facet normal 0.000000e+000 1.000000e+000 0.000000e+000
      outer loop
         vertex 7.985150e+001 4.064000e+000 2.837500e+001
         vertex 7.372808e+001 4.064000e+000 6.257397e+001
         vertex 7.985150e+001 4.064000e+000 3.313750e+001
      endloop
   endfacet
   facet normal 0.000000e+000 1.000000e+000 0.000000e+000
      outer loop
         vertex 7.985150e+001 4.064000e+000 2.837500e+001
         vertex 7.985150e+001 4.064000e+000 3.313750e+001
         vertex 8.461399e+001 4.064000e+000 2.837500e+001
      endloop
   endfacet
   facet normal 0.000000e+000 1.000000e+000 0.000000e+000
      outer loop
         vertex 8.461399e+001 4.064000e+000 2.837500e+001
         vertex 7.985150e+001 4.064000e+000 3.313750e+001
         vertex 8.461399e+001 4.064000e+000 3.313750e+001
      endloop
   endfacet
   facet normal 0.000000e+000 1.000000e+000 0.000000e+000
      outer loop
         vertex 8.461399e+001 4.064000e+000 2.043750e+001
         vertex 8.461399e+001 4.064000e+000 2.837500e+001
         vertex 8.778691e+001 4.064000e+000 1.250000e+001
      endloop
   endfacet
   facet normal 0.000000e+000 1.000000e+000 0.000000e+000
      outer loop
         vertex 8.778691e+001 4.064000e+000 1.250000e+001
         vertex 8.461399e+001 4.064000e+000 2.837500e+001
         vertex 8.461399e+001 4.064000e+000 3.313750e+001
      endloop
   endfacet
   facet normal 0.000000e+000 1.000000e+000 0.000000e+000
      outer loop
         vertex 8.778691e+001 4.064000e+000 1.250000e+001
         vertex 8.461399e+001 4.064000e+000 3.313750e+001
         vertex 8.778691e+001 4.064000e+000 6.257397e+001
      endloop
   endfacet
   facet normal 0.000000e+000 1.000000e+000 0.000000e+000
      outer loop
         vertex 8.778691e+001 4.064000e+000 6.257397e+001
         vertex 8.461399e+001 4.064000e+000 3.313750e+001
         vertex 8.461399e+001 4.064000e+000 4.107500e+001
      endloop
   endfacet
   facet normal 0.000000e+000 1.000000e+000 0.000000e+000
      outer loop
         vertex 8.778691e+001 4.064000e+000 6.257397e+001
         vertex 8.461399e+001 4.064000e+000 4.107500e+001
         vertex 8.461399e+001 4.064000e+000 4.583750e+001
      endloop
   endfacet
   facet normal 0.000000e+000 1.000000e+000 0.000000e+000
      outer loop
         vertex 8.461399e+001 4.064000e+000 4.583750e+001
         vertex 8.461399e+001 4.064000e+000 4.107500e+001
         vertex 7.985150e+001 4.064000e+000 4.583750e+001
      endloop
   endfacet
   facet normal -1.000000e+000 0.000000e+000 0.000000e+000
      outer loop
         vertex 2.022500e+001 7.874000e+000 6.257397e+001
         vertex 2.022500e+001 7.874000e+000 1.250000e+001
         vertex 2.022500e+001 0.000000e+000 6.257397e+001
      endloop
   endfacet
   facet normal -1.000000e+000 0.000000e+000 0.000000e+000
      outer loop
         vertex 2.022500e+001 0.000000e+000 6.257397e+001
         vertex 2.022500e+001 7.874000e+000 1.250000e+001
         vertex 2.022500e+001 0.000000e+000 1.250000e+001
      endloop
   endfacet
   facet normal 0.000000e+000 0.000000e+000 1.000000e+000
      outer loop
         vertex 8.778691e+001 0.000000e+000 6.257397e+001
         vertex 8.778691e+001 4.064000e+000 6.257397e+001
         vertex 2.022500e+001 0.000000e+000 6.257397e+001
      endloop
   endfacet
   facet normal 0.000000e+000 0.000000e+000 1.000000e+000
      outer loop
         vertex 2.022500e+001 0.000000e+000 6.257397e+001
         vertex 8.778691e+001 4.064000e+000 6.257397e+001
         vertex 7.372808e+001 4.064000e+000 6.257397e+001
      endloop
   endfacet
   facet normal 0.000000e+000 0.000000e+000 1.000000e+000
      outer loop
         vertex 6.270650e+001 7.874000e+000 6.257397e+001
         vertex 2.022500e+001 7.874000e+000 6.257397e+001
         vertex 6.270650e+001 4.064000e+000 6.257397e+001
      endloop
   endfacet
   facet normal 0.000000e+000 0.000000e+000 1.000000e+000
      outer loop
         vertex 6.270650e+001 4.064000e+000 6.257397e+001
         vertex 2.022500e+001 7.874000e+000 6.257397e+001
         vertex 2.022500e+001 0.000000e+000 6.257397e+001
      endloop
   endfacet
   facet normal 0.000000e+000 0.000000e+000 1.000000e+000
      outer loop
         vertex 6.270650e+001 4.064000e+000 6.257397e+001
         vertex 2.022500e+001 0.000000e+000 6.257397e+001
         vertex 6.588150e+001 4.064000e+000 6.257397e+001
      endloop
   endfacet
   facet normal 0.000000e+000 0.000000e+000 1.000000e+000
      outer loop
         vertex 6.588150e+001 4.064000e+000 6.257397e+001
         vertex 2.022500e+001 0.000000e+000 6.257397e+001
         vertex 7.372808e+001 4.064000e+000 6.257397e+001
      endloop
   endfacet
   facet normal 0.000000e+000 0.000000e+000 1.000000e+000
      outer loop
         vertex 6.588150e+001 4.064000e+000 6.257397e+001
         vertex 7.372808e+001 4.064000e+000 6.257397e+001
         vertex 6.588150e+001 7.874000e+000 6.257397e+001
      endloop
   endfacet
   facet normal 0.000000e+000 0.000000e+000 1.000000e+000
      outer loop
         vertex 6.588150e+001 7.874000e+000 6.257397e+001
         vertex 7.372808e+001 4.064000e+000 6.257397e+001
         vertex 7.372808e+001 7.874000e+000 6.257397e+001
      endloop
   endfacet
   facet normal 1.000000e+000 0.000000e+000 0.000000e+000
      outer loop
         vertex 8.778691e+001 4.064000e+000 1.250000e+001
         vertex 8.778691e+001 4.064000e+000 6.257397e+001
         vertex 8.778691e+001 0.000000e+000 1.250000e+001
      endloop
   endfacet
   facet normal 1.000000e+000 0.000000e+000 0.000000e+000
      outer loop
         vertex 8.778691e+001 0.000000e+000 1.250000e+001
         vertex 8.778691e+001 4.064000e+000 6.257397e+001
         vertex 8.778691e+001 0.000000e+000 6.257397e+001
      endloop
   endfacet
   facet normal 0.000000e+000 0.000000e+000 -1.000000e+000
      outer loop
         vertex 8.778691e+001 4.064000e+000 1.250000e+001
         vertex 8.778691e+001 0.000000e+000 1.250000e+001
         vertex 7.372808e+001 4.064000e+000 1.250000e+001
      endloop
   endfacet
   facet normal 0.000000e+000 0.000000e+000 -1.000000e+000
      outer loop
         vertex 7.372808e+001 4.064000e+000 1.250000e+001
         vertex 8.778691e+001 0.000000e+000 1.250000e+001
         vertex 2.022500e+001 0.000000e+000 1.250000e+001
      endloop
   endfacet
   facet normal 0.000000e+000 0.000000e+000 -1.000000e+000
      outer loop
         vertex 7.372808e+001 4.064000e+000 1.250000e+001
         vertex 2.022500e+001 0.000000e+000 1.250000e+001
         vertex 7.372808e+001 7.874000e+000 1.250000e+001
      endloop
   endfacet
   facet normal 0.000000e+000 0.000000e+000 -1.000000e+000
      outer loop
         vertex 7.372808e+001 7.874000e+000 1.250000e+001
         vertex 2.022500e+001 0.000000e+000 1.250000e+001
         vertex 2.022500e+001 7.874000e+000 1.250000e+001
      endloop
   endfacet
   facet normal 0.000000e+000 -1.000000e+000 0.000000e+000
      outer loop
         vertex 8.461399e+001 0.000000e+000 4.107500e+001
         vertex 8.461399e+001 0.000000e+000 3.313750e+001
         vertex 8.778691e+001 0.000000e+000 1.250000e+001
      endloop
   endfacet
   facet normal 0.000000e+000 -1.000000e+000 0.000000e+000
      outer loop
         vertex 3.945941e+001 0.000000e+000 4.089060e+001
         vertex 4.155985e+001 0.000000e+000 4.229407e+001
         vertex 2.022500e+001 0.000000e+000 6.257397e+001
      endloop
   endfacet
   facet normal 0.000000e+000 -1.000000e+000 0.000000e+000
      outer loop
         vertex 2.022500e+001 0.000000e+000 6.257397e+001
         vertex 4.155985e+001 0.000000e+000 4.229407e+001
         vertex 4.403750e+001 0.000000e+000 4.278690e+001
      endloop
   endfacet
   facet normal 0.000000e+000 -1.000000e+000 0.000000e+000
      outer loop
         vertex 2.022500e+001 0.000000e+000 6.257397e+001
         vertex 4.403750e+001 0.000000e+000 4.278690e+001
         vertex 4.651514e+001 0.000000e+000 4.229407e+001
      endloop
   endfacet
   facet normal 0.000000e+000 -1.000000e+000 0.000000e+000
      outer loop
         vertex 7.985150e+001 0.000000e+000 3.313750e+001
         vertex 7.985150e+001 0.000000e+000 2.837500e+001
         vertex 8.461399e+001 0.000000e+000 3.313750e+001
      endloop
   endfacet
   facet normal 0.000000e+000 -1.000000e+000 0.000000e+000
      outer loop
         vertex 8.461399e+001 0.000000e+000 3.313750e+001
         vertex 7.985150e+001 0.000000e+000 2.837500e+001
         vertex 8.461399e+001 0.000000e+000 2.837500e+001
      endloop
   endfacet
   facet normal 0.000000e+000 -1.000000e+000 0.000000e+000
      outer loop
         vertex 8.461399e+001 0.000000e+000 3.313750e+001
         vertex 8.461399e+001 0.000000e+000 2.837500e+001
         vertex 8.778691e+001 0.000000e+000 1.250000e+001
      endloop
   endfacet
   facet normal 0.000000e+000 -1.000000e+000 0.000000e+000
      outer loop
         vertex 8.778691e+001 0.000000e+000 1.250000e+001
         vertex 8.461399e+001 0.000000e+000 2.837500e+001
         vertex 8.461399e+001 0.000000e+000 2.043750e+001
      endloop
   endfacet
   facet normal 0.000000e+000 -1.000000e+000 0.000000e+000
      outer loop
         vertex 8.778691e+001 0.000000e+000 1.250000e+001
         vertex 8.461399e+001 0.000000e+000 2.043750e+001
         vertex 7.985150e+001 0.000000e+000 2.043750e+001
      endloop
   endfacet
   facet normal 0.000000e+000 -1.000000e+000 0.000000e+000
      outer loop
         vertex 2.022500e+001 0.000000e+000 1.250000e+001
         vertex 4.155985e+001 0.000000e+000 3.033093e+001
         vertex 3.945941e+001 0.000000e+000 3.173441e+001
      endloop
   endfacet
   facet normal 0.000000e+000 -1.000000e+000 0.000000e+000
      outer loop
         vertex 5.001907e+001 0.000000e+000 3.879015e+001
         vertex 5.051191e+001 0.000000e+000 3.631250e+001
         vertex 8.778691e+001 0.000000e+000 1.250000e+001
      endloop
   endfacet
   facet normal 0.000000e+000 -1.000000e+000 0.000000e+000
      outer loop
         vertex 8.778691e+001 0.000000e+000 1.250000e+001
         vertex 5.051191e+001 0.000000e+000 3.631250e+001
         vertex 5.001907e+001 0.000000e+000 3.383485e+001
      endloop
   endfacet
   facet normal 0.000000e+000 -1.000000e+000 0.000000e+000
      outer loop
         vertex 5.001907e+001 0.000000e+000 3.383485e+001
         vertex 4.861560e+001 0.000000e+000 3.173441e+001
         vertex 8.778691e+001 0.000000e+000 1.250000e+001
      endloop
   endfacet
   facet normal 0.000000e+000 -1.000000e+000 0.000000e+000
      outer loop
         vertex 8.778691e+001 0.000000e+000 1.250000e+001
         vertex 4.861560e+001 0.000000e+000 3.173441e+001
         vertex 4.651514e+001 0.000000e+000 3.033093e+001
      endloop
   endfacet
   facet normal 0.000000e+000 -1.000000e+000 0.000000e+000
      outer loop
         vertex 8.778691e+001 0.000000e+000 1.250000e+001
         vertex 4.651514e+001 0.000000e+000 3.033093e+001
         vertex 2.022500e+001 0.000000e+000 1.250000e+001
      endloop
   endfacet
   facet normal 0.000000e+000 -1.000000e+000 0.000000e+000
      outer loop
         vertex 2.022500e+001 0.000000e+000 1.250000e+001
         vertex 4.651514e+001 0.000000e+000 3.033093e+001
         vertex 4.403750e+001 0.000000e+000 2.983810e+001
      endloop
   endfacet
   facet normal 0.000000e+000 -1.000000e+000 0.000000e+000
      outer loop
         vertex 2.022500e+001 0.000000e+000 1.250000e+001
         vertex 4.403750e+001 0.000000e+000 2.983810e+001
         vertex 4.155985e+001 0.000000e+000 3.033093e+001
      endloop
   endfacet
   facet normal 0.000000e+000 -1.000000e+000 0.000000e+000
      outer loop
         vertex 5.001907e+001 0.000000e+000 3.879015e+001
         vertex 8.778691e+001 0.000000e+000 1.250000e+001
         vertex 4.861560e+001 0.000000e+000 4.089060e+001
      endloop
   endfacet
   facet normal 0.000000e+000 -1.000000e+000 0.000000e+000
      outer loop
         vertex 4.861560e+001 0.000000e+000 4.089060e+001
         vertex 8.778691e+001 0.000000e+000 1.250000e+001
         vertex 7.985150e+001 0.000000e+000 2.043750e+001
      endloop
   endfacet
   facet normal 0.000000e+000 -1.000000e+000 0.000000e+000
      outer loop
         vertex 4.861560e+001 0.000000e+000 4.089060e+001
         vertex 7.985150e+001 0.000000e+000 2.043750e+001
         vertex 4.651514e+001 0.000000e+000 4.229407e+001
      endloop
   endfacet
   facet normal 0.000000e+000 -1.000000e+000 0.000000e+000
      outer loop
         vertex 4.651514e+001 0.000000e+000 4.229407e+001
         vertex 7.985150e+001 0.000000e+000 2.043750e+001
         vertex 7.985150e+001 0.000000e+000 2.837500e+001
      endloop
   endfacet
   facet normal 0.000000e+000 -1.000000e+000 0.000000e+000
      outer loop
         vertex 4.651514e+001 0.000000e+000 4.229407e+001
         vertex 7.985150e+001 0.000000e+000 2.837500e+001
         vertex 2.022500e+001 0.000000e+000 6.257397e+001
      endloop
   endfacet
   facet normal 0.000000e+000 -1.000000e+000 0.000000e+000
      outer loop
         vertex 2.022500e+001 0.000000e+000 6.257397e+001
         vertex 7.985150e+001 0.000000e+000 2.837500e+001
         vertex 7.985150e+001 0.000000e+000 3.313750e+001
      endloop
   endfacet
   facet normal 0.000000e+000 -1.000000e+000 0.000000e+000
      outer loop
         vertex 2.022500e+001 0.000000e+000 6.257397e+001
         vertex 7.985150e+001 0.000000e+000 3.313750e+001
         vertex 7.985150e+001 0.000000e+000 4.107500e+001
      endloop
   endfacet
   facet normal 0.000000e+000 -1.000000e+000 0.000000e+000
      outer loop
         vertex 8.778691e+001 0.000000e+000 1.250000e+001
         vertex 8.778691e+001 0.000000e+000 6.257397e+001
         vertex 8.461399e+001 0.000000e+000 4.107500e+001
      endloop
   endfacet
   facet normal 0.000000e+000 -1.000000e+000 0.000000e+000
      outer loop
         vertex 8.461399e+001 0.000000e+000 4.107500e+001
         vertex 8.778691e+001 0.000000e+000 6.257397e+001
         vertex 8.461399e+001 0.000000e+000 4.583750e+001
      endloop
   endfacet
   facet normal 0.000000e+000 -1.000000e+000 0.000000e+000
      outer loop
         vertex 8.461399e+001 0.000000e+000 4.107500e+001
         vertex 8.461399e+001 0.000000e+000 4.583750e+001
         vertex 7.985150e+001 0.000000e+000 4.107500e+001
      endloop
   endfacet
   facet normal 0.000000e+000 -1.000000e+000 0.000000e+000
      outer loop
         vertex 7.985150e+001 0.000000e+000 4.107500e+001
         vertex 8.461399e+001 0.000000e+000 4.583750e+001
         vertex 7.985150e+001 0.000000e+000 4.583750e+001
      endloop
   endfacet
   facet normal 0.000000e+000 -1.000000e+000 0.000000e+000
      outer loop
         vertex 7.985150e+001 0.000000e+000 4.107500e+001
         vertex 7.985150e+001 0.000000e+000 4.583750e+001
         vertex 2.022500e+001 0.000000e+000 6.257397e+001
      endloop
   endfacet
   facet normal 0.000000e+000 -1.000000e+000 0.000000e+000
      outer loop
         vertex 2.022500e+001 0.000000e+000 6.257397e+001
         vertex 7.985150e+001 0.000000e+000 4.583750e+001
         vertex 7.985150e+001 0.000000e+000 5.377500e+001
      endloop
   endfacet
   facet normal 0.000000e+000 -1.000000e+000 0.000000e+000
      outer loop
         vertex 2.022500e+001 0.000000e+000 6.257397e+001
         vertex 7.985150e+001 0.000000e+000 5.377500e+001
         vertex 8.778691e+001 0.000000e+000 6.257397e+001
      endloop
   endfacet
   facet normal 0.000000e+000 -1.000000e+000 0.000000e+000
      outer loop
         vertex 8.778691e+001 0.000000e+000 6.257397e+001
         vertex 7.985150e+001 0.000000e+000 5.377500e+001
         vertex 8.461399e+001 0.000000e+000 5.377500e+001
      endloop
   endfacet
   facet normal 0.000000e+000 -1.000000e+000 0.000000e+000
      outer loop
         vertex 8.778691e+001 0.000000e+000 6.257397e+001
         vertex 8.461399e+001 0.000000e+000 5.377500e+001
         vertex 8.461399e+001 0.000000e+000 4.583750e+001
      endloop
   endfacet
   facet normal 0.000000e+000 -1.000000e+000 0.000000e+000
      outer loop
         vertex 3.945941e+001 0.000000e+000 3.173441e+001
         vertex 3.805593e+001 0.000000e+000 3.383485e+001
         vertex 2.022500e+001 0.000000e+000 1.250000e+001
      endloop
   endfacet
   facet normal 0.000000e+000 -1.000000e+000 0.000000e+000
      outer loop
         vertex 2.022500e+001 0.000000e+000 1.250000e+001
         vertex 3.805593e+001 0.000000e+000 3.383485e+001
         vertex 3.756309e+001 0.000000e+000 3.631250e+001
      endloop
   endfacet
   facet normal 0.000000e+000 -1.000000e+000 0.000000e+000
      outer loop
         vertex 2.022500e+001 0.000000e+000 1.250000e+001
         vertex 3.756309e+001 0.000000e+000 3.631250e+001
         vertex 2.022500e+001 0.000000e+000 6.257397e+001
      endloop
   endfacet
   facet normal 0.000000e+000 -1.000000e+000 0.000000e+000
      outer loop
         vertex 2.022500e+001 0.000000e+000 6.257397e+001
         vertex 3.756309e+001 0.000000e+000 3.631250e+001
         vertex 3.805593e+001 0.000000e+000 3.879015e+001
      endloop
   endfacet
   facet normal 0.000000e+000 -1.000000e+000 0.000000e+000
      outer loop
         vertex 2.022500e+001 0.000000e+000 6.257397e+001
         vertex 3.805593e+001 0.000000e+000 3.879015e+001
         vertex 3.945941e+001 0.000000e+000 4.089060e+001
      endloop
   endfacet
   facet normal 1.000000e+000 0.000000e+000 0.000000e+000
      outer loop
         vertex 7.372808e+001 7.874000e+000 1.250000e+001
         vertex 7.372808e+001 7.874000e+000 6.257397e+001
         vertex 7.372808e+001 4.064000e+000 1.250000e+001
      endloop
   endfacet
   facet normal 1.000000e+000 0.000000e+000 0.000000e+000
      outer loop
         vertex 7.372808e+001 4.064000e+000 1.250000e+001
         vertex 7.372808e+001 7.874000e+000 6.257397e+001
         vertex 7.372808e+001 4.064000e+000 6.257397e+001
      endloop
   endfacet
   facet normal 0.000000e+000 1.000000e+000 0.000000e+000
      outer loop
         vertex 6.588150e+001 7.874000e+000 6.130397e+001
         vertex 6.588150e+001 7.874000e+000 6.257397e+001
         vertex 7.372808e+001 7.874000e+000 6.257397e+001
      endloop
   endfacet
   facet normal 0.000000e+000 1.000000e+000 0.000000e+000
      outer loop
         vertex 5.001907e+001 7.874000e+000 3.879015e+001
         vertex 4.861560e+001 7.874000e+000 4.089060e+001
         vertex 6.270650e+001 7.874000e+000 6.130397e+001
      endloop
   endfacet
   facet normal 0.000000e+000 1.000000e+000 0.000000e+000
      outer loop
         vertex 6.270650e+001 7.874000e+000 6.130397e+001
         vertex 4.861560e+001 7.874000e+000 4.089060e+001
         vertex 6.270650e+001 7.874000e+000 6.257397e+001
      endloop
   endfacet
   facet normal 0.000000e+000 1.000000e+000 0.000000e+000
      outer loop
         vertex 4.861560e+001 7.874000e+000 4.089060e+001
         vertex 4.651514e+001 7.874000e+000 4.229407e+001
         vertex 6.270650e+001 7.874000e+000 6.257397e+001
      endloop
   endfacet
   facet normal 0.000000e+000 1.000000e+000 0.000000e+000
      outer loop
         vertex 6.270650e+001 7.874000e+000 6.257397e+001
         vertex 4.651514e+001 7.874000e+000 4.229407e+001
         vertex 4.403750e+001 7.874000e+000 4.278690e+001
      endloop
   endfacet
   facet normal 0.000000e+000 1.000000e+000 0.000000e+000
      outer loop
         vertex 6.270650e+001 7.874000e+000 6.257397e+001
         vertex 4.403750e+001 7.874000e+000 4.278690e+001
         vertex 2.022500e+001 7.874000e+000 6.257397e+001
      endloop
   endfacet
   facet normal 0.000000e+000 1.000000e+000 0.000000e+000
      outer loop
         vertex 2.022500e+001 7.874000e+000 6.257397e+001
         vertex 4.403750e+001 7.874000e+000 4.278690e+001
         vertex 4.155985e+001 7.874000e+000 4.229407e+001
      endloop
   endfacet
   facet normal 0.000000e+000 1.000000e+000 0.000000e+000
      outer loop
         vertex 7.372808e+001 7.874000e+000 1.250000e+001
         vertex 4.861560e+001 7.874000e+000 3.173441e+001
         vertex 5.001907e+001 7.874000e+000 3.383485e+001
      endloop
   endfacet
   facet normal 0.000000e+000 1.000000e+000 0.000000e+000
      outer loop
         vertex 4.155985e+001 7.874000e+000 4.229407e+001
         vertex 3.945941e+001 7.874000e+000 4.089060e+001
         vertex 2.022500e+001 7.874000e+000 6.257397e+001
      endloop
   endfacet
   facet normal 0.000000e+000 1.000000e+000 0.000000e+000
      outer loop
         vertex 2.022500e+001 7.874000e+000 6.257397e+001
         vertex 3.945941e+001 7.874000e+000 4.089060e+001
         vertex 3.805593e+001 7.874000e+000 3.879015e+001
      endloop
   endfacet
   facet normal 0.000000e+000 1.000000e+000 0.000000e+000
      outer loop
         vertex 2.022500e+001 7.874000e+000 6.257397e+001
         vertex 3.805593e+001 7.874000e+000 3.879015e+001
         vertex 2.022500e+001 7.874000e+000 1.250000e+001
      endloop
   endfacet
   facet normal 0.000000e+000 1.000000e+000 0.000000e+000
      outer loop
         vertex 2.022500e+001 7.874000e+000 1.250000e+001
         vertex 3.805593e+001 7.874000e+000 3.879015e+001
         vertex 3.756309e+001 7.874000e+000 3.631250e+001
      endloop
   endfacet
   facet normal 0.000000e+000 1.000000e+000 0.000000e+000
      outer loop
         vertex 2.022500e+001 7.874000e+000 1.250000e+001
         vertex 3.756309e+001 7.874000e+000 3.631250e+001
         vertex 3.805593e+001 7.874000e+000 3.383485e+001
      endloop
   endfacet
   facet normal 0.000000e+000 1.000000e+000 0.000000e+000
      outer loop
         vertex 2.022500e+001 7.874000e+000 1.250000e+001
         vertex 4.403750e+001 7.874000e+000 2.983810e+001
         vertex 7.372808e+001 7.874000e+000 1.250000e+001
      endloop
   endfacet
   facet normal 0.000000e+000 1.000000e+000 0.000000e+000
      outer loop
         vertex 7.372808e+001 7.874000e+000 1.250000e+001
         vertex 4.403750e+001 7.874000e+000 2.983810e+001
         vertex 4.651514e+001 7.874000e+000 3.033093e+001
      endloop
   endfacet
   facet normal 0.000000e+000 1.000000e+000 0.000000e+000
      outer loop
         vertex 7.372808e+001 7.874000e+000 1.250000e+001
         vertex 4.651514e+001 7.874000e+000 3.033093e+001
         vertex 4.861560e+001 7.874000e+000 3.173441e+001
      endloop
   endfacet
   facet normal 0.000000e+000 1.000000e+000 0.000000e+000
      outer loop
         vertex 7.372808e+001 7.874000e+000 6.257397e+001
         vertex 7.372808e+001 7.874000e+000 1.250000e+001
         vertex 6.588150e+001 7.874000e+000 6.130397e+001
      endloop
   endfacet
   facet normal 0.000000e+000 1.000000e+000 0.000000e+000
      outer loop
         vertex 6.588150e+001 7.874000e+000 6.130397e+001
         vertex 7.372808e+001 7.874000e+000 1.250000e+001
         vertex 5.001907e+001 7.874000e+000 3.383485e+001
      endloop
   endfacet
   facet normal 0.000000e+000 1.000000e+000 0.000000e+000
      outer loop
         vertex 6.588150e+001 7.874000e+000 6.130397e+001
         vertex 5.001907e+001 7.874000e+000 3.383485e+001
         vertex 6.270650e+001 7.874000e+000 6.130397e+001
      endloop
   endfacet
   facet normal 0.000000e+000 1.000000e+000 0.000000e+000
      outer loop
         vertex 6.270650e+001 7.874000e+000 6.130397e+001
         vertex 5.001907e+001 7.874000e+000 3.383485e+001
         vertex 5.051191e+001 7.874000e+000 3.631250e+001
      endloop
   endfacet
   facet normal 0.000000e+000 1.000000e+000 0.000000e+000
      outer loop
         vertex 6.270650e+001 7.874000e+000 6.130397e+001
         vertex 5.051191e+001 7.874000e+000 3.631250e+001
         vertex 5.001907e+001 7.874000e+000 3.879015e+001
      endloop
   endfacet
   facet normal 0.000000e+000 1.000000e+000 0.000000e+000
      outer loop
         vertex 3.805593e+001 7.874000e+000 3.383485e+001
         vertex 3.945941e+001 7.874000e+000 3.173441e+001
         vertex 2.022500e+001 7.874000e+000 1.250000e+001
      endloop
   endfacet
   facet normal 0.000000e+000 1.000000e+000 0.000000e+000
      outer loop
         vertex 2.022500e+001 7.874000e+000 1.250000e+001
         vertex 3.945941e+001 7.874000e+000 3.173441e+001
         vertex 4.155985e+001 7.874000e+000 3.033093e+001
      endloop
   endfacet
   facet normal 0.000000e+000 1.000000e+000 0.000000e+000
      outer loop
         vertex 2.022500e+001 7.874000e+000 1.250000e+001
         vertex 4.155985e+001 7.874000e+000 3.033093e+001
         vertex 4.403750e+001 7.874000e+000 2.983810e+001
      endloop
   endfacet
   facet normal -1.950903e-001 0.000000e+000 -9.807853e-001
      outer loop
         vertex 4.403750e+001 7.874000e+000 4.278690e+001
         vertex 4.651514e+001 7.874000e+000 4.229407e+001
         vertex 4.403750e+001 0.000000e+000 4.278690e+001
      endloop
   endfacet
   facet normal -1.950903e-001 0.000000e+000 -9.807853e-001
      outer loop
         vertex 4.403750e+001 0.000000e+000 4.278690e+001
         vertex 4.651514e+001 7.874000e+000 4.229407e+001
         vertex 4.651514e+001 0.000000e+000 4.229407e+001
      endloop
   endfacet
   facet normal -5.555702e-001 0.000000e+000 -8.314696e-001
      outer loop
         vertex 4.651514e+001 7.874000e+000 4.229407e+001
         vertex 4.861560e+001 7.874000e+000 4.089060e+001
         vertex 4.651514e+001 0.000000e+000 4.229407e+001
      endloop
   endfacet
   facet normal -5.555702e-001 0.000000e+000 -8.314696e-001
      outer loop
         vertex 4.651514e+001 0.000000e+000 4.229407e+001
         vertex 4.861560e+001 7.874000e+000 4.089060e+001
         vertex 4.861560e+001 0.000000e+000 4.089060e+001
      endloop
   endfacet
   facet normal -8.314696e-001 0.000000e+000 -5.555702e-001
      outer loop
         vertex 4.861560e+001 7.874000e+000 4.089060e+001
         vertex 5.001907e+001 7.874000e+000 3.879015e+001
         vertex 4.861560e+001 0.000000e+000 4.089060e+001
      endloop
   endfacet
   facet normal -8.314696e-001 0.000000e+000 -5.555702e-001
      outer loop
         vertex 4.861560e+001 0.000000e+000 4.089060e+001
         vertex 5.001907e+001 7.874000e+000 3.879015e+001
         vertex 5.001907e+001 0.000000e+000 3.879015e+001
      endloop
   endfacet
   facet normal -9.807853e-001 0.000000e+000 -1.950903e-001
      outer loop
         vertex 5.001907e+001 7.874000e+000 3.879015e+001
         vertex 5.051191e+001 7.874000e+000 3.631250e+001
         vertex 5.001907e+001 0.000000e+000 3.879015e+001
      endloop
   endfacet
   facet normal -9.807853e-001 0.000000e+000 -1.950903e-001
      outer loop
         vertex 5.001907e+001 0.000000e+000 3.879015e+001
         vertex 5.051191e+001 7.874000e+000 3.631250e+001
         vertex 5.051191e+001 0.000000e+000 3.631250e+001
      endloop
   endfacet
   facet normal -9.807853e-001 0.000000e+000 1.950903e-001
      outer loop
         vertex 5.051191e+001 7.874000e+000 3.631250e+001
         vertex 5.001907e+001 7.874000e+000 3.383485e+001
         vertex 5.051191e+001 0.000000e+000 3.631250e+001
      endloop
   endfacet
   facet normal -9.807853e-001 0.000000e+000 1.950903e-001
      outer loop
         vertex 5.051191e+001 0.000000e+000 3.631250e+001
         vertex 5.001907e+001 7.874000e+000 3.383485e+001
         vertex 5.001907e+001 0.000000e+000 3.383485e+001
      endloop
   endfacet
   facet normal -8.314696e-001 0.000000e+000 5.555702e-001
      outer loop
         vertex 5.001907e+001 7.874000e+000 3.383485e+001
         vertex 4.861560e+001 7.874000e+000 3.173441e+001
         vertex 5.001907e+001 0.000000e+000 3.383485e+001
      endloop
   endfacet
   facet normal -8.314696e-001 0.000000e+000 5.555702e-001
      outer loop
         vertex 5.001907e+001 0.000000e+000 3.383485e+001
         vertex 4.861560e+001 7.874000e+000 3.173441e+001
         vertex 4.861560e+001 0.000000e+000 3.173441e+001
      endloop
   endfacet
   facet normal -5.555702e-001 0.000000e+000 8.314696e-001
      outer loop
         vertex 4.861560e+001 7.874000e+000 3.173441e+001
         vertex 4.651514e+001 7.874000e+000 3.033093e+001
         vertex 4.861560e+001 0.000000e+000 3.173441e+001
      endloop
   endfacet
   facet normal -5.555702e-001 0.000000e+000 8.314696e-001
      outer loop
         vertex 4.861560e+001 0.000000e+000 3.173441e+001
         vertex 4.651514e+001 7.874000e+000 3.033093e+001
         vertex 4.651514e+001 0.000000e+000 3.033093e+001
      endloop
   endfacet
   facet normal -1.950903e-001 0.000000e+000 9.807853e-001
      outer loop
         vertex 4.651514e+001 7.874000e+000 3.033093e+001
         vertex 4.403750e+001 7.874000e+000 2.983810e+001
         vertex 4.651514e+001 0.000000e+000 3.033093e+001
      endloop
   endfacet
   facet normal -1.950903e-001 0.000000e+000 9.807853e-001
      outer loop
         vertex 4.651514e+001 0.000000e+000 3.033093e+001
         vertex 4.403750e+001 7.874000e+000 2.983810e+001
         vertex 4.403750e+001 0.000000e+000 2.983810e+001
      endloop
   endfacet
   facet normal 1.950903e-001 0.000000e+000 9.807853e-001
      outer loop
         vertex 4.403750e+001 7.874000e+000 2.983810e+001
         vertex 4.155985e+001 7.874000e+000 3.033093e+001
         vertex 4.403750e+001 0.000000e+000 2.983810e+001
      endloop
   endfacet
   facet normal 1.950903e-001 0.000000e+000 9.807853e-001
      outer loop
         vertex 4.403750e+001 0.000000e+000 2.983810e+001
         vertex 4.155985e+001 7.874000e+000 3.033093e+001
         vertex 4.155985e+001 0.000000e+000 3.033093e+001
      endloop
   endfacet
   facet normal 5.555702e-001 0.000000e+000 8.314696e-001
      outer loop
         vertex 4.155985e+001 7.874000e+000 3.033093e+001
         vertex 3.945941e+001 7.874000e+000 3.173441e+001
         vertex 4.155985e+001 0.000000e+000 3.033093e+001
      endloop
   endfacet
   facet normal 5.555702e-001 0.000000e+000 8.314696e-001
      outer loop
         vertex 4.155985e+001 0.000000e+000 3.033093e+001
         vertex 3.945941e+001 7.874000e+000 3.173441e+001
         vertex 3.945941e+001 0.000000e+000 3.173441e+001
      endloop
   endfacet
   facet normal 8.314696e-001 0.000000e+000 5.555702e-001
      outer loop
         vertex 3.945941e+001 7.874000e+000 3.173441e+001
         vertex 3.805593e+001 7.874000e+000 3.383485e+001
         vertex 3.945941e+001 0.000000e+000 3.173441e+001
      endloop
   endfacet
   facet normal 8.314696e-001 0.000000e+000 5.555702e-001
      outer loop
         vertex 3.945941e+001 0.000000e+000 3.173441e+001
         vertex 3.805593e+001 7.874000e+000 3.383485e+001
         vertex 3.805593e+001 0.000000e+000 3.383485e+001
      endloop
   endfacet
   facet normal 9.807853e-001 0.000000e+000 1.950903e-001
      outer loop
         vertex 3.805593e+001 7.874000e+000 3.383485e+001
         vertex 3.756309e+001 7.874000e+000 3.631250e+001
         vertex 3.805593e+001 0.000000e+000 3.383485e+001
      endloop
   endfacet
   facet normal 9.807853e-001 0.000000e+000 1.950903e-001
      outer loop
         vertex 3.805593e+001 0.000000e+000 3.383485e+001
         vertex 3.756309e+001 7.874000e+000 3.631250e+001
         vertex 3.756309e+001 0.000000e+000 3.631250e+001
      endloop
   endfacet
   facet normal 9.807853e-001 0.000000e+000 -1.950903e-001
      outer loop
         vertex 3.756309e+001 7.874000e+000 3.631250e+001
         vertex 3.805593e+001 7.874000e+000 3.879015e+001
         vertex 3.756309e+001 0.000000e+000 3.631250e+001
      endloop
   endfacet
   facet normal 9.807853e-001 0.000000e+000 -1.950903e-001
      outer loop
         vertex 3.756309e+001 0.000000e+000 3.631250e+001
         vertex 3.805593e+001 7.874000e+000 3.879015e+001
         vertex 3.805593e+001 0.000000e+000 3.879015e+001
      endloop
   endfacet
   facet normal 8.314696e-001 0.000000e+000 -5.555702e-001
      outer loop
         vertex 3.805593e+001 7.874000e+000 3.879015e+001
         vertex 3.945941e+001 7.874000e+000 4.089060e+001
         vertex 3.805593e+001 0.000000e+000 3.879015e+001
      endloop
   endfacet
   facet normal 8.314696e-001 0.000000e+000 -5.555702e-001
      outer loop
         vertex 3.805593e+001 0.000000e+000 3.879015e+001
         vertex 3.945941e+001 7.874000e+000 4.089060e+001
         vertex 3.945941e+001 0.000000e+000 4.089060e+001
      endloop
   endfacet
   facet normal 5.555702e-001 0.000000e+000 -8.314696e-001
      outer loop
         vertex 3.945941e+001 7.874000e+000 4.089060e+001
         vertex 4.155985e+001 7.874000e+000 4.229407e+001
         vertex 3.945941e+001 0.000000e+000 4.089060e+001
      endloop
   endfacet
   facet normal 5.555702e-001 0.000000e+000 -8.314696e-001
      outer loop
         vertex 3.945941e+001 0.000000e+000 4.089060e+001
         vertex 4.155985e+001 7.874000e+000 4.229407e+001
         vertex 4.155985e+001 0.000000e+000 4.229407e+001
      endloop
   endfacet
   facet normal 1.950903e-001 0.000000e+000 -9.807853e-001
      outer loop
         vertex 4.155985e+001 7.874000e+000 4.229407e+001
         vertex 4.403750e+001 7.874000e+000 4.278690e+001
         vertex 4.155985e+001 0.000000e+000 4.229407e+001
      endloop
   endfacet
   facet normal 1.950903e-001 0.000000e+000 -9.807853e-001
      outer loop
         vertex 4.155985e+001 0.000000e+000 4.229407e+001
         vertex 4.403750e+001 7.874000e+000 4.278690e+001
         vertex 4.403750e+001 0.000000e+000 4.278690e+001
      endloop
   endfacet
   facet normal -1.000000e+000 0.000000e+000 0.000000e+000
      outer loop
         vertex 8.461399e+001 0.000000e+000 2.043750e+001
         vertex 8.461399e+001 0.000000e+000 2.837500e+001
         vertex 8.461399e+001 4.064000e+000 2.043750e+001
      endloop
   endfacet
   facet normal -1.000000e+000 0.000000e+000 0.000000e+000
      outer loop
         vertex 8.461399e+001 4.064000e+000 2.043750e+001
         vertex 8.461399e+001 0.000000e+000 2.837500e+001
         vertex 8.461399e+001 4.064000e+000 2.837500e+001
      endloop
   endfacet
   facet normal 0.000000e+000 0.000000e+000 -1.000000e+000
      outer loop
         vertex 8.461399e+001 0.000000e+000 2.837500e+001
         vertex 7.985150e+001 0.000000e+000 2.837500e+001
         vertex 8.461399e+001 4.064000e+000 2.837500e+001
      endloop
   endfacet
   facet normal 0.000000e+000 0.000000e+000 -1.000000e+000
      outer loop
         vertex 8.461399e+001 4.064000e+000 2.837500e+001
         vertex 7.985150e+001 0.000000e+000 2.837500e+001
         vertex 7.985150e+001 4.064000e+000 2.837500e+001
      endloop
   endfacet
   facet normal 1.000000e+000 0.000000e+000 0.000000e+000
      outer loop
         vertex 7.985150e+001 0.000000e+000 2.837500e+001
         vertex 7.985150e+001 0.000000e+000 2.043750e+001
         vertex 7.985150e+001 4.064000e+000 2.837500e+001
      endloop
   endfacet
   facet normal 1.000000e+000 0.000000e+000 0.000000e+000
      outer loop
         vertex 7.985150e+001 4.064000e+000 2.837500e+001
         vertex 7.985150e+001 0.000000e+000 2.043750e+001
         vertex 7.985150e+001 4.064000e+000 2.043750e+001
      endloop
   endfacet
   facet normal 0.000000e+000 0.000000e+000 1.000000e+000
      outer loop
         vertex 7.985150e+001 0.000000e+000 2.043750e+001
         vertex 8.461399e+001 0.000000e+000 2.043750e+001
         vertex 7.985150e+001 4.064000e+000 2.043750e+001
      endloop
   endfacet
   facet normal 0.000000e+000 0.000000e+000 1.000000e+000
      outer loop
         vertex 7.985150e+001 4.064000e+000 2.043750e+001
         vertex 8.461399e+001 0.000000e+000 2.043750e+001
         vertex 8.461399e+001 4.064000e+000 2.043750e+001
      endloop
   endfacet
   facet normal -1.000000e+000 0.000000e+000 0.000000e+000
      outer loop
         vertex 8.461399e+001 0.000000e+000 4.583750e+001
         vertex 8.461399e+001 0.000000e+000 5.377500e+001
         vertex 8.461399e+001 4.064000e+000 4.583750e+001
      endloop
   endfacet
   facet normal -1.000000e+000 0.000000e+000 0.000000e+000
      outer loop
         vertex 8.461399e+001 4.064000e+000 4.583750e+001
         vertex 8.461399e+001 0.000000e+000 5.377500e+001
         vertex 8.461399e+001 4.064000e+000 5.377500e+001
      endloop
   endfacet
   facet normal 0.000000e+000 0.000000e+000 -1.000000e+000
      outer loop
         vertex 8.461399e+001 0.000000e+000 5.377500e+001
         vertex 7.985150e+001 0.000000e+000 5.377500e+001
         vertex 8.461399e+001 4.064000e+000 5.377500e+001
      endloop
   endfacet
   facet normal 0.000000e+000 0.000000e+000 -1.000000e+000
      outer loop
         vertex 8.461399e+001 4.064000e+000 5.377500e+001
         vertex 7.985150e+001 0.000000e+000 5.377500e+001
         vertex 7.985150e+001 4.064000e+000 5.377500e+001
      endloop
   endfacet
   facet normal 1.000000e+000 0.000000e+000 8.741913e-016
      outer loop
         vertex 7.985150e+001 0.000000e+000 5.377500e+001
         vertex 7.985150e+001 0.000000e+000 4.583750e+001
         vertex 7.985150e+001 4.064000e+000 5.377500e+001
      endloop
   endfacet
   facet normal 1.000000e+000 0.000000e+000 8.741913e-016
      outer loop
         vertex 7.985150e+001 4.064000e+000 5.377500e+001
         vertex 7.985150e+001 0.000000e+000 4.583750e+001
         vertex 7.985150e+001 4.064000e+000 4.583750e+001
      endloop
   endfacet
   facet normal 0.000000e+000 0.000000e+000 1.000000e+000
      outer loop
         vertex 7.985150e+001 0.000000e+000 4.583750e+001
         vertex 8.461399e+001 0.000000e+000 4.583750e+001
         vertex 7.985150e+001 4.064000e+000 4.583750e+001
      endloop
   endfacet
   facet normal 0.000000e+000 0.000000e+000 1.000000e+000
      outer loop
         vertex 7.985150e+001 4.064000e+000 4.583750e+001
         vertex 8.461399e+001 0.000000e+000 4.583750e+001
         vertex 8.461399e+001 4.064000e+000 4.583750e+001
      endloop
   endfacet
   facet normal -1.000000e+000 0.000000e+000 0.000000e+000
      outer loop
         vertex 8.461399e+001 0.000000e+000 3.313750e+001
         vertex 8.461399e+001 0.000000e+000 4.107500e+001
         vertex 8.461399e+001 4.064000e+000 3.313750e+001
      endloop
   endfacet
   facet normal -1.000000e+000 0.000000e+000 0.000000e+000
      outer loop
         vertex 8.461399e+001 4.064000e+000 3.313750e+001
         vertex 8.461399e+001 0.000000e+000 4.107500e+001
         vertex 8.461399e+001 4.064000e+000 4.107500e+001
      endloop
   endfacet
   facet normal 0.000000e+000 0.000000e+000 -1.000000e+000
      outer loop
         vertex 8.461399e+001 0.000000e+000 4.107500e+001
         vertex 7.985150e+001 0.000000e+000 4.107500e+001
         vertex 8.461399e+001 4.064000e+000 4.107500e+001
      endloop
   endfacet
   facet normal 0.000000e+000 0.000000e+000 -1.000000e+000
      outer loop
         vertex 8.461399e+001 4.064000e+000 4.107500e+001
         vertex 7.985150e+001 0.000000e+000 4.107500e+001
         vertex 7.985150e+001 4.064000e+000 4.107500e+001
      endloop
   endfacet
   facet normal 1.000000e+000 0.000000e+000 0.000000e+000
      outer loop
         vertex 7.985150e+001 0.000000e+000 4.107500e+001
         vertex 7.985150e+001 0.000000e+000 3.313750e+001
         vertex 7.985150e+001 4.064000e+000 4.107500e+001
      endloop
   endfacet
   facet normal 1.000000e+000 0.000000e+000 0.000000e+000
      outer loop
         vertex 7.985150e+001 4.064000e+000 4.107500e+001
         vertex 7.985150e+001 0.000000e+000 3.313750e+001
         vertex 7.985150e+001 4.064000e+000 3.313750e+001
      endloop
   endfacet
   facet normal 0.000000e+000 0.000000e+000 1.000000e+000
      outer loop
         vertex 7.985150e+001 0.000000e+000 3.313750e+001
         vertex 8.461399e+001 0.000000e+000 3.313750e+001
         vertex 7.985150e+001 4.064000e+000 3.313750e+001
      endloop
   endfacet
   facet normal 0.000000e+000 0.000000e+000 1.000000e+000
      outer loop
         vertex 7.985150e+001 4.064000e+000 3.313750e+001
         vertex 8.461399e+001 0.000000e+000 3.313750e+001
         vertex 8.461399e+001 4.064000e+000 3.313750e+001
      endloop
   endfacet
   facet normal 1.000000e+000 0.000000e+000 0.000000e+000
      outer loop
         vertex 6.270650e+001 4.064000e+000 6.130397e+001
         vertex 6.270650e+001 7.874000e+000 6.130397e+001
         vertex 6.270650e+001 4.064000e+000 6.257397e+001
      endloop
   endfacet
   facet normal 1.000000e+000 0.000000e+000 0.000000e+000
      outer loop
         vertex 6.270650e+001 4.064000e+000 6.257397e+001
         vertex 6.270650e+001 7.874000e+000 6.130397e+001
         vertex 6.270650e+001 7.874000e+000 6.257397e+001
      endloop
   endfacet
   facet normal -1.000000e+000 0.000000e+000 0.000000e+000
      outer loop
         vertex 6.588150e+001 7.874000e+000 6.130397e+001
         vertex 6.588150e+001 4.064000e+000 6.130397e+001
         vertex 6.588150e+001 7.874000e+000 6.257397e+001
      endloop
   endfacet
   facet normal -1.000000e+000 0.000000e+000 0.000000e+000
      outer loop
         vertex 6.588150e+001 7.874000e+000 6.257397e+001
         vertex 6.588150e+001 4.064000e+000 6.130397e+001
         vertex 6.588150e+001 4.064000e+000 6.257397e+001
      endloop
   endfacet
   facet normal 0.000000e+000 1.000000e+000 0.000000e+000
      outer loop
         vertex 6.588150e+001 4.064000e+000 6.130397e+001
         vertex 6.270650e+001 4.064000e+000 6.130397e+001
         vertex 6.588150e+001 4.064000e+000 6.257397e+001
      endloop
   endfacet
   facet normal 0.000000e+000 1.000000e+000 0.000000e+000
      outer loop
         vertex 6.588150e+001 4.064000e+000 6.257397e+001
         vertex 6.270650e+001 4.064000e+000 6.130397e+001
         vertex 6.270650e+001 4.064000e+000 6.257397e+001
      endloop
   endfacet
   facet normal 0.000000e+000 0.000000e+000 1.000000e+000
      outer loop
         vertex 6.588150e+001 4.064000e+000 6.130397e+001
         vertex 6.588150e+001 7.874000e+000 6.130397e+001
         vertex 6.270650e+001 4.064000e+000 6.130397e+001
      endloop
   endfacet
   facet normal 0.000000e+000 0.000000e+000 1.000000e+000
      outer loop
         vertex 6.270650e+001 4.064000e+000 6.130397e+001
         vertex 6.588150e+001 7.874000e+000 6.130397e+001
         vertex 6.270650e+001 7.874000e+000 6.130397e+001
      endloop
   endfacet
endsolid