solid Vex_UltraSonic_base
   facet normal 0.000000e+000 1.000000e+000 0.000000e+000
      outer loop
         vertex 7.858128e+001 3.968750e+000 1.587505e+001
         vertex 8.096252e+001 3.968750e+000 2.857505e+001
         vertex 8.096252e+001 3.968750e+000 5.029142e-005
      endloop
   endfacet
   facet normal 0.000000e+000 1.000000e+000 0.000000e+000
      outer loop
         vertex 8.096252e+001 3.968750e+000 2.857505e+001
         vertex 7.858128e+001 3.968750e+000 1.587505e+001
         vertex 6.270984e+001 3.968750e+000 2.857505e+001
      endloop
   endfacet
   facet normal 0.000000e+000 1.000000e+000 0.000000e+000
      outer loop
         vertex 6.270984e+001 3.968750e+000 2.857505e+001
         vertex 7.858128e+001 3.968750e+000 1.587505e+001
         vertex 7.064378e+001 3.968750e+000 1.587505e+001
      endloop
   endfacet
   facet normal 0.000000e+000 1.000000e+000 0.000000e+000
      outer loop
         vertex 6.270984e+001 3.968750e+000 2.857505e+001
         vertex 7.064378e+001 3.968750e+000 1.587505e+001
         vertex 6.270984e+001 3.968750e+000 5.029142e-005
      endloop
   endfacet
   facet normal 0.000000e+000 1.000000e+000 0.000000e+000
      outer loop
         vertex 6.270984e+001 3.968750e+000 5.029142e-005
         vertex 7.064378e+001 3.968750e+000 1.587505e+001
         vertex 7.064378e+001 3.968750e+000 1.263655e+001
      endloop
   endfacet
   facet normal 0.000000e+000 1.000000e+000 0.000000e+000
      outer loop
         vertex 6.270984e+001 3.968750e+000 5.029142e-005
         vertex 7.064378e+001 3.968750e+000 1.263655e+001
         vertex 8.096252e+001 3.968750e+000 5.029142e-005
      endloop
   endfacet
   facet normal 0.000000e+000 1.000000e+000 0.000000e+000
      outer loop
         vertex 8.096252e+001 3.968750e+000 5.029142e-005
         vertex 7.064378e+001 3.968750e+000 1.263655e+001
         vertex 7.858128e+001 3.968750e+000 1.263655e+001
      endloop
   endfacet
   facet normal 0.000000e+000 1.000000e+000 0.000000e+000
      outer loop
         vertex 8.096252e+001 3.968750e+000 5.029142e-005
         vertex 7.858128e+001 3.968750e+000 1.263655e+001
         vertex 7.858128e+001 3.968750e+000 1.587505e+001
      endloop
   endfacet
   facet normal 1.000000e+000 0.000000e+000 0.000000e+000
      outer loop
         vertex 8.096252e+001 3.968750e+000 5.029142e-005
         vertex 8.096252e+001 3.968750e+000 2.857505e+001
         vertex 8.096252e+001 2.168404e-016 5.029142e-005
      endloop
   endfacet
   facet normal 1.000000e+000 0.000000e+000 0.000000e+000
      outer loop
         vertex 8.096252e+001 2.168404e-016 5.029142e-005
         vertex 8.096252e+001 3.968750e+000 2.857505e+001
         vertex 8.096252e+001 2.168404e-016 2.857505e+001
      endloop
   endfacet
   facet normal -1.285576e-016 0.000000e+000 -1.000000e+000
      outer loop
         vertex 2.235174e-005 2.168404e-016 5.029142e-005
         vertex 2.235174e-005 3.968750e+000 5.029142e-005
         vertex 8.096252e+001 2.168404e-016 5.029142e-005
      endloop
   endfacet
   facet normal -1.285576e-016 0.000000e+000 -1.000000e+000
      outer loop
         vertex 8.096252e+001 2.168404e-016 5.029142e-005
         vertex 2.235174e-005 3.968750e+000 5.029142e-005
         vertex 1.833570e+001 3.968750e+000 5.029142e-005
      endloop
   endfacet
   facet normal -1.285576e-016 0.000000e+000 -1.000000e+000
      outer loop
         vertex 8.096252e+001 3.968750e+000 5.029142e-005
         vertex 8.096252e+001 2.168404e-016 5.029142e-005
         vertex 6.270984e+001 3.968750e+000 5.029142e-005
      endloop
   endfacet
   facet normal -1.285576e-016 0.000000e+000 -1.000000e+000
      outer loop
         vertex 6.270984e+001 3.968750e+000 5.029142e-005
         vertex 8.096252e+001 2.168404e-016 5.029142e-005
         vertex 1.833570e+001 3.968750e+000 5.029142e-005
      endloop
   endfacet
   facet normal -1.285576e-016 0.000000e+000 -1.000000e+000
      outer loop
         vertex 6.270984e+001 3.968750e+000 5.029142e-005
         vertex 1.833570e+001 3.968750e+000 5.029142e-005
         vertex 6.270984e+001 1.587500e+001 5.029142e-005
      endloop
   endfacet
   facet normal -1.285576e-016 0.000000e+000 -1.000000e+000
      outer loop
         vertex 6.270984e+001 1.587500e+001 5.029142e-005
         vertex 1.833570e+001 3.968750e+000 5.029142e-005
         vertex 1.833570e+001 1.587500e+001 5.029142e-005
      endloop
   endfacet
   facet normal -1.000000e+000 0.000000e+000 0.000000e+000
      outer loop
         vertex 2.235174e-005 3.968750e+000 2.857505e+001
         vertex 2.235174e-005 3.968750e+000 5.029142e-005
         vertex 2.235174e-005 2.168404e-016 2.857505e+001
      endloop
   endfacet
   facet normal -1.000000e+000 0.000000e+000 0.000000e+000
      outer loop
         vertex 2.235174e-005 2.168404e-016 2.857505e+001
         vertex 2.235174e-005 3.968750e+000 5.029142e-005
         vertex 2.235174e-005 2.168404e-016 5.029142e-005
      endloop
   endfacet
   facet normal 1.224606e-016 0.000000e+000 1.000000e+000
      outer loop
         vertex 8.096252e+001 2.168404e-016 2.857505e+001
         vertex 8.096252e+001 3.968750e+000 2.857505e+001
         vertex 2.235174e-005 2.168404e-016 2.857505e+001
      endloop
   endfacet
   facet normal 1.224606e-016 0.000000e+000 1.000000e+000
      outer loop
         vertex 2.235174e-005 2.168404e-016 2.857505e+001
         vertex 8.096252e+001 3.968750e+000 2.857505e+001
         vertex 6.270984e+001 3.968750e+000 2.857505e+001
      endloop
   endfacet
   facet normal 1.224606e-016 0.000000e+000 1.000000e+000
      outer loop
         vertex 2.235174e-005 3.968750e+000 2.857505e+001
         vertex 2.235174e-005 2.168404e-016 2.857505e+001
         vertex 1.833570e+001 3.968750e+000 2.857505e+001
      endloop
   endfacet
   facet normal 1.224606e-016 0.000000e+000 1.000000e+000
      outer loop
         vertex 1.833570e+001 3.968750e+000 2.857505e+001
         vertex 2.235174e-005 2.168404e-016 2.857505e+001
         vertex 6.270984e+001 3.968750e+000 2.857505e+001
      endloop
   endfacet
   facet normal 1.224606e-016 0.000000e+000 1.000000e+000
      outer loop
         vertex 1.833570e+001 3.968750e+000 2.857505e+001
         vertex 6.270984e+001 3.968750e+000 2.857505e+001
         vertex 1.833570e+001 1.587500e+001 2.857505e+001
      endloop
   endfacet
   facet normal 1.224606e-016 0.000000e+000 1.000000e+000
      outer loop
         vertex 1.833570e+001 1.587500e+001 2.857505e+001
         vertex 6.270984e+001 3.968750e+000 2.857505e+001
         vertex 6.270984e+001 1.587500e+001 2.857505e+001
      endloop
   endfacet
   facet normal 0.000000e+000 1.000000e+000 0.000000e+000
      outer loop
         vertex 1.016002e+001 3.968750e+000 1.263655e+001
         vertex 1.833570e+001 3.968750e+000 5.029142e-005
         vertex 2.222523e+000 3.968750e+000 1.263655e+001
      endloop
   endfacet
   facet normal 0.000000e+000 1.000000e+000 0.000000e+000
      outer loop
         vertex 2.222523e+000 3.968750e+000 1.263655e+001
         vertex 1.833570e+001 3.968750e+000 5.029142e-005
         vertex 2.235174e-005 3.968750e+000 5.029142e-005
      endloop
   endfacet
   facet normal 0.000000e+000 1.000000e+000 0.000000e+000
      outer loop
         vertex 2.222523e+000 3.968750e+000 1.263655e+001
         vertex 2.235174e-005 3.968750e+000 5.029142e-005
         vertex 2.222523e+000 3.968750e+000 1.587505e+001
      endloop
   endfacet
   facet normal 0.000000e+000 1.000000e+000 0.000000e+000
      outer loop
         vertex 2.222523e+000 3.968750e+000 1.587505e+001
         vertex 2.235174e-005 3.968750e+000 5.029142e-005
         vertex 2.235174e-005 3.968750e+000 2.857505e+001
      endloop
   endfacet
   facet normal 0.000000e+000 1.000000e+000 0.000000e+000
      outer loop
         vertex 2.222523e+000 3.968750e+000 1.587505e+001
         vertex 2.235174e-005 3.968750e+000 2.857505e+001
         vertex 1.016002e+001 3.968750e+000 1.587505e+001
      endloop
   endfacet
   facet normal 0.000000e+000 1.000000e+000 0.000000e+000
      outer loop
         vertex 1.016002e+001 3.968750e+000 1.587505e+001
         vertex 2.235174e-005 3.968750e+000 2.857505e+001
         vertex 1.833570e+001 3.968750e+000 2.857505e+001
      endloop
   endfacet
   facet normal 0.000000e+000 1.000000e+000 0.000000e+000
      outer loop
         vertex 1.016002e+001 3.968750e+000 1.587505e+001
         vertex 1.833570e+001 3.968750e+000 2.857505e+001
         vertex 1.016002e+001 3.968750e+000 1.263655e+001
      endloop
   endfacet
   facet normal 0.000000e+000 1.000000e+000 0.000000e+000
      outer loop
         vertex 1.016002e+001 3.968750e+000 1.263655e+001
         vertex 1.833570e+001 3.968750e+000 2.857505e+001
         vertex 1.833570e+001 3.968750e+000 5.029142e-005
      endloop
   endfacet
   facet normal 0.000000e+000 -1.000000e+000 0.000000e+000
      outer loop
         vertex 8.096252e+001 2.168404e-016 5.029142e-005
         vertex 7.858128e+001 0.000000e+000 1.263655e+001
         vertex 7.064378e+001 2.168404e-016 1.263655e+001
      endloop
   endfacet
   facet normal 0.000000e+000 -1.000000e+000 0.000000e+000
      outer loop
         vertex 2.222523e+000 0.000000e+000 1.263655e+001
         vertex 2.222523e+000 0.000000e+000 1.587505e+001
         vertex 2.235174e-005 2.168404e-016 2.857505e+001
      endloop
   endfacet
   facet normal 0.000000e+000 -1.000000e+000 0.000000e+000
      outer loop
         vertex 2.235174e-005 2.168404e-016 2.857505e+001
         vertex 2.222523e+000 0.000000e+000 1.587505e+001
         vertex 1.016002e+001 2.168404e-016 1.587505e+001
      endloop
   endfacet
   facet normal 0.000000e+000 -1.000000e+000 0.000000e+000
      outer loop
         vertex 7.858128e+001 0.000000e+000 1.263655e+001
         vertex 8.096252e+001 2.168404e-016 5.029142e-005
         vertex 7.858128e+001 0.000000e+000 1.587505e+001
      endloop
   endfacet
   facet normal 0.000000e+000 -1.000000e+000 0.000000e+000
      outer loop
         vertex 7.858128e+001 0.000000e+000 1.587505e+001
         vertex 8.096252e+001 2.168404e-016 5.029142e-005
         vertex 8.096252e+001 2.168404e-016 2.857505e+001
      endloop
   endfacet
   facet normal 0.000000e+000 -1.000000e+000 0.000000e+000
      outer loop
         vertex 7.858128e+001 0.000000e+000 1.587505e+001
         vertex 8.096252e+001 2.168404e-016 2.857505e+001
         vertex 7.064378e+001 0.000000e+000 1.587505e+001
      endloop
   endfacet
   facet normal 0.000000e+000 -1.000000e+000 0.000000e+000
      outer loop
         vertex 8.096252e+001 2.168404e-016 2.857505e+001
         vertex 2.235174e-005 2.168404e-016 2.857505e+001
         vertex 7.064378e+001 0.000000e+000 1.587505e+001
      endloop
   endfacet
   facet normal 0.000000e+000 -1.000000e+000 0.000000e+000
      outer loop
         vertex 7.064378e+001 0.000000e+000 1.587505e+001
         vertex 2.235174e-005 2.168404e-016 2.857505e+001
         vertex 1.016002e+001 2.168404e-016 1.587505e+001
      endloop
   endfacet
   facet normal 0.000000e+000 -1.000000e+000 0.000000e+000
      outer loop
         vertex 7.064378e+001 0.000000e+000 1.587505e+001
         vertex 1.016002e+001 2.168404e-016 1.587505e+001
         vertex 7.064378e+001 2.168404e-016 1.263655e+001
      endloop
   endfacet
   facet normal 0.000000e+000 -1.000000e+000 0.000000e+000
      outer loop
         vertex 7.064378e+001 2.168404e-016 1.263655e+001
         vertex 1.016002e+001 2.168404e-016 1.587505e+001
         vertex 1.016002e+001 0.000000e+000 1.263655e+001
      endloop
   endfacet
   facet normal 0.000000e+000 -1.000000e+000 0.000000e+000
      outer loop
         vertex 7.064378e+001 2.168404e-016 1.263655e+001
         vertex 1.016002e+001 0.000000e+000 1.263655e+001
         vertex 8.096252e+001 2.168404e-016 5.029142e-005
      endloop
   endfacet
   facet normal 0.000000e+000 -1.000000e+000 0.000000e+000
      outer loop
         vertex 8.096252e+001 2.168404e-016 5.029142e-005
         vertex 1.016002e+001 0.000000e+000 1.263655e+001
         vertex 2.222523e+000 0.000000e+000 1.263655e+001
      endloop
   endfacet
   facet normal 0.000000e+000 -1.000000e+000 0.000000e+000
      outer loop
         vertex 8.096252e+001 2.168404e-016 5.029142e-005
         vertex 2.222523e+000 0.000000e+000 1.263655e+001
         vertex 2.235174e-005 2.168404e-016 5.029142e-005
      endloop
   endfacet
   facet normal 0.000000e+000 -1.000000e+000 0.000000e+000
      outer loop
         vertex 2.235174e-005 2.168404e-016 5.029142e-005
         vertex 2.222523e+000 0.000000e+000 1.263655e+001
         vertex 2.235174e-005 2.168404e-016 2.857505e+001
      endloop
   endfacet
   facet normal 1.000000e+000 0.000000e+000 0.000000e+000
      outer loop
         vertex 6.270984e+001 1.587500e+001 5.029142e-005
         vertex 6.270984e+001 1.587500e+001 2.857505e+001
         vertex 6.270984e+001 3.968750e+000 5.029142e-005
      endloop
   endfacet
   facet normal 1.000000e+000 0.000000e+000 0.000000e+000
      outer loop
         vertex 6.270984e+001 3.968750e+000 5.029142e-005
         vertex 6.270984e+001 1.587500e+001 2.857505e+001
         vertex 6.270984e+001 3.968750e+000 2.857505e+001
      endloop
   endfacet
   facet normal -1.000000e+000 0.000000e+000 0.000000e+000
      outer loop
         vertex 1.833570e+001 1.587500e+001 2.857505e+001
         vertex 1.833570e+001 1.587500e+001 5.029142e-005
         vertex 1.833570e+001 3.968750e+000 2.857505e+001
      endloop
   endfacet
   facet normal -1.000000e+000 0.000000e+000 0.000000e+000
      outer loop
         vertex 1.833570e+001 3.968750e+000 2.857505e+001
         vertex 1.833570e+001 1.587500e+001 5.029142e-005
         vertex 1.833570e+001 3.968750e+000 5.029142e-005
      endloop
   endfacet
   facet normal 0.000000e+000 1.000000e+000 0.000000e+000
      outer loop
         vertex 1.833570e+001 1.587500e+001 5.029142e-005
         vertex 1.833570e+001 1.587500e+001 2.857505e+001
         vertex 6.270984e+001 1.587500e+001 5.029142e-005
      endloop
   endfacet
   facet normal 0.000000e+000 1.000000e+000 0.000000e+000
      outer loop
         vertex 6.270984e+001 1.587500e+001 5.029142e-005
         vertex 1.833570e+001 1.587500e+001 2.857505e+001
         vertex 6.270984e+001 1.587500e+001 2.857505e+001
      endloop
   endfacet
   facet normal -1.000000e+000 0.000000e+000 1.339141e-016
      outer loop
         vertex 7.858128e+001 3.968750e+000 1.263655e+001
         vertex 7.858128e+001 0.000000e+000 1.263655e+001
         vertex 7.858128e+001 3.968750e+000 1.587505e+001
      endloop
   endfacet
   facet normal -1.000000e+000 0.000000e+000 1.339141e-016
      outer loop
         vertex 7.858128e+001 3.968750e+000 1.587505e+001
         vertex 7.858128e+001 0.000000e+000 1.263655e+001
         vertex 7.858128e+001 0.000000e+000 1.587505e+001
      endloop
   endfacet
   facet normal 0.000000e+000 0.000000e+000 -1.000000e+000
      outer loop
         vertex 7.858128e+001 3.968750e+000 1.587505e+001
         vertex 7.858128e+001 0.000000e+000 1.587505e+001
         vertex 7.064378e+001 3.968750e+000 1.587505e+001
      endloop
   endfacet
   facet normal 0.000000e+000 0.000000e+000 -1.000000e+000
      outer loop
         vertex 7.064378e+001 3.968750e+000 1.587505e+001
         vertex 7.858128e+001 0.000000e+000 1.587505e+001
         vertex 7.064378e+001 0.000000e+000 1.587505e+001
      endloop
   endfacet
   facet normal 1.000000e+000 0.000000e+000 0.000000e+000
      outer loop
         vertex 7.064378e+001 3.968750e+000 1.587505e+001
         vertex 7.064378e+001 0.000000e+000 1.587505e+001
         vertex 7.064378e+001 3.968750e+000 1.263655e+001
      endloop
   endfacet
   facet normal 1.000000e+000 0.000000e+000 0.000000e+000
      outer loop
         vertex 7.064378e+001 3.968750e+000 1.263655e+001
         vertex 7.064378e+001 0.000000e+000 1.587505e+001
         vertex 7.064378e+001 2.168404e-016 1.263655e+001
      endloop
   endfacet
   facet normal 0.000000e+000 0.000000e+000 1.000000e+000
      outer loop
         vertex 7.064378e+001 3.968750e+000 1.263655e+001
         vertex 7.064378e+001 2.168404e-016 1.263655e+001
         vertex 7.858128e+001 3.968750e+000 1.263655e+001
      endloop
   endfacet
   facet normal 0.000000e+000 0.000000e+000 1.000000e+000
      outer loop
         vertex 7.858128e+001 3.968750e+000 1.263655e+001
         vertex 7.064378e+001 2.168404e-016 1.263655e+001
         vertex 7.858128e+001 0.000000e+000 1.263655e+001
      endloop
   endfacet
   facet normal 1.000000e+000 0.000000e+000 0.000000e+000
      outer loop
         vertex 2.222523e+000 3.968750e+000 1.587505e+001
         vertex 2.222523e+000 0.000000e+000 1.587505e+001
         vertex 2.222523e+000 3.968750e+000 1.263655e+001
      endloop
   endfacet
   facet normal 1.000000e+000 0.000000e+000 0.000000e+000
      outer loop
         vertex 2.222523e+000 3.968750e+000 1.263655e+001
         vertex 2.222523e+000 0.000000e+000 1.587505e+001
         vertex 2.222523e+000 0.000000e+000 1.263655e+001
      endloop
   endfacet
   facet normal 0.000000e+000 0.000000e+000 1.000000e+000
      outer loop
         vertex 2.222523e+000 3.968750e+000 1.263655e+001
         vertex 2.222523e+000 0.000000e+000 1.263655e+001
         vertex 1.016002e+001 3.968750e+000 1.263655e+001
      endloop
   endfacet
   facet normal 0.000000e+000 0.000000e+000 1.000000e+000
      outer loop
         vertex 1.016002e+001 3.968750e+000 1.263655e+001
         vertex 2.222523e+000 0.000000e+000 1.263655e+001
         vertex 1.016002e+001 0.000000e+000 1.263655e+001
      endloop
   endfacet
   facet normal -1.000000e+000 0.000000e+000 0.000000e+000
      outer loop
         vertex 1.016002e+001 3.968750e+000 1.263655e+001
         vertex 1.016002e+001 0.000000e+000 1.263655e+001
         vertex 1.016002e+001 3.968750e+000 1.587505e+001
      endloop
   endfacet
   facet normal -1.000000e+000 0.000000e+000 0.000000e+000
      outer loop
         vertex 1.016002e+001 3.968750e+000 1.587505e+001
         vertex 1.016002e+001 0.000000e+000 1.263655e+001
         vertex 1.016002e+001 2.168404e-016 1.587505e+001
      endloop
   endfacet
   facet normal 0.000000e+000 0.000000e+000 -1.000000e+000
      outer loop
         vertex 1.016002e+001 3.968750e+000 1.587505e+001
         vertex 1.016002e+001 2.168404e-016 1.587505e+001
         vertex 2.222523e+000 3.968750e+000 1.587505e+001
      endloop
   endfacet
   facet normal 0.000000e+000 0.000000e+000 -1.000000e+000
      outer loop
         vertex 2.222523e+000 3.968750e+000 1.587505e+001
         vertex 1.016002e+001 2.168404e-016 1.587505e+001
         vertex 2.222523e+000 0.000000e+000 1.587505e+001
      endloop
   endfacet
endsolid