solid VexF_Bearing_Block2
   facet normal 0.000000e+000 -1.000000e+000 -3.491483e-015
      outer loop
         vertex 2.510819e+001 9.847746e+000 8.783440e+000
         vertex 2.510819e+001 9.847746e+000 2.687440e+000
         vertex 2.608341e+001 9.847746e+000 8.783440e+000
      endloop
   endfacet
   facet normal 0.000000e+000 -1.000000e+000 -3.491483e-015
      outer loop
         vertex 2.608341e+001 9.847746e+000 8.783440e+000
         vertex 2.510819e+001 9.847746e+000 2.687440e+000
         vertex 2.611809e+001 9.847746e+000 2.687440e+000
      endloop
   endfacet
   facet normal 0.000000e+000 -1.000000e+000 -3.491483e-015
      outer loop
         vertex 2.608341e+001 9.847746e+000 8.783440e+000
         vertex 2.611809e+001 9.847746e+000 2.687440e+000
         vertex 2.881817e+001 9.847746e+000 1.147088e+001
      endloop
   endfacet
   facet normal 0.000000e+000 -1.000000e+000 -3.491483e-015
      outer loop
         vertex 3.345271e+001 9.847746e+000 0.000000e+000
         vertex 3.682956e+001 9.847746e+000 3.318428e+000
         vertex 3.285223e+001 9.847746e+000 4.018655e+000
      endloop
   endfacet
   facet normal 0.000000e+000 -1.000000e+000 -3.491483e-015
      outer loop
         vertex 3.687088e+001 9.847746e+000 8.052709e+000
         vertex 3.355245e+001 9.847746e+000 1.142957e+001
         vertex 3.285223e+001 9.847746e+000 7.452226e+000
      endloop
   endfacet
   facet normal 0.000000e+000 -1.000000e+000 -3.491483e-015
      outer loop
         vertex 3.285223e+001 9.847746e+000 4.018654e+000
         vertex 3.206456e+001 9.847746e+000 3.492352e+000
         vertex 3.345271e+001 9.847746e+000 0.000000e+000
      endloop
   endfacet
   facet normal 0.000000e+000 -1.000000e+000 -3.491483e-015
      outer loop
         vertex 3.345271e+001 9.847746e+000 0.000000e+000
         vertex 3.206456e+001 9.847746e+000 3.492352e+000
         vertex 3.113544e+001 9.847746e+000 3.307539e+000
      endloop
   endfacet
   facet normal 0.000000e+000 -1.000000e+000 -3.491483e-015
      outer loop
         vertex 3.345271e+001 9.847746e+000 0.000000e+000
         vertex 3.113544e+001 9.847746e+000 3.307539e+000
         vertex 2.871843e+001 9.847746e+000 4.131533e-002
      endloop
   endfacet
   facet normal 0.000000e+000 -1.000000e+000 -3.491483e-015
      outer loop
         vertex 2.871843e+001 9.847746e+000 4.131533e-002
         vertex 3.113544e+001 9.847746e+000 3.307539e+000
         vertex 3.020632e+001 9.847746e+000 3.492352e+000
      endloop
   endfacet
   facet normal 0.000000e+000 -1.000000e+000 -3.491483e-015
      outer loop
         vertex 2.871843e+001 9.847746e+000 4.131533e-002
         vertex 3.020632e+001 9.847746e+000 3.492352e+000
         vertex 2.611809e+001 9.847746e+000 2.687440e+000
      endloop
   endfacet
   facet normal 0.000000e+000 -1.000000e+000 -3.491483e-015
      outer loop
         vertex 2.611809e+001 9.847746e+000 2.687440e+000
         vertex 3.020632e+001 9.847746e+000 3.492352e+000
         vertex 2.941866e+001 9.847746e+000 4.018655e+000
      endloop
   endfacet
   facet normal 0.000000e+000 -1.000000e+000 -3.491483e-015
      outer loop
         vertex 2.941866e+001 9.847746e+000 4.018654e+000
         vertex 2.889235e+001 9.847746e+000 4.806323e+000
         vertex 2.611809e+001 9.847746e+000 2.687440e+000
      endloop
   endfacet
   facet normal 0.000000e+000 -1.000000e+000 -3.491483e-015
      outer loop
         vertex 2.611809e+001 9.847746e+000 2.687440e+000
         vertex 2.889235e+001 9.847746e+000 4.806323e+000
         vertex 2.870754e+001 9.847746e+000 5.735440e+000
      endloop
   endfacet
   facet normal 0.000000e+000 -1.000000e+000 -3.491483e-015
      outer loop
         vertex 2.611809e+001 9.847746e+000 2.687440e+000
         vertex 2.870754e+001 9.847746e+000 5.735440e+000
         vertex 2.881817e+001 9.847746e+000 1.147088e+001
      endloop
   endfacet
   facet normal 0.000000e+000 -1.000000e+000 -3.491483e-015
      outer loop
         vertex 2.881817e+001 9.847746e+000 1.147088e+001
         vertex 2.870754e+001 9.847746e+000 5.735440e+000
         vertex 2.889235e+001 9.847746e+000 6.664558e+000
      endloop
   endfacet
   facet normal 0.000000e+000 -1.000000e+000 -3.491483e-015
      outer loop
         vertex 2.881817e+001 9.847746e+000 1.147088e+001
         vertex 2.889235e+001 9.847746e+000 6.664558e+000
         vertex 2.941866e+001 9.847746e+000 7.452226e+000
      endloop
   endfacet
   facet normal 0.000000e+000 -1.000000e+000 -3.491483e-015
      outer loop
         vertex 3.285223e+001 9.847746e+000 7.452226e+000
         vertex 3.337853e+001 9.847746e+000 6.664558e+000
         vertex 3.687088e+001 9.847746e+000 8.052709e+000
      endloop
   endfacet
   facet normal 0.000000e+000 -1.000000e+000 -3.491483e-015
      outer loop
         vertex 3.687088e+001 9.847746e+000 8.052709e+000
         vertex 3.337853e+001 9.847746e+000 6.664558e+000
         vertex 3.356334e+001 9.847746e+000 5.735440e+000
      endloop
   endfacet
   facet normal 0.000000e+000 -1.000000e+000 -3.491483e-015
      outer loop
         vertex 3.687088e+001 9.847746e+000 8.052709e+000
         vertex 3.356334e+001 9.847746e+000 5.735440e+000
         vertex 3.682956e+001 9.847746e+000 3.318428e+000
      endloop
   endfacet
   facet normal 0.000000e+000 -1.000000e+000 -3.491483e-015
      outer loop
         vertex 3.682956e+001 9.847746e+000 3.318428e+000
         vertex 3.356334e+001 9.847746e+000 5.735440e+000
         vertex 3.337853e+001 9.847746e+000 4.806323e+000
      endloop
   endfacet
   facet normal 0.000000e+000 -1.000000e+000 -3.491483e-015
      outer loop
         vertex 3.682956e+001 9.847746e+000 3.318428e+000
         vertex 3.337853e+001 9.847746e+000 4.806323e+000
         vertex 3.285223e+001 9.847746e+000 4.018655e+000
      endloop
   endfacet
   facet normal 0.000000e+000 -1.000000e+000 -3.491483e-015
      outer loop
         vertex 2.941866e+001 9.847746e+000 7.452226e+000
         vertex 3.020632e+001 9.847746e+000 7.978529e+000
         vertex 2.881817e+001 9.847746e+000 1.147088e+001
      endloop
   endfacet
   facet normal 0.000000e+000 -1.000000e+000 -3.491483e-015
      outer loop
         vertex 2.881817e+001 9.847746e+000 1.147088e+001
         vertex 3.020632e+001 9.847746e+000 7.978529e+000
         vertex 3.113544e+001 9.847746e+000 8.163341e+000
      endloop
   endfacet
   facet normal 0.000000e+000 -1.000000e+000 -3.491483e-015
      outer loop
         vertex 2.881817e+001 9.847746e+000 1.147088e+001
         vertex 3.113544e+001 9.847746e+000 8.163342e+000
         vertex 3.355245e+001 9.847746e+000 1.142957e+001
      endloop
   endfacet
   facet normal 0.000000e+000 -1.000000e+000 -3.491483e-015
      outer loop
         vertex 3.355245e+001 9.847746e+000 1.142957e+001
         vertex 3.113544e+001 9.847746e+000 8.163342e+000
         vertex 3.206456e+001 9.847746e+000 7.978529e+000
      endloop
   endfacet
   facet normal 0.000000e+000 -1.000000e+000 -3.491483e-015
      outer loop
         vertex 3.355245e+001 9.847746e+000 1.142957e+001
         vertex 3.206456e+001 9.847746e+000 7.978529e+000
         vertex 3.285223e+001 9.847746e+000 7.452226e+000
      endloop
   endfacet
   facet normal 0.000000e+000 -1.000000e+000 -3.491483e-015
      outer loop
         vertex 3.318428e+000 9.847746e+000 4.131533e-002
         vertex 8.052710e+000 9.847746e+000 0.000000e+000
         vertex 5.735441e+000 9.847746e+000 3.307539e+000
      endloop
   endfacet
   facet normal 0.000000e+000 -1.000000e+000 -3.491483e-015
      outer loop
         vertex 5.735441e+000 9.847746e+000 8.163342e+000
         vertex 6.664558e+000 9.847746e+000 7.978529e+000
         vertex 1.075279e+001 9.847746e+000 8.783440e+000
      endloop
   endfacet
   facet normal 0.000000e+000 -1.000000e+000 -3.491483e-015
      outer loop
         vertex 1.075279e+001 9.847746e+000 8.783440e+000
         vertex 6.664558e+000 9.847746e+000 7.978529e+000
         vertex 7.452226e+000 9.847746e+000 7.452226e+000
      endloop
   endfacet
   facet normal 0.000000e+000 -1.000000e+000 -3.491483e-015
      outer loop
         vertex 8.163342e+000 9.847746e+000 5.735440e+000
         vertex 1.078747e+001 9.847746e+000 2.687440e+000
         vertex 7.978529e+000 9.847746e+000 6.664558e+000
      endloop
   endfacet
   facet normal 0.000000e+000 -1.000000e+000 -3.491483e-015
      outer loop
         vertex 7.978529e+000 9.847746e+000 6.664558e+000
         vertex 1.078747e+001 9.847746e+000 2.687440e+000
         vertex 7.452226e+000 9.847746e+000 7.452226e+000
      endloop
   endfacet
   facet normal 0.000000e+000 -1.000000e+000 -3.491483e-015
      outer loop
         vertex 8.163342e+000 9.847746e+000 5.735440e+000
         vertex 7.978529e+000 9.847746e+000 4.806323e+000
         vertex 1.078747e+001 9.847746e+000 2.687440e+000
      endloop
   endfacet
   facet normal 0.000000e+000 -1.000000e+000 -3.491483e-015
      outer loop
         vertex 1.078747e+001 9.847746e+000 2.687440e+000
         vertex 7.978529e+000 9.847746e+000 4.806323e+000
         vertex 7.452226e+000 9.847746e+000 4.018655e+000
      endloop
   endfacet
   facet normal 0.000000e+000 -1.000000e+000 -3.491483e-015
      outer loop
         vertex 1.078747e+001 9.847746e+000 2.687440e+000
         vertex 7.452226e+000 9.847746e+000 4.018654e+000
         vertex 8.052710e+000 9.847746e+000 0.000000e+000
      endloop
   endfacet
   facet normal 0.000000e+000 -1.000000e+000 -3.491483e-015
      outer loop
         vertex 8.052710e+000 9.847746e+000 0.000000e+000
         vertex 7.452226e+000 9.847746e+000 4.018654e+000
         vertex 6.664558e+000 9.847746e+000 3.492352e+000
      endloop
   endfacet
   facet normal 0.000000e+000 -1.000000e+000 -3.491483e-015
      outer loop
         vertex 8.052710e+000 9.847746e+000 0.000000e+000
         vertex 6.664558e+000 9.847746e+000 3.492352e+000
         vertex 5.735441e+000 9.847746e+000 3.307539e+000
      endloop
   endfacet
   facet normal 0.000000e+000 -1.000000e+000 -3.491483e-015
      outer loop
         vertex 3.418173e+000 9.847746e+000 1.147088e+001
         vertex 4.131719e-002 9.847746e+000 8.152453e+000
         vertex 4.018655e+000 9.847746e+000 7.452226e+000
      endloop
   endfacet
   facet normal 0.000000e+000 -1.000000e+000 -3.491483e-015
      outer loop
         vertex 1.075279e+001 9.847746e+000 8.783440e+000
         vertex 8.152453e+000 9.847746e+000 1.142957e+001
         vertex 5.735441e+000 9.847746e+000 8.163341e+000
      endloop
   endfacet
   facet normal 0.000000e+000 -1.000000e+000 -3.491483e-015
      outer loop
         vertex 5.735441e+000 9.847746e+000 8.163342e+000
         vertex 8.152453e+000 9.847746e+000 1.142957e+001
         vertex 3.418173e+000 9.847746e+000 1.147088e+001
      endloop
   endfacet
   facet normal 0.000000e+000 -1.000000e+000 -3.491483e-015
      outer loop
         vertex 5.735441e+000 9.847746e+000 8.163342e+000
         vertex 3.418173e+000 9.847746e+000 1.147088e+001
         vertex 4.806323e+000 9.847746e+000 7.978529e+000
      endloop
   endfacet
   facet normal 0.000000e+000 -1.000000e+000 -3.491483e-015
      outer loop
         vertex 4.806323e+000 9.847746e+000 7.978529e+000
         vertex 3.418173e+000 9.847746e+000 1.147088e+001
         vertex 4.018655e+000 9.847746e+000 7.452226e+000
      endloop
   endfacet
   facet normal 0.000000e+000 -1.000000e+000 -3.491483e-015
      outer loop
         vertex 7.452226e+000 9.847746e+000 7.452226e+000
         vertex 1.078747e+001 9.847746e+000 2.687440e+000
         vertex 1.075279e+001 9.847746e+000 8.783440e+000
      endloop
   endfacet
   facet normal 0.000000e+000 -1.000000e+000 -3.491483e-015
      outer loop
         vertex 1.075279e+001 9.847746e+000 8.783440e+000
         vertex 1.078747e+001 9.847746e+000 2.687440e+000
         vertex 1.183637e+001 9.847746e+000 2.687440e+000
      endloop
   endfacet
   facet normal 0.000000e+000 -1.000000e+000 -3.491483e-015
      outer loop
         vertex 1.075279e+001 9.847746e+000 8.783440e+000
         vertex 1.183637e+001 9.847746e+000 2.687440e+000
         vertex 1.183637e+001 9.847746e+000 8.783440e+000
      endloop
   endfacet
   facet normal 0.000000e+000 -1.000000e+000 -3.491483e-015
      outer loop
         vertex 5.735441e+000 9.847746e+000 3.307539e+000
         vertex 4.806323e+000 9.847746e+000 3.492352e+000
         vertex 3.318428e+000 9.847746e+000 4.131533e-002
      endloop
   endfacet
   facet normal 0.000000e+000 -1.000000e+000 -3.491483e-015
      outer loop
         vertex 3.318428e+000 9.847746e+000 4.131533e-002
         vertex 4.806323e+000 9.847746e+000 3.492352e+000
         vertex 4.018655e+000 9.847746e+000 4.018655e+000
      endloop
   endfacet
   facet normal 0.000000e+000 -1.000000e+000 -3.491483e-015
      outer loop
         vertex 3.318428e+000 9.847746e+000 4.131533e-002
         vertex 4.018655e+000 9.847746e+000 4.018654e+000
         vertex 0.000000e+000 9.847746e+000 3.418172e+000
      endloop
   endfacet
   facet normal 0.000000e+000 -1.000000e+000 -3.491483e-015
      outer loop
         vertex 4.018655e+000 9.847746e+000 4.018654e+000
         vertex 3.492352e+000 9.847746e+000 4.806323e+000
         vertex 0.000000e+000 9.847746e+000 3.418172e+000
      endloop
   endfacet
   facet normal 0.000000e+000 -1.000000e+000 -3.491483e-015
      outer loop
         vertex 0.000000e+000 9.847746e+000 3.418172e+000
         vertex 3.492352e+000 9.847746e+000 4.806323e+000
         vertex 3.307540e+000 9.847746e+000 5.735440e+000
      endloop
   endfacet
   facet normal 0.000000e+000 -1.000000e+000 -3.491483e-015
      outer loop
         vertex 0.000000e+000 9.847746e+000 3.418172e+000
         vertex 3.307540e+000 9.847746e+000 5.735440e+000
         vertex 4.131719e-002 9.847746e+000 8.152453e+000
      endloop
   endfacet
   facet normal 0.000000e+000 -1.000000e+000 -3.491483e-015
      outer loop
         vertex 4.131719e-002 9.847746e+000 8.152453e+000
         vertex 3.307540e+000 9.847746e+000 5.735440e+000
         vertex 3.492352e+000 9.847746e+000 6.664558e+000
      endloop
   endfacet
   facet normal 0.000000e+000 -1.000000e+000 -3.491483e-015
      outer loop
         vertex 4.131719e-002 9.847746e+000 8.152453e+000
         vertex 3.492352e+000 9.847746e+000 6.664558e+000
         vertex 4.018655e+000 9.847746e+000 7.452226e+000
      endloop
   endfacet
   facet normal 0.000000e+000 1.000000e+000 3.491483e-015
      outer loop
         vertex 2.608341e+001 1.302275e+001 8.783440e+000
         vertex 2.881817e+001 1.302275e+001 1.147088e+001
         vertex 2.611809e+001 1.302275e+001 2.687440e+000
      endloop
   endfacet
   facet normal 0.000000e+000 1.000000e+000 3.491483e-015
      outer loop
         vertex 3.418173e+000 1.302275e+001 1.147088e+001
         vertex 8.152453e+000 1.302275e+001 1.142957e+001
         vertex 6.664558e+000 1.302275e+001 7.978529e+000
      endloop
   endfacet
   facet normal 0.000000e+000 1.000000e+000 3.491483e-015
      outer loop
         vertex 2.608341e+001 1.302275e+001 8.783440e+000
         vertex 2.611809e+001 1.302275e+001 2.687440e+000
         vertex 1.075279e+001 1.302275e+001 8.783440e+000
      endloop
   endfacet
   facet normal 0.000000e+000 1.000000e+000 3.491483e-015
      outer loop
         vertex 1.075279e+001 1.302275e+001 8.783440e+000
         vertex 2.611809e+001 1.302275e+001 2.687440e+000
         vertex 1.078747e+001 1.302275e+001 2.687440e+000
      endloop
   endfacet
   facet normal 0.000000e+000 1.000000e+000 3.491483e-015
      outer loop
         vertex 1.075279e+001 1.302275e+001 8.783440e+000
         vertex 1.078747e+001 1.302275e+001 2.687440e+000
         vertex 8.052710e+000 1.302275e+001 0.000000e+000
      endloop
   endfacet
   facet normal 0.000000e+000 1.000000e+000 3.491483e-015
      outer loop
         vertex 2.870754e+001 1.302275e+001 5.735440e+000
         vertex 2.611809e+001 1.302275e+001 2.687440e+000
         vertex 2.889235e+001 1.302275e+001 6.664558e+000
      endloop
   endfacet
   facet normal 0.000000e+000 1.000000e+000 3.491483e-015
      outer loop
         vertex 2.889235e+001 1.302275e+001 6.664558e+000
         vertex 2.611809e+001 1.302275e+001 2.687440e+000
         vertex 2.881817e+001 1.302275e+001 1.147088e+001
      endloop
   endfacet
   facet normal 0.000000e+000 1.000000e+000 3.491483e-015
      outer loop
         vertex 2.889235e+001 1.302275e+001 6.664558e+000
         vertex 2.881817e+001 1.302275e+001 1.147088e+001
         vertex 2.941866e+001 1.302275e+001 7.452226e+000
      endloop
   endfacet
   facet normal 0.000000e+000 1.000000e+000 3.491483e-015
      outer loop
         vertex 2.941866e+001 1.302275e+001 7.452226e+000
         vertex 2.881817e+001 1.302275e+001 1.147088e+001
         vertex 3.020632e+001 1.302275e+001 7.978529e+000
      endloop
   endfacet
   facet normal 0.000000e+000 1.000000e+000 3.491483e-015
      outer loop
         vertex 3.355245e+001 1.302275e+001 1.142957e+001
         vertex 3.687088e+001 1.302275e+001 8.052709e+000
         vertex 3.337853e+001 1.302275e+001 6.664558e+000
      endloop
   endfacet
   facet normal 0.000000e+000 1.000000e+000 3.491483e-015
      outer loop
         vertex 3.337853e+001 1.302275e+001 6.664558e+000
         vertex 3.285223e+001 1.302275e+001 7.452226e+000
         vertex 3.355245e+001 1.302275e+001 1.142957e+001
      endloop
   endfacet
   facet normal 0.000000e+000 1.000000e+000 3.491483e-015
      outer loop
         vertex 3.355245e+001 1.302275e+001 1.142957e+001
         vertex 3.285223e+001 1.302275e+001 7.452226e+000
         vertex 3.206456e+001 1.302275e+001 7.978529e+000
      endloop
   endfacet
   facet normal 0.000000e+000 1.000000e+000 3.491483e-015
      outer loop
         vertex 3.355245e+001 1.302275e+001 1.142957e+001
         vertex 3.206456e+001 1.302275e+001 7.978529e+000
         vertex 2.881817e+001 1.302275e+001 1.147088e+001
      endloop
   endfacet
   facet normal 0.000000e+000 1.000000e+000 3.491483e-015
      outer loop
         vertex 2.881817e+001 1.302275e+001 1.147088e+001
         vertex 3.206456e+001 1.302275e+001 7.978529e+000
         vertex 3.113544e+001 1.302275e+001 8.163341e+000
      endloop
   endfacet
   facet normal 0.000000e+000 1.000000e+000 3.491483e-015
      outer loop
         vertex 2.881817e+001 1.302275e+001 1.147088e+001
         vertex 3.113544e+001 1.302275e+001 8.163342e+000
         vertex 3.020632e+001 1.302275e+001 7.978529e+000
      endloop
   endfacet
   facet normal 0.000000e+000 1.000000e+000 3.491483e-015
      outer loop
         vertex 0.000000e+000 1.302275e+001 3.418172e+000
         vertex 4.131719e-002 1.302275e+001 8.152453e+000
         vertex 3.492352e+000 1.302275e+001 6.664558e+000
      endloop
   endfacet
   facet normal 0.000000e+000 1.000000e+000 3.491483e-015
      outer loop
         vertex 6.664558e+000 1.302275e+001 7.978529e+000
         vertex 8.152453e+000 1.302275e+001 1.142957e+001
         vertex 7.452226e+000 1.302275e+001 7.452226e+000
      endloop
   endfacet
   facet normal 0.000000e+000 1.000000e+000 3.491483e-015
      outer loop
         vertex 7.452226e+000 1.302275e+001 7.452226e+000
         vertex 8.152453e+000 1.302275e+001 1.142957e+001
         vertex 1.075279e+001 1.302275e+001 8.783440e+000
      endloop
   endfacet
   facet normal 0.000000e+000 1.000000e+000 3.491483e-015
      outer loop
         vertex 7.452226e+000 1.302275e+001 7.452226e+000
         vertex 1.075279e+001 1.302275e+001 8.783440e+000
         vertex 7.978529e+000 1.302275e+001 6.664558e+000
      endloop
   endfacet
   facet normal 0.000000e+000 1.000000e+000 3.491483e-015
      outer loop
         vertex 3.682956e+001 1.302275e+001 3.318428e+000
         vertex 3.337853e+001 1.302275e+001 4.806323e+000
         vertex 3.687088e+001 1.302275e+001 8.052709e+000
      endloop
   endfacet
   facet normal 0.000000e+000 1.000000e+000 3.491483e-015
      outer loop
         vertex 3.687088e+001 1.302275e+001 8.052709e+000
         vertex 3.337853e+001 1.302275e+001 4.806323e+000
         vertex 3.356334e+001 1.302275e+001 5.735440e+000
      endloop
   endfacet
   facet normal 0.000000e+000 1.000000e+000 3.491483e-015
      outer loop
         vertex 3.687088e+001 1.302275e+001 8.052709e+000
         vertex 3.356334e+001 1.302275e+001 5.735440e+000
         vertex 3.337853e+001 1.302275e+001 6.664558e+000
      endloop
   endfacet
   facet normal 0.000000e+000 1.000000e+000 3.491483e-015
      outer loop
         vertex 6.664558e+000 1.302275e+001 7.978529e+000
         vertex 5.735441e+000 1.302275e+001 8.163342e+000
         vertex 3.418173e+000 1.302275e+001 1.147088e+001
      endloop
   endfacet
   facet normal 0.000000e+000 1.000000e+000 3.491483e-015
      outer loop
         vertex 3.418173e+000 1.302275e+001 1.147088e+001
         vertex 5.735441e+000 1.302275e+001 8.163342e+000
         vertex 4.806323e+000 1.302275e+001 7.978529e+000
      endloop
   endfacet
   facet normal 0.000000e+000 1.000000e+000 3.491483e-015
      outer loop
         vertex 3.418173e+000 1.302275e+001 1.147088e+001
         vertex 4.806323e+000 1.302275e+001 7.978529e+000
         vertex 4.131719e-002 1.302275e+001 8.152453e+000
      endloop
   endfacet
   facet normal 0.000000e+000 1.000000e+000 3.491483e-015
      outer loop
         vertex 4.131719e-002 1.302275e+001 8.152453e+000
         vertex 4.806323e+000 1.302275e+001 7.978529e+000
         vertex 4.018655e+000 1.302275e+001 7.452226e+000
      endloop
   endfacet
   facet normal 0.000000e+000 1.000000e+000 3.491483e-015
      outer loop
         vertex 4.131719e-002 1.302275e+001 8.152453e+000
         vertex 4.018655e+000 1.302275e+001 7.452226e+000
         vertex 3.492352e+000 1.302275e+001 6.664558e+000
      endloop
   endfacet
   facet normal 0.000000e+000 1.000000e+000 3.491483e-015
      outer loop
         vertex 3.492352e+000 1.302275e+001 6.664558e+000
         vertex 3.307540e+000 1.302275e+001 5.735440e+000
         vertex 0.000000e+000 1.302275e+001 3.418172e+000
      endloop
   endfacet
   facet normal 0.000000e+000 1.000000e+000 3.491483e-015
      outer loop
         vertex 0.000000e+000 1.302275e+001 3.418172e+000
         vertex 3.307540e+000 1.302275e+001 5.735440e+000
         vertex 3.492352e+000 1.302275e+001 4.806323e+000
      endloop
   endfacet
   facet normal 0.000000e+000 1.000000e+000 3.491483e-015
      outer loop
         vertex 0.000000e+000 1.302275e+001 3.418172e+000
         vertex 3.492352e+000 1.302275e+001 4.806323e+000
         vertex 3.318428e+000 1.302275e+001 4.131533e-002
      endloop
   endfacet
   facet normal 0.000000e+000 1.000000e+000 3.491483e-015
      outer loop
         vertex 3.345271e+001 1.302275e+001 0.000000e+000
         vertex 3.206456e+001 1.302275e+001 3.492352e+000
         vertex 3.682956e+001 1.302275e+001 3.318428e+000
      endloop
   endfacet
   facet normal 0.000000e+000 1.000000e+000 3.491483e-015
      outer loop
         vertex 3.682956e+001 1.302275e+001 3.318428e+000
         vertex 3.206456e+001 1.302275e+001 3.492352e+000
         vertex 3.285223e+001 1.302275e+001 4.018655e+000
      endloop
   endfacet
   facet normal 0.000000e+000 1.000000e+000 3.491483e-015
      outer loop
         vertex 3.682956e+001 1.302275e+001 3.318428e+000
         vertex 3.285223e+001 1.302275e+001 4.018654e+000
         vertex 3.337853e+001 1.302275e+001 4.806323e+000
      endloop
   endfacet
   facet normal 0.000000e+000 1.000000e+000 3.491483e-015
      outer loop
         vertex 6.664558e+000 1.302275e+001 3.492352e+000
         vertex 7.452226e+000 1.302275e+001 4.018654e+000
         vertex 8.052710e+000 1.302275e+001 0.000000e+000
      endloop
   endfacet
   facet normal 0.000000e+000 1.000000e+000 3.491483e-015
      outer loop
         vertex 8.052710e+000 1.302275e+001 0.000000e+000
         vertex 7.452226e+000 1.302275e+001 4.018654e+000
         vertex 7.978529e+000 1.302275e+001 4.806323e+000
      endloop
   endfacet
   facet normal 0.000000e+000 1.000000e+000 3.491483e-015
      outer loop
         vertex 8.052710e+000 1.302275e+001 0.000000e+000
         vertex 7.978529e+000 1.302275e+001 4.806323e+000
         vertex 1.075279e+001 1.302275e+001 8.783440e+000
      endloop
   endfacet
   facet normal 0.000000e+000 1.000000e+000 3.491483e-015
      outer loop
         vertex 1.075279e+001 1.302275e+001 8.783440e+000
         vertex 7.978529e+000 1.302275e+001 4.806323e+000
         vertex 8.163342e+000 1.302275e+001 5.735440e+000
      endloop
   endfacet
   facet normal 0.000000e+000 1.000000e+000 3.491483e-015
      outer loop
         vertex 1.075279e+001 1.302275e+001 8.783440e+000
         vertex 8.163342e+000 1.302275e+001 5.735440e+000
         vertex 7.978529e+000 1.302275e+001 6.664558e+000
      endloop
   endfacet
   facet normal 0.000000e+000 1.000000e+000 3.491483e-015
      outer loop
         vertex 2.870754e+001 1.302275e+001 5.735440e+000
         vertex 2.889235e+001 1.302275e+001 4.806323e+000
         vertex 2.611809e+001 1.302275e+001 2.687440e+000
      endloop
   endfacet
   facet normal 0.000000e+000 1.000000e+000 3.491483e-015
      outer loop
         vertex 2.611809e+001 1.302275e+001 2.687440e+000
         vertex 2.889235e+001 1.302275e+001 4.806323e+000
         vertex 2.941866e+001 1.302275e+001 4.018655e+000
      endloop
   endfacet
   facet normal 0.000000e+000 1.000000e+000 3.491483e-015
      outer loop
         vertex 2.611809e+001 1.302275e+001 2.687440e+000
         vertex 2.941866e+001 1.302275e+001 4.018654e+000
         vertex 2.871843e+001 1.302275e+001 4.131533e-002
      endloop
   endfacet
   facet normal 0.000000e+000 1.000000e+000 3.491483e-015
      outer loop
         vertex 2.871843e+001 1.302275e+001 4.131533e-002
         vertex 2.941866e+001 1.302275e+001 4.018654e+000
         vertex 3.020632e+001 1.302275e+001 3.492352e+000
      endloop
   endfacet
   facet normal 0.000000e+000 1.000000e+000 3.491483e-015
      outer loop
         vertex 2.871843e+001 1.302275e+001 4.131533e-002
         vertex 3.020632e+001 1.302275e+001 3.492352e+000
         vertex 3.345271e+001 1.302275e+001 0.000000e+000
      endloop
   endfacet
   facet normal 0.000000e+000 1.000000e+000 3.491483e-015
      outer loop
         vertex 3.345271e+001 1.302275e+001 0.000000e+000
         vertex 3.020632e+001 1.302275e+001 3.492352e+000
         vertex 3.113544e+001 1.302275e+001 3.307539e+000
      endloop
   endfacet
   facet normal 0.000000e+000 1.000000e+000 3.491483e-015
      outer loop
         vertex 3.345271e+001 1.302275e+001 0.000000e+000
         vertex 3.113544e+001 1.302275e+001 3.307539e+000
         vertex 3.206456e+001 1.302275e+001 3.492352e+000
      endloop
   endfacet
   facet normal 0.000000e+000 1.000000e+000 3.491483e-015
      outer loop
         vertex 3.492352e+000 1.302275e+001 4.806323e+000
         vertex 4.018655e+000 1.302275e+001 4.018654e+000
         vertex 3.318428e+000 1.302275e+001 4.131533e-002
      endloop
   endfacet
   facet normal 0.000000e+000 1.000000e+000 3.491483e-015
      outer loop
         vertex 3.318428e+000 1.302275e+001 4.131533e-002
         vertex 4.018655e+000 1.302275e+001 4.018654e+000
         vertex 4.806323e+000 1.302275e+001 3.492352e+000
      endloop
   endfacet
   facet normal 0.000000e+000 1.000000e+000 3.491483e-015
      outer loop
         vertex 3.318428e+000 1.302275e+001 4.131533e-002
         vertex 4.806323e+000 1.302275e+001 3.492352e+000
         vertex 8.052710e+000 1.302275e+001 0.000000e+000
      endloop
   endfacet
   facet normal 0.000000e+000 1.000000e+000 3.491483e-015
      outer loop
         vertex 8.052710e+000 1.302275e+001 0.000000e+000
         vertex 4.806323e+000 1.302275e+001 3.492352e+000
         vertex 5.735441e+000 1.302275e+001 3.307539e+000
      endloop
   endfacet
   facet normal 0.000000e+000 1.000000e+000 3.491483e-015
      outer loop
         vertex 8.052710e+000 1.302275e+001 0.000000e+000
         vertex 5.735441e+000 1.302275e+001 3.307539e+000
         vertex 6.664558e+000 1.302275e+001 3.492352e+000
      endloop
   endfacet
   facet normal 1.384500e-014 3.491483e-015 -1.000000e+000
      outer loop
         vertex 2.611809e+001 1.302275e+001 2.687440e+000
         vertex 2.611809e+001 9.847746e+000 2.687440e+000
         vertex 2.510819e+001 9.847746e+000 2.687440e+000
      endloop
   endfacet
   facet normal 1.384500e-014 3.491483e-015 -1.000000e+000
      outer loop
         vertex 1.078747e+001 9.847746e+000 2.687440e+000
         vertex 1.078747e+001 1.302275e+001 2.687440e+000
         vertex 1.183637e+001 9.847746e+000 2.687440e+000
      endloop
   endfacet
   facet normal 1.384500e-014 3.491483e-015 -1.000000e+000
      outer loop
         vertex 1.183637e+001 9.847746e+000 2.687440e+000
         vertex 1.078747e+001 1.302275e+001 2.687440e+000
         vertex 2.611809e+001 1.302275e+001 2.687440e+000
      endloop
   endfacet
   facet normal 1.384500e-014 3.491483e-015 -1.000000e+000
      outer loop
         vertex 1.969434e+001 8.748770e+000 2.687440e+000
         vertex 1.880405e+001 9.072502e+000 2.687440e+000
         vertex 2.510819e+001 9.847746e+000 2.687440e+000
      endloop
   endfacet
   facet normal 1.384500e-014 3.491483e-015 -1.000000e+000
      outer loop
         vertex 2.611809e+001 1.302275e+001 2.687440e+000
         vertex 2.510819e+001 9.847746e+000 2.687440e+000
         vertex 1.183637e+001 9.847746e+000 2.687440e+000
      endloop
   endfacet
   facet normal 1.384500e-014 3.491483e-015 -1.000000e+000
      outer loop
         vertex 1.183637e+001 9.847746e+000 2.687440e+000
         vertex 2.510819e+001 9.847746e+000 2.687440e+000
         vertex 1.880405e+001 9.072502e+000 2.687440e+000
      endloop
   endfacet
   facet normal 1.384500e-014 3.491483e-015 -1.000000e+000
      outer loop
         vertex 1.183637e+001 9.847746e+000 2.687440e+000
         vertex 1.880405e+001 9.072502e+000 2.687440e+000
         vertex 1.785765e+001 9.030893e+000 2.687440e+000
      endloop
   endfacet
   facet normal 1.384500e-014 3.491483e-015 -1.000000e+000
      outer loop
         vertex 1.785765e+001 9.030893e+000 2.687440e+000
         vertex 1.699920e+001 8.630279e+000 2.687440e+000
         vertex 1.183637e+001 9.847746e+000 2.687440e+000
      endloop
   endfacet
   facet normal 1.384500e-014 3.491483e-015 -1.000000e+000
      outer loop
         vertex 1.183637e+001 9.847746e+000 2.687440e+000
         vertex 1.699920e+001 8.630279e+000 2.687440e+000
         vertex 1.635942e+001 7.931647e+000 2.687440e+000
      endloop
   endfacet
   facet normal 1.384500e-014 3.491483e-015 -1.000000e+000
      outer loop
         vertex 1.183637e+001 9.847746e+000 2.687440e+000
         vertex 1.635942e+001 7.931647e+000 2.687440e+000
         vertex 1.183637e+001 6.695202e+000 2.687440e+000
      endloop
   endfacet
   facet normal 1.384500e-014 3.491483e-015 -1.000000e+000
      outer loop
         vertex 1.183637e+001 6.695202e+000 2.687440e+000
         vertex 1.635942e+001 7.931647e+000 2.687440e+000
         vertex 1.603568e+001 7.041359e+000 2.687440e+000
      endloop
   endfacet
   facet normal 1.384500e-014 3.491483e-015 -1.000000e+000
      outer loop
         vertex 1.183637e+001 6.695202e+000 2.687440e+000
         vertex 1.603568e+001 7.041359e+000 2.687440e+000
         vertex 1.183851e+001 6.575984e+000 2.687440e+000
      endloop
   endfacet
   facet normal 1.384500e-014 3.491483e-015 -1.000000e+000
      outer loop
         vertex 1.183851e+001 6.575984e+000 2.687440e+000
         vertex 1.603568e+001 7.041359e+000 2.687440e+000
         vertex 1.607729e+001 6.094953e+000 2.687440e+000
      endloop
   endfacet
   facet normal 1.384500e-014 3.491483e-015 -1.000000e+000
      outer loop
         vertex 1.183851e+001 6.575984e+000 2.687440e+000
         vertex 1.607729e+001 6.094953e+000 2.687440e+000
         vertex 1.359456e+001 2.984312e+000 2.687440e+000
      endloop
   endfacet
   facet normal 1.384500e-014 3.491483e-015 -1.000000e+000
      outer loop
         vertex 1.359456e+001 2.984312e+000 2.687440e+000
         vertex 1.607729e+001 6.094953e+000 2.687440e+000
         vertex 1.647791e+001 5.236511e+000 2.687440e+000
      endloop
   endfacet
   facet normal 1.384500e-014 3.491483e-015 -1.000000e+000
      outer loop
         vertex 1.359456e+001 2.984312e+000 2.687440e+000
         vertex 1.647791e+001 5.236511e+000 2.687440e+000
         vertex 1.537455e+001 1.412554e+000 2.687440e+000
      endloop
   endfacet
   facet normal 1.384500e-014 3.491483e-015 -1.000000e+000
      outer loop
         vertex 1.537455e+001 1.412554e+000 2.687440e+000
         vertex 1.647791e+001 5.236511e+000 2.687440e+000
         vertex 1.717654e+001 4.596722e+000 2.687440e+000
      endloop
   endfacet
   facet normal 1.384500e-014 3.491483e-015 -1.000000e+000
      outer loop
         vertex 1.537455e+001 1.412554e+000 2.687440e+000
         vertex 1.717654e+001 4.596722e+000 2.687440e+000
         vertex 1.762054e+001 6.416105e-001 2.687440e+000
      endloop
   endfacet
   facet normal 1.384500e-014 3.491483e-015 -1.000000e+000
      outer loop
         vertex 1.762054e+001 6.416105e-001 2.687440e+000
         vertex 1.717654e+001 4.596722e+000 2.687440e+000
         vertex 1.806683e+001 4.272990e+000 2.687440e+000
      endloop
   endfacet
   facet normal 1.384500e-014 3.491483e-015 -1.000000e+000
      outer loop
         vertex 1.762054e+001 6.416105e-001 2.687440e+000
         vertex 1.806683e+001 4.272990e+000 2.687440e+000
         vertex 1.999058e+001 7.888535e-001 2.687440e+000
      endloop
   endfacet
   facet normal 1.384500e-014 3.491483e-015 -1.000000e+000
      outer loop
         vertex 1.999058e+001 7.888535e-001 2.687440e+000
         vertex 1.806683e+001 4.272990e+000 2.687440e+000
         vertex 1.901323e+001 4.314599e+000 2.687440e+000
      endloop
   endfacet
   facet normal 1.384500e-014 3.491483e-015 -1.000000e+000
      outer loop
         vertex 1.999058e+001 7.888535e-001 2.687440e+000
         vertex 1.901323e+001 4.314599e+000 2.687440e+000
         vertex 2.212387e+001 1.831866e+000 2.687440e+000
      endloop
   endfacet
   facet normal 1.384500e-014 3.491483e-015 -1.000000e+000
      outer loop
         vertex 2.212387e+001 1.831866e+000 2.687440e+000
         vertex 1.901323e+001 4.314599e+000 2.687440e+000
         vertex 1.987168e+001 4.715214e+000 2.687440e+000
      endloop
   endfacet
   facet normal 1.384500e-014 3.491483e-015 -1.000000e+000
      outer loop
         vertex 2.212387e+001 1.831866e+000 2.687440e+000
         vertex 1.987168e+001 4.715214e+000 2.687440e+000
         vertex 2.369563e+001 3.611858e+000 2.687440e+000
      endloop
   endfacet
   facet normal 1.384500e-014 3.491483e-015 -1.000000e+000
      outer loop
         vertex 2.369563e+001 3.611858e+000 2.687440e+000
         vertex 1.987168e+001 4.715214e+000 2.687440e+000
         vertex 2.051147e+001 5.413845e+000 2.687440e+000
      endloop
   endfacet
   facet normal 1.384500e-014 3.491483e-015 -1.000000e+000
      outer loop
         vertex 2.369563e+001 3.611858e+000 2.687440e+000
         vertex 2.051147e+001 5.413845e+000 2.687440e+000
         vertex 2.510819e+001 7.727043e+000 2.687440e+000
      endloop
   endfacet
   facet normal 1.384500e-014 3.491483e-015 -1.000000e+000
      outer loop
         vertex 2.051147e+001 5.413845e+000 2.687440e+000
         vertex 2.083520e+001 6.304133e+000 2.687440e+000
         vertex 2.510819e+001 7.727043e+000 2.687440e+000
      endloop
   endfacet
   facet normal 1.384500e-014 3.491483e-015 -1.000000e+000
      outer loop
         vertex 2.510819e+001 7.727043e+000 2.687440e+000
         vertex 2.083520e+001 6.304133e+000 2.687440e+000
         vertex 2.079359e+001 7.250539e+000 2.687440e+000
      endloop
   endfacet
   facet normal 1.384500e-014 3.491483e-015 -1.000000e+000
      outer loop
         vertex 2.510819e+001 7.727043e+000 2.687440e+000
         vertex 2.079359e+001 7.250539e+000 2.687440e+000
         vertex 2.510819e+001 9.847746e+000 2.687440e+000
      endloop
   endfacet
   facet normal 1.384500e-014 3.491483e-015 -1.000000e+000
      outer loop
         vertex 2.510819e+001 9.847746e+000 2.687440e+000
         vertex 2.079359e+001 7.250539e+000 2.687440e+000
         vertex 2.039297e+001 8.108981e+000 2.687440e+000
      endloop
   endfacet
   facet normal 1.384500e-014 3.491483e-015 -1.000000e+000
      outer loop
         vertex 2.510819e+001 9.847746e+000 2.687440e+000
         vertex 2.039297e+001 8.108981e+000 2.687440e+000
         vertex 1.969434e+001 8.748770e+000 2.687440e+000
      endloop
   endfacet
   facet normal -7.132505e-001 2.447213e-015 -7.009093e-001
      outer loop
         vertex 2.871843e+001 9.847746e+000 4.131533e-002
         vertex 2.611809e+001 9.847746e+000 2.687440e+000
         vertex 2.871843e+001 1.302275e+001 4.131533e-002
      endloop
   endfacet
   facet normal -7.132505e-001 2.447213e-015 -7.009093e-001
      outer loop
         vertex 2.871843e+001 1.302275e+001 4.131533e-002
         vertex 2.611809e+001 9.847746e+000 2.687440e+000
         vertex 2.611809e+001 1.302275e+001 2.687440e+000
      endloop
   endfacet
   facet normal -8.726535e-003 3.491350e-015 -9.999619e-001
      outer loop
         vertex 3.345271e+001 9.847746e+000 0.000000e+000
         vertex 2.871843e+001 9.847746e+000 4.131533e-002
         vertex 3.345271e+001 1.302275e+001 0.000000e+000
      endloop
   endfacet
   facet normal -8.726535e-003 3.491350e-015 -9.999619e-001
      outer loop
         vertex 3.345271e+001 1.302275e+001 0.000000e+000
         vertex 2.871843e+001 9.847746e+000 4.131533e-002
         vertex 2.871843e+001 1.302275e+001 4.131533e-002
      endloop
   endfacet
   facet normal 7.009093e-001 2.490302e-015 -7.132505e-001
      outer loop
         vertex 3.682956e+001 9.847746e+000 3.318428e+000
         vertex 3.345271e+001 9.847746e+000 0.000000e+000
         vertex 3.682956e+001 1.302275e+001 3.318428e+000
      endloop
   endfacet
   facet normal 7.009093e-001 2.490302e-015 -7.132505e-001
      outer loop
         vertex 3.682956e+001 1.302275e+001 3.318428e+000
         vertex 3.345271e+001 9.847746e+000 0.000000e+000
         vertex 3.345271e+001 1.302275e+001 0.000000e+000
      endloop
   endfacet
   facet normal 9.999619e-001 3.046855e-017 -8.726535e-003
      outer loop
         vertex 3.687088e+001 9.847746e+000 8.052709e+000
         vertex 3.682956e+001 9.847746e+000 3.318428e+000
         vertex 3.687088e+001 1.302275e+001 8.052709e+000
      endloop
   endfacet
   facet normal 9.999619e-001 3.046855e-017 -8.726535e-003
      outer loop
         vertex 3.687088e+001 1.302275e+001 8.052709e+000
         vertex 3.682956e+001 9.847746e+000 3.318428e+000
         vertex 3.682956e+001 1.302275e+001 3.318428e+000
      endloop
   endfacet
   facet normal 7.132505e-001 -2.447213e-015 7.009093e-001
      outer loop
         vertex 3.355245e+001 9.847746e+000 1.142957e+001
         vertex 3.687088e+001 9.847746e+000 8.052709e+000
         vertex 3.355245e+001 1.302275e+001 1.142957e+001
      endloop
   endfacet
   facet normal 7.132505e-001 -2.447213e-015 7.009093e-001
      outer loop
         vertex 3.355245e+001 1.302275e+001 1.142957e+001
         vertex 3.687088e+001 9.847746e+000 8.052709e+000
         vertex 3.687088e+001 1.302275e+001 8.052709e+000
      endloop
   endfacet
   facet normal 8.726535e-003 -3.491350e-015 9.999619e-001
      outer loop
         vertex 2.881817e+001 9.847746e+000 1.147088e+001
         vertex 3.355245e+001 9.847746e+000 1.142957e+001
         vertex 2.881817e+001 1.302275e+001 1.147088e+001
      endloop
   endfacet
   facet normal 8.726535e-003 -3.491350e-015 9.999619e-001
      outer loop
         vertex 2.881817e+001 1.302275e+001 1.147088e+001
         vertex 3.355245e+001 9.847746e+000 1.142957e+001
         vertex 3.355245e+001 1.302275e+001 1.142957e+001
      endloop
   endfacet
   facet normal -7.009093e-001 -2.490302e-015 7.132505e-001
      outer loop
         vertex 2.608341e+001 9.847746e+000 8.783440e+000
         vertex 2.881817e+001 9.847746e+000 1.147088e+001
         vertex 2.608341e+001 1.302275e+001 8.783440e+000
      endloop
   endfacet
   facet normal -7.009093e-001 -2.490302e-015 7.132505e-001
      outer loop
         vertex 2.608341e+001 1.302275e+001 8.783440e+000
         vertex 2.881817e+001 9.847746e+000 1.147088e+001
         vertex 2.881817e+001 1.302275e+001 1.147088e+001
      endloop
   endfacet
   facet normal 0.000000e+000 -3.491483e-015 1.000000e+000
      outer loop
         vertex 1.075279e+001 9.847746e+000 8.783440e+000
         vertex 1.183637e+001 9.847746e+000 8.783440e+000
         vertex 1.075279e+001 1.302275e+001 8.783440e+000
      endloop
   endfacet
   facet normal 0.000000e+000 -3.491483e-015 1.000000e+000
      outer loop
         vertex 1.075279e+001 1.302275e+001 8.783440e+000
         vertex 1.183637e+001 9.847746e+000 8.783440e+000
         vertex 2.510819e+001 9.847746e+000 8.783440e+000
      endloop
   endfacet
   facet normal 0.000000e+000 -3.491483e-015 1.000000e+000
      outer loop
         vertex 1.075279e+001 1.302275e+001 8.783440e+000
         vertex 2.510819e+001 9.847746e+000 8.783440e+000
         vertex 2.608341e+001 1.302275e+001 8.783440e+000
      endloop
   endfacet
   facet normal 0.000000e+000 -3.491483e-015 1.000000e+000
      outer loop
         vertex 2.608341e+001 1.302275e+001 8.783440e+000
         vertex 2.510819e+001 9.847746e+000 8.783440e+000
         vertex 2.608341e+001 9.847746e+000 8.783440e+000
      endloop
   endfacet
   facet normal 0.000000e+000 -3.491483e-015 1.000000e+000
      outer loop
         vertex 1.880405e+001 9.072502e+000 8.783440e+000
         vertex 1.969434e+001 8.748770e+000 8.783440e+000
         vertex 2.510819e+001 9.847746e+000 8.783440e+000
      endloop
   endfacet
   facet normal 0.000000e+000 -3.491483e-015 1.000000e+000
      outer loop
         vertex 2.510819e+001 9.847746e+000 8.783440e+000
         vertex 1.969434e+001 8.748770e+000 8.783440e+000
         vertex 2.039297e+001 8.108981e+000 8.783440e+000
      endloop
   endfacet
   facet normal 0.000000e+000 -3.491483e-015 1.000000e+000
      outer loop
         vertex 2.510819e+001 9.847746e+000 8.783440e+000
         vertex 2.039297e+001 8.108981e+000 8.783440e+000
         vertex 2.510819e+001 7.727043e+000 8.783440e+000
      endloop
   endfacet
   facet normal 0.000000e+000 -3.491483e-015 1.000000e+000
      outer loop
         vertex 1.880405e+001 9.072502e+000 8.783440e+000
         vertex 2.510819e+001 9.847746e+000 8.783440e+000
         vertex 1.785765e+001 9.030893e+000 8.783440e+000
      endloop
   endfacet
   facet normal 0.000000e+000 -3.491483e-015 1.000000e+000
      outer loop
         vertex 1.785765e+001 9.030893e+000 8.783440e+000
         vertex 2.510819e+001 9.847746e+000 8.783440e+000
         vertex 1.183637e+001 9.847746e+000 8.783440e+000
      endloop
   endfacet
   facet normal 0.000000e+000 -3.491483e-015 1.000000e+000
      outer loop
         vertex 1.785765e+001 9.030893e+000 8.783440e+000
         vertex 1.183637e+001 9.847746e+000 8.783440e+000
         vertex 1.699920e+001 8.630279e+000 8.783440e+000
      endloop
   endfacet
   facet normal 0.000000e+000 -3.491483e-015 1.000000e+000
      outer loop
         vertex 2.039297e+001 8.108981e+000 8.783440e+000
         vertex 2.079359e+001 7.250539e+000 8.783440e+000
         vertex 2.510819e+001 7.727043e+000 8.783440e+000
      endloop
   endfacet
   facet normal 0.000000e+000 -3.491483e-015 1.000000e+000
      outer loop
         vertex 2.510819e+001 7.727043e+000 8.783440e+000
         vertex 2.079359e+001 7.250539e+000 8.783440e+000
         vertex 2.083520e+001 6.304133e+000 8.783440e+000
      endloop
   endfacet
   facet normal 0.000000e+000 -3.491483e-015 1.000000e+000
      outer loop
         vertex 2.510819e+001 7.727043e+000 8.783440e+000
         vertex 2.083520e+001 6.304133e+000 8.783440e+000
         vertex 2.369563e+001 3.611858e+000 8.783440e+000
      endloop
   endfacet
   facet normal 0.000000e+000 -3.491483e-015 1.000000e+000
      outer loop
         vertex 2.369563e+001 3.611858e+000 8.783440e+000
         vertex 2.083520e+001 6.304133e+000 8.783440e+000
         vertex 2.051147e+001 5.413845e+000 8.783440e+000
      endloop
   endfacet
   facet normal 0.000000e+000 -3.491483e-015 1.000000e+000
      outer loop
         vertex 2.369563e+001 3.611858e+000 8.783440e+000
         vertex 2.051147e+001 5.413845e+000 8.783440e+000
         vertex 2.212387e+001 1.831866e+000 8.783440e+000
      endloop
   endfacet
   facet normal 0.000000e+000 -3.491483e-015 1.000000e+000
      outer loop
         vertex 2.212387e+001 1.831866e+000 8.783440e+000
         vertex 2.051147e+001 5.413845e+000 8.783440e+000
         vertex 1.987168e+001 4.715214e+000 8.783440e+000
      endloop
   endfacet
   facet normal 0.000000e+000 -3.491483e-015 1.000000e+000
      outer loop
         vertex 2.212387e+001 1.831866e+000 8.783440e+000
         vertex 1.987168e+001 4.715214e+000 8.783440e+000
         vertex 1.999058e+001 7.888535e-001 8.783440e+000
      endloop
   endfacet
   facet normal 0.000000e+000 -3.491483e-015 1.000000e+000
      outer loop
         vertex 1.999058e+001 7.888535e-001 8.783440e+000
         vertex 1.987168e+001 4.715214e+000 8.783440e+000
         vertex 1.901323e+001 4.314599e+000 8.783440e+000
      endloop
   endfacet
   facet normal 0.000000e+000 -3.491483e-015 1.000000e+000
      outer loop
         vertex 1.999058e+001 7.888535e-001 8.783440e+000
         vertex 1.901323e+001 4.314599e+000 8.783440e+000
         vertex 1.762054e+001 6.416105e-001 8.783440e+000
      endloop
   endfacet
   facet normal 0.000000e+000 -3.491483e-015 1.000000e+000
      outer loop
         vertex 1.762054e+001 6.416105e-001 8.783440e+000
         vertex 1.901323e+001 4.314599e+000 8.783440e+000
         vertex 1.806683e+001 4.272990e+000 8.783440e+000
      endloop
   endfacet
   facet normal 0.000000e+000 -3.491483e-015 1.000000e+000
      outer loop
         vertex 1.762054e+001 6.416105e-001 8.783440e+000
         vertex 1.806683e+001 4.272990e+000 8.783440e+000
         vertex 1.537455e+001 1.412554e+000 8.783440e+000
      endloop
   endfacet
   facet normal 0.000000e+000 -3.491483e-015 1.000000e+000
      outer loop
         vertex 1.537455e+001 1.412554e+000 8.783440e+000
         vertex 1.806683e+001 4.272990e+000 8.783440e+000
         vertex 1.717654e+001 4.596722e+000 8.783440e+000
      endloop
   endfacet
   facet normal 0.000000e+000 -3.491483e-015 1.000000e+000
      outer loop
         vertex 1.537455e+001 1.412554e+000 8.783440e+000
         vertex 1.717654e+001 4.596722e+000 8.783440e+000
         vertex 1.359456e+001 2.984312e+000 8.783440e+000
      endloop
   endfacet
   facet normal 0.000000e+000 -3.491483e-015 1.000000e+000
      outer loop
         vertex 1.359456e+001 2.984312e+000 8.783440e+000
         vertex 1.717654e+001 4.596722e+000 8.783440e+000
         vertex 1.647791e+001 5.236511e+000 8.783440e+000
      endloop
   endfacet
   facet normal 0.000000e+000 -3.491483e-015 1.000000e+000
      outer loop
         vertex 1.359456e+001 2.984312e+000 8.783440e+000
         vertex 1.647791e+001 5.236511e+000 8.783440e+000
         vertex 1.183851e+001 6.575984e+000 8.783440e+000
      endloop
   endfacet
   facet normal 0.000000e+000 -3.491483e-015 1.000000e+000
      outer loop
         vertex 1.183851e+001 6.575984e+000 8.783440e+000
         vertex 1.647791e+001 5.236511e+000 8.783440e+000
         vertex 1.607729e+001 6.094953e+000 8.783440e+000
      endloop
   endfacet
   facet normal 0.000000e+000 -3.491483e-015 1.000000e+000
      outer loop
         vertex 1.183851e+001 6.575984e+000 8.783440e+000
         vertex 1.607729e+001 6.094953e+000 8.783440e+000
         vertex 1.183637e+001 6.695202e+000 8.783440e+000
      endloop
   endfacet
   facet normal 0.000000e+000 -3.491483e-015 1.000000e+000
      outer loop
         vertex 1.183637e+001 6.695202e+000 8.783440e+000
         vertex 1.607729e+001 6.094953e+000 8.783440e+000
         vertex 1.603568e+001 7.041359e+000 8.783440e+000
      endloop
   endfacet
   facet normal 0.000000e+000 -3.491483e-015 1.000000e+000
      outer loop
         vertex 1.183637e+001 6.695202e+000 8.783440e+000
         vertex 1.603568e+001 7.041359e+000 8.783440e+000
         vertex 1.183637e+001 9.847746e+000 8.783440e+000
      endloop
   endfacet
   facet normal 0.000000e+000 -3.491483e-015 1.000000e+000
      outer loop
         vertex 1.183637e+001 9.847746e+000 8.783440e+000
         vertex 1.603568e+001 7.041359e+000 8.783440e+000
         vertex 1.635942e+001 7.931647e+000 8.783440e+000
      endloop
   endfacet
   facet normal 0.000000e+000 -3.491483e-015 1.000000e+000
      outer loop
         vertex 1.183637e+001 9.847746e+000 8.783440e+000
         vertex 1.635942e+001 7.931647e+000 8.783440e+000
         vertex 1.699920e+001 8.630279e+000 8.783440e+000
      endloop
   endfacet
   facet normal 7.132505e-001 -2.447213e-015 7.009093e-001
      outer loop
         vertex 8.152453e+000 9.847746e+000 1.142957e+001
         vertex 1.075279e+001 9.847746e+000 8.783440e+000
         vertex 8.152453e+000 1.302275e+001 1.142957e+001
      endloop
   endfacet
   facet normal 7.132505e-001 -2.447213e-015 7.009093e-001
      outer loop
         vertex 8.152453e+000 1.302275e+001 1.142957e+001
         vertex 1.075279e+001 9.847746e+000 8.783440e+000
         vertex 1.075279e+001 1.302275e+001 8.783440e+000
      endloop
   endfacet
   facet normal 8.726535e-003 -3.491350e-015 9.999619e-001
      outer loop
         vertex 3.418173e+000 9.847746e+000 1.147088e+001
         vertex 8.152453e+000 9.847746e+000 1.142957e+001
         vertex 3.418173e+000 1.302275e+001 1.147088e+001
      endloop
   endfacet
   facet normal 8.726535e-003 -3.491350e-015 9.999619e-001
      outer loop
         vertex 3.418173e+000 1.302275e+001 1.147088e+001
         vertex 8.152453e+000 9.847746e+000 1.142957e+001
         vertex 8.152453e+000 1.302275e+001 1.142957e+001
      endloop
   endfacet
   facet normal -7.009093e-001 -2.490302e-015 7.132505e-001
      outer loop
         vertex 4.131719e-002 9.847746e+000 8.152453e+000
         vertex 3.418173e+000 9.847746e+000 1.147088e+001
         vertex 4.131719e-002 1.302275e+001 8.152453e+000
      endloop
   endfacet
   facet normal -7.009093e-001 -2.490302e-015 7.132505e-001
      outer loop
         vertex 4.131719e-002 1.302275e+001 8.152453e+000
         vertex 3.418173e+000 9.847746e+000 1.147088e+001
         vertex 3.418173e+000 1.302275e+001 1.147088e+001
      endloop
   endfacet
   facet normal -9.999619e-001 -3.046855e-017 8.726535e-003
      outer loop
         vertex 0.000000e+000 9.847746e+000 3.418172e+000
         vertex 4.131719e-002 9.847746e+000 8.152453e+000
         vertex 0.000000e+000 1.302275e+001 3.418172e+000
      endloop
   endfacet
   facet normal -9.999619e-001 -3.046855e-017 8.726535e-003
      outer loop
         vertex 0.000000e+000 1.302275e+001 3.418172e+000
         vertex 4.131719e-002 9.847746e+000 8.152453e+000
         vertex 4.131719e-002 1.302275e+001 8.152453e+000
      endloop
   endfacet
   facet normal -7.132505e-001 2.447213e-015 -7.009093e-001
      outer loop
         vertex 3.318428e+000 9.847746e+000 4.131533e-002
         vertex 0.000000e+000 9.847746e+000 3.418172e+000
         vertex 3.318428e+000 1.302275e+001 4.131533e-002
      endloop
   endfacet
   facet normal -7.132505e-001 2.447213e-015 -7.009093e-001
      outer loop
         vertex 3.318428e+000 1.302275e+001 4.131533e-002
         vertex 0.000000e+000 9.847746e+000 3.418172e+000
         vertex 0.000000e+000 1.302275e+001 3.418172e+000
      endloop
   endfacet
   facet normal -8.726535e-003 3.491350e-015 -9.999619e-001
      outer loop
         vertex 8.052710e+000 9.847746e+000 0.000000e+000
         vertex 3.318428e+000 9.847746e+000 4.131533e-002
         vertex 8.052710e+000 1.302275e+001 0.000000e+000
      endloop
   endfacet
   facet normal -8.726535e-003 3.491350e-015 -9.999619e-001
      outer loop
         vertex 8.052710e+000 1.302275e+001 0.000000e+000
         vertex 3.318428e+000 9.847746e+000 4.131533e-002
         vertex 3.318428e+000 1.302275e+001 4.131533e-002
      endloop
   endfacet
   facet normal 7.009093e-001 2.490302e-015 -7.132505e-001
      outer loop
         vertex 1.078747e+001 9.847746e+000 2.687440e+000
         vertex 8.052710e+000 9.847746e+000 0.000000e+000
         vertex 1.078747e+001 1.302275e+001 2.687440e+000
      endloop
   endfacet
   facet normal 7.009093e-001 2.490302e-015 -7.132505e-001
      outer loop
         vertex 1.078747e+001 1.302275e+001 2.687440e+000
         vertex 8.052710e+000 9.847746e+000 0.000000e+000
         vertex 8.052710e+000 1.302275e+001 0.000000e+000
      endloop
   endfacet
   facet normal -9.807853e-001 -6.811546e-016 1.950903e-001
      outer loop
         vertex 7.978529e+000 9.847746e+000 4.806323e+000
         vertex 8.163342e+000 9.847746e+000 5.735440e+000
         vertex 7.978529e+000 1.302275e+001 4.806323e+000
      endloop
   endfacet
   facet normal -9.807853e-001 -6.811546e-016 1.950903e-001
      outer loop
         vertex 7.978529e+000 1.302275e+001 4.806323e+000
         vertex 8.163342e+000 9.847746e+000 5.735440e+000
         vertex 8.163342e+000 1.302275e+001 5.735440e+000
      endloop
   endfacet
   facet normal -9.807853e-001 6.811546e-016 -1.950903e-001
      outer loop
         vertex 8.163342e+000 9.847746e+000 5.735440e+000
         vertex 7.978529e+000 9.847746e+000 6.664558e+000
         vertex 8.163342e+000 1.302275e+001 5.735440e+000
      endloop
   endfacet
   facet normal -9.807853e-001 6.811546e-016 -1.950903e-001
      outer loop
         vertex 8.163342e+000 1.302275e+001 5.735440e+000
         vertex 7.978529e+000 9.847746e+000 6.664558e+000
         vertex 7.978529e+000 1.302275e+001 6.664558e+000
      endloop
   endfacet
   facet normal -8.314696e-001 1.939764e-015 -5.555702e-001
      outer loop
         vertex 7.978529e+000 9.847746e+000 6.664558e+000
         vertex 7.452226e+000 9.847746e+000 7.452226e+000
         vertex 7.978529e+000 1.302275e+001 6.664558e+000
      endloop
   endfacet
   facet normal -8.314696e-001 1.939764e-015 -5.555702e-001
      outer loop
         vertex 7.978529e+000 1.302275e+001 6.664558e+000
         vertex 7.452226e+000 9.847746e+000 7.452226e+000
         vertex 7.452226e+000 1.302275e+001 7.452226e+000
      endloop
   endfacet
   facet normal -5.555702e-001 2.903062e-015 -8.314696e-001
      outer loop
         vertex 7.452226e+000 9.847746e+000 7.452226e+000
         vertex 6.664558e+000 9.847746e+000 7.978529e+000
         vertex 7.452226e+000 1.302275e+001 7.452226e+000
      endloop
   endfacet
   facet normal -5.555702e-001 2.903062e-015 -8.314696e-001
      outer loop
         vertex 7.452226e+000 1.302275e+001 7.452226e+000
         vertex 6.664558e+000 9.847746e+000 7.978529e+000
         vertex 6.664558e+000 1.302275e+001 7.978529e+000
      endloop
   endfacet
   facet normal -1.950903e-001 3.424395e-015 -9.807853e-001
      outer loop
         vertex 6.664558e+000 9.847746e+000 7.978529e+000
         vertex 5.735441e+000 9.847746e+000 8.163342e+000
         vertex 6.664558e+000 1.302275e+001 7.978529e+000
      endloop
   endfacet
   facet normal -1.950903e-001 3.424395e-015 -9.807853e-001
      outer loop
         vertex 6.664558e+000 1.302275e+001 7.978529e+000
         vertex 5.735441e+000 9.847746e+000 8.163342e+000
         vertex 5.735441e+000 1.302275e+001 8.163341e+000
      endloop
   endfacet
   facet normal 1.950903e-001 3.424395e-015 -9.807853e-001
      outer loop
         vertex 5.735441e+000 9.847746e+000 8.163342e+000
         vertex 4.806323e+000 9.847746e+000 7.978529e+000
         vertex 5.735441e+000 1.302275e+001 8.163341e+000
      endloop
   endfacet
   facet normal 1.950903e-001 3.424395e-015 -9.807853e-001
      outer loop
         vertex 5.735441e+000 1.302275e+001 8.163342e+000
         vertex 4.806323e+000 9.847746e+000 7.978529e+000
         vertex 4.806323e+000 1.302275e+001 7.978529e+000
      endloop
   endfacet
   facet normal 5.555702e-001 2.903062e-015 -8.314696e-001
      outer loop
         vertex 4.806323e+000 9.847746e+000 7.978529e+000
         vertex 4.018655e+000 9.847746e+000 7.452226e+000
         vertex 4.806323e+000 1.302275e+001 7.978529e+000
      endloop
   endfacet
   facet normal 5.555702e-001 2.903062e-015 -8.314696e-001
      outer loop
         vertex 4.806323e+000 1.302275e+001 7.978529e+000
         vertex 4.018655e+000 9.847746e+000 7.452226e+000
         vertex 4.018655e+000 1.302275e+001 7.452226e+000
      endloop
   endfacet
   facet normal 8.314696e-001 1.939764e-015 -5.555702e-001
      outer loop
         vertex 4.018655e+000 9.847746e+000 7.452226e+000
         vertex 3.492352e+000 9.847746e+000 6.664558e+000
         vertex 4.018655e+000 1.302275e+001 7.452226e+000
      endloop
   endfacet
   facet normal 8.314696e-001 1.939764e-015 -5.555702e-001
      outer loop
         vertex 4.018655e+000 1.302275e+001 7.452226e+000
         vertex 3.492352e+000 9.847746e+000 6.664558e+000
         vertex 3.492352e+000 1.302275e+001 6.664558e+000
      endloop
   endfacet
   facet normal 9.807853e-001 6.811546e-016 -1.950903e-001
      outer loop
         vertex 3.492352e+000 9.847746e+000 6.664558e+000
         vertex 3.307540e+000 9.847746e+000 5.735440e+000
         vertex 3.492352e+000 1.302275e+001 6.664558e+000
      endloop
   endfacet
   facet normal 9.807853e-001 6.811546e-016 -1.950903e-001
      outer loop
         vertex 3.492352e+000 1.302275e+001 6.664558e+000
         vertex 3.307540e+000 9.847746e+000 5.735440e+000
         vertex 3.307540e+000 1.302275e+001 5.735440e+000
      endloop
   endfacet
   facet normal 9.807853e-001 -6.811546e-016 1.950903e-001
      outer loop
         vertex 3.307540e+000 9.847746e+000 5.735440e+000
         vertex 3.492352e+000 9.847746e+000 4.806323e+000
         vertex 3.307540e+000 1.302275e+001 5.735440e+000
      endloop
   endfacet
   facet normal 9.807853e-001 -6.811546e-016 1.950903e-001
      outer loop
         vertex 3.307540e+000 1.302275e+001 5.735440e+000
         vertex 3.492352e+000 9.847746e+000 4.806323e+000
         vertex 3.492352e+000 1.302275e+001 4.806323e+000
      endloop
   endfacet
   facet normal 8.314696e-001 -1.939764e-015 5.555702e-001
      outer loop
         vertex 3.492352e+000 9.847746e+000 4.806323e+000
         vertex 4.018655e+000 9.847746e+000 4.018654e+000
         vertex 3.492352e+000 1.302275e+001 4.806323e+000
      endloop
   endfacet
   facet normal 8.314696e-001 -1.939764e-015 5.555702e-001
      outer loop
         vertex 3.492352e+000 1.302275e+001 4.806323e+000
         vertex 4.018655e+000 9.847746e+000 4.018654e+000
         vertex 4.018655e+000 1.302275e+001 4.018655e+000
      endloop
   endfacet
   facet normal 5.555702e-001 -2.903062e-015 8.314696e-001
      outer loop
         vertex 4.018655e+000 9.847746e+000 4.018654e+000
         vertex 4.806323e+000 9.847746e+000 3.492352e+000
         vertex 4.018655e+000 1.302275e+001 4.018655e+000
      endloop
   endfacet
   facet normal 5.555702e-001 -2.903062e-015 8.314696e-001
      outer loop
         vertex 4.018655e+000 1.302275e+001 4.018654e+000
         vertex 4.806323e+000 9.847746e+000 3.492352e+000
         vertex 4.806323e+000 1.302275e+001 3.492352e+000
      endloop
   endfacet
   facet normal 1.950903e-001 -3.424395e-015 9.807853e-001
      outer loop
         vertex 4.806323e+000 9.847746e+000 3.492352e+000
         vertex 5.735441e+000 9.847746e+000 3.307539e+000
         vertex 4.806323e+000 1.302275e+001 3.492352e+000
      endloop
   endfacet
   facet normal 1.950903e-001 -3.424395e-015 9.807853e-001
      outer loop
         vertex 4.806323e+000 1.302275e+001 3.492352e+000
         vertex 5.735441e+000 9.847746e+000 3.307539e+000
         vertex 5.735441e+000 1.302275e+001 3.307539e+000
      endloop
   endfacet
   facet normal -1.950903e-001 -3.424395e-015 9.807853e-001
      outer loop
         vertex 5.735441e+000 9.847746e+000 3.307539e+000
         vertex 6.664558e+000 9.847746e+000 3.492352e+000
         vertex 5.735441e+000 1.302275e+001 3.307539e+000
      endloop
   endfacet
   facet normal -1.950903e-001 -3.424395e-015 9.807853e-001
      outer loop
         vertex 5.735441e+000 1.302275e+001 3.307539e+000
         vertex 6.664558e+000 9.847746e+000 3.492352e+000
         vertex 6.664558e+000 1.302275e+001 3.492352e+000
      endloop
   endfacet
   facet normal -5.555702e-001 -2.903062e-015 8.314696e-001
      outer loop
         vertex 6.664558e+000 9.847746e+000 3.492352e+000
         vertex 7.452226e+000 9.847746e+000 4.018654e+000
         vertex 6.664558e+000 1.302275e+001 3.492352e+000
      endloop
   endfacet
   facet normal -5.555702e-001 -2.903062e-015 8.314696e-001
      outer loop
         vertex 6.664558e+000 1.302275e+001 3.492352e+000
         vertex 7.452226e+000 9.847746e+000 4.018654e+000
         vertex 7.452226e+000 1.302275e+001 4.018655e+000
      endloop
   endfacet
   facet normal -8.314696e-001 -1.939764e-015 5.555702e-001
      outer loop
         vertex 7.452226e+000 9.847746e+000 4.018654e+000
         vertex 7.978529e+000 9.847746e+000 4.806323e+000
         vertex 7.452226e+000 1.302275e+001 4.018655e+000
      endloop
   endfacet
   facet normal -8.314696e-001 -1.939764e-015 5.555702e-001
      outer loop
         vertex 7.452226e+000 1.302275e+001 4.018654e+000
         vertex 7.978529e+000 9.847746e+000 4.806323e+000
         vertex 7.978529e+000 1.302275e+001 4.806323e+000
      endloop
   endfacet
   facet normal 9.807853e-001 6.811546e-016 -1.950903e-001
      outer loop
         vertex 2.889235e+001 9.847746e+000 6.664558e+000
         vertex 2.870754e+001 9.847746e+000 5.735440e+000
         vertex 2.889235e+001 1.302275e+001 6.664558e+000
      endloop
   endfacet
   facet normal 9.807853e-001 6.811546e-016 -1.950903e-001
      outer loop
         vertex 2.889235e+001 1.302275e+001 6.664558e+000
         vertex 2.870754e+001 9.847746e+000 5.735440e+000
         vertex 2.870754e+001 1.302275e+001 5.735440e+000
      endloop
   endfacet
   facet normal 9.807853e-001 -6.811546e-016 1.950903e-001
      outer loop
         vertex 2.870754e+001 9.847746e+000 5.735440e+000
         vertex 2.889235e+001 9.847746e+000 4.806323e+000
         vertex 2.870754e+001 1.302275e+001 5.735440e+000
      endloop
   endfacet
   facet normal 9.807853e-001 -6.811546e-016 1.950903e-001
      outer loop
         vertex 2.870754e+001 1.302275e+001 5.735440e+000
         vertex 2.889235e+001 9.847746e+000 4.806323e+000
         vertex 2.889235e+001 1.302275e+001 4.806323e+000
      endloop
   endfacet
   facet normal 8.314696e-001 -1.939764e-015 5.555702e-001
      outer loop
         vertex 2.889235e+001 9.847746e+000 4.806323e+000
         vertex 2.941866e+001 9.847746e+000 4.018654e+000
         vertex 2.889235e+001 1.302275e+001 4.806323e+000
      endloop
   endfacet
   facet normal 8.314696e-001 -1.939764e-015 5.555702e-001
      outer loop
         vertex 2.889235e+001 1.302275e+001 4.806323e+000
         vertex 2.941866e+001 9.847746e+000 4.018654e+000
         vertex 2.941866e+001 1.302275e+001 4.018655e+000
      endloop
   endfacet
   facet normal 5.555702e-001 -2.903062e-015 8.314696e-001
      outer loop
         vertex 2.941866e+001 9.847746e+000 4.018654e+000
         vertex 3.020632e+001 9.847746e+000 3.492352e+000
         vertex 2.941866e+001 1.302275e+001 4.018655e+000
      endloop
   endfacet
   facet normal 5.555702e-001 -2.903062e-015 8.314696e-001
      outer loop
         vertex 2.941866e+001 1.302275e+001 4.018654e+000
         vertex 3.020632e+001 9.847746e+000 3.492352e+000
         vertex 3.020632e+001 1.302275e+001 3.492352e+000
      endloop
   endfacet
   facet normal 1.950903e-001 -3.424395e-015 9.807853e-001
      outer loop
         vertex 3.020632e+001 9.847746e+000 3.492352e+000
         vertex 3.113544e+001 9.847746e+000 3.307539e+000
         vertex 3.020632e+001 1.302275e+001 3.492352e+000
      endloop
   endfacet
   facet normal 1.950903e-001 -3.424395e-015 9.807853e-001
      outer loop
         vertex 3.020632e+001 1.302275e+001 3.492352e+000
         vertex 3.113544e+001 9.847746e+000 3.307539e+000
         vertex 3.113544e+001 1.302275e+001 3.307539e+000
      endloop
   endfacet
   facet normal -1.950903e-001 -3.424395e-015 9.807853e-001
      outer loop
         vertex 3.113544e+001 9.847746e+000 3.307539e+000
         vertex 3.206456e+001 9.847746e+000 3.492352e+000
         vertex 3.113544e+001 1.302275e+001 3.307539e+000
      endloop
   endfacet
   facet normal -1.950903e-001 -3.424395e-015 9.807853e-001
      outer loop
         vertex 3.113544e+001 1.302275e+001 3.307539e+000
         vertex 3.206456e+001 9.847746e+000 3.492352e+000
         vertex 3.206456e+001 1.302275e+001 3.492352e+000
      endloop
   endfacet
   facet normal -5.555702e-001 -2.903062e-015 8.314696e-001
      outer loop
         vertex 3.206456e+001 9.847746e+000 3.492352e+000
         vertex 3.285223e+001 9.847746e+000 4.018654e+000
         vertex 3.206456e+001 1.302275e+001 3.492352e+000
      endloop
   endfacet
   facet normal -5.555702e-001 -2.903062e-015 8.314696e-001
      outer loop
         vertex 3.206456e+001 1.302275e+001 3.492352e+000
         vertex 3.285223e+001 9.847746e+000 4.018654e+000
         vertex 3.285223e+001 1.302275e+001 4.018655e+000
      endloop
   endfacet
   facet normal -8.314696e-001 -1.939764e-015 5.555702e-001
      outer loop
         vertex 3.285223e+001 9.847746e+000 4.018654e+000
         vertex 3.337853e+001 9.847746e+000 4.806323e+000
         vertex 3.285223e+001 1.302275e+001 4.018655e+000
      endloop
   endfacet
   facet normal -8.314696e-001 -1.939764e-015 5.555702e-001
      outer loop
         vertex 3.285223e+001 1.302275e+001 4.018654e+000
         vertex 3.337853e+001 9.847746e+000 4.806323e+000
         vertex 3.337853e+001 1.302275e+001 4.806323e+000
      endloop
   endfacet
   facet normal -9.807853e-001 -6.811546e-016 1.950903e-001
      outer loop
         vertex 3.337853e+001 9.847746e+000 4.806323e+000
         vertex 3.356334e+001 9.847746e+000 5.735440e+000
         vertex 3.337853e+001 1.302275e+001 4.806323e+000
      endloop
   endfacet
   facet normal -9.807853e-001 -6.811546e-016 1.950903e-001
      outer loop
         vertex 3.337853e+001 1.302275e+001 4.806323e+000
         vertex 3.356334e+001 9.847746e+000 5.735440e+000
         vertex 3.356334e+001 1.302275e+001 5.735440e+000
      endloop
   endfacet
   facet normal -9.807853e-001 6.811546e-016 -1.950903e-001
      outer loop
         vertex 3.356334e+001 9.847746e+000 5.735440e+000
         vertex 3.337853e+001 9.847746e+000 6.664558e+000
         vertex 3.356334e+001 1.302275e+001 5.735440e+000
      endloop
   endfacet
   facet normal -9.807853e-001 6.811546e-016 -1.950903e-001
      outer loop
         vertex 3.356334e+001 1.302275e+001 5.735440e+000
         vertex 3.337853e+001 9.847746e+000 6.664558e+000
         vertex 3.337853e+001 1.302275e+001 6.664558e+000
      endloop
   endfacet
   facet normal -8.314696e-001 1.939764e-015 -5.555702e-001
      outer loop
         vertex 3.337853e+001 9.847746e+000 6.664558e+000
         vertex 3.285223e+001 9.847746e+000 7.452226e+000
         vertex 3.337853e+001 1.302275e+001 6.664558e+000
      endloop
   endfacet
   facet normal -8.314696e-001 1.939764e-015 -5.555702e-001
      outer loop
         vertex 3.337853e+001 1.302275e+001 6.664558e+000
         vertex 3.285223e+001 9.847746e+000 7.452226e+000
         vertex 3.285223e+001 1.302275e+001 7.452226e+000
      endloop
   endfacet
   facet normal -5.555702e-001 2.903062e-015 -8.314696e-001
      outer loop
         vertex 3.285223e+001 9.847746e+000 7.452226e+000
         vertex 3.206456e+001 9.847746e+000 7.978529e+000
         vertex 3.285223e+001 1.302275e+001 7.452226e+000
      endloop
   endfacet
   facet normal -5.555702e-001 2.903062e-015 -8.314696e-001
      outer loop
         vertex 3.285223e+001 1.302275e+001 7.452226e+000
         vertex 3.206456e+001 9.847746e+000 7.978529e+000
         vertex 3.206456e+001 1.302275e+001 7.978529e+000
      endloop
   endfacet
   facet normal -1.950903e-001 3.424395e-015 -9.807853e-001
      outer loop
         vertex 3.206456e+001 9.847746e+000 7.978529e+000
         vertex 3.113544e+001 9.847746e+000 8.163342e+000
         vertex 3.206456e+001 1.302275e+001 7.978529e+000
      endloop
   endfacet
   facet normal -1.950903e-001 3.424395e-015 -9.807853e-001
      outer loop
         vertex 3.206456e+001 1.302275e+001 7.978529e+000
         vertex 3.113544e+001 9.847746e+000 8.163342e+000
         vertex 3.113544e+001 1.302275e+001 8.163341e+000
      endloop
   endfacet
   facet normal 1.950903e-001 3.424395e-015 -9.807853e-001
      outer loop
         vertex 3.113544e+001 9.847746e+000 8.163342e+000
         vertex 3.020632e+001 9.847746e+000 7.978529e+000
         vertex 3.113544e+001 1.302275e+001 8.163341e+000
      endloop
   endfacet
   facet normal 1.950903e-001 3.424395e-015 -9.807853e-001
      outer loop
         vertex 3.113544e+001 1.302275e+001 8.163342e+000
         vertex 3.020632e+001 9.847746e+000 7.978529e+000
         vertex 3.020632e+001 1.302275e+001 7.978529e+000
      endloop
   endfacet
   facet normal 5.555702e-001 2.903062e-015 -8.314696e-001
      outer loop
         vertex 3.020632e+001 9.847746e+000 7.978529e+000
         vertex 2.941866e+001 9.847746e+000 7.452226e+000
         vertex 3.020632e+001 1.302275e+001 7.978529e+000
      endloop
   endfacet
   facet normal 5.555702e-001 2.903062e-015 -8.314696e-001
      outer loop
         vertex 3.020632e+001 1.302275e+001 7.978529e+000
         vertex 2.941866e+001 9.847746e+000 7.452226e+000
         vertex 2.941866e+001 1.302275e+001 7.452226e+000
      endloop
   endfacet
   facet normal 8.314696e-001 1.939764e-015 -5.555702e-001
      outer loop
         vertex 2.941866e+001 9.847746e+000 7.452226e+000
         vertex 2.889235e+001 9.847746e+000 6.664558e+000
         vertex 2.941866e+001 1.302275e+001 7.452226e+000
      endloop
   endfacet
   facet normal 8.314696e-001 1.939764e-015 -5.555702e-001
      outer loop
         vertex 2.941866e+001 1.302275e+001 7.452226e+000
         vertex 2.889235e+001 9.847746e+000 6.664558e+000
         vertex 2.889235e+001 1.302275e+001 6.664558e+000
      endloop
   endfacet
   facet normal -9.980757e-001 -6.200704e-002 -2.164966e-016
      outer loop
         vertex 1.184415e+001 6.263251e+000 8.651139e+000
         vertex 1.184415e+001 6.263251e+000 2.819741e+000
         vertex 1.192560e+001 4.952162e+000 8.148440e+000
      endloop
   endfacet
   facet normal -9.980757e-001 -6.200704e-002 -2.164966e-016
      outer loop
         vertex 1.192560e+001 4.952162e+000 8.148440e+000
         vertex 1.184415e+001 6.263251e+000 2.819741e+000
         vertex 1.192560e+001 4.952162e+000 3.322440e+000
      endloop
   endfacet
   facet normal -8.983727e-001 -4.392341e-001 -1.533578e-015
      outer loop
         vertex 1.192560e+001 4.952162e+000 8.148440e+000
         vertex 1.192560e+001 4.952162e+000 3.322440e+000
         vertex 1.307957e+001 2.591927e+000 8.148440e+000
      endloop
   endfacet
   facet normal -8.983727e-001 -4.392341e-001 -1.533578e-015
      outer loop
         vertex 1.307957e+001 2.591927e+000 8.148440e+000
         vertex 1.192560e+001 4.952162e+000 3.322440e+000
         vertex 1.307957e+001 2.591927e+000 3.322440e+000
      endloop
   endfacet
   facet normal -6.619005e-001 -7.495917e-001 -2.617187e-015
      outer loop
         vertex 1.307957e+001 2.591927e+000 8.148440e+000
         vertex 1.307957e+001 2.591927e+000 3.322440e+000
         vertex 1.504893e+001 8.529583e-001 8.148440e+000
      endloop
   endfacet
   facet normal -6.619005e-001 -7.495917e-001 -2.617187e-015
      outer loop
         vertex 1.504893e+001 8.529583e-001 8.148440e+000
         vertex 1.307957e+001 2.591927e+000 3.322440e+000
         vertex 1.504893e+001 8.529583e-001 3.322440e+000
      endloop
   endfacet
   facet normal -3.246600e-001 -9.458308e-001 -3.302353e-015
      outer loop
         vertex 1.504893e+001 8.529583e-001 8.148440e+000
         vertex 1.504893e+001 8.529583e-001 3.322440e+000
         vertex 1.753385e+001 0.000000e+000 8.148440e+000
      endloop
   endfacet
   facet normal -3.246600e-001 -9.458308e-001 -3.302353e-015
      outer loop
         vertex 1.753385e+001 0.000000e+000 8.148440e+000
         vertex 1.504893e+001 8.529583e-001 3.322440e+000
         vertex 1.753385e+001 0.000000e+000 3.322440e+000
      endloop
   endfacet
   facet normal 6.200704e-002 -9.980757e-001 -3.484764e-015
      outer loop
         vertex 1.753385e+001 0.000000e+000 8.148440e+000
         vertex 1.753385e+001 0.000000e+000 3.322440e+000
         vertex 2.015602e+001 1.629079e-001 8.148440e+000
      endloop
   endfacet
   facet normal 6.200704e-002 -9.980757e-001 -3.484764e-015
      outer loop
         vertex 2.015602e+001 1.629079e-001 8.148440e+000
         vertex 1.753385e+001 0.000000e+000 3.322440e+000
         vertex 2.015602e+001 1.629079e-001 3.322440e+000
      endloop
   endfacet
   facet normal 4.392341e-001 -8.983727e-001 -3.136653e-015
      outer loop
         vertex 2.015602e+001 1.629079e-001 8.148440e+000
         vertex 2.015602e+001 1.629079e-001 3.322440e+000
         vertex 2.251626e+001 1.316878e+000 8.148440e+000
      endloop
   endfacet
   facet normal 4.392341e-001 -8.983727e-001 -3.136653e-015
      outer loop
         vertex 2.251626e+001 1.316878e+000 8.148440e+000
         vertex 2.015602e+001 1.629079e-001 3.322440e+000
         vertex 2.251626e+001 1.316878e+000 3.322440e+000
      endloop
   endfacet
   facet normal 7.495917e-001 -6.619005e-001 -2.311014e-015
      outer loop
         vertex 2.251626e+001 1.316878e+000 8.148440e+000
         vertex 2.251626e+001 1.316878e+000 3.322440e+000
         vertex 2.425523e+001 3.286231e+000 8.148440e+000
      endloop
   endfacet
   facet normal 7.495917e-001 -6.619005e-001 -2.311014e-015
      outer loop
         vertex 2.425523e+001 3.286231e+000 8.148440e+000
         vertex 2.251626e+001 1.316878e+000 3.322440e+000
         vertex 2.425523e+001 3.286231e+000 3.322440e+000
      endloop
   endfacet
   facet normal 9.458308e-001 -3.246600e-001 -1.133545e-015
      outer loop
         vertex 2.425523e+001 3.286231e+000 8.148440e+000
         vertex 2.425523e+001 3.286231e+000 3.322440e+000
         vertex 2.510819e+001 5.771151e+000 8.148440e+000
      endloop
   endfacet
   facet normal 9.458308e-001 -3.246600e-001 -1.133545e-015
      outer loop
         vertex 2.510819e+001 5.771151e+000 8.148440e+000
         vertex 2.425523e+001 3.286231e+000 3.322440e+000
         vertex 2.510819e+001 5.771151e+000 3.322440e+000
      endloop
   endfacet
   facet normal 1.000000e+000 1.063831e-015 3.714348e-030
      outer loop
         vertex 2.510819e+001 5.771151e+000 8.148440e+000
         vertex 2.510819e+001 5.771151e+000 3.322440e+000
         vertex 2.510819e+001 7.727043e+000 8.783440e+000
      endloop
   endfacet
   facet normal 1.000000e+000 1.063831e-015 3.714348e-030
      outer loop
         vertex 2.510819e+001 7.727043e+000 8.783440e+000
         vertex 2.510819e+001 5.771151e+000 3.322440e+000
         vertex 2.510819e+001 7.727043e+000 2.687440e+000
      endloop
   endfacet
   facet normal 1.000000e+000 1.063831e-015 3.714348e-030
      outer loop
         vertex 2.510819e+001 7.727043e+000 8.783440e+000
         vertex 2.510819e+001 7.727043e+000 2.687440e+000
         vertex 2.510819e+001 9.847746e+000 8.783440e+000
      endloop
   endfacet
   facet normal 1.000000e+000 1.063831e-015 3.714348e-030
      outer loop
         vertex 2.510819e+001 9.847746e+000 8.783440e+000
         vertex 2.510819e+001 7.727043e+000 2.687440e+000
         vertex 2.510819e+001 9.847746e+000 2.687440e+000
      endloop
   endfacet
   facet normal -1.000000e+000 5.502616e-016 1.921229e-030
      outer loop
         vertex 1.183637e+001 6.695202e+000 8.783440e+000
         vertex 1.183637e+001 9.847746e+000 8.783440e+000
         vertex 1.183637e+001 6.695202e+000 2.687440e+000
      endloop
   endfacet
   facet normal -1.000000e+000 5.502616e-016 1.921229e-030
      outer loop
         vertex 1.183637e+001 6.695202e+000 2.687440e+000
         vertex 1.183637e+001 9.847746e+000 8.783440e+000
         vertex 1.183637e+001 9.847746e+000 2.687440e+000
      endloop
   endfacet
   facet normal -9.998377e-001 -1.801616e-002 -6.290312e-017
      outer loop
         vertex 1.183637e+001 6.695202e+000 8.783440e+000
         vertex 1.183637e+001 6.695202e+000 2.687440e+000
         vertex 1.183851e+001 6.575984e+000 8.783440e+000
      endloop
   endfacet
   facet normal -9.998377e-001 -1.801616e-002 -6.290312e-017
      outer loop
         vertex 1.183851e+001 6.575984e+000 8.783440e+000
         vertex 1.183637e+001 6.695202e+000 2.687440e+000
         vertex 1.183851e+001 6.575984e+000 2.687440e+000
      endloop
   endfacet
   facet normal -9.998377e-001 -1.801616e-002 -6.290312e-017
      outer loop
         vertex 1.183851e+001 6.575984e+000 8.783440e+000
         vertex 1.183851e+001 6.575984e+000 2.687440e+000
         vertex 1.184415e+001 6.263251e+000 8.651139e+000
      endloop
   endfacet
   facet normal -9.998377e-001 -1.801616e-002 -6.290312e-017
      outer loop
         vertex 1.184415e+001 6.263251e+000 8.651139e+000
         vertex 1.183851e+001 6.575984e+000 2.687440e+000
         vertex 1.184415e+001 6.263251e+000 2.819741e+000
      endloop
   endfacet
   facet normal 3.417351e-001 9.397963e-001 3.281283e-015
      outer loop
         vertex 1.717654e+001 4.596722e+000 8.783440e+000
         vertex 1.806683e+001 4.272990e+000 8.783440e+000
         vertex 1.717654e+001 4.596722e+000 2.687440e+000
      endloop
   endfacet
   facet normal 3.417351e-001 9.397963e-001 3.281283e-015
      outer loop
         vertex 1.717654e+001 4.596722e+000 2.687440e+000
         vertex 1.806683e+001 4.272990e+000 8.783440e+000
         vertex 1.806683e+001 4.272990e+000 2.687440e+000
      endloop
   endfacet
   facet normal -4.392239e-002 9.990349e-001 3.488114e-015
      outer loop
         vertex 1.806683e+001 4.272990e+000 8.783440e+000
         vertex 1.901323e+001 4.314599e+000 8.783440e+000
         vertex 1.806683e+001 4.272990e+000 2.687440e+000
      endloop
   endfacet
   facet normal -4.392239e-002 9.990349e-001 3.488114e-015
      outer loop
         vertex 1.806683e+001 4.272990e+000 2.687440e+000
         vertex 1.901323e+001 4.314599e+000 8.783440e+000
         vertex 1.901323e+001 4.314599e+000 2.687440e+000
      endloop
   endfacet
   facet normal -4.228931e-001 9.061795e-001 3.163911e-015
      outer loop
         vertex 1.901323e+001 4.314599e+000 8.783440e+000
         vertex 1.987168e+001 4.715214e+000 8.783440e+000
         vertex 1.901323e+001 4.314599e+000 2.687440e+000
      endloop
   endfacet
   facet normal -4.228931e-001 9.061795e-001 3.163911e-015
      outer loop
         vertex 1.901323e+001 4.314599e+000 2.687440e+000
         vertex 1.987168e+001 4.715214e+000 8.783440e+000
         vertex 1.987168e+001 4.715214e+000 2.687440e+000
      endloop
   endfacet
   facet normal -7.374822e-001 6.753666e-001 2.358031e-015
      outer loop
         vertex 1.987168e+001 4.715214e+000 8.783440e+000
         vertex 2.051147e+001 5.413845e+000 8.783440e+000
         vertex 1.987168e+001 4.715214e+000 2.687440e+000
      endloop
   endfacet
   facet normal -7.374822e-001 6.753666e-001 2.358031e-015
      outer loop
         vertex 1.987168e+001 4.715214e+000 2.687440e+000
         vertex 2.051147e+001 5.413845e+000 8.783440e+000
         vertex 2.051147e+001 5.413845e+000 2.687440e+000
      endloop
   endfacet
   facet normal -9.397963e-001 3.417351e-001 1.193162e-015
      outer loop
         vertex 2.051147e+001 5.413845e+000 8.783440e+000
         vertex 2.083520e+001 6.304133e+000 8.783440e+000
         vertex 2.051147e+001 5.413845e+000 2.687440e+000
      endloop
   endfacet
   facet normal -9.397963e-001 3.417351e-001 1.193162e-015
      outer loop
         vertex 2.051147e+001 5.413845e+000 2.687440e+000
         vertex 2.083520e+001 6.304133e+000 8.783440e+000
         vertex 2.083520e+001 6.304133e+000 2.687440e+000
      endloop
   endfacet
   facet normal -9.990349e-001 -4.392239e-002 -1.533543e-016
      outer loop
         vertex 2.083520e+001 6.304133e+000 8.783440e+000
         vertex 2.079359e+001 7.250539e+000 8.783440e+000
         vertex 2.083520e+001 6.304133e+000 2.687440e+000
      endloop
   endfacet
   facet normal -9.990349e-001 -4.392239e-002 -1.533543e-016
      outer loop
         vertex 2.083520e+001 6.304133e+000 2.687440e+000
         vertex 2.079359e+001 7.250539e+000 8.783440e+000
         vertex 2.079359e+001 7.250539e+000 2.687440e+000
      endloop
   endfacet
   facet normal -9.061795e-001 -4.228931e-001 -1.476524e-015
      outer loop
         vertex 2.079359e+001 7.250539e+000 8.783440e+000
         vertex 2.039297e+001 8.108981e+000 8.783440e+000
         vertex 2.079359e+001 7.250539e+000 2.687440e+000
      endloop
   endfacet
   facet normal -9.061795e-001 -4.228931e-001 -1.476524e-015
      outer loop
         vertex 2.079359e+001 7.250539e+000 2.687440e+000
         vertex 2.039297e+001 8.108981e+000 8.783440e+000
         vertex 2.039297e+001 8.108981e+000 2.687440e+000
      endloop
   endfacet
   facet normal -6.753666e-001 -7.374822e-001 -2.574907e-015
      outer loop
         vertex 2.039297e+001 8.108981e+000 8.783440e+000
         vertex 1.969434e+001 8.748770e+000 8.783440e+000
         vertex 2.039297e+001 8.108981e+000 2.687440e+000
      endloop
   endfacet
   facet normal -6.753666e-001 -7.374822e-001 -2.574907e-015
      outer loop
         vertex 2.039297e+001 8.108981e+000 2.687440e+000
         vertex 1.969434e+001 8.748770e+000 8.783440e+000
         vertex 1.969434e+001 8.748770e+000 2.687440e+000
      endloop
   endfacet
   facet normal -3.417351e-001 -9.397963e-001 -3.281283e-015
      outer loop
         vertex 1.969434e+001 8.748770e+000 8.783440e+000
         vertex 1.880405e+001 9.072502e+000 8.783440e+000
         vertex 1.969434e+001 8.748770e+000 2.687440e+000
      endloop
   endfacet
   facet normal -3.417351e-001 -9.397963e-001 -3.281283e-015
      outer loop
         vertex 1.969434e+001 8.748770e+000 2.687440e+000
         vertex 1.880405e+001 9.072502e+000 8.783440e+000
         vertex 1.880405e+001 9.072502e+000 2.687440e+000
      endloop
   endfacet
   facet normal 4.392239e-002 -9.990349e-001 -3.488114e-015
      outer loop
         vertex 1.880405e+001 9.072502e+000 8.783440e+000
         vertex 1.785765e+001 9.030893e+000 8.783440e+000
         vertex 1.880405e+001 9.072502e+000 2.687440e+000
      endloop
   endfacet
   facet normal 4.392239e-002 -9.990349e-001 -3.488114e-015
      outer loop
         vertex 1.880405e+001 9.072502e+000 2.687440e+000
         vertex 1.785765e+001 9.030893e+000 8.783440e+000
         vertex 1.785765e+001 9.030893e+000 2.687440e+000
      endloop
   endfacet
   facet normal 4.228931e-001 -9.061795e-001 -3.163911e-015
      outer loop
         vertex 1.785765e+001 9.030893e+000 8.783440e+000
         vertex 1.699920e+001 8.630279e+000 8.783440e+000
         vertex 1.785765e+001 9.030893e+000 2.687440e+000
      endloop
   endfacet
   facet normal 4.228931e-001 -9.061795e-001 -3.163911e-015
      outer loop
         vertex 1.785765e+001 9.030893e+000 2.687440e+000
         vertex 1.699920e+001 8.630279e+000 8.783440e+000
         vertex 1.699920e+001 8.630279e+000 2.687440e+000
      endloop
   endfacet
   facet normal 7.374822e-001 -6.753666e-001 -2.358031e-015
      outer loop
         vertex 1.699920e+001 8.630279e+000 8.783440e+000
         vertex 1.635942e+001 7.931647e+000 8.783440e+000
         vertex 1.699920e+001 8.630279e+000 2.687440e+000
      endloop
   endfacet
   facet normal 7.374822e-001 -6.753666e-001 -2.358031e-015
      outer loop
         vertex 1.699920e+001 8.630279e+000 2.687440e+000
         vertex 1.635942e+001 7.931647e+000 8.783440e+000
         vertex 1.635942e+001 7.931647e+000 2.687440e+000
      endloop
   endfacet
   facet normal 9.397963e-001 -3.417351e-001 -1.193162e-015
      outer loop
         vertex 1.635942e+001 7.931647e+000 8.783440e+000
         vertex 1.603568e+001 7.041359e+000 8.783440e+000
         vertex 1.635942e+001 7.931647e+000 2.687440e+000
      endloop
   endfacet
   facet normal 9.397963e-001 -3.417351e-001 -1.193162e-015
      outer loop
         vertex 1.635942e+001 7.931647e+000 2.687440e+000
         vertex 1.603568e+001 7.041359e+000 8.783440e+000
         vertex 1.603568e+001 7.041359e+000 2.687440e+000
      endloop
   endfacet
   facet normal 9.990349e-001 4.392239e-002 1.533543e-016
      outer loop
         vertex 1.603568e+001 7.041359e+000 8.783440e+000
         vertex 1.607729e+001 6.094953e+000 8.783440e+000
         vertex 1.603568e+001 7.041359e+000 2.687440e+000
      endloop
   endfacet
   facet normal 9.990349e-001 4.392239e-002 1.533543e-016
      outer loop
         vertex 1.603568e+001 7.041359e+000 2.687440e+000
         vertex 1.607729e+001 6.094953e+000 8.783440e+000
         vertex 1.607729e+001 6.094953e+000 2.687440e+000
      endloop
   endfacet
   facet normal 9.061795e-001 4.228931e-001 1.476524e-015
      outer loop
         vertex 1.607729e+001 6.094953e+000 8.783440e+000
         vertex 1.647791e+001 5.236511e+000 8.783440e+000
         vertex 1.607729e+001 6.094953e+000 2.687440e+000
      endloop
   endfacet
   facet normal 9.061795e-001 4.228931e-001 1.476524e-015
      outer loop
         vertex 1.607729e+001 6.094953e+000 2.687440e+000
         vertex 1.647791e+001 5.236511e+000 8.783440e+000
         vertex 1.647791e+001 5.236511e+000 2.687440e+000
      endloop
   endfacet
   facet normal 6.753666e-001 7.374822e-001 2.574907e-015
      outer loop
         vertex 1.647791e+001 5.236511e+000 8.783440e+000
         vertex 1.717654e+001 4.596722e+000 8.783440e+000
         vertex 1.647791e+001 5.236511e+000 2.687440e+000
      endloop
   endfacet
   facet normal 6.753666e-001 7.374822e-001 2.574907e-015
      outer loop
         vertex 1.647791e+001 5.236511e+000 2.687440e+000
         vertex 1.717654e+001 4.596722e+000 8.783440e+000
         vertex 1.717654e+001 4.596722e+000 2.687440e+000
      endloop
   endfacet
   facet normal -6.352454e-001 -3.105854e-001 -7.071068e-001
      outer loop
         vertex 1.183851e+001 6.575984e+000 2.687440e+000
         vertex 1.359456e+001 2.984312e+000 2.687440e+000
         vertex 1.184415e+001 6.263251e+000 2.819741e+000
      endloop
   endfacet
   facet normal -6.352454e-001 -3.105854e-001 -7.071068e-001
      outer loop
         vertex 1.184415e+001 6.263251e+000 2.819741e+000
         vertex 1.359456e+001 2.984312e+000 2.687440e+000
         vertex 1.307957e+001 2.591927e+000 3.322440e+000
      endloop
   endfacet
   facet normal -6.352454e-001 -3.105854e-001 -7.071068e-001
      outer loop
         vertex 1.184415e+001 6.263251e+000 2.819741e+000
         vertex 1.307957e+001 2.591927e+000 3.322440e+000
         vertex 1.192560e+001 4.952162e+000 3.322440e+000
      endloop
   endfacet
   facet normal -4.680343e-001 -5.300414e-001 -7.071068e-001
      outer loop
         vertex 1.537455e+001 1.412554e+000 2.687440e+000
         vertex 1.504893e+001 8.529583e-001 3.322440e+000
         vertex 1.359456e+001 2.984312e+000 2.687440e+000
      endloop
   endfacet
   facet normal -4.680343e-001 -5.300414e-001 -7.071068e-001
      outer loop
         vertex 1.359456e+001 2.984312e+000 2.687440e+000
         vertex 1.504893e+001 8.529583e-001 3.322440e+000
         vertex 1.307957e+001 2.591927e+000 3.322440e+000
      endloop
   endfacet
   facet normal -2.295693e-001 -6.688034e-001 -7.071067e-001
      outer loop
         vertex 1.762054e+001 6.416105e-001 2.687440e+000
         vertex 1.753385e+001 0.000000e+000 3.322440e+000
         vertex 1.537455e+001 1.412554e+000 2.687440e+000
      endloop
   endfacet
   facet normal -2.295693e-001 -6.688034e-001 -7.071067e-001
      outer loop
         vertex 1.537455e+001 1.412554e+000 2.687440e+000
         vertex 1.753385e+001 0.000000e+000 3.322440e+000
         vertex 1.504893e+001 8.529583e-001 3.322440e+000
      endloop
   endfacet
   facet normal 4.384560e-002 -7.057461e-001 -7.071068e-001
      outer loop
         vertex 1.999058e+001 7.888535e-001 2.687440e+000
         vertex 2.015602e+001 1.629079e-001 3.322440e+000
         vertex 1.762054e+001 6.416105e-001 2.687440e+000
      endloop
   endfacet
   facet normal 4.384560e-002 -7.057461e-001 -7.071068e-001
      outer loop
         vertex 1.762054e+001 6.416105e-001 2.687440e+000
         vertex 2.015602e+001 1.629079e-001 3.322440e+000
         vertex 1.753385e+001 0.000000e+000 3.322440e+000
      endloop
   endfacet
   facet normal 3.105854e-001 -6.352454e-001 -7.071068e-001
      outer loop
         vertex 2.212387e+001 1.831866e+000 2.687440e+000
         vertex 2.251626e+001 1.316878e+000 3.322440e+000
         vertex 1.999058e+001 7.888535e-001 2.687440e+000
      endloop
   endfacet
   facet normal 3.105854e-001 -6.352454e-001 -7.071068e-001
      outer loop
         vertex 1.999058e+001 7.888535e-001 2.687440e+000
         vertex 2.251626e+001 1.316878e+000 3.322440e+000
         vertex 2.015602e+001 1.629079e-001 3.322440e+000
      endloop
   endfacet
   facet normal 5.300414e-001 -4.680343e-001 -7.071068e-001
      outer loop
         vertex 2.369563e+001 3.611858e+000 2.687440e+000
         vertex 2.425523e+001 3.286231e+000 3.322440e+000
         vertex 2.212387e+001 1.831866e+000 2.687440e+000
      endloop
   endfacet
   facet normal 5.300414e-001 -4.680343e-001 -7.071068e-001
      outer loop
         vertex 2.212387e+001 1.831866e+000 2.687440e+000
         vertex 2.425523e+001 3.286231e+000 3.322440e+000
         vertex 2.251626e+001 1.316878e+000 3.322440e+000
      endloop
   endfacet
   facet normal 6.688034e-001 -2.295693e-001 -7.071067e-001
      outer loop
         vertex 2.425523e+001 3.286231e+000 3.322440e+000
         vertex 2.369563e+001 3.611858e+000 2.687440e+000
         vertex 2.510819e+001 5.771151e+000 3.322440e+000
      endloop
   endfacet
   facet normal 6.688034e-001 -2.295693e-001 -7.071067e-001
      outer loop
         vertex 2.510819e+001 5.771151e+000 3.322440e+000
         vertex 2.369563e+001 3.611858e+000 2.687440e+000
         vertex 2.510819e+001 7.727043e+000 2.687440e+000
      endloop
   endfacet
   facet normal -6.352454e-001 -3.105854e-001 7.071068e-001
      outer loop
         vertex 1.192560e+001 4.952162e+000 8.148440e+000
         vertex 1.307957e+001 2.591927e+000 8.148440e+000
         vertex 1.184415e+001 6.263251e+000 8.651139e+000
      endloop
   endfacet
   facet normal -6.352454e-001 -3.105854e-001 7.071068e-001
      outer loop
         vertex 1.184415e+001 6.263251e+000 8.651139e+000
         vertex 1.307957e+001 2.591927e+000 8.148440e+000
         vertex 1.359456e+001 2.984312e+000 8.783440e+000
      endloop
   endfacet
   facet normal -6.352454e-001 -3.105854e-001 7.071068e-001
      outer loop
         vertex 1.184415e+001 6.263251e+000 8.651139e+000
         vertex 1.359456e+001 2.984312e+000 8.783440e+000
         vertex 1.183851e+001 6.575984e+000 8.783440e+000
      endloop
   endfacet
   facet normal -4.680343e-001 -5.300414e-001 7.071068e-001
      outer loop
         vertex 1.504893e+001 8.529583e-001 8.148440e+000
         vertex 1.537455e+001 1.412554e+000 8.783440e+000
         vertex 1.307957e+001 2.591927e+000 8.148440e+000
      endloop
   endfacet
   facet normal -4.680343e-001 -5.300414e-001 7.071068e-001
      outer loop
         vertex 1.307957e+001 2.591927e+000 8.148440e+000
         vertex 1.537455e+001 1.412554e+000 8.783440e+000
         vertex 1.359456e+001 2.984312e+000 8.783440e+000
      endloop
   endfacet
   facet normal -2.295693e-001 -6.688034e-001 7.071067e-001
      outer loop
         vertex 1.753385e+001 0.000000e+000 8.148440e+000
         vertex 1.762054e+001 6.416105e-001 8.783440e+000
         vertex 1.504893e+001 8.529583e-001 8.148440e+000
      endloop
   endfacet
   facet normal -2.295693e-001 -6.688034e-001 7.071067e-001
      outer loop
         vertex 1.504893e+001 8.529583e-001 8.148440e+000
         vertex 1.762054e+001 6.416105e-001 8.783440e+000
         vertex 1.537455e+001 1.412554e+000 8.783440e+000
      endloop
   endfacet
   facet normal 4.384560e-002 -7.057461e-001 7.071068e-001
      outer loop
         vertex 2.015602e+001 1.629079e-001 8.148440e+000
         vertex 1.999058e+001 7.888535e-001 8.783440e+000
         vertex 1.753385e+001 0.000000e+000 8.148440e+000
      endloop
   endfacet
   facet normal 4.384560e-002 -7.057461e-001 7.071068e-001
      outer loop
         vertex 1.753385e+001 0.000000e+000 8.148440e+000
         vertex 1.999058e+001 7.888535e-001 8.783440e+000
         vertex 1.762054e+001 6.416105e-001 8.783440e+000
      endloop
   endfacet
   facet normal 3.105854e-001 -6.352454e-001 7.071068e-001
      outer loop
         vertex 2.251626e+001 1.316878e+000 8.148440e+000
         vertex 2.212387e+001 1.831866e+000 8.783440e+000
         vertex 2.015602e+001 1.629079e-001 8.148440e+000
      endloop
   endfacet
   facet normal 3.105854e-001 -6.352454e-001 7.071068e-001
      outer loop
         vertex 2.015602e+001 1.629079e-001 8.148440e+000
         vertex 2.212387e+001 1.831866e+000 8.783440e+000
         vertex 1.999058e+001 7.888535e-001 8.783440e+000
      endloop
   endfacet
   facet normal 5.300414e-001 -4.680343e-001 7.071068e-001
      outer loop
         vertex 2.425523e+001 3.286231e+000 8.148440e+000
         vertex 2.369563e+001 3.611858e+000 8.783440e+000
         vertex 2.251626e+001 1.316878e+000 8.148440e+000
      endloop
   endfacet
   facet normal 5.300414e-001 -4.680343e-001 7.071068e-001
      outer loop
         vertex 2.251626e+001 1.316878e+000 8.148440e+000
         vertex 2.369563e+001 3.611858e+000 8.783440e+000
         vertex 2.212387e+001 1.831866e+000 8.783440e+000
      endloop
   endfacet
   facet normal 6.688034e-001 -2.295693e-001 7.071067e-001
      outer loop
         vertex 2.369563e+001 3.611858e+000 8.783440e+000
         vertex 2.425523e+001 3.286231e+000 8.148440e+000
         vertex 2.510819e+001 7.727043e+000 8.783440e+000
      endloop
   endfacet
   facet normal 6.688034e-001 -2.295693e-001 7.071067e-001
      outer loop
         vertex 2.510819e+001 7.727043e+000 8.783440e+000
         vertex 2.425523e+001 3.286231e+000 8.148440e+000
         vertex 2.510819e+001 5.771151e+000 8.148440e+000
      endloop
   endfacet
endsolid