solid VexF_Washer
   facet normal 9.996397e-001 2.684154e-002 0.000000e+000
      outer loop
         vertex 1.267941e+001 6.860962e+000 5.080000e-001
         vertex 1.270000e+001 6.350000e+000 5.080000e-001
         vertex 1.270000e+001 6.350000e+000 0.000000e+000
      endloop
   endfacet
   facet normal 9.996397e-001 -2.684154e-002 0.000000e+000
      outer loop
         vertex 1.270000e+001 6.350000e+000 0.000000e+000
         vertex 1.270000e+001 6.350000e+000 5.080000e-001
         vertex 1.267941e+001 5.839037e+000 0.000000e+000
      endloop
   endfacet
   facet normal 9.985580e-001 5.368308e-002 0.000000e+000
      outer loop
         vertex 1.270000e+001 6.350000e+000 0.000000e+000
         vertex 1.267941e+001 6.860962e+000 0.000000e+000
         vertex 1.267941e+001 6.860962e+000 5.080000e-001
      endloop
   endfacet
   facet normal 9.910081e-001 1.338019e-001 0.000000e+000
      outer loop
         vertex 1.267941e+001 6.860962e+000 5.080000e-001
         vertex 1.267941e+001 6.860962e+000 0.000000e+000
         vertex 1.251548e+001 7.869654e+000 0.000000e+000
      endloop
   endfacet
   facet normal 9.823781e-001 1.869046e-001 0.000000e+000
      outer loop
         vertex 1.267941e+001 6.860962e+000 5.080000e-001
         vertex 1.251548e+001 7.869654e+000 0.000000e+000
         vertex 1.251548e+001 7.869654e+000 5.080000e-001
      endloop
   endfacet
   facet normal 9.567115e-001 2.910380e-001 0.000000e+000
      outer loop
         vertex 1.251548e+001 7.869654e+000 5.080000e-001
         vertex 1.251548e+001 7.869654e+000 0.000000e+000
         vertex 1.219187e+001 8.838988e+000 0.000000e+000
      endloop
   endfacet
   facet normal 9.396749e-001 3.420688e-001 0.000000e+000
      outer loop
         vertex 1.251548e+001 7.869654e+000 5.080000e-001
         vertex 1.219187e+001 8.838988e+000 0.000000e+000
         vertex 1.219187e+001 8.838988e+000 5.080000e-001
      endloop
   endfacet
   facet normal 8.976365e-001 4.407365e-001 0.000000e+000
      outer loop
         vertex 1.219187e+001 8.838988e+000 5.080000e-001
         vertex 1.219187e+001 8.838988e+000 0.000000e+000
         vertex 1.171696e+001 9.743858e+000 0.000000e+000
      endloop
   endfacet
   facet normal 8.726346e-001 4.883735e-001 0.000000e+000
      outer loop
         vertex 1.219187e+001 8.838988e+000 5.080000e-001
         vertex 1.171696e+001 9.743858e+000 0.000000e+000
         vertex 1.171696e+001 9.743858e+000 5.080000e-001
      endloop
   endfacet
   facet normal 8.153133e-001 5.790201e-001 0.000000e+000
      outer loop
         vertex 1.171696e+001 9.743858e+000 5.080000e-001
         vertex 1.171696e+001 9.743858e+000 0.000000e+000
         vertex 1.110304e+001 1.056083e+001 0.000000e+000
      endloop
   endfacet
   facet normal 7.829937e-001 6.220297e-001 0.000000e+000
      outer loop
         vertex 1.171696e+001 9.743858e+000 5.080000e-001
         vertex 1.110304e+001 1.056083e+001 0.000000e+000
         vertex 1.110304e+001 1.056083e+001 5.080000e-001
      endloop
   endfacet
   facet normal 7.118738e-001 7.023074e-001 0.000000e+000
      outer loop
         vertex 1.110304e+001 1.056083e+001 5.080000e-001
         vertex 1.110304e+001 1.056083e+001 0.000000e+000
         vertex 1.036603e+001 1.126874e+001 0.000000e+000
      endloop
   endfacet
   facet normal 6.730736e-001 7.395756e-001 0.000000e+000
      outer loop
         vertex 1.110304e+001 1.056083e+001 5.080000e-001
         vertex 1.036603e+001 1.126874e+001 0.000000e+000
         vertex 1.036603e+001 1.126874e+001 5.080000e-001
      endloop
   endfacet
   facet normal 5.899972e-001 8.074053e-001 0.000000e+000
      outer loop
         vertex 1.036603e+001 1.126874e+001 5.080000e-001
         vertex 1.036603e+001 1.126874e+001 0.000000e+000
         vertex 9.525001e+000 1.184926e+001 0.000000e+000
      endloop
   endfacet
   facet normal 5.457212e-001 8.379668e-001 0.000000e+000
      outer loop
         vertex 1.036603e+001 1.126874e+001 5.080000e-001
         vertex 9.525001e+000 1.184926e+001 0.000000e+000
         vertex 9.525001e+000 1.184926e+001 5.080000e-001
      endloop
   endfacet
   facet normal 4.528400e-001 8.915918e-001 0.000000e+000
      outer loop
         vertex 9.525001e+000 1.184926e+001 5.080000e-001
         vertex 9.525001e+000 1.184926e+001 0.000000e+000
         vertex 8.601741e+000 1.228735e+001 0.000000e+000
      endloop
   endfacet
   facet normal 4.042349e-001 9.146552e-001 0.000000e+000
      outer loop
         vertex 9.525001e+000 1.184926e+001 5.080000e-001
         vertex 8.601741e+000 1.228735e+001 0.000000e+000
         vertex 8.601741e+000 1.228735e+001 5.080000e-001
      endloop
   endfacet
   facet normal 3.039545e-001 9.526865e-001 0.000000e+000
      outer loop
         vertex 8.601741e+000 1.228735e+001 5.080000e-001
         vertex 8.601741e+000 1.228735e+001 0.000000e+000
         vertex 7.620163e+000 1.257167e+001 0.000000e+000
      endloop
   endfacet
   facet normal 2.522791e-001 9.676545e-001 0.000000e+000
      outer loop
         vertex 8.601741e+000 1.228735e+001 5.080000e-001
         vertex 7.620163e+000 1.257167e+001 0.000000e+000
         vertex 7.620163e+000 1.257167e+001 5.080000e-001
      endloop
   endfacet
   facet normal 1.471967e-001 9.891073e-001 0.000000e+000
      outer loop
         vertex 7.620163e+000 1.257167e+001 5.080000e-001
         vertex 7.620163e+000 1.257167e+001 0.000000e+000
         vertex 6.605689e+000 1.269485e+001 0.000000e+000
      endloop
   endfacet
   facet normal 9.378948e-002 9.955921e-001 0.000000e+000
      outer loop
         vertex 7.620163e+000 1.257167e+001 5.080000e-001
         vertex 6.605689e+000 1.269485e+001 0.000000e+000
         vertex 6.605689e+000 1.269485e+001 5.080000e-001
      endloop
   endfacet
   facet normal -1.337347e-002 9.999106e-001 0.000000e+000
      outer loop
         vertex 6.605689e+000 1.269485e+001 5.080000e-001
         vertex 6.605689e+000 1.269485e+001 0.000000e+000
         vertex 5.584592e+000 1.265370e+001 0.000000e+000
      endloop
   endfacet
   facet normal -6.712926e-002 9.977443e-001 0.000000e+000
      outer loop
         vertex 6.605689e+000 1.269485e+001 5.080000e-001
         vertex 5.584592e+000 1.265370e+001 0.000000e+000
         vertex 5.584592e+000 1.265370e+001 5.080000e-001
      endloop
   endfacet
   facet normal -1.735972e-001 9.848167e-001 0.000000e+000
      outer loop
         vertex 5.584592e+000 1.265370e+001 5.080000e-001
         vertex 5.584592e+000 1.265370e+001 0.000000e+000
         vertex 4.583319e+000 1.244929e+001 0.000000e+000
      endloop
   endfacet
   facet normal -2.263094e-001 9.740555e-001 0.000000e+000
      outer loop
         vertex 5.584592e+000 1.265370e+001 5.080000e-001
         vertex 4.583319e+000 1.244929e+001 0.000000e+000
         vertex 4.583319e+000 1.244929e+001 5.080000e-001
      endloop
   endfacet
   facet normal -3.293249e-001 9.442167e-001 0.000000e+000
      outer loop
         vertex 4.583319e+000 1.244929e+001 5.080000e-001
         vertex 4.583319e+000 1.244929e+001 0.000000e+000
         vertex 3.627802e+000 1.208691e+001 0.000000e+000
      endloop
   endfacet
   facet normal -3.796282e-001 9.251391e-001 0.000000e+000
      outer loop
         vertex 4.583319e+000 1.244929e+001 5.080000e-001
         vertex 3.627802e+000 1.208691e+001 0.000000e+000
         vertex 3.627802e+000 1.208691e+001 5.080000e-001
      endloop
   endfacet
   facet normal -4.765233e-001 8.791619e-001 0.000000e+000
      outer loop
         vertex 3.627802e+000 1.208691e+001 5.080000e-001
         vertex 3.627802e+000 1.208691e+001 0.000000e+000
         vertex 2.742789e+000 1.157595e+001 0.000000e+000
      endloop
   endfacet
   facet normal -5.231149e-001 8.522621e-001 0.000000e+000
      outer loop
         vertex 3.627802e+000 1.208691e+001 5.080000e-001
         vertex 2.742789e+000 1.157595e+001 0.000000e+000
         vertex 2.742789e+000 1.157595e+001 5.080000e-001
      endloop
   endfacet
   facet normal -6.113799e-001 7.913373e-001 0.000000e+000
      outer loop
         vertex 2.742789e+000 1.157595e+001 5.080000e-001
         vertex 2.742789e+000 1.157595e+001 0.000000e+000
         vertex 1.951200e+000 1.092964e+001 0.000000e+000
      endloop
   endfacet
   facet normal -6.530532e-001 7.573121e-001 0.000000e+000
      outer loop
         vertex 2.742789e+000 1.157595e+001 5.080000e-001
         vertex 1.951200e+000 1.092964e+001 0.000000e+000
         vertex 1.951200e+000 1.092964e+001 5.080000e-001
      endloop
   endfacet
   facet normal -7.304021e-001 6.830174e-001 0.000000e+000
      outer loop
         vertex 1.951200e+000 1.092964e+001 5.080000e-001
         vertex 1.951200e+000 1.092964e+001 0.000000e+000
         vertex 1.273538e+000 1.016471e+001 0.000000e+000
      endloop
   endfacet
   facet normal -7.660777e-001 6.427480e-001 0.000000e+000
      outer loop
         vertex 1.951200e+000 1.092964e+001 5.080000e-001
         vertex 1.273538e+000 1.016471e+001 0.000000e+000
         vertex 1.273538e+000 1.016471e+001 5.080000e-001
      endloop
   endfacet
   facet normal -8.305073e-001 5.570078e-001 0.000000e+000
      outer loop
         vertex 1.273538e+000 1.016471e+001 5.080000e-001
         vertex 1.273538e+000 1.016471e+001 0.000000e+000
         vertex 7.273541e-001 9.300992e+000 0.000000e+000
      endloop
   endfacet
   facet normal -8.592612e-001 5.115371e-001 0.000000e+000
      outer loop
         vertex 1.273538e+000 1.016471e+001 5.080000e-001
         vertex 7.273541e-001 9.300992e+000 0.000000e+000
         vertex 7.273541e-001 9.300992e+000 5.080000e-001
      endloop
   endfacet
   facet normal -9.091027e-001 4.165719e-001 0.000000e+000
      outer loop
         vertex 7.273541e-001 9.300992e+000 5.080000e-001
         vertex 7.273541e-001 9.300992e+000 0.000000e+000
         vertex 3.267936e-001 8.360843e+000 0.000000e+000
      endloop
   endfacet
   facet normal -9.301903e-001 3.670776e-001 0.000000e+000
      outer loop
         vertex 7.273541e-001 9.300992e+000 5.080000e-001
         vertex 3.267936e-001 8.360843e+000 0.000000e+000
         vertex 3.267936e-001 8.360843e+000 5.080000e-001
      endloop
   endfacet
   facet normal -9.641529e-001 2.653471e-001 0.000000e+000
      outer loop
         vertex 3.267936e-001 8.360843e+000 5.080000e-001
         vertex 3.267936e-001 8.360843e+000 0.000000e+000
         vertex 8.223066e-002 7.368612e+000 0.000000e+000
      endloop
   endfacet
   facet normal -9.770280e-001 2.131110e-001 0.000000e+000
      outer loop
         vertex 3.267936e-001 8.360843e+000 5.080000e-001
         vertex 8.223066e-002 7.368612e+000 0.000000e+000
         vertex 8.223066e-002 7.368612e+000 5.080000e-001
      endloop
   endfacet
   facet normal -9.942321e-001 1.072499e-001 0.000000e+000
      outer loop
         vertex 8.223066e-002 7.368612e+000 5.080000e-001
         vertex 8.223066e-002 7.368612e+000 0.000000e+000
         vertex 0.000000e+000 6.350000e+000 0.000000e+000
      endloop
   endfacet
   facet normal -9.985611e-001 5.362497e-002 0.000000e+000
      outer loop
         vertex 8.223066e-002 7.368612e+000 5.080000e-001
         vertex 0.000000e+000 6.350000e+000 0.000000e+000
         vertex 0.000000e+000 6.350000e+000 5.080000e-001
      endloop
   endfacet
   facet normal -9.985611e-001 -5.362497e-002 0.000000e+000
      outer loop
         vertex 0.000000e+000 6.350000e+000 5.080000e-001
         vertex 0.000000e+000 6.350000e+000 0.000000e+000
         vertex 8.223066e-002 5.331388e+000 0.000000e+000
      endloop
   endfacet
   facet normal -9.942321e-001 -1.072499e-001 0.000000e+000
      outer loop
         vertex 0.000000e+000 6.350000e+000 5.080000e-001
         vertex 8.223066e-002 5.331388e+000 0.000000e+000
         vertex 8.223066e-002 5.331388e+000 5.080000e-001
      endloop
   endfacet
   facet normal -9.770280e-001 -2.131110e-001 0.000000e+000
      outer loop
         vertex 8.223066e-002 5.331388e+000 5.080000e-001
         vertex 8.223066e-002 5.331388e+000 0.000000e+000
         vertex 3.267936e-001 4.339158e+000 0.000000e+000
      endloop
   endfacet
   facet normal -9.641529e-001 -2.653471e-001 0.000000e+000
      outer loop
         vertex 8.223066e-002 5.331388e+000 5.080000e-001
         vertex 3.267936e-001 4.339158e+000 0.000000e+000
         vertex 3.267936e-001 4.339158e+000 5.080000e-001
      endloop
   endfacet
   facet normal -9.301903e-001 -3.670776e-001 0.000000e+000
      outer loop
         vertex 3.267936e-001 4.339158e+000 5.080000e-001
         vertex 3.267936e-001 4.339158e+000 0.000000e+000
         vertex 7.273541e-001 3.399008e+000 0.000000e+000
      endloop
   endfacet
   facet normal -9.091027e-001 -4.165719e-001 0.000000e+000
      outer loop
         vertex 3.267936e-001 4.339158e+000 5.080000e-001
         vertex 7.273541e-001 3.399008e+000 0.000000e+000
         vertex 7.273541e-001 3.399008e+000 5.080000e-001
      endloop
   endfacet
   facet normal -8.592612e-001 -5.115371e-001 0.000000e+000
      outer loop
         vertex 7.273541e-001 3.399008e+000 5.080000e-001
         vertex 7.273541e-001 3.399008e+000 0.000000e+000
         vertex 1.273538e+000 2.535287e+000 0.000000e+000
      endloop
   endfacet
   facet normal -8.305073e-001 -5.570078e-001 0.000000e+000
      outer loop
         vertex 7.273541e-001 3.399008e+000 5.080000e-001
         vertex 1.273538e+000 2.535287e+000 0.000000e+000
         vertex 1.273538e+000 2.535287e+000 5.080000e-001
      endloop
   endfacet
   facet normal -7.660777e-001 -6.427480e-001 0.000000e+000
      outer loop
         vertex 1.273538e+000 2.535287e+000 5.080000e-001
         vertex 1.273538e+000 2.535287e+000 0.000000e+000
         vertex 1.951200e+000 1.770365e+000 0.000000e+000
      endloop
   endfacet
   facet normal -7.304021e-001 -6.830174e-001 0.000000e+000
      outer loop
         vertex 1.273538e+000 2.535287e+000 5.080000e-001
         vertex 1.951200e+000 1.770365e+000 0.000000e+000
         vertex 1.951200e+000 1.770365e+000 5.080000e-001
      endloop
   endfacet
   facet normal -6.530532e-001 -7.573121e-001 0.000000e+000
      outer loop
         vertex 1.951200e+000 1.770365e+000 5.080000e-001
         vertex 1.951200e+000 1.770365e+000 0.000000e+000
         vertex 2.742789e+000 1.124052e+000 0.000000e+000
      endloop
   endfacet
   facet normal -6.113799e-001 -7.913373e-001 0.000000e+000
      outer loop
         vertex 1.951200e+000 1.770365e+000 5.080000e-001
         vertex 2.742789e+000 1.124052e+000 0.000000e+000
         vertex 2.742789e+000 1.124052e+000 5.080000e-001
      endloop
   endfacet
   facet normal -5.231149e-001 -8.522621e-001 0.000000e+000
      outer loop
         vertex 2.742789e+000 1.124052e+000 5.080000e-001
         vertex 2.742789e+000 1.124052e+000 0.000000e+000
         vertex 3.627802e+000 6.130897e-001 0.000000e+000
      endloop
   endfacet
   facet normal -4.765233e-001 -8.791619e-001 0.000000e+000
      outer loop
         vertex 2.742789e+000 1.124052e+000 5.080000e-001
         vertex 3.627802e+000 6.130897e-001 0.000000e+000
         vertex 3.627802e+000 6.130897e-001 5.080000e-001
      endloop
   endfacet
   facet normal -3.796282e-001 -9.251391e-001 0.000000e+000
      outer loop
         vertex 3.627802e+000 6.130897e-001 5.080000e-001
         vertex 3.627802e+000 6.130897e-001 0.000000e+000
         vertex 4.583319e+000 2.507097e-001 0.000000e+000
      endloop
   endfacet
   facet normal -3.293249e-001 -9.442167e-001 0.000000e+000
      outer loop
         vertex 3.627802e+000 6.130897e-001 5.080000e-001
         vertex 4.583319e+000 2.507097e-001 0.000000e+000
         vertex 4.583319e+000 2.507097e-001 5.080000e-001
      endloop
   endfacet
   facet normal -2.263094e-001 -9.740555e-001 0.000000e+000
      outer loop
         vertex 4.583319e+000 2.507097e-001 5.080000e-001
         vertex 4.583319e+000 2.507097e-001 0.000000e+000
         vertex 5.584592e+000 4.629837e-002 0.000000e+000
      endloop
   endfacet
   facet normal -1.735972e-001 -9.848167e-001 0.000000e+000
      outer loop
         vertex 4.583319e+000 2.507097e-001 5.080000e-001
         vertex 5.584592e+000 4.629837e-002 0.000000e+000
         vertex 5.584592e+000 4.629837e-002 5.080000e-001
      endloop
   endfacet
   facet normal -6.712926e-002 -9.977443e-001 0.000000e+000
      outer loop
         vertex 5.584592e+000 4.629837e-002 5.080000e-001
         vertex 5.584592e+000 4.629837e-002 0.000000e+000
         vertex 6.605689e+000 5.149748e-003 0.000000e+000
      endloop
   endfacet
   facet normal -1.337347e-002 -9.999106e-001 0.000000e+000
      outer loop
         vertex 5.584592e+000 4.629837e-002 5.080000e-001
         vertex 6.605689e+000 5.149748e-003 0.000000e+000
         vertex 6.605689e+000 5.149748e-003 5.080000e-001
      endloop
   endfacet
   facet normal 9.378948e-002 -9.955921e-001 0.000000e+000
      outer loop
         vertex 6.605689e+000 5.149748e-003 5.080000e-001
         vertex 6.605689e+000 5.149748e-003 0.000000e+000
         vertex 7.620163e+000 1.283293e-001 0.000000e+000
      endloop
   endfacet
   facet normal 1.471967e-001 -9.891073e-001 0.000000e+000
      outer loop
         vertex 6.605689e+000 5.149748e-003 5.080000e-001
         vertex 7.620163e+000 1.283293e-001 0.000000e+000
         vertex 7.620163e+000 1.283293e-001 5.080000e-001
      endloop
   endfacet
   facet normal 2.522791e-001 -9.676545e-001 0.000000e+000
      outer loop
         vertex 7.620163e+000 1.283293e-001 5.080000e-001
         vertex 7.620163e+000 1.283293e-001 0.000000e+000
         vertex 8.601741e+000 4.126467e-001 0.000000e+000
      endloop
   endfacet
   facet normal 3.039545e-001 -9.526865e-001 0.000000e+000
      outer loop
         vertex 7.620163e+000 1.283293e-001 5.080000e-001
         vertex 8.601741e+000 4.126467e-001 0.000000e+000
         vertex 8.601741e+000 4.126467e-001 5.080000e-001
      endloop
   endfacet
   facet normal 4.042349e-001 -9.146552e-001 0.000000e+000
      outer loop
         vertex 8.601741e+000 4.126467e-001 5.080000e-001
         vertex 8.601741e+000 4.126467e-001 0.000000e+000
         vertex 9.525001e+000 8.507385e-001 0.000000e+000
      endloop
   endfacet
   facet normal 4.528400e-001 -8.915918e-001 0.000000e+000
      outer loop
         vertex 8.601741e+000 4.126467e-001 5.080000e-001
         vertex 9.525001e+000 8.507385e-001 0.000000e+000
         vertex 9.525001e+000 8.507385e-001 5.080000e-001
      endloop
   endfacet
   facet normal 5.457212e-001 -8.379668e-001 0.000000e+000
      outer loop
         vertex 9.525001e+000 8.507385e-001 5.080000e-001
         vertex 9.525001e+000 8.507385e-001 0.000000e+000
         vertex 1.036603e+001 1.431258e+000 0.000000e+000
      endloop
   endfacet
   facet normal 5.899972e-001 -8.074053e-001 0.000000e+000
      outer loop
         vertex 9.525001e+000 8.507385e-001 5.080000e-001
         vertex 1.036603e+001 1.431258e+000 0.000000e+000
         vertex 1.036603e+001 1.431258e+000 5.080000e-001
      endloop
   endfacet
   facet normal 6.730736e-001 -7.395756e-001 0.000000e+000
      outer loop
         vertex 1.036603e+001 1.431258e+000 5.080000e-001
         vertex 1.036603e+001 1.431258e+000 0.000000e+000
         vertex 1.110304e+001 2.139171e+000 0.000000e+000
      endloop
   endfacet
   facet normal 7.118738e-001 -7.023074e-001 0.000000e+000
      outer loop
         vertex 1.036603e+001 1.431258e+000 5.080000e-001
         vertex 1.110304e+001 2.139171e+000 0.000000e+000
         vertex 1.110304e+001 2.139171e+000 5.080000e-001
      endloop
   endfacet
   facet normal 7.829937e-001 -6.220297e-001 0.000000e+000
      outer loop
         vertex 1.110304e+001 2.139171e+000 5.080000e-001
         vertex 1.110304e+001 2.139171e+000 0.000000e+000
         vertex 1.171696e+001 2.956142e+000 0.000000e+000
      endloop
   endfacet
   facet normal 8.153133e-001 -5.790201e-001 0.000000e+000
      outer loop
         vertex 1.110304e+001 2.139171e+000 5.080000e-001
         vertex 1.171696e+001 2.956142e+000 0.000000e+000
         vertex 1.171696e+001 2.956142e+000 5.080000e-001
      endloop
   endfacet
   facet normal 8.726346e-001 -4.883735e-001 0.000000e+000
      outer loop
         vertex 1.171696e+001 2.956142e+000 5.080000e-001
         vertex 1.171696e+001 2.956142e+000 0.000000e+000
         vertex 1.219187e+001 3.861012e+000 0.000000e+000
      endloop
   endfacet
   facet normal 8.976365e-001 -4.407365e-001 0.000000e+000
      outer loop
         vertex 1.171696e+001 2.956142e+000 5.080000e-001
         vertex 1.219187e+001 3.861012e+000 0.000000e+000
         vertex 1.219187e+001 3.861012e+000 5.080000e-001
      endloop
   endfacet
   facet normal 9.396749e-001 -3.420688e-001 0.000000e+000
      outer loop
         vertex 1.219187e+001 3.861012e+000 5.080000e-001
         vertex 1.219187e+001 3.861012e+000 0.000000e+000
         vertex 1.251548e+001 4.830346e+000 0.000000e+000
      endloop
   endfacet
   facet normal 9.567115e-001 -2.910380e-001 0.000000e+000
      outer loop
         vertex 1.219187e+001 3.861012e+000 5.080000e-001
         vertex 1.251548e+001 4.830346e+000 0.000000e+000
         vertex 1.251548e+001 4.830346e+000 5.080000e-001
      endloop
   endfacet
   facet normal 9.823781e-001 -1.869046e-001 0.000000e+000
      outer loop
         vertex 1.251548e+001 4.830346e+000 5.080000e-001
         vertex 1.251548e+001 4.830346e+000 0.000000e+000
         vertex 1.267941e+001 5.839037e+000 0.000000e+000
      endloop
   endfacet
   facet normal 9.910081e-001 -1.338019e-001 0.000000e+000
      outer loop
         vertex 1.251548e+001 4.830346e+000 5.080000e-001
         vertex 1.267941e+001 5.839037e+000 0.000000e+000
         vertex 1.267941e+001 5.839037e+000 5.080000e-001
      endloop
   endfacet
   facet normal 9.985580e-001 -5.368308e-002 0.000000e+000
      outer loop
         vertex 1.267941e+001 5.839037e+000 5.080000e-001
         vertex 1.267941e+001 5.839037e+000 0.000000e+000
         vertex 1.270000e+001 6.350000e+000 5.080000e-001
      endloop
   endfacet
   facet normal 0.000000e+000 0.000000e+000 1.000000e+000
      outer loop
         vertex 1.267941e+001 5.839037e+000 5.080000e-001
         vertex 8.890000e+000 6.350000e+000 5.080000e-001
         vertex 8.810202e+000 5.718328e+000 5.080000e-001
      endloop
   endfacet
   facet normal 0.000000e+000 0.000000e+000 1.000000e+000
      outer loop
         vertex 8.575819e+000 5.126346e+000 5.080000e-001
         vertex 1.219187e+001 3.861012e+000 5.080000e-001
         vertex 8.810202e+000 5.718328e+000 5.080000e-001
      endloop
   endfacet
   facet normal 0.000000e+000 0.000000e+000 1.000000e+000
      outer loop
         vertex 8.810202e+000 5.718328e+000 5.080000e-001
         vertex 1.219187e+001 3.861012e+000 5.080000e-001
         vertex 1.251548e+001 4.830346e+000 5.080000e-001
      endloop
   endfacet
   facet normal 0.000000e+000 0.000000e+000 1.000000e+000
      outer loop
         vertex 8.810202e+000 5.718328e+000 5.080000e-001
         vertex 1.251548e+001 4.830346e+000 5.080000e-001
         vertex 1.267941e+001 5.839037e+000 5.080000e-001
      endloop
   endfacet
   facet normal 0.000000e+000 0.000000e+000 1.000000e+000
      outer loop
         vertex 5.268521e+000 4.051739e+000 5.080000e-001
         vertex 4.583319e+000 2.507097e-001 5.080000e-001
         vertex 5.874051e+000 3.854990e+000 5.080000e-001
      endloop
   endfacet
   facet normal 0.000000e+000 0.000000e+000 1.000000e+000
      outer loop
         vertex 5.874051e+000 3.854990e+000 5.080000e-001
         vertex 4.583319e+000 2.507097e-001 5.080000e-001
         vertex 5.584592e+000 4.629837e-002 5.080000e-001
      endloop
   endfacet
   facet normal 0.000000e+000 0.000000e+000 1.000000e+000
      outer loop
         vertex 5.874051e+000 3.854990e+000 5.080000e-001
         vertex 5.584592e+000 4.629837e-002 5.080000e-001
         vertex 6.509488e+000 3.815012e+000 5.080000e-001
      endloop
   endfacet
   facet normal 0.000000e+000 0.000000e+000 1.000000e+000
      outer loop
         vertex 7.711000e+000 4.205407e+000 5.080000e-001
         vertex 1.036603e+001 1.431258e+000 5.080000e-001
         vertex 8.201580e+000 4.611250e+000 5.080000e-001
      endloop
   endfacet
   facet normal 0.000000e+000 0.000000e+000 1.000000e+000
      outer loop
         vertex 8.201580e+000 4.611250e+000 5.080000e-001
         vertex 1.036603e+001 1.431258e+000 5.080000e-001
         vertex 1.110304e+001 2.139171e+000 5.080000e-001
      endloop
   endfacet
   facet normal 0.000000e+000 0.000000e+000 1.000000e+000
      outer loop
         vertex 8.201580e+000 4.611250e+000 5.080000e-001
         vertex 1.110304e+001 2.139171e+000 5.080000e-001
         vertex 8.575819e+000 5.126346e+000 5.080000e-001
      endloop
   endfacet
   facet normal 0.000000e+000 0.000000e+000 1.000000e+000
      outer loop
         vertex 8.575819e+000 5.126346e+000 5.080000e-001
         vertex 1.110304e+001 2.139171e+000 5.080000e-001
         vertex 1.171696e+001 2.956142e+000 5.080000e-001
      endloop
   endfacet
   facet normal 0.000000e+000 0.000000e+000 1.000000e+000
      outer loop
         vertex 8.575819e+000 5.126346e+000 5.080000e-001
         vertex 1.171696e+001 2.956142e+000 5.080000e-001
         vertex 1.219187e+001 3.861012e+000 5.080000e-001
      endloop
   endfacet
   facet normal 0.000000e+000 0.000000e+000 1.000000e+000
      outer loop
         vertex 5.584592e+000 4.629837e-002 5.080000e-001
         vertex 6.605689e+000 5.149748e-003 5.080000e-001
         vertex 6.509488e+000 3.815012e+000 5.080000e-001
      endloop
   endfacet
   facet normal 0.000000e+000 0.000000e+000 1.000000e+000
      outer loop
         vertex 6.509488e+000 3.815012e+000 5.080000e-001
         vertex 6.605689e+000 5.149748e-003 5.080000e-001
         vertex 7.620163e+000 1.283293e-001 5.080000e-001
      endloop
   endfacet
   facet normal 0.000000e+000 0.000000e+000 1.000000e+000
      outer loop
         vertex 6.509488e+000 3.815012e+000 5.080000e-001
         vertex 7.620163e+000 1.283293e-001 5.080000e-001
         vertex 7.134903e+000 3.934316e+000 5.080000e-001
      endloop
   endfacet
   facet normal 0.000000e+000 0.000000e+000 1.000000e+000
      outer loop
         vertex 7.134903e+000 3.934316e+000 5.080000e-001
         vertex 7.620163e+000 1.283293e-001 5.080000e-001
         vertex 8.601741e+000 4.126467e-001 5.080000e-001
      endloop
   endfacet
   facet normal 0.000000e+000 0.000000e+000 1.000000e+000
      outer loop
         vertex 7.134903e+000 3.934316e+000 5.080000e-001
         vertex 8.601741e+000 4.126467e-001 5.080000e-001
         vertex 7.711000e+000 4.205407e+000 5.080000e-001
      endloop
   endfacet
   facet normal 0.000000e+000 0.000000e+000 1.000000e+000
      outer loop
         vertex 7.711000e+000 4.205407e+000 5.080000e-001
         vertex 8.601741e+000 4.126467e-001 5.080000e-001
         vertex 9.525001e+000 8.507385e-001 5.080000e-001
      endloop
   endfacet
   facet normal 0.000000e+000 0.000000e+000 1.000000e+000
      outer loop
         vertex 7.711000e+000 4.205407e+000 5.080000e-001
         vertex 9.525001e+000 8.507385e-001 5.080000e-001
         vertex 1.036603e+001 1.431258e+000 5.080000e-001
      endloop
   endfacet
   facet normal 0.000000e+000 0.000000e+000 1.000000e+000
      outer loop
         vertex 4.730943e+000 4.392896e+000 5.080000e-001
         vertex 2.742789e+000 1.124052e+000 5.080000e-001
         vertex 5.268521e+000 4.051739e+000 5.080000e-001
      endloop
   endfacet
   facet normal 0.000000e+000 0.000000e+000 1.000000e+000
      outer loop
         vertex 5.268521e+000 4.051739e+000 5.080000e-001
         vertex 2.742789e+000 1.124052e+000 5.080000e-001
         vertex 3.627802e+000 6.130897e-001 5.080000e-001
      endloop
   endfacet
   facet normal 0.000000e+000 0.000000e+000 1.000000e+000
      outer loop
         vertex 5.268521e+000 4.051739e+000 5.080000e-001
         vertex 3.627802e+000 6.130897e-001 5.080000e-001
         vertex 4.583319e+000 2.507097e-001 5.080000e-001
      endloop
   endfacet
   facet normal 0.000000e+000 0.000000e+000 1.000000e+000
      outer loop
         vertex 3.988368e+000 5.414964e+000 5.080000e-001
         vertex 7.273541e-001 3.399008e+000 5.080000e-001
         vertex 4.295097e+000 4.857025e+000 5.080000e-001
      endloop
   endfacet
   facet normal 0.000000e+000 0.000000e+000 1.000000e+000
      outer loop
         vertex 4.295097e+000 4.857025e+000 5.080000e-001
         vertex 7.273541e-001 3.399008e+000 5.080000e-001
         vertex 1.273538e+000 2.535287e+000 5.080000e-001
      endloop
   endfacet
   facet normal 0.000000e+000 0.000000e+000 1.000000e+000
      outer loop
         vertex 4.295097e+000 4.857025e+000 5.080000e-001
         vertex 1.273538e+000 2.535287e+000 5.080000e-001
         vertex 4.730943e+000 4.392896e+000 5.080000e-001
      endloop
   endfacet
   facet normal 0.000000e+000 0.000000e+000 1.000000e+000
      outer loop
         vertex 4.730943e+000 4.392896e+000 5.080000e-001
         vertex 1.273538e+000 2.535287e+000 5.080000e-001
         vertex 1.951200e+000 1.770365e+000 5.080000e-001
      endloop
   endfacet
   facet normal 0.000000e+000 0.000000e+000 1.000000e+000
      outer loop
         vertex 4.730943e+000 4.392896e+000 5.080000e-001
         vertex 1.951200e+000 1.770365e+000 5.080000e-001
         vertex 2.742789e+000 1.124052e+000 5.080000e-001
      endloop
   endfacet
   facet normal 0.000000e+000 0.000000e+000 1.000000e+000
      outer loop
         vertex 4.295097e+000 7.842975e+000 5.080000e-001
         vertex 7.273541e-001 9.300992e+000 5.080000e-001
         vertex 3.988368e+000 7.285036e+000 5.080000e-001
      endloop
   endfacet
   facet normal 0.000000e+000 0.000000e+000 1.000000e+000
      outer loop
         vertex 3.988368e+000 7.285036e+000 5.080000e-001
         vertex 7.273541e-001 9.300992e+000 5.080000e-001
         vertex 3.267936e-001 8.360843e+000 5.080000e-001
      endloop
   endfacet
   facet normal 0.000000e+000 0.000000e+000 1.000000e+000
      outer loop
         vertex 3.988368e+000 7.285036e+000 5.080000e-001
         vertex 3.267936e-001 8.360843e+000 5.080000e-001
         vertex 3.830029e+000 6.668346e+000 5.080000e-001
      endloop
   endfacet
   facet normal 0.000000e+000 0.000000e+000 1.000000e+000
      outer loop
         vertex 5.268521e+000 8.648260e+000 5.080000e-001
         vertex 2.742789e+000 1.157595e+001 5.080000e-001
         vertex 4.730943e+000 8.307103e+000 5.080000e-001
      endloop
   endfacet
   facet normal 0.000000e+000 0.000000e+000 1.000000e+000
      outer loop
         vertex 4.730943e+000 8.307103e+000 5.080000e-001
         vertex 2.742789e+000 1.157595e+001 5.080000e-001
         vertex 1.951200e+000 1.092964e+001 5.080000e-001
      endloop
   endfacet
   facet normal 0.000000e+000 0.000000e+000 1.000000e+000
      outer loop
         vertex 4.730943e+000 8.307103e+000 5.080000e-001
         vertex 1.951200e+000 1.092964e+001 5.080000e-001
         vertex 4.295097e+000 7.842975e+000 5.080000e-001
      endloop
   endfacet
   facet normal 0.000000e+000 0.000000e+000 1.000000e+000
      outer loop
         vertex 4.295097e+000 7.842975e+000 5.080000e-001
         vertex 1.951200e+000 1.092964e+001 5.080000e-001
         vertex 1.273538e+000 1.016471e+001 5.080000e-001
      endloop
   endfacet
   facet normal 0.000000e+000 0.000000e+000 1.000000e+000
      outer loop
         vertex 4.295097e+000 7.842975e+000 5.080000e-001
         vertex 1.273538e+000 1.016471e+001 5.080000e-001
         vertex 7.273541e-001 9.300992e+000 5.080000e-001
      endloop
   endfacet
   facet normal 0.000000e+000 0.000000e+000 1.000000e+000
      outer loop
         vertex 7.134903e+000 8.765683e+000 5.080000e-001
         vertex 7.620163e+000 1.257167e+001 5.080000e-001
         vertex 6.509488e+000 8.884988e+000 5.080000e-001
      endloop
   endfacet
   facet normal 0.000000e+000 0.000000e+000 1.000000e+000
      outer loop
         vertex 6.509488e+000 8.884988e+000 5.080000e-001
         vertex 7.620163e+000 1.257167e+001 5.080000e-001
         vertex 6.605689e+000 1.269485e+001 5.080000e-001
      endloop
   endfacet
   facet normal 0.000000e+000 0.000000e+000 1.000000e+000
      outer loop
         vertex 6.509488e+000 8.884988e+000 5.080000e-001
         vertex 6.605689e+000 1.269485e+001 5.080000e-001
         vertex 5.874051e+000 8.845010e+000 5.080000e-001
      endloop
   endfacet
   facet normal 0.000000e+000 0.000000e+000 1.000000e+000
      outer loop
         vertex 1.267941e+001 5.839037e+000 5.080000e-001
         vertex 1.270000e+001 6.350000e+000 5.080000e-001
         vertex 8.890000e+000 6.350000e+000 5.080000e-001
      endloop
   endfacet
   facet normal 0.000000e+000 0.000000e+000 1.000000e+000
      outer loop
         vertex 8.890000e+000 6.350000e+000 5.080000e-001
         vertex 1.270000e+001 6.350000e+000 5.080000e-001
         vertex 1.267941e+001 6.860962e+000 5.080000e-001
      endloop
   endfacet
   facet normal 0.000000e+000 0.000000e+000 1.000000e+000
      outer loop
         vertex 8.890000e+000 6.350000e+000 5.080000e-001
         vertex 1.267941e+001 6.860962e+000 5.080000e-001
         vertex 8.810202e+000 6.981672e+000 5.080000e-001
      endloop
   endfacet
   facet normal 0.000000e+000 0.000000e+000 1.000000e+000
      outer loop
         vertex 6.605689e+000 1.269485e+001 5.080000e-001
         vertex 5.584592e+000 1.265370e+001 5.080000e-001
         vertex 5.874051e+000 8.845010e+000 5.080000e-001
      endloop
   endfacet
   facet normal 0.000000e+000 0.000000e+000 1.000000e+000
      outer loop
         vertex 5.874051e+000 8.845010e+000 5.080000e-001
         vertex 5.584592e+000 1.265370e+001 5.080000e-001
         vertex 4.583319e+000 1.244929e+001 5.080000e-001
      endloop
   endfacet
   facet normal 0.000000e+000 0.000000e+000 1.000000e+000
      outer loop
         vertex 5.874051e+000 8.845010e+000 5.080000e-001
         vertex 4.583319e+000 1.244929e+001 5.080000e-001
         vertex 5.268521e+000 8.648260e+000 5.080000e-001
      endloop
   endfacet
   facet normal 0.000000e+000 0.000000e+000 1.000000e+000
      outer loop
         vertex 5.268521e+000 8.648260e+000 5.080000e-001
         vertex 4.583319e+000 1.244929e+001 5.080000e-001
         vertex 3.627802e+000 1.208691e+001 5.080000e-001
      endloop
   endfacet
   facet normal 0.000000e+000 0.000000e+000 1.000000e+000
      outer loop
         vertex 5.268521e+000 8.648260e+000 5.080000e-001
         vertex 3.627802e+000 1.208691e+001 5.080000e-001
         vertex 2.742789e+000 1.157595e+001 5.080000e-001
      endloop
   endfacet
   facet normal 0.000000e+000 0.000000e+000 1.000000e+000
      outer loop
         vertex 8.201580e+000 8.088750e+000 5.080000e-001
         vertex 1.036603e+001 1.126874e+001 5.080000e-001
         vertex 7.711000e+000 8.494594e+000 5.080000e-001
      endloop
   endfacet
   facet normal 0.000000e+000 0.000000e+000 1.000000e+000
      outer loop
         vertex 7.711000e+000 8.494594e+000 5.080000e-001
         vertex 1.036603e+001 1.126874e+001 5.080000e-001
         vertex 9.525001e+000 1.184926e+001 5.080000e-001
      endloop
   endfacet
   facet normal 0.000000e+000 0.000000e+000 1.000000e+000
      outer loop
         vertex 7.711000e+000 8.494594e+000 5.080000e-001
         vertex 9.525001e+000 1.184926e+001 5.080000e-001
         vertex 7.134903e+000 8.765683e+000 5.080000e-001
      endloop
   endfacet
   facet normal 0.000000e+000 0.000000e+000 1.000000e+000
      outer loop
         vertex 7.134903e+000 8.765683e+000 5.080000e-001
         vertex 9.525001e+000 1.184926e+001 5.080000e-001
         vertex 8.601741e+000 1.228735e+001 5.080000e-001
      endloop
   endfacet
   facet normal 0.000000e+000 0.000000e+000 1.000000e+000
      outer loop
         vertex 7.134903e+000 8.765683e+000 5.080000e-001
         vertex 8.601741e+000 1.228735e+001 5.080000e-001
         vertex 7.620163e+000 1.257167e+001 5.080000e-001
      endloop
   endfacet
   facet normal 0.000000e+000 0.000000e+000 1.000000e+000
      outer loop
         vertex 1.267941e+001 6.860962e+000 5.080000e-001
         vertex 1.251548e+001 7.869654e+000 5.080000e-001
         vertex 8.810202e+000 6.981672e+000 5.080000e-001
      endloop
   endfacet
   facet normal 0.000000e+000 0.000000e+000 1.000000e+000
      outer loop
         vertex 8.810202e+000 6.981672e+000 5.080000e-001
         vertex 1.251548e+001 7.869654e+000 5.080000e-001
         vertex 1.219187e+001 8.838988e+000 5.080000e-001
      endloop
   endfacet
   facet normal 0.000000e+000 0.000000e+000 1.000000e+000
      outer loop
         vertex 8.810202e+000 6.981672e+000 5.080000e-001
         vertex 1.219187e+001 8.838988e+000 5.080000e-001
         vertex 8.575819e+000 7.573654e+000 5.080000e-001
      endloop
   endfacet
   facet normal 0.000000e+000 0.000000e+000 1.000000e+000
      outer loop
         vertex 8.575819e+000 7.573654e+000 5.080000e-001
         vertex 1.219187e+001 8.838988e+000 5.080000e-001
         vertex 1.171696e+001 9.743858e+000 5.080000e-001
      endloop
   endfacet
   facet normal 0.000000e+000 0.000000e+000 1.000000e+000
      outer loop
         vertex 8.575819e+000 7.573654e+000 5.080000e-001
         vertex 1.171696e+001 9.743858e+000 5.080000e-001
         vertex 8.201580e+000 8.088750e+000 5.080000e-001
      endloop
   endfacet
   facet normal 0.000000e+000 0.000000e+000 1.000000e+000
      outer loop
         vertex 8.201580e+000 8.088750e+000 5.080000e-001
         vertex 1.171696e+001 9.743858e+000 5.080000e-001
         vertex 1.110304e+001 1.056083e+001 5.080000e-001
      endloop
   endfacet
   facet normal 0.000000e+000 0.000000e+000 1.000000e+000
      outer loop
         vertex 8.201580e+000 8.088750e+000 5.080000e-001
         vertex 1.110304e+001 1.056083e+001 5.080000e-001
         vertex 1.036603e+001 1.126874e+001 5.080000e-001
      endloop
   endfacet
   facet normal 0.000000e+000 0.000000e+000 1.000000e+000
      outer loop
         vertex 3.267936e-001 8.360843e+000 5.080000e-001
         vertex 8.223066e-002 7.368612e+000 5.080000e-001
         vertex 3.830029e+000 6.668346e+000 5.080000e-001
      endloop
   endfacet
   facet normal 0.000000e+000 0.000000e+000 1.000000e+000
      outer loop
         vertex 3.830029e+000 6.668346e+000 5.080000e-001
         vertex 8.223066e-002 7.368612e+000 5.080000e-001
         vertex 0.000000e+000 6.350000e+000 5.080000e-001
      endloop
   endfacet
   facet normal 0.000000e+000 0.000000e+000 1.000000e+000
      outer loop
         vertex 3.830029e+000 6.668346e+000 5.080000e-001
         vertex 0.000000e+000 6.350000e+000 5.080000e-001
         vertex 3.830029e+000 6.031653e+000 5.080000e-001
      endloop
   endfacet
   facet normal 0.000000e+000 0.000000e+000 1.000000e+000
      outer loop
         vertex 3.830029e+000 6.031653e+000 5.080000e-001
         vertex 0.000000e+000 6.350000e+000 5.080000e-001
         vertex 8.223066e-002 5.331388e+000 5.080000e-001
      endloop
   endfacet
   facet normal 0.000000e+000 0.000000e+000 1.000000e+000
      outer loop
         vertex 3.830029e+000 6.031653e+000 5.080000e-001
         vertex 8.223066e-002 5.331388e+000 5.080000e-001
         vertex 3.988368e+000 5.414964e+000 5.080000e-001
      endloop
   endfacet
   facet normal 0.000000e+000 0.000000e+000 1.000000e+000
      outer loop
         vertex 3.988368e+000 5.414964e+000 5.080000e-001
         vertex 8.223066e-002 5.331388e+000 5.080000e-001
         vertex 3.267936e-001 4.339158e+000 5.080000e-001
      endloop
   endfacet
   facet normal 0.000000e+000 0.000000e+000 1.000000e+000
      outer loop
         vertex 3.988368e+000 5.414964e+000 5.080000e-001
         vertex 3.267936e-001 4.339158e+000 5.080000e-001
         vertex 7.273541e-001 3.399008e+000 5.080000e-001
      endloop
   endfacet
   facet normal 0.000000e+000 0.000000e+000 -1.000000e+000
      outer loop
         vertex 3.830029e+000 6.031653e+000 0.000000e+000
         vertex 0.000000e+000 6.350000e+000 0.000000e+000
         vertex 3.830029e+000 6.668346e+000 0.000000e+000
      endloop
   endfacet
   facet normal 0.000000e+000 0.000000e+000 -1.000000e+000
      outer loop
         vertex 3.830029e+000 6.668346e+000 0.000000e+000
         vertex 0.000000e+000 6.350000e+000 0.000000e+000
         vertex 8.223066e-002 7.368612e+000 0.000000e+000
      endloop
   endfacet
   facet normal 0.000000e+000 0.000000e+000 -1.000000e+000
      outer loop
         vertex 3.830029e+000 6.668346e+000 0.000000e+000
         vertex 8.223066e-002 7.368612e+000 0.000000e+000
         vertex 3.988368e+000 7.285036e+000 0.000000e+000
      endloop
   endfacet
   facet normal 0.000000e+000 0.000000e+000 -1.000000e+000
      outer loop
         vertex 4.295097e+000 4.857025e+000 0.000000e+000
         vertex 7.273541e-001 3.399008e+000 0.000000e+000
         vertex 3.988368e+000 5.414964e+000 0.000000e+000
      endloop
   endfacet
   facet normal 0.000000e+000 0.000000e+000 -1.000000e+000
      outer loop
         vertex 3.988368e+000 5.414964e+000 0.000000e+000
         vertex 7.273541e-001 3.399008e+000 0.000000e+000
         vertex 3.267936e-001 4.339158e+000 0.000000e+000
      endloop
   endfacet
   facet normal 0.000000e+000 0.000000e+000 -1.000000e+000
      outer loop
         vertex 3.988368e+000 5.414964e+000 0.000000e+000
         vertex 3.267936e-001 4.339158e+000 0.000000e+000
         vertex 3.830029e+000 6.031653e+000 0.000000e+000
      endloop
   endfacet
   facet normal 0.000000e+000 0.000000e+000 -1.000000e+000
      outer loop
         vertex 3.830029e+000 6.031653e+000 0.000000e+000
         vertex 3.267936e-001 4.339158e+000 0.000000e+000
         vertex 8.223066e-002 5.331388e+000 0.000000e+000
      endloop
   endfacet
   facet normal 0.000000e+000 0.000000e+000 -1.000000e+000
      outer loop
         vertex 3.830029e+000 6.031653e+000 0.000000e+000
         vertex 8.223066e-002 5.331388e+000 0.000000e+000
         vertex 0.000000e+000 6.350000e+000 0.000000e+000
      endloop
   endfacet
   facet normal 0.000000e+000 0.000000e+000 -1.000000e+000
      outer loop
         vertex 5.268521e+000 4.051739e+000 0.000000e+000
         vertex 2.742789e+000 1.124052e+000 0.000000e+000
         vertex 4.730943e+000 4.392896e+000 0.000000e+000
      endloop
   endfacet
   facet normal 0.000000e+000 0.000000e+000 -1.000000e+000
      outer loop
         vertex 4.730943e+000 4.392896e+000 0.000000e+000
         vertex 2.742789e+000 1.124052e+000 0.000000e+000
         vertex 1.951200e+000 1.770365e+000 0.000000e+000
      endloop
   endfacet
   facet normal 0.000000e+000 0.000000e+000 -1.000000e+000
      outer loop
         vertex 4.730943e+000 4.392896e+000 0.000000e+000
         vertex 1.951200e+000 1.770365e+000 0.000000e+000
         vertex 4.295097e+000 4.857025e+000 0.000000e+000
      endloop
   endfacet
   facet normal 0.000000e+000 0.000000e+000 -1.000000e+000
      outer loop
         vertex 4.295097e+000 4.857025e+000 0.000000e+000
         vertex 1.951200e+000 1.770365e+000 0.000000e+000
         vertex 1.273538e+000 2.535287e+000 0.000000e+000
      endloop
   endfacet
   facet normal 0.000000e+000 0.000000e+000 -1.000000e+000
      outer loop
         vertex 4.295097e+000 4.857025e+000 0.000000e+000
         vertex 1.273538e+000 2.535287e+000 0.000000e+000
         vertex 7.273541e-001 3.399008e+000 0.000000e+000
      endloop
   endfacet
   facet normal 0.000000e+000 0.000000e+000 -1.000000e+000
      outer loop
         vertex 7.711000e+000 8.494594e+000 0.000000e+000
         vertex 1.036603e+001 1.126874e+001 0.000000e+000
         vertex 8.201580e+000 8.088750e+000 0.000000e+000
      endloop
   endfacet
   facet normal 0.000000e+000 0.000000e+000 -1.000000e+000
      outer loop
         vertex 8.201580e+000 8.088750e+000 0.000000e+000
         vertex 1.036603e+001 1.126874e+001 0.000000e+000
         vertex 1.110304e+001 1.056083e+001 0.000000e+000
      endloop
   endfacet
   facet normal 0.000000e+000 0.000000e+000 -1.000000e+000
      outer loop
         vertex 8.201580e+000 8.088750e+000 0.000000e+000
         vertex 1.110304e+001 1.056083e+001 0.000000e+000
         vertex 8.575819e+000 7.573654e+000 0.000000e+000
      endloop
   endfacet
   facet normal 0.000000e+000 0.000000e+000 -1.000000e+000
      outer loop
         vertex 6.509488e+000 8.884988e+000 0.000000e+000
         vertex 7.620163e+000 1.257167e+001 0.000000e+000
         vertex 7.134903e+000 8.765683e+000 0.000000e+000
      endloop
   endfacet
   facet normal 0.000000e+000 0.000000e+000 -1.000000e+000
      outer loop
         vertex 7.134903e+000 8.765683e+000 0.000000e+000
         vertex 7.620163e+000 1.257167e+001 0.000000e+000
         vertex 8.601741e+000 1.228735e+001 0.000000e+000
      endloop
   endfacet
   facet normal 0.000000e+000 0.000000e+000 -1.000000e+000
      outer loop
         vertex 7.134903e+000 8.765683e+000 0.000000e+000
         vertex 8.601741e+000 1.228735e+001 0.000000e+000
         vertex 7.711000e+000 8.494594e+000 0.000000e+000
      endloop
   endfacet
   facet normal 0.000000e+000 0.000000e+000 -1.000000e+000
      outer loop
         vertex 7.711000e+000 8.494594e+000 0.000000e+000
         vertex 8.601741e+000 1.228735e+001 0.000000e+000
         vertex 9.525001e+000 1.184926e+001 0.000000e+000
      endloop
   endfacet
   facet normal 0.000000e+000 0.000000e+000 -1.000000e+000
      outer loop
         vertex 7.711000e+000 8.494594e+000 0.000000e+000
         vertex 9.525001e+000 1.184926e+001 0.000000e+000
         vertex 1.036603e+001 1.126874e+001 0.000000e+000
      endloop
   endfacet
   facet normal 0.000000e+000 0.000000e+000 -1.000000e+000
      outer loop
         vertex 5.268521e+000 8.648260e+000 0.000000e+000
         vertex 4.583319e+000 1.244929e+001 0.000000e+000
         vertex 5.874051e+000 8.845010e+000 0.000000e+000
      endloop
   endfacet
   facet normal 0.000000e+000 0.000000e+000 -1.000000e+000
      outer loop
         vertex 5.874051e+000 8.845010e+000 0.000000e+000
         vertex 4.583319e+000 1.244929e+001 0.000000e+000
         vertex 5.584592e+000 1.265370e+001 0.000000e+000
      endloop
   endfacet
   facet normal 0.000000e+000 0.000000e+000 -1.000000e+000
      outer loop
         vertex 5.874051e+000 8.845010e+000 0.000000e+000
         vertex 5.584592e+000 1.265370e+001 0.000000e+000
         vertex 6.509488e+000 8.884988e+000 0.000000e+000
      endloop
   endfacet
   facet normal 0.000000e+000 0.000000e+000 -1.000000e+000
      outer loop
         vertex 6.509488e+000 8.884988e+000 0.000000e+000
         vertex 5.584592e+000 1.265370e+001 0.000000e+000
         vertex 6.605689e+000 1.269485e+001 0.000000e+000
      endloop
   endfacet
   facet normal 0.000000e+000 0.000000e+000 -1.000000e+000
      outer loop
         vertex 6.509488e+000 8.884988e+000 0.000000e+000
         vertex 6.605689e+000 1.269485e+001 0.000000e+000
         vertex 7.620163e+000 1.257167e+001 0.000000e+000
      endloop
   endfacet
   facet normal 0.000000e+000 0.000000e+000 -1.000000e+000
      outer loop
         vertex 4.730943e+000 8.307103e+000 0.000000e+000
         vertex 2.742789e+000 1.157595e+001 0.000000e+000
         vertex 5.268521e+000 8.648260e+000 0.000000e+000
      endloop
   endfacet
   facet normal 0.000000e+000 0.000000e+000 -1.000000e+000
      outer loop
         vertex 5.268521e+000 8.648260e+000 0.000000e+000
         vertex 2.742789e+000 1.157595e+001 0.000000e+000
         vertex 3.627802e+000 1.208691e+001 0.000000e+000
      endloop
   endfacet
   facet normal 0.000000e+000 0.000000e+000 -1.000000e+000
      outer loop
         vertex 5.268521e+000 8.648260e+000 0.000000e+000
         vertex 3.627802e+000 1.208691e+001 0.000000e+000
         vertex 4.583319e+000 1.244929e+001 0.000000e+000
      endloop
   endfacet
   facet normal 0.000000e+000 0.000000e+000 -1.000000e+000
      outer loop
         vertex 5.874051e+000 3.854990e+000 0.000000e+000
         vertex 4.583319e+000 2.507097e-001 0.000000e+000
         vertex 5.268521e+000 4.051739e+000 0.000000e+000
      endloop
   endfacet
   facet normal 0.000000e+000 0.000000e+000 -1.000000e+000
      outer loop
         vertex 5.268521e+000 4.051739e+000 0.000000e+000
         vertex 4.583319e+000 2.507097e-001 0.000000e+000
         vertex 3.627802e+000 6.130897e-001 0.000000e+000
      endloop
   endfacet
   facet normal 0.000000e+000 0.000000e+000 -1.000000e+000
      outer loop
         vertex 5.268521e+000 4.051739e+000 0.000000e+000
         vertex 3.627802e+000 6.130897e-001 0.000000e+000
         vertex 2.742789e+000 1.124052e+000 0.000000e+000
      endloop
   endfacet
   facet normal 0.000000e+000 0.000000e+000 -1.000000e+000
      outer loop
         vertex 8.201580e+000 4.611250e+000 0.000000e+000
         vertex 1.036603e+001 1.431258e+000 0.000000e+000
         vertex 7.711000e+000 4.205407e+000 0.000000e+000
      endloop
   endfacet
   facet normal 0.000000e+000 0.000000e+000 -1.000000e+000
      outer loop
         vertex 7.711000e+000 4.205407e+000 0.000000e+000
         vertex 1.036603e+001 1.431258e+000 0.000000e+000
         vertex 9.525001e+000 8.507385e-001 0.000000e+000
      endloop
   endfacet
   facet normal 0.000000e+000 0.000000e+000 -1.000000e+000
      outer loop
         vertex 7.711000e+000 4.205407e+000 0.000000e+000
         vertex 9.525001e+000 8.507385e-001 0.000000e+000
         vertex 7.134903e+000 3.934316e+000 0.000000e+000
      endloop
   endfacet
   facet normal 0.000000e+000 0.000000e+000 -1.000000e+000
      outer loop
         vertex 8.223066e-002 7.368612e+000 0.000000e+000
         vertex 3.267936e-001 8.360843e+000 0.000000e+000
         vertex 3.988368e+000 7.285036e+000 0.000000e+000
      endloop
   endfacet
   facet normal 0.000000e+000 0.000000e+000 -1.000000e+000
      outer loop
         vertex 3.988368e+000 7.285036e+000 0.000000e+000
         vertex 3.267936e-001 8.360843e+000 0.000000e+000
         vertex 7.273541e-001 9.300992e+000 0.000000e+000
      endloop
   endfacet
   facet normal 0.000000e+000 0.000000e+000 -1.000000e+000
      outer loop
         vertex 3.988368e+000 7.285036e+000 0.000000e+000
         vertex 7.273541e-001 9.300992e+000 0.000000e+000
         vertex 4.295097e+000 7.842975e+000 0.000000e+000
      endloop
   endfacet
   facet normal 0.000000e+000 0.000000e+000 -1.000000e+000
      outer loop
         vertex 4.295097e+000 7.842975e+000 0.000000e+000
         vertex 7.273541e-001 9.300992e+000 0.000000e+000
         vertex 1.273538e+000 1.016471e+001 0.000000e+000
      endloop
   endfacet
   facet normal 0.000000e+000 0.000000e+000 -1.000000e+000
      outer loop
         vertex 4.295097e+000 7.842975e+000 0.000000e+000
         vertex 1.273538e+000 1.016471e+001 0.000000e+000
         vertex 4.730943e+000 8.307103e+000 0.000000e+000
      endloop
   endfacet
   facet normal 0.000000e+000 0.000000e+000 -1.000000e+000
      outer loop
         vertex 4.730943e+000 8.307103e+000 0.000000e+000
         vertex 1.273538e+000 1.016471e+001 0.000000e+000
         vertex 1.951200e+000 1.092964e+001 0.000000e+000
      endloop
   endfacet
   facet normal 0.000000e+000 0.000000e+000 -1.000000e+000
      outer loop
         vertex 4.730943e+000 8.307103e+000 0.000000e+000
         vertex 1.951200e+000 1.092964e+001 0.000000e+000
         vertex 2.742789e+000 1.157595e+001 0.000000e+000
      endloop
   endfacet
   facet normal 0.000000e+000 0.000000e+000 -1.000000e+000
      outer loop
         vertex 9.525001e+000 8.507385e-001 0.000000e+000
         vertex 8.601741e+000 4.126467e-001 0.000000e+000
         vertex 7.134903e+000 3.934316e+000 0.000000e+000
      endloop
   endfacet
   facet normal 0.000000e+000 0.000000e+000 -1.000000e+000
      outer loop
         vertex 7.134903e+000 3.934316e+000 0.000000e+000
         vertex 8.601741e+000 4.126467e-001 0.000000e+000
         vertex 7.620163e+000 1.283293e-001 0.000000e+000
      endloop
   endfacet
   facet normal 0.000000e+000 0.000000e+000 -1.000000e+000
      outer loop
         vertex 7.134903e+000 3.934316e+000 0.000000e+000
         vertex 7.620163e+000 1.283293e-001 0.000000e+000
         vertex 6.509488e+000 3.815012e+000 0.000000e+000
      endloop
   endfacet
   facet normal 0.000000e+000 0.000000e+000 -1.000000e+000
      outer loop
         vertex 6.509488e+000 3.815012e+000 0.000000e+000
         vertex 7.620163e+000 1.283293e-001 0.000000e+000
         vertex 6.605689e+000 5.149748e-003 0.000000e+000
      endloop
   endfacet
   facet normal 0.000000e+000 0.000000e+000 -1.000000e+000
      outer loop
         vertex 6.509488e+000 3.815012e+000 0.000000e+000
         vertex 6.605689e+000 5.149748e-003 0.000000e+000
         vertex 5.874051e+000 3.854990e+000 0.000000e+000
      endloop
   endfacet
   facet normal 0.000000e+000 0.000000e+000 -1.000000e+000
      outer loop
         vertex 5.874051e+000 3.854990e+000 0.000000e+000
         vertex 6.605689e+000 5.149748e-003 0.000000e+000
         vertex 5.584592e+000 4.629837e-002 0.000000e+000
      endloop
   endfacet
   facet normal 0.000000e+000 0.000000e+000 -1.000000e+000
      outer loop
         vertex 5.874051e+000 3.854990e+000 0.000000e+000
         vertex 5.584592e+000 4.629837e-002 0.000000e+000
         vertex 4.583319e+000 2.507097e-001 0.000000e+000
      endloop
   endfacet
   facet normal 0.000000e+000 0.000000e+000 -1.000000e+000
      outer loop
         vertex 8.810202e+000 5.718328e+000 0.000000e+000
         vertex 1.219187e+001 3.861012e+000 0.000000e+000
         vertex 8.575819e+000 5.126346e+000 0.000000e+000
      endloop
   endfacet
   facet normal 0.000000e+000 0.000000e+000 -1.000000e+000
      outer loop
         vertex 8.575819e+000 5.126346e+000 0.000000e+000
         vertex 1.219187e+001 3.861012e+000 0.000000e+000
         vertex 1.171696e+001 2.956142e+000 0.000000e+000
      endloop
   endfacet
   facet normal 0.000000e+000 0.000000e+000 -1.000000e+000
      outer loop
         vertex 8.575819e+000 5.126346e+000 0.000000e+000
         vertex 1.171696e+001 2.956142e+000 0.000000e+000
         vertex 8.201580e+000 4.611250e+000 0.000000e+000
      endloop
   endfacet
   facet normal 0.000000e+000 0.000000e+000 -1.000000e+000
      outer loop
         vertex 8.201580e+000 4.611250e+000 0.000000e+000
         vertex 1.171696e+001 2.956142e+000 0.000000e+000
         vertex 1.110304e+001 2.139171e+000 0.000000e+000
      endloop
   endfacet
   facet normal 0.000000e+000 0.000000e+000 -1.000000e+000
      outer loop
         vertex 8.201580e+000 4.611250e+000 0.000000e+000
         vertex 1.110304e+001 2.139171e+000 0.000000e+000
         vertex 1.036603e+001 1.431258e+000 0.000000e+000
      endloop
   endfacet
   facet normal 0.000000e+000 0.000000e+000 -1.000000e+000
      outer loop
         vertex 1.267941e+001 6.860962e+000 0.000000e+000
         vertex 8.890000e+000 6.350000e+000 0.000000e+000
         vertex 8.810202e+000 6.981672e+000 0.000000e+000
      endloop
   endfacet
   facet normal 0.000000e+000 0.000000e+000 -1.000000e+000
      outer loop
         vertex 1.267941e+001 6.860962e+000 0.000000e+000
         vertex 1.270000e+001 6.350000e+000 0.000000e+000
         vertex 8.890000e+000 6.350000e+000 0.000000e+000
      endloop
   endfacet
   facet normal 0.000000e+000 0.000000e+000 -1.000000e+000
      outer loop
         vertex 8.890000e+000 6.350000e+000 0.000000e+000
         vertex 1.270000e+001 6.350000e+000 0.000000e+000
         vertex 1.267941e+001 5.839037e+000 0.000000e+000
      endloop
   endfacet
   facet normal 0.000000e+000 0.000000e+000 -1.000000e+000
      outer loop
         vertex 8.890000e+000 6.350000e+000 0.000000e+000
         vertex 1.267941e+001 5.839037e+000 0.000000e+000
         vertex 8.810202e+000 5.718328e+000 0.000000e+000
      endloop
   endfacet
   facet normal 0.000000e+000 0.000000e+000 -1.000000e+000
      outer loop
         vertex 8.810202e+000 5.718328e+000 0.000000e+000
         vertex 1.267941e+001 5.839037e+000 0.000000e+000
         vertex 1.251548e+001 4.830346e+000 0.000000e+000
      endloop
   endfacet
   facet normal 0.000000e+000 0.000000e+000 -1.000000e+000
      outer loop
         vertex 8.810202e+000 5.718328e+000 0.000000e+000
         vertex 1.251548e+001 4.830346e+000 0.000000e+000
         vertex 1.219187e+001 3.861012e+000 0.000000e+000
      endloop
   endfacet
   facet normal 0.000000e+000 0.000000e+000 -1.000000e+000
      outer loop
         vertex 1.110304e+001 1.056083e+001 0.000000e+000
         vertex 1.171696e+001 9.743858e+000 0.000000e+000
         vertex 8.575819e+000 7.573654e+000 0.000000e+000
      endloop
   endfacet
   facet normal 0.000000e+000 0.000000e+000 -1.000000e+000
      outer loop
         vertex 8.575819e+000 7.573654e+000 0.000000e+000
         vertex 1.171696e+001 9.743858e+000 0.000000e+000
         vertex 1.219187e+001 8.838988e+000 0.000000e+000
      endloop
   endfacet
   facet normal 0.000000e+000 0.000000e+000 -1.000000e+000
      outer loop
         vertex 8.575819e+000 7.573654e+000 0.000000e+000
         vertex 1.219187e+001 8.838988e+000 0.000000e+000
         vertex 8.810202e+000 6.981672e+000 0.000000e+000
      endloop
   endfacet
   facet normal 0.000000e+000 0.000000e+000 -1.000000e+000
      outer loop
         vertex 8.810202e+000 6.981672e+000 0.000000e+000
         vertex 1.219187e+001 8.838988e+000 0.000000e+000
         vertex 1.251548e+001 7.869654e+000 0.000000e+000
      endloop
   endfacet
   facet normal 0.000000e+000 0.000000e+000 -1.000000e+000
      outer loop
         vertex 8.810202e+000 6.981672e+000 0.000000e+000
         vertex 1.251548e+001 7.869654e+000 0.000000e+000
         vertex 1.267941e+001 6.860962e+000 0.000000e+000
      endloop
   endfacet
   facet normal -9.965093e-001 8.348151e-002 0.000000e+000
      outer loop
         vertex 8.810202e+000 5.718328e+000 0.000000e+000
         vertex 8.890000e+000 6.350000e+000 5.080000e-001
         vertex 8.890000e+000 6.350000e+000 0.000000e+000
      endloop
   endfacet
   facet normal -9.965093e-001 -8.348151e-002 0.000000e+000
      outer loop
         vertex 8.890000e+000 6.350000e+000 0.000000e+000
         vertex 8.890000e+000 6.350000e+000 5.080000e-001
         vertex 8.810202e+000 6.981672e+000 5.080000e-001
      endloop
   endfacet
   facet normal -9.859632e-001 -1.669630e-001 0.000000e+000
      outer loop
         vertex 8.890000e+000 6.350000e+000 0.000000e+000
         vertex 8.810202e+000 6.981672e+000 5.080000e-001
         vertex 8.810202e+000 6.981672e+000 0.000000e+000
      endloop
   endfacet
   facet normal -9.444411e-001 -3.286806e-001 0.000000e+000
      outer loop
         vertex 8.810202e+000 6.981672e+000 0.000000e+000
         vertex 8.810202e+000 6.981672e+000 5.080000e-001
         vertex 8.575819e+000 7.573654e+000 5.080000e-001
      endloop
   endfacet
   facet normal -9.134653e-001 -4.069166e-001 0.000000e+000
      outer loop
         vertex 8.810202e+000 6.981672e+000 0.000000e+000
         vertex 8.575819e+000 7.573654e+000 5.080000e-001
         vertex 8.575819e+000 7.573654e+000 0.000000e+000
      endloop
   endfacet
   facet normal -8.330302e-001 -5.532274e-001 0.000000e+000
      outer loop
         vertex 8.575819e+000 7.573654e+000 0.000000e+000
         vertex 8.575819e+000 7.573654e+000 5.080000e-001
         vertex 8.201580e+000 8.088750e+000 5.080000e-001
      endloop
   endfacet
   facet normal -7.835711e-001 -6.213022e-001 0.000000e+000
      outer loop
         vertex 8.575819e+000 7.573654e+000 0.000000e+000
         vertex 8.201580e+000 8.088750e+000 5.080000e-001
         vertex 8.201580e+000 8.088750e+000 0.000000e+000
      endloop
   endfacet
   facet normal -6.692770e-001 -7.430130e-001 0.000000e+000
      outer loop
         vertex 8.201580e+000 8.088750e+000 0.000000e+000
         vertex 8.201580e+000 8.088750e+000 5.080000e-001
         vertex 7.711000e+000 8.494594e+000 5.080000e-001
      endloop
   endfacet
   facet normal -6.044422e-001 -7.966490e-001 0.000000e+000
      outer loop
         vertex 8.201580e+000 8.088750e+000 0.000000e+000
         vertex 7.711000e+000 8.494594e+000 5.080000e-001
         vertex 7.711000e+000 8.494594e+000 0.000000e+000
      endloop
   endfacet
   facet normal -4.634706e-001 -8.861123e-001 0.000000e+000
      outer loop
         vertex 7.711000e+000 8.494594e+000 0.000000e+000
         vertex 7.711000e+000 8.494594e+000 5.080000e-001
         vertex 7.134903e+000 8.765683e+000 5.080000e-001
      endloop
   endfacet
   facet normal -3.873339e-001 -9.219395e-001 0.000000e+000
      outer loop
         vertex 7.711000e+000 8.494594e+000 0.000000e+000
         vertex 7.134903e+000 8.765683e+000 5.080000e-001
         vertex 7.134903e+000 8.765683e+000 0.000000e+000
      endloop
   endfacet
   facet normal -2.285427e-001 -9.735339e-001 0.000000e+000
      outer loop
         vertex 7.134903e+000 8.765683e+000 0.000000e+000
         vertex 7.134903e+000 8.765683e+000 5.080000e-001
         vertex 6.509488e+000 8.884988e+000 5.080000e-001
      endloop
   endfacet
   facet normal -1.458881e-001 -9.893011e-001 0.000000e+000
      outer loop
         vertex 7.134903e+000 8.765683e+000 0.000000e+000
         vertex 6.509488e+000 8.884988e+000 5.080000e-001
         vertex 6.509488e+000 8.884988e+000 0.000000e+000
      endloop
   endfacet
   facet normal 2.074543e-002 -9.997848e-001 0.000000e+000
      outer loop
         vertex 6.509488e+000 8.884988e+000 0.000000e+000
         vertex 6.509488e+000 8.884988e+000 5.080000e-001
         vertex 5.874051e+000 8.845010e+000 5.080000e-001
      endloop
   endfacet
   facet normal 1.047244e-001 -9.945013e-001 0.000000e+000
      outer loop
         vertex 6.509488e+000 8.884988e+000 0.000000e+000
         vertex 5.874051e+000 8.845010e+000 5.080000e-001
         vertex 5.874051e+000 8.845010e+000 0.000000e+000
      endloop
   endfacet
   facet normal 2.687300e-001 -9.632155e-001 0.000000e+000
      outer loop
         vertex 5.874051e+000 8.845010e+000 0.000000e+000
         vertex 5.874051e+000 8.845010e+000 5.080000e-001
         vertex 5.268521e+000 8.648260e+000 5.080000e-001
      endloop
   endfacet
   facet normal 3.487567e-001 -9.372133e-001 0.000000e+000
      outer loop
         vertex 5.874051e+000 8.845010e+000 0.000000e+000
         vertex 5.268521e+000 8.648260e+000 5.080000e-001
         vertex 5.268521e+000 8.648260e+000 0.000000e+000
      endloop
   endfacet
   facet normal 4.998294e-001 -8.661239e-001 0.000000e+000
      outer loop
         vertex 5.268521e+000 8.648260e+000 0.000000e+000
         vertex 5.268521e+000 8.648260e+000 5.080000e-001
         vertex 4.730943e+000 8.307103e+000 5.080000e-001
      endloop
   endfacet
   facet normal 5.708753e-001 -8.210368e-001 0.000000e+000
      outer loop
         vertex 5.268521e+000 8.648260e+000 0.000000e+000
         vertex 4.730943e+000 8.307103e+000 5.080000e-001
         vertex 4.730943e+000 8.307103e+000 0.000000e+000
      endloop
   endfacet
   facet normal 6.995226e-001 -7.146105e-001 0.000000e+000
      outer loop
         vertex 4.730943e+000 8.307103e+000 0.000000e+000
         vertex 4.730943e+000 8.307103e+000 5.080000e-001
         vertex 4.295097e+000 7.842975e+000 5.080000e-001
      endloop
   endfacet
   facet normal 7.571238e-001 -6.532714e-001 0.000000e+000
      outer loop
         vertex 4.730943e+000 8.307103e+000 0.000000e+000
         vertex 4.295097e+000 7.842975e+000 5.080000e-001
         vertex 4.295097e+000 7.842975e+000 0.000000e+000
      endloop
   endfacet
   facet normal 8.552622e-001 -5.181955e-001 0.000000e+000
      outer loop
         vertex 4.295097e+000 7.842975e+000 0.000000e+000
         vertex 4.295097e+000 7.842975e+000 5.080000e-001
         vertex 3.988368e+000 7.285036e+000 5.080000e-001
      endloop
   endfacet
   facet normal 8.957993e-001 -4.444587e-001 0.000000e+000
      outer loop
         vertex 4.295097e+000 7.842975e+000 0.000000e+000
         vertex 3.988368e+000 7.285036e+000 5.080000e-001
         vertex 3.988368e+000 7.285036e+000 0.000000e+000
      endloop
   endfacet
   facet normal 9.572625e-001 -2.892204e-001 0.000000e+000
      outer loop
         vertex 3.988368e+000 7.285036e+000 0.000000e+000
         vertex 3.988368e+000 7.285036e+000 5.080000e-001
         vertex 3.830029e+000 6.668346e+000 5.080000e-001
      endloop
   endfacet
   facet normal 9.781885e-001 -2.077190e-001 0.000000e+000
      outer loop
         vertex 3.988368e+000 7.285036e+000 0.000000e+000
         vertex 3.830029e+000 6.668346e+000 5.080000e-001
         vertex 3.830029e+000 6.668346e+000 0.000000e+000
      endloop
   endfacet
   facet normal 9.991146e-001 -4.207250e-002 0.000000e+000
      outer loop
         vertex 3.830029e+000 6.668346e+000 0.000000e+000
         vertex 3.830029e+000 6.668346e+000 5.080000e-001
         vertex 3.830029e+000 6.031653e+000 5.080000e-001
      endloop
   endfacet
   facet normal 9.991146e-001 4.207250e-002 0.000000e+000
      outer loop
         vertex 3.830029e+000 6.668346e+000 0.000000e+000
         vertex 3.830029e+000 6.031653e+000 5.080000e-001
         vertex 3.830029e+000 6.031653e+000 0.000000e+000
      endloop
   endfacet
   facet normal 9.781885e-001 2.077190e-001 0.000000e+000
      outer loop
         vertex 3.830029e+000 6.031653e+000 0.000000e+000
         vertex 3.830029e+000 6.031653e+000 5.080000e-001
         vertex 3.988368e+000 5.414964e+000 5.080000e-001
      endloop
   endfacet
   facet normal 9.572625e-001 2.892204e-001 0.000000e+000
      outer loop
         vertex 3.830029e+000 6.031653e+000 0.000000e+000
         vertex 3.988368e+000 5.414964e+000 5.080000e-001
         vertex 3.988368e+000 5.414964e+000 0.000000e+000
      endloop
   endfacet
   facet normal 8.957993e-001 4.444587e-001 0.000000e+000
      outer loop
         vertex 3.988368e+000 5.414964e+000 0.000000e+000
         vertex 3.988368e+000 5.414964e+000 5.080000e-001
         vertex 4.295097e+000 4.857025e+000 5.080000e-001
      endloop
   endfacet
   facet normal 8.552622e-001 5.181955e-001 0.000000e+000
      outer loop
         vertex 3.988368e+000 5.414964e+000 0.000000e+000
         vertex 4.295097e+000 4.857025e+000 5.080000e-001
         vertex 4.295097e+000 4.857025e+000 0.000000e+000
      endloop
   endfacet
   facet normal 7.571238e-001 6.532714e-001 0.000000e+000
      outer loop
         vertex 4.295097e+000 4.857025e+000 0.000000e+000
         vertex 4.295097e+000 4.857025e+000 5.080000e-001
         vertex 4.730943e+000 4.392896e+000 5.080000e-001
      endloop
   endfacet
   facet normal 6.995226e-001 7.146105e-001 0.000000e+000
      outer loop
         vertex 4.295097e+000 4.857025e+000 0.000000e+000
         vertex 4.730943e+000 4.392896e+000 5.080000e-001
         vertex 4.730943e+000 4.392896e+000 0.000000e+000
      endloop
   endfacet
   facet normal 5.708753e-001 8.210368e-001 0.000000e+000
      outer loop
         vertex 4.730943e+000 4.392896e+000 0.000000e+000
         vertex 4.730943e+000 4.392896e+000 5.080000e-001
         vertex 5.268521e+000 4.051739e+000 5.080000e-001
      endloop
   endfacet
   facet normal 4.998294e-001 8.661239e-001 0.000000e+000
      outer loop
         vertex 4.730943e+000 4.392896e+000 0.000000e+000
         vertex 5.268521e+000 4.051739e+000 5.080000e-001
         vertex 5.268521e+000 4.051739e+000 0.000000e+000
      endloop
   endfacet
   facet normal 3.487567e-001 9.372133e-001 0.000000e+000
      outer loop
         vertex 5.268521e+000 4.051739e+000 0.000000e+000
         vertex 5.268521e+000 4.051739e+000 5.080000e-001
         vertex 5.874051e+000 3.854990e+000 5.080000e-001
      endloop
   endfacet
   facet normal 2.687300e-001 9.632155e-001 0.000000e+000
      outer loop
         vertex 5.268521e+000 4.051739e+000 0.000000e+000
         vertex 5.874051e+000 3.854990e+000 5.080000e-001
         vertex 5.874051e+000 3.854990e+000 0.000000e+000
      endloop
   endfacet
   facet normal 1.047244e-001 9.945013e-001 0.000000e+000
      outer loop
         vertex 5.874051e+000 3.854990e+000 0.000000e+000
         vertex 5.874051e+000 3.854990e+000 5.080000e-001
         vertex 6.509488e+000 3.815012e+000 5.080000e-001
      endloop
   endfacet
   facet normal 2.074543e-002 9.997848e-001 0.000000e+000
      outer loop
         vertex 5.874051e+000 3.854990e+000 0.000000e+000
         vertex 6.509488e+000 3.815012e+000 5.080000e-001
         vertex 6.509488e+000 3.815012e+000 0.000000e+000
      endloop
   endfacet
   facet normal -1.458881e-001 9.893011e-001 0.000000e+000
      outer loop
         vertex 6.509488e+000 3.815012e+000 0.000000e+000
         vertex 6.509488e+000 3.815012e+000 5.080000e-001
         vertex 7.134903e+000 3.934316e+000 5.080000e-001
      endloop
   endfacet
   facet normal -2.285427e-001 9.735339e-001 0.000000e+000
      outer loop
         vertex 6.509488e+000 3.815012e+000 0.000000e+000
         vertex 7.134903e+000 3.934316e+000 5.080000e-001
         vertex 7.134903e+000 3.934316e+000 0.000000e+000
      endloop
   endfacet
   facet normal -3.873339e-001 9.219395e-001 0.000000e+000
      outer loop
         vertex 7.134903e+000 3.934316e+000 0.000000e+000
         vertex 7.134903e+000 3.934316e+000 5.080000e-001
         vertex 7.711000e+000 4.205407e+000 5.080000e-001
      endloop
   endfacet
   facet normal -4.634706e-001 8.861123e-001 0.000000e+000
      outer loop
         vertex 7.134903e+000 3.934316e+000 0.000000e+000
         vertex 7.711000e+000 4.205407e+000 5.080000e-001
         vertex 7.711000e+000 4.205407e+000 0.000000e+000
      endloop
   endfacet
   facet normal -6.044422e-001 7.966490e-001 0.000000e+000
      outer loop
         vertex 7.711000e+000 4.205407e+000 0.000000e+000
         vertex 7.711000e+000 4.205407e+000 5.080000e-001
         vertex 8.201580e+000 4.611250e+000 5.080000e-001
      endloop
   endfacet
   facet normal -6.692770e-001 7.430130e-001 0.000000e+000
      outer loop
         vertex 7.711000e+000 4.205407e+000 0.000000e+000
         vertex 8.201580e+000 4.611250e+000 5.080000e-001
         vertex 8.201580e+000 4.611250e+000 0.000000e+000
      endloop
   endfacet
   facet normal -7.835711e-001 6.213022e-001 0.000000e+000
      outer loop
         vertex 8.201580e+000 4.611250e+000 0.000000e+000
         vertex 8.201580e+000 4.611250e+000 5.080000e-001
         vertex 8.575819e+000 5.126346e+000 5.080000e-001
      endloop
   endfacet
   facet normal -8.330302e-001 5.532274e-001 0.000000e+000
      outer loop
         vertex 8.201580e+000 4.611250e+000 0.000000e+000
         vertex 8.575819e+000 5.126346e+000 5.080000e-001
         vertex 8.575819e+000 5.126346e+000 0.000000e+000
      endloop
   endfacet
   facet normal -9.134653e-001 4.069166e-001 0.000000e+000
      outer loop
         vertex 8.575819e+000 5.126346e+000 0.000000e+000
         vertex 8.575819e+000 5.126346e+000 5.080000e-001
         vertex 8.810202e+000 5.718328e+000 5.080000e-001
      endloop
   endfacet
   facet normal -9.444411e-001 3.286806e-001 0.000000e+000
      outer loop
         vertex 8.575819e+000 5.126346e+000 0.000000e+000
         vertex 8.810202e+000 5.718328e+000 5.080000e-001
         vertex 8.810202e+000 5.718328e+000 0.000000e+000
      endloop
   endfacet
   facet normal -9.859632e-001 1.669630e-001 0.000000e+000
      outer loop
         vertex 8.810202e+000 5.718328e+000 0.000000e+000
         vertex 8.810202e+000 5.718328e+000 5.080000e-001
         vertex 8.890000e+000 6.350000e+000 5.080000e-001
      endloop
   endfacet
endsolid