solid VexF_Nut_Lock2
   facet normal 0.000000e+000 0.000000e+000 1.000000e+000
      outer loop
         vertex 5.808302e+000 8.036819e+000 3.048000e+000
         vertex 6.492906e+000 7.597371e+000 3.048000e+000
         vertex 7.865937e+000 6.848842e+000 3.048000e+000
      endloop
   endfacet
   facet normal 0.000000e+000 0.000000e+000 1.000000e+000
      outer loop
         vertex 7.865937e+000 6.848842e+000 3.048000e+000
         vertex 6.492906e+000 7.597371e+000 3.048000e+000
         vertex 7.609161e+000 6.813245e+000 3.048000e+000
      endloop
   endfacet
   facet normal 0.000000e+000 0.000000e+000 1.000000e+000
      outer loop
         vertex 7.865937e+000 6.848842e+000 3.048000e+000
         vertex 7.609161e+000 6.813245e+000 3.048000e+000
         vertex 8.594240e+000 5.587385e+000 3.048000e+000
      endloop
   endfacet
   facet normal 0.000000e+000 0.000000e+000 1.000000e+000
      outer loop
         vertex 7.609161e+000 6.813245e+000 3.048000e+000
         vertex 8.340376e+000 5.661634e+000 3.048000e+000
         vertex 8.594240e+000 5.587385e+000 3.048000e+000
      endloop
   endfacet
   facet normal 0.000000e+000 0.000000e+000 1.000000e+000
      outer loop
         vertex 8.594240e+000 5.587385e+000 3.048000e+000
         vertex 8.340376e+000 5.661634e+000 3.048000e+000
         vertex 8.575227e+000 4.317862e+000 3.048000e+000
      endloop
   endfacet
   facet normal 0.000000e+000 0.000000e+000 1.000000e+000
      outer loop
         vertex 8.594240e+000 5.587385e+000 3.048000e+000
         vertex 8.575227e+000 4.317862e+000 3.048000e+000
         vertex 8.594240e+000 3.211433e+000 3.048000e+000
      endloop
   endfacet
   facet normal 0.000000e+000 0.000000e+000 1.000000e+000
      outer loop
         vertex 8.594240e+000 3.211433e+000 3.048000e+000
         vertex 8.575227e+000 4.317862e+000 3.048000e+000
         vertex 8.277962e+000 2.986503e+000 3.048000e+000
      endloop
   endfacet
   facet normal 0.000000e+000 0.000000e+000 1.000000e+000
      outer loop
         vertex 8.594240e+000 3.211433e+000 3.048000e+000
         vertex 8.277962e+000 2.986503e+000 3.048000e+000
         vertex 7.865937e+000 1.949976e+000 3.048000e+000
      endloop
   endfacet
   facet normal 0.000000e+000 0.000000e+000 1.000000e+000
      outer loop
         vertex 7.865937e+000 1.949976e+000 3.048000e+000
         vertex 8.277962e+000 2.986503e+000 3.048000e+000
         vertex 7.493836e+000 1.870247e+000 3.048000e+000
      endloop
   endfacet
   facet normal 0.000000e+000 0.000000e+000 1.000000e+000
      outer loop
         vertex 7.865937e+000 1.949976e+000 3.048000e+000
         vertex 7.493836e+000 1.870247e+000 3.048000e+000
         vertex 5.808302e+000 7.620000e-001 3.048000e+000
      endloop
   endfacet
   facet normal 0.000000e+000 0.000000e+000 1.000000e+000
      outer loop
         vertex 5.808302e+000 7.620000e-001 3.048000e+000
         vertex 7.493836e+000 1.870247e+000 3.048000e+000
         vertex 6.342225e+000 1.139034e+000 3.048000e+000
      endloop
   endfacet
   facet normal 0.000000e+000 0.000000e+000 1.000000e+000
      outer loop
         vertex 5.808302e+000 7.620000e-001 3.048000e+000
         vertex 6.342225e+000 1.139034e+000 3.048000e+000
         vertex 4.351698e+000 7.620000e-001 3.048000e+000
      endloop
   endfacet
   facet normal 0.000000e+000 0.000000e+000 1.000000e+000
      outer loop
         vertex 6.342225e+000 1.139034e+000 3.048000e+000
         vertex 4.998453e+000 9.041822e-001 3.048000e+000
         vertex 4.351698e+000 7.620000e-001 3.048000e+000
      endloop
   endfacet
   facet normal 0.000000e+000 0.000000e+000 1.000000e+000
      outer loop
         vertex 4.351698e+000 7.620000e-001 3.048000e+000
         vertex 4.998453e+000 9.041822e-001 3.048000e+000
         vertex 3.667094e+000 1.201447e+000 3.048000e+000
      endloop
   endfacet
   facet normal 0.000000e+000 0.000000e+000 1.000000e+000
      outer loop
         vertex 4.351698e+000 7.620000e-001 3.048000e+000
         vertex 3.667094e+000 1.201447e+000 3.048000e+000
         vertex 2.294063e+000 1.949976e+000 3.048000e+000
      endloop
   endfacet
   facet normal 0.000000e+000 0.000000e+000 1.000000e+000
      outer loop
         vertex 2.294063e+000 1.949976e+000 3.048000e+000
         vertex 3.667094e+000 1.201447e+000 3.048000e+000
         vertex 2.550838e+000 1.985573e+000 3.048000e+000
      endloop
   endfacet
   facet normal 0.000000e+000 0.000000e+000 1.000000e+000
      outer loop
         vertex 2.294063e+000 1.949976e+000 3.048000e+000
         vertex 2.550838e+000 1.985573e+000 3.048000e+000
         vertex 1.565760e+000 3.211433e+000 3.048000e+000
      endloop
   endfacet
   facet normal 0.000000e+000 0.000000e+000 1.000000e+000
      outer loop
         vertex 2.550838e+000 1.985573e+000 3.048000e+000
         vertex 1.819625e+000 3.137184e+000 3.048000e+000
         vertex 1.565760e+000 3.211433e+000 3.048000e+000
      endloop
   endfacet
   facet normal 0.000000e+000 0.000000e+000 1.000000e+000
      outer loop
         vertex 1.565760e+000 3.211433e+000 3.048000e+000
         vertex 1.819625e+000 3.137184e+000 3.048000e+000
         vertex 1.584773e+000 4.480957e+000 3.048000e+000
      endloop
   endfacet
   facet normal 0.000000e+000 0.000000e+000 1.000000e+000
      outer loop
         vertex 1.565760e+000 3.211433e+000 3.048000e+000
         vertex 1.584773e+000 4.480957e+000 3.048000e+000
         vertex 1.565760e+000 5.587385e+000 3.048000e+000
      endloop
   endfacet
   facet normal 0.000000e+000 0.000000e+000 1.000000e+000
      outer loop
         vertex 1.565760e+000 5.587385e+000 3.048000e+000
         vertex 1.584773e+000 4.480957e+000 3.048000e+000
         vertex 1.882038e+000 5.812315e+000 3.048000e+000
      endloop
   endfacet
   facet normal 0.000000e+000 0.000000e+000 1.000000e+000
      outer loop
         vertex 1.565760e+000 5.587385e+000 3.048000e+000
         vertex 1.882038e+000 5.812315e+000 3.048000e+000
         vertex 2.294063e+000 6.848842e+000 3.048000e+000
      endloop
   endfacet
   facet normal 0.000000e+000 0.000000e+000 1.000000e+000
      outer loop
         vertex 2.294063e+000 6.848842e+000 3.048000e+000
         vertex 1.882038e+000 5.812315e+000 3.048000e+000
         vertex 2.666164e+000 6.928571e+000 3.048000e+000
      endloop
   endfacet
   facet normal 0.000000e+000 0.000000e+000 1.000000e+000
      outer loop
         vertex 2.294063e+000 6.848842e+000 3.048000e+000
         vertex 2.666164e+000 6.928571e+000 3.048000e+000
         vertex 4.351698e+000 8.036819e+000 3.048000e+000
      endloop
   endfacet
   facet normal 0.000000e+000 0.000000e+000 1.000000e+000
      outer loop
         vertex 4.351698e+000 8.036819e+000 3.048000e+000
         vertex 2.666164e+000 6.928571e+000 3.048000e+000
         vertex 3.817775e+000 7.659784e+000 3.048000e+000
      endloop
   endfacet
   facet normal 0.000000e+000 0.000000e+000 1.000000e+000
      outer loop
         vertex 4.351698e+000 8.036819e+000 3.048000e+000
         vertex 3.817775e+000 7.659784e+000 3.048000e+000
         vertex 5.808302e+000 8.036819e+000 3.048000e+000
      endloop
   endfacet
   facet normal 0.000000e+000 0.000000e+000 1.000000e+000
      outer loop
         vertex 5.808302e+000 8.036819e+000 3.048000e+000
         vertex 3.817775e+000 7.659784e+000 3.048000e+000
         vertex 5.161548e+000 7.894636e+000 3.048000e+000
      endloop
   endfacet
   facet normal 0.000000e+000 0.000000e+000 1.000000e+000
      outer loop
         vertex 5.808302e+000 8.036819e+000 3.048000e+000
         vertex 5.161548e+000 7.894636e+000 3.048000e+000
         vertex 6.492906e+000 7.597371e+000 3.048000e+000
      endloop
   endfacet
   facet normal 0.000000e+000 0.000000e+000 -1.000000e+000
      outer loop
         vertex 0.000000e+000 4.399409e+000 0.000000e+000
         vertex 3.556000e+000 4.399409e+000 0.000000e+000
         vertex 3.672008e+000 3.816200e+000 0.000000e+000
      endloop
   endfacet
   facet normal 0.000000e+000 0.000000e+000 -1.000000e+000
      outer loop
         vertex 7.620000e+000 8.798818e+000 0.000000e+000
         vertex 5.663209e+000 5.807402e+000 0.000000e+000
         vertex 5.080000e+000 5.923409e+000 0.000000e+000
      endloop
   endfacet
   facet normal 0.000000e+000 0.000000e+000 -1.000000e+000
      outer loop
         vertex 0.000000e+000 4.399409e+000 0.000000e+000
         vertex 3.672008e+000 3.816200e+000 0.000000e+000
         vertex 2.540000e+000 0.000000e+000 0.000000e+000
      endloop
   endfacet
   facet normal 0.000000e+000 0.000000e+000 -1.000000e+000
      outer loop
         vertex 7.620000e+000 8.798818e+000 0.000000e+000
         vertex 5.080000e+000 5.923409e+000 0.000000e+000
         vertex 2.540000e+000 8.798818e+000 0.000000e+000
      endloop
   endfacet
   facet normal 0.000000e+000 0.000000e+000 -1.000000e+000
      outer loop
         vertex 5.080000e+000 5.923409e+000 0.000000e+000
         vertex 4.496790e+000 5.807402e+000 0.000000e+000
         vertex 2.540000e+000 8.798818e+000 0.000000e+000
      endloop
   endfacet
   facet normal 0.000000e+000 0.000000e+000 -1.000000e+000
      outer loop
         vertex 2.540000e+000 8.798818e+000 0.000000e+000
         vertex 4.496790e+000 5.807402e+000 0.000000e+000
         vertex 4.002369e+000 5.477040e+000 0.000000e+000
      endloop
   endfacet
   facet normal 0.000000e+000 0.000000e+000 -1.000000e+000
      outer loop
         vertex 2.540000e+000 8.798818e+000 0.000000e+000
         vertex 4.002369e+000 5.477040e+000 0.000000e+000
         vertex 0.000000e+000 4.399409e+000 0.000000e+000
      endloop
   endfacet
   facet normal 0.000000e+000 0.000000e+000 -1.000000e+000
      outer loop
         vertex 0.000000e+000 4.399409e+000 0.000000e+000
         vertex 4.002369e+000 5.477040e+000 0.000000e+000
         vertex 3.672008e+000 4.982619e+000 0.000000e+000
      endloop
   endfacet
   facet normal 0.000000e+000 0.000000e+000 -1.000000e+000
      outer loop
         vertex 0.000000e+000 4.399409e+000 0.000000e+000
         vertex 3.672008e+000 4.982619e+000 0.000000e+000
         vertex 3.556000e+000 4.399409e+000 0.000000e+000
      endloop
   endfacet
   facet normal 0.000000e+000 0.000000e+000 -1.000000e+000
      outer loop
         vertex 6.487993e+000 3.816200e+000 0.000000e+000
         vertex 1.016000e+001 4.399409e+000 0.000000e+000
         vertex 6.157631e+000 3.321778e+000 0.000000e+000
      endloop
   endfacet
   facet normal 0.000000e+000 0.000000e+000 -1.000000e+000
      outer loop
         vertex 6.157631e+000 3.321778e+000 0.000000e+000
         vertex 1.016000e+001 4.399409e+000 0.000000e+000
         vertex 7.620000e+000 0.000000e+000 0.000000e+000
      endloop
   endfacet
   facet normal 0.000000e+000 0.000000e+000 -1.000000e+000
      outer loop
         vertex 6.157631e+000 3.321778e+000 0.000000e+000
         vertex 7.620000e+000 0.000000e+000 0.000000e+000
         vertex 5.663209e+000 2.991416e+000 0.000000e+000
      endloop
   endfacet
   facet normal 0.000000e+000 0.000000e+000 -1.000000e+000
      outer loop
         vertex 6.487993e+000 3.816200e+000 0.000000e+000
         vertex 6.604000e+000 4.399409e+000 0.000000e+000
         vertex 1.016000e+001 4.399409e+000 0.000000e+000
      endloop
   endfacet
   facet normal 0.000000e+000 0.000000e+000 -1.000000e+000
      outer loop
         vertex 1.016000e+001 4.399409e+000 0.000000e+000
         vertex 6.604000e+000 4.399409e+000 0.000000e+000
         vertex 6.487993e+000 4.982619e+000 0.000000e+000
      endloop
   endfacet
   facet normal 0.000000e+000 0.000000e+000 -1.000000e+000
      outer loop
         vertex 1.016000e+001 4.399409e+000 0.000000e+000
         vertex 6.487993e+000 4.982619e+000 0.000000e+000
         vertex 7.620000e+000 8.798818e+000 0.000000e+000
      endloop
   endfacet
   facet normal 0.000000e+000 0.000000e+000 -1.000000e+000
      outer loop
         vertex 7.620000e+000 8.798818e+000 0.000000e+000
         vertex 6.487993e+000 4.982619e+000 0.000000e+000
         vertex 6.157631e+000 5.477040e+000 0.000000e+000
      endloop
   endfacet
   facet normal 0.000000e+000 0.000000e+000 -1.000000e+000
      outer loop
         vertex 7.620000e+000 8.798818e+000 0.000000e+000
         vertex 6.157631e+000 5.477040e+000 0.000000e+000
         vertex 5.663209e+000 5.807402e+000 0.000000e+000
      endloop
   endfacet
   facet normal 0.000000e+000 0.000000e+000 -1.000000e+000
      outer loop
         vertex 3.672008e+000 3.816200e+000 0.000000e+000
         vertex 4.002369e+000 3.321778e+000 0.000000e+000
         vertex 2.540000e+000 0.000000e+000 0.000000e+000
      endloop
   endfacet
   facet normal 0.000000e+000 0.000000e+000 -1.000000e+000
      outer loop
         vertex 2.540000e+000 0.000000e+000 0.000000e+000
         vertex 4.002369e+000 3.321778e+000 0.000000e+000
         vertex 4.496790e+000 2.991416e+000 0.000000e+000
      endloop
   endfacet
   facet normal 0.000000e+000 0.000000e+000 -1.000000e+000
      outer loop
         vertex 2.540000e+000 0.000000e+000 0.000000e+000
         vertex 4.496790e+000 2.991416e+000 0.000000e+000
         vertex 7.620000e+000 0.000000e+000 0.000000e+000
      endloop
   endfacet
   facet normal 0.000000e+000 0.000000e+000 -1.000000e+000
      outer loop
         vertex 7.620000e+000 0.000000e+000 0.000000e+000
         vertex 4.496790e+000 2.991416e+000 0.000000e+000
         vertex 5.080000e+000 2.875409e+000 0.000000e+000
      endloop
   endfacet
   facet normal 0.000000e+000 0.000000e+000 -1.000000e+000
      outer loop
         vertex 7.620000e+000 0.000000e+000 0.000000e+000
         vertex 5.080000e+000 2.875409e+000 0.000000e+000
         vertex 5.663209e+000 2.991416e+000 0.000000e+000
      endloop
   endfacet
   facet normal -8.660254e-001 5.000000e-001 0.000000e+000
      outer loop
         vertex 2.540000e+000 8.798818e+000 1.692012e+000
         vertex 2.540000e+000 8.798818e+000 8.673617e-016
         vertex 1.854122e+000 7.610842e+000 2.286000e+000
      endloop
   endfacet
   facet normal -8.660254e-001 5.000000e-001 0.000000e+000
      outer loop
         vertex 1.854122e+000 7.610842e+000 2.286000e+000
         vertex 2.540000e+000 8.798818e+000 8.673617e-016
         vertex 0.000000e+000 4.399409e+000 8.673617e-016
      endloop
   endfacet
   facet normal -8.660254e-001 5.000000e-001 0.000000e+000
      outer loop
         vertex 1.854122e+000 7.610842e+000 2.286000e+000
         vertex 0.000000e+000 4.399409e+000 8.673617e-016
         vertex 6.858786e-001 5.587385e+000 2.286000e+000
      endloop
   endfacet
   facet normal -8.660254e-001 5.000000e-001 0.000000e+000
      outer loop
         vertex 6.858786e-001 5.587385e+000 2.286000e+000
         vertex 0.000000e+000 4.399409e+000 8.673617e-016
         vertex 0.000000e+000 4.399409e+000 1.692012e+000
      endloop
   endfacet
   facet normal -8.660254e-001 -5.000000e-001 0.000000e+000
      outer loop
         vertex 0.000000e+000 4.399409e+000 1.692012e+000
         vertex 0.000000e+000 4.399409e+000 0.000000e+000
         vertex 6.858786e-001 3.211433e+000 2.286000e+000
      endloop
   endfacet
   facet normal -8.660254e-001 -5.000000e-001 0.000000e+000
      outer loop
         vertex 6.858786e-001 3.211433e+000 2.286000e+000
         vertex 0.000000e+000 4.399409e+000 0.000000e+000
         vertex 2.540000e+000 0.000000e+000 0.000000e+000
      endloop
   endfacet
   facet normal -8.660254e-001 -5.000000e-001 0.000000e+000
      outer loop
         vertex 6.858786e-001 3.211433e+000 2.286000e+000
         vertex 2.540000e+000 0.000000e+000 0.000000e+000
         vertex 1.854122e+000 1.187976e+000 2.286000e+000
      endloop
   endfacet
   facet normal -8.660254e-001 -5.000000e-001 0.000000e+000
      outer loop
         vertex 1.854122e+000 1.187976e+000 2.286000e+000
         vertex 2.540000e+000 0.000000e+000 0.000000e+000
         vertex 2.540000e+000 0.000000e+000 1.692012e+000
      endloop
   endfacet
   facet normal -1.707405e-016 -1.000000e+000 0.000000e+000
      outer loop
         vertex 2.540000e+000 0.000000e+000 1.692012e+000
         vertex 2.540000e+000 0.000000e+000 8.673617e-016
         vertex 3.911757e+000 0.000000e+000 2.286000e+000
      endloop
   endfacet
   facet normal -1.707405e-016 -1.000000e+000 0.000000e+000
      outer loop
         vertex 3.911757e+000 0.000000e+000 2.286000e+000
         vertex 2.540000e+000 0.000000e+000 8.673617e-016
         vertex 7.620000e+000 0.000000e+000 8.673617e-016
      endloop
   endfacet
   facet normal -1.707405e-016 -1.000000e+000 0.000000e+000
      outer loop
         vertex 3.911757e+000 0.000000e+000 2.286000e+000
         vertex 7.620000e+000 0.000000e+000 8.673617e-016
         vertex 6.248243e+000 0.000000e+000 2.286000e+000
      endloop
   endfacet
   facet normal -1.707405e-016 -1.000000e+000 0.000000e+000
      outer loop
         vertex 6.248243e+000 0.000000e+000 2.286000e+000
         vertex 7.620000e+000 0.000000e+000 8.673617e-016
         vertex 7.620000e+000 0.000000e+000 1.692012e+000
      endloop
   endfacet
   facet normal 8.660254e-001 -5.000000e-001 0.000000e+000
      outer loop
         vertex 7.620000e+000 0.000000e+000 1.692012e+000
         vertex 7.620000e+000 0.000000e+000 0.000000e+000
         vertex 8.305879e+000 1.187976e+000 2.286000e+000
      endloop
   endfacet
   facet normal 8.660254e-001 -5.000000e-001 0.000000e+000
      outer loop
         vertex 8.305879e+000 1.187976e+000 2.286000e+000
         vertex 7.620000e+000 0.000000e+000 0.000000e+000
         vertex 1.016000e+001 4.399409e+000 0.000000e+000
      endloop
   endfacet
   facet normal 8.660254e-001 -5.000000e-001 0.000000e+000
      outer loop
         vertex 8.305879e+000 1.187976e+000 2.286000e+000
         vertex 1.016000e+001 4.399409e+000 0.000000e+000
         vertex 9.474121e+000 3.211433e+000 2.286000e+000
      endloop
   endfacet
   facet normal 8.660254e-001 -5.000000e-001 0.000000e+000
      outer loop
         vertex 9.474121e+000 3.211433e+000 2.286000e+000
         vertex 1.016000e+001 4.399409e+000 0.000000e+000
         vertex 1.016000e+001 4.399409e+000 1.692012e+000
      endloop
   endfacet
   facet normal 8.660254e-001 5.000000e-001 0.000000e+000
      outer loop
         vertex 1.016000e+001 4.399409e+000 1.692012e+000
         vertex 1.016000e+001 4.399409e+000 0.000000e+000
         vertex 9.474121e+000 5.587385e+000 2.286000e+000
      endloop
   endfacet
   facet normal 8.660254e-001 5.000000e-001 0.000000e+000
      outer loop
         vertex 9.474121e+000 5.587385e+000 2.286000e+000
         vertex 1.016000e+001 4.399409e+000 0.000000e+000
         vertex 7.620000e+000 8.798818e+000 0.000000e+000
      endloop
   endfacet
   facet normal 8.660254e-001 5.000000e-001 0.000000e+000
      outer loop
         vertex 9.474121e+000 5.587385e+000 2.286000e+000
         vertex 7.620000e+000 8.798818e+000 0.000000e+000
         vertex 8.305879e+000 7.610842e+000 2.286000e+000
      endloop
   endfacet
   facet normal 8.660254e-001 5.000000e-001 0.000000e+000
      outer loop
         vertex 8.305879e+000 7.610842e+000 2.286000e+000
         vertex 7.620000e+000 8.798818e+000 0.000000e+000
         vertex 7.620000e+000 8.798818e+000 1.692012e+000
      endloop
   endfacet
   facet normal -1.707405e-016 1.000000e+000 0.000000e+000
      outer loop
         vertex 7.620000e+000 8.798818e+000 1.692012e+000
         vertex 7.620000e+000 8.798818e+000 8.673617e-016
         vertex 6.248243e+000 8.798818e+000 2.286000e+000
      endloop
   endfacet
   facet normal -1.707405e-016 1.000000e+000 0.000000e+000
      outer loop
         vertex 6.248243e+000 8.798818e+000 2.286000e+000
         vertex 7.620000e+000 8.798818e+000 8.673617e-016
         vertex 2.540000e+000 8.798818e+000 8.673617e-016
      endloop
   endfacet
   facet normal -1.707405e-016 1.000000e+000 0.000000e+000
      outer loop
         vertex 6.248243e+000 8.798818e+000 2.286000e+000
         vertex 2.540000e+000 8.798818e+000 8.673617e-016
         vertex 3.911757e+000 8.798818e+000 2.286000e+000
      endloop
   endfacet
   facet normal -1.707405e-016 1.000000e+000 0.000000e+000
      outer loop
         vertex 3.911757e+000 8.798818e+000 2.286000e+000
         vertex 2.540000e+000 8.798818e+000 8.673617e-016
         vertex 2.540000e+000 8.798818e+000 1.692012e+000
      endloop
   endfacet
   facet normal 9.807853e-001 -1.950903e-001 0.000000e+000
      outer loop
         vertex 3.672008e+000 4.982619e+000 3.987800e+000
         vertex 3.556000e+000 4.399409e+000 3.987800e+000
         vertex 3.672008e+000 4.982619e+000 0.000000e+000
      endloop
   endfacet
   facet normal 9.807853e-001 -1.950903e-001 0.000000e+000
      outer loop
         vertex 3.672008e+000 4.982619e+000 0.000000e+000
         vertex 3.556000e+000 4.399409e+000 3.987800e+000
         vertex 3.556000e+000 4.399409e+000 0.000000e+000
      endloop
   endfacet
   facet normal 9.807853e-001 1.950903e-001 0.000000e+000
      outer loop
         vertex 3.556000e+000 4.399409e+000 3.987800e+000
         vertex 3.672008e+000 3.816200e+000 3.987800e+000
         vertex 3.556000e+000 4.399409e+000 0.000000e+000
      endloop
   endfacet
   facet normal 9.807853e-001 1.950903e-001 0.000000e+000
      outer loop
         vertex 3.556000e+000 4.399409e+000 0.000000e+000
         vertex 3.672008e+000 3.816200e+000 3.987800e+000
         vertex 3.672008e+000 3.816200e+000 0.000000e+000
      endloop
   endfacet
   facet normal 8.314696e-001 5.555702e-001 0.000000e+000
      outer loop
         vertex 3.672008e+000 3.816200e+000 3.987800e+000
         vertex 4.002369e+000 3.321778e+000 3.987800e+000
         vertex 3.672008e+000 3.816200e+000 -1.734723e-015
      endloop
   endfacet
   facet normal 8.314696e-001 5.555702e-001 0.000000e+000
      outer loop
         vertex 3.672008e+000 3.816200e+000 -1.734723e-015
         vertex 4.002369e+000 3.321778e+000 3.987800e+000
         vertex 4.002369e+000 3.321778e+000 -1.734723e-015
      endloop
   endfacet
   facet normal 5.555702e-001 8.314696e-001 0.000000e+000
      outer loop
         vertex 4.002369e+000 3.321778e+000 3.987800e+000
         vertex 4.496790e+000 2.991416e+000 3.987800e+000
         vertex 4.002369e+000 3.321778e+000 0.000000e+000
      endloop
   endfacet
   facet normal 5.555702e-001 8.314696e-001 0.000000e+000
      outer loop
         vertex 4.002369e+000 3.321778e+000 0.000000e+000
         vertex 4.496790e+000 2.991416e+000 3.987800e+000
         vertex 4.496790e+000 2.991416e+000 0.000000e+000
      endloop
   endfacet
   facet normal 1.950903e-001 9.807853e-001 0.000000e+000
      outer loop
         vertex 4.496790e+000 2.991416e+000 3.987800e+000
         vertex 5.080000e+000 2.875409e+000 3.987800e+000
         vertex 4.496790e+000 2.991416e+000 0.000000e+000
      endloop
   endfacet
   facet normal 1.950903e-001 9.807853e-001 0.000000e+000
      outer loop
         vertex 4.496790e+000 2.991416e+000 0.000000e+000
         vertex 5.080000e+000 2.875409e+000 3.987800e+000
         vertex 5.080000e+000 2.875409e+000 0.000000e+000
      endloop
   endfacet
   facet normal -1.950903e-001 9.807853e-001 0.000000e+000
      outer loop
         vertex 5.080000e+000 2.875409e+000 3.987800e+000
         vertex 5.663209e+000 2.991416e+000 3.987800e+000
         vertex 5.080000e+000 2.875409e+000 0.000000e+000
      endloop
   endfacet
   facet normal -1.950903e-001 9.807853e-001 0.000000e+000
      outer loop
         vertex 5.080000e+000 2.875409e+000 0.000000e+000
         vertex 5.663209e+000 2.991416e+000 3.987800e+000
         vertex 5.663209e+000 2.991416e+000 0.000000e+000
      endloop
   endfacet
   facet normal -5.555702e-001 8.314696e-001 0.000000e+000
      outer loop
         vertex 5.663209e+000 2.991416e+000 3.987800e+000
         vertex 6.157631e+000 3.321778e+000 3.987800e+000
         vertex 5.663209e+000 2.991416e+000 0.000000e+000
      endloop
   endfacet
   facet normal -5.555702e-001 8.314696e-001 0.000000e+000
      outer loop
         vertex 5.663209e+000 2.991416e+000 0.000000e+000
         vertex 6.157631e+000 3.321778e+000 3.987800e+000
         vertex 6.157631e+000 3.321778e+000 0.000000e+000
      endloop
   endfacet
   facet normal -8.314696e-001 5.555702e-001 0.000000e+000
      outer loop
         vertex 6.157631e+000 3.321778e+000 3.987800e+000
         vertex 6.487993e+000 3.816200e+000 3.987800e+000
         vertex 6.157631e+000 3.321778e+000 0.000000e+000
      endloop
   endfacet
   facet normal -8.314696e-001 5.555702e-001 0.000000e+000
      outer loop
         vertex 6.157631e+000 3.321778e+000 0.000000e+000
         vertex 6.487993e+000 3.816200e+000 3.987800e+000
         vertex 6.487993e+000 3.816200e+000 0.000000e+000
      endloop
   endfacet
   facet normal -9.807853e-001 1.950903e-001 0.000000e+000
      outer loop
         vertex 6.487993e+000 3.816200e+000 3.987800e+000
         vertex 6.604000e+000 4.399409e+000 3.987800e+000
         vertex 6.487993e+000 3.816200e+000 -1.734723e-015
      endloop
   endfacet
   facet normal -9.807853e-001 1.950903e-001 0.000000e+000
      outer loop
         vertex 6.487993e+000 3.816200e+000 -1.734723e-015
         vertex 6.604000e+000 4.399409e+000 3.987800e+000
         vertex 6.604000e+000 4.399409e+000 -1.734723e-015
      endloop
   endfacet
   facet normal -9.807853e-001 -1.950903e-001 0.000000e+000
      outer loop
         vertex 6.604000e+000 4.399409e+000 3.987800e+000
         vertex 6.487993e+000 4.982619e+000 3.987800e+000
         vertex 6.604000e+000 4.399409e+000 0.000000e+000
      endloop
   endfacet
   facet normal -9.807853e-001 -1.950903e-001 0.000000e+000
      outer loop
         vertex 6.604000e+000 4.399409e+000 0.000000e+000
         vertex 6.487993e+000 4.982619e+000 3.987800e+000
         vertex 6.487993e+000 4.982619e+000 0.000000e+000
      endloop
   endfacet
   facet normal -8.314696e-001 -5.555702e-001 0.000000e+000
      outer loop
         vertex 6.487993e+000 4.982619e+000 3.987800e+000
         vertex 6.157631e+000 5.477040e+000 3.987800e+000
         vertex 6.487993e+000 4.982619e+000 0.000000e+000
      endloop
   endfacet
   facet normal -8.314696e-001 -5.555702e-001 0.000000e+000
      outer loop
         vertex 6.487993e+000 4.982619e+000 0.000000e+000
         vertex 6.157631e+000 5.477040e+000 3.987800e+000
         vertex 6.157631e+000 5.477040e+000 0.000000e+000
      endloop
   endfacet
   facet normal -5.555702e-001 -8.314696e-001 0.000000e+000
      outer loop
         vertex 6.157631e+000 5.477040e+000 3.987800e+000
         vertex 5.663209e+000 5.807402e+000 3.987800e+000
         vertex 6.157631e+000 5.477040e+000 0.000000e+000
      endloop
   endfacet
   facet normal -5.555702e-001 -8.314696e-001 0.000000e+000
      outer loop
         vertex 6.157631e+000 5.477040e+000 0.000000e+000
         vertex 5.663209e+000 5.807402e+000 3.987800e+000
         vertex 5.663209e+000 5.807402e+000 0.000000e+000
      endloop
   endfacet
   facet normal -1.950903e-001 -9.807853e-001 0.000000e+000
      outer loop
         vertex 5.663209e+000 5.807402e+000 3.987800e+000
         vertex 5.080000e+000 5.923409e+000 3.987800e+000
         vertex 5.663209e+000 5.807402e+000 0.000000e+000
      endloop
   endfacet
   facet normal -1.950903e-001 -9.807853e-001 0.000000e+000
      outer loop
         vertex 5.663209e+000 5.807402e+000 0.000000e+000
         vertex 5.080000e+000 5.923409e+000 3.987800e+000
         vertex 5.080000e+000 5.923409e+000 0.000000e+000
      endloop
   endfacet
   facet normal 1.950903e-001 -9.807853e-001 0.000000e+000
      outer loop
         vertex 5.080000e+000 5.923409e+000 3.987800e+000
         vertex 4.496790e+000 5.807402e+000 3.987800e+000
         vertex 5.080000e+000 5.923409e+000 0.000000e+000
      endloop
   endfacet
   facet normal 1.950903e-001 -9.807853e-001 0.000000e+000
      outer loop
         vertex 5.080000e+000 5.923409e+000 0.000000e+000
         vertex 4.496790e+000 5.807402e+000 3.987800e+000
         vertex 4.496790e+000 5.807402e+000 0.000000e+000
      endloop
   endfacet
   facet normal 5.555702e-001 -8.314696e-001 0.000000e+000
      outer loop
         vertex 4.496790e+000 5.807402e+000 3.987800e+000
         vertex 4.002369e+000 5.477040e+000 3.987800e+000
         vertex 4.496790e+000 5.807402e+000 -1.734723e-015
      endloop
   endfacet
   facet normal 5.555702e-001 -8.314696e-001 0.000000e+000
      outer loop
         vertex 4.496790e+000 5.807402e+000 -1.734723e-015
         vertex 4.002369e+000 5.477040e+000 3.987800e+000
         vertex 4.002369e+000 5.477040e+000 -1.734723e-015
      endloop
   endfacet
   facet normal 8.314696e-001 -5.555702e-001 0.000000e+000
      outer loop
         vertex 4.002369e+000 5.477040e+000 3.987800e+000
         vertex 3.672008e+000 4.982619e+000 3.987800e+000
         vertex 4.002369e+000 5.477040e+000 -1.734723e-015
      endloop
   endfacet
   facet normal 8.314696e-001 -5.555702e-001 0.000000e+000
      outer loop
         vertex 4.002369e+000 5.477040e+000 -1.734723e-015
         vertex 3.672008e+000 4.982619e+000 3.987800e+000
         vertex 3.672008e+000 4.982619e+000 -1.734723e-015
      endloop
   endfacet
   facet normal 6.123725e-001 3.535534e-001 7.071068e-001
      outer loop
         vertex 9.474121e+000 5.587385e+000 2.286000e+000
         vertex 8.305879e+000 7.610842e+000 2.286000e+000
         vertex 8.594240e+000 5.587385e+000 3.048000e+000
      endloop
   endfacet
   facet normal 6.123725e-001 3.535534e-001 7.071068e-001
      outer loop
         vertex 8.594240e+000 5.587385e+000 3.048000e+000
         vertex 8.305879e+000 7.610842e+000 2.286000e+000
         vertex 7.865937e+000 6.848842e+000 3.048000e+000
      endloop
   endfacet
   facet normal -1.207318e-016 7.071068e-001 7.071068e-001
      outer loop
         vertex 6.248243e+000 8.798818e+000 2.286000e+000
         vertex 3.911757e+000 8.798818e+000 2.286000e+000
         vertex 5.808302e+000 8.036819e+000 3.048000e+000
      endloop
   endfacet
   facet normal -1.207318e-016 7.071068e-001 7.071068e-001
      outer loop
         vertex 5.808302e+000 8.036819e+000 3.048000e+000
         vertex 3.911757e+000 8.798818e+000 2.286000e+000
         vertex 4.351698e+000 8.036819e+000 3.048000e+000
      endloop
   endfacet
   facet normal 6.123725e-001 -3.535534e-001 7.071068e-001
      outer loop
         vertex 8.305879e+000 1.187976e+000 2.286000e+000
         vertex 9.474121e+000 3.211433e+000 2.286000e+000
         vertex 7.865937e+000 1.949976e+000 3.048000e+000
      endloop
   endfacet
   facet normal 6.123725e-001 -3.535534e-001 7.071068e-001
      outer loop
         vertex 7.865937e+000 1.949976e+000 3.048000e+000
         vertex 9.474121e+000 3.211433e+000 2.286000e+000
         vertex 8.594240e+000 3.211433e+000 3.048000e+000
      endloop
   endfacet
   facet normal -6.123725e-001 3.535534e-001 7.071068e-001
      outer loop
         vertex 1.854122e+000 7.610842e+000 2.286000e+000
         vertex 6.858786e-001 5.587385e+000 2.286000e+000
         vertex 2.294063e+000 6.848842e+000 3.048000e+000
      endloop
   endfacet
   facet normal -6.123725e-001 3.535534e-001 7.071068e-001
      outer loop
         vertex 2.294063e+000 6.848842e+000 3.048000e+000
         vertex 6.858786e-001 5.587385e+000 2.286000e+000
         vertex 1.565760e+000 5.587385e+000 3.048000e+000
      endloop
   endfacet
   facet normal -1.207318e-016 -7.071068e-001 7.071068e-001
      outer loop
         vertex 3.911757e+000 0.000000e+000 2.286000e+000
         vertex 6.248243e+000 0.000000e+000 2.286000e+000
         vertex 4.351698e+000 7.620000e-001 3.048000e+000
      endloop
   endfacet
   facet normal -1.207318e-016 -7.071068e-001 7.071068e-001
      outer loop
         vertex 4.351698e+000 7.620000e-001 3.048000e+000
         vertex 6.248243e+000 0.000000e+000 2.286000e+000
         vertex 5.808302e+000 7.620000e-001 3.048000e+000
      endloop
   endfacet
   facet normal -6.123725e-001 -3.535534e-001 7.071068e-001
      outer loop
         vertex 2.294063e+000 1.949976e+000 3.048000e+000
         vertex 1.565760e+000 3.211433e+000 3.048000e+000
         vertex 1.854122e+000 1.187976e+000 2.286000e+000
      endloop
   endfacet
   facet normal -6.123725e-001 -3.535534e-001 7.071068e-001
      outer loop
         vertex 1.854122e+000 1.187976e+000 2.286000e+000
         vertex 1.565760e+000 3.211433e+000 3.048000e+000
         vertex 6.858786e-001 3.211433e+000 2.286000e+000
      endloop
   endfacet
   facet normal -6.546537e-001 -5.475878e-016 7.559289e-001
      outer loop
         vertex 0.000000e+000 4.399409e+000 1.692012e+000
         vertex 6.858786e-001 3.211433e+000 2.286000e+000
         vertex 6.858786e-001 5.587385e+000 2.286000e+000
      endloop
   endfacet
   facet normal -6.546537e-001 -5.475878e-016 7.559289e-001
      outer loop
         vertex 6.858786e-001 5.587385e+000 2.286000e+000
         vertex 6.858786e-001 3.211433e+000 2.286000e+000
         vertex 1.565760e+000 3.211433e+000 3.048000e+000
      endloop
   endfacet
   facet normal -6.546537e-001 -5.475878e-016 7.559289e-001
      outer loop
         vertex 6.858786e-001 5.587385e+000 2.286000e+000
         vertex 1.565760e+000 3.211433e+000 3.048000e+000
         vertex 1.565760e+000 5.587385e+000 3.048000e+000
      endloop
   endfacet
   facet normal -3.273268e-001 -5.669467e-001 7.559289e-001
      outer loop
         vertex 4.351698e+000 7.620000e-001 3.048000e+000
         vertex 2.294063e+000 1.949976e+000 3.048000e+000
         vertex 3.911757e+000 0.000000e+000 2.286000e+000
      endloop
   endfacet
   facet normal -3.273268e-001 -5.669467e-001 7.559289e-001
      outer loop
         vertex 3.911757e+000 0.000000e+000 2.286000e+000
         vertex 2.294063e+000 1.949976e+000 3.048000e+000
         vertex 1.854122e+000 1.187976e+000 2.286000e+000
      endloop
   endfacet
   facet normal -3.273268e-001 -5.669467e-001 7.559289e-001
      outer loop
         vertex 3.911757e+000 0.000000e+000 2.286000e+000
         vertex 1.854122e+000 1.187976e+000 2.286000e+000
         vertex 2.540000e+000 0.000000e+000 1.692012e+000
      endloop
   endfacet
   facet normal 3.273268e-001 -5.669467e-001 7.559289e-001
      outer loop
         vertex 7.620000e+000 0.000000e+000 1.692012e+000
         vertex 8.305879e+000 1.187976e+000 2.286000e+000
         vertex 6.248243e+000 0.000000e+000 2.286000e+000
      endloop
   endfacet
   facet normal 3.273268e-001 -5.669467e-001 7.559289e-001
      outer loop
         vertex 6.248243e+000 0.000000e+000 2.286000e+000
         vertex 8.305879e+000 1.187976e+000 2.286000e+000
         vertex 7.865937e+000 1.949976e+000 3.048000e+000
      endloop
   endfacet
   facet normal 3.273268e-001 -5.669467e-001 7.559289e-001
      outer loop
         vertex 6.248243e+000 0.000000e+000 2.286000e+000
         vertex 7.865937e+000 1.949976e+000 3.048000e+000
         vertex 5.808302e+000 7.620000e-001 3.048000e+000
      endloop
   endfacet
   facet normal 6.546537e-001 9.126464e-017 7.559289e-001
      outer loop
         vertex 1.016000e+001 4.399409e+000 1.692012e+000
         vertex 9.474121e+000 5.587385e+000 2.286000e+000
         vertex 9.474121e+000 3.211433e+000 2.286000e+000
      endloop
   endfacet
   facet normal 6.546537e-001 9.126464e-017 7.559289e-001
      outer loop
         vertex 9.474121e+000 3.211433e+000 2.286000e+000
         vertex 9.474121e+000 5.587385e+000 2.286000e+000
         vertex 8.594240e+000 5.587385e+000 3.048000e+000
      endloop
   endfacet
   facet normal 6.546537e-001 9.126464e-017 7.559289e-001
      outer loop
         vertex 9.474121e+000 3.211433e+000 2.286000e+000
         vertex 8.594240e+000 5.587385e+000 3.048000e+000
         vertex 8.594240e+000 3.211433e+000 3.048000e+000
      endloop
   endfacet
   facet normal 3.273268e-001 5.669467e-001 7.559289e-001
      outer loop
         vertex 5.808302e+000 8.036819e+000 3.048000e+000
         vertex 7.865937e+000 6.848842e+000 3.048000e+000
         vertex 6.248243e+000 8.798818e+000 2.286000e+000
      endloop
   endfacet
   facet normal 3.273268e-001 5.669467e-001 7.559289e-001
      outer loop
         vertex 6.248243e+000 8.798818e+000 2.286000e+000
         vertex 7.865937e+000 6.848842e+000 3.048000e+000
         vertex 8.305879e+000 7.610842e+000 2.286000e+000
      endloop
   endfacet
   facet normal 3.273268e-001 5.669467e-001 7.559289e-001
      outer loop
         vertex 6.248243e+000 8.798818e+000 2.286000e+000
         vertex 8.305879e+000 7.610842e+000 2.286000e+000
         vertex 7.620000e+000 8.798818e+000 1.692012e+000
      endloop
   endfacet
   facet normal -3.273268e-001 5.669467e-001 7.559289e-001
      outer loop
         vertex 2.540000e+000 8.798818e+000 1.692012e+000
         vertex 1.854122e+000 7.610842e+000 2.286000e+000
         vertex 3.911757e+000 8.798818e+000 2.286000e+000
      endloop
   endfacet
   facet normal -3.273268e-001 5.669467e-001 7.559289e-001
      outer loop
         vertex 3.911757e+000 8.798818e+000 2.286000e+000
         vertex 1.854122e+000 7.610842e+000 2.286000e+000
         vertex 2.294063e+000 6.848842e+000 3.048000e+000
      endloop
   endfacet
   facet normal -3.273268e-001 5.669467e-001 7.559289e-001
      outer loop
         vertex 3.911757e+000 8.798818e+000 2.286000e+000
         vertex 2.294063e+000 6.848842e+000 3.048000e+000
         vertex 4.351698e+000 8.036819e+000 3.048000e+000
      endloop
   endfacet
   facet normal 0.000000e+000 0.000000e+000 1.000000e+000
      outer loop
         vertex 6.487993e+000 4.982619e+000 3.987800e+000
         vertex 8.454644e+000 5.007811e+000 3.987800e+000
         vertex 6.157631e+000 5.477040e+000 3.987800e+000
      endloop
   endfacet
   facet normal 0.000000e+000 0.000000e+000 1.000000e+000
      outer loop
         vertex 6.157631e+000 5.477040e+000 3.987800e+000
         vertex 8.454644e+000 5.007811e+000 3.987800e+000
         vertex 7.066039e+000 7.194767e+000 3.987800e+000
      endloop
   endfacet
   facet normal 0.000000e+000 0.000000e+000 1.000000e+000
      outer loop
         vertex 6.157631e+000 5.477040e+000 3.987800e+000
         vertex 7.066039e+000 7.194767e+000 3.987800e+000
         vertex 5.663209e+000 5.807402e+000 3.987800e+000
      endloop
   endfacet
   facet normal 0.000000e+000 0.000000e+000 1.000000e+000
      outer loop
         vertex 5.663209e+000 5.807402e+000 3.987800e+000
         vertex 7.066039e+000 7.194767e+000 3.987800e+000
         vertex 7.036029e+000 7.215847e+000 3.987800e+000
      endloop
   endfacet
   facet normal 0.000000e+000 0.000000e+000 1.000000e+000
      outer loop
         vertex 5.663209e+000 5.807402e+000 3.987800e+000
         vertex 7.036029e+000 7.215847e+000 3.987800e+000
         vertex 5.080000e+000 5.923409e+000 3.987800e+000
      endloop
   endfacet
   facet normal 0.000000e+000 0.000000e+000 1.000000e+000
      outer loop
         vertex 5.080000e+000 5.923409e+000 3.987800e+000
         vertex 7.036029e+000 7.215847e+000 3.987800e+000
         vertex 4.507724e+000 7.780367e+000 3.987800e+000
      endloop
   endfacet
   facet normal 0.000000e+000 0.000000e+000 1.000000e+000
      outer loop
         vertex 5.080000e+000 5.923409e+000 3.987800e+000
         vertex 4.507724e+000 7.780367e+000 3.987800e+000
         vertex 4.496790e+000 5.807402e+000 3.987800e+000
      endloop
   endfacet
   facet normal 0.000000e+000 0.000000e+000 1.000000e+000
      outer loop
         vertex 4.496790e+000 5.807402e+000 3.987800e+000
         vertex 4.507724e+000 7.780367e+000 3.987800e+000
         vertex 4.471599e+000 7.774053e+000 3.987800e+000
      endloop
   endfacet
   facet normal 0.000000e+000 0.000000e+000 1.000000e+000
      outer loop
         vertex 4.496790e+000 5.807402e+000 3.987800e+000
         vertex 4.471599e+000 7.774053e+000 3.987800e+000
         vertex 4.002369e+000 5.477040e+000 3.987800e+000
      endloop
   endfacet
   facet normal 0.000000e+000 0.000000e+000 1.000000e+000
      outer loop
         vertex 4.002369e+000 5.477040e+000 3.987800e+000
         vertex 4.471599e+000 7.774053e+000 3.987800e+000
         vertex 2.284641e+000 6.385448e+000 3.987800e+000
      endloop
   endfacet
   facet normal 0.000000e+000 0.000000e+000 1.000000e+000
      outer loop
         vertex 4.002369e+000 5.477040e+000 3.987800e+000
         vertex 2.284641e+000 6.385448e+000 3.987800e+000
         vertex 3.672008e+000 4.982619e+000 3.987800e+000
      endloop
   endfacet
   facet normal 0.000000e+000 0.000000e+000 1.000000e+000
      outer loop
         vertex 3.672008e+000 4.982619e+000 3.987800e+000
         vertex 2.284641e+000 6.385448e+000 3.987800e+000
         vertex 2.263561e+000 6.355438e+000 3.987800e+000
      endloop
   endfacet
   facet normal 0.000000e+000 0.000000e+000 1.000000e+000
      outer loop
         vertex 3.672008e+000 4.982619e+000 3.987800e+000
         vertex 2.263561e+000 6.355438e+000 3.987800e+000
         vertex 3.556000e+000 4.399409e+000 3.987800e+000
      endloop
   endfacet
   facet normal 0.000000e+000 0.000000e+000 1.000000e+000
      outer loop
         vertex 3.556000e+000 4.399409e+000 3.987800e+000
         vertex 2.263561e+000 6.355438e+000 3.987800e+000
         vertex 1.699042e+000 3.827133e+000 3.987800e+000
      endloop
   endfacet
   facet normal 0.000000e+000 0.000000e+000 1.000000e+000
      outer loop
         vertex 3.556000e+000 4.399409e+000 3.987800e+000
         vertex 1.699042e+000 3.827133e+000 3.987800e+000
         vertex 3.672008e+000 3.816200e+000 3.987800e+000
      endloop
   endfacet
   facet normal 0.000000e+000 0.000000e+000 1.000000e+000
      outer loop
         vertex 3.672008e+000 3.816200e+000 3.987800e+000
         vertex 1.699042e+000 3.827133e+000 3.987800e+000
         vertex 1.705356e+000 3.791008e+000 3.987800e+000
      endloop
   endfacet
   facet normal 0.000000e+000 0.000000e+000 1.000000e+000
      outer loop
         vertex 3.672008e+000 3.816200e+000 3.987800e+000
         vertex 1.705356e+000 3.791008e+000 3.987800e+000
         vertex 4.002369e+000 3.321778e+000 3.987800e+000
      endloop
   endfacet
   facet normal 0.000000e+000 0.000000e+000 1.000000e+000
      outer loop
         vertex 4.002369e+000 3.321778e+000 3.987800e+000
         vertex 1.705356e+000 3.791008e+000 3.987800e+000
         vertex 3.093962e+000 1.604050e+000 3.987800e+000
      endloop
   endfacet
   facet normal 0.000000e+000 0.000000e+000 1.000000e+000
      outer loop
         vertex 4.002369e+000 3.321778e+000 3.987800e+000
         vertex 3.093962e+000 1.604050e+000 3.987800e+000
         vertex 4.496790e+000 2.991416e+000 3.987800e+000
      endloop
   endfacet
   facet normal 0.000000e+000 0.000000e+000 1.000000e+000
      outer loop
         vertex 4.496790e+000 2.991416e+000 3.987800e+000
         vertex 3.093962e+000 1.604050e+000 3.987800e+000
         vertex 3.123971e+000 1.582970e+000 3.987800e+000
      endloop
   endfacet
   facet normal 0.000000e+000 0.000000e+000 1.000000e+000
      outer loop
         vertex 4.496790e+000 2.991416e+000 3.987800e+000
         vertex 3.123971e+000 1.582970e+000 3.987800e+000
         vertex 5.080000e+000 2.875409e+000 3.987800e+000
      endloop
   endfacet
   facet normal 0.000000e+000 0.000000e+000 1.000000e+000
      outer loop
         vertex 5.080000e+000 2.875409e+000 3.987800e+000
         vertex 3.123971e+000 1.582970e+000 3.987800e+000
         vertex 5.652276e+000 1.018451e+000 3.987800e+000
      endloop
   endfacet
   facet normal 0.000000e+000 0.000000e+000 1.000000e+000
      outer loop
         vertex 5.080000e+000 2.875409e+000 3.987800e+000
         vertex 5.652276e+000 1.018451e+000 3.987800e+000
         vertex 5.663209e+000 2.991416e+000 3.987800e+000
      endloop
   endfacet
   facet normal 0.000000e+000 0.000000e+000 1.000000e+000
      outer loop
         vertex 5.663209e+000 2.991416e+000 3.987800e+000
         vertex 5.652276e+000 1.018451e+000 3.987800e+000
         vertex 5.688401e+000 1.024765e+000 3.987800e+000
      endloop
   endfacet
   facet normal 0.000000e+000 0.000000e+000 1.000000e+000
      outer loop
         vertex 5.663209e+000 2.991416e+000 3.987800e+000
         vertex 5.688401e+000 1.024765e+000 3.987800e+000
         vertex 6.157631e+000 3.321778e+000 3.987800e+000
      endloop
   endfacet
   facet normal 0.000000e+000 0.000000e+000 1.000000e+000
      outer loop
         vertex 6.157631e+000 3.321778e+000 3.987800e+000
         vertex 5.688401e+000 1.024765e+000 3.987800e+000
         vertex 7.875359e+000 2.413371e+000 3.987800e+000
      endloop
   endfacet
   facet normal 0.000000e+000 0.000000e+000 1.000000e+000
      outer loop
         vertex 6.157631e+000 3.321778e+000 3.987800e+000
         vertex 7.875359e+000 2.413371e+000 3.987800e+000
         vertex 6.487993e+000 3.816200e+000 3.987800e+000
      endloop
   endfacet
   facet normal 0.000000e+000 0.000000e+000 1.000000e+000
      outer loop
         vertex 6.487993e+000 3.816200e+000 3.987800e+000
         vertex 7.875359e+000 2.413371e+000 3.987800e+000
         vertex 7.896438e+000 2.443380e+000 3.987800e+000
      endloop
   endfacet
   facet normal 0.000000e+000 0.000000e+000 1.000000e+000
      outer loop
         vertex 6.487993e+000 3.816200e+000 3.987800e+000
         vertex 7.896438e+000 2.443380e+000 3.987800e+000
         vertex 6.604000e+000 4.399409e+000 3.987800e+000
      endloop
   endfacet
   facet normal 0.000000e+000 0.000000e+000 1.000000e+000
      outer loop
         vertex 6.604000e+000 4.399409e+000 3.987800e+000
         vertex 7.896438e+000 2.443380e+000 3.987800e+000
         vertex 8.460958e+000 4.971685e+000 3.987800e+000
      endloop
   endfacet
   facet normal 0.000000e+000 0.000000e+000 1.000000e+000
      outer loop
         vertex 6.604000e+000 4.399409e+000 3.987800e+000
         vertex 8.460958e+000 4.971685e+000 3.987800e+000
         vertex 6.487993e+000 4.982619e+000 3.987800e+000
      endloop
   endfacet
   facet normal 0.000000e+000 0.000000e+000 1.000000e+000
      outer loop
         vertex 6.487993e+000 4.982619e+000 3.987800e+000
         vertex 8.460958e+000 4.971685e+000 3.987800e+000
         vertex 8.454644e+000 5.007811e+000 3.987800e+000
      endloop
   endfacet
   facet normal -9.759680e-001 2.179139e-001 0.000000e+000
      outer loop
         vertex 1.882038e+000 5.812315e+000 3.733800e+000
         vertex 1.882038e+000 5.812315e+000 3.048000e+000
         vertex 1.584773e+000 4.480957e+000 3.733800e+000
      endloop
   endfacet
   facet normal -9.759680e-001 2.179139e-001 0.000000e+000
      outer loop
         vertex 1.584773e+000 4.480957e+000 3.733800e+000
         vertex 1.882038e+000 5.812315e+000 3.048000e+000
         vertex 1.584773e+000 4.480957e+000 3.048000e+000
      endloop
   endfacet
   facet normal -9.850689e-001 -1.721606e-001 0.000000e+000
      outer loop
         vertex 1.584773e+000 4.480957e+000 3.733800e+000
         vertex 1.584773e+000 4.480957e+000 3.048000e+000
         vertex 1.699042e+000 3.827133e+000 3.987800e+000
      endloop
   endfacet
   facet normal -9.850689e-001 -1.721606e-001 0.000000e+000
      outer loop
         vertex 1.699042e+000 3.827133e+000 3.987800e+000
         vertex 1.584773e+000 4.480957e+000 3.048000e+000
         vertex 1.819625e+000 3.137184e+000 3.048000e+000
      endloop
   endfacet
   facet normal -9.850689e-001 -1.721606e-001 0.000000e+000
      outer loop
         vertex 1.699042e+000 3.827133e+000 3.987800e+000
         vertex 1.819625e+000 3.137184e+000 3.048000e+000
         vertex 1.705356e+000 3.791008e+000 3.987800e+000
      endloop
   endfacet
   facet normal -9.850689e-001 -1.721606e-001 0.000000e+000
      outer loop
         vertex 1.705356e+000 3.791008e+000 3.987800e+000
         vertex 1.819625e+000 3.137184e+000 3.048000e+000
         vertex 1.819625e+000 3.137184e+000 3.733800e+000
      endloop
   endfacet
   facet normal -8.442020e-001 -5.360252e-001 0.000000e+000
      outer loop
         vertex 1.819625e+000 3.137184e+000 3.733800e+000
         vertex 1.819625e+000 3.137184e+000 3.048000e+000
         vertex 2.550838e+000 1.985573e+000 3.733800e+000
      endloop
   endfacet
   facet normal -8.442020e-001 -5.360252e-001 0.000000e+000
      outer loop
         vertex 2.550838e+000 1.985573e+000 3.733800e+000
         vertex 1.819625e+000 3.137184e+000 3.048000e+000
         vertex 2.550838e+000 1.985573e+000 3.048000e+000
      endloop
   endfacet
   facet normal -5.748129e-001 -8.182848e-001 0.000000e+000
      outer loop
         vertex 3.093962e+000 1.604050e+000 3.987800e+000
         vertex 2.550838e+000 1.985573e+000 3.733800e+000
         vertex 3.123971e+000 1.582970e+000 3.987800e+000
      endloop
   endfacet
   facet normal -5.748129e-001 -8.182848e-001 0.000000e+000
      outer loop
         vertex 3.123971e+000 1.582970e+000 3.987800e+000
         vertex 2.550838e+000 1.985573e+000 3.733800e+000
         vertex 2.550838e+000 1.985573e+000 3.048000e+000
      endloop
   endfacet
   facet normal -5.748129e-001 -8.182848e-001 0.000000e+000
      outer loop
         vertex 3.123971e+000 1.582970e+000 3.987800e+000
         vertex 2.550838e+000 1.985573e+000 3.048000e+000
         vertex 3.667094e+000 1.201447e+000 3.733800e+000
      endloop
   endfacet
   facet normal -5.748129e-001 -8.182848e-001 0.000000e+000
      outer loop
         vertex 3.667094e+000 1.201447e+000 3.733800e+000
         vertex 2.550838e+000 1.985573e+000 3.048000e+000
         vertex 3.667094e+000 1.201447e+000 3.048000e+000
      endloop
   endfacet
   facet normal -2.179139e-001 -9.759680e-001 0.000000e+000
      outer loop
         vertex 3.667094e+000 1.201447e+000 3.733800e+000
         vertex 3.667094e+000 1.201447e+000 3.048000e+000
         vertex 4.998453e+000 9.041822e-001 3.733800e+000
      endloop
   endfacet
   facet normal -2.179139e-001 -9.759680e-001 0.000000e+000
      outer loop
         vertex 4.998453e+000 9.041822e-001 3.733800e+000
         vertex 3.667094e+000 1.201447e+000 3.048000e+000
         vertex 4.998453e+000 9.041822e-001 3.048000e+000
      endloop
   endfacet
   facet normal 1.721606e-001 -9.850689e-001 0.000000e+000
      outer loop
         vertex 5.652276e+000 1.018451e+000 3.987800e+000
         vertex 4.998453e+000 9.041822e-001 3.733800e+000
         vertex 5.688401e+000 1.024765e+000 3.987800e+000
      endloop
   endfacet
   facet normal 1.721606e-001 -9.850689e-001 0.000000e+000
      outer loop
         vertex 5.688401e+000 1.024765e+000 3.987800e+000
         vertex 4.998453e+000 9.041822e-001 3.733800e+000
         vertex 4.998453e+000 9.041822e-001 3.048000e+000
      endloop
   endfacet
   facet normal 1.721606e-001 -9.850689e-001 0.000000e+000
      outer loop
         vertex 5.688401e+000 1.024765e+000 3.987800e+000
         vertex 4.998453e+000 9.041822e-001 3.048000e+000
         vertex 6.342225e+000 1.139034e+000 3.733800e+000
      endloop
   endfacet
   facet normal 1.721606e-001 -9.850689e-001 0.000000e+000
      outer loop
         vertex 6.342225e+000 1.139034e+000 3.733800e+000
         vertex 4.998453e+000 9.041822e-001 3.048000e+000
         vertex 6.342225e+000 1.139034e+000 3.048000e+000
      endloop
   endfacet
   facet normal 5.360252e-001 -8.442020e-001 0.000000e+000
      outer loop
         vertex 6.342225e+000 1.139034e+000 3.733800e+000
         vertex 6.342225e+000 1.139034e+000 3.048000e+000
         vertex 7.493836e+000 1.870247e+000 3.733800e+000
      endloop
   endfacet
   facet normal 5.360252e-001 -8.442020e-001 0.000000e+000
      outer loop
         vertex 7.493836e+000 1.870247e+000 3.733800e+000
         vertex 6.342225e+000 1.139034e+000 3.048000e+000
         vertex 7.493836e+000 1.870247e+000 3.048000e+000
      endloop
   endfacet
   facet normal 8.182848e-001 -5.748129e-001 0.000000e+000
      outer loop
         vertex 7.875359e+000 2.413371e+000 3.987800e+000
         vertex 7.493836e+000 1.870247e+000 3.733800e+000
         vertex 7.896438e+000 2.443380e+000 3.987800e+000
      endloop
   endfacet
   facet normal 8.182848e-001 -5.748129e-001 0.000000e+000
      outer loop
         vertex 7.896438e+000 2.443380e+000 3.987800e+000
         vertex 7.493836e+000 1.870247e+000 3.733800e+000
         vertex 7.493836e+000 1.870247e+000 3.048000e+000
      endloop
   endfacet
   facet normal 8.182848e-001 -5.748129e-001 0.000000e+000
      outer loop
         vertex 7.896438e+000 2.443380e+000 3.987800e+000
         vertex 7.493836e+000 1.870247e+000 3.048000e+000
         vertex 8.277962e+000 2.986503e+000 3.733800e+000
      endloop
   endfacet
   facet normal 8.182848e-001 -5.748129e-001 0.000000e+000
      outer loop
         vertex 8.277962e+000 2.986503e+000 3.733800e+000
         vertex 7.493836e+000 1.870247e+000 3.048000e+000
         vertex 8.277962e+000 2.986503e+000 3.048000e+000
      endloop
   endfacet
   facet normal 9.759680e-001 -2.179139e-001 0.000000e+000
      outer loop
         vertex 8.277962e+000 2.986503e+000 3.733800e+000
         vertex 8.277962e+000 2.986503e+000 3.048000e+000
         vertex 8.575227e+000 4.317862e+000 3.733800e+000
      endloop
   endfacet
   facet normal 9.759680e-001 -2.179139e-001 0.000000e+000
      outer loop
         vertex 8.575227e+000 4.317862e+000 3.733800e+000
         vertex 8.277962e+000 2.986503e+000 3.048000e+000
         vertex 8.575227e+000 4.317862e+000 3.048000e+000
      endloop
   endfacet
   facet normal 9.850689e-001 1.721606e-001 0.000000e+000
      outer loop
         vertex 8.460958e+000 4.971685e+000 3.987800e+000
         vertex 8.575227e+000 4.317862e+000 3.733800e+000
         vertex 8.454644e+000 5.007811e+000 3.987800e+000
      endloop
   endfacet
   facet normal 9.850689e-001 1.721606e-001 0.000000e+000
      outer loop
         vertex 8.454644e+000 5.007811e+000 3.987800e+000
         vertex 8.575227e+000 4.317862e+000 3.733800e+000
         vertex 8.575227e+000 4.317862e+000 3.048000e+000
      endloop
   endfacet
   facet normal 9.850689e-001 1.721606e-001 0.000000e+000
      outer loop
         vertex 8.454644e+000 5.007811e+000 3.987800e+000
         vertex 8.575227e+000 4.317862e+000 3.048000e+000
         vertex 8.340376e+000 5.661634e+000 3.733800e+000
      endloop
   endfacet
   facet normal 9.850689e-001 1.721606e-001 0.000000e+000
      outer loop
         vertex 8.340376e+000 5.661634e+000 3.733800e+000
         vertex 8.575227e+000 4.317862e+000 3.048000e+000
         vertex 8.340376e+000 5.661634e+000 3.048000e+000
      endloop
   endfacet
   facet normal 8.442020e-001 5.360252e-001 0.000000e+000
      outer loop
         vertex 8.340376e+000 5.661634e+000 3.733800e+000
         vertex 8.340376e+000 5.661634e+000 3.048000e+000
         vertex 7.609161e+000 6.813245e+000 3.733800e+000
      endloop
   endfacet
   facet normal 8.442020e-001 5.360252e-001 0.000000e+000
      outer loop
         vertex 7.609161e+000 6.813245e+000 3.733800e+000
         vertex 8.340376e+000 5.661634e+000 3.048000e+000
         vertex 7.609161e+000 6.813245e+000 3.048000e+000
      endloop
   endfacet
   facet normal 5.748129e-001 8.182848e-001 0.000000e+000
      outer loop
         vertex 7.066039e+000 7.194767e+000 3.987800e+000
         vertex 7.609161e+000 6.813245e+000 3.733800e+000
         vertex 7.036029e+000 7.215847e+000 3.987800e+000
      endloop
   endfacet
   facet normal 5.748129e-001 8.182848e-001 0.000000e+000
      outer loop
         vertex 7.036029e+000 7.215847e+000 3.987800e+000
         vertex 7.609161e+000 6.813245e+000 3.733800e+000
         vertex 7.609161e+000 6.813245e+000 3.048000e+000
      endloop
   endfacet
   facet normal 5.748129e-001 8.182848e-001 0.000000e+000
      outer loop
         vertex 7.036029e+000 7.215847e+000 3.987800e+000
         vertex 7.609161e+000 6.813245e+000 3.048000e+000
         vertex 6.492906e+000 7.597371e+000 3.733800e+000
      endloop
   endfacet
   facet normal 5.748129e-001 8.182848e-001 0.000000e+000
      outer loop
         vertex 6.492906e+000 7.597371e+000 3.733800e+000
         vertex 7.609161e+000 6.813245e+000 3.048000e+000
         vertex 6.492906e+000 7.597371e+000 3.048000e+000
      endloop
   endfacet
   facet normal 2.179139e-001 9.759680e-001 0.000000e+000
      outer loop
         vertex 6.492906e+000 7.597371e+000 3.733800e+000
         vertex 6.492906e+000 7.597371e+000 3.048000e+000
         vertex 5.161548e+000 7.894636e+000 3.733800e+000
      endloop
   endfacet
   facet normal 2.179139e-001 9.759680e-001 0.000000e+000
      outer loop
         vertex 5.161548e+000 7.894636e+000 3.733800e+000
         vertex 6.492906e+000 7.597371e+000 3.048000e+000
         vertex 5.161548e+000 7.894636e+000 3.048000e+000
      endloop
   endfacet
   facet normal -1.721606e-001 9.850689e-001 0.000000e+000
      outer loop
         vertex 5.161548e+000 7.894636e+000 3.733800e+000
         vertex 5.161548e+000 7.894636e+000 3.048000e+000
         vertex 4.507724e+000 7.780367e+000 3.987800e+000
      endloop
   endfacet
   facet normal -1.721606e-001 9.850689e-001 0.000000e+000
      outer loop
         vertex 4.507724e+000 7.780367e+000 3.987800e+000
         vertex 5.161548e+000 7.894636e+000 3.048000e+000
         vertex 3.817775e+000 7.659784e+000 3.048000e+000
      endloop
   endfacet
   facet normal -1.721606e-001 9.850689e-001 0.000000e+000
      outer loop
         vertex 4.507724e+000 7.780367e+000 3.987800e+000
         vertex 3.817775e+000 7.659784e+000 3.048000e+000
         vertex 4.471599e+000 7.774053e+000 3.987800e+000
      endloop
   endfacet
   facet normal -1.721606e-001 9.850689e-001 0.000000e+000
      outer loop
         vertex 4.471599e+000 7.774053e+000 3.987800e+000
         vertex 3.817775e+000 7.659784e+000 3.048000e+000
         vertex 3.817775e+000 7.659784e+000 3.733800e+000
      endloop
   endfacet
   facet normal -5.360252e-001 8.442020e-001 0.000000e+000
      outer loop
         vertex 3.817775e+000 7.659784e+000 3.733800e+000
         vertex 3.817775e+000 7.659784e+000 3.048000e+000
         vertex 2.666164e+000 6.928571e+000 3.733800e+000
      endloop
   endfacet
   facet normal -5.360252e-001 8.442020e-001 0.000000e+000
      outer loop
         vertex 2.666164e+000 6.928571e+000 3.733800e+000
         vertex 3.817775e+000 7.659784e+000 3.048000e+000
         vertex 2.666164e+000 6.928571e+000 3.048000e+000
      endloop
   endfacet
   facet normal -8.182848e-001 5.748129e-001 0.000000e+000
      outer loop
         vertex 2.284641e+000 6.385448e+000 3.987800e+000
         vertex 2.666164e+000 6.928571e+000 3.733800e+000
         vertex 2.263561e+000 6.355438e+000 3.987800e+000
      endloop
   endfacet
   facet normal -8.182848e-001 5.748129e-001 0.000000e+000
      outer loop
         vertex 2.263561e+000 6.355438e+000 3.987800e+000
         vertex 2.666164e+000 6.928571e+000 3.733800e+000
         vertex 2.666164e+000 6.928571e+000 3.048000e+000
      endloop
   endfacet
   facet normal -8.182848e-001 5.748129e-001 0.000000e+000
      outer loop
         vertex 2.263561e+000 6.355438e+000 3.987800e+000
         vertex 2.666164e+000 6.928571e+000 3.048000e+000
         vertex 1.882038e+000 5.812315e+000 3.733800e+000
      endloop
   endfacet
   facet normal -8.182848e-001 5.748129e-001 0.000000e+000
      outer loop
         vertex 1.882038e+000 5.812315e+000 3.733800e+000
         vertex 2.666164e+000 6.928571e+000 3.048000e+000
         vertex 1.882038e+000 5.812315e+000 3.048000e+000
      endloop
   endfacet
   facet normal -6.901136e-001 1.540884e-001 7.071068e-001
      outer loop
         vertex 1.584773e+000 4.480957e+000 3.733800e+000
         vertex 1.699042e+000 3.827133e+000 3.987800e+000
         vertex 1.882038e+000 5.812315e+000 3.733800e+000
      endloop
   endfacet
   facet normal -6.901136e-001 1.540884e-001 7.071068e-001
      outer loop
         vertex 1.882038e+000 5.812315e+000 3.733800e+000
         vertex 1.699042e+000 3.827133e+000 3.987800e+000
         vertex 2.263561e+000 6.355438e+000 3.987800e+000
      endloop
   endfacet
   facet normal -3.790270e-001 5.969409e-001 7.071068e-001
      outer loop
         vertex 2.666164e+000 6.928571e+000 3.733800e+000
         vertex 2.284641e+000 6.385448e+000 3.987800e+000
         vertex 3.817775e+000 7.659784e+000 3.733800e+000
      endloop
   endfacet
   facet normal -3.790270e-001 5.969409e-001 7.071068e-001
      outer loop
         vertex 3.817775e+000 7.659784e+000 3.733800e+000
         vertex 2.284641e+000 6.385448e+000 3.987800e+000
         vertex 4.471599e+000 7.774053e+000 3.987800e+000
      endloop
   endfacet
   facet normal 1.540884e-001 6.901136e-001 7.071068e-001
      outer loop
         vertex 5.161548e+000 7.894636e+000 3.733800e+000
         vertex 4.507724e+000 7.780367e+000 3.987800e+000
         vertex 6.492906e+000 7.597371e+000 3.733800e+000
      endloop
   endfacet
   facet normal 1.540884e-001 6.901136e-001 7.071068e-001
      outer loop
         vertex 6.492906e+000 7.597371e+000 3.733800e+000
         vertex 4.507724e+000 7.780367e+000 3.987800e+000
         vertex 7.036029e+000 7.215847e+000 3.987800e+000
      endloop
   endfacet
   facet normal -5.969409e-001 -3.790270e-001 7.071068e-001
      outer loop
         vertex 2.550838e+000 1.985573e+000 3.733800e+000
         vertex 3.093962e+000 1.604050e+000 3.987800e+000
         vertex 1.819625e+000 3.137184e+000 3.733800e+000
      endloop
   endfacet
   facet normal -5.969409e-001 -3.790270e-001 7.071068e-001
      outer loop
         vertex 1.819625e+000 3.137184e+000 3.733800e+000
         vertex 3.093962e+000 1.604050e+000 3.987800e+000
         vertex 1.705356e+000 3.791008e+000 3.987800e+000
      endloop
   endfacet
   facet normal -1.540884e-001 -6.901136e-001 7.071068e-001
      outer loop
         vertex 4.998453e+000 9.041822e-001 3.733800e+000
         vertex 5.652276e+000 1.018451e+000 3.987800e+000
         vertex 3.667094e+000 1.201447e+000 3.733800e+000
      endloop
   endfacet
   facet normal -1.540884e-001 -6.901136e-001 7.071068e-001
      outer loop
         vertex 3.667094e+000 1.201447e+000 3.733800e+000
         vertex 5.652276e+000 1.018451e+000 3.987800e+000
         vertex 3.123971e+000 1.582970e+000 3.987800e+000
      endloop
   endfacet
   facet normal 5.969409e-001 3.790270e-001 7.071068e-001
      outer loop
         vertex 7.609161e+000 6.813245e+000 3.733800e+000
         vertex 7.066039e+000 7.194767e+000 3.987800e+000
         vertex 8.340376e+000 5.661634e+000 3.733800e+000
      endloop
   endfacet
   facet normal 5.969409e-001 3.790270e-001 7.071068e-001
      outer loop
         vertex 8.340376e+000 5.661634e+000 3.733800e+000
         vertex 7.066039e+000 7.194767e+000 3.987800e+000
         vertex 8.454644e+000 5.007811e+000 3.987800e+000
      endloop
   endfacet
   facet normal 6.901136e-001 -1.540884e-001 7.071068e-001
      outer loop
         vertex 8.575227e+000 4.317862e+000 3.733800e+000
         vertex 8.460958e+000 4.971685e+000 3.987800e+000
         vertex 8.277962e+000 2.986503e+000 3.733800e+000
      endloop
   endfacet
   facet normal 6.901136e-001 -1.540884e-001 7.071068e-001
      outer loop
         vertex 8.277962e+000 2.986503e+000 3.733800e+000
         vertex 8.460958e+000 4.971685e+000 3.987800e+000
         vertex 7.896438e+000 2.443380e+000 3.987800e+000
      endloop
   endfacet
   facet normal 3.790270e-001 -5.969409e-001 7.071068e-001
      outer loop
         vertex 7.493836e+000 1.870247e+000 3.733800e+000
         vertex 7.875359e+000 2.413371e+000 3.987800e+000
         vertex 6.342225e+000 1.139034e+000 3.733800e+000
      endloop
   endfacet
   facet normal 3.790270e-001 -5.969409e-001 7.071068e-001
      outer loop
         vertex 6.342225e+000 1.139034e+000 3.733800e+000
         vertex 7.875359e+000 2.413371e+000 3.987800e+000
         vertex 5.688401e+000 1.024765e+000 3.987800e+000
      endloop
   endfacet
endsolid