solid Vex_Battery_Case
   facet normal 0.000000e+000 1.000000e+000 0.000000e+000
      outer loop
         vertex 5.397500e+000 5.080000e+000 1.428750e+001
         vertex 6.508750e+000 5.080000e+000 1.458526e+001
         vertex 8.382000e+000 5.080000e+000 9.461500e+000
      endloop
   endfacet
   facet normal 0.000000e+000 1.000000e+000 0.000000e+000
      outer loop
         vertex 7.322242e+000 5.080000e+000 4.365625e+001
         vertex 6.508750e+000 5.080000e+000 4.446975e+001
         vertex 8.382000e+000 5.080000e+000 4.959350e+001
      endloop
   endfacet
   facet normal 0.000000e+000 1.000000e+000 0.000000e+000
      outer loop
         vertex 8.382000e+000 5.080000e+000 4.959350e+001
         vertex 6.508750e+000 5.080000e+000 4.446975e+001
         vertex 5.397500e+000 5.080000e+000 4.476750e+001
      endloop
   endfacet
   facet normal 0.000000e+000 1.000000e+000 0.000000e+000
      outer loop
         vertex 8.382000e+000 5.080000e+000 4.959350e+001
         vertex 5.397500e+000 5.080000e+000 4.476750e+001
         vertex 0.000000e+000 5.080000e+000 4.959350e+001
      endloop
   endfacet
   facet normal 0.000000e+000 1.000000e+000 0.000000e+000
      outer loop
         vertex 0.000000e+000 5.080000e+000 4.959350e+001
         vertex 5.397500e+000 5.080000e+000 4.476750e+001
         vertex 4.286250e+000 5.080000e+000 4.446974e+001
      endloop
   endfacet
   facet normal 0.000000e+000 1.000000e+000 0.000000e+000
      outer loop
         vertex 5.397500e+000 5.080000e+000 1.428750e+001
         vertex 8.382000e+000 5.080000e+000 9.461500e+000
         vertex 4.286250e+000 5.080000e+000 1.458526e+001
      endloop
   endfacet
   facet normal 0.000000e+000 1.000000e+000 0.000000e+000
      outer loop
         vertex 4.286250e+000 5.080000e+000 1.458526e+001
         vertex 8.382000e+000 5.080000e+000 9.461500e+000
         vertex 0.000000e+000 5.080000e+000 9.461500e+000
      endloop
   endfacet
   facet normal 0.000000e+000 1.000000e+000 0.000000e+000
      outer loop
         vertex 4.286250e+000 5.080000e+000 1.458526e+001
         vertex 0.000000e+000 5.080000e+000 9.461500e+000
         vertex 3.472759e+000 5.080000e+000 1.539875e+001
      endloop
   endfacet
   facet normal 0.000000e+000 1.000000e+000 0.000000e+000
      outer loop
         vertex 4.286250e+000 5.080000e+000 4.446975e+001
         vertex 3.472759e+000 5.080000e+000 4.365625e+001
         vertex 0.000000e+000 5.080000e+000 4.959350e+001
      endloop
   endfacet
   facet normal 0.000000e+000 1.000000e+000 0.000000e+000
      outer loop
         vertex 0.000000e+000 5.080000e+000 4.959350e+001
         vertex 3.472759e+000 5.080000e+000 4.365625e+001
         vertex 3.175000e+000 5.080000e+000 4.254500e+001
      endloop
   endfacet
   facet normal 0.000000e+000 1.000000e+000 0.000000e+000
      outer loop
         vertex 0.000000e+000 5.080000e+000 4.959350e+001
         vertex 3.175000e+000 5.080000e+000 4.254500e+001
         vertex 0.000000e+000 5.080000e+000 9.461500e+000
      endloop
   endfacet
   facet normal 0.000000e+000 1.000000e+000 0.000000e+000
      outer loop
         vertex 0.000000e+000 5.080000e+000 9.461500e+000
         vertex 3.175000e+000 5.080000e+000 4.254500e+001
         vertex 3.175000e+000 5.080000e+000 1.651000e+001
      endloop
   endfacet
   facet normal 0.000000e+000 1.000000e+000 0.000000e+000
      outer loop
         vertex 0.000000e+000 5.080000e+000 9.461500e+000
         vertex 3.175000e+000 5.080000e+000 1.651000e+001
         vertex 3.472759e+000 5.080000e+000 1.539875e+001
      endloop
   endfacet
   facet normal 0.000000e+000 1.000000e+000 0.000000e+000
      outer loop
         vertex 6.508750e+000 5.080000e+000 1.458526e+001
         vertex 7.322242e+000 5.080000e+000 1.539875e+001
         vertex 8.382000e+000 5.080000e+000 9.461500e+000
      endloop
   endfacet
   facet normal 0.000000e+000 1.000000e+000 0.000000e+000
      outer loop
         vertex 8.382000e+000 5.080000e+000 9.461500e+000
         vertex 7.322242e+000 5.080000e+000 1.539875e+001
         vertex 7.620000e+000 5.080000e+000 1.651000e+001
      endloop
   endfacet
   facet normal 0.000000e+000 1.000000e+000 0.000000e+000
      outer loop
         vertex 8.382000e+000 5.080000e+000 9.461500e+000
         vertex 7.620000e+000 5.080000e+000 1.651000e+001
         vertex 8.382000e+000 5.080000e+000 4.959350e+001
      endloop
   endfacet
   facet normal 0.000000e+000 1.000000e+000 0.000000e+000
      outer loop
         vertex 8.382000e+000 5.080000e+000 4.959350e+001
         vertex 7.620000e+000 5.080000e+000 1.651000e+001
         vertex 7.620000e+000 5.080000e+000 4.254500e+001
      endloop
   endfacet
   facet normal 0.000000e+000 1.000000e+000 0.000000e+000
      outer loop
         vertex 8.382000e+000 5.080000e+000 4.959350e+001
         vertex 7.620000e+000 5.080000e+000 4.254500e+001
         vertex 7.322242e+000 5.080000e+000 4.365625e+001
      endloop
   endfacet
   facet normal 0.000000e+000 1.000000e+000 0.000000e+000
      outer loop
         vertex 1.041400e+002 5.080000e+000 4.959350e+001
         vertex 1.071245e+002 5.080000e+000 4.476750e+001
         vertex 1.060132e+002 5.080000e+000 4.446974e+001
      endloop
   endfacet
   facet normal 0.000000e+000 1.000000e+000 0.000000e+000
      outer loop
         vertex 1.051998e+002 5.080000e+000 1.539875e+001
         vertex 1.060132e+002 5.080000e+000 1.458526e+001
         vertex 1.041400e+002 5.080000e+000 9.461500e+000
      endloop
   endfacet
   facet normal 0.000000e+000 1.000000e+000 0.000000e+000
      outer loop
         vertex 1.041400e+002 5.080000e+000 9.461500e+000
         vertex 1.060132e+002 5.080000e+000 1.458526e+001
         vertex 1.071245e+002 5.080000e+000 1.428750e+001
      endloop
   endfacet
   facet normal 0.000000e+000 1.000000e+000 0.000000e+000
      outer loop
         vertex 1.041400e+002 5.080000e+000 9.461500e+000
         vertex 1.071245e+002 5.080000e+000 1.428750e+001
         vertex 1.125220e+002 5.080000e+000 9.461500e+000
      endloop
   endfacet
   facet normal 0.000000e+000 1.000000e+000 0.000000e+000
      outer loop
         vertex 1.125220e+002 5.080000e+000 9.461500e+000
         vertex 1.071245e+002 5.080000e+000 1.428750e+001
         vertex 1.082357e+002 5.080000e+000 1.458526e+001
      endloop
   endfacet
   facet normal 0.000000e+000 1.000000e+000 0.000000e+000
      outer loop
         vertex 1.071245e+002 5.080000e+000 4.476750e+001
         vertex 1.041400e+002 5.080000e+000 4.959350e+001
         vertex 1.082357e+002 5.080000e+000 4.446974e+001
      endloop
   endfacet
   facet normal 0.000000e+000 1.000000e+000 0.000000e+000
      outer loop
         vertex 1.082357e+002 5.080000e+000 4.446975e+001
         vertex 1.041400e+002 5.080000e+000 4.959350e+001
         vertex 1.125220e+002 5.080000e+000 4.959350e+001
      endloop
   endfacet
   facet normal 0.000000e+000 1.000000e+000 0.000000e+000
      outer loop
         vertex 1.082357e+002 5.080000e+000 4.446975e+001
         vertex 1.125220e+002 5.080000e+000 4.959350e+001
         vertex 1.090492e+002 5.080000e+000 4.365625e+001
      endloop
   endfacet
   facet normal 0.000000e+000 1.000000e+000 0.000000e+000
      outer loop
         vertex 1.060132e+002 5.080000e+000 4.446975e+001
         vertex 1.051998e+002 5.080000e+000 4.365625e+001
         vertex 1.041400e+002 5.080000e+000 4.959350e+001
      endloop
   endfacet
   facet normal 0.000000e+000 1.000000e+000 0.000000e+000
      outer loop
         vertex 1.041400e+002 5.080000e+000 4.959350e+001
         vertex 1.051998e+002 5.080000e+000 4.365625e+001
         vertex 1.049020e+002 5.080000e+000 4.254500e+001
      endloop
   endfacet
   facet normal 0.000000e+000 1.000000e+000 0.000000e+000
      outer loop
         vertex 1.041400e+002 5.080000e+000 4.959350e+001
         vertex 1.049020e+002 5.080000e+000 4.254500e+001
         vertex 1.041400e+002 5.080000e+000 9.461500e+000
      endloop
   endfacet
   facet normal 0.000000e+000 1.000000e+000 0.000000e+000
      outer loop
         vertex 1.041400e+002 5.080000e+000 9.461500e+000
         vertex 1.049020e+002 5.080000e+000 4.254500e+001
         vertex 1.049020e+002 5.080000e+000 1.651000e+001
      endloop
   endfacet
   facet normal 0.000000e+000 1.000000e+000 0.000000e+000
      outer loop
         vertex 1.041400e+002 5.080000e+000 9.461500e+000
         vertex 1.049020e+002 5.080000e+000 1.651000e+001
         vertex 1.051998e+002 5.080000e+000 1.539875e+001
      endloop
   endfacet
   facet normal 0.000000e+000 1.000000e+000 0.000000e+000
      outer loop
         vertex 1.082357e+002 5.080000e+000 1.458526e+001
         vertex 1.090492e+002 5.080000e+000 1.539875e+001
         vertex 1.125220e+002 5.080000e+000 9.461500e+000
      endloop
   endfacet
   facet normal 0.000000e+000 1.000000e+000 0.000000e+000
      outer loop
         vertex 1.125220e+002 5.080000e+000 9.461500e+000
         vertex 1.090492e+002 5.080000e+000 1.539875e+001
         vertex 1.093470e+002 5.080000e+000 1.651000e+001
      endloop
   endfacet
   facet normal 0.000000e+000 1.000000e+000 0.000000e+000
      outer loop
         vertex 1.125220e+002 5.080000e+000 9.461500e+000
         vertex 1.093470e+002 5.080000e+000 1.651000e+001
         vertex 1.125220e+002 5.080000e+000 4.959350e+001
      endloop
   endfacet
   facet normal 0.000000e+000 1.000000e+000 0.000000e+000
      outer loop
         vertex 1.125220e+002 5.080000e+000 4.959350e+001
         vertex 1.093470e+002 5.080000e+000 1.651000e+001
         vertex 1.093470e+002 5.080000e+000 4.254500e+001
      endloop
   endfacet
   facet normal 0.000000e+000 1.000000e+000 0.000000e+000
      outer loop
         vertex 1.125220e+002 5.080000e+000 4.959350e+001
         vertex 1.093470e+002 5.080000e+000 4.254500e+001
         vertex 1.090492e+002 5.080000e+000 4.365625e+001
      endloop
   endfacet
   facet normal 0.000000e+000 0.000000e+000 1.000000e+000
      outer loop
         vertex 0.000000e+000 5.080000e+000 4.959350e+001
         vertex 0.000000e+000 0.000000e+000 4.959350e+001
         vertex 8.382000e+000 5.080000e+000 4.959350e+001
      endloop
   endfacet
   facet normal 0.000000e+000 0.000000e+000 1.000000e+000
      outer loop
         vertex 8.382000e+000 5.080000e+000 4.959350e+001
         vertex 0.000000e+000 0.000000e+000 4.959350e+001
         vertex 8.382000e+000 0.000000e+000 4.959350e+001
      endloop
   endfacet
   facet normal 0.000000e+000 0.000000e+000 1.000000e+000
      outer loop
         vertex 1.125220e+002 0.000000e+000 4.959350e+001
         vertex 1.125220e+002 5.080000e+000 4.959350e+001
         vertex 1.041400e+002 0.000000e+000 4.959350e+001
      endloop
   endfacet
   facet normal 0.000000e+000 0.000000e+000 1.000000e+000
      outer loop
         vertex 1.041400e+002 0.000000e+000 4.959350e+001
         vertex 1.125220e+002 5.080000e+000 4.959350e+001
         vertex 1.041400e+002 5.080000e+000 4.959350e+001
      endloop
   endfacet
   facet normal 0.000000e+000 0.000000e+000 -1.000000e+000
      outer loop
         vertex 0.000000e+000 0.000000e+000 9.461500e+000
         vertex 0.000000e+000 5.080000e+000 9.461500e+000
         vertex 8.382000e+000 0.000000e+000 9.461500e+000
      endloop
   endfacet
   facet normal 0.000000e+000 0.000000e+000 -1.000000e+000
      outer loop
         vertex 8.382000e+000 0.000000e+000 9.461500e+000
         vertex 0.000000e+000 5.080000e+000 9.461500e+000
         vertex 8.382000e+000 5.080000e+000 9.461500e+000
      endloop
   endfacet
   facet normal 0.000000e+000 0.000000e+000 -1.000000e+000
      outer loop
         vertex 1.125220e+002 5.080000e+000 9.461500e+000
         vertex 1.125220e+002 0.000000e+000 9.461500e+000
         vertex 1.041400e+002 5.080000e+000 9.461500e+000
      endloop
   endfacet
   facet normal 0.000000e+000 0.000000e+000 -1.000000e+000
      outer loop
         vertex 1.041400e+002 5.080000e+000 9.461500e+000
         vertex 1.125220e+002 0.000000e+000 9.461500e+000
         vertex 1.041400e+002 0.000000e+000 9.461500e+000
      endloop
   endfacet
   facet normal 0.000000e+000 -1.000000e+000 0.000000e+000
      outer loop
         vertex 6.508750e+000 0.000000e+000 1.458526e+001
         vertex 5.397500e+000 0.000000e+000 1.428750e+001
         vertex 1.041400e+002 0.000000e+000 0.000000e+000
      endloop
   endfacet
   facet normal 0.000000e+000 -1.000000e+000 0.000000e+000
      outer loop
         vertex 1.125220e+002 0.000000e+000 9.461500e+000
         vertex 1.090492e+002 0.000000e+000 1.539875e+001
         vertex 1.041400e+002 0.000000e+000 9.461500e+000
      endloop
   endfacet
   facet normal 0.000000e+000 -1.000000e+000 0.000000e+000
      outer loop
         vertex 1.041400e+002 0.000000e+000 9.461500e+000
         vertex 1.090492e+002 0.000000e+000 1.539875e+001
         vertex 1.082357e+002 0.000000e+000 1.458526e+001
      endloop
   endfacet
   facet normal 0.000000e+000 -1.000000e+000 0.000000e+000
      outer loop
         vertex 0.000000e+000 0.000000e+000 4.959350e+001
         vertex 3.472759e+000 0.000000e+000 4.365625e+001
         vertex 8.382000e+000 0.000000e+000 4.959350e+001
      endloop
   endfacet
   facet normal 0.000000e+000 -1.000000e+000 0.000000e+000
      outer loop
         vertex 8.382000e+000 0.000000e+000 4.959350e+001
         vertex 3.472759e+000 0.000000e+000 4.365625e+001
         vertex 4.286250e+000 0.000000e+000 4.446974e+001
      endloop
   endfacet
   facet normal 0.000000e+000 -1.000000e+000 0.000000e+000
      outer loop
         vertex 1.041400e+002 0.000000e+000 5.905500e+001
         vertex 8.382000e+000 0.000000e+000 5.905500e+001
         vertex 1.041400e+002 0.000000e+000 4.959350e+001
      endloop
   endfacet
   facet normal 0.000000e+000 -1.000000e+000 0.000000e+000
      outer loop
         vertex 1.041400e+002 0.000000e+000 4.959350e+001
         vertex 8.382000e+000 0.000000e+000 5.905500e+001
         vertex 8.382000e+000 0.000000e+000 4.959350e+001
      endloop
   endfacet
   facet normal 0.000000e+000 -1.000000e+000 0.000000e+000
      outer loop
         vertex 1.041400e+002 0.000000e+000 4.959350e+001
         vertex 8.382000e+000 0.000000e+000 4.959350e+001
         vertex 5.397500e+000 0.000000e+000 4.476750e+001
      endloop
   endfacet
   facet normal 0.000000e+000 -1.000000e+000 0.000000e+000
      outer loop
         vertex 5.397500e+000 0.000000e+000 4.476750e+001
         vertex 8.382000e+000 0.000000e+000 4.959350e+001
         vertex 4.286250e+000 0.000000e+000 4.446974e+001
      endloop
   endfacet
   facet normal 0.000000e+000 -1.000000e+000 0.000000e+000
      outer loop
         vertex 1.082357e+002 0.000000e+000 1.458526e+001
         vertex 1.071245e+002 0.000000e+000 1.428750e+001
         vertex 1.041400e+002 0.000000e+000 9.461500e+000
      endloop
   endfacet
   facet normal 0.000000e+000 -1.000000e+000 0.000000e+000
      outer loop
         vertex 1.041400e+002 0.000000e+000 9.461500e+000
         vertex 1.071245e+002 0.000000e+000 1.428750e+001
         vertex 7.620000e+000 0.000000e+000 1.651000e+001
      endloop
   endfacet
   facet normal 0.000000e+000 -1.000000e+000 0.000000e+000
      outer loop
         vertex 1.041400e+002 0.000000e+000 9.461500e+000
         vertex 7.620000e+000 0.000000e+000 1.651000e+001
         vertex 1.041400e+002 0.000000e+000 0.000000e+000
      endloop
   endfacet
   facet normal 0.000000e+000 -1.000000e+000 0.000000e+000
      outer loop
         vertex 1.041400e+002 0.000000e+000 0.000000e+000
         vertex 7.620000e+000 0.000000e+000 1.651000e+001
         vertex 7.322242e+000 0.000000e+000 1.539875e+001
      endloop
   endfacet
   facet normal 0.000000e+000 -1.000000e+000 0.000000e+000
      outer loop
         vertex 1.041400e+002 0.000000e+000 0.000000e+000
         vertex 7.322242e+000 0.000000e+000 1.539875e+001
         vertex 6.508750e+000 0.000000e+000 1.458526e+001
      endloop
   endfacet
   facet normal 0.000000e+000 -1.000000e+000 0.000000e+000
      outer loop
         vertex 8.382000e+000 0.000000e+000 0.000000e+000
         vertex 1.041400e+002 0.000000e+000 0.000000e+000
         vertex 8.382000e+000 0.000000e+000 9.461500e+000
      endloop
   endfacet
   facet normal 0.000000e+000 -1.000000e+000 0.000000e+000
      outer loop
         vertex 8.382000e+000 0.000000e+000 9.461500e+000
         vertex 1.041400e+002 0.000000e+000 0.000000e+000
         vertex 5.397500e+000 0.000000e+000 1.428750e+001
      endloop
   endfacet
   facet normal 0.000000e+000 -1.000000e+000 0.000000e+000
      outer loop
         vertex 8.382000e+000 0.000000e+000 9.461500e+000
         vertex 5.397500e+000 0.000000e+000 1.428750e+001
         vertex 0.000000e+000 0.000000e+000 9.461500e+000
      endloop
   endfacet
   facet normal 0.000000e+000 -1.000000e+000 0.000000e+000
      outer loop
         vertex 0.000000e+000 0.000000e+000 9.461500e+000
         vertex 5.397500e+000 0.000000e+000 1.428750e+001
         vertex 4.286250e+000 0.000000e+000 1.458526e+001
      endloop
   endfacet
   facet normal 0.000000e+000 -1.000000e+000 0.000000e+000
      outer loop
         vertex 1.051998e+002 0.000000e+000 1.539875e+001
         vertex 6.508750e+000 0.000000e+000 4.446975e+001
         vertex 7.322242e+000 0.000000e+000 4.365625e+001
      endloop
   endfacet
   facet normal 0.000000e+000 -1.000000e+000 0.000000e+000
      outer loop
         vertex 1.041400e+002 0.000000e+000 4.959350e+001
         vertex 1.071245e+002 0.000000e+000 4.476750e+001
         vertex 1.125220e+002 0.000000e+000 4.959350e+001
      endloop
   endfacet
   facet normal 0.000000e+000 -1.000000e+000 0.000000e+000
      outer loop
         vertex 1.125220e+002 0.000000e+000 4.959350e+001
         vertex 1.071245e+002 0.000000e+000 4.476750e+001
         vertex 1.082357e+002 0.000000e+000 4.446974e+001
      endloop
   endfacet
   facet normal 0.000000e+000 -1.000000e+000 0.000000e+000
      outer loop
         vertex 1.082357e+002 0.000000e+000 4.446975e+001
         vertex 1.090492e+002 0.000000e+000 4.365625e+001
         vertex 1.125220e+002 0.000000e+000 4.959350e+001
      endloop
   endfacet
   facet normal 0.000000e+000 -1.000000e+000 0.000000e+000
      outer loop
         vertex 1.125220e+002 0.000000e+000 4.959350e+001
         vertex 1.090492e+002 0.000000e+000 4.365625e+001
         vertex 1.093470e+002 0.000000e+000 4.254500e+001
      endloop
   endfacet
   facet normal 0.000000e+000 -1.000000e+000 0.000000e+000
      outer loop
         vertex 1.125220e+002 0.000000e+000 4.959350e+001
         vertex 1.093470e+002 0.000000e+000 4.254500e+001
         vertex 1.125220e+002 0.000000e+000 9.461500e+000
      endloop
   endfacet
   facet normal 0.000000e+000 -1.000000e+000 0.000000e+000
      outer loop
         vertex 1.125220e+002 0.000000e+000 9.461500e+000
         vertex 1.093470e+002 0.000000e+000 4.254500e+001
         vertex 1.093470e+002 0.000000e+000 1.651000e+001
      endloop
   endfacet
   facet normal 0.000000e+000 -1.000000e+000 0.000000e+000
      outer loop
         vertex 1.125220e+002 0.000000e+000 9.461500e+000
         vertex 1.093470e+002 0.000000e+000 1.651000e+001
         vertex 1.090492e+002 0.000000e+000 1.539875e+001
      endloop
   endfacet
   facet normal 0.000000e+000 -1.000000e+000 0.000000e+000
      outer loop
         vertex 1.071245e+002 0.000000e+000 1.428750e+001
         vertex 1.060132e+002 0.000000e+000 1.458526e+001
         vertex 7.620000e+000 0.000000e+000 1.651000e+001
      endloop
   endfacet
   facet normal 0.000000e+000 -1.000000e+000 0.000000e+000
      outer loop
         vertex 7.620000e+000 0.000000e+000 1.651000e+001
         vertex 1.060132e+002 0.000000e+000 1.458526e+001
         vertex 1.051998e+002 0.000000e+000 1.539875e+001
      endloop
   endfacet
   facet normal 0.000000e+000 -1.000000e+000 0.000000e+000
      outer loop
         vertex 7.620000e+000 0.000000e+000 1.651000e+001
         vertex 1.051998e+002 0.000000e+000 1.539875e+001
         vertex 7.620000e+000 0.000000e+000 4.254500e+001
      endloop
   endfacet
   facet normal 0.000000e+000 -1.000000e+000 0.000000e+000
      outer loop
         vertex 7.620000e+000 0.000000e+000 4.254500e+001
         vertex 1.051998e+002 0.000000e+000 1.539875e+001
         vertex 7.322242e+000 0.000000e+000 4.365625e+001
      endloop
   endfacet
   facet normal 0.000000e+000 -1.000000e+000 0.000000e+000
      outer loop
         vertex 4.286250e+000 0.000000e+000 1.458526e+001
         vertex 3.472759e+000 0.000000e+000 1.539875e+001
         vertex 0.000000e+000 0.000000e+000 9.461500e+000
      endloop
   endfacet
   facet normal 0.000000e+000 -1.000000e+000 0.000000e+000
      outer loop
         vertex 0.000000e+000 0.000000e+000 9.461500e+000
         vertex 3.472759e+000 0.000000e+000 1.539875e+001
         vertex 3.175000e+000 0.000000e+000 1.651000e+001
      endloop
   endfacet
   facet normal 0.000000e+000 -1.000000e+000 0.000000e+000
      outer loop
         vertex 0.000000e+000 0.000000e+000 9.461500e+000
         vertex 3.175000e+000 0.000000e+000 1.651000e+001
         vertex 0.000000e+000 0.000000e+000 4.959350e+001
      endloop
   endfacet
   facet normal 0.000000e+000 -1.000000e+000 0.000000e+000
      outer loop
         vertex 0.000000e+000 0.000000e+000 4.959350e+001
         vertex 3.175000e+000 0.000000e+000 1.651000e+001
         vertex 3.175000e+000 0.000000e+000 4.254500e+001
      endloop
   endfacet
   facet normal 0.000000e+000 -1.000000e+000 0.000000e+000
      outer loop
         vertex 0.000000e+000 0.000000e+000 4.959350e+001
         vertex 3.175000e+000 0.000000e+000 4.254500e+001
         vertex 3.472759e+000 0.000000e+000 4.365625e+001
      endloop
   endfacet
   facet normal 0.000000e+000 -1.000000e+000 0.000000e+000
      outer loop
         vertex 1.051998e+002 0.000000e+000 1.539875e+001
         vertex 1.049020e+002 0.000000e+000 1.651000e+001
         vertex 6.508750e+000 0.000000e+000 4.446974e+001
      endloop
   endfacet
   facet normal 0.000000e+000 -1.000000e+000 0.000000e+000
      outer loop
         vertex 6.508750e+000 0.000000e+000 4.446975e+001
         vertex 1.049020e+002 0.000000e+000 1.651000e+001
         vertex 1.049020e+002 0.000000e+000 4.254500e+001
      endloop
   endfacet
   facet normal 0.000000e+000 -1.000000e+000 0.000000e+000
      outer loop
         vertex 6.508750e+000 0.000000e+000 4.446975e+001
         vertex 1.049020e+002 0.000000e+000 4.254500e+001
         vertex 5.397500e+000 0.000000e+000 4.476750e+001
      endloop
   endfacet
   facet normal 0.000000e+000 -1.000000e+000 0.000000e+000
      outer loop
         vertex 5.397500e+000 0.000000e+000 4.476750e+001
         vertex 1.049020e+002 0.000000e+000 4.254500e+001
         vertex 1.051998e+002 0.000000e+000 4.365625e+001
      endloop
   endfacet
   facet normal 0.000000e+000 -1.000000e+000 0.000000e+000
      outer loop
         vertex 5.397500e+000 0.000000e+000 4.476750e+001
         vertex 1.051998e+002 0.000000e+000 4.365625e+001
         vertex 1.041400e+002 0.000000e+000 4.959350e+001
      endloop
   endfacet
   facet normal 0.000000e+000 -1.000000e+000 0.000000e+000
      outer loop
         vertex 1.041400e+002 0.000000e+000 4.959350e+001
         vertex 1.051998e+002 0.000000e+000 4.365625e+001
         vertex 1.060132e+002 0.000000e+000 4.446974e+001
      endloop
   endfacet
   facet normal 0.000000e+000 -1.000000e+000 0.000000e+000
      outer loop
         vertex 1.041400e+002 0.000000e+000 4.959350e+001
         vertex 1.060132e+002 0.000000e+000 4.446975e+001
         vertex 1.071245e+002 0.000000e+000 4.476750e+001
      endloop
   endfacet
   facet normal -1.000000e+000 0.000000e+000 0.000000e+000
      outer loop
         vertex 0.000000e+000 5.080000e+000 4.959350e+001
         vertex 0.000000e+000 5.080000e+000 9.461500e+000
         vertex 0.000000e+000 0.000000e+000 4.959350e+001
      endloop
   endfacet
   facet normal -1.000000e+000 0.000000e+000 0.000000e+000
      outer loop
         vertex 0.000000e+000 0.000000e+000 4.959350e+001
         vertex 0.000000e+000 5.080000e+000 9.461500e+000
         vertex 0.000000e+000 0.000000e+000 9.461500e+000
      endloop
   endfacet
   facet normal 1.000000e+000 0.000000e+000 0.000000e+000
      outer loop
         vertex 1.125220e+002 5.080000e+000 9.461500e+000
         vertex 1.125220e+002 5.080000e+000 4.959350e+001
         vertex 1.125220e+002 0.000000e+000 9.461500e+000
      endloop
   endfacet
   facet normal 1.000000e+000 0.000000e+000 0.000000e+000
      outer loop
         vertex 1.125220e+002 0.000000e+000 9.461500e+000
         vertex 1.125220e+002 5.080000e+000 4.959350e+001
         vertex 1.125220e+002 0.000000e+000 4.959350e+001
      endloop
   endfacet
   facet normal 9.851211e-001 0.000000e+000 1.718619e-001
      outer loop
         vertex 3.175000e+000 5.080000e+000 1.651000e+001
         vertex 3.175000e+000 0.000000e+000 1.651000e+001
         vertex 3.472759e+000 0.000000e+000 1.539875e+001
      endloop
   endfacet
   facet normal 9.390708e-001 0.000000e+000 3.437238e-001
      outer loop
         vertex 3.175000e+000 5.080000e+000 1.651000e+001
         vertex 3.472759e+000 0.000000e+000 1.539875e+001
         vertex 3.472759e+000 5.080000e+000 1.539875e+001
      endloop
   endfacet
   facet normal 7.672089e-001 0.000000e+000 6.413973e-001
      outer loop
         vertex 3.472759e+000 5.080000e+000 1.539875e+001
         vertex 3.472759e+000 0.000000e+000 1.539875e+001
         vertex 4.286250e+000 0.000000e+000 1.458526e+001
      endloop
   endfacet
   facet normal 6.413973e-001 0.000000e+000 7.672089e-001
      outer loop
         vertex 3.472759e+000 5.080000e+000 1.539875e+001
         vertex 4.286250e+000 0.000000e+000 1.458526e+001
         vertex 4.286250e+000 5.080000e+000 1.458526e+001
      endloop
   endfacet
   facet normal 3.437238e-001 0.000000e+000 9.390708e-001
      outer loop
         vertex 4.286250e+000 5.080000e+000 1.458526e+001
         vertex 4.286250e+000 0.000000e+000 1.458526e+001
         vertex 5.397500e+000 0.000000e+000 1.428750e+001
      endloop
   endfacet
   facet normal 1.718619e-001 0.000000e+000 9.851210e-001
      outer loop
         vertex 4.286250e+000 5.080000e+000 1.458526e+001
         vertex 5.397500e+000 0.000000e+000 1.428750e+001
         vertex 5.397500e+000 5.080000e+000 1.428750e+001
      endloop
   endfacet
   facet normal -1.718619e-001 0.000000e+000 9.851210e-001
      outer loop
         vertex 5.397500e+000 5.080000e+000 1.428750e+001
         vertex 5.397500e+000 0.000000e+000 1.428750e+001
         vertex 6.508750e+000 0.000000e+000 1.458526e+001
      endloop
   endfacet
   facet normal -3.437238e-001 0.000000e+000 9.390708e-001
      outer loop
         vertex 5.397500e+000 5.080000e+000 1.428750e+001
         vertex 6.508750e+000 0.000000e+000 1.458526e+001
         vertex 6.508750e+000 5.080000e+000 1.458526e+001
      endloop
   endfacet
   facet normal -6.413973e-001 0.000000e+000 7.672089e-001
      outer loop
         vertex 6.508750e+000 5.080000e+000 1.458526e+001
         vertex 6.508750e+000 0.000000e+000 1.458526e+001
         vertex 7.322242e+000 0.000000e+000 1.539875e+001
      endloop
   endfacet
   facet normal -7.672089e-001 0.000000e+000 6.413973e-001
      outer loop
         vertex 6.508750e+000 5.080000e+000 1.458526e+001
         vertex 7.322242e+000 0.000000e+000 1.539875e+001
         vertex 7.322242e+000 5.080000e+000 1.539875e+001
      endloop
   endfacet
   facet normal -9.390708e-001 0.000000e+000 3.437238e-001
      outer loop
         vertex 7.322242e+000 5.080000e+000 1.539875e+001
         vertex 7.322242e+000 0.000000e+000 1.539875e+001
         vertex 7.620000e+000 0.000000e+000 1.651000e+001
      endloop
   endfacet
   facet normal -9.851211e-001 0.000000e+000 1.718619e-001
      outer loop
         vertex 7.322242e+000 5.080000e+000 1.539875e+001
         vertex 7.620000e+000 0.000000e+000 1.651000e+001
         vertex 7.620000e+000 5.080000e+000 1.651000e+001
      endloop
   endfacet
   facet normal 1.000000e+000 0.000000e+000 0.000000e+000
      outer loop
         vertex 3.175000e+000 5.080000e+000 1.651000e+001
         vertex 3.175000e+000 5.080000e+000 4.254500e+001
         vertex 3.175000e+000 0.000000e+000 1.651000e+001
      endloop
   endfacet
   facet normal 1.000000e+000 0.000000e+000 0.000000e+000
      outer loop
         vertex 3.175000e+000 0.000000e+000 1.651000e+001
         vertex 3.175000e+000 5.080000e+000 4.254500e+001
         vertex 3.175000e+000 0.000000e+000 4.254500e+001
      endloop
   endfacet
   facet normal -9.851211e-001 0.000000e+000 -1.718619e-001
      outer loop
         vertex 7.620000e+000 5.080000e+000 4.254500e+001
         vertex 7.620000e+000 0.000000e+000 4.254500e+001
         vertex 7.322242e+000 0.000000e+000 4.365625e+001
      endloop
   endfacet
   facet normal -9.390708e-001 0.000000e+000 -3.437238e-001
      outer loop
         vertex 7.620000e+000 5.080000e+000 4.254500e+001
         vertex 7.322242e+000 0.000000e+000 4.365625e+001
         vertex 7.322242e+000 5.080000e+000 4.365625e+001
      endloop
   endfacet
   facet normal -7.672089e-001 0.000000e+000 -6.413973e-001
      outer loop
         vertex 7.322242e+000 5.080000e+000 4.365625e+001
         vertex 7.322242e+000 0.000000e+000 4.365625e+001
         vertex 6.508750e+000 0.000000e+000 4.446974e+001
      endloop
   endfacet
   facet normal -6.413973e-001 0.000000e+000 -7.672089e-001
      outer loop
         vertex 7.322242e+000 5.080000e+000 4.365625e+001
         vertex 6.508750e+000 0.000000e+000 4.446975e+001
         vertex 6.508750e+000 5.080000e+000 4.446974e+001
      endloop
   endfacet
   facet normal -3.437238e-001 0.000000e+000 -9.390708e-001
      outer loop
         vertex 6.508750e+000 5.080000e+000 4.446975e+001
         vertex 6.508750e+000 0.000000e+000 4.446975e+001
         vertex 5.397500e+000 0.000000e+000 4.476750e+001
      endloop
   endfacet
   facet normal -1.718619e-001 0.000000e+000 -9.851210e-001
      outer loop
         vertex 6.508750e+000 5.080000e+000 4.446975e+001
         vertex 5.397500e+000 0.000000e+000 4.476750e+001
         vertex 5.397500e+000 5.080000e+000 4.476750e+001
      endloop
   endfacet
   facet normal 1.718619e-001 0.000000e+000 -9.851210e-001
      outer loop
         vertex 5.397500e+000 5.080000e+000 4.476750e+001
         vertex 5.397500e+000 0.000000e+000 4.476750e+001
         vertex 4.286250e+000 0.000000e+000 4.446974e+001
      endloop
   endfacet
   facet normal 3.437238e-001 0.000000e+000 -9.390708e-001
      outer loop
         vertex 5.397500e+000 5.080000e+000 4.476750e+001
         vertex 4.286250e+000 0.000000e+000 4.446975e+001
         vertex 4.286250e+000 5.080000e+000 4.446974e+001
      endloop
   endfacet
   facet normal 6.413973e-001 0.000000e+000 -7.672089e-001
      outer loop
         vertex 4.286250e+000 5.080000e+000 4.446975e+001
         vertex 4.286250e+000 0.000000e+000 4.446975e+001
         vertex 3.472759e+000 0.000000e+000 4.365625e+001
      endloop
   endfacet
   facet normal 7.672089e-001 0.000000e+000 -6.413973e-001
      outer loop
         vertex 4.286250e+000 5.080000e+000 4.446975e+001
         vertex 3.472759e+000 0.000000e+000 4.365625e+001
         vertex 3.472759e+000 5.080000e+000 4.365625e+001
      endloop
   endfacet
   facet normal 9.390708e-001 0.000000e+000 -3.437238e-001
      outer loop
         vertex 3.472759e+000 5.080000e+000 4.365625e+001
         vertex 3.472759e+000 0.000000e+000 4.365625e+001
         vertex 3.175000e+000 0.000000e+000 4.254500e+001
      endloop
   endfacet
   facet normal 9.851211e-001 0.000000e+000 -1.718619e-001
      outer loop
         vertex 3.472759e+000 5.080000e+000 4.365625e+001
         vertex 3.175000e+000 0.000000e+000 4.254500e+001
         vertex 3.175000e+000 5.080000e+000 4.254500e+001
      endloop
   endfacet
   facet normal -1.000000e+000 0.000000e+000 0.000000e+000
      outer loop
         vertex 7.620000e+000 5.080000e+000 4.254500e+001
         vertex 7.620000e+000 5.080000e+000 1.651000e+001
         vertex 7.620000e+000 0.000000e+000 4.254500e+001
      endloop
   endfacet
   facet normal -1.000000e+000 0.000000e+000 0.000000e+000
      outer loop
         vertex 7.620000e+000 0.000000e+000 4.254500e+001
         vertex 7.620000e+000 5.080000e+000 1.651000e+001
         vertex 7.620000e+000 0.000000e+000 1.651000e+001
      endloop
   endfacet
   facet normal -9.851211e-001 0.000000e+000 -1.718619e-001
      outer loop
         vertex 1.093470e+002 5.080000e+000 4.254500e+001
         vertex 1.093470e+002 0.000000e+000 4.254500e+001
         vertex 1.090492e+002 0.000000e+000 4.365625e+001
      endloop
   endfacet
   facet normal -9.390708e-001 0.000000e+000 -3.437238e-001
      outer loop
         vertex 1.093470e+002 5.080000e+000 4.254500e+001
         vertex 1.090492e+002 0.000000e+000 4.365625e+001
         vertex 1.090492e+002 5.080000e+000 4.365625e+001
      endloop
   endfacet
   facet normal -7.672089e-001 0.000000e+000 -6.413973e-001
      outer loop
         vertex 1.090492e+002 5.080000e+000 4.365625e+001
         vertex 1.090492e+002 0.000000e+000 4.365625e+001
         vertex 1.082357e+002 0.000000e+000 4.446974e+001
      endloop
   endfacet
   facet normal -6.413973e-001 0.000000e+000 -7.672089e-001
      outer loop
         vertex 1.090492e+002 5.080000e+000 4.365625e+001
         vertex 1.082357e+002 0.000000e+000 4.446975e+001
         vertex 1.082357e+002 5.080000e+000 4.446974e+001
      endloop
   endfacet
   facet normal -3.437238e-001 0.000000e+000 -9.390708e-001
      outer loop
         vertex 1.082357e+002 5.080000e+000 4.446975e+001
         vertex 1.082357e+002 0.000000e+000 4.446975e+001
         vertex 1.071245e+002 0.000000e+000 4.476750e+001
      endloop
   endfacet
   facet normal -1.718619e-001 0.000000e+000 -9.851210e-001
      outer loop
         vertex 1.082357e+002 5.080000e+000 4.446975e+001
         vertex 1.071245e+002 0.000000e+000 4.476750e+001
         vertex 1.071245e+002 5.080000e+000 4.476750e+001
      endloop
   endfacet
   facet normal 1.718619e-001 0.000000e+000 -9.851210e-001
      outer loop
         vertex 1.071245e+002 5.080000e+000 4.476750e+001
         vertex 1.071245e+002 0.000000e+000 4.476750e+001
         vertex 1.060132e+002 0.000000e+000 4.446974e+001
      endloop
   endfacet
   facet normal 3.437238e-001 0.000000e+000 -9.390708e-001
      outer loop
         vertex 1.071245e+002 5.080000e+000 4.476750e+001
         vertex 1.060132e+002 0.000000e+000 4.446975e+001
         vertex 1.060132e+002 5.080000e+000 4.446974e+001
      endloop
   endfacet
   facet normal 6.413973e-001 0.000000e+000 -7.672089e-001
      outer loop
         vertex 1.060132e+002 5.080000e+000 4.446975e+001
         vertex 1.060132e+002 0.000000e+000 4.446975e+001
         vertex 1.051998e+002 0.000000e+000 4.365625e+001
      endloop
   endfacet
   facet normal 7.672089e-001 0.000000e+000 -6.413973e-001
      outer loop
         vertex 1.060132e+002 5.080000e+000 4.446975e+001
         vertex 1.051998e+002 0.000000e+000 4.365625e+001
         vertex 1.051998e+002 5.080000e+000 4.365625e+001
      endloop
   endfacet
   facet normal 9.390708e-001 0.000000e+000 -3.437238e-001
      outer loop
         vertex 1.051998e+002 5.080000e+000 4.365625e+001
         vertex 1.051998e+002 0.000000e+000 4.365625e+001
         vertex 1.049020e+002 0.000000e+000 4.254500e+001
      endloop
   endfacet
   facet normal 9.851211e-001 0.000000e+000 -1.718619e-001
      outer loop
         vertex 1.051998e+002 5.080000e+000 4.365625e+001
         vertex 1.049020e+002 0.000000e+000 4.254500e+001
         vertex 1.049020e+002 5.080000e+000 4.254500e+001
      endloop
   endfacet
   facet normal -1.000000e+000 0.000000e+000 0.000000e+000
      outer loop
         vertex 1.093470e+002 5.080000e+000 4.254500e+001
         vertex 1.093470e+002 5.080000e+000 1.651000e+001
         vertex 1.093470e+002 0.000000e+000 4.254500e+001
      endloop
   endfacet
   facet normal -1.000000e+000 0.000000e+000 0.000000e+000
      outer loop
         vertex 1.093470e+002 0.000000e+000 4.254500e+001
         vertex 1.093470e+002 5.080000e+000 1.651000e+001
         vertex 1.093470e+002 0.000000e+000 1.651000e+001
      endloop
   endfacet
   facet normal 9.851211e-001 0.000000e+000 1.718619e-001
      outer loop
         vertex 1.049020e+002 5.080000e+000 1.651000e+001
         vertex 1.049020e+002 0.000000e+000 1.651000e+001
         vertex 1.051998e+002 0.000000e+000 1.539875e+001
      endloop
   endfacet
   facet normal 9.390708e-001 0.000000e+000 3.437238e-001
      outer loop
         vertex 1.049020e+002 5.080000e+000 1.651000e+001
         vertex 1.051998e+002 0.000000e+000 1.539875e+001
         vertex 1.051998e+002 5.080000e+000 1.539875e+001
      endloop
   endfacet
   facet normal 7.672089e-001 0.000000e+000 6.413973e-001
      outer loop
         vertex 1.051998e+002 5.080000e+000 1.539875e+001
         vertex 1.051998e+002 0.000000e+000 1.539875e+001
         vertex 1.060132e+002 0.000000e+000 1.458526e+001
      endloop
   endfacet
   facet normal 6.413973e-001 0.000000e+000 7.672089e-001
      outer loop
         vertex 1.051998e+002 5.080000e+000 1.539875e+001
         vertex 1.060132e+002 0.000000e+000 1.458526e+001
         vertex 1.060132e+002 5.080000e+000 1.458526e+001
      endloop
   endfacet
   facet normal 3.437238e-001 0.000000e+000 9.390708e-001
      outer loop
         vertex 1.060132e+002 5.080000e+000 1.458526e+001
         vertex 1.060132e+002 0.000000e+000 1.458526e+001
         vertex 1.071245e+002 0.000000e+000 1.428750e+001
      endloop
   endfacet
   facet normal 1.718619e-001 0.000000e+000 9.851210e-001
      outer loop
         vertex 1.060132e+002 5.080000e+000 1.458526e+001
         vertex 1.071245e+002 0.000000e+000 1.428750e+001
         vertex 1.071245e+002 5.080000e+000 1.428750e+001
      endloop
   endfacet
   facet normal -1.718619e-001 0.000000e+000 9.851210e-001
      outer loop
         vertex 1.071245e+002 5.080000e+000 1.428750e+001
         vertex 1.071245e+002 0.000000e+000 1.428750e+001
         vertex 1.082357e+002 0.000000e+000 1.458526e+001
      endloop
   endfacet
   facet normal -3.437238e-001 0.000000e+000 9.390708e-001
      outer loop
         vertex 1.071245e+002 5.080000e+000 1.428750e+001
         vertex 1.082357e+002 0.000000e+000 1.458526e+001
         vertex 1.082357e+002 5.080000e+000 1.458526e+001
      endloop
   endfacet
   facet normal -6.413973e-001 0.000000e+000 7.672089e-001
      outer loop
         vertex 1.082357e+002 5.080000e+000 1.458526e+001
         vertex 1.082357e+002 0.000000e+000 1.458526e+001
         vertex 1.090492e+002 0.000000e+000 1.539875e+001
      endloop
   endfacet
   facet normal -7.672089e-001 0.000000e+000 6.413973e-001
      outer loop
         vertex 1.082357e+002 5.080000e+000 1.458526e+001
         vertex 1.090492e+002 0.000000e+000 1.539875e+001
         vertex 1.090492e+002 5.080000e+000 1.539875e+001
      endloop
   endfacet
   facet normal -9.390708e-001 0.000000e+000 3.437238e-001
      outer loop
         vertex 1.090492e+002 5.080000e+000 1.539875e+001
         vertex 1.090492e+002 0.000000e+000 1.539875e+001
         vertex 1.093470e+002 0.000000e+000 1.651000e+001
      endloop
   endfacet
   facet normal -9.851211e-001 0.000000e+000 1.718619e-001
      outer loop
         vertex 1.090492e+002 5.080000e+000 1.539875e+001
         vertex 1.093470e+002 0.000000e+000 1.651000e+001
         vertex 1.093470e+002 5.080000e+000 1.651000e+001
      endloop
   endfacet
   facet normal 1.000000e+000 0.000000e+000 0.000000e+000
      outer loop
         vertex 1.049020e+002 5.080000e+000 1.651000e+001
         vertex 1.049020e+002 5.080000e+000 4.254500e+001
         vertex 1.049020e+002 0.000000e+000 1.651000e+001
      endloop
   endfacet
   facet normal 1.000000e+000 0.000000e+000 0.000000e+000
      outer loop
         vertex 1.049020e+002 0.000000e+000 1.651000e+001
         vertex 1.049020e+002 5.080000e+000 4.254500e+001
         vertex 1.049020e+002 0.000000e+000 4.254500e+001
      endloop
   endfacet
   facet normal -1.000000e+000 0.000000e+000 0.000000e+000
      outer loop
         vertex 8.382000e+000 0.000000e+000 4.959350e+001
         vertex 8.382000e+000 0.000000e+000 5.905500e+001
         vertex 8.382000e+000 5.080000e+000 4.959350e+001
      endloop
   endfacet
   facet normal -1.000000e+000 0.000000e+000 0.000000e+000
      outer loop
         vertex 8.382000e+000 5.080000e+000 4.959350e+001
         vertex 8.382000e+000 0.000000e+000 5.905500e+001
         vertex 8.382000e+000 8.890000e+000 5.905500e+001
      endloop
   endfacet
   facet normal -1.000000e+000 0.000000e+000 0.000000e+000
      outer loop
         vertex 8.382000e+000 5.080000e+000 4.959350e+001
         vertex 8.382000e+000 8.890000e+000 5.905500e+001
         vertex 8.382000e+000 5.080000e+000 9.461500e+000
      endloop
   endfacet
   facet normal -1.000000e+000 0.000000e+000 0.000000e+000
      outer loop
         vertex 8.382000e+000 5.080000e+000 9.461500e+000
         vertex 8.382000e+000 8.890000e+000 5.905500e+001
         vertex 8.382000e+000 8.890000e+000 0.000000e+000
      endloop
   endfacet
   facet normal -1.000000e+000 0.000000e+000 0.000000e+000
      outer loop
         vertex 8.382000e+000 5.080000e+000 9.461500e+000
         vertex 8.382000e+000 8.890000e+000 0.000000e+000
         vertex 8.382000e+000 0.000000e+000 9.461500e+000
      endloop
   endfacet
   facet normal -1.000000e+000 0.000000e+000 0.000000e+000
      outer loop
         vertex 8.382000e+000 0.000000e+000 9.461500e+000
         vertex 8.382000e+000 8.890000e+000 0.000000e+000
         vertex 8.382000e+000 0.000000e+000 0.000000e+000
      endloop
   endfacet
   facet normal 1.000000e+000 0.000000e+000 0.000000e+000
      outer loop
         vertex 1.041400e+002 0.000000e+000 9.461500e+000
         vertex 1.041400e+002 0.000000e+000 0.000000e+000
         vertex 1.041400e+002 5.080000e+000 9.461500e+000
      endloop
   endfacet
   facet normal 1.000000e+000 0.000000e+000 0.000000e+000
      outer loop
         vertex 1.041400e+002 5.080000e+000 9.461500e+000
         vertex 1.041400e+002 0.000000e+000 0.000000e+000
         vertex 1.041400e+002 8.890000e+000 0.000000e+000
      endloop
   endfacet
   facet normal 1.000000e+000 0.000000e+000 0.000000e+000
      outer loop
         vertex 1.041400e+002 5.080000e+000 9.461500e+000
         vertex 1.041400e+002 8.890000e+000 0.000000e+000
         vertex 1.041400e+002 5.080000e+000 4.959350e+001
      endloop
   endfacet
   facet normal 1.000000e+000 0.000000e+000 0.000000e+000
      outer loop
         vertex 1.041400e+002 5.080000e+000 4.959350e+001
         vertex 1.041400e+002 8.890000e+000 0.000000e+000
         vertex 1.041400e+002 8.890000e+000 5.905500e+001
      endloop
   endfacet
   facet normal 1.000000e+000 0.000000e+000 0.000000e+000
      outer loop
         vertex 1.041400e+002 5.080000e+000 4.959350e+001
         vertex 1.041400e+002 8.890000e+000 5.905500e+001
         vertex 1.041400e+002 0.000000e+000 4.959350e+001
      endloop
   endfacet
   facet normal 1.000000e+000 0.000000e+000 0.000000e+000
      outer loop
         vertex 1.041400e+002 0.000000e+000 4.959350e+001
         vertex 1.041400e+002 8.890000e+000 5.905500e+001
         vertex 1.041400e+002 0.000000e+000 5.905500e+001
      endloop
   endfacet
   facet normal 9.962141e-001 8.693379e-002 0.000000e+000
      outer loop
         vertex 1.041400e+002 8.890000e+000 5.905500e+001
         vertex 1.041400e+002 8.890000e+000 0.000000e+000
         vertex 1.037073e+002 1.217700e+001 0.000000e+000
      endloop
   endfacet
   facet normal 9.847690e-001 1.738676e-001 0.000000e+000
      outer loop
         vertex 1.041400e+002 8.890000e+000 5.905500e+001
         vertex 1.037073e+002 1.217700e+001 0.000000e+000
         vertex 1.037073e+002 1.217700e+001 5.905500e+001
      endloop
   endfacet
   facet normal 9.397688e-001 3.418108e-001 0.000000e+000
      outer loop
         vertex 1.037073e+002 1.217700e+001 5.905500e+001
         vertex 1.037073e+002 1.217700e+001 0.000000e+000
         vertex 1.024385e+002 1.524000e+001 0.000000e+000
      endloop
   endfacet
   facet normal 9.062136e-001 4.228202e-001 0.000000e+000
      outer loop
         vertex 1.037073e+002 1.217700e+001 5.905500e+001
         vertex 1.024385e+002 1.524000e+001 0.000000e+000
         vertex 1.024385e+002 1.524000e+001 5.905500e+001
      endloop
   endfacet
   facet normal 8.192798e-001 5.733939e-001 0.000000e+000
      outer loop
         vertex 1.024385e+002 1.524000e+001 5.905500e+001
         vertex 1.024385e+002 1.524000e+001 0.000000e+000
         vertex 1.004202e+002 1.787026e+001 0.000000e+000
      endloop
   endfacet
   facet normal 7.659012e-001 6.429583e-001 0.000000e+000
      outer loop
         vertex 1.024385e+002 1.524000e+001 5.905500e+001
         vertex 1.004202e+002 1.787026e+001 0.000000e+000
         vertex 1.004202e+002 1.787026e+001 5.905500e+001
      endloop
   endfacet
   facet normal 6.429583e-001 7.659012e-001 0.000000e+000
      outer loop
         vertex 1.004202e+002 1.787026e+001 5.905500e+001
         vertex 1.004202e+002 1.787026e+001 0.000000e+000
         vertex 9.778999e+001 1.988852e+001 0.000000e+000
      endloop
   endfacet
   facet normal 5.733939e-001 8.192798e-001 0.000000e+000
      outer loop
         vertex 1.004202e+002 1.787026e+001 5.905500e+001
         vertex 9.778999e+001 1.988852e+001 0.000000e+000
         vertex 9.778999e+001 1.988852e+001 5.905500e+001
      endloop
   endfacet
   facet normal 4.228202e-001 9.062136e-001 0.000000e+000
      outer loop
         vertex 9.778999e+001 1.988852e+001 5.905500e+001
         vertex 9.778999e+001 1.988852e+001 0.000000e+000
         vertex 9.472701e+001 2.115726e+001 0.000000e+000
      endloop
   endfacet
   facet normal 3.418108e-001 9.397688e-001 0.000000e+000
      outer loop
         vertex 9.778999e+001 1.988852e+001 5.905500e+001
         vertex 9.472701e+001 2.115726e+001 0.000000e+000
         vertex 9.472701e+001 2.115726e+001 5.905500e+001
      endloop
   endfacet
   facet normal 1.738676e-001 9.847690e-001 0.000000e+000
      outer loop
         vertex 9.472701e+001 2.115726e+001 5.905500e+001
         vertex 9.472701e+001 2.115726e+001 0.000000e+000
         vertex 9.144000e+001 2.159000e+001 0.000000e+000
      endloop
   endfacet
   facet normal 8.693379e-002 9.962141e-001 0.000000e+000
      outer loop
         vertex 9.472701e+001 2.115726e+001 5.905500e+001
         vertex 9.144000e+001 2.159000e+001 0.000000e+000
         vertex 9.144000e+001 2.159000e+001 5.905500e+001
      endloop
   endfacet
   facet normal 0.000000e+000 1.000000e+000 0.000000e+000
      outer loop
         vertex 2.108200e+001 2.159000e+001 5.905500e+001
         vertex 9.144000e+001 2.159000e+001 5.905500e+001
         vertex 2.108200e+001 2.159000e+001 0.000000e+000
      endloop
   endfacet
   facet normal 0.000000e+000 1.000000e+000 0.000000e+000
      outer loop
         vertex 2.108200e+001 2.159000e+001 0.000000e+000
         vertex 9.144000e+001 2.159000e+001 5.905500e+001
         vertex 9.144000e+001 2.159000e+001 0.000000e+000
      endloop
   endfacet
   facet normal -8.693379e-002 9.962141e-001 0.000000e+000
      outer loop
         vertex 2.108200e+001 2.159000e+001 5.905500e+001
         vertex 2.108200e+001 2.159000e+001 0.000000e+000
         vertex 1.779500e+001 2.115726e+001 0.000000e+000
      endloop
   endfacet
   facet normal -1.738676e-001 9.847690e-001 0.000000e+000
      outer loop
         vertex 2.108200e+001 2.159000e+001 5.905500e+001
         vertex 1.779500e+001 2.115726e+001 0.000000e+000
         vertex 1.779500e+001 2.115726e+001 5.905500e+001
      endloop
   endfacet
   facet normal -3.418108e-001 9.397688e-001 0.000000e+000
      outer loop
         vertex 1.779500e+001 2.115726e+001 5.905500e+001
         vertex 1.779500e+001 2.115726e+001 0.000000e+000
         vertex 1.473200e+001 1.988852e+001 0.000000e+000
      endloop
   endfacet
   facet normal -4.228202e-001 9.062136e-001 0.000000e+000
      outer loop
         vertex 1.779500e+001 2.115726e+001 5.905500e+001
         vertex 1.473200e+001 1.988852e+001 0.000000e+000
         vertex 1.473200e+001 1.988852e+001 5.905500e+001
      endloop
   endfacet
   facet normal -5.733939e-001 8.192798e-001 0.000000e+000
      outer loop
         vertex 1.473200e+001 1.988852e+001 5.905500e+001
         vertex 1.473200e+001 1.988852e+001 0.000000e+000
         vertex 1.210174e+001 1.787026e+001 0.000000e+000
      endloop
   endfacet
   facet normal -6.429583e-001 7.659012e-001 0.000000e+000
      outer loop
         vertex 1.473200e+001 1.988852e+001 5.905500e+001
         vertex 1.210174e+001 1.787026e+001 0.000000e+000
         vertex 1.210174e+001 1.787026e+001 5.905500e+001
      endloop
   endfacet
   facet normal -7.659012e-001 6.429583e-001 0.000000e+000
      outer loop
         vertex 1.210174e+001 1.787026e+001 5.905500e+001
         vertex 1.210174e+001 1.787026e+001 0.000000e+000
         vertex 1.008348e+001 1.524000e+001 0.000000e+000
      endloop
   endfacet
   facet normal -8.192798e-001 5.733939e-001 0.000000e+000
      outer loop
         vertex 1.210174e+001 1.787026e+001 5.905500e+001
         vertex 1.008348e+001 1.524000e+001 0.000000e+000
         vertex 1.008348e+001 1.524000e+001 5.905500e+001
      endloop
   endfacet
   facet normal -9.062136e-001 4.228202e-001 0.000000e+000
      outer loop
         vertex 1.008348e+001 1.524000e+001 5.905500e+001
         vertex 1.008348e+001 1.524000e+001 0.000000e+000
         vertex 8.814742e+000 1.217700e+001 0.000000e+000
      endloop
   endfacet
   facet normal -9.397688e-001 3.418108e-001 0.000000e+000
      outer loop
         vertex 1.008348e+001 1.524000e+001 5.905500e+001
         vertex 8.814742e+000 1.217700e+001 0.000000e+000
         vertex 8.814742e+000 1.217700e+001 5.905500e+001
      endloop
   endfacet
   facet normal -9.847690e-001 1.738676e-001 0.000000e+000
      outer loop
         vertex 8.814742e+000 1.217700e+001 5.905500e+001
         vertex 8.814742e+000 1.217700e+001 0.000000e+000
         vertex 8.382000e+000 8.890000e+000 0.000000e+000
      endloop
   endfacet
   facet normal -9.962141e-001 8.693379e-002 0.000000e+000
      outer loop
         vertex 8.814742e+000 1.217700e+001 5.905500e+001
         vertex 8.382000e+000 8.890000e+000 0.000000e+000
         vertex 8.382000e+000 8.890000e+000 5.905500e+001
      endloop
   endfacet
   facet normal 0.000000e+000 0.000000e+000 1.000000e+000
      outer loop
         vertex 1.210174e+001 1.787026e+001 5.905500e+001
         vertex 1.008348e+001 1.524000e+001 5.905500e+001
         vertex 1.473200e+001 1.988852e+001 5.905500e+001
      endloop
   endfacet
   facet normal 0.000000e+000 0.000000e+000 1.000000e+000
      outer loop
         vertex 1.473200e+001 1.988852e+001 5.905500e+001
         vertex 1.008348e+001 1.524000e+001 5.905500e+001
         vertex 8.814742e+000 1.217700e+001 5.905500e+001
      endloop
   endfacet
   facet normal 0.000000e+000 0.000000e+000 1.000000e+000
      outer loop
         vertex 1.473200e+001 1.988852e+001 5.905500e+001
         vertex 8.814742e+000 1.217700e+001 5.905500e+001
         vertex 1.779500e+001 2.115726e+001 5.905500e+001
      endloop
   endfacet
   facet normal 0.000000e+000 0.000000e+000 1.000000e+000
      outer loop
         vertex 1.779500e+001 2.115726e+001 5.905500e+001
         vertex 8.814742e+000 1.217700e+001 5.905500e+001
         vertex 8.382000e+000 8.890000e+000 5.905500e+001
      endloop
   endfacet
   facet normal 0.000000e+000 0.000000e+000 1.000000e+000
      outer loop
         vertex 1.779500e+001 2.115726e+001 5.905500e+001
         vertex 8.382000e+000 8.890000e+000 5.905500e+001
         vertex 2.108200e+001 2.159000e+001 5.905500e+001
      endloop
   endfacet
   facet normal 0.000000e+000 0.000000e+000 1.000000e+000
      outer loop
         vertex 2.108200e+001 2.159000e+001 5.905500e+001
         vertex 8.382000e+000 8.890000e+000 5.905500e+001
         vertex 8.382000e+000 0.000000e+000 5.905500e+001
      endloop
   endfacet
   facet normal 0.000000e+000 0.000000e+000 1.000000e+000
      outer loop
         vertex 2.108200e+001 2.159000e+001 5.905500e+001
         vertex 8.382000e+000 0.000000e+000 5.905500e+001
         vertex 9.144000e+001 2.159000e+001 5.905500e+001
      endloop
   endfacet
   facet normal 0.000000e+000 0.000000e+000 1.000000e+000
      outer loop
         vertex 9.144000e+001 2.159000e+001 5.905500e+001
         vertex 8.382000e+000 0.000000e+000 5.905500e+001
         vertex 1.041400e+002 0.000000e+000 5.905500e+001
      endloop
   endfacet
   facet normal 0.000000e+000 0.000000e+000 1.000000e+000
      outer loop
         vertex 9.144000e+001 2.159000e+001 5.905500e+001
         vertex 1.041400e+002 0.000000e+000 5.905500e+001
         vertex 1.041400e+002 8.890000e+000 5.905500e+001
      endloop
   endfacet
   facet normal 0.000000e+000 0.000000e+000 1.000000e+000
      outer loop
         vertex 1.041400e+002 8.890000e+000 5.905500e+001
         vertex 1.037073e+002 1.217700e+001 5.905500e+001
         vertex 1.024385e+002 1.524000e+001 5.905500e+001
      endloop
   endfacet
   facet normal 0.000000e+000 0.000000e+000 1.000000e+000
      outer loop
         vertex 9.472701e+001 2.115726e+001 5.905500e+001
         vertex 9.144000e+001 2.159000e+001 5.905500e+001
         vertex 9.778999e+001 1.988852e+001 5.905500e+001
      endloop
   endfacet
   facet normal 0.000000e+000 0.000000e+000 1.000000e+000
      outer loop
         vertex 9.778999e+001 1.988852e+001 5.905500e+001
         vertex 9.144000e+001 2.159000e+001 5.905500e+001
         vertex 1.041400e+002 8.890000e+000 5.905500e+001
      endloop
   endfacet
   facet normal 0.000000e+000 0.000000e+000 1.000000e+000
      outer loop
         vertex 9.778999e+001 1.988852e+001 5.905500e+001
         vertex 1.041400e+002 8.890000e+000 5.905500e+001
         vertex 1.004202e+002 1.787026e+001 5.905500e+001
      endloop
   endfacet
   facet normal 0.000000e+000 0.000000e+000 1.000000e+000
      outer loop
         vertex 1.004202e+002 1.787026e+001 5.905500e+001
         vertex 1.041400e+002 8.890000e+000 5.905500e+001
         vertex 1.024385e+002 1.524000e+001 5.905500e+001
      endloop
   endfacet
   facet normal 0.000000e+000 0.000000e+000 -1.000000e+000
      outer loop
         vertex 1.473200e+001 1.988852e+001 0.000000e+000
         vertex 1.779500e+001 2.115726e+001 0.000000e+000
         vertex 2.108200e+001 2.159000e+001 0.000000e+000
      endloop
   endfacet
   facet normal 0.000000e+000 0.000000e+000 -1.000000e+000
      outer loop
         vertex 1.004202e+002 1.787026e+001 0.000000e+000
         vertex 1.024385e+002 1.524000e+001 0.000000e+000
         vertex 9.778999e+001 1.988852e+001 0.000000e+000
      endloop
   endfacet
   facet normal 0.000000e+000 0.000000e+000 -1.000000e+000
      outer loop
         vertex 9.778999e+001 1.988852e+001 0.000000e+000
         vertex 1.024385e+002 1.524000e+001 0.000000e+000
         vertex 1.037073e+002 1.217700e+001 0.000000e+000
      endloop
   endfacet
   facet normal 0.000000e+000 0.000000e+000 -1.000000e+000
      outer loop
         vertex 9.778999e+001 1.988852e+001 0.000000e+000
         vertex 1.037073e+002 1.217700e+001 0.000000e+000
         vertex 9.472701e+001 2.115726e+001 0.000000e+000
      endloop
   endfacet
   facet normal 0.000000e+000 0.000000e+000 -1.000000e+000
      outer loop
         vertex 9.472701e+001 2.115726e+001 0.000000e+000
         vertex 1.037073e+002 1.217700e+001 0.000000e+000
         vertex 1.041400e+002 8.890000e+000 0.000000e+000
      endloop
   endfacet
   facet normal 0.000000e+000 0.000000e+000 -1.000000e+000
      outer loop
         vertex 9.472701e+001 2.115726e+001 0.000000e+000
         vertex 1.041400e+002 8.890000e+000 0.000000e+000
         vertex 9.144000e+001 2.159000e+001 0.000000e+000
      endloop
   endfacet
   facet normal 0.000000e+000 0.000000e+000 -1.000000e+000
      outer loop
         vertex 9.144000e+001 2.159000e+001 0.000000e+000
         vertex 1.041400e+002 8.890000e+000 0.000000e+000
         vertex 1.041400e+002 0.000000e+000 0.000000e+000
      endloop
   endfacet
   facet normal 0.000000e+000 0.000000e+000 -1.000000e+000
      outer loop
         vertex 9.144000e+001 2.159000e+001 0.000000e+000
         vertex 1.041400e+002 0.000000e+000 0.000000e+000
         vertex 2.108200e+001 2.159000e+001 0.000000e+000
      endloop
   endfacet
   facet normal 0.000000e+000 0.000000e+000 -1.000000e+000
      outer loop
         vertex 1.008348e+001 1.524000e+001 0.000000e+000
         vertex 1.210174e+001 1.787026e+001 0.000000e+000
         vertex 8.814742e+000 1.217700e+001 0.000000e+000
      endloop
   endfacet
   facet normal 0.000000e+000 0.000000e+000 -1.000000e+000
      outer loop
         vertex 8.814742e+000 1.217700e+001 0.000000e+000
         vertex 1.210174e+001 1.787026e+001 0.000000e+000
         vertex 1.473200e+001 1.988852e+001 0.000000e+000
      endloop
   endfacet
   facet normal 0.000000e+000 0.000000e+000 -1.000000e+000
      outer loop
         vertex 8.814742e+000 1.217700e+001 0.000000e+000
         vertex 1.473200e+001 1.988852e+001 0.000000e+000
         vertex 8.382000e+000 8.890000e+000 0.000000e+000
      endloop
   endfacet
   facet normal 0.000000e+000 0.000000e+000 -1.000000e+000
      outer loop
         vertex 8.382000e+000 8.890000e+000 0.000000e+000
         vertex 1.473200e+001 1.988852e+001 0.000000e+000
         vertex 2.108200e+001 2.159000e+001 0.000000e+000
      endloop
   endfacet
   facet normal 0.000000e+000 0.000000e+000 -1.000000e+000
      outer loop
         vertex 8.382000e+000 8.890000e+000 0.000000e+000
         vertex 2.108200e+001 2.159000e+001 0.000000e+000
         vertex 8.382000e+000 0.000000e+000 0.000000e+000
      endloop
   endfacet
   facet normal 0.000000e+000 0.000000e+000 -1.000000e+000
      outer loop
         vertex 8.382000e+000 0.000000e+000 0.000000e+000
         vertex 2.108200e+001 2.159000e+001 0.000000e+000
         vertex 1.041400e+002 0.000000e+000 0.000000e+000
      endloop
   endfacet
endsolid