solid Vex_Receiver_top
   facet normal 0.000000e+000 1.000000e+000 -9.641816e-017
      outer loop
         vertex 2.022500e+001 2.143125e+001 2.694625e+001
         vertex 2.022500e+001 2.143125e+001 4.885375e+001
         vertex 5.515000e+001 2.143125e+001 4.567875e+001
      endloop
   endfacet
   facet normal 0.000000e+000 1.000000e+000 -9.641816e-017
      outer loop
         vertex 5.515000e+001 2.143125e+001 4.567875e+001
         vertex 5.515000e+001 2.143125e+001 4.282125e+001
         vertex 2.022500e+001 2.143125e+001 2.694625e+001
      endloop
   endfacet
   facet normal 0.000000e+000 1.000000e+000 -9.641816e-017
      outer loop
         vertex 2.022500e+001 2.143125e+001 2.694625e+001
         vertex 5.515000e+001 2.143125e+001 4.282125e+001
         vertex 5.769000e+001 2.143125e+001 4.028125e+001
      endloop
   endfacet
   facet normal 0.000000e+000 1.000000e+000 -9.641816e-017
      outer loop
         vertex 2.022500e+001 2.143125e+001 2.694625e+001
         vertex 5.769000e+001 2.143125e+001 4.028125e+001
         vertex 7.261250e+001 2.143125e+001 2.694625e+001
      endloop
   endfacet
   facet normal 0.000000e+000 1.000000e+000 -9.641816e-017
      outer loop
         vertex 5.769000e+001 2.143125e+001 4.028125e+001
         vertex 6.531000e+001 2.143125e+001 4.028125e+001
         vertex 7.261250e+001 2.143125e+001 2.694625e+001
      endloop
   endfacet
   facet normal 0.000000e+000 1.000000e+000 -9.641816e-017
      outer loop
         vertex 7.261250e+001 2.143125e+001 2.694625e+001
         vertex 6.531000e+001 2.143125e+001 4.028125e+001
         vertex 6.785000e+001 2.143125e+001 4.282125e+001
      endloop
   endfacet
   facet normal 0.000000e+000 1.000000e+000 -9.641816e-017
      outer loop
         vertex 7.261250e+001 2.143125e+001 2.694625e+001
         vertex 6.785000e+001 2.143125e+001 4.282125e+001
         vertex 7.261250e+001 2.143125e+001 4.885375e+001
      endloop
   endfacet
   facet normal 0.000000e+000 1.000000e+000 -9.641816e-017
      outer loop
         vertex 6.785000e+001 2.143125e+001 4.282125e+001
         vertex 6.785000e+001 2.143125e+001 4.567875e+001
         vertex 7.261250e+001 2.143125e+001 4.885375e+001
      endloop
   endfacet
   facet normal 0.000000e+000 1.000000e+000 -9.641816e-017
      outer loop
         vertex 7.261250e+001 2.143125e+001 4.885375e+001
         vertex 6.785000e+001 2.143125e+001 4.567875e+001
         vertex 6.531000e+001 2.143125e+001 4.821875e+001
      endloop
   endfacet
   facet normal 0.000000e+000 1.000000e+000 -9.641816e-017
      outer loop
         vertex 7.261250e+001 2.143125e+001 4.885375e+001
         vertex 6.531000e+001 2.143125e+001 4.821875e+001
         vertex 2.022500e+001 2.143125e+001 4.885375e+001
      endloop
   endfacet
   facet normal 0.000000e+000 1.000000e+000 -9.641816e-017
      outer loop
         vertex 2.022500e+001 2.143125e+001 4.885375e+001
         vertex 6.531000e+001 2.143125e+001 4.821875e+001
         vertex 5.769000e+001 2.143125e+001 4.821875e+001
      endloop
   endfacet
   facet normal 0.000000e+000 1.000000e+000 -9.641816e-017
      outer loop
         vertex 2.022500e+001 2.143125e+001 4.885375e+001
         vertex 5.769000e+001 2.143125e+001 4.821875e+001
         vertex 5.515000e+001 2.143125e+001 4.567875e+001
      endloop
   endfacet
   facet normal -1.000000e+000 0.000000e+000 0.000000e+000
      outer loop
         vertex 2.022500e+001 6.350000e+000 4.171000e+001
         vertex 2.022500e+001 1.889125e+001 5.139375e+001
         vertex 2.022500e+001 1.905000e+001 4.171000e+001
      endloop
   endfacet
   facet normal -1.000000e+000 0.000000e+000 0.000000e+000
      outer loop
         vertex 2.022500e+001 1.905000e+001 4.171000e+001
         vertex 2.022500e+001 1.889125e+001 5.139375e+001
         vertex 2.022500e+001 2.143125e+001 4.885375e+001
      endloop
   endfacet
   facet normal -1.000000e+000 0.000000e+000 0.000000e+000
      outer loop
         vertex 2.022500e+001 1.905000e+001 4.171000e+001
         vertex 2.022500e+001 2.143125e+001 4.885375e+001
         vertex 2.022500e+001 1.905000e+001 3.472500e+001
      endloop
   endfacet
   facet normal -1.000000e+000 0.000000e+000 0.000000e+000
      outer loop
         vertex 2.022500e+001 2.143125e+001 4.885375e+001
         vertex 2.022500e+001 2.143125e+001 2.694625e+001
         vertex 2.022500e+001 1.905000e+001 3.472500e+001
      endloop
   endfacet
   facet normal -1.000000e+000 0.000000e+000 0.000000e+000
      outer loop
         vertex 2.022500e+001 1.905000e+001 3.472500e+001
         vertex 2.022500e+001 2.143125e+001 2.694625e+001
         vertex 2.022500e+001 1.889125e+001 2.440625e+001
      endloop
   endfacet
   facet normal -1.000000e+000 0.000000e+000 0.000000e+000
      outer loop
         vertex 2.022500e+001 1.905000e+001 3.472500e+001
         vertex 2.022500e+001 1.889125e+001 2.440625e+001
         vertex 2.022500e+001 6.350000e+000 3.472500e+001
      endloop
   endfacet
   facet normal -1.000000e+000 0.000000e+000 0.000000e+000
      outer loop
         vertex 2.022500e+001 6.350000e+000 3.472500e+001
         vertex 2.022500e+001 1.889125e+001 2.440625e+001
         vertex 2.022500e+001 3.968750e+000 2.440625e+001
      endloop
   endfacet
   facet normal -1.000000e+000 0.000000e+000 0.000000e+000
      outer loop
         vertex 2.022500e+001 6.350000e+000 3.472500e+001
         vertex 2.022500e+001 3.968750e+000 2.440625e+001
         vertex 2.022500e+001 6.350000e+000 4.171000e+001
      endloop
   endfacet
   facet normal -1.000000e+000 0.000000e+000 0.000000e+000
      outer loop
         vertex 2.022500e+001 6.350000e+000 4.171000e+001
         vertex 2.022500e+001 3.968750e+000 2.440625e+001
         vertex 2.022500e+001 3.968750e+000 5.139375e+001
      endloop
   endfacet
   facet normal -1.000000e+000 0.000000e+000 0.000000e+000
      outer loop
         vertex 2.022500e+001 6.350000e+000 4.171000e+001
         vertex 2.022500e+001 3.968750e+000 5.139375e+001
         vertex 2.022500e+001 1.889125e+001 5.139375e+001
      endloop
   endfacet
   facet normal 0.000000e+000 1.224606e-016 1.000000e+000
      outer loop
         vertex 2.022500e+001 1.889125e+001 5.139375e+001
         vertex 2.022500e+001 3.968750e+000 5.139375e+001
         vertex 7.261250e+001 1.889125e+001 5.139375e+001
      endloop
   endfacet
   facet normal 0.000000e+000 1.224606e-016 1.000000e+000
      outer loop
         vertex 7.261250e+001 1.889125e+001 5.139375e+001
         vertex 2.022500e+001 3.968750e+000 5.139375e+001
         vertex 7.261250e+001 3.968750e+000 5.139375e+001
      endloop
   endfacet
   facet normal 1.000000e+000 0.000000e+000 0.000000e+000
      outer loop
         vertex 7.261250e+001 3.968750e+000 5.139375e+001
         vertex 7.261250e+001 3.968750e+000 4.107500e+001
         vertex 7.261250e+001 1.889125e+001 5.139375e+001
      endloop
   endfacet
   facet normal 1.000000e+000 0.000000e+000 0.000000e+000
      outer loop
         vertex 7.261250e+001 1.889125e+001 5.139375e+001
         vertex 7.261250e+001 3.968750e+000 4.107500e+001
         vertex 7.261250e+001 8.763149e+000 4.107500e+001
      endloop
   endfacet
   facet normal 1.000000e+000 0.000000e+000 0.000000e+000
      outer loop
         vertex 7.261250e+001 3.968750e+000 3.472500e+001
         vertex 7.261250e+001 3.968750e+000 2.440625e+001
         vertex 7.261250e+001 8.763149e+000 3.472500e+001
      endloop
   endfacet
   facet normal 1.000000e+000 0.000000e+000 0.000000e+000
      outer loop
         vertex 7.261250e+001 8.763149e+000 3.472500e+001
         vertex 7.261250e+001 3.968750e+000 2.440625e+001
         vertex 7.261250e+001 1.889125e+001 2.440625e+001
      endloop
   endfacet
   facet normal 1.000000e+000 0.000000e+000 0.000000e+000
      outer loop
         vertex 7.261250e+001 8.763149e+000 3.472500e+001
         vertex 7.261250e+001 1.889125e+001 2.440625e+001
         vertex 7.261250e+001 8.763149e+000 4.107500e+001
      endloop
   endfacet
   facet normal 1.000000e+000 0.000000e+000 0.000000e+000
      outer loop
         vertex 7.261250e+001 8.763149e+000 4.107500e+001
         vertex 7.261250e+001 1.889125e+001 2.440625e+001
         vertex 7.261250e+001 2.143125e+001 2.694625e+001
      endloop
   endfacet
   facet normal 1.000000e+000 0.000000e+000 0.000000e+000
      outer loop
         vertex 7.261250e+001 8.763149e+000 4.107500e+001
         vertex 7.261250e+001 2.143125e+001 2.694625e+001
         vertex 7.261250e+001 1.889125e+001 5.139375e+001
      endloop
   endfacet
   facet normal 1.000000e+000 0.000000e+000 0.000000e+000
      outer loop
         vertex 7.261250e+001 1.889125e+001 5.139375e+001
         vertex 7.261250e+001 2.143125e+001 2.694625e+001
         vertex 7.261250e+001 2.143125e+001 4.885375e+001
      endloop
   endfacet
   facet normal 0.000000e+000 -1.224606e-016 -1.000000e+000
      outer loop
         vertex 7.261250e+001 1.889125e+001 2.440625e+001
         vertex 7.261250e+001 3.968750e+000 2.440625e+001
         vertex 2.022500e+001 1.889125e+001 2.440625e+001
      endloop
   endfacet
   facet normal 0.000000e+000 -1.224606e-016 -1.000000e+000
      outer loop
         vertex 2.022500e+001 1.889125e+001 2.440625e+001
         vertex 7.261250e+001 3.968750e+000 2.440625e+001
         vertex 2.022500e+001 3.968750e+000 2.440625e+001
      endloop
   endfacet
   facet normal 0.000000e+000 -1.000000e+000 9.641816e-017
      outer loop
         vertex 7.261250e+001 3.968750e+000 4.107500e+001
         vertex 7.261250e+001 3.968750e+000 5.139375e+001
         vertex 7.181876e+001 3.968750e+000 4.107500e+001
      endloop
   endfacet
   facet normal 0.000000e+000 -1.000000e+000 9.641816e-017
      outer loop
         vertex 7.181876e+001 3.968750e+000 4.107500e+001
         vertex 7.261250e+001 3.968750e+000 5.139375e+001
         vertex 2.022500e+001 3.968750e+000 5.139375e+001
      endloop
   endfacet
   facet normal 0.000000e+000 -1.000000e+000 9.641816e-017
      outer loop
         vertex 7.181876e+001 3.968750e+000 4.107500e+001
         vertex 2.022500e+001 3.968750e+000 5.139375e+001
         vertex 7.181876e+001 3.968750e+000 3.472500e+001
      endloop
   endfacet
   facet normal 0.000000e+000 -1.000000e+000 9.641816e-017
      outer loop
         vertex 7.181876e+001 3.968750e+000 3.472500e+001
         vertex 2.022500e+001 3.968750e+000 5.139375e+001
         vertex 2.022500e+001 3.968750e+000 2.440625e+001
      endloop
   endfacet
   facet normal 0.000000e+000 -1.000000e+000 9.641816e-017
      outer loop
         vertex 7.181876e+001 3.968750e+000 3.472500e+001
         vertex 2.022500e+001 3.968750e+000 2.440625e+001
         vertex 7.261250e+001 3.968750e+000 3.472500e+001
      endloop
   endfacet
   facet normal 0.000000e+000 -1.000000e+000 9.641816e-017
      outer loop
         vertex 7.261250e+001 3.968750e+000 3.472500e+001
         vertex 2.022500e+001 3.968750e+000 2.440625e+001
         vertex 7.261250e+001 3.968750e+000 2.440625e+001
      endloop
   endfacet
   facet normal 0.000000e+000 0.000000e+000 -1.000000e+000
      outer loop
         vertex 7.181876e+001 3.968750e+000 4.107500e+001
         vertex 7.181876e+001 8.763149e+000 4.107500e+001
         vertex 7.261250e+001 3.968750e+000 4.107500e+001
      endloop
   endfacet
   facet normal 0.000000e+000 0.000000e+000 -1.000000e+000
      outer loop
         vertex 7.261250e+001 3.968750e+000 4.107500e+001
         vertex 7.181876e+001 8.763149e+000 4.107500e+001
         vertex 7.261250e+001 8.763149e+000 4.107500e+001
      endloop
   endfacet
   facet normal 0.000000e+000 -1.000000e+000 0.000000e+000
      outer loop
         vertex 7.181876e+001 8.763149e+000 4.107500e+001
         vertex 7.181876e+001 8.763149e+000 3.472500e+001
         vertex 7.261250e+001 8.763149e+000 4.107500e+001
      endloop
   endfacet
   facet normal 0.000000e+000 -1.000000e+000 0.000000e+000
      outer loop
         vertex 7.261250e+001 8.763149e+000 4.107500e+001
         vertex 7.181876e+001 8.763149e+000 3.472500e+001
         vertex 7.261250e+001 8.763149e+000 3.472500e+001
      endloop
   endfacet
   facet normal 0.000000e+000 0.000000e+000 1.000000e+000
      outer loop
         vertex 7.181876e+001 8.763149e+000 3.472500e+001
         vertex 7.181876e+001 3.968750e+000 3.472500e+001
         vertex 7.261250e+001 8.763149e+000 3.472500e+001
      endloop
   endfacet
   facet normal 0.000000e+000 0.000000e+000 1.000000e+000
      outer loop
         vertex 7.261250e+001 8.763149e+000 3.472500e+001
         vertex 7.181876e+001 3.968750e+000 3.472500e+001
         vertex 7.261250e+001 3.968750e+000 3.472500e+001
      endloop
   endfacet
   facet normal 1.000000e+000 0.000000e+000 0.000000e+000
      outer loop
         vertex 7.181876e+001 3.968750e+000 3.472500e+001
         vertex 7.181876e+001 8.763149e+000 3.472500e+001
         vertex 7.181876e+001 3.968750e+000 4.107500e+001
      endloop
   endfacet
   facet normal 1.000000e+000 0.000000e+000 0.000000e+000
      outer loop
         vertex 7.181876e+001 3.968750e+000 4.107500e+001
         vertex 7.181876e+001 8.763149e+000 3.472500e+001
         vertex 7.181876e+001 8.763149e+000 4.107500e+001
      endloop
   endfacet
   facet normal -1.000000e+000 0.000000e+000 0.000000e+000
      outer loop
         vertex 5.515000e+001 2.143125e+001 4.282125e+001
         vertex 5.515000e+001 2.143125e+001 4.567875e+001
         vertex 5.515000e+001 2.540000e+001 4.282125e+001
      endloop
   endfacet
   facet normal -1.000000e+000 0.000000e+000 0.000000e+000
      outer loop
         vertex 5.515000e+001 2.540000e+001 4.282125e+001
         vertex 5.515000e+001 2.143125e+001 4.567875e+001
         vertex 5.515000e+001 2.540000e+001 4.567875e+001
      endloop
   endfacet
   facet normal 0.000000e+000 9.641816e-017 1.000000e+000
      outer loop
         vertex 6.531000e+001 2.540000e+001 4.821875e+001
         vertex 5.769000e+001 2.540000e+001 4.821875e+001
         vertex 6.531000e+001 2.143125e+001 4.821875e+001
      endloop
   endfacet
   facet normal 0.000000e+000 9.641816e-017 1.000000e+000
      outer loop
         vertex 6.531000e+001 2.143125e+001 4.821875e+001
         vertex 5.769000e+001 2.540000e+001 4.821875e+001
         vertex 5.769000e+001 2.143125e+001 4.821875e+001
      endloop
   endfacet
   facet normal 1.000000e+000 0.000000e+000 0.000000e+000
      outer loop
         vertex 6.785000e+001 2.540000e+001 4.282125e+001
         vertex 6.785000e+001 2.540000e+001 4.567875e+001
         vertex 6.785000e+001 2.143125e+001 4.282125e+001
      endloop
   endfacet
   facet normal 1.000000e+000 0.000000e+000 0.000000e+000
      outer loop
         vertex 6.785000e+001 2.143125e+001 4.282125e+001
         vertex 6.785000e+001 2.540000e+001 4.567875e+001
         vertex 6.785000e+001 2.143125e+001 4.567875e+001
      endloop
   endfacet
   facet normal 0.000000e+000 -9.641816e-017 -1.000000e+000
      outer loop
         vertex 6.531000e+001 2.143125e+001 4.028125e+001
         vertex 5.769000e+001 2.143125e+001 4.028125e+001
         vertex 6.531000e+001 2.540000e+001 4.028125e+001
      endloop
   endfacet
   facet normal 0.000000e+000 -9.641816e-017 -1.000000e+000
      outer loop
         vertex 6.531000e+001 2.540000e+001 4.028125e+001
         vertex 5.769000e+001 2.143125e+001 4.028125e+001
         vertex 5.769000e+001 2.540000e+001 4.028125e+001
      endloop
   endfacet
   facet normal 0.000000e+000 1.000000e+000 0.000000e+000
      outer loop
         vertex 5.515000e+001 2.540000e+001 4.567875e+001
         vertex 5.769000e+001 2.540000e+001 4.821875e+001
         vertex 6.531000e+001 2.540000e+001 4.821875e+001
      endloop
   endfacet
   facet normal 0.000000e+000 1.000000e+000 0.000000e+000
      outer loop
         vertex 6.785000e+001 2.540000e+001 4.282125e+001
         vertex 6.531000e+001 2.540000e+001 4.028125e+001
         vertex 5.769000e+001 2.540000e+001 4.028125e+001
      endloop
   endfacet
   facet normal 0.000000e+000 1.000000e+000 0.000000e+000
      outer loop
         vertex 5.515000e+001 2.540000e+001 4.282125e+001
         vertex 5.515000e+001 2.540000e+001 4.567875e+001
         vertex 5.769000e+001 2.540000e+001 4.028125e+001
      endloop
   endfacet
   facet normal 0.000000e+000 1.000000e+000 0.000000e+000
      outer loop
         vertex 5.769000e+001 2.540000e+001 4.028125e+001
         vertex 5.515000e+001 2.540000e+001 4.567875e+001
         vertex 6.531000e+001 2.540000e+001 4.821875e+001
      endloop
   endfacet
   facet normal 0.000000e+000 1.000000e+000 0.000000e+000
      outer loop
         vertex 5.769000e+001 2.540000e+001 4.028125e+001
         vertex 6.531000e+001 2.540000e+001 4.821875e+001
         vertex 6.785000e+001 2.540000e+001 4.282125e+001
      endloop
   endfacet
   facet normal 0.000000e+000 1.000000e+000 0.000000e+000
      outer loop
         vertex 6.785000e+001 2.540000e+001 4.282125e+001
         vertex 6.531000e+001 2.540000e+001 4.821875e+001
         vertex 6.785000e+001 2.540000e+001 4.567875e+001
      endloop
   endfacet
   facet normal 0.000000e+000 0.000000e+000 1.000000e+000
      outer loop
         vertex 3.292500e+001 6.350000e+000 3.472500e+001
         vertex 3.292500e+001 1.905000e+001 3.472500e+001
         vertex 2.022500e+001 6.350000e+000 3.472500e+001
      endloop
   endfacet
   facet normal 0.000000e+000 0.000000e+000 1.000000e+000
      outer loop
         vertex 2.022500e+001 6.350000e+000 3.472500e+001
         vertex 3.292500e+001 1.905000e+001 3.472500e+001
         vertex 2.022500e+001 1.905000e+001 3.472500e+001
      endloop
   endfacet
   facet normal 0.000000e+000 -1.000000e+000 0.000000e+000
      outer loop
         vertex 3.292500e+001 1.905000e+001 3.472500e+001
         vertex 3.292500e+001 1.905000e+001 4.171000e+001
         vertex 2.022500e+001 1.905000e+001 3.472500e+001
      endloop
   endfacet
   facet normal 0.000000e+000 -1.000000e+000 0.000000e+000
      outer loop
         vertex 2.022500e+001 1.905000e+001 3.472500e+001
         vertex 3.292500e+001 1.905000e+001 4.171000e+001
         vertex 2.022500e+001 1.905000e+001 4.171000e+001
      endloop
   endfacet
   facet normal 0.000000e+000 0.000000e+000 -1.000000e+000
      outer loop
         vertex 3.292500e+001 1.905000e+001 4.171000e+001
         vertex 3.292500e+001 6.350000e+000 4.171000e+001
         vertex 2.022500e+001 1.905000e+001 4.171000e+001
      endloop
   endfacet
   facet normal 0.000000e+000 0.000000e+000 -1.000000e+000
      outer loop
         vertex 2.022500e+001 1.905000e+001 4.171000e+001
         vertex 3.292500e+001 6.350000e+000 4.171000e+001
         vertex 2.022500e+001 6.350000e+000 4.171000e+001
      endloop
   endfacet
   facet normal 0.000000e+000 1.000000e+000 0.000000e+000
      outer loop
         vertex 3.292500e+001 6.350000e+000 4.171000e+001
         vertex 3.292500e+001 6.350000e+000 3.472500e+001
         vertex 2.022500e+001 6.350000e+000 4.171000e+001
      endloop
   endfacet
   facet normal 0.000000e+000 1.000000e+000 0.000000e+000
      outer loop
         vertex 2.022500e+001 6.350000e+000 4.171000e+001
         vertex 3.292500e+001 6.350000e+000 3.472500e+001
         vertex 2.022500e+001 6.350000e+000 3.472500e+001
      endloop
   endfacet
   facet normal -1.000000e+000 0.000000e+000 0.000000e+000
      outer loop
         vertex 3.292500e+001 6.350000e+000 4.171000e+001
         vertex 3.292500e+001 1.905000e+001 4.171000e+001
         vertex 3.292500e+001 6.350000e+000 3.472500e+001
      endloop
   endfacet
   facet normal -1.000000e+000 0.000000e+000 0.000000e+000
      outer loop
         vertex 3.292500e+001 6.350000e+000 3.472500e+001
         vertex 3.292500e+001 1.905000e+001 4.171000e+001
         vertex 3.292500e+001 1.905000e+001 3.472500e+001
      endloop
   endfacet
   facet normal 7.071068e-001 -6.817794e-017 -7.071068e-001
      outer loop
         vertex 6.785000e+001 2.143125e+001 4.282125e+001
         vertex 6.531000e+001 2.143125e+001 4.028125e+001
         vertex 6.785000e+001 2.540000e+001 4.282125e+001
      endloop
   endfacet
   facet normal 7.071068e-001 -6.817794e-017 -7.071068e-001
      outer loop
         vertex 6.785000e+001 2.540000e+001 4.282125e+001
         vertex 6.531000e+001 2.143125e+001 4.028125e+001
         vertex 6.531000e+001 2.540000e+001 4.028125e+001
      endloop
   endfacet
   facet normal 7.071068e-001 6.817794e-017 7.071068e-001
      outer loop
         vertex 6.531000e+001 2.143125e+001 4.821875e+001
         vertex 6.785000e+001 2.143125e+001 4.567875e+001
         vertex 6.531000e+001 2.540000e+001 4.821875e+001
      endloop
   endfacet
   facet normal 7.071068e-001 6.817794e-017 7.071068e-001
      outer loop
         vertex 6.531000e+001 2.540000e+001 4.821875e+001
         vertex 6.785000e+001 2.143125e+001 4.567875e+001
         vertex 6.785000e+001 2.540000e+001 4.567875e+001
      endloop
   endfacet
   facet normal -7.071068e-001 -6.817794e-017 -7.071068e-001
      outer loop
         vertex 5.769000e+001 2.143125e+001 4.028125e+001
         vertex 5.515000e+001 2.143125e+001 4.282125e+001
         vertex 5.769000e+001 2.540000e+001 4.028125e+001
      endloop
   endfacet
   facet normal -7.071068e-001 -6.817794e-017 -7.071068e-001
      outer loop
         vertex 5.769000e+001 2.540000e+001 4.028125e+001
         vertex 5.515000e+001 2.143125e+001 4.282125e+001
         vertex 5.515000e+001 2.540000e+001 4.282125e+001
      endloop
   endfacet
   facet normal -7.071068e-001 6.817794e-017 7.071068e-001
      outer loop
         vertex 5.515000e+001 2.143125e+001 4.567875e+001
         vertex 5.769000e+001 2.143125e+001 4.821875e+001
         vertex 5.515000e+001 2.540000e+001 4.567875e+001
      endloop
   endfacet
   facet normal -7.071068e-001 6.817794e-017 7.071068e-001
      outer loop
         vertex 5.515000e+001 2.540000e+001 4.567875e+001
         vertex 5.769000e+001 2.143125e+001 4.821875e+001
         vertex 5.769000e+001 2.540000e+001 4.821875e+001
      endloop
   endfacet
   facet normal 0.000000e+000 7.071068e-001 -7.071068e-001
      outer loop
         vertex 7.261250e+001 2.143125e+001 2.694625e+001
         vertex 7.261250e+001 1.889125e+001 2.440625e+001
         vertex 2.022500e+001 2.143125e+001 2.694625e+001
      endloop
   endfacet
   facet normal 0.000000e+000 7.071068e-001 -7.071068e-001
      outer loop
         vertex 2.022500e+001 2.143125e+001 2.694625e+001
         vertex 7.261250e+001 1.889125e+001 2.440625e+001
         vertex 2.022500e+001 1.889125e+001 2.440625e+001
      endloop
   endfacet
   facet normal 0.000000e+000 7.071068e-001 7.071068e-001
      outer loop
         vertex 2.022500e+001 2.143125e+001 4.885375e+001
         vertex 2.022500e+001 1.889125e+001 5.139375e+001
         vertex 7.261250e+001 2.143125e+001 4.885375e+001
      endloop
   endfacet
   facet normal 0.000000e+000 7.071068e-001 7.071068e-001
      outer loop
         vertex 7.261250e+001 2.143125e+001 4.885375e+001
         vertex 2.022500e+001 1.889125e+001 5.139375e+001
         vertex 7.261250e+001 1.889125e+001 5.139375e+001
      endloop
   endfacet
endsolid