solid Vex_Square_Shaft_(12in)
   facet normal -6.643070e-001 -7.474598e-001 0.000000e+000
      outer loop
         vertex 9.713902e+001 1.527715e+002 0.000000e+000
         vertex 9.713902e+001 1.527715e+002 3.048000e+002
         vertex 9.700682e+001 1.528925e+002 0.000000e+000
      endloop
   endfacet
   facet normal -6.860129e-001 -7.275894e-001 0.000000e+000
      outer loop
         vertex 9.700682e+001 1.528925e+002 0.000000e+000
         vertex 9.713902e+001 1.527715e+002 3.048000e+002
         vertex 9.700682e+001 1.528925e+002 3.048000e+002
      endloop
   endfacet
   facet normal -7.275894e-001 -6.860129e-001 0.000000e+000
      outer loop
         vertex 9.700682e+001 1.528925e+002 0.000000e+000
         vertex 9.700682e+001 1.528925e+002 3.048000e+002
         vertex 9.688580e+001 1.530247e+002 0.000000e+000
      endloop
   endfacet
   facet normal -7.474598e-001 -6.643070e-001 0.000000e+000
      outer loop
         vertex 9.688580e+001 1.530247e+002 0.000000e+000
         vertex 9.700682e+001 1.528925e+002 3.048000e+002
         vertex 9.688580e+001 1.530247e+002 3.048000e+002
      endloop
   endfacet
   facet normal -7.474598e-001 6.643070e-001 0.000000e+000
      outer loop
         vertex 9.688580e+001 1.556340e+002 0.000000e+000
         vertex 9.688580e+001 1.556340e+002 3.048000e+002
         vertex 9.700682e+001 1.557662e+002 0.000000e+000
      endloop
   endfacet
   facet normal -7.275894e-001 6.860129e-001 0.000000e+000
      outer loop
         vertex 9.700682e+001 1.557662e+002 0.000000e+000
         vertex 9.688580e+001 1.556340e+002 3.048000e+002
         vertex 9.700682e+001 1.557662e+002 3.048000e+002
      endloop
   endfacet
   facet normal -6.860129e-001 7.275894e-001 0.000000e+000
      outer loop
         vertex 9.700682e+001 1.557662e+002 0.000000e+000
         vertex 9.700682e+001 1.557662e+002 3.048000e+002
         vertex 9.713902e+001 1.558872e+002 0.000000e+000
      endloop
   endfacet
   facet normal -6.643070e-001 7.474598e-001 0.000000e+000
      outer loop
         vertex 9.713902e+001 1.558872e+002 0.000000e+000
         vertex 9.700682e+001 1.557662e+002 3.048000e+002
         vertex 9.713902e+001 1.558872e+002 3.048000e+002
      endloop
   endfacet
   facet normal -1.154079e-001 -9.933182e-001 0.000000e+000
      outer loop
         vertex 9.722057e+001 1.527419e+002 0.000000e+000
         vertex 9.722057e+001 1.527419e+002 3.048000e+002
         vertex 9.717719e+001 1.527495e+002 3.048000e+002
      endloop
   endfacet
   facet normal -2.308157e-001 -9.729975e-001 0.000000e+000
      outer loop
         vertex 9.722057e+001 1.527419e+002 0.000000e+000
         vertex 9.717719e+001 1.527495e+002 3.048000e+002
         vertex 9.717719e+001 1.527495e+002 0.000000e+000
      endloop
   endfacet
   facet normal -4.477498e-001 -8.941589e-001 0.000000e+000
      outer loop
         vertex 9.717719e+001 1.527495e+002 0.000000e+000
         vertex 9.717719e+001 1.527495e+002 3.048000e+002
         vertex 9.713902e+001 1.527715e+002 3.048000e+002
      endloop
   endfacet
   facet normal -5.492759e-001 -8.356410e-001 0.000000e+000
      outer loop
         vertex 9.717719e+001 1.527495e+002 0.000000e+000
         vertex 9.713902e+001 1.527715e+002 3.048000e+002
         vertex 9.713902e+001 1.527715e+002 0.000000e+000
      endloop
   endfacet
   facet normal -5.492759e-001 8.356410e-001 0.000000e+000
      outer loop
         vertex 9.713902e+001 1.558872e+002 0.000000e+000
         vertex 9.713902e+001 1.558872e+002 3.048000e+002
         vertex 9.717719e+001 1.559092e+002 3.048000e+002
      endloop
   endfacet
   facet normal -4.477498e-001 8.941589e-001 0.000000e+000
      outer loop
         vertex 9.713902e+001 1.558872e+002 0.000000e+000
         vertex 9.717719e+001 1.559092e+002 3.048000e+002
         vertex 9.717719e+001 1.559092e+002 0.000000e+000
      endloop
   endfacet
   facet normal -2.308157e-001 9.729975e-001 0.000000e+000
      outer loop
         vertex 9.717719e+001 1.559092e+002 0.000000e+000
         vertex 9.717719e+001 1.559092e+002 3.048000e+002
         vertex 9.722057e+001 1.559169e+002 3.048000e+002
      endloop
   endfacet
   facet normal -1.154079e-001 9.933182e-001 0.000000e+000
      outer loop
         vertex 9.717719e+001 1.559092e+002 0.000000e+000
         vertex 9.722057e+001 1.559169e+002 3.048000e+002
         vertex 9.722057e+001 1.559169e+002 0.000000e+000
      endloop
   endfacet
   facet normal 1.154079e-001 9.933182e-001 0.000000e+000
      outer loop
         vertex 9.966676e+001 1.559169e+002 0.000000e+000
         vertex 9.966676e+001 1.559169e+002 3.048000e+002
         vertex 9.971014e+001 1.559092e+002 3.048000e+002
      endloop
   endfacet
   facet normal 2.308157e-001 9.729975e-001 0.000000e+000
      outer loop
         vertex 9.966676e+001 1.559169e+002 0.000000e+000
         vertex 9.971014e+001 1.559092e+002 3.048000e+002
         vertex 9.971014e+001 1.559092e+002 0.000000e+000
      endloop
   endfacet
   facet normal 4.477498e-001 8.941589e-001 0.000000e+000
      outer loop
         vertex 9.971014e+001 1.559092e+002 0.000000e+000
         vertex 9.971014e+001 1.559092e+002 3.048000e+002
         vertex 9.974829e+001 1.558872e+002 3.048000e+002
      endloop
   endfacet
   facet normal 5.492759e-001 8.356410e-001 0.000000e+000
      outer loop
         vertex 9.971014e+001 1.559092e+002 0.000000e+000
         vertex 9.974829e+001 1.558872e+002 3.048000e+002
         vertex 9.974829e+001 1.558872e+002 0.000000e+000
      endloop
   endfacet
   facet normal -8.356410e-001 -5.492759e-001 0.000000e+000
      outer loop
         vertex 9.688580e+001 1.530247e+002 0.000000e+000
         vertex 9.688580e+001 1.530247e+002 3.048000e+002
         vertex 9.686380e+001 1.530629e+002 3.048000e+002
      endloop
   endfacet
   facet normal -8.941589e-001 -4.477498e-001 0.000000e+000
      outer loop
         vertex 9.688580e+001 1.530247e+002 0.000000e+000
         vertex 9.686380e+001 1.530629e+002 3.048000e+002
         vertex 9.686380e+001 1.530629e+002 0.000000e+000
      endloop
   endfacet
   facet normal -9.729975e-001 -2.308157e-001 0.000000e+000
      outer loop
         vertex 9.686380e+001 1.530629e+002 0.000000e+000
         vertex 9.686380e+001 1.530629e+002 3.048000e+002
         vertex 9.685616e+001 1.531063e+002 3.048000e+002
      endloop
   endfacet
   facet normal -9.933182e-001 -1.154079e-001 0.000000e+000
      outer loop
         vertex 9.686380e+001 1.530629e+002 0.000000e+000
         vertex 9.685616e+001 1.531063e+002 3.048000e+002
         vertex 9.685616e+001 1.531063e+002 0.000000e+000
      endloop
   endfacet
   facet normal -9.933182e-001 1.154079e-001 0.000000e+000
      outer loop
         vertex 9.685616e+001 1.555525e+002 0.000000e+000
         vertex 9.685616e+001 1.555525e+002 3.048000e+002
         vertex 9.686380e+001 1.555958e+002 3.048000e+002
      endloop
   endfacet
   facet normal -9.729975e-001 2.308157e-001 0.000000e+000
      outer loop
         vertex 9.685616e+001 1.555525e+002 0.000000e+000
         vertex 9.686380e+001 1.555958e+002 3.048000e+002
         vertex 9.686380e+001 1.555958e+002 0.000000e+000
      endloop
   endfacet
   facet normal -8.941589e-001 4.477498e-001 0.000000e+000
      outer loop
         vertex 9.686380e+001 1.555958e+002 0.000000e+000
         vertex 9.686380e+001 1.555958e+002 3.048000e+002
         vertex 9.688580e+001 1.556340e+002 3.048000e+002
      endloop
   endfacet
   facet normal -8.356410e-001 5.492759e-001 0.000000e+000
      outer loop
         vertex 9.686380e+001 1.555958e+002 0.000000e+000
         vertex 9.688580e+001 1.556340e+002 3.048000e+002
         vertex 9.688580e+001 1.556340e+002 0.000000e+000
      endloop
   endfacet
   facet normal 5.492759e-001 -8.356410e-001 0.000000e+000
      outer loop
         vertex 9.974829e+001 1.527715e+002 0.000000e+000
         vertex 9.974829e+001 1.527715e+002 3.048000e+002
         vertex 9.971014e+001 1.527495e+002 3.048000e+002
      endloop
   endfacet
   facet normal 4.477498e-001 -8.941589e-001 0.000000e+000
      outer loop
         vertex 9.974829e+001 1.527715e+002 0.000000e+000
         vertex 9.971014e+001 1.527495e+002 3.048000e+002
         vertex 9.971014e+001 1.527495e+002 0.000000e+000
      endloop
   endfacet
   facet normal 2.308157e-001 -9.729975e-001 0.000000e+000
      outer loop
         vertex 9.971014e+001 1.527495e+002 0.000000e+000
         vertex 9.971014e+001 1.527495e+002 3.048000e+002
         vertex 9.966676e+001 1.527419e+002 3.048000e+002
      endloop
   endfacet
   facet normal 1.154079e-001 -9.933182e-001 0.000000e+000
      outer loop
         vertex 9.971014e+001 1.527495e+002 0.000000e+000
         vertex 9.966676e+001 1.527419e+002 3.048000e+002
         vertex 9.966676e+001 1.527419e+002 0.000000e+000
      endloop
   endfacet
   facet normal 6.643070e-001 7.474598e-001 0.000000e+000
      outer loop
         vertex 9.974829e+001 1.558872e+002 0.000000e+000
         vertex 9.974829e+001 1.558872e+002 3.048000e+002
         vertex 9.988050e+001 1.557662e+002 0.000000e+000
      endloop
   endfacet
   facet normal 6.860129e-001 7.275894e-001 0.000000e+000
      outer loop
         vertex 9.988050e+001 1.557662e+002 0.000000e+000
         vertex 9.974829e+001 1.558872e+002 3.048000e+002
         vertex 9.988050e+001 1.557662e+002 3.048000e+002
      endloop
   endfacet
   facet normal 7.275894e-001 6.860129e-001 0.000000e+000
      outer loop
         vertex 9.988050e+001 1.557662e+002 0.000000e+000
         vertex 9.988050e+001 1.557662e+002 3.048000e+002
         vertex 1.000015e+002 1.556340e+002 0.000000e+000
      endloop
   endfacet
   facet normal 7.474598e-001 6.643070e-001 0.000000e+000
      outer loop
         vertex 1.000015e+002 1.556340e+002 0.000000e+000
         vertex 9.988050e+001 1.557662e+002 3.048000e+002
         vertex 1.000015e+002 1.556340e+002 3.048000e+002
      endloop
   endfacet
   facet normal 0.000000e+000 -1.000000e+000 0.000000e+000
      outer loop
         vertex 9.966676e+001 1.527419e+002 3.048000e+002
         vertex 9.722057e+001 1.527419e+002 3.048000e+002
         vertex 9.966676e+001 1.527419e+002 0.000000e+000
      endloop
   endfacet
   facet normal 0.000000e+000 -1.000000e+000 0.000000e+000
      outer loop
         vertex 9.966676e+001 1.527419e+002 0.000000e+000
         vertex 9.722057e+001 1.527419e+002 3.048000e+002
         vertex 9.722057e+001 1.527419e+002 0.000000e+000
      endloop
   endfacet
   facet normal 0.000000e+000 1.000000e+000 0.000000e+000
      outer loop
         vertex 9.722057e+001 1.559169e+002 3.048000e+002
         vertex 9.966676e+001 1.559169e+002 3.048000e+002
         vertex 9.722057e+001 1.559169e+002 0.000000e+000
      endloop
   endfacet
   facet normal 0.000000e+000 1.000000e+000 0.000000e+000
      outer loop
         vertex 9.722057e+001 1.559169e+002 0.000000e+000
         vertex 9.966676e+001 1.559169e+002 3.048000e+002
         vertex 9.966676e+001 1.559169e+002 0.000000e+000
      endloop
   endfacet
   facet normal -1.000000e+000 0.000000e+000 0.000000e+000
      outer loop
         vertex 9.685616e+001 1.531063e+002 3.048000e+002
         vertex 9.685616e+001 1.555525e+002 3.048000e+002
         vertex 9.685616e+001 1.531063e+002 0.000000e+000
      endloop
   endfacet
   facet normal -1.000000e+000 0.000000e+000 0.000000e+000
      outer loop
         vertex 9.685616e+001 1.531063e+002 0.000000e+000
         vertex 9.685616e+001 1.555525e+002 3.048000e+002
         vertex 9.685616e+001 1.555525e+002 0.000000e+000
      endloop
   endfacet
   facet normal 7.474598e-001 -6.643070e-001 0.000000e+000
      outer loop
         vertex 1.000015e+002 1.530247e+002 0.000000e+000
         vertex 1.000015e+002 1.530247e+002 3.048000e+002
         vertex 9.988050e+001 1.528925e+002 0.000000e+000
      endloop
   endfacet
   facet normal 7.275894e-001 -6.860129e-001 0.000000e+000
      outer loop
         vertex 9.988050e+001 1.528925e+002 0.000000e+000
         vertex 1.000015e+002 1.530247e+002 3.048000e+002
         vertex 9.988050e+001 1.528925e+002 3.048000e+002
      endloop
   endfacet
   facet normal 6.860129e-001 -7.275894e-001 0.000000e+000
      outer loop
         vertex 9.988050e+001 1.528925e+002 0.000000e+000
         vertex 9.988050e+001 1.528925e+002 3.048000e+002
         vertex 9.974829e+001 1.527715e+002 0.000000e+000
      endloop
   endfacet
   facet normal 6.643070e-001 -7.474598e-001 0.000000e+000
      outer loop
         vertex 9.974829e+001 1.527715e+002 0.000000e+000
         vertex 9.988050e+001 1.528925e+002 3.048000e+002
         vertex 9.974829e+001 1.527715e+002 3.048000e+002
      endloop
   endfacet
   facet normal 0.000000e+000 0.000000e+000 1.000000e+000
      outer loop
         vertex 9.713902e+001 1.527715e+002 3.048000e+002
         vertex 9.717719e+001 1.527495e+002 3.048000e+002
         vertex 9.700682e+001 1.528925e+002 3.048000e+002
      endloop
   endfacet
   facet normal 0.000000e+000 0.000000e+000 1.000000e+000
      outer loop
         vertex 9.700682e+001 1.528925e+002 3.048000e+002
         vertex 9.717719e+001 1.527495e+002 3.048000e+002
         vertex 9.722057e+001 1.527419e+002 3.048000e+002
      endloop
   endfacet
   facet normal 0.000000e+000 0.000000e+000 1.000000e+000
      outer loop
         vertex 9.700682e+001 1.528925e+002 3.048000e+002
         vertex 1.000312e+002 1.531063e+002 3.048000e+002
         vertex 1.000312e+002 1.555525e+002 3.048000e+002
      endloop
   endfacet
   facet normal 0.000000e+000 0.000000e+000 1.000000e+000
      outer loop
         vertex 9.974829e+001 1.558872e+002 3.048000e+002
         vertex 9.971014e+001 1.559092e+002 3.048000e+002
         vertex 9.988050e+001 1.557662e+002 3.048000e+002
      endloop
   endfacet
   facet normal 0.000000e+000 0.000000e+000 1.000000e+000
      outer loop
         vertex 9.988050e+001 1.557662e+002 3.048000e+002
         vertex 9.971014e+001 1.559092e+002 3.048000e+002
         vertex 9.966676e+001 1.559169e+002 3.048000e+002
      endloop
   endfacet
   facet normal 0.000000e+000 0.000000e+000 1.000000e+000
      outer loop
         vertex 9.988050e+001 1.557662e+002 3.048000e+002
         vertex 9.685616e+001 1.555525e+002 3.048000e+002
         vertex 9.685616e+001 1.531063e+002 3.048000e+002
      endloop
   endfacet
   facet normal 0.000000e+000 0.000000e+000 1.000000e+000
      outer loop
         vertex 9.971014e+001 1.527495e+002 3.048000e+002
         vertex 9.974829e+001 1.527715e+002 3.048000e+002
         vertex 9.966676e+001 1.527419e+002 3.048000e+002
      endloop
   endfacet
   facet normal 0.000000e+000 0.000000e+000 1.000000e+000
      outer loop
         vertex 9.966676e+001 1.527419e+002 3.048000e+002
         vertex 9.974829e+001 1.527715e+002 3.048000e+002
         vertex 9.988050e+001 1.528925e+002 3.048000e+002
      endloop
   endfacet
   facet normal 0.000000e+000 0.000000e+000 1.000000e+000
      outer loop
         vertex 1.000235e+002 1.530629e+002 3.048000e+002
         vertex 1.000312e+002 1.531063e+002 3.048000e+002
         vertex 1.000015e+002 1.530247e+002 3.048000e+002
      endloop
   endfacet
   facet normal 0.000000e+000 0.000000e+000 1.000000e+000
      outer loop
         vertex 1.000015e+002 1.530247e+002 3.048000e+002
         vertex 1.000312e+002 1.531063e+002 3.048000e+002
         vertex 9.700682e+001 1.528925e+002 3.048000e+002
      endloop
   endfacet
   facet normal 0.000000e+000 0.000000e+000 1.000000e+000
      outer loop
         vertex 1.000015e+002 1.530247e+002 3.048000e+002
         vertex 9.700682e+001 1.528925e+002 3.048000e+002
         vertex 9.988050e+001 1.528925e+002 3.048000e+002
      endloop
   endfacet
   facet normal 0.000000e+000 0.000000e+000 1.000000e+000
      outer loop
         vertex 9.988050e+001 1.528925e+002 3.048000e+002
         vertex 9.700682e+001 1.528925e+002 3.048000e+002
         vertex 9.722057e+001 1.527419e+002 3.048000e+002
      endloop
   endfacet
   facet normal 0.000000e+000 0.000000e+000 1.000000e+000
      outer loop
         vertex 9.988050e+001 1.528925e+002 3.048000e+002
         vertex 9.722057e+001 1.527419e+002 3.048000e+002
         vertex 9.966676e+001 1.527419e+002 3.048000e+002
      endloop
   endfacet
   facet normal 0.000000e+000 0.000000e+000 1.000000e+000
      outer loop
         vertex 1.000312e+002 1.555525e+002 3.048000e+002
         vertex 1.000235e+002 1.555958e+002 3.048000e+002
         vertex 1.000015e+002 1.556340e+002 3.048000e+002
      endloop
   endfacet
   facet normal 0.000000e+000 0.000000e+000 1.000000e+000
      outer loop
         vertex 9.717719e+001 1.559092e+002 3.048000e+002
         vertex 9.713902e+001 1.558872e+002 3.048000e+002
         vertex 9.722057e+001 1.559169e+002 3.048000e+002
      endloop
   endfacet
   facet normal 0.000000e+000 0.000000e+000 1.000000e+000
      outer loop
         vertex 9.722057e+001 1.559169e+002 3.048000e+002
         vertex 9.713902e+001 1.558872e+002 3.048000e+002
         vertex 9.700682e+001 1.557662e+002 3.048000e+002
      endloop
   endfacet
   facet normal 0.000000e+000 0.000000e+000 1.000000e+000
      outer loop
         vertex 9.686380e+001 1.555958e+002 3.048000e+002
         vertex 9.685616e+001 1.555525e+002 3.048000e+002
         vertex 9.688580e+001 1.556340e+002 3.048000e+002
      endloop
   endfacet
   facet normal 0.000000e+000 0.000000e+000 1.000000e+000
      outer loop
         vertex 9.688580e+001 1.556340e+002 3.048000e+002
         vertex 9.685616e+001 1.555525e+002 3.048000e+002
         vertex 9.988050e+001 1.557662e+002 3.048000e+002
      endloop
   endfacet
   facet normal 0.000000e+000 0.000000e+000 1.000000e+000
      outer loop
         vertex 9.688580e+001 1.556340e+002 3.048000e+002
         vertex 9.988050e+001 1.557662e+002 3.048000e+002
         vertex 9.700682e+001 1.557662e+002 3.048000e+002
      endloop
   endfacet
   facet normal 0.000000e+000 0.000000e+000 1.000000e+000
      outer loop
         vertex 9.700682e+001 1.557662e+002 3.048000e+002
         vertex 9.988050e+001 1.557662e+002 3.048000e+002
         vertex 9.966676e+001 1.559169e+002 3.048000e+002
      endloop
   endfacet
   facet normal 0.000000e+000 0.000000e+000 1.000000e+000
      outer loop
         vertex 9.700682e+001 1.557662e+002 3.048000e+002
         vertex 9.966676e+001 1.559169e+002 3.048000e+002
         vertex 9.722057e+001 1.559169e+002 3.048000e+002
      endloop
   endfacet
   facet normal 0.000000e+000 0.000000e+000 1.000000e+000
      outer loop
         vertex 1.000312e+002 1.555525e+002 3.048000e+002
         vertex 1.000015e+002 1.556340e+002 3.048000e+002
         vertex 9.700682e+001 1.528925e+002 3.048000e+002
      endloop
   endfacet
   facet normal 0.000000e+000 0.000000e+000 1.000000e+000
      outer loop
         vertex 9.700682e+001 1.528925e+002 3.048000e+002
         vertex 1.000015e+002 1.556340e+002 3.048000e+002
         vertex 9.988050e+001 1.557662e+002 3.048000e+002
      endloop
   endfacet
   facet normal 0.000000e+000 0.000000e+000 1.000000e+000
      outer loop
         vertex 9.700682e+001 1.528925e+002 3.048000e+002
         vertex 9.988050e+001 1.557662e+002 3.048000e+002
         vertex 9.688580e+001 1.530247e+002 3.048000e+002
      endloop
   endfacet
   facet normal 0.000000e+000 0.000000e+000 1.000000e+000
      outer loop
         vertex 9.688580e+001 1.530247e+002 3.048000e+002
         vertex 9.988050e+001 1.557662e+002 3.048000e+002
         vertex 9.685616e+001 1.531063e+002 3.048000e+002
      endloop
   endfacet
   facet normal 0.000000e+000 0.000000e+000 1.000000e+000
      outer loop
         vertex 9.688580e+001 1.530247e+002 3.048000e+002
         vertex 9.685616e+001 1.531063e+002 3.048000e+002
         vertex 9.686380e+001 1.530629e+002 3.048000e+002
      endloop
   endfacet
   facet normal 8.356410e-001 5.492759e-001 0.000000e+000
      outer loop
         vertex 1.000015e+002 1.556340e+002 0.000000e+000
         vertex 1.000015e+002 1.556340e+002 3.048000e+002
         vertex 1.000235e+002 1.555958e+002 3.048000e+002
      endloop
   endfacet
   facet normal 8.941589e-001 4.477498e-001 0.000000e+000
      outer loop
         vertex 1.000015e+002 1.556340e+002 0.000000e+000
         vertex 1.000235e+002 1.555958e+002 3.048000e+002
         vertex 1.000235e+002 1.555958e+002 0.000000e+000
      endloop
   endfacet
   facet normal 9.729975e-001 2.308157e-001 0.000000e+000
      outer loop
         vertex 1.000235e+002 1.555958e+002 0.000000e+000
         vertex 1.000235e+002 1.555958e+002 3.048000e+002
         vertex 1.000312e+002 1.555525e+002 3.048000e+002
      endloop
   endfacet
   facet normal 9.933182e-001 1.154079e-001 0.000000e+000
      outer loop
         vertex 1.000235e+002 1.555958e+002 0.000000e+000
         vertex 1.000312e+002 1.555525e+002 3.048000e+002
         vertex 1.000312e+002 1.555525e+002 0.000000e+000
      endloop
   endfacet
   facet normal 0.000000e+000 0.000000e+000 -1.000000e+000
      outer loop
         vertex 9.974829e+001 1.558872e+002 0.000000e+000
         vertex 9.988050e+001 1.557662e+002 0.000000e+000
         vertex 9.988050e+001 1.528925e+002 0.000000e+000
      endloop
   endfacet
   facet normal 0.000000e+000 0.000000e+000 -1.000000e+000
      outer loop
         vertex 9.988050e+001 1.528925e+002 0.000000e+000
         vertex 9.700682e+001 1.528925e+002 0.000000e+000
         vertex 9.688580e+001 1.530247e+002 0.000000e+000
      endloop
   endfacet
   facet normal 0.000000e+000 0.000000e+000 -1.000000e+000
      outer loop
         vertex 9.688580e+001 1.556340e+002 0.000000e+000
         vertex 9.700682e+001 1.557662e+002 0.000000e+000
         vertex 9.988050e+001 1.528925e+002 0.000000e+000
      endloop
   endfacet
   facet normal 0.000000e+000 0.000000e+000 -1.000000e+000
      outer loop
         vertex 9.988050e+001 1.528925e+002 0.000000e+000
         vertex 9.700682e+001 1.557662e+002 0.000000e+000
         vertex 9.713902e+001 1.558872e+002 0.000000e+000
      endloop
   endfacet
   facet normal 0.000000e+000 0.000000e+000 -1.000000e+000
      outer loop
         vertex 9.717719e+001 1.527495e+002 0.000000e+000
         vertex 9.713902e+001 1.527715e+002 0.000000e+000
         vertex 9.722057e+001 1.527419e+002 0.000000e+000
      endloop
   endfacet
   facet normal 0.000000e+000 0.000000e+000 -1.000000e+000
      outer loop
         vertex 9.722057e+001 1.527419e+002 0.000000e+000
         vertex 9.713902e+001 1.527715e+002 0.000000e+000
         vertex 9.700682e+001 1.528925e+002 0.000000e+000
      endloop
   endfacet
   facet normal 0.000000e+000 0.000000e+000 -1.000000e+000
      outer loop
         vertex 9.722057e+001 1.527419e+002 0.000000e+000
         vertex 9.700682e+001 1.528925e+002 0.000000e+000
         vertex 9.966676e+001 1.527419e+002 0.000000e+000
      endloop
   endfacet
   facet normal 0.000000e+000 0.000000e+000 -1.000000e+000
      outer loop
         vertex 9.966676e+001 1.527419e+002 0.000000e+000
         vertex 9.700682e+001 1.528925e+002 0.000000e+000
         vertex 9.988050e+001 1.528925e+002 0.000000e+000
      endloop
   endfacet
   facet normal 0.000000e+000 0.000000e+000 -1.000000e+000
      outer loop
         vertex 9.966676e+001 1.527419e+002 0.000000e+000
         vertex 9.988050e+001 1.528925e+002 0.000000e+000
         vertex 9.971014e+001 1.527495e+002 0.000000e+000
      endloop
   endfacet
   facet normal 0.000000e+000 0.000000e+000 -1.000000e+000
      outer loop
         vertex 9.971014e+001 1.527495e+002 0.000000e+000
         vertex 9.988050e+001 1.528925e+002 0.000000e+000
         vertex 9.974829e+001 1.527715e+002 0.000000e+000
      endloop
   endfacet
   facet normal 0.000000e+000 0.000000e+000 -1.000000e+000
      outer loop
         vertex 9.686380e+001 1.555958e+002 0.000000e+000
         vertex 9.688580e+001 1.556340e+002 0.000000e+000
         vertex 9.685616e+001 1.555525e+002 0.000000e+000
      endloop
   endfacet
   facet normal 0.000000e+000 0.000000e+000 -1.000000e+000
      outer loop
         vertex 9.685616e+001 1.555525e+002 0.000000e+000
         vertex 9.688580e+001 1.556340e+002 0.000000e+000
         vertex 9.988050e+001 1.528925e+002 0.000000e+000
      endloop
   endfacet
   facet normal 0.000000e+000 0.000000e+000 -1.000000e+000
      outer loop
         vertex 9.685616e+001 1.555525e+002 0.000000e+000
         vertex 9.988050e+001 1.528925e+002 0.000000e+000
         vertex 9.685616e+001 1.531063e+002 0.000000e+000
      endloop
   endfacet
   facet normal 0.000000e+000 0.000000e+000 -1.000000e+000
      outer loop
         vertex 9.685616e+001 1.531063e+002 0.000000e+000
         vertex 9.988050e+001 1.528925e+002 0.000000e+000
         vertex 9.688580e+001 1.530247e+002 0.000000e+000
      endloop
   endfacet
   facet normal 0.000000e+000 0.000000e+000 -1.000000e+000
      outer loop
         vertex 9.685616e+001 1.531063e+002 0.000000e+000
         vertex 9.688580e+001 1.530247e+002 0.000000e+000
         vertex 9.686380e+001 1.530629e+002 0.000000e+000
      endloop
   endfacet
   facet normal 0.000000e+000 0.000000e+000 -1.000000e+000
      outer loop
         vertex 9.971014e+001 1.559092e+002 0.000000e+000
         vertex 9.974829e+001 1.558872e+002 0.000000e+000
         vertex 9.966676e+001 1.559169e+002 0.000000e+000
      endloop
   endfacet
   facet normal 0.000000e+000 0.000000e+000 -1.000000e+000
      outer loop
         vertex 9.966676e+001 1.559169e+002 0.000000e+000
         vertex 9.974829e+001 1.558872e+002 0.000000e+000
         vertex 9.988050e+001 1.528925e+002 0.000000e+000
      endloop
   endfacet
   facet normal 0.000000e+000 0.000000e+000 -1.000000e+000
      outer loop
         vertex 9.966676e+001 1.559169e+002 0.000000e+000
         vertex 9.988050e+001 1.528925e+002 0.000000e+000
         vertex 9.722057e+001 1.559169e+002 0.000000e+000
      endloop
   endfacet
   facet normal 0.000000e+000 0.000000e+000 -1.000000e+000
      outer loop
         vertex 9.722057e+001 1.559169e+002 0.000000e+000
         vertex 9.988050e+001 1.528925e+002 0.000000e+000
         vertex 9.713902e+001 1.558872e+002 0.000000e+000
      endloop
   endfacet
   facet normal 0.000000e+000 0.000000e+000 -1.000000e+000
      outer loop
         vertex 9.722057e+001 1.559169e+002 0.000000e+000
         vertex 9.713902e+001 1.558872e+002 0.000000e+000
         vertex 9.717719e+001 1.559092e+002 0.000000e+000
      endloop
   endfacet
   facet normal 0.000000e+000 0.000000e+000 -1.000000e+000
      outer loop
         vertex 1.000235e+002 1.530629e+002 0.000000e+000
         vertex 1.000015e+002 1.530247e+002 0.000000e+000
         vertex 1.000312e+002 1.531063e+002 0.000000e+000
      endloop
   endfacet
   facet normal 0.000000e+000 0.000000e+000 -1.000000e+000
      outer loop
         vertex 1.000312e+002 1.531063e+002 0.000000e+000
         vertex 1.000015e+002 1.530247e+002 0.000000e+000
         vertex 9.988050e+001 1.528925e+002 0.000000e+000
      endloop
   endfacet
   facet normal 0.000000e+000 0.000000e+000 -1.000000e+000
      outer loop
         vertex 1.000312e+002 1.531063e+002 0.000000e+000
         vertex 9.988050e+001 1.528925e+002 0.000000e+000
         vertex 1.000312e+002 1.555525e+002 0.000000e+000
      endloop
   endfacet
   facet normal 0.000000e+000 0.000000e+000 -1.000000e+000
      outer loop
         vertex 1.000312e+002 1.555525e+002 0.000000e+000
         vertex 9.988050e+001 1.528925e+002 0.000000e+000
         vertex 9.988050e+001 1.557662e+002 0.000000e+000
      endloop
   endfacet
   facet normal 0.000000e+000 0.000000e+000 -1.000000e+000
      outer loop
         vertex 1.000312e+002 1.555525e+002 0.000000e+000
         vertex 9.988050e+001 1.557662e+002 0.000000e+000
         vertex 1.000235e+002 1.555958e+002 0.000000e+000
      endloop
   endfacet
   facet normal 0.000000e+000 0.000000e+000 -1.000000e+000
      outer loop
         vertex 1.000235e+002 1.555958e+002 0.000000e+000
         vertex 9.988050e+001 1.557662e+002 0.000000e+000
         vertex 1.000015e+002 1.556340e+002 0.000000e+000
      endloop
   endfacet
   facet normal 9.933182e-001 -1.154079e-001 0.000000e+000
      outer loop
         vertex 1.000312e+002 1.531063e+002 0.000000e+000
         vertex 1.000312e+002 1.531063e+002 3.048000e+002
         vertex 1.000235e+002 1.530629e+002 3.048000e+002
      endloop
   endfacet
   facet normal 9.729975e-001 -2.308157e-001 0.000000e+000
      outer loop
         vertex 1.000312e+002 1.531063e+002 0.000000e+000
         vertex 1.000235e+002 1.530629e+002 3.048000e+002
         vertex 1.000235e+002 1.530629e+002 0.000000e+000
      endloop
   endfacet
   facet normal 8.941589e-001 -4.477498e-001 0.000000e+000
      outer loop
         vertex 1.000235e+002 1.530629e+002 0.000000e+000
         vertex 1.000235e+002 1.530629e+002 3.048000e+002
         vertex 1.000015e+002 1.530247e+002 3.048000e+002
      endloop
   endfacet
   facet normal 8.356410e-001 -5.492759e-001 0.000000e+000
      outer loop
         vertex 1.000235e+002 1.530629e+002 0.000000e+000
         vertex 1.000015e+002 1.530247e+002 3.048000e+002
         vertex 1.000015e+002 1.530247e+002 0.000000e+000
      endloop
   endfacet
   facet normal 1.000000e+000 0.000000e+000 0.000000e+000
      outer loop
         vertex 1.000312e+002 1.555525e+002 3.048000e+002
         vertex 1.000312e+002 1.531063e+002 3.048000e+002
         vertex 1.000312e+002 1.555525e+002 0.000000e+000
      endloop
   endfacet
   facet normal 1.000000e+000 0.000000e+000 0.000000e+000
      outer loop
         vertex 1.000312e+002 1.555525e+002 0.000000e+000
         vertex 1.000312e+002 1.531063e+002 3.048000e+002
         vertex 1.000312e+002 1.531063e+002 0.000000e+000
      endloop
   endfacet
endsolid