solid vex_gusset
   facet normal 0.000000e+000 -1.000000e+000 0.000000e+000
      outer loop
         vertex 3.175102e+000 1.046660e+001 1.030776e-004
         vertex 3.238511e+001 1.046660e+001 1.030776e-004
         vertex 3.175102e+000 1.046660e+001 8.129031e-001
      endloop
   endfacet
   facet normal 0.000000e+000 -1.000000e+000 0.000000e+000
      outer loop
         vertex 3.175102e+000 1.046660e+001 8.129031e-001
         vertex 3.238511e+001 1.046660e+001 1.030776e-004
         vertex 3.238511e+001 1.046660e+001 8.129031e-001
      endloop
   endfacet
   facet normal 7.071068e-001 -7.071068e-001 0.000000e+000
      outer loop
         vertex 3.238511e+001 1.046660e+001 1.030776e-004
         vertex 3.556010e+001 1.364160e+001 1.030776e-004
         vertex 3.238511e+001 1.046660e+001 8.129031e-001
      endloop
   endfacet
   facet normal 7.071068e-001 -7.071068e-001 0.000000e+000
      outer loop
         vertex 3.238511e+001 1.046660e+001 8.129031e-001
         vertex 3.556010e+001 1.364160e+001 1.030776e-004
         vertex 3.556010e+001 1.364160e+001 8.129031e-001
      endloop
   endfacet
   facet normal -7.071068e-001 -7.071068e-001 0.000000e+000
      outer loop
         vertex 1.043081e-004 1.364160e+001 1.030776e-004
         vertex 3.175102e+000 1.046660e+001 1.030776e-004
         vertex 1.043081e-004 1.364160e+001 8.129031e-001
      endloop
   endfacet
   facet normal -7.071068e-001 -7.071068e-001 0.000000e+000
      outer loop
         vertex 1.043081e-004 1.364160e+001 8.129031e-001
         vertex 3.175102e+000 1.046660e+001 1.030776e-004
         vertex 3.175102e+000 1.046660e+001 8.129031e-001
      endloop
   endfacet
   facet normal 9.851211e-001 -1.718619e-001 0.000000e+000
      outer loop
         vertex 2.768703e+000 1.798500e+001 8.129031e-001
         vertex 2.768703e+000 1.798500e+001 1.030776e-004
         vertex 2.836764e+000 1.823900e+001 1.030776e-004
      endloop
   endfacet
   facet normal 9.390708e-001 -3.437238e-001 0.000000e+000
      outer loop
         vertex 2.768703e+000 1.798500e+001 8.129031e-001
         vertex 2.836764e+000 1.823900e+001 1.030776e-004
         vertex 2.836764e+000 1.823900e+001 8.129031e-001
      endloop
   endfacet
   facet normal 7.672089e-001 -6.413973e-001 0.000000e+000
      outer loop
         vertex 2.836764e+000 1.823900e+001 8.129031e-001
         vertex 2.836764e+000 1.823900e+001 1.030776e-004
         vertex 3.022704e+000 1.842494e+001 1.030776e-004
      endloop
   endfacet
   facet normal 6.413973e-001 -7.672089e-001 0.000000e+000
      outer loop
         vertex 2.836764e+000 1.823900e+001 8.129031e-001
         vertex 3.022704e+000 1.842494e+001 1.030776e-004
         vertex 3.022704e+000 1.842494e+001 8.129031e-001
      endloop
   endfacet
   facet normal 3.437238e-001 -9.390708e-001 0.000000e+000
      outer loop
         vertex 3.022704e+000 1.842494e+001 8.129031e-001
         vertex 3.022704e+000 1.842494e+001 1.030776e-004
         vertex 3.276702e+000 1.849300e+001 1.030776e-004
      endloop
   endfacet
   facet normal 1.718619e-001 -9.851211e-001 0.000000e+000
      outer loop
         vertex 3.022704e+000 1.842494e+001 8.129031e-001
         vertex 3.276702e+000 1.849300e+001 1.030776e-004
         vertex 3.276702e+000 1.849300e+001 8.129031e-001
      endloop
   endfacet
   facet normal 0.000000e+000 -1.000000e+000 0.000000e+000
      outer loop
         vertex 3.276702e+000 1.849300e+001 8.129031e-001
         vertex 3.276702e+000 1.849300e+001 1.030776e-004
         vertex 3.228350e+001 1.849300e+001 8.129031e-001
      endloop
   endfacet
   facet normal 0.000000e+000 -1.000000e+000 0.000000e+000
      outer loop
         vertex 3.228350e+001 1.849300e+001 8.129031e-001
         vertex 3.276702e+000 1.849300e+001 1.030776e-004
         vertex 3.228350e+001 1.849300e+001 1.030776e-004
      endloop
   endfacet
   facet normal -1.718619e-001 -9.851211e-001 0.000000e+000
      outer loop
         vertex 3.228350e+001 1.849300e+001 8.129031e-001
         vertex 3.228350e+001 1.849300e+001 1.030776e-004
         vertex 3.253751e+001 1.842494e+001 1.030776e-004
      endloop
   endfacet
   facet normal -3.437238e-001 -9.390708e-001 0.000000e+000
      outer loop
         vertex 3.228350e+001 1.849300e+001 8.129031e-001
         vertex 3.253751e+001 1.842494e+001 1.030776e-004
         vertex 3.253751e+001 1.842494e+001 8.129031e-001
      endloop
   endfacet
   facet normal -6.413973e-001 -7.672089e-001 0.000000e+000
      outer loop
         vertex 3.253751e+001 1.842494e+001 8.129031e-001
         vertex 3.253751e+001 1.842494e+001 1.030776e-004
         vertex 3.272344e+001 1.823900e+001 1.030776e-004
      endloop
   endfacet
   facet normal -7.672089e-001 -6.413973e-001 0.000000e+000
      outer loop
         vertex 3.253751e+001 1.842494e+001 8.129031e-001
         vertex 3.272344e+001 1.823900e+001 1.030776e-004
         vertex 3.272344e+001 1.823900e+001 8.129031e-001
      endloop
   endfacet
   facet normal -9.390708e-001 -3.437238e-001 0.000000e+000
      outer loop
         vertex 3.272344e+001 1.823900e+001 8.129031e-001
         vertex 3.272344e+001 1.823900e+001 1.030776e-004
         vertex 3.279150e+001 1.798500e+001 1.030776e-004
      endloop
   endfacet
   facet normal -9.851211e-001 -1.718619e-001 0.000000e+000
      outer loop
         vertex 3.272344e+001 1.823900e+001 8.129031e-001
         vertex 3.279150e+001 1.798500e+001 1.030776e-004
         vertex 3.279150e+001 1.798500e+001 8.129031e-001
      endloop
   endfacet
   facet normal -1.000000e+000 0.000000e+000 0.000000e+000
      outer loop
         vertex 3.279150e+001 1.437820e+001 8.129031e-001
         vertex 3.279150e+001 1.798500e+001 8.129031e-001
         vertex 3.279150e+001 1.437820e+001 1.030776e-004
      endloop
   endfacet
   facet normal -1.000000e+000 0.000000e+000 0.000000e+000
      outer loop
         vertex 3.279150e+001 1.437820e+001 1.030776e-004
         vertex 3.279150e+001 1.798500e+001 8.129031e-001
         vertex 3.279150e+001 1.798500e+001 1.030776e-004
      endloop
   endfacet
   facet normal -9.851211e-001 1.718619e-001 0.000000e+000
      outer loop
         vertex 3.279150e+001 1.437820e+001 8.129031e-001
         vertex 3.279150e+001 1.437820e+001 1.030776e-004
         vertex 3.272344e+001 1.412420e+001 1.030776e-004
      endloop
   endfacet
   facet normal -9.390708e-001 3.437238e-001 0.000000e+000
      outer loop
         vertex 3.279150e+001 1.437820e+001 8.129031e-001
         vertex 3.272344e+001 1.412420e+001 1.030776e-004
         vertex 3.272344e+001 1.412420e+001 8.129031e-001
      endloop
   endfacet
   facet normal -7.672089e-001 6.413973e-001 0.000000e+000
      outer loop
         vertex 3.272344e+001 1.412420e+001 8.129031e-001
         vertex 3.272344e+001 1.412420e+001 1.030776e-004
         vertex 3.253751e+001 1.393826e+001 1.030776e-004
      endloop
   endfacet
   facet normal -6.413973e-001 7.672089e-001 0.000000e+000
      outer loop
         vertex 3.272344e+001 1.412420e+001 8.129031e-001
         vertex 3.253751e+001 1.393826e+001 1.030776e-004
         vertex 3.253751e+001 1.393826e+001 8.129031e-001
      endloop
   endfacet
   facet normal -3.437238e-001 9.390708e-001 0.000000e+000
      outer loop
         vertex 3.253751e+001 1.393826e+001 8.129031e-001
         vertex 3.253751e+001 1.393826e+001 1.030776e-004
         vertex 3.228350e+001 1.387020e+001 1.030776e-004
      endloop
   endfacet
   facet normal -1.718619e-001 9.851211e-001 0.000000e+000
      outer loop
         vertex 3.253751e+001 1.393826e+001 8.129031e-001
         vertex 3.228350e+001 1.387020e+001 1.030776e-004
         vertex 3.228350e+001 1.387020e+001 8.129031e-001
      endloop
   endfacet
   facet normal 0.000000e+000 1.000000e+000 0.000000e+000
      outer loop
         vertex 3.276702e+000 1.387020e+001 8.129031e-001
         vertex 3.228350e+001 1.387020e+001 8.129031e-001
         vertex 3.276702e+000 1.387020e+001 1.030776e-004
      endloop
   endfacet
   facet normal 0.000000e+000 1.000000e+000 0.000000e+000
      outer loop
         vertex 3.276702e+000 1.387020e+001 1.030776e-004
         vertex 3.228350e+001 1.387020e+001 8.129031e-001
         vertex 3.228350e+001 1.387020e+001 1.030776e-004
      endloop
   endfacet
   facet normal 1.718619e-001 9.851211e-001 0.000000e+000
      outer loop
         vertex 3.276702e+000 1.387020e+001 8.129031e-001
         vertex 3.276702e+000 1.387020e+001 1.030776e-004
         vertex 3.022704e+000 1.393826e+001 1.030776e-004
      endloop
   endfacet
   facet normal 3.437238e-001 9.390708e-001 0.000000e+000
      outer loop
         vertex 3.276702e+000 1.387020e+001 8.129031e-001
         vertex 3.022704e+000 1.393826e+001 1.030776e-004
         vertex 3.022704e+000 1.393826e+001 8.129031e-001
      endloop
   endfacet
   facet normal 6.413973e-001 7.672089e-001 0.000000e+000
      outer loop
         vertex 3.022704e+000 1.393826e+001 8.129031e-001
         vertex 3.022704e+000 1.393826e+001 1.030776e-004
         vertex 2.836764e+000 1.412420e+001 1.030776e-004
      endloop
   endfacet
   facet normal 7.672089e-001 6.413973e-001 0.000000e+000
      outer loop
         vertex 3.022704e+000 1.393826e+001 8.129031e-001
         vertex 2.836764e+000 1.412420e+001 1.030776e-004
         vertex 2.836764e+000 1.412420e+001 8.129031e-001
      endloop
   endfacet
   facet normal 9.390708e-001 3.437238e-001 0.000000e+000
      outer loop
         vertex 2.836764e+000 1.412420e+001 8.129031e-001
         vertex 2.836764e+000 1.412420e+001 1.030776e-004
         vertex 2.768703e+000 1.437820e+001 1.030776e-004
      endloop
   endfacet
   facet normal 9.851211e-001 1.718619e-001 0.000000e+000
      outer loop
         vertex 2.836764e+000 1.412420e+001 8.129031e-001
         vertex 2.768703e+000 1.437820e+001 1.030776e-004
         vertex 2.768703e+000 1.437820e+001 8.129031e-001
      endloop
   endfacet
   facet normal 1.000000e+000 0.000000e+000 0.000000e+000
      outer loop
         vertex 2.768703e+000 1.798500e+001 8.129031e-001
         vertex 2.768703e+000 1.437820e+001 8.129031e-001
         vertex 2.768703e+000 1.798500e+001 1.030776e-004
      endloop
   endfacet
   facet normal 1.000000e+000 0.000000e+000 0.000000e+000
      outer loop
         vertex 2.768703e+000 1.798500e+001 1.030776e-004
         vertex 2.768703e+000 1.437820e+001 8.129031e-001
         vertex 2.768703e+000 1.437820e+001 1.030776e-004
      endloop
   endfacet
   facet normal 1.362893e-017 -1.718619e-001 9.851210e-001
      outer loop
         vertex 1.043081e-004 2.159180e+001 8.129031e-001
         vertex 3.556010e+001 2.159180e+001 8.129031e-001
         vertex 3.556010e+001 2.197280e+001 9.149917e-001
      endloop
   endfacet
   facet normal 2.725786e-017 -3.437238e-001 9.390708e-001
      outer loop
         vertex 1.043081e-004 2.159180e+001 8.129031e-001
         vertex 3.556010e+001 2.197280e+001 9.149917e-001
         vertex 1.043081e-004 2.197280e+001 9.149917e-001
      endloop
   endfacet
   facet normal 5.086386e-017 -6.413973e-001 7.672089e-001
      outer loop
         vertex 1.043081e-004 2.197280e+001 9.149917e-001
         vertex 3.556010e+001 2.197280e+001 9.149917e-001
         vertex 3.556010e+001 2.225171e+001 1.193903e+000
      endloop
   endfacet
   facet normal 6.084092e-017 -7.672089e-001 6.413973e-001
      outer loop
         vertex 1.043081e-004 2.197280e+001 9.149917e-001
         vertex 3.556010e+001 2.225171e+001 1.193903e+000
         vertex 1.043081e-004 2.225171e+001 1.193903e+000
      endloop
   endfacet
   facet normal 4.721200e-017 -9.390708e-001 3.437238e-001
      outer loop
         vertex 1.043081e-004 2.225171e+001 1.193903e+000
         vertex 3.556010e+001 2.225171e+001 1.193903e+000
         vertex 3.556010e+001 2.235380e+001 1.574903e+000
      endloop
   endfacet
   facet normal 5.086386e-017 -9.851211e-001 1.718619e-001
      outer loop
         vertex 1.043081e-004 2.225171e+001 1.193903e+000
         vertex 3.556010e+001 2.235380e+001 1.574903e+000
         vertex 1.043081e-004 2.235380e+001 1.574903e+000
      endloop
   endfacet
   facet normal 0.000000e+000 0.000000e+000 1.000000e+000
      outer loop
         vertex 3.238511e+001 1.046660e+001 8.129031e-001
         vertex 3.556010e+001 1.364160e+001 8.129031e-001
         vertex 3.272344e+001 1.412420e+001 8.129031e-001
      endloop
   endfacet
   facet normal 0.000000e+000 0.000000e+000 1.000000e+000
      outer loop
         vertex 1.043081e-004 1.364160e+001 8.129031e-001
         vertex 3.175102e+000 1.046660e+001 8.129031e-001
         vertex 3.022704e+000 1.393826e+001 8.129031e-001
      endloop
   endfacet
   facet normal 0.000000e+000 0.000000e+000 1.000000e+000
      outer loop
         vertex 3.253751e+001 1.842494e+001 8.129031e-001
         vertex 3.272344e+001 1.823900e+001 8.129031e-001
         vertex 3.556010e+001 2.159180e+001 8.129031e-001
      endloop
   endfacet
   facet normal 0.000000e+000 0.000000e+000 1.000000e+000
      outer loop
         vertex 3.556010e+001 2.159180e+001 8.129031e-001
         vertex 3.272344e+001 1.823900e+001 8.129031e-001
         vertex 3.279150e+001 1.798500e+001 8.129031e-001
      endloop
   endfacet
   facet normal 0.000000e+000 0.000000e+000 1.000000e+000
      outer loop
         vertex 3.556010e+001 2.159180e+001 8.129031e-001
         vertex 3.279150e+001 1.798500e+001 8.129031e-001
         vertex 3.556010e+001 1.364160e+001 8.129031e-001
      endloop
   endfacet
   facet normal 0.000000e+000 0.000000e+000 1.000000e+000
      outer loop
         vertex 3.556010e+001 1.364160e+001 8.129031e-001
         vertex 3.279150e+001 1.798500e+001 8.129031e-001
         vertex 3.279150e+001 1.437820e+001 8.129031e-001
      endloop
   endfacet
   facet normal 0.000000e+000 0.000000e+000 1.000000e+000
      outer loop
         vertex 3.556010e+001 1.364160e+001 8.129031e-001
         vertex 3.279150e+001 1.437820e+001 8.129031e-001
         vertex 3.272344e+001 1.412420e+001 8.129031e-001
      endloop
   endfacet
   facet normal 0.000000e+000 0.000000e+000 1.000000e+000
      outer loop
         vertex 3.272344e+001 1.412420e+001 8.129031e-001
         vertex 3.253751e+001 1.393826e+001 8.129031e-001
         vertex 3.238511e+001 1.046660e+001 8.129031e-001
      endloop
   endfacet
   facet normal 0.000000e+000 0.000000e+000 1.000000e+000
      outer loop
         vertex 3.238511e+001 1.046660e+001 8.129031e-001
         vertex 3.253751e+001 1.393826e+001 8.129031e-001
         vertex 3.228350e+001 1.387020e+001 8.129031e-001
      endloop
   endfacet
   facet normal 0.000000e+000 0.000000e+000 1.000000e+000
      outer loop
         vertex 3.238511e+001 1.046660e+001 8.129031e-001
         vertex 3.228350e+001 1.387020e+001 8.129031e-001
         vertex 3.175102e+000 1.046660e+001 8.129031e-001
      endloop
   endfacet
   facet normal 0.000000e+000 0.000000e+000 1.000000e+000
      outer loop
         vertex 3.175102e+000 1.046660e+001 8.129031e-001
         vertex 3.228350e+001 1.387020e+001 8.129031e-001
         vertex 3.276702e+000 1.387020e+001 8.129031e-001
      endloop
   endfacet
   facet normal 0.000000e+000 0.000000e+000 1.000000e+000
      outer loop
         vertex 3.175102e+000 1.046660e+001 8.129031e-001
         vertex 3.276702e+000 1.387020e+001 8.129031e-001
         vertex 3.022704e+000 1.393826e+001 8.129031e-001
      endloop
   endfacet
   facet normal 0.000000e+000 0.000000e+000 1.000000e+000
      outer loop
         vertex 3.022704e+000 1.393826e+001 8.129031e-001
         vertex 2.836764e+000 1.412420e+001 8.129031e-001
         vertex 1.043081e-004 1.364160e+001 8.129031e-001
      endloop
   endfacet
   facet normal 0.000000e+000 0.000000e+000 1.000000e+000
      outer loop
         vertex 1.043081e-004 1.364160e+001 8.129031e-001
         vertex 2.836764e+000 1.412420e+001 8.129031e-001
         vertex 2.768703e+000 1.437820e+001 8.129031e-001
      endloop
   endfacet
   facet normal 0.000000e+000 0.000000e+000 1.000000e+000
      outer loop
         vertex 1.043081e-004 1.364160e+001 8.129031e-001
         vertex 2.768703e+000 1.437820e+001 8.129031e-001
         vertex 1.043081e-004 2.159180e+001 8.129031e-001
      endloop
   endfacet
   facet normal 0.000000e+000 0.000000e+000 1.000000e+000
      outer loop
         vertex 1.043081e-004 2.159180e+001 8.129031e-001
         vertex 2.768703e+000 1.437820e+001 8.129031e-001
         vertex 2.768703e+000 1.798500e+001 8.129031e-001
      endloop
   endfacet
   facet normal 0.000000e+000 0.000000e+000 1.000000e+000
      outer loop
         vertex 1.043081e-004 2.159180e+001 8.129031e-001
         vertex 2.768703e+000 1.798500e+001 8.129031e-001
         vertex 2.836764e+000 1.823900e+001 8.129031e-001
      endloop
   endfacet
   facet normal 0.000000e+000 0.000000e+000 1.000000e+000
      outer loop
         vertex 2.836764e+000 1.823900e+001 8.129031e-001
         vertex 3.022704e+000 1.842494e+001 8.129031e-001
         vertex 1.043081e-004 2.159180e+001 8.129031e-001
      endloop
   endfacet
   facet normal 0.000000e+000 0.000000e+000 1.000000e+000
      outer loop
         vertex 1.043081e-004 2.159180e+001 8.129031e-001
         vertex 3.022704e+000 1.842494e+001 8.129031e-001
         vertex 3.276702e+000 1.849300e+001 8.129031e-001
      endloop
   endfacet
   facet normal 0.000000e+000 0.000000e+000 1.000000e+000
      outer loop
         vertex 1.043081e-004 2.159180e+001 8.129031e-001
         vertex 3.276702e+000 1.849300e+001 8.129031e-001
         vertex 3.556010e+001 2.159180e+001 8.129031e-001
      endloop
   endfacet
   facet normal 0.000000e+000 0.000000e+000 1.000000e+000
      outer loop
         vertex 3.556010e+001 2.159180e+001 8.129031e-001
         vertex 3.276702e+000 1.849300e+001 8.129031e-001
         vertex 3.228350e+001 1.849300e+001 8.129031e-001
      endloop
   endfacet
   facet normal 0.000000e+000 0.000000e+000 1.000000e+000
      outer loop
         vertex 3.556010e+001 2.159180e+001 8.129031e-001
         vertex 3.228350e+001 1.849300e+001 8.129031e-001
         vertex 3.253751e+001 1.842494e+001 8.129031e-001
      endloop
   endfacet
   facet normal 0.000000e+000 0.000000e+000 -1.000000e+000
      outer loop
         vertex 3.175102e+000 1.046660e+001 1.030776e-004
         vertex 1.043081e-004 1.364160e+001 1.030776e-004
         vertex 2.836764e+000 1.412420e+001 1.030776e-004
      endloop
   endfacet
   facet normal 0.000000e+000 0.000000e+000 -1.000000e+000
      outer loop
         vertex 3.556010e+001 1.364160e+001 1.030776e-004
         vertex 3.238511e+001 1.046660e+001 1.030776e-004
         vertex 3.253751e+001 1.393826e+001 1.030776e-004
      endloop
   endfacet
   facet normal 0.000000e+000 0.000000e+000 -1.000000e+000
      outer loop
         vertex 3.022704e+000 1.842494e+001 1.030776e-004
         vertex 2.836764e+000 1.823900e+001 1.030776e-004
         vertex 1.043081e-004 2.159180e+001 1.030776e-004
      endloop
   endfacet
   facet normal 0.000000e+000 0.000000e+000 -1.000000e+000
      outer loop
         vertex 1.043081e-004 2.159180e+001 1.030776e-004
         vertex 2.836764e+000 1.823900e+001 1.030776e-004
         vertex 2.768703e+000 1.798500e+001 1.030776e-004
      endloop
   endfacet
   facet normal 0.000000e+000 0.000000e+000 -1.000000e+000
      outer loop
         vertex 1.043081e-004 2.159180e+001 1.030776e-004
         vertex 2.768703e+000 1.798500e+001 1.030776e-004
         vertex 1.043081e-004 1.364160e+001 1.030776e-004
      endloop
   endfacet
   facet normal 0.000000e+000 0.000000e+000 -1.000000e+000
      outer loop
         vertex 1.043081e-004 1.364160e+001 1.030776e-004
         vertex 2.768703e+000 1.798500e+001 1.030776e-004
         vertex 2.768703e+000 1.437820e+001 1.030776e-004
      endloop
   endfacet
   facet normal 0.000000e+000 0.000000e+000 -1.000000e+000
      outer loop
         vertex 1.043081e-004 1.364160e+001 1.030776e-004
         vertex 2.768703e+000 1.437820e+001 1.030776e-004
         vertex 2.836764e+000 1.412420e+001 1.030776e-004
      endloop
   endfacet
   facet normal 0.000000e+000 0.000000e+000 -1.000000e+000
      outer loop
         vertex 2.836764e+000 1.412420e+001 1.030776e-004
         vertex 3.022704e+000 1.393826e+001 1.030776e-004
         vertex 3.175102e+000 1.046660e+001 1.030776e-004
      endloop
   endfacet
   facet normal 0.000000e+000 0.000000e+000 -1.000000e+000
      outer loop
         vertex 3.175102e+000 1.046660e+001 1.030776e-004
         vertex 3.022704e+000 1.393826e+001 1.030776e-004
         vertex 3.276702e+000 1.387020e+001 1.030776e-004
      endloop
   endfacet
   facet normal 0.000000e+000 0.000000e+000 -1.000000e+000
      outer loop
         vertex 3.175102e+000 1.046660e+001 1.030776e-004
         vertex 3.276702e+000 1.387020e+001 1.030776e-004
         vertex 3.238511e+001 1.046660e+001 1.030776e-004
      endloop
   endfacet
   facet normal 0.000000e+000 0.000000e+000 -1.000000e+000
      outer loop
         vertex 3.238511e+001 1.046660e+001 1.030776e-004
         vertex 3.276702e+000 1.387020e+001 1.030776e-004
         vertex 3.228350e+001 1.387020e+001 1.030776e-004
      endloop
   endfacet
   facet normal 0.000000e+000 0.000000e+000 -1.000000e+000
      outer loop
         vertex 3.238511e+001 1.046660e+001 1.030776e-004
         vertex 3.228350e+001 1.387020e+001 1.030776e-004
         vertex 3.253751e+001 1.393826e+001 1.030776e-004
      endloop
   endfacet
   facet normal 0.000000e+000 0.000000e+000 -1.000000e+000
      outer loop
         vertex 3.253751e+001 1.393826e+001 1.030776e-004
         vertex 3.272344e+001 1.412420e+001 1.030776e-004
         vertex 3.556010e+001 1.364160e+001 1.030776e-004
      endloop
   endfacet
   facet normal 0.000000e+000 0.000000e+000 -1.000000e+000
      outer loop
         vertex 3.556010e+001 1.364160e+001 1.030776e-004
         vertex 3.272344e+001 1.412420e+001 1.030776e-004
         vertex 3.279150e+001 1.437820e+001 1.030776e-004
      endloop
   endfacet
   facet normal 0.000000e+000 0.000000e+000 -1.000000e+000
      outer loop
         vertex 3.556010e+001 1.364160e+001 1.030776e-004
         vertex 3.279150e+001 1.437820e+001 1.030776e-004
         vertex 3.556010e+001 2.159180e+001 1.030776e-004
      endloop
   endfacet
   facet normal 0.000000e+000 0.000000e+000 -1.000000e+000
      outer loop
         vertex 3.556010e+001 2.159180e+001 1.030776e-004
         vertex 3.279150e+001 1.437820e+001 1.030776e-004
         vertex 3.279150e+001 1.798500e+001 1.030776e-004
      endloop
   endfacet
   facet normal 0.000000e+000 0.000000e+000 -1.000000e+000
      outer loop
         vertex 3.556010e+001 2.159180e+001 1.030776e-004
         vertex 3.279150e+001 1.798500e+001 1.030776e-004
         vertex 3.272344e+001 1.823900e+001 1.030776e-004
      endloop
   endfacet
   facet normal 0.000000e+000 0.000000e+000 -1.000000e+000
      outer loop
         vertex 3.272344e+001 1.823900e+001 1.030776e-004
         vertex 3.253751e+001 1.842494e+001 1.030776e-004
         vertex 3.556010e+001 2.159180e+001 1.030776e-004
      endloop
   endfacet
   facet normal 0.000000e+000 0.000000e+000 -1.000000e+000
      outer loop
         vertex 3.556010e+001 2.159180e+001 1.030776e-004
         vertex 3.253751e+001 1.842494e+001 1.030776e-004
         vertex 3.228350e+001 1.849300e+001 1.030776e-004
      endloop
   endfacet
   facet normal 0.000000e+000 0.000000e+000 -1.000000e+000
      outer loop
         vertex 3.556010e+001 2.159180e+001 1.030776e-004
         vertex 3.228350e+001 1.849300e+001 1.030776e-004
         vertex 1.043081e-004 2.159180e+001 1.030776e-004
      endloop
   endfacet
   facet normal 0.000000e+000 0.000000e+000 -1.000000e+000
      outer loop
         vertex 1.043081e-004 2.159180e+001 1.030776e-004
         vertex 3.228350e+001 1.849300e+001 1.030776e-004
         vertex 3.276702e+000 1.849300e+001 1.030776e-004
      endloop
   endfacet
   facet normal 0.000000e+000 0.000000e+000 -1.000000e+000
      outer loop
         vertex 1.043081e-004 2.159180e+001 1.030776e-004
         vertex 3.276702e+000 1.849300e+001 1.030776e-004
         vertex 3.022704e+000 1.842494e+001 1.030776e-004
      endloop
   endfacet
   facet normal 0.000000e+000 -1.000000e+000 0.000000e+000
      outer loop
         vertex 1.983750e+001 2.235380e+001 3.471762e+000
         vertex 1.958350e+001 2.235380e+001 3.403703e+000
         vertex 3.556010e+001 2.235380e+001 1.574903e+000
      endloop
   endfacet
   facet normal 0.000000e+000 -1.000000e+000 0.000000e+000
      outer loop
         vertex 3.556010e+001 2.235380e+001 1.574903e+000
         vertex 3.556010e+001 2.235380e+001 6.350103e+000
         vertex 2.667010e+001 2.235380e+001 1.524010e+001
      endloop
   endfacet
   facet normal 0.000000e+000 -1.000000e+000 0.000000e+000
      outer loop
         vertex 1.043081e-004 2.235380e+001 1.574903e+000
         vertex 1.572270e+001 2.235380e+001 3.471762e+000
         vertex 1.553676e+001 2.235380e+001 3.657703e+000
      endloop
   endfacet
   facet normal 0.000000e+000 -1.000000e+000 0.000000e+000
      outer loop
         vertex 3.556010e+001 2.235380e+001 1.574903e+000
         vertex 1.958350e+001 2.235380e+001 3.403703e+000
         vertex 1.043081e-004 2.235380e+001 1.574903e+000
      endloop
   endfacet
   facet normal 0.000000e+000 -1.000000e+000 0.000000e+000
      outer loop
         vertex 1.043081e-004 2.235380e+001 1.574903e+000
         vertex 1.958350e+001 2.235380e+001 3.403703e+000
         vertex 1.597670e+001 2.235380e+001 3.403703e+000
      endloop
   endfacet
   facet normal 0.000000e+000 -1.000000e+000 0.000000e+000
      outer loop
         vertex 1.043081e-004 2.235380e+001 1.574903e+000
         vertex 1.597670e+001 2.235380e+001 3.403703e+000
         vertex 1.572270e+001 2.235380e+001 3.471762e+000
      endloop
   endfacet
   facet normal 0.000000e+000 -1.000000e+000 0.000000e+000
      outer loop
         vertex 1.553676e+001 2.235380e+001 4.079250e+001
         vertex 1.206510e+001 2.235380e+001 4.445010e+001
         vertex 1.546870e+001 2.235380e+001 4.053850e+001
      endloop
   endfacet
   facet normal 0.000000e+000 -1.000000e+000 0.000000e+000
      outer loop
         vertex 1.546870e+001 2.235380e+001 4.053851e+001
         vertex 1.206510e+001 2.235380e+001 4.445010e+001
         vertex 8.890103e+000 2.235380e+001 4.127510e+001
      endloop
   endfacet
   facet normal 0.000000e+000 -1.000000e+000 0.000000e+000
      outer loop
         vertex 1.546870e+001 2.235380e+001 4.053851e+001
         vertex 8.890103e+000 2.235380e+001 4.127510e+001
         vertex 1.546870e+001 2.235380e+001 3.911703e+000
      endloop
   endfacet
   facet normal 0.000000e+000 -1.000000e+000 0.000000e+000
      outer loop
         vertex 1.546870e+001 2.235380e+001 3.911703e+000
         vertex 8.890103e+000 2.235380e+001 4.127510e+001
         vertex 8.890103e+000 2.235380e+001 1.524010e+001
      endloop
   endfacet
   facet normal 0.000000e+000 -1.000000e+000 0.000000e+000
      outer loop
         vertex 1.546870e+001 2.235380e+001 3.911703e+000
         vertex 8.890103e+000 2.235380e+001 1.524010e+001
         vertex 1.553676e+001 2.235380e+001 3.657703e+000
      endloop
   endfacet
   facet normal 0.000000e+000 -1.000000e+000 0.000000e+000
      outer loop
         vertex 1.553676e+001 2.235380e+001 3.657703e+000
         vertex 8.890103e+000 2.235380e+001 1.524010e+001
         vertex 1.043081e-004 2.235380e+001 6.350103e+000
      endloop
   endfacet
   facet normal 0.000000e+000 -1.000000e+000 0.000000e+000
      outer loop
         vertex 1.553676e+001 2.235380e+001 3.657703e+000
         vertex 1.043081e-004 2.235380e+001 6.350103e+000
         vertex 1.043081e-004 2.235380e+001 1.574903e+000
      endloop
   endfacet
   facet normal 0.000000e+000 -1.000000e+000 0.000000e+000
      outer loop
         vertex 1.553676e+001 2.235380e+001 4.079250e+001
         vertex 1.572270e+001 2.235380e+001 4.097845e+001
         vertex 1.206510e+001 2.235380e+001 4.445010e+001
      endloop
   endfacet
   facet normal 0.000000e+000 -1.000000e+000 0.000000e+000
      outer loop
         vertex 1.206510e+001 2.235380e+001 4.445010e+001
         vertex 1.572270e+001 2.235380e+001 4.097845e+001
         vertex 1.597670e+001 2.235380e+001 4.104650e+001
      endloop
   endfacet
   facet normal 0.000000e+000 -1.000000e+000 0.000000e+000
      outer loop
         vertex 1.206510e+001 2.235380e+001 4.445010e+001
         vertex 1.597670e+001 2.235380e+001 4.104650e+001
         vertex 2.349510e+001 2.235380e+001 4.445010e+001
      endloop
   endfacet
   facet normal 0.000000e+000 -1.000000e+000 0.000000e+000
      outer loop
         vertex 2.349510e+001 2.235380e+001 4.445010e+001
         vertex 1.597670e+001 2.235380e+001 4.104650e+001
         vertex 1.958350e+001 2.235380e+001 4.104650e+001
      endloop
   endfacet
   facet normal 0.000000e+000 -1.000000e+000 0.000000e+000
      outer loop
         vertex 1.958350e+001 2.235380e+001 4.104650e+001
         vertex 1.983750e+001 2.235380e+001 4.097845e+001
         vertex 2.349510e+001 2.235380e+001 4.445010e+001
      endloop
   endfacet
   facet normal 0.000000e+000 -1.000000e+000 0.000000e+000
      outer loop
         vertex 2.349510e+001 2.235380e+001 4.445010e+001
         vertex 1.983750e+001 2.235380e+001 4.097845e+001
         vertex 2.002344e+001 2.235380e+001 4.079250e+001
      endloop
   endfacet
   facet normal 0.000000e+000 -1.000000e+000 0.000000e+000
      outer loop
         vertex 2.349510e+001 2.235380e+001 4.445010e+001
         vertex 2.002344e+001 2.235380e+001 4.079250e+001
         vertex 2.667010e+001 2.235380e+001 4.127510e+001
      endloop
   endfacet
   facet normal 0.000000e+000 -1.000000e+000 0.000000e+000
      outer loop
         vertex 2.667010e+001 2.235380e+001 4.127510e+001
         vertex 2.002344e+001 2.235380e+001 4.079250e+001
         vertex 2.009150e+001 2.235380e+001 4.053850e+001
      endloop
   endfacet
   facet normal 0.000000e+000 -1.000000e+000 0.000000e+000
      outer loop
         vertex 2.667010e+001 2.235380e+001 4.127510e+001
         vertex 2.009150e+001 2.235380e+001 4.053851e+001
         vertex 2.667010e+001 2.235380e+001 1.524010e+001
      endloop
   endfacet
   facet normal 0.000000e+000 -1.000000e+000 0.000000e+000
      outer loop
         vertex 2.667010e+001 2.235380e+001 1.524010e+001
         vertex 2.009150e+001 2.235380e+001 4.053851e+001
         vertex 2.009150e+001 2.235380e+001 3.911703e+000
      endloop
   endfacet
   facet normal 0.000000e+000 -1.000000e+000 0.000000e+000
      outer loop
         vertex 2.667010e+001 2.235380e+001 1.524010e+001
         vertex 2.009150e+001 2.235380e+001 3.911703e+000
         vertex 3.556010e+001 2.235380e+001 1.574903e+000
      endloop
   endfacet
   facet normal 0.000000e+000 -1.000000e+000 0.000000e+000
      outer loop
         vertex 3.556010e+001 2.235380e+001 1.574903e+000
         vertex 2.009150e+001 2.235380e+001 3.911703e+000
         vertex 2.002344e+001 2.235380e+001 3.657703e+000
      endloop
   endfacet
   facet normal 0.000000e+000 -1.000000e+000 0.000000e+000
      outer loop
         vertex 3.556010e+001 2.235380e+001 1.574903e+000
         vertex 2.002344e+001 2.235380e+001 3.657703e+000
         vertex 1.983750e+001 2.235380e+001 3.471762e+000
      endloop
   endfacet
   facet normal 1.000000e+000 0.000000e+000 0.000000e+000
      outer loop
         vertex 2.667010e+001 2.316660e+001 1.524010e+001
         vertex 2.667010e+001 2.316660e+001 4.127510e+001
         vertex 2.667010e+001 2.235380e+001 1.524010e+001
      endloop
   endfacet
   facet normal 1.000000e+000 0.000000e+000 0.000000e+000
      outer loop
         vertex 2.667010e+001 2.235380e+001 1.524010e+001
         vertex 2.667010e+001 2.316660e+001 4.127510e+001
         vertex 2.667010e+001 2.235380e+001 4.127510e+001
      endloop
   endfacet
   facet normal 7.071068e-001 0.000000e+000 7.071068e-001
      outer loop
         vertex 3.556010e+001 2.235380e+001 6.350103e+000
         vertex 3.556010e+001 2.316660e+001 6.350103e+000
         vertex 2.667010e+001 2.235380e+001 1.524010e+001
      endloop
   endfacet
   facet normal 7.071068e-001 0.000000e+000 7.071068e-001
      outer loop
         vertex 2.667010e+001 2.235380e+001 1.524010e+001
         vertex 3.556010e+001 2.316660e+001 6.350103e+000
         vertex 2.667010e+001 2.316660e+001 1.524010e+001
      endloop
   endfacet
   facet normal 1.000000e+000 0.000000e+000 0.000000e+000
      outer loop
         vertex 3.556010e+001 1.364160e+001 8.129031e-001
         vertex 3.556010e+001 1.364160e+001 1.030776e-004
         vertex 3.556010e+001 2.159180e+001 8.129031e-001
      endloop
   endfacet
   facet normal 1.000000e+000 0.000000e+000 0.000000e+000
      outer loop
         vertex 3.556010e+001 2.159180e+001 8.129031e-001
         vertex 3.556010e+001 1.364160e+001 1.030776e-004
         vertex 3.556010e+001 2.159180e+001 1.030776e-004
      endloop
   endfacet
   facet normal 1.000000e+000 0.000000e+000 0.000000e+000
      outer loop
         vertex 3.556010e+001 2.159180e+001 8.129031e-001
         vertex 3.556010e+001 2.159180e+001 1.030776e-004
         vertex 3.556010e+001 2.197280e+001 9.149917e-001
      endloop
   endfacet
   facet normal 1.000000e+000 0.000000e+000 0.000000e+000
      outer loop
         vertex 3.556010e+001 2.197280e+001 9.149917e-001
         vertex 3.556010e+001 2.159180e+001 1.030776e-004
         vertex 3.556010e+001 2.237920e+001 2.110863e-001
      endloop
   endfacet
   facet normal 1.000000e+000 0.000000e+000 0.000000e+000
      outer loop
         vertex 3.556010e+001 2.197280e+001 9.149917e-001
         vertex 3.556010e+001 2.237920e+001 2.110863e-001
         vertex 3.556010e+001 2.225171e+001 1.193903e+000
      endloop
   endfacet
   facet normal 1.000000e+000 0.000000e+000 0.000000e+000
      outer loop
         vertex 3.556010e+001 2.225171e+001 1.193903e+000
         vertex 3.556010e+001 2.237920e+001 2.110863e-001
         vertex 3.556010e+001 2.295562e+001 7.875031e-001
      endloop
   endfacet
   facet normal 1.000000e+000 0.000000e+000 0.000000e+000
      outer loop
         vertex 3.556010e+001 2.225171e+001 1.193903e+000
         vertex 3.556010e+001 2.295562e+001 7.875031e-001
         vertex 3.556010e+001 2.235380e+001 1.574903e+000
      endloop
   endfacet
   facet normal 1.000000e+000 0.000000e+000 0.000000e+000
      outer loop
         vertex 3.556010e+001 2.235380e+001 1.574903e+000
         vertex 3.556010e+001 2.295562e+001 7.875031e-001
         vertex 3.556010e+001 2.316660e+001 1.574903e+000
      endloop
   endfacet
   facet normal 1.000000e+000 0.000000e+000 0.000000e+000
      outer loop
         vertex 3.556010e+001 2.235380e+001 1.574903e+000
         vertex 3.556010e+001 2.316660e+001 1.574903e+000
         vertex 3.556010e+001 2.235380e+001 6.350103e+000
      endloop
   endfacet
   facet normal 1.000000e+000 0.000000e+000 0.000000e+000
      outer loop
         vertex 3.556010e+001 2.235380e+001 6.350103e+000
         vertex 3.556010e+001 2.316660e+001 1.574903e+000
         vertex 3.556010e+001 2.316660e+001 6.350103e+000
      endloop
   endfacet
   facet normal 0.000000e+000 1.718619e-001 -9.851210e-001
      outer loop
         vertex 3.556010e+001 2.159180e+001 1.030776e-004
         vertex 1.043081e-004 2.159180e+001 1.030776e-004
         vertex 1.043081e-004 2.237920e+001 2.110863e-001
      endloop
   endfacet
   facet normal 0.000000e+000 3.437238e-001 -9.390708e-001
      outer loop
         vertex 3.556010e+001 2.159180e+001 1.030776e-004
         vertex 1.043081e-004 2.237920e+001 2.110863e-001
         vertex 3.556010e+001 2.237920e+001 2.110863e-001
      endloop
   endfacet
   facet normal 0.000000e+000 6.413973e-001 -7.672089e-001
      outer loop
         vertex 3.556010e+001 2.237920e+001 2.110863e-001
         vertex 1.043081e-004 2.237920e+001 2.110863e-001
         vertex 1.043081e-004 2.295562e+001 7.875031e-001
      endloop
   endfacet
   facet normal 0.000000e+000 7.672089e-001 -6.413973e-001
      outer loop
         vertex 3.556010e+001 2.237920e+001 2.110863e-001
         vertex 1.043081e-004 2.295562e+001 7.875031e-001
         vertex 3.556010e+001 2.295562e+001 7.875031e-001
      endloop
   endfacet
   facet normal 0.000000e+000 9.390708e-001 -3.437238e-001
      outer loop
         vertex 3.556010e+001 2.295562e+001 7.875031e-001
         vertex 1.043081e-004 2.295562e+001 7.875031e-001
         vertex 1.043081e-004 2.316660e+001 1.574903e+000
      endloop
   endfacet
   facet normal 0.000000e+000 9.851211e-001 -1.718619e-001
      outer loop
         vertex 3.556010e+001 2.295562e+001 7.875031e-001
         vertex 1.043081e-004 2.316660e+001 1.574903e+000
         vertex 3.556010e+001 2.316660e+001 1.574903e+000
      endloop
   endfacet
   facet normal -1.000000e+000 0.000000e+000 0.000000e+000
      outer loop
         vertex 1.043081e-004 2.235380e+001 6.350103e+000
         vertex 1.043081e-004 2.316660e+001 6.350103e+000
         vertex 1.043081e-004 2.235380e+001 1.574903e+000
      endloop
   endfacet
   facet normal -1.000000e+000 0.000000e+000 0.000000e+000
      outer loop
         vertex 1.043081e-004 2.235380e+001 1.574903e+000
         vertex 1.043081e-004 2.316660e+001 6.350103e+000
         vertex 1.043081e-004 2.316660e+001 1.574903e+000
      endloop
   endfacet
   facet normal -1.000000e+000 0.000000e+000 0.000000e+000
      outer loop
         vertex 1.043081e-004 2.235380e+001 1.574903e+000
         vertex 1.043081e-004 2.316660e+001 1.574903e+000
         vertex 1.043081e-004 2.225171e+001 1.193903e+000
      endloop
   endfacet
   facet normal -1.000000e+000 0.000000e+000 0.000000e+000
      outer loop
         vertex 1.043081e-004 2.225171e+001 1.193903e+000
         vertex 1.043081e-004 2.316660e+001 1.574903e+000
         vertex 1.043081e-004 2.295562e+001 7.875031e-001
      endloop
   endfacet
   facet normal -1.000000e+000 0.000000e+000 0.000000e+000
      outer loop
         vertex 1.043081e-004 2.225171e+001 1.193903e+000
         vertex 1.043081e-004 2.295562e+001 7.875031e-001
         vertex 1.043081e-004 2.197280e+001 9.149917e-001
      endloop
   endfacet
   facet normal -1.000000e+000 0.000000e+000 0.000000e+000
      outer loop
         vertex 1.043081e-004 2.197280e+001 9.149917e-001
         vertex 1.043081e-004 2.295562e+001 7.875031e-001
         vertex 1.043081e-004 2.237920e+001 2.110863e-001
      endloop
   endfacet
   facet normal -1.000000e+000 0.000000e+000 0.000000e+000
      outer loop
         vertex 1.043081e-004 2.197280e+001 9.149917e-001
         vertex 1.043081e-004 2.237920e+001 2.110863e-001
         vertex 1.043081e-004 2.159180e+001 8.129031e-001
      endloop
   endfacet
   facet normal -1.000000e+000 0.000000e+000 0.000000e+000
      outer loop
         vertex 1.043081e-004 2.159180e+001 8.129031e-001
         vertex 1.043081e-004 2.237920e+001 2.110863e-001
         vertex 1.043081e-004 2.159180e+001 1.030776e-004
      endloop
   endfacet
   facet normal -1.000000e+000 0.000000e+000 0.000000e+000
      outer loop
         vertex 1.043081e-004 2.159180e+001 8.129031e-001
         vertex 1.043081e-004 2.159180e+001 1.030776e-004
         vertex 1.043081e-004 1.364160e+001 8.129031e-001
      endloop
   endfacet
   facet normal -1.000000e+000 0.000000e+000 0.000000e+000
      outer loop
         vertex 1.043081e-004 1.364160e+001 8.129031e-001
         vertex 1.043081e-004 2.159180e+001 1.030776e-004
         vertex 1.043081e-004 1.364160e+001 1.030776e-004
      endloop
   endfacet
   facet normal -7.071068e-001 0.000000e+000 7.071068e-001
      outer loop
         vertex 8.890103e+000 2.316660e+001 1.524010e+001
         vertex 1.043081e-004 2.316660e+001 6.350103e+000
         vertex 8.890103e+000 2.235380e+001 1.524010e+001
      endloop
   endfacet
   facet normal -7.071068e-001 0.000000e+000 7.071068e-001
      outer loop
         vertex 8.890103e+000 2.235380e+001 1.524010e+001
         vertex 1.043081e-004 2.316660e+001 6.350103e+000
         vertex 1.043081e-004 2.235380e+001 6.350103e+000
      endloop
   endfacet
   facet normal -1.000000e+000 0.000000e+000 0.000000e+000
      outer loop
         vertex 8.890103e+000 2.235380e+001 4.127510e+001
         vertex 8.890103e+000 2.316660e+001 4.127510e+001
         vertex 8.890103e+000 2.235380e+001 1.524010e+001
      endloop
   endfacet
   facet normal -1.000000e+000 0.000000e+000 0.000000e+000
      outer loop
         vertex 8.890103e+000 2.235380e+001 1.524010e+001
         vertex 8.890103e+000 2.316660e+001 4.127510e+001
         vertex 8.890103e+000 2.316660e+001 1.524010e+001
      endloop
   endfacet
   facet normal -7.071068e-001 0.000000e+000 7.071068e-001
      outer loop
         vertex 1.206510e+001 2.316660e+001 4.445010e+001
         vertex 8.890103e+000 2.316660e+001 4.127510e+001
         vertex 1.206510e+001 2.235380e+001 4.445010e+001
      endloop
   endfacet
   facet normal -7.071068e-001 0.000000e+000 7.071068e-001
      outer loop
         vertex 1.206510e+001 2.235380e+001 4.445010e+001
         vertex 8.890103e+000 2.316660e+001 4.127510e+001
         vertex 8.890103e+000 2.235380e+001 4.127510e+001
      endloop
   endfacet
   facet normal 0.000000e+000 0.000000e+000 1.000000e+000
      outer loop
         vertex 2.349510e+001 2.235380e+001 4.445010e+001
         vertex 2.349510e+001 2.316660e+001 4.445010e+001
         vertex 1.206510e+001 2.235380e+001 4.445010e+001
      endloop
   endfacet
   facet normal 0.000000e+000 0.000000e+000 1.000000e+000
      outer loop
         vertex 1.206510e+001 2.235380e+001 4.445010e+001
         vertex 2.349510e+001 2.316660e+001 4.445010e+001
         vertex 1.206510e+001 2.316660e+001 4.445010e+001
      endloop
   endfacet
   facet normal 7.071068e-001 0.000000e+000 7.071068e-001
      outer loop
         vertex 2.667010e+001 2.316660e+001 4.127510e+001
         vertex 2.349510e+001 2.316660e+001 4.445010e+001
         vertex 2.667010e+001 2.235380e+001 4.127510e+001
      endloop
   endfacet
   facet normal 7.071068e-001 0.000000e+000 7.071068e-001
      outer loop
         vertex 2.667010e+001 2.235380e+001 4.127510e+001
         vertex 2.349510e+001 2.316660e+001 4.445010e+001
         vertex 2.349510e+001 2.235380e+001 4.445010e+001
      endloop
   endfacet
   facet normal 0.000000e+000 0.000000e+000 1.000000e+000
      outer loop
         vertex 1.597670e+001 2.235380e+001 3.403703e+000
         vertex 1.958350e+001 2.235380e+001 3.403703e+000
         vertex 1.597670e+001 2.316660e+001 3.403703e+000
      endloop
   endfacet
   facet normal 0.000000e+000 0.000000e+000 1.000000e+000
      outer loop
         vertex 1.597670e+001 2.316660e+001 3.403703e+000
         vertex 1.958350e+001 2.235380e+001 3.403703e+000
         vertex 1.958350e+001 2.316660e+001 3.403703e+000
      endloop
   endfacet
   facet normal -9.851211e-001 0.000000e+000 1.718619e-001
      outer loop
         vertex 2.009150e+001 2.235380e+001 3.911703e+000
         vertex 2.009150e+001 2.316660e+001 3.911703e+000
         vertex 2.002344e+001 2.316660e+001 3.657703e+000
      endloop
   endfacet
   facet normal -9.390708e-001 0.000000e+000 3.437238e-001
      outer loop
         vertex 2.009150e+001 2.235380e+001 3.911703e+000
         vertex 2.002344e+001 2.316660e+001 3.657703e+000
         vertex 2.002344e+001 2.235380e+001 3.657703e+000
      endloop
   endfacet
   facet normal -7.672089e-001 0.000000e+000 6.413973e-001
      outer loop
         vertex 2.002344e+001 2.235380e+001 3.657703e+000
         vertex 2.002344e+001 2.316660e+001 3.657703e+000
         vertex 1.983750e+001 2.316660e+001 3.471762e+000
      endloop
   endfacet
   facet normal -6.413973e-001 0.000000e+000 7.672089e-001
      outer loop
         vertex 2.002344e+001 2.235380e+001 3.657703e+000
         vertex 1.983750e+001 2.316660e+001 3.471762e+000
         vertex 1.983750e+001 2.235380e+001 3.471762e+000
      endloop
   endfacet
   facet normal -3.437238e-001 0.000000e+000 9.390708e-001
      outer loop
         vertex 1.983750e+001 2.235380e+001 3.471762e+000
         vertex 1.983750e+001 2.316660e+001 3.471762e+000
         vertex 1.958350e+001 2.316660e+001 3.403703e+000
      endloop
   endfacet
   facet normal -1.718619e-001 0.000000e+000 9.851210e-001
      outer loop
         vertex 1.983750e+001 2.235380e+001 3.471762e+000
         vertex 1.958350e+001 2.316660e+001 3.403703e+000
         vertex 1.958350e+001 2.235380e+001 3.403703e+000
      endloop
   endfacet
   facet normal -1.000000e+000 0.000000e+000 0.000000e+000
      outer loop
         vertex 2.009150e+001 2.235380e+001 3.911703e+000
         vertex 2.009150e+001 2.235380e+001 4.053851e+001
         vertex 2.009150e+001 2.316660e+001 3.911703e+000
      endloop
   endfacet
   facet normal -1.000000e+000 0.000000e+000 0.000000e+000
      outer loop
         vertex 2.009150e+001 2.316660e+001 3.911703e+000
         vertex 2.009150e+001 2.235380e+001 4.053851e+001
         vertex 2.009150e+001 2.316660e+001 4.053850e+001
      endloop
   endfacet
   facet normal -1.718619e-001 0.000000e+000 -9.851210e-001
      outer loop
         vertex 1.958350e+001 2.235380e+001 4.104650e+001
         vertex 1.958350e+001 2.316660e+001 4.104650e+001
         vertex 1.983750e+001 2.316660e+001 4.097845e+001
      endloop
   endfacet
   facet normal -3.437238e-001 0.000000e+000 -9.390708e-001
      outer loop
         vertex 1.958350e+001 2.235380e+001 4.104650e+001
         vertex 1.983750e+001 2.316660e+001 4.097845e+001
         vertex 1.983750e+001 2.235380e+001 4.097845e+001
      endloop
   endfacet
   facet normal -6.413973e-001 0.000000e+000 -7.672089e-001
      outer loop
         vertex 1.983750e+001 2.235380e+001 4.097845e+001
         vertex 1.983750e+001 2.316660e+001 4.097845e+001
         vertex 2.002344e+001 2.316660e+001 4.079250e+001
      endloop
   endfacet
   facet normal -7.672089e-001 0.000000e+000 -6.413973e-001
      outer loop
         vertex 1.983750e+001 2.235380e+001 4.097845e+001
         vertex 2.002344e+001 2.316660e+001 4.079250e+001
         vertex 2.002344e+001 2.235380e+001 4.079250e+001
      endloop
   endfacet
   facet normal -9.390708e-001 0.000000e+000 -3.437238e-001
      outer loop
         vertex 2.002344e+001 2.235380e+001 4.079250e+001
         vertex 2.002344e+001 2.316660e+001 4.079250e+001
         vertex 2.009150e+001 2.316660e+001 4.053850e+001
      endloop
   endfacet
   facet normal -9.851211e-001 0.000000e+000 -1.718619e-001
      outer loop
         vertex 2.002344e+001 2.235380e+001 4.079250e+001
         vertex 2.009150e+001 2.316660e+001 4.053851e+001
         vertex 2.009150e+001 2.235380e+001 4.053850e+001
      endloop
   endfacet
   facet normal 0.000000e+000 0.000000e+000 -1.000000e+000
      outer loop
         vertex 1.958350e+001 2.235380e+001 4.104650e+001
         vertex 1.597670e+001 2.235380e+001 4.104650e+001
         vertex 1.958350e+001 2.316660e+001 4.104650e+001
      endloop
   endfacet
   facet normal 0.000000e+000 0.000000e+000 -1.000000e+000
      outer loop
         vertex 1.958350e+001 2.316660e+001 4.104650e+001
         vertex 1.597670e+001 2.235380e+001 4.104650e+001
         vertex 1.597670e+001 2.316660e+001 4.104650e+001
      endloop
   endfacet
   facet normal 9.851211e-001 0.000000e+000 -1.718619e-001
      outer loop
         vertex 1.546870e+001 2.235380e+001 4.053851e+001
         vertex 1.546870e+001 2.316660e+001 4.053851e+001
         vertex 1.553676e+001 2.316660e+001 4.079250e+001
      endloop
   endfacet
   facet normal 9.390708e-001 0.000000e+000 -3.437238e-001
      outer loop
         vertex 1.546870e+001 2.235380e+001 4.053851e+001
         vertex 1.553676e+001 2.316660e+001 4.079250e+001
         vertex 1.553676e+001 2.235380e+001 4.079250e+001
      endloop
   endfacet
   facet normal 7.672089e-001 0.000000e+000 -6.413973e-001
      outer loop
         vertex 1.553676e+001 2.235380e+001 4.079250e+001
         vertex 1.553676e+001 2.316660e+001 4.079250e+001
         vertex 1.572270e+001 2.316660e+001 4.097845e+001
      endloop
   endfacet
   facet normal 6.413973e-001 0.000000e+000 -7.672089e-001
      outer loop
         vertex 1.553676e+001 2.235380e+001 4.079250e+001
         vertex 1.572270e+001 2.316660e+001 4.097845e+001
         vertex 1.572270e+001 2.235380e+001 4.097845e+001
      endloop
   endfacet
   facet normal 3.437238e-001 0.000000e+000 -9.390708e-001
      outer loop
         vertex 1.572270e+001 2.235380e+001 4.097845e+001
         vertex 1.572270e+001 2.316660e+001 4.097845e+001
         vertex 1.597670e+001 2.316660e+001 4.104650e+001
      endloop
   endfacet
   facet normal 1.718619e-001 0.000000e+000 -9.851210e-001
      outer loop
         vertex 1.572270e+001 2.235380e+001 4.097845e+001
         vertex 1.597670e+001 2.316660e+001 4.104650e+001
         vertex 1.597670e+001 2.235380e+001 4.104650e+001
      endloop
   endfacet
   facet normal 1.000000e+000 0.000000e+000 0.000000e+000
      outer loop
         vertex 1.546870e+001 2.235380e+001 3.911703e+000
         vertex 1.546870e+001 2.316660e+001 3.911703e+000
         vertex 1.546870e+001 2.235380e+001 4.053850e+001
      endloop
   endfacet
   facet normal 1.000000e+000 0.000000e+000 0.000000e+000
      outer loop
         vertex 1.546870e+001 2.235380e+001 4.053851e+001
         vertex 1.546870e+001 2.316660e+001 3.911703e+000
         vertex 1.546870e+001 2.316660e+001 4.053850e+001
      endloop
   endfacet
   facet normal 1.718619e-001 0.000000e+000 9.851210e-001
      outer loop
         vertex 1.597670e+001 2.235380e+001 3.403703e+000
         vertex 1.597670e+001 2.316660e+001 3.403703e+000
         vertex 1.572270e+001 2.316660e+001 3.471762e+000
      endloop
   endfacet
   facet normal 3.437238e-001 0.000000e+000 9.390708e-001
      outer loop
         vertex 1.597670e+001 2.235380e+001 3.403703e+000
         vertex 1.572270e+001 2.316660e+001 3.471762e+000
         vertex 1.572270e+001 2.235380e+001 3.471762e+000
      endloop
   endfacet
   facet normal 6.413973e-001 0.000000e+000 7.672089e-001
      outer loop
         vertex 1.572270e+001 2.235380e+001 3.471762e+000
         vertex 1.572270e+001 2.316660e+001 3.471762e+000
         vertex 1.553676e+001 2.316660e+001 3.657703e+000
      endloop
   endfacet
   facet normal 7.672089e-001 0.000000e+000 6.413973e-001
      outer loop
         vertex 1.572270e+001 2.235380e+001 3.471762e+000
         vertex 1.553676e+001 2.316660e+001 3.657703e+000
         vertex 1.553676e+001 2.235380e+001 3.657703e+000
      endloop
   endfacet
   facet normal 9.390708e-001 0.000000e+000 3.437238e-001
      outer loop
         vertex 1.553676e+001 2.235380e+001 3.657703e+000
         vertex 1.553676e+001 2.316660e+001 3.657703e+000
         vertex 1.546870e+001 2.316660e+001 3.911703e+000
      endloop
   endfacet
   facet normal 9.851211e-001 0.000000e+000 1.718619e-001
      outer loop
         vertex 1.553676e+001 2.235380e+001 3.657703e+000
         vertex 1.546870e+001 2.316660e+001 3.911703e+000
         vertex 1.546870e+001 2.235380e+001 3.911703e+000
      endloop
   endfacet
   facet normal 0.000000e+000 1.000000e+000 0.000000e+000
      outer loop
         vertex 1.043081e-004 2.316660e+001 1.574903e+000
         vertex 1.043081e-004 2.316660e+001 6.350103e+000
         vertex 8.890103e+000 2.316660e+001 1.524010e+001
      endloop
   endfacet
   facet normal 0.000000e+000 1.000000e+000 0.000000e+000
      outer loop
         vertex 3.556010e+001 2.316660e+001 1.574903e+000
         vertex 1.983750e+001 2.316660e+001 3.471762e+000
         vertex 2.002344e+001 2.316660e+001 3.657703e+000
      endloop
   endfacet
   facet normal 0.000000e+000 1.000000e+000 0.000000e+000
      outer loop
         vertex 2.002344e+001 2.316660e+001 4.079250e+001
         vertex 2.349510e+001 2.316660e+001 4.445010e+001
         vertex 2.009150e+001 2.316660e+001 4.053850e+001
      endloop
   endfacet
   facet normal 0.000000e+000 1.000000e+000 0.000000e+000
      outer loop
         vertex 2.009150e+001 2.316660e+001 4.053851e+001
         vertex 2.349510e+001 2.316660e+001 4.445010e+001
         vertex 2.667010e+001 2.316660e+001 4.127510e+001
      endloop
   endfacet
   facet normal 0.000000e+000 1.000000e+000 0.000000e+000
      outer loop
         vertex 2.009150e+001 2.316660e+001 4.053851e+001
         vertex 2.667010e+001 2.316660e+001 4.127510e+001
         vertex 2.009150e+001 2.316660e+001 3.911703e+000
      endloop
   endfacet
   facet normal 0.000000e+000 1.000000e+000 0.000000e+000
      outer loop
         vertex 2.009150e+001 2.316660e+001 3.911703e+000
         vertex 2.667010e+001 2.316660e+001 4.127510e+001
         vertex 2.667010e+001 2.316660e+001 1.524010e+001
      endloop
   endfacet
   facet normal 0.000000e+000 1.000000e+000 0.000000e+000
      outer loop
         vertex 2.009150e+001 2.316660e+001 3.911703e+000
         vertex 2.667010e+001 2.316660e+001 1.524010e+001
         vertex 2.002344e+001 2.316660e+001 3.657703e+000
      endloop
   endfacet
   facet normal 0.000000e+000 1.000000e+000 0.000000e+000
      outer loop
         vertex 2.002344e+001 2.316660e+001 3.657703e+000
         vertex 2.667010e+001 2.316660e+001 1.524010e+001
         vertex 3.556010e+001 2.316660e+001 6.350103e+000
      endloop
   endfacet
   facet normal 0.000000e+000 1.000000e+000 0.000000e+000
      outer loop
         vertex 2.002344e+001 2.316660e+001 3.657703e+000
         vertex 3.556010e+001 2.316660e+001 6.350103e+000
         vertex 3.556010e+001 2.316660e+001 1.574903e+000
      endloop
   endfacet
   facet normal 0.000000e+000 1.000000e+000 0.000000e+000
      outer loop
         vertex 2.002344e+001 2.316660e+001 4.079250e+001
         vertex 1.983750e+001 2.316660e+001 4.097845e+001
         vertex 2.349510e+001 2.316660e+001 4.445010e+001
      endloop
   endfacet
   facet normal 0.000000e+000 1.000000e+000 0.000000e+000
      outer loop
         vertex 2.349510e+001 2.316660e+001 4.445010e+001
         vertex 1.983750e+001 2.316660e+001 4.097845e+001
         vertex 1.958350e+001 2.316660e+001 4.104650e+001
      endloop
   endfacet
   facet normal 0.000000e+000 1.000000e+000 0.000000e+000
      outer loop
         vertex 2.349510e+001 2.316660e+001 4.445010e+001
         vertex 1.958350e+001 2.316660e+001 4.104650e+001
         vertex 1.206510e+001 2.316660e+001 4.445010e+001
      endloop
   endfacet
   facet normal 0.000000e+000 1.000000e+000 0.000000e+000
      outer loop
         vertex 1.206510e+001 2.316660e+001 4.445010e+001
         vertex 1.958350e+001 2.316660e+001 4.104650e+001
         vertex 1.597670e+001 2.316660e+001 4.104650e+001
      endloop
   endfacet
   facet normal 0.000000e+000 1.000000e+000 0.000000e+000
      outer loop
         vertex 1.553676e+001 2.316660e+001 3.657703e+000
         vertex 1.043081e-004 2.316660e+001 1.574903e+000
         vertex 1.546870e+001 2.316660e+001 3.911703e+000
      endloop
   endfacet
   facet normal 0.000000e+000 1.000000e+000 0.000000e+000
      outer loop
         vertex 1.546870e+001 2.316660e+001 3.911703e+000
         vertex 1.043081e-004 2.316660e+001 1.574903e+000
         vertex 8.890103e+000 2.316660e+001 1.524010e+001
      endloop
   endfacet
   facet normal 0.000000e+000 1.000000e+000 0.000000e+000
      outer loop
         vertex 1.546870e+001 2.316660e+001 3.911703e+000
         vertex 8.890103e+000 2.316660e+001 1.524010e+001
         vertex 1.546870e+001 2.316660e+001 4.053850e+001
      endloop
   endfacet
   facet normal 0.000000e+000 1.000000e+000 0.000000e+000
      outer loop
         vertex 1.546870e+001 2.316660e+001 4.053851e+001
         vertex 8.890103e+000 2.316660e+001 1.524010e+001
         vertex 8.890103e+000 2.316660e+001 4.127510e+001
      endloop
   endfacet
   facet normal 0.000000e+000 1.000000e+000 0.000000e+000
      outer loop
         vertex 1.546870e+001 2.316660e+001 4.053851e+001
         vertex 8.890103e+000 2.316660e+001 4.127510e+001
         vertex 1.553676e+001 2.316660e+001 4.079250e+001
      endloop
   endfacet
   facet normal 0.000000e+000 1.000000e+000 0.000000e+000
      outer loop
         vertex 1.553676e+001 2.316660e+001 4.079250e+001
         vertex 8.890103e+000 2.316660e+001 4.127510e+001
         vertex 1.206510e+001 2.316660e+001 4.445010e+001
      endloop
   endfacet
   facet normal 0.000000e+000 1.000000e+000 0.000000e+000
      outer loop
         vertex 1.553676e+001 2.316660e+001 4.079250e+001
         vertex 1.206510e+001 2.316660e+001 4.445010e+001
         vertex 1.572270e+001 2.316660e+001 4.097845e+001
      endloop
   endfacet
   facet normal 0.000000e+000 1.000000e+000 0.000000e+000
      outer loop
         vertex 1.572270e+001 2.316660e+001 4.097845e+001
         vertex 1.206510e+001 2.316660e+001 4.445010e+001
         vertex 1.597670e+001 2.316660e+001 4.104650e+001
      endloop
   endfacet
   facet normal 0.000000e+000 1.000000e+000 0.000000e+000
      outer loop
         vertex 1.553676e+001 2.316660e+001 3.657703e+000
         vertex 1.572270e+001 2.316660e+001 3.471762e+000
         vertex 1.043081e-004 2.316660e+001 1.574903e+000
      endloop
   endfacet
   facet normal 0.000000e+000 1.000000e+000 0.000000e+000
      outer loop
         vertex 1.043081e-004 2.316660e+001 1.574903e+000
         vertex 1.572270e+001 2.316660e+001 3.471762e+000
         vertex 1.597670e+001 2.316660e+001 3.403703e+000
      endloop
   endfacet
   facet normal 0.000000e+000 1.000000e+000 0.000000e+000
      outer loop
         vertex 1.043081e-004 2.316660e+001 1.574903e+000
         vertex 1.597670e+001 2.316660e+001 3.403703e+000
         vertex 3.556010e+001 2.316660e+001 1.574903e+000
      endloop
   endfacet
   facet normal 0.000000e+000 1.000000e+000 0.000000e+000
      outer loop
         vertex 3.556010e+001 2.316660e+001 1.574903e+000
         vertex 1.597670e+001 2.316660e+001 3.403703e+000
         vertex 1.958350e+001 2.316660e+001 3.403703e+000
      endloop
   endfacet
   facet normal 0.000000e+000 1.000000e+000 0.000000e+000
      outer loop
         vertex 3.556010e+001 2.316660e+001 1.574903e+000
         vertex 1.958350e+001 2.316660e+001 3.403703e+000
         vertex 1.983750e+001 2.316660e+001 3.471762e+000
      endloop
   endfacet
endsolid