solid Vex_Light_Sensor_top
   facet normal -1.000000e+000 0.000000e+000 0.000000e+000
      outer loop
         vertex 2.022500e+001 3.968750e+000 1.468896e+001
         vertex 2.022500e+001 3.968750e+000 2.540005e+001
         vertex 2.022500e+001 5.731806e+000 1.468896e+001
      endloop
   endfacet
   facet normal -1.000000e+000 0.000000e+000 0.000000e+000
      outer loop
         vertex 2.022500e+001 5.731806e+000 1.468896e+001
         vertex 2.022500e+001 3.968750e+000 2.540005e+001
         vertex 2.022500e+001 1.031875e+001 2.540005e+001
      endloop
   endfacet
   facet normal -1.000000e+000 0.000000e+000 0.000000e+000
      outer loop
         vertex 2.022500e+001 5.731806e+000 1.468896e+001
         vertex 2.022500e+001 1.031875e+001 2.540005e+001
         vertex 2.022500e+001 5.731806e+000 1.069660e+001
      endloop
   endfacet
   facet normal -1.000000e+000 0.000000e+000 0.000000e+000
      outer loop
         vertex 2.022500e+001 5.731806e+000 1.069660e+001
         vertex 2.022500e+001 1.031875e+001 2.540005e+001
         vertex 2.022500e+001 1.031875e+001 5.029142e-005
      endloop
   endfacet
   facet normal -1.000000e+000 0.000000e+000 0.000000e+000
      outer loop
         vertex 2.022500e+001 5.731806e+000 1.069660e+001
         vertex 2.022500e+001 1.031875e+001 5.029142e-005
         vertex 2.022500e+001 3.968750e+000 1.069660e+001
      endloop
   endfacet
   facet normal -1.000000e+000 0.000000e+000 0.000000e+000
      outer loop
         vertex 2.022500e+001 3.968750e+000 1.069660e+001
         vertex 2.022500e+001 1.031875e+001 5.029142e-005
         vertex 2.022500e+001 3.968750e+000 5.029142e-005
      endloop
   endfacet
   facet normal 0.000000e+000 1.224606e-016 1.000000e+000
      outer loop
         vertex 4.880000e+001 3.968750e+000 2.540005e+001
         vertex 5.197500e+001 3.968750e+000 2.540005e+001
         vertex 4.880000e+001 7.143750e+000 2.540005e+001
      endloop
   endfacet
   facet normal 0.000000e+000 1.224606e-016 1.000000e+000
      outer loop
         vertex 4.880000e+001 7.143750e+000 2.540005e+001
         vertex 5.197500e+001 3.968750e+000 2.540005e+001
         vertex 5.197500e+001 1.031875e+001 2.540005e+001
      endloop
   endfacet
   facet normal 0.000000e+000 1.224606e-016 1.000000e+000
      outer loop
         vertex 4.880000e+001 7.143750e+000 2.540005e+001
         vertex 5.197500e+001 1.031875e+001 2.540005e+001
         vertex 2.340000e+001 7.143750e+000 2.540005e+001
      endloop
   endfacet
   facet normal 0.000000e+000 1.224606e-016 1.000000e+000
      outer loop
         vertex 2.340000e+001 7.143750e+000 2.540005e+001
         vertex 5.197500e+001 1.031875e+001 2.540005e+001
         vertex 2.022500e+001 1.031875e+001 2.540005e+001
      endloop
   endfacet
   facet normal 0.000000e+000 1.224606e-016 1.000000e+000
      outer loop
         vertex 2.340000e+001 7.143750e+000 2.540005e+001
         vertex 2.022500e+001 1.031875e+001 2.540005e+001
         vertex 2.340000e+001 3.968750e+000 2.540005e+001
      endloop
   endfacet
   facet normal 0.000000e+000 1.224606e-016 1.000000e+000
      outer loop
         vertex 2.340000e+001 3.968750e+000 2.540005e+001
         vertex 2.022500e+001 1.031875e+001 2.540005e+001
         vertex 2.022500e+001 3.968750e+000 2.540005e+001
      endloop
   endfacet
   facet normal 1.000000e+000 0.000000e+000 0.000000e+000
      outer loop
         vertex 2.340000e+001 7.143750e+000 5.029142e-005
         vertex 2.340000e+001 7.143750e+000 2.540005e+001
         vertex 2.340000e+001 3.968750e+000 5.029142e-005
      endloop
   endfacet
   facet normal 1.000000e+000 0.000000e+000 0.000000e+000
      outer loop
         vertex 2.340000e+001 3.968750e+000 5.029142e-005
         vertex 2.340000e+001 7.143750e+000 2.540005e+001
         vertex 2.340000e+001 3.968750e+000 2.540005e+001
      endloop
   endfacet
   facet normal 0.000000e+000 -1.224606e-016 -1.000000e+000
      outer loop
         vertex 2.340000e+001 3.968750e+000 5.029142e-005
         vertex 2.022500e+001 3.968750e+000 5.029142e-005
         vertex 2.340000e+001 7.143750e+000 5.029142e-005
      endloop
   endfacet
   facet normal 0.000000e+000 -1.224606e-016 -1.000000e+000
      outer loop
         vertex 2.340000e+001 7.143750e+000 5.029142e-005
         vertex 2.022500e+001 3.968750e+000 5.029142e-005
         vertex 2.022500e+001 1.031875e+001 5.029142e-005
      endloop
   endfacet
   facet normal 0.000000e+000 -1.224606e-016 -1.000000e+000
      outer loop
         vertex 2.340000e+001 7.143750e+000 5.029142e-005
         vertex 2.022500e+001 1.031875e+001 5.029142e-005
         vertex 4.880000e+001 7.143750e+000 5.029142e-005
      endloop
   endfacet
   facet normal 0.000000e+000 -1.224606e-016 -1.000000e+000
      outer loop
         vertex 4.880000e+001 7.143750e+000 5.029142e-005
         vertex 2.022500e+001 1.031875e+001 5.029142e-005
         vertex 5.197500e+001 1.031875e+001 5.029142e-005
      endloop
   endfacet
   facet normal 0.000000e+000 -1.224606e-016 -1.000000e+000
      outer loop
         vertex 4.880000e+001 7.143750e+000 5.029142e-005
         vertex 5.197500e+001 1.031875e+001 5.029142e-005
         vertex 4.880000e+001 3.968750e+000 5.029142e-005
      endloop
   endfacet
   facet normal 0.000000e+000 -1.224606e-016 -1.000000e+000
      outer loop
         vertex 4.880000e+001 3.968750e+000 5.029142e-005
         vertex 5.197500e+001 1.031875e+001 5.029142e-005
         vertex 5.197500e+001 3.968750e+000 5.029142e-005
      endloop
   endfacet
   facet normal 0.000000e+000 -1.000000e+000 1.365924e-016
      outer loop
         vertex 2.022500e+001 3.968750e+000 1.069660e+001
         vertex 2.022500e+001 3.968750e+000 5.029142e-005
         vertex 2.101875e+001 3.968750e+000 1.069660e+001
      endloop
   endfacet
   facet normal 0.000000e+000 -1.000000e+000 1.365924e-016
      outer loop
         vertex 2.101875e+001 3.968750e+000 1.069660e+001
         vertex 2.022500e+001 3.968750e+000 5.029142e-005
         vertex 2.340000e+001 3.968750e+000 5.029142e-005
      endloop
   endfacet
   facet normal 0.000000e+000 -1.000000e+000 1.365924e-016
      outer loop
         vertex 2.101875e+001 3.968750e+000 1.069660e+001
         vertex 2.340000e+001 3.968750e+000 5.029142e-005
         vertex 2.101875e+001 3.968750e+000 1.468896e+001
      endloop
   endfacet
   facet normal 0.000000e+000 -1.000000e+000 1.365924e-016
      outer loop
         vertex 2.101875e+001 3.968750e+000 1.468896e+001
         vertex 2.340000e+001 3.968750e+000 5.029142e-005
         vertex 2.340000e+001 3.968750e+000 2.540005e+001
      endloop
   endfacet
   facet normal 0.000000e+000 -1.000000e+000 1.365924e-016
      outer loop
         vertex 2.101875e+001 3.968750e+000 1.468896e+001
         vertex 2.340000e+001 3.968750e+000 2.540005e+001
         vertex 2.022500e+001 3.968750e+000 1.468896e+001
      endloop
   endfacet
   facet normal 0.000000e+000 -1.000000e+000 1.365924e-016
      outer loop
         vertex 2.022500e+001 3.968750e+000 1.468896e+001
         vertex 2.340000e+001 3.968750e+000 2.540005e+001
         vertex 2.022500e+001 3.968750e+000 2.540005e+001
      endloop
   endfacet
   facet normal 1.000000e+000 0.000000e+000 0.000000e+000
      outer loop
         vertex 5.197500e+001 3.968750e+000 5.029142e-005
         vertex 5.197500e+001 1.031875e+001 5.029142e-005
         vertex 5.197500e+001 3.968750e+000 2.540005e+001
      endloop
   endfacet
   facet normal 1.000000e+000 0.000000e+000 0.000000e+000
      outer loop
         vertex 5.197500e+001 3.968750e+000 2.540005e+001
         vertex 5.197500e+001 1.031875e+001 5.029142e-005
         vertex 5.197500e+001 1.031875e+001 2.540005e+001
      endloop
   endfacet
   facet normal 0.000000e+000 1.000000e+000 -1.365924e-016
      outer loop
         vertex 3.459374e+001 1.031875e+001 1.509891e+001
         vertex 3.379039e+001 1.031875e+001 1.433989e+001
         vertex 2.022500e+001 1.031875e+001 2.540005e+001
      endloop
   endfacet
   facet normal 0.000000e+000 1.000000e+000 -1.365924e-016
      outer loop
         vertex 2.022500e+001 1.031875e+001 2.540005e+001
         vertex 3.379039e+001 1.031875e+001 1.433989e+001
         vertex 3.333866e+001 1.031875e+001 1.333121e+001
      endloop
   endfacet
   facet normal 0.000000e+000 1.000000e+000 -1.365924e-016
      outer loop
         vertex 2.022500e+001 1.031875e+001 2.540005e+001
         vertex 3.333866e+001 1.031875e+001 1.333121e+001
         vertex 2.022500e+001 1.031875e+001 5.029142e-005
      endloop
   endfacet
   facet normal 0.000000e+000 1.000000e+000 -1.365924e-016
      outer loop
         vertex 2.022500e+001 1.031875e+001 5.029142e-005
         vertex 3.333866e+001 1.031875e+001 1.333121e+001
         vertex 3.330732e+001 1.031875e+001 1.222645e+001
      endloop
   endfacet
   facet normal 0.000000e+000 1.000000e+000 -1.365924e-016
      outer loop
         vertex 2.022500e+001 1.031875e+001 5.029142e-005
         vertex 3.330732e+001 1.031875e+001 1.222645e+001
         vertex 3.370114e+001 1.031875e+001 1.119379e+001
      endloop
   endfacet
   facet normal 0.000000e+000 1.000000e+000 -1.365924e-016
      outer loop
         vertex 3.370114e+001 1.031875e+001 1.119379e+001
         vertex 3.446016e+001 1.031875e+001 1.039044e+001
         vertex 2.022500e+001 1.031875e+001 5.029142e-005
      endloop
   endfacet
   facet normal 0.000000e+000 1.000000e+000 -1.365924e-016
      outer loop
         vertex 2.022500e+001 1.031875e+001 5.029142e-005
         vertex 3.446016e+001 1.031875e+001 1.039044e+001
         vertex 3.546884e+001 1.031875e+001 9.938713e+000
      endloop
   endfacet
   facet normal 0.000000e+000 1.000000e+000 -1.365924e-016
      outer loop
         vertex 2.022500e+001 1.031875e+001 5.029142e-005
         vertex 3.546884e+001 1.031875e+001 9.938713e+000
         vertex 5.197500e+001 1.031875e+001 5.029142e-005
      endloop
   endfacet
   facet normal 0.000000e+000 1.000000e+000 -1.365924e-016
      outer loop
         vertex 5.197500e+001 1.031875e+001 5.029142e-005
         vertex 3.546884e+001 1.031875e+001 9.938713e+000
         vertex 3.657360e+001 1.031875e+001 9.907371e+000
      endloop
   endfacet
   facet normal 0.000000e+000 1.000000e+000 -1.365924e-016
      outer loop
         vertex 5.197500e+001 1.031875e+001 5.029142e-005
         vertex 3.657360e+001 1.031875e+001 9.907372e+000
         vertex 3.760626e+001 1.031875e+001 1.030119e+001
      endloop
   endfacet
   facet normal 0.000000e+000 1.000000e+000 -1.365924e-016
      outer loop
         vertex 3.760626e+001 1.031875e+001 1.030119e+001
         vertex 3.840961e+001 1.031875e+001 1.106021e+001
         vertex 5.197500e+001 1.031875e+001 5.029142e-005
      endloop
   endfacet
   facet normal 0.000000e+000 1.000000e+000 -1.365924e-016
      outer loop
         vertex 5.197500e+001 1.031875e+001 5.029142e-005
         vertex 3.840961e+001 1.031875e+001 1.106021e+001
         vertex 3.886134e+001 1.031875e+001 1.206889e+001
      endloop
   endfacet
   facet normal 0.000000e+000 1.000000e+000 -1.365924e-016
      outer loop
         vertex 5.197500e+001 1.031875e+001 5.029142e-005
         vertex 3.886134e+001 1.031875e+001 1.206889e+001
         vertex 5.197500e+001 1.031875e+001 2.540005e+001
      endloop
   endfacet
   facet normal 0.000000e+000 1.000000e+000 -1.365924e-016
      outer loop
         vertex 5.197500e+001 1.031875e+001 2.540005e+001
         vertex 3.886134e+001 1.031875e+001 1.206889e+001
         vertex 3.889268e+001 1.031875e+001 1.317365e+001
      endloop
   endfacet
   facet normal 0.000000e+000 1.000000e+000 -1.365924e-016
      outer loop
         vertex 5.197500e+001 1.031875e+001 2.540005e+001
         vertex 3.889268e+001 1.031875e+001 1.317365e+001
         vertex 3.849886e+001 1.031875e+001 1.420631e+001
      endloop
   endfacet
   facet normal 0.000000e+000 1.000000e+000 -1.365924e-016
      outer loop
         vertex 3.849886e+001 1.031875e+001 1.420631e+001
         vertex 3.773983e+001 1.031875e+001 1.500966e+001
         vertex 5.197500e+001 1.031875e+001 2.540005e+001
      endloop
   endfacet
   facet normal 0.000000e+000 1.000000e+000 -1.365924e-016
      outer loop
         vertex 5.197500e+001 1.031875e+001 2.540005e+001
         vertex 3.773983e+001 1.031875e+001 1.500966e+001
         vertex 3.673116e+001 1.031875e+001 1.546139e+001
      endloop
   endfacet
   facet normal 0.000000e+000 1.000000e+000 -1.365924e-016
      outer loop
         vertex 5.197500e+001 1.031875e+001 2.540005e+001
         vertex 3.673116e+001 1.031875e+001 1.546139e+001
         vertex 2.022500e+001 1.031875e+001 2.540005e+001
      endloop
   endfacet
   facet normal 0.000000e+000 1.000000e+000 -1.365924e-016
      outer loop
         vertex 2.022500e+001 1.031875e+001 2.540005e+001
         vertex 3.673116e+001 1.031875e+001 1.546139e+001
         vertex 3.562640e+001 1.031875e+001 1.549273e+001
      endloop
   endfacet
   facet normal 0.000000e+000 1.000000e+000 -1.365924e-016
      outer loop
         vertex 2.022500e+001 1.031875e+001 2.540005e+001
         vertex 3.562640e+001 1.031875e+001 1.549273e+001
         vertex 3.459374e+001 1.031875e+001 1.509891e+001
      endloop
   endfacet
   facet normal 0.000000e+000 -1.000000e+000 1.365924e-016
      outer loop
         vertex 3.446016e+001 7.143750e+000 1.039044e+001
         vertex 3.370114e+001 7.143750e+000 1.119379e+001
         vertex 2.340000e+001 7.143750e+000 5.029142e-005
      endloop
   endfacet
   facet normal 0.000000e+000 -1.000000e+000 1.365924e-016
      outer loop
         vertex 2.340000e+001 7.143750e+000 5.029142e-005
         vertex 3.370114e+001 7.143750e+000 1.119379e+001
         vertex 3.330732e+001 7.143750e+000 1.222645e+001
      endloop
   endfacet
   facet normal 0.000000e+000 -1.000000e+000 1.365924e-016
      outer loop
         vertex 2.340000e+001 7.143750e+000 5.029142e-005
         vertex 3.330732e+001 7.143750e+000 1.222645e+001
         vertex 2.340000e+001 7.143750e+000 2.540005e+001
      endloop
   endfacet
   facet normal 0.000000e+000 -1.000000e+000 1.365924e-016
      outer loop
         vertex 2.340000e+001 7.143750e+000 2.540005e+001
         vertex 3.330732e+001 7.143750e+000 1.222645e+001
         vertex 3.333866e+001 7.143750e+000 1.333121e+001
      endloop
   endfacet
   facet normal 0.000000e+000 -1.000000e+000 1.365924e-016
      outer loop
         vertex 2.340000e+001 7.143750e+000 2.540005e+001
         vertex 3.333866e+001 7.143750e+000 1.333121e+001
         vertex 3.379039e+001 7.143750e+000 1.433989e+001
      endloop
   endfacet
   facet normal 0.000000e+000 -1.000000e+000 1.365924e-016
      outer loop
         vertex 3.840961e+001 7.143750e+000 1.106021e+001
         vertex 3.760626e+001 7.143750e+000 1.030119e+001
         vertex 4.880000e+001 7.143750e+000 5.029142e-005
      endloop
   endfacet
   facet normal 0.000000e+000 -1.000000e+000 1.365924e-016
      outer loop
         vertex 4.880000e+001 7.143750e+000 5.029142e-005
         vertex 3.760626e+001 7.143750e+000 1.030119e+001
         vertex 3.657360e+001 7.143750e+000 9.907371e+000
      endloop
   endfacet
   facet normal 0.000000e+000 -1.000000e+000 1.365924e-016
      outer loop
         vertex 4.880000e+001 7.143750e+000 5.029142e-005
         vertex 3.657360e+001 7.143750e+000 9.907372e+000
         vertex 2.340000e+001 7.143750e+000 5.029142e-005
      endloop
   endfacet
   facet normal 0.000000e+000 -1.000000e+000 1.365924e-016
      outer loop
         vertex 2.340000e+001 7.143750e+000 5.029142e-005
         vertex 3.657360e+001 7.143750e+000 9.907372e+000
         vertex 3.546884e+001 7.143750e+000 9.938713e+000
      endloop
   endfacet
   facet normal 0.000000e+000 -1.000000e+000 1.365924e-016
      outer loop
         vertex 2.340000e+001 7.143750e+000 5.029142e-005
         vertex 3.546884e+001 7.143750e+000 9.938713e+000
         vertex 3.446016e+001 7.143750e+000 1.039044e+001
      endloop
   endfacet
   facet normal 0.000000e+000 -1.000000e+000 1.365924e-016
      outer loop
         vertex 3.379039e+001 7.143750e+000 1.433989e+001
         vertex 3.459374e+001 7.143750e+000 1.509891e+001
         vertex 2.340000e+001 7.143750e+000 2.540005e+001
      endloop
   endfacet
   facet normal 0.000000e+000 -1.000000e+000 1.365924e-016
      outer loop
         vertex 2.340000e+001 7.143750e+000 2.540005e+001
         vertex 3.459374e+001 7.143750e+000 1.509891e+001
         vertex 3.562640e+001 7.143750e+000 1.549273e+001
      endloop
   endfacet
   facet normal 0.000000e+000 -1.000000e+000 1.365924e-016
      outer loop
         vertex 2.340000e+001 7.143750e+000 2.540005e+001
         vertex 3.562640e+001 7.143750e+000 1.549273e+001
         vertex 4.880000e+001 7.143750e+000 2.540005e+001
      endloop
   endfacet
   facet normal 0.000000e+000 -1.000000e+000 1.365924e-016
      outer loop
         vertex 4.880000e+001 7.143750e+000 2.540005e+001
         vertex 3.562640e+001 7.143750e+000 1.549273e+001
         vertex 3.673116e+001 7.143750e+000 1.546139e+001
      endloop
   endfacet
   facet normal 0.000000e+000 -1.000000e+000 1.365924e-016
      outer loop
         vertex 4.880000e+001 7.143750e+000 2.540005e+001
         vertex 3.673116e+001 7.143750e+000 1.546139e+001
         vertex 3.773983e+001 7.143750e+000 1.500966e+001
      endloop
   endfacet
   facet normal 0.000000e+000 -1.000000e+000 1.365924e-016
      outer loop
         vertex 3.773983e+001 7.143750e+000 1.500966e+001
         vertex 3.849886e+001 7.143750e+000 1.420631e+001
         vertex 4.880000e+001 7.143750e+000 2.540005e+001
      endloop
   endfacet
   facet normal 0.000000e+000 -1.000000e+000 1.365924e-016
      outer loop
         vertex 4.880000e+001 7.143750e+000 2.540005e+001
         vertex 3.849886e+001 7.143750e+000 1.420631e+001
         vertex 3.889268e+001 7.143750e+000 1.317365e+001
      endloop
   endfacet
   facet normal 0.000000e+000 -1.000000e+000 1.365924e-016
      outer loop
         vertex 4.880000e+001 7.143750e+000 2.540005e+001
         vertex 3.889268e+001 7.143750e+000 1.317365e+001
         vertex 4.880000e+001 7.143750e+000 5.029142e-005
      endloop
   endfacet
   facet normal 0.000000e+000 -1.000000e+000 1.365924e-016
      outer loop
         vertex 4.880000e+001 7.143750e+000 5.029142e-005
         vertex 3.889268e+001 7.143750e+000 1.317365e+001
         vertex 3.886134e+001 7.143750e+000 1.206889e+001
      endloop
   endfacet
   facet normal 0.000000e+000 -1.000000e+000 1.365924e-016
      outer loop
         vertex 4.880000e+001 7.143750e+000 5.029142e-005
         vertex 3.886134e+001 7.143750e+000 1.206889e+001
         vertex 3.840961e+001 7.143750e+000 1.106021e+001
      endloop
   endfacet
   facet normal -1.000000e+000 0.000000e+000 0.000000e+000
      outer loop
         vertex 4.880000e+001 7.143750e+000 2.540005e+001
         vertex 4.880000e+001 7.143750e+000 5.029142e-005
         vertex 4.880000e+001 3.968750e+000 2.540005e+001
      endloop
   endfacet
   facet normal -1.000000e+000 0.000000e+000 0.000000e+000
      outer loop
         vertex 4.880000e+001 3.968750e+000 2.540005e+001
         vertex 4.880000e+001 7.143750e+000 5.029142e-005
         vertex 4.880000e+001 3.968750e+000 5.029142e-005
      endloop
   endfacet
   facet normal 0.000000e+000 -1.000000e+000 1.365924e-016
      outer loop
         vertex 5.197500e+001 3.968750e+000 5.029142e-005
         vertex 5.197500e+001 3.968750e+000 2.540005e+001
         vertex 4.880000e+001 3.968750e+000 5.029142e-005
      endloop
   endfacet
   facet normal 0.000000e+000 -1.000000e+000 1.365924e-016
      outer loop
         vertex 4.880000e+001 3.968750e+000 5.029142e-005
         vertex 5.197500e+001 3.968750e+000 2.540005e+001
         vertex 4.880000e+001 3.968750e+000 2.540005e+001
      endloop
   endfacet
   facet normal 2.835783e-002 1.365375e-016 9.995978e-001
      outer loop
         vertex 3.546884e+001 7.143750e+000 9.938713e+000
         vertex 3.657360e+001 7.143750e+000 9.907372e+000
         vertex 3.546884e+001 1.031875e+001 9.938713e+000
      endloop
   endfacet
   facet normal 2.835783e-002 1.365375e-016 9.995978e-001
      outer loop
         vertex 3.546884e+001 1.031875e+001 9.938713e+000
         vertex 3.657360e+001 7.143750e+000 9.907372e+000
         vertex 3.657360e+001 1.031875e+001 9.907371e+000
      endloop
   endfacet
   facet normal -3.563303e-001 1.276265e-016 9.343600e-001
      outer loop
         vertex 3.657360e+001 7.143750e+000 9.907372e+000
         vertex 3.760626e+001 7.143750e+000 1.030119e+001
         vertex 3.657360e+001 1.031875e+001 9.907371e+000
      endloop
   endfacet
   facet normal -3.563303e-001 1.276265e-016 9.343600e-001
      outer loop
         vertex 3.657360e+001 1.031875e+001 9.907372e+000
         vertex 3.760626e+001 7.143750e+000 1.030119e+001
         vertex 3.760626e+001 1.031875e+001 1.030119e+001
      endloop
   endfacet
   facet normal -6.867704e-001 9.928552e-017 7.268744e-001
      outer loop
         vertex 3.760626e+001 7.143750e+000 1.030119e+001
         vertex 3.840961e+001 7.143750e+000 1.106021e+001
         vertex 3.760626e+001 1.031875e+001 1.030119e+001
      endloop
   endfacet
   facet normal -6.867704e-001 9.928552e-017 7.268744e-001
      outer loop
         vertex 3.760626e+001 1.031875e+001 1.030119e+001
         vertex 3.840961e+001 7.143750e+000 1.106021e+001
         vertex 3.840961e+001 1.031875e+001 1.106021e+001
      endloop
   endfacet
   facet normal -9.126559e-001 5.582924e-017 4.087287e-001
      outer loop
         vertex 3.840961e+001 7.143750e+000 1.106021e+001
         vertex 3.886134e+001 7.143750e+000 1.206889e+001
         vertex 3.840961e+001 1.031875e+001 1.106021e+001
      endloop
   endfacet
   facet normal -9.126559e-001 5.582924e-017 4.087287e-001
      outer loop
         vertex 3.840961e+001 1.031875e+001 1.106021e+001
         vertex 3.886134e+001 7.143750e+000 1.206889e+001
         vertex 3.886134e+001 1.031875e+001 1.206889e+001
      endloop
   endfacet
   facet normal -9.995978e-001 3.873463e-018 2.835782e-002
      outer loop
         vertex 3.886134e+001 7.143750e+000 1.206889e+001
         vertex 3.889268e+001 7.143750e+000 1.317365e+001
         vertex 3.886134e+001 1.031875e+001 1.206889e+001
      endloop
   endfacet
   facet normal -9.995978e-001 3.873463e-018 2.835782e-002
      outer loop
         vertex 3.886134e+001 1.031875e+001 1.206889e+001
         vertex 3.889268e+001 7.143750e+000 1.317365e+001
         vertex 3.889268e+001 1.031875e+001 1.317365e+001
      endloop
   endfacet
   facet normal -9.343600e-001 -4.867201e-017 -3.563303e-001
      outer loop
         vertex 3.889268e+001 7.143750e+000 1.317365e+001
         vertex 3.849886e+001 7.143750e+000 1.420631e+001
         vertex 3.889268e+001 1.031875e+001 1.317365e+001
      endloop
   endfacet
   facet normal -9.343600e-001 -4.867201e-017 -3.563303e-001
      outer loop
         vertex 3.889268e+001 1.031875e+001 1.317365e+001
         vertex 3.849886e+001 7.143750e+000 1.420631e+001
         vertex 3.849886e+001 1.031875e+001 1.420631e+001
      endloop
   endfacet
   facet normal -7.268744e-001 -9.380762e-017 -6.867704e-001
      outer loop
         vertex 3.849886e+001 7.143750e+000 1.420631e+001
         vertex 3.773983e+001 7.143750e+000 1.500966e+001
         vertex 3.849886e+001 1.031875e+001 1.420631e+001
      endloop
   endfacet
   facet normal -7.268744e-001 -9.380762e-017 -6.867704e-001
      outer loop
         vertex 3.849886e+001 1.031875e+001 1.420631e+001
         vertex 3.773983e+001 7.143750e+000 1.500966e+001
         vertex 3.773983e+001 1.031875e+001 1.500966e+001
      endloop
   endfacet
   facet normal -4.087287e-001 -1.246619e-016 -9.126559e-001
      outer loop
         vertex 3.773983e+001 7.143750e+000 1.500966e+001
         vertex 3.673116e+001 7.143750e+000 1.546139e+001
         vertex 3.773983e+001 1.031875e+001 1.500966e+001
      endloop
   endfacet
   facet normal -4.087287e-001 -1.246619e-016 -9.126559e-001
      outer loop
         vertex 3.773983e+001 1.031875e+001 1.500966e+001
         vertex 3.673116e+001 7.143750e+000 1.546139e+001
         vertex 3.673116e+001 1.031875e+001 1.546139e+001
      endloop
   endfacet
   facet normal -2.835783e-002 -1.365375e-016 -9.995978e-001
      outer loop
         vertex 3.673116e+001 7.143750e+000 1.546139e+001
         vertex 3.562640e+001 7.143750e+000 1.549273e+001
         vertex 3.673116e+001 1.031875e+001 1.546139e+001
      endloop
   endfacet
   facet normal -2.835783e-002 -1.365375e-016 -9.995978e-001
      outer loop
         vertex 3.673116e+001 1.031875e+001 1.546139e+001
         vertex 3.562640e+001 7.143750e+000 1.549273e+001
         vertex 3.562640e+001 1.031875e+001 1.549273e+001
      endloop
   endfacet
   facet normal 3.563303e-001 -1.276265e-016 -9.343600e-001
      outer loop
         vertex 3.562640e+001 7.143750e+000 1.549273e+001
         vertex 3.459374e+001 7.143750e+000 1.509891e+001
         vertex 3.562640e+001 1.031875e+001 1.549273e+001
      endloop
   endfacet
   facet normal 3.563303e-001 -1.276265e-016 -9.343600e-001
      outer loop
         vertex 3.562640e+001 1.031875e+001 1.549273e+001
         vertex 3.459374e+001 7.143750e+000 1.509891e+001
         vertex 3.459374e+001 1.031875e+001 1.509891e+001
      endloop
   endfacet
   facet normal 6.867704e-001 -9.928552e-017 -7.268744e-001
      outer loop
         vertex 3.459374e+001 7.143750e+000 1.509891e+001
         vertex 3.379039e+001 7.143750e+000 1.433989e+001
         vertex 3.459374e+001 1.031875e+001 1.509891e+001
      endloop
   endfacet
   facet normal 6.867704e-001 -9.928552e-017 -7.268744e-001
      outer loop
         vertex 3.459374e+001 1.031875e+001 1.509891e+001
         vertex 3.379039e+001 7.143750e+000 1.433989e+001
         vertex 3.379039e+001 1.031875e+001 1.433989e+001
      endloop
   endfacet
   facet normal 9.126559e-001 -5.582924e-017 -4.087287e-001
      outer loop
         vertex 3.379039e+001 7.143750e+000 1.433989e+001
         vertex 3.333866e+001 7.143750e+000 1.333121e+001
         vertex 3.379039e+001 1.031875e+001 1.433989e+001
      endloop
   endfacet
   facet normal 9.126559e-001 -5.582924e-017 -4.087287e-001
      outer loop
         vertex 3.379039e+001 1.031875e+001 1.433989e+001
         vertex 3.333866e+001 7.143750e+000 1.333121e+001
         vertex 3.333866e+001 1.031875e+001 1.333121e+001
      endloop
   endfacet
   facet normal 9.995978e-001 -3.873463e-018 -2.835782e-002
      outer loop
         vertex 3.333866e+001 7.143750e+000 1.333121e+001
         vertex 3.330732e+001 7.143750e+000 1.222645e+001
         vertex 3.333866e+001 1.031875e+001 1.333121e+001
      endloop
   endfacet
   facet normal 9.995978e-001 -3.873463e-018 -2.835782e-002
      outer loop
         vertex 3.333866e+001 1.031875e+001 1.333121e+001
         vertex 3.330732e+001 7.143750e+000 1.222645e+001
         vertex 3.330732e+001 1.031875e+001 1.222645e+001
      endloop
   endfacet
   facet normal 9.343600e-001 4.867201e-017 3.563303e-001
      outer loop
         vertex 3.330732e+001 7.143750e+000 1.222645e+001
         vertex 3.370114e+001 7.143750e+000 1.119379e+001
         vertex 3.330732e+001 1.031875e+001 1.222645e+001
      endloop
   endfacet
   facet normal 9.343600e-001 4.867201e-017 3.563303e-001
      outer loop
         vertex 3.330732e+001 1.031875e+001 1.222645e+001
         vertex 3.370114e+001 7.143750e+000 1.119379e+001
         vertex 3.370114e+001 1.031875e+001 1.119379e+001
      endloop
   endfacet
   facet normal 7.268744e-001 9.380762e-017 6.867704e-001
      outer loop
         vertex 3.370114e+001 7.143750e+000 1.119379e+001
         vertex 3.446016e+001 7.143750e+000 1.039044e+001
         vertex 3.370114e+001 1.031875e+001 1.119379e+001
      endloop
   endfacet
   facet normal 7.268744e-001 9.380762e-017 6.867704e-001
      outer loop
         vertex 3.370114e+001 1.031875e+001 1.119379e+001
         vertex 3.446016e+001 7.143750e+000 1.039044e+001
         vertex 3.446016e+001 1.031875e+001 1.039044e+001
      endloop
   endfacet
   facet normal 4.087287e-001 1.246619e-016 9.126559e-001
      outer loop
         vertex 3.446016e+001 7.143750e+000 1.039044e+001
         vertex 3.546884e+001 7.143750e+000 9.938713e+000
         vertex 3.446016e+001 1.031875e+001 1.039044e+001
      endloop
   endfacet
   facet normal 4.087287e-001 1.246619e-016 9.126559e-001
      outer loop
         vertex 3.446016e+001 1.031875e+001 1.039044e+001
         vertex 3.546884e+001 7.143750e+000 9.938713e+000
         vertex 3.546884e+001 1.031875e+001 9.938713e+000
      endloop
   endfacet
   facet normal 0.000000e+000 0.000000e+000 1.000000e+000
      outer loop
         vertex 2.101875e+001 3.968750e+000 1.069660e+001
         vertex 2.101875e+001 5.731806e+000 1.069660e+001
         vertex 2.022500e+001 3.968750e+000 1.069660e+001
      endloop
   endfacet
   facet normal 0.000000e+000 0.000000e+000 1.000000e+000
      outer loop
         vertex 2.022500e+001 3.968750e+000 1.069660e+001
         vertex 2.101875e+001 5.731806e+000 1.069660e+001
         vertex 2.022500e+001 5.731806e+000 1.069660e+001
      endloop
   endfacet
   facet normal 0.000000e+000 -1.000000e+000 0.000000e+000
      outer loop
         vertex 2.101875e+001 5.731806e+000 1.069660e+001
         vertex 2.101875e+001 5.731806e+000 1.468896e+001
         vertex 2.022500e+001 5.731806e+000 1.069660e+001
      endloop
   endfacet
   facet normal 0.000000e+000 -1.000000e+000 0.000000e+000
      outer loop
         vertex 2.022500e+001 5.731806e+000 1.069660e+001
         vertex 2.101875e+001 5.731806e+000 1.468896e+001
         vertex 2.022500e+001 5.731806e+000 1.468896e+001
      endloop
   endfacet
   facet normal 0.000000e+000 0.000000e+000 -1.000000e+000
      outer loop
         vertex 2.101875e+001 5.731806e+000 1.468896e+001
         vertex 2.101875e+001 3.968750e+000 1.468896e+001
         vertex 2.022500e+001 5.731806e+000 1.468896e+001
      endloop
   endfacet
   facet normal 0.000000e+000 0.000000e+000 -1.000000e+000
      outer loop
         vertex 2.022500e+001 5.731806e+000 1.468896e+001
         vertex 2.101875e+001 3.968750e+000 1.468896e+001
         vertex 2.022500e+001 3.968750e+000 1.468896e+001
      endloop
   endfacet
   facet normal -1.000000e+000 0.000000e+000 0.000000e+000
      outer loop
         vertex 2.101875e+001 3.968750e+000 1.468896e+001
         vertex 2.101875e+001 5.731806e+000 1.468896e+001
         vertex 2.101875e+001 3.968750e+000 1.069660e+001
      endloop
   endfacet
   facet normal -1.000000e+000 0.000000e+000 0.000000e+000
      outer loop
         vertex 2.101875e+001 3.968750e+000 1.069660e+001
         vertex 2.101875e+001 5.731806e+000 1.468896e+001
         vertex 2.101875e+001 5.731806e+000 1.069660e+001
      endloop
   endfacet
endsolid