solid Vex_Line_Follower_top
   facet normal -1.000000e+000 0.000000e+000 0.000000e+000
      outer loop
         vertex 5.356250e+001 3.968750e+000 5.029142e-005
         vertex 5.356250e+001 3.968750e+000 1.905005e+001
         vertex 5.356250e+001 1.587500e+001 5.029142e-005
      endloop
   endfacet
   facet normal -1.000000e+000 0.000000e+000 0.000000e+000
      outer loop
         vertex 5.356250e+001 1.587500e+001 5.029142e-005
         vertex 5.356250e+001 3.968750e+000 1.905005e+001
         vertex 5.356250e+001 1.587500e+001 1.905005e+001
      endloop
   endfacet
   facet normal 0.000000e+000 1.224606e-016 1.000000e+000
      outer loop
         vertex 5.356250e+001 3.968750e+000 1.905005e+001
         vertex 5.673750e+001 3.968750e+000 1.905005e+001
         vertex 5.356250e+001 1.587500e+001 1.905005e+001
      endloop
   endfacet
   facet normal 0.000000e+000 1.224606e-016 1.000000e+000
      outer loop
         vertex 5.356250e+001 1.587500e+001 1.905005e+001
         vertex 5.673750e+001 3.968750e+000 1.905005e+001
         vertex 5.673750e+001 1.984375e+001 1.905005e+001
      endloop
   endfacet
   facet normal 0.000000e+000 1.224606e-016 1.000000e+000
      outer loop
         vertex 5.356250e+001 1.587500e+001 1.905005e+001
         vertex 5.673750e+001 1.984375e+001 1.905005e+001
         vertex 2.340000e+001 1.587500e+001 1.905005e+001
      endloop
   endfacet
   facet normal 0.000000e+000 1.224606e-016 1.000000e+000
      outer loop
         vertex 2.340000e+001 1.587500e+001 1.905005e+001
         vertex 5.673750e+001 1.984375e+001 1.905005e+001
         vertex 2.022500e+001 1.984375e+001 1.905005e+001
      endloop
   endfacet
   facet normal 0.000000e+000 1.224606e-016 1.000000e+000
      outer loop
         vertex 2.340000e+001 1.587500e+001 1.905005e+001
         vertex 2.022500e+001 1.984375e+001 1.905005e+001
         vertex 2.340000e+001 3.968750e+000 1.905005e+001
      endloop
   endfacet
   facet normal 0.000000e+000 1.224606e-016 1.000000e+000
      outer loop
         vertex 2.340000e+001 3.968750e+000 1.905005e+001
         vertex 2.022500e+001 1.984375e+001 1.905005e+001
         vertex 2.022500e+001 3.968750e+000 1.905005e+001
      endloop
   endfacet
   facet normal 1.000000e+000 0.000000e+000 0.000000e+000
      outer loop
         vertex 5.673750e+001 1.984375e+001 5.029142e-005
         vertex 5.673750e+001 1.984375e+001 1.905005e+001
         vertex 5.673750e+001 3.968750e+000 5.029142e-005
      endloop
   endfacet
   facet normal 1.000000e+000 0.000000e+000 0.000000e+000
      outer loop
         vertex 5.673750e+001 3.968750e+000 5.029142e-005
         vertex 5.673750e+001 1.984375e+001 1.905005e+001
         vertex 5.673750e+001 3.968750e+000 1.905005e+001
      endloop
   endfacet
   facet normal 0.000000e+000 -1.224606e-016 -1.000000e+000
      outer loop
         vertex 2.340000e+001 3.968750e+000 5.029142e-005
         vertex 2.022500e+001 3.968750e+000 5.029142e-005
         vertex 2.340000e+001 1.587500e+001 5.029142e-005
      endloop
   endfacet
   facet normal 0.000000e+000 -1.224606e-016 -1.000000e+000
      outer loop
         vertex 2.340000e+001 1.587500e+001 5.029142e-005
         vertex 2.022500e+001 3.968750e+000 5.029142e-005
         vertex 2.022500e+001 1.984375e+001 5.029142e-005
      endloop
   endfacet
   facet normal 0.000000e+000 -1.224606e-016 -1.000000e+000
      outer loop
         vertex 2.340000e+001 1.587500e+001 5.029142e-005
         vertex 2.022500e+001 1.984375e+001 5.029142e-005
         vertex 5.356250e+001 1.587500e+001 5.029142e-005
      endloop
   endfacet
   facet normal 0.000000e+000 -1.224606e-016 -1.000000e+000
      outer loop
         vertex 5.356250e+001 1.587500e+001 5.029142e-005
         vertex 2.022500e+001 1.984375e+001 5.029142e-005
         vertex 5.673750e+001 1.984375e+001 5.029142e-005
      endloop
   endfacet
   facet normal 0.000000e+000 -1.224606e-016 -1.000000e+000
      outer loop
         vertex 5.356250e+001 1.587500e+001 5.029142e-005
         vertex 5.673750e+001 1.984375e+001 5.029142e-005
         vertex 5.356250e+001 3.968750e+000 5.029142e-005
      endloop
   endfacet
   facet normal 0.000000e+000 -1.224606e-016 -1.000000e+000
      outer loop
         vertex 5.356250e+001 3.968750e+000 5.029142e-005
         vertex 5.673750e+001 1.984375e+001 5.029142e-005
         vertex 5.673750e+001 3.968750e+000 5.029142e-005
      endloop
   endfacet
   facet normal 0.000000e+000 1.000000e+000 -1.365924e-016
      outer loop
         vertex 4.562500e+001 1.984375e+001 6.350050e+000
         vertex 5.673750e+001 1.984375e+001 5.029142e-005
         vertex 3.292500e+001 1.984375e+001 6.350051e+000
      endloop
   endfacet
   facet normal 0.000000e+000 1.000000e+000 -1.365924e-016
      outer loop
         vertex 3.292500e+001 1.984375e+001 6.350050e+000
         vertex 5.673750e+001 1.984375e+001 5.029142e-005
         vertex 2.022500e+001 1.984375e+001 5.029142e-005
      endloop
   endfacet
   facet normal 0.000000e+000 1.000000e+000 -1.365924e-016
      outer loop
         vertex 3.292500e+001 1.984375e+001 6.350050e+000
         vertex 2.022500e+001 1.984375e+001 5.029142e-005
         vertex 3.292500e+001 1.984375e+001 1.270005e+001
      endloop
   endfacet
   facet normal 0.000000e+000 1.000000e+000 -1.365924e-016
      outer loop
         vertex 3.292500e+001 1.984375e+001 1.270005e+001
         vertex 2.022500e+001 1.984375e+001 5.029142e-005
         vertex 2.022500e+001 1.984375e+001 1.905005e+001
      endloop
   endfacet
   facet normal 0.000000e+000 1.000000e+000 -1.365924e-016
      outer loop
         vertex 3.292500e+001 1.984375e+001 1.270005e+001
         vertex 2.022500e+001 1.984375e+001 1.905005e+001
         vertex 4.562500e+001 1.984375e+001 1.270005e+001
      endloop
   endfacet
   facet normal 0.000000e+000 1.000000e+000 -1.365924e-016
      outer loop
         vertex 4.562500e+001 1.984375e+001 1.270005e+001
         vertex 2.022500e+001 1.984375e+001 1.905005e+001
         vertex 5.673750e+001 1.984375e+001 1.905005e+001
      endloop
   endfacet
   facet normal 0.000000e+000 1.000000e+000 -1.365924e-016
      outer loop
         vertex 4.562500e+001 1.984375e+001 1.270005e+001
         vertex 5.673750e+001 1.984375e+001 1.905005e+001
         vertex 4.562500e+001 1.984375e+001 6.350051e+000
      endloop
   endfacet
   facet normal 0.000000e+000 1.000000e+000 -1.365924e-016
      outer loop
         vertex 4.562500e+001 1.984375e+001 6.350050e+000
         vertex 5.673750e+001 1.984375e+001 1.905005e+001
         vertex 5.673750e+001 1.984375e+001 5.029142e-005
      endloop
   endfacet
   facet normal 0.000000e+000 -1.000000e+000 1.365924e-016
      outer loop
         vertex 5.673750e+001 3.968750e+000 5.029142e-005
         vertex 5.673750e+001 3.968750e+000 1.905005e+001
         vertex 5.356250e+001 3.968750e+000 5.029142e-005
      endloop
   endfacet
   facet normal 0.000000e+000 -1.000000e+000 1.365924e-016
      outer loop
         vertex 5.356250e+001 3.968750e+000 5.029142e-005
         vertex 5.673750e+001 3.968750e+000 1.905005e+001
         vertex 5.356250e+001 3.968750e+000 1.905005e+001
      endloop
   endfacet
   facet normal 0.000000e+000 -1.000000e+000 1.821232e-016
      outer loop
         vertex 3.292500e+001 1.587500e+001 6.350050e+000
         vertex 2.340000e+001 1.587500e+001 5.029142e-005
         vertex 5.356250e+001 1.587500e+001 5.029142e-005
      endloop
   endfacet
   facet normal 0.000000e+000 -1.000000e+000 1.821232e-016
      outer loop
         vertex 2.340000e+001 1.587500e+001 5.029142e-005
         vertex 3.292500e+001 1.587500e+001 6.350050e+000
         vertex 2.340000e+001 1.587500e+001 1.905005e+001
      endloop
   endfacet
   facet normal 0.000000e+000 -1.000000e+000 1.821232e-016
      outer loop
         vertex 2.340000e+001 1.587500e+001 1.905005e+001
         vertex 3.292500e+001 1.587500e+001 6.350050e+000
         vertex 3.292500e+001 1.587500e+001 1.270005e+001
      endloop
   endfacet
   facet normal 0.000000e+000 -1.000000e+000 1.821232e-016
      outer loop
         vertex 2.340000e+001 1.587500e+001 1.905005e+001
         vertex 3.292500e+001 1.587500e+001 1.270005e+001
         vertex 5.356250e+001 1.587500e+001 1.905005e+001
      endloop
   endfacet
   facet normal 0.000000e+000 -1.000000e+000 1.821232e-016
      outer loop
         vertex 5.356250e+001 1.587500e+001 1.905005e+001
         vertex 3.292500e+001 1.587500e+001 1.270005e+001
         vertex 4.562500e+001 1.587500e+001 1.270005e+001
      endloop
   endfacet
   facet normal 0.000000e+000 -1.000000e+000 1.821232e-016
      outer loop
         vertex 5.356250e+001 1.587500e+001 1.905005e+001
         vertex 4.562500e+001 1.587500e+001 1.270005e+001
         vertex 5.356250e+001 1.587500e+001 5.029142e-005
      endloop
   endfacet
   facet normal 0.000000e+000 -1.000000e+000 1.821232e-016
      outer loop
         vertex 5.356250e+001 1.587500e+001 5.029142e-005
         vertex 4.562500e+001 1.587500e+001 1.270005e+001
         vertex 4.562500e+001 1.587500e+001 6.350051e+000
      endloop
   endfacet
   facet normal 0.000000e+000 -1.000000e+000 1.821232e-016
      outer loop
         vertex 5.356250e+001 1.587500e+001 5.029142e-005
         vertex 4.562500e+001 1.587500e+001 6.350050e+000
         vertex 3.292500e+001 1.587500e+001 6.350051e+000
      endloop
   endfacet
   facet normal 1.000000e+000 0.000000e+000 0.000000e+000
      outer loop
         vertex 3.292500e+001 1.984375e+001 6.350050e+000
         vertex 3.292500e+001 1.984375e+001 1.270005e+001
         vertex 3.292500e+001 1.587500e+001 6.350051e+000
      endloop
   endfacet
   facet normal 1.000000e+000 0.000000e+000 0.000000e+000
      outer loop
         vertex 3.292500e+001 1.587500e+001 6.350050e+000
         vertex 3.292500e+001 1.984375e+001 1.270005e+001
         vertex 3.292500e+001 1.587500e+001 1.270005e+001
      endloop
   endfacet
   facet normal 0.000000e+000 -1.224606e-016 -1.000000e+000
      outer loop
         vertex 3.292500e+001 1.984375e+001 1.270005e+001
         vertex 4.562500e+001 1.984375e+001 1.270005e+001
         vertex 3.292500e+001 1.587500e+001 1.270005e+001
      endloop
   endfacet
   facet normal 0.000000e+000 -1.224606e-016 -1.000000e+000
      outer loop
         vertex 3.292500e+001 1.587500e+001 1.270005e+001
         vertex 4.562500e+001 1.984375e+001 1.270005e+001
         vertex 4.562500e+001 1.587500e+001 1.270005e+001
      endloop
   endfacet
   facet normal -1.000000e+000 0.000000e+000 0.000000e+000
      outer loop
         vertex 4.562500e+001 1.984375e+001 1.270005e+001
         vertex 4.562500e+001 1.984375e+001 6.350050e+000
         vertex 4.562500e+001 1.587500e+001 1.270005e+001
      endloop
   endfacet
   facet normal -1.000000e+000 0.000000e+000 0.000000e+000
      outer loop
         vertex 4.562500e+001 1.587500e+001 1.270005e+001
         vertex 4.562500e+001 1.984375e+001 6.350050e+000
         vertex 4.562500e+001 1.587500e+001 6.350051e+000
      endloop
   endfacet
   facet normal 0.000000e+000 1.224606e-016 1.000000e+000
      outer loop
         vertex 4.562500e+001 1.984375e+001 6.350050e+000
         vertex 3.292500e+001 1.984375e+001 6.350050e+000
         vertex 4.562500e+001 1.587500e+001 6.350051e+000
      endloop
   endfacet
   facet normal 0.000000e+000 1.224606e-016 1.000000e+000
      outer loop
         vertex 4.562500e+001 1.587500e+001 6.350050e+000
         vertex 3.292500e+001 1.984375e+001 6.350050e+000
         vertex 3.292500e+001 1.587500e+001 6.350051e+000
      endloop
   endfacet
   facet normal 1.000000e+000 0.000000e+000 0.000000e+000
      outer loop
         vertex 2.340000e+001 3.968750e+000 1.905005e+001
         vertex 2.340000e+001 3.968750e+000 5.029142e-005
         vertex 2.340000e+001 1.587500e+001 1.905005e+001
      endloop
   endfacet
   facet normal 1.000000e+000 0.000000e+000 0.000000e+000
      outer loop
         vertex 2.340000e+001 1.587500e+001 1.905005e+001
         vertex 2.340000e+001 3.968750e+000 5.029142e-005
         vertex 2.340000e+001 1.587500e+001 5.029142e-005
      endloop
   endfacet
   facet normal -1.000000e+000 0.000000e+000 0.000000e+000
      outer loop
         vertex 2.022500e+001 5.080000e+000 8.890051e+000
         vertex 2.022500e+001 1.984375e+001 5.029142e-005
         vertex 2.022500e+001 4.091815e+000 8.890050e+000
      endloop
   endfacet
   facet normal -1.000000e+000 0.000000e+000 0.000000e+000
      outer loop
         vertex 2.022500e+001 4.091815e+000 8.890051e+000
         vertex 2.022500e+001 1.984375e+001 5.029142e-005
         vertex 2.022500e+001 3.968750e+000 5.029142e-005
      endloop
   endfacet
   facet normal -1.000000e+000 0.000000e+000 0.000000e+000
      outer loop
         vertex 2.022500e+001 4.091815e+000 8.890051e+000
         vertex 2.022500e+001 3.968750e+000 5.029142e-005
         vertex 2.022500e+001 4.091815e+000 1.143005e+001
      endloop
   endfacet
   facet normal -1.000000e+000 0.000000e+000 0.000000e+000
      outer loop
         vertex 2.022500e+001 4.091815e+000 1.143005e+001
         vertex 2.022500e+001 3.968750e+000 5.029142e-005
         vertex 2.022500e+001 3.968750e+000 1.905005e+001
      endloop
   endfacet
   facet normal -1.000000e+000 0.000000e+000 0.000000e+000
      outer loop
         vertex 2.022500e+001 4.091815e+000 1.143005e+001
         vertex 2.022500e+001 3.968750e+000 1.905005e+001
         vertex 2.022500e+001 5.080000e+000 1.143005e+001
      endloop
   endfacet
   facet normal -1.000000e+000 0.000000e+000 0.000000e+000
      outer loop
         vertex 2.022500e+001 5.080000e+000 1.143005e+001
         vertex 2.022500e+001 3.968750e+000 1.905005e+001
         vertex 2.022500e+001 1.984375e+001 1.905005e+001
      endloop
   endfacet
   facet normal -1.000000e+000 0.000000e+000 0.000000e+000
      outer loop
         vertex 2.022500e+001 5.080000e+000 1.143005e+001
         vertex 2.022500e+001 1.984375e+001 1.905005e+001
         vertex 2.022500e+001 5.080000e+000 8.890050e+000
      endloop
   endfacet
   facet normal -1.000000e+000 0.000000e+000 0.000000e+000
      outer loop
         vertex 2.022500e+001 5.080000e+000 8.890051e+000
         vertex 2.022500e+001 1.984375e+001 1.905005e+001
         vertex 2.022500e+001 1.984375e+001 5.029142e-005
      endloop
   endfacet
   facet normal 0.000000e+000 -1.000000e+000 1.365924e-016
      outer loop
         vertex 2.340000e+001 3.968750e+000 5.029142e-005
         vertex 2.340000e+001 3.968750e+000 1.905005e+001
         vertex 2.022500e+001 3.968750e+000 5.029142e-005
      endloop
   endfacet
   facet normal 0.000000e+000 -1.000000e+000 1.365924e-016
      outer loop
         vertex 2.022500e+001 3.968750e+000 5.029142e-005
         vertex 2.340000e+001 3.968750e+000 1.905005e+001
         vertex 2.022500e+001 3.968750e+000 1.905005e+001
      endloop
   endfacet
   facet normal 0.000000e+000 0.000000e+000 1.000000e+000
      outer loop
         vertex 2.101875e+001 4.091815e+000 8.890051e+000
         vertex 2.101875e+001 5.080000e+000 8.890051e+000
         vertex 2.022500e+001 4.091815e+000 8.890050e+000
      endloop
   endfacet
   facet normal 0.000000e+000 0.000000e+000 1.000000e+000
      outer loop
         vertex 2.022500e+001 4.091815e+000 8.890051e+000
         vertex 2.101875e+001 5.080000e+000 8.890051e+000
         vertex 2.022500e+001 5.080000e+000 8.890050e+000
      endloop
   endfacet
   facet normal 0.000000e+000 -1.000000e+000 0.000000e+000
      outer loop
         vertex 2.101875e+001 5.080000e+000 8.890051e+000
         vertex 2.101875e+001 5.080000e+000 1.143005e+001
         vertex 2.022500e+001 5.080000e+000 8.890050e+000
      endloop
   endfacet
   facet normal 0.000000e+000 -1.000000e+000 0.000000e+000
      outer loop
         vertex 2.022500e+001 5.080000e+000 8.890051e+000
         vertex 2.101875e+001 5.080000e+000 1.143005e+001
         vertex 2.022500e+001 5.080000e+000 1.143005e+001
      endloop
   endfacet
   facet normal 0.000000e+000 0.000000e+000 -1.000000e+000
      outer loop
         vertex 2.101875e+001 5.080000e+000 1.143005e+001
         vertex 2.101875e+001 4.091815e+000 1.143005e+001
         vertex 2.022500e+001 5.080000e+000 1.143005e+001
      endloop
   endfacet
   facet normal 0.000000e+000 0.000000e+000 -1.000000e+000
      outer loop
         vertex 2.022500e+001 5.080000e+000 1.143005e+001
         vertex 2.101875e+001 4.091815e+000 1.143005e+001
         vertex 2.022500e+001 4.091815e+000 1.143005e+001
      endloop
   endfacet
   facet normal 0.000000e+000 1.000000e+000 0.000000e+000
      outer loop
         vertex 2.101875e+001 4.091815e+000 1.143005e+001
         vertex 2.101875e+001 4.091815e+000 8.890051e+000
         vertex 2.022500e+001 4.091815e+000 1.143005e+001
      endloop
   endfacet
   facet normal 0.000000e+000 1.000000e+000 0.000000e+000
      outer loop
         vertex 2.022500e+001 4.091815e+000 1.143005e+001
         vertex 2.101875e+001 4.091815e+000 8.890051e+000
         vertex 2.022500e+001 4.091815e+000 8.890050e+000
      endloop
   endfacet
   facet normal -1.000000e+000 0.000000e+000 0.000000e+000
      outer loop
         vertex 2.101875e+001 4.091815e+000 1.143005e+001
         vertex 2.101875e+001 5.080000e+000 1.143005e+001
         vertex 2.101875e+001 4.091815e+000 8.890050e+000
      endloop
   endfacet
   facet normal -1.000000e+000 0.000000e+000 0.000000e+000
      outer loop
         vertex 2.101875e+001 4.091815e+000 8.890051e+000
         vertex 2.101875e+001 5.080000e+000 1.143005e+001
         vertex 2.101875e+001 5.080000e+000 8.890050e+000
      endloop
   endfacet
endsolid