solid Vex_Limit_Switch_base
   facet normal 0.000000e+000 1.000000e+000 0.000000e+000
      outer loop
         vertex 2.340000e+001 3.968750e+000 3.790000e+001
         vertex 2.022500e+001 3.968750e+000 4.266250e+001
         vertex 5.197500e+001 3.968750e+000 4.266250e+001
      endloop
   endfacet
   facet normal 0.000000e+000 1.000000e+000 0.000000e+000
      outer loop
         vertex 2.022500e+001 3.968750e+000 4.266250e+001
         vertex 2.340000e+001 3.968750e+000 3.790000e+001
         vertex 2.022500e+001 3.968750e+000 1.250000e+001
      endloop
   endfacet
   facet normal 0.000000e+000 1.000000e+000 0.000000e+000
      outer loop
         vertex 2.022500e+001 3.968750e+000 1.250000e+001
         vertex 2.340000e+001 3.968750e+000 3.790000e+001
         vertex 2.340000e+001 3.968750e+000 3.313750e+001
      endloop
   endfacet
   facet normal 0.000000e+000 1.000000e+000 0.000000e+000
      outer loop
         vertex 2.022500e+001 3.968750e+000 1.250000e+001
         vertex 2.340000e+001 3.968750e+000 3.313750e+001
         vertex 5.197500e+001 3.968750e+000 1.250000e+001
      endloop
   endfacet
   facet normal 0.000000e+000 1.000000e+000 0.000000e+000
      outer loop
         vertex 5.197500e+001 3.968750e+000 1.250000e+001
         vertex 2.340000e+001 3.968750e+000 3.313750e+001
         vertex 4.880000e+001 3.968750e+000 3.313750e+001
      endloop
   endfacet
   facet normal 0.000000e+000 1.000000e+000 0.000000e+000
      outer loop
         vertex 5.197500e+001 3.968750e+000 1.250000e+001
         vertex 4.880000e+001 3.968750e+000 3.313750e+001
         vertex 5.197500e+001 3.968750e+000 4.266250e+001
      endloop
   endfacet
   facet normal 0.000000e+000 1.000000e+000 0.000000e+000
      outer loop
         vertex 5.197500e+001 3.968750e+000 4.266250e+001
         vertex 4.880000e+001 3.968750e+000 3.313750e+001
         vertex 4.880000e+001 3.968750e+000 3.790000e+001
      endloop
   endfacet
   facet normal 0.000000e+000 1.000000e+000 0.000000e+000
      outer loop
         vertex 5.197500e+001 3.968750e+000 4.266250e+001
         vertex 4.880000e+001 3.968750e+000 3.790000e+001
         vertex 2.340000e+001 3.968750e+000 3.790000e+001
      endloop
   endfacet
   facet normal 0.000000e+000 -1.000000e+000 0.000000e+000
      outer loop
         vertex 4.880000e+001 0.000000e+000 3.790000e+001
         vertex 5.197500e+001 0.000000e+000 4.266250e+001
         vertex 2.340000e+001 0.000000e+000 3.790000e+001
      endloop
   endfacet
   facet normal 0.000000e+000 -1.000000e+000 0.000000e+000
      outer loop
         vertex 2.340000e+001 0.000000e+000 3.790000e+001
         vertex 5.197500e+001 0.000000e+000 4.266250e+001
         vertex 2.022500e+001 0.000000e+000 4.266250e+001
      endloop
   endfacet
   facet normal 0.000000e+000 -1.000000e+000 0.000000e+000
      outer loop
         vertex 2.340000e+001 0.000000e+000 3.790000e+001
         vertex 2.022500e+001 0.000000e+000 4.266250e+001
         vertex 2.340000e+001 0.000000e+000 3.313750e+001
      endloop
   endfacet
   facet normal 0.000000e+000 -1.000000e+000 0.000000e+000
      outer loop
         vertex 2.340000e+001 0.000000e+000 3.313750e+001
         vertex 2.022500e+001 0.000000e+000 4.266250e+001
         vertex 2.022500e+001 0.000000e+000 1.250000e+001
      endloop
   endfacet
   facet normal 0.000000e+000 -1.000000e+000 0.000000e+000
      outer loop
         vertex 2.340000e+001 0.000000e+000 3.313750e+001
         vertex 2.022500e+001 0.000000e+000 1.250000e+001
         vertex 4.880000e+001 0.000000e+000 3.313750e+001
      endloop
   endfacet
   facet normal 0.000000e+000 -1.000000e+000 0.000000e+000
      outer loop
         vertex 4.880000e+001 0.000000e+000 3.313750e+001
         vertex 2.022500e+001 0.000000e+000 1.250000e+001
         vertex 5.197500e+001 0.000000e+000 1.250000e+001
      endloop
   endfacet
   facet normal 0.000000e+000 -1.000000e+000 0.000000e+000
      outer loop
         vertex 4.880000e+001 0.000000e+000 3.313750e+001
         vertex 5.197500e+001 0.000000e+000 1.250000e+001
         vertex 4.880000e+001 0.000000e+000 3.790000e+001
      endloop
   endfacet
   facet normal 0.000000e+000 -1.000000e+000 0.000000e+000
      outer loop
         vertex 4.880000e+001 0.000000e+000 3.790000e+001
         vertex 5.197500e+001 0.000000e+000 1.250000e+001
         vertex 5.197500e+001 0.000000e+000 4.266250e+001
      endloop
   endfacet
   facet normal -1.000000e+000 0.000000e+000 0.000000e+000
      outer loop
         vertex 2.022500e+001 3.968750e+000 4.266250e+001
         vertex 2.022500e+001 3.968750e+000 1.250000e+001
         vertex 2.022500e+001 0.000000e+000 4.266250e+001
      endloop
   endfacet
   facet normal -1.000000e+000 0.000000e+000 0.000000e+000
      outer loop
         vertex 2.022500e+001 0.000000e+000 4.266250e+001
         vertex 2.022500e+001 3.968750e+000 1.250000e+001
         vertex 2.022500e+001 0.000000e+000 1.250000e+001
      endloop
   endfacet
   facet normal 0.000000e+000 0.000000e+000 1.000000e+000
      outer loop
         vertex 5.197500e+001 3.968750e+000 4.266250e+001
         vertex 2.022500e+001 3.968750e+000 4.266250e+001
         vertex 5.197500e+001 0.000000e+000 4.266250e+001
      endloop
   endfacet
   facet normal 0.000000e+000 0.000000e+000 1.000000e+000
      outer loop
         vertex 5.197500e+001 0.000000e+000 4.266250e+001
         vertex 2.022500e+001 3.968750e+000 4.266250e+001
         vertex 2.022500e+001 0.000000e+000 4.266250e+001
      endloop
   endfacet
   facet normal 1.000000e+000 0.000000e+000 -2.300503e-016
      outer loop
         vertex 5.197500e+001 3.968750e+000 1.250000e+001
         vertex 5.197500e+001 3.968750e+000 4.266250e+001
         vertex 5.197500e+001 0.000000e+000 1.250000e+001
      endloop
   endfacet
   facet normal 1.000000e+000 0.000000e+000 -2.300503e-016
      outer loop
         vertex 5.197500e+001 0.000000e+000 1.250000e+001
         vertex 5.197500e+001 3.968750e+000 4.266250e+001
         vertex 5.197500e+001 0.000000e+000 4.266250e+001
      endloop
   endfacet
   facet normal 0.000000e+000 0.000000e+000 -1.000000e+000
      outer loop
         vertex 2.022500e+001 3.968750e+000 1.250000e+001
         vertex 5.197500e+001 3.968750e+000 1.250000e+001
         vertex 2.022500e+001 0.000000e+000 1.250000e+001
      endloop
   endfacet
   facet normal 0.000000e+000 0.000000e+000 -1.000000e+000
      outer loop
         vertex 2.022500e+001 0.000000e+000 1.250000e+001
         vertex 5.197500e+001 3.968750e+000 1.250000e+001
         vertex 5.197500e+001 0.000000e+000 1.250000e+001
      endloop
   endfacet
   facet normal 1.000000e+000 0.000000e+000 0.000000e+000
      outer loop
         vertex 2.340000e+001 3.968750e+000 3.313750e+001
         vertex 2.340000e+001 3.968750e+000 3.790000e+001
         vertex 2.340000e+001 0.000000e+000 3.313750e+001
      endloop
   endfacet
   facet normal 1.000000e+000 0.000000e+000 0.000000e+000
      outer loop
         vertex 2.340000e+001 0.000000e+000 3.313750e+001
         vertex 2.340000e+001 3.968750e+000 3.790000e+001
         vertex 2.340000e+001 0.000000e+000 3.790000e+001
      endloop
   endfacet
   facet normal 0.000000e+000 0.000000e+000 -1.000000e+000
      outer loop
         vertex 2.340000e+001 3.968750e+000 3.790000e+001
         vertex 4.880000e+001 3.968750e+000 3.790000e+001
         vertex 2.340000e+001 0.000000e+000 3.790000e+001
      endloop
   endfacet
   facet normal 0.000000e+000 0.000000e+000 -1.000000e+000
      outer loop
         vertex 2.340000e+001 0.000000e+000 3.790000e+001
         vertex 4.880000e+001 3.968750e+000 3.790000e+001
         vertex 4.880000e+001 0.000000e+000 3.790000e+001
      endloop
   endfacet
   facet normal -1.000000e+000 0.000000e+000 0.000000e+000
      outer loop
         vertex 4.880000e+001 3.968750e+000 3.790000e+001
         vertex 4.880000e+001 3.968750e+000 3.313750e+001
         vertex 4.880000e+001 0.000000e+000 3.790000e+001
      endloop
   endfacet
   facet normal -1.000000e+000 0.000000e+000 0.000000e+000
      outer loop
         vertex 4.880000e+001 0.000000e+000 3.790000e+001
         vertex 4.880000e+001 3.968750e+000 3.313750e+001
         vertex 4.880000e+001 0.000000e+000 3.313750e+001
      endloop
   endfacet
   facet normal 0.000000e+000 0.000000e+000 1.000000e+000
      outer loop
         vertex 4.880000e+001 3.968750e+000 3.313750e+001
         vertex 2.340000e+001 3.968750e+000 3.313750e+001
         vertex 4.880000e+001 0.000000e+000 3.313750e+001
      endloop
   endfacet
   facet normal 0.000000e+000 0.000000e+000 1.000000e+000
      outer loop
         vertex 4.880000e+001 0.000000e+000 3.313750e+001
         vertex 2.340000e+001 3.968750e+000 3.313750e+001
         vertex 2.340000e+001 0.000000e+000 3.313750e+001
      endloop
   endfacet
endsolid