solid Vex_Wheel_Lg
   facet normal 0.000000e+000 0.000000e+000 1.000000e+000
      outer loop
         vertex 6.405350e+001 1.165347e+002 2.159000e+001
         vertex 6.474404e+001 1.256034e+002 2.159000e+001
         vertex 4.428665e+001 1.123281e+002 2.159000e+001
      endloop
   endfacet
   facet normal 0.000000e+000 0.000000e+000 1.000000e+000
      outer loop
         vertex 4.428665e+001 1.123281e+002 2.159000e+001
         vertex 6.474404e+001 1.256034e+002 2.159000e+001
         vertex 4.145416e+001 1.209708e+002 2.159000e+001
      endloop
   endfacet
   facet normal 0.000000e+000 0.000000e+000 1.000000e+000
      outer loop
         vertex 4.428665e+001 1.123281e+002 2.159000e+001
         vertex 4.145416e+001 1.209708e+002 2.159000e+001
         vertex 2.763425e+001 1.008773e+002 2.159000e+001
      endloop
   endfacet
   facet normal 0.000000e+000 0.000000e+000 1.000000e+000
      outer loop
         vertex 2.763425e+001 1.008773e+002 2.159000e+001
         vertex 4.145416e+001 1.209708e+002 2.159000e+001
         vertex 2.170995e+001 1.077781e+002 2.159000e+001
      endloop
   endfacet
   facet normal 0.000000e+000 0.000000e+000 1.000000e+000
      outer loop
         vertex 2.763425e+001 1.008773e+002 2.159000e+001
         vertex 2.170995e+001 1.077781e+002 2.159000e+001
         vertex 1.663148e+001 8.392548e+001 2.159000e+001
      endloop
   endfacet
   facet normal 0.000000e+000 0.000000e+000 1.000000e+000
      outer loop
         vertex 1.663148e+001 8.392548e+001 2.159000e+001
         vertex 2.170995e+001 1.077781e+002 2.159000e+001
         vertex 8.517291e+000 8.803392e+001 2.159000e+001
      endloop
   endfacet
   facet normal 0.000000e+000 0.000000e+000 1.000000e+000
      outer loop
         vertex 1.663148e+001 8.392548e+001 2.159000e+001
         vertex 8.517291e+000 8.803392e+001 2.159000e+001
         vertex 1.295341e+001 6.405350e+001 2.159000e+001
      endloop
   endfacet
   facet normal 0.000000e+000 0.000000e+000 1.000000e+000
      outer loop
         vertex 1.295341e+001 6.405350e+001 2.159000e+001
         vertex 8.517291e+000 8.803392e+001 2.159000e+001
         vertex 3.884643e+000 6.474404e+001 2.159000e+001
      endloop
   endfacet
   facet normal 0.000000e+000 0.000000e+000 1.000000e+000
      outer loop
         vertex 1.295341e+001 6.405350e+001 2.159000e+001
         vertex 3.884643e+000 6.474404e+001 2.159000e+001
         vertex 1.716000e+001 4.428665e+001 2.159000e+001
      endloop
   endfacet
   facet normal 0.000000e+000 0.000000e+000 1.000000e+000
      outer loop
         vertex 1.716000e+001 4.428665e+001 2.159000e+001
         vertex 3.884643e+000 6.474404e+001 2.159000e+001
         vertex 8.517291e+000 4.145416e+001 2.159000e+001
      endloop
   endfacet
   facet normal 0.000000e+000 0.000000e+000 1.000000e+000
      outer loop
         vertex 1.716000e+001 4.428665e+001 2.159000e+001
         vertex 8.517291e+000 4.145416e+001 2.159000e+001
         vertex 2.861082e+001 2.763425e+001 2.159000e+001
      endloop
   endfacet
   facet normal 0.000000e+000 0.000000e+000 1.000000e+000
      outer loop
         vertex 2.861082e+001 2.763425e+001 2.159000e+001
         vertex 8.517291e+000 4.145416e+001 2.159000e+001
         vertex 2.170995e+001 2.170995e+001 2.159000e+001
      endloop
   endfacet
   facet normal 0.000000e+000 0.000000e+000 1.000000e+000
      outer loop
         vertex 2.861082e+001 2.763425e+001 2.159000e+001
         vertex 2.170995e+001 2.170995e+001 2.159000e+001
         vertex 4.556260e+001 1.663148e+001 2.159000e+001
      endloop
   endfacet
   facet normal 0.000000e+000 0.000000e+000 1.000000e+000
      outer loop
         vertex 4.556260e+001 1.663148e+001 2.159000e+001
         vertex 2.170995e+001 2.170995e+001 2.159000e+001
         vertex 4.145416e+001 8.517291e+000 2.159000e+001
      endloop
   endfacet
   facet normal 0.000000e+000 0.000000e+000 1.000000e+000
      outer loop
         vertex 4.556260e+001 1.663148e+001 2.159000e+001
         vertex 4.145416e+001 8.517291e+000 2.159000e+001
         vertex 6.543459e+001 1.295341e+001 2.159000e+001
      endloop
   endfacet
   facet normal 0.000000e+000 0.000000e+000 1.000000e+000
      outer loop
         vertex 6.543459e+001 1.295341e+001 2.159000e+001
         vertex 4.145416e+001 8.517291e+000 2.159000e+001
         vertex 6.474404e+001 3.884643e+000 2.159000e+001
      endloop
   endfacet
   facet normal 0.000000e+000 0.000000e+000 1.000000e+000
      outer loop
         vertex 6.543459e+001 1.295341e+001 2.159000e+001
         vertex 6.474404e+001 3.884643e+000 2.159000e+001
         vertex 8.520143e+001 1.716000e+001 2.159000e+001
      endloop
   endfacet
   facet normal 0.000000e+000 0.000000e+000 1.000000e+000
      outer loop
         vertex 8.520143e+001 1.716000e+001 2.159000e+001
         vertex 6.474404e+001 3.884643e+000 2.159000e+001
         vertex 8.803392e+001 8.517291e+000 2.159000e+001
      endloop
   endfacet
   facet normal 0.000000e+000 0.000000e+000 1.000000e+000
      outer loop
         vertex 8.520143e+001 1.716000e+001 2.159000e+001
         vertex 8.803392e+001 8.517291e+000 2.159000e+001
         vertex 1.018538e+002 2.861082e+001 2.159000e+001
      endloop
   endfacet
   facet normal 0.000000e+000 0.000000e+000 1.000000e+000
      outer loop
         vertex 1.018538e+002 2.861082e+001 2.159000e+001
         vertex 8.803392e+001 8.517291e+000 2.159000e+001
         vertex 1.077781e+002 2.170995e+001 2.159000e+001
      endloop
   endfacet
   facet normal 0.000000e+000 0.000000e+000 1.000000e+000
      outer loop
         vertex 1.018538e+002 2.861082e+001 2.159000e+001
         vertex 1.077781e+002 2.170995e+001 2.159000e+001
         vertex 1.128566e+002 4.556260e+001 2.159000e+001
      endloop
   endfacet
   facet normal 0.000000e+000 0.000000e+000 1.000000e+000
      outer loop
         vertex 1.128566e+002 4.556260e+001 2.159000e+001
         vertex 1.077781e+002 2.170995e+001 2.159000e+001
         vertex 1.209708e+002 4.145416e+001 2.159000e+001
      endloop
   endfacet
   facet normal 0.000000e+000 0.000000e+000 1.000000e+000
      outer loop
         vertex 1.128566e+002 4.556260e+001 2.159000e+001
         vertex 1.209708e+002 4.145416e+001 2.159000e+001
         vertex 1.165347e+002 6.543459e+001 2.159000e+001
      endloop
   endfacet
   facet normal 0.000000e+000 0.000000e+000 1.000000e+000
      outer loop
         vertex 1.165347e+002 6.543459e+001 2.159000e+001
         vertex 1.209708e+002 4.145416e+001 2.159000e+001
         vertex 1.256034e+002 6.474404e+001 2.159000e+001
      endloop
   endfacet
   facet normal 0.000000e+000 0.000000e+000 1.000000e+000
      outer loop
         vertex 1.165347e+002 6.543459e+001 2.159000e+001
         vertex 1.256034e+002 6.474404e+001 2.159000e+001
         vertex 1.123281e+002 8.520143e+001 2.159000e+001
      endloop
   endfacet
   facet normal 0.000000e+000 0.000000e+000 1.000000e+000
      outer loop
         vertex 1.123281e+002 8.520143e+001 2.159000e+001
         vertex 1.256034e+002 6.474404e+001 2.159000e+001
         vertex 1.209708e+002 8.803392e+001 2.159000e+001
      endloop
   endfacet
   facet normal 0.000000e+000 0.000000e+000 1.000000e+000
      outer loop
         vertex 1.123281e+002 8.520143e+001 2.159000e+001
         vertex 1.209708e+002 8.803392e+001 2.159000e+001
         vertex 1.008773e+002 1.018538e+002 2.159000e+001
      endloop
   endfacet
   facet normal 0.000000e+000 0.000000e+000 1.000000e+000
      outer loop
         vertex 1.008773e+002 1.018538e+002 2.159000e+001
         vertex 1.209708e+002 8.803392e+001 2.159000e+001
         vertex 1.077781e+002 1.077781e+002 2.159000e+001
      endloop
   endfacet
   facet normal 0.000000e+000 0.000000e+000 1.000000e+000
      outer loop
         vertex 1.008773e+002 1.018538e+002 2.159000e+001
         vertex 1.077781e+002 1.077781e+002 2.159000e+001
         vertex 8.392548e+001 1.128566e+002 2.159000e+001
      endloop
   endfacet
   facet normal 0.000000e+000 0.000000e+000 1.000000e+000
      outer loop
         vertex 8.392548e+001 1.128566e+002 2.159000e+001
         vertex 1.077781e+002 1.077781e+002 2.159000e+001
         vertex 8.803392e+001 1.209708e+002 2.159000e+001
      endloop
   endfacet
   facet normal 0.000000e+000 0.000000e+000 1.000000e+000
      outer loop
         vertex 8.392548e+001 1.128566e+002 2.159000e+001
         vertex 8.803392e+001 1.209708e+002 2.159000e+001
         vertex 6.405350e+001 1.165347e+002 2.159000e+001
      endloop
   endfacet
   facet normal 0.000000e+000 0.000000e+000 1.000000e+000
      outer loop
         vertex 6.405350e+001 1.165347e+002 2.159000e+001
         vertex 8.803392e+001 1.209708e+002 2.159000e+001
         vertex 6.474404e+001 1.256034e+002 2.159000e+001
      endloop
   endfacet
   facet normal 0.000000e+000 0.000000e+000 -1.000000e+000
      outer loop
         vertex 1.663148e+001 8.392548e+001 0.000000e+000
         vertex 1.295341e+001 6.405350e+001 0.000000e+000
         vertex 8.517291e+000 8.803392e+001 0.000000e+000
      endloop
   endfacet
   facet normal 0.000000e+000 0.000000e+000 -1.000000e+000
      outer loop
         vertex 1.663148e+001 8.392548e+001 0.000000e+000
         vertex 8.517291e+000 8.803392e+001 0.000000e+000
         vertex 2.763425e+001 1.008773e+002 0.000000e+000
      endloop
   endfacet
   facet normal 0.000000e+000 0.000000e+000 -1.000000e+000
      outer loop
         vertex 2.763425e+001 1.008773e+002 0.000000e+000
         vertex 8.517291e+000 8.803392e+001 0.000000e+000
         vertex 2.170995e+001 1.077781e+002 0.000000e+000
      endloop
   endfacet
   facet normal 0.000000e+000 0.000000e+000 -1.000000e+000
      outer loop
         vertex 2.763425e+001 1.008773e+002 0.000000e+000
         vertex 2.170995e+001 1.077781e+002 0.000000e+000
         vertex 4.428665e+001 1.123281e+002 0.000000e+000
      endloop
   endfacet
   facet normal 0.000000e+000 0.000000e+000 -1.000000e+000
      outer loop
         vertex 4.428665e+001 1.123281e+002 0.000000e+000
         vertex 2.170995e+001 1.077781e+002 0.000000e+000
         vertex 4.145416e+001 1.209708e+002 0.000000e+000
      endloop
   endfacet
   facet normal 0.000000e+000 0.000000e+000 -1.000000e+000
      outer loop
         vertex 4.428665e+001 1.123281e+002 0.000000e+000
         vertex 4.145416e+001 1.209708e+002 0.000000e+000
         vertex 6.405350e+001 1.165347e+002 0.000000e+000
      endloop
   endfacet
   facet normal 0.000000e+000 0.000000e+000 -1.000000e+000
      outer loop
         vertex 6.405350e+001 1.165347e+002 0.000000e+000
         vertex 4.145416e+001 1.209708e+002 0.000000e+000
         vertex 6.474404e+001 1.256034e+002 0.000000e+000
      endloop
   endfacet
   facet normal 0.000000e+000 0.000000e+000 -1.000000e+000
      outer loop
         vertex 6.405350e+001 1.165347e+002 0.000000e+000
         vertex 6.474404e+001 1.256034e+002 0.000000e+000
         vertex 8.392548e+001 1.128566e+002 0.000000e+000
      endloop
   endfacet
   facet normal 0.000000e+000 0.000000e+000 -1.000000e+000
      outer loop
         vertex 8.392548e+001 1.128566e+002 0.000000e+000
         vertex 6.474404e+001 1.256034e+002 0.000000e+000
         vertex 8.803392e+001 1.209708e+002 0.000000e+000
      endloop
   endfacet
   facet normal 0.000000e+000 0.000000e+000 -1.000000e+000
      outer loop
         vertex 8.392548e+001 1.128566e+002 0.000000e+000
         vertex 8.803392e+001 1.209708e+002 0.000000e+000
         vertex 1.008773e+002 1.018538e+002 0.000000e+000
      endloop
   endfacet
   facet normal 0.000000e+000 0.000000e+000 -1.000000e+000
      outer loop
         vertex 1.008773e+002 1.018538e+002 0.000000e+000
         vertex 8.803392e+001 1.209708e+002 0.000000e+000
         vertex 1.077781e+002 1.077781e+002 0.000000e+000
      endloop
   endfacet
   facet normal 0.000000e+000 0.000000e+000 -1.000000e+000
      outer loop
         vertex 1.008773e+002 1.018538e+002 0.000000e+000
         vertex 1.077781e+002 1.077781e+002 0.000000e+000
         vertex 1.123281e+002 8.520143e+001 0.000000e+000
      endloop
   endfacet
   facet normal 0.000000e+000 0.000000e+000 -1.000000e+000
      outer loop
         vertex 1.123281e+002 8.520143e+001 0.000000e+000
         vertex 1.077781e+002 1.077781e+002 0.000000e+000
         vertex 1.209708e+002 8.803392e+001 0.000000e+000
      endloop
   endfacet
   facet normal 0.000000e+000 0.000000e+000 -1.000000e+000
      outer loop
         vertex 1.123281e+002 8.520143e+001 0.000000e+000
         vertex 1.209708e+002 8.803392e+001 0.000000e+000
         vertex 1.165347e+002 6.543459e+001 0.000000e+000
      endloop
   endfacet
   facet normal 0.000000e+000 0.000000e+000 -1.000000e+000
      outer loop
         vertex 1.165347e+002 6.543459e+001 0.000000e+000
         vertex 1.209708e+002 8.803392e+001 0.000000e+000
         vertex 1.256034e+002 6.474404e+001 0.000000e+000
      endloop
   endfacet
   facet normal 0.000000e+000 0.000000e+000 -1.000000e+000
      outer loop
         vertex 1.165347e+002 6.543459e+001 0.000000e+000
         vertex 1.256034e+002 6.474404e+001 0.000000e+000
         vertex 1.128566e+002 4.556260e+001 0.000000e+000
      endloop
   endfacet
   facet normal 0.000000e+000 0.000000e+000 -1.000000e+000
      outer loop
         vertex 1.128566e+002 4.556260e+001 0.000000e+000
         vertex 1.256034e+002 6.474404e+001 0.000000e+000
         vertex 1.209708e+002 4.145416e+001 0.000000e+000
      endloop
   endfacet
   facet normal 0.000000e+000 0.000000e+000 -1.000000e+000
      outer loop
         vertex 1.128566e+002 4.556260e+001 0.000000e+000
         vertex 1.209708e+002 4.145416e+001 0.000000e+000
         vertex 1.018538e+002 2.861082e+001 0.000000e+000
      endloop
   endfacet
   facet normal 0.000000e+000 0.000000e+000 -1.000000e+000
      outer loop
         vertex 1.018538e+002 2.861082e+001 0.000000e+000
         vertex 1.209708e+002 4.145416e+001 0.000000e+000
         vertex 1.077781e+002 2.170995e+001 0.000000e+000
      endloop
   endfacet
   facet normal 0.000000e+000 0.000000e+000 -1.000000e+000
      outer loop
         vertex 1.018538e+002 2.861082e+001 0.000000e+000
         vertex 1.077781e+002 2.170995e+001 0.000000e+000
         vertex 8.520143e+001 1.716000e+001 0.000000e+000
      endloop
   endfacet
   facet normal 0.000000e+000 0.000000e+000 -1.000000e+000
      outer loop
         vertex 8.520143e+001 1.716000e+001 0.000000e+000
         vertex 1.077781e+002 2.170995e+001 0.000000e+000
         vertex 8.803392e+001 8.517291e+000 0.000000e+000
      endloop
   endfacet
   facet normal 0.000000e+000 0.000000e+000 -1.000000e+000
      outer loop
         vertex 8.520143e+001 1.716000e+001 0.000000e+000
         vertex 8.803392e+001 8.517291e+000 0.000000e+000
         vertex 6.543459e+001 1.295341e+001 0.000000e+000
      endloop
   endfacet
   facet normal 0.000000e+000 0.000000e+000 -1.000000e+000
      outer loop
         vertex 6.543459e+001 1.295341e+001 0.000000e+000
         vertex 8.803392e+001 8.517291e+000 0.000000e+000
         vertex 6.474404e+001 3.884643e+000 0.000000e+000
      endloop
   endfacet
   facet normal 0.000000e+000 0.000000e+000 -1.000000e+000
      outer loop
         vertex 6.543459e+001 1.295341e+001 0.000000e+000
         vertex 6.474404e+001 3.884643e+000 0.000000e+000
         vertex 4.556260e+001 1.663148e+001 0.000000e+000
      endloop
   endfacet
   facet normal 0.000000e+000 0.000000e+000 -1.000000e+000
      outer loop
         vertex 4.556260e+001 1.663148e+001 0.000000e+000
         vertex 6.474404e+001 3.884643e+000 0.000000e+000
         vertex 4.145416e+001 8.517291e+000 0.000000e+000
      endloop
   endfacet
   facet normal 0.000000e+000 0.000000e+000 -1.000000e+000
      outer loop
         vertex 4.556260e+001 1.663148e+001 0.000000e+000
         vertex 4.145416e+001 8.517291e+000 0.000000e+000
         vertex 2.861082e+001 2.763425e+001 0.000000e+000
      endloop
   endfacet
   facet normal 0.000000e+000 0.000000e+000 -1.000000e+000
      outer loop
         vertex 2.861082e+001 2.763425e+001 0.000000e+000
         vertex 4.145416e+001 8.517291e+000 0.000000e+000
         vertex 2.170995e+001 2.170995e+001 0.000000e+000
      endloop
   endfacet
   facet normal 0.000000e+000 0.000000e+000 -1.000000e+000
      outer loop
         vertex 2.861082e+001 2.763425e+001 0.000000e+000
         vertex 2.170995e+001 2.170995e+001 0.000000e+000
         vertex 1.716000e+001 4.428665e+001 0.000000e+000
      endloop
   endfacet
   facet normal 0.000000e+000 0.000000e+000 -1.000000e+000
      outer loop
         vertex 1.716000e+001 4.428665e+001 0.000000e+000
         vertex 2.170995e+001 2.170995e+001 0.000000e+000
         vertex 8.517291e+000 4.145416e+001 0.000000e+000
      endloop
   endfacet
   facet normal 0.000000e+000 0.000000e+000 -1.000000e+000
      outer loop
         vertex 1.716000e+001 4.428665e+001 0.000000e+000
         vertex 8.517291e+000 4.145416e+001 0.000000e+000
         vertex 1.295341e+001 6.405350e+001 0.000000e+000
      endloop
   endfacet
   facet normal 0.000000e+000 0.000000e+000 -1.000000e+000
      outer loop
         vertex 1.295341e+001 6.405350e+001 0.000000e+000
         vertex 8.517291e+000 4.145416e+001 0.000000e+000
         vertex 3.884643e+000 6.474404e+001 0.000000e+000
      endloop
   endfacet
   facet normal 0.000000e+000 0.000000e+000 -1.000000e+000
      outer loop
         vertex 1.295341e+001 6.405350e+001 0.000000e+000
         vertex 3.884643e+000 6.474404e+001 0.000000e+000
         vertex 8.517291e+000 8.803392e+001 0.000000e+000
      endloop
   endfacet
   facet normal 9.807853e-001 -1.950903e-001 0.000000e+000
      outer loop
         vertex 1.294881e+002 6.474404e+001 3.810000e+000
         vertex 1.294881e+002 6.474404e+001 1.778000e+001
         vertex 1.245597e+002 3.996757e+001 3.810000e+000
      endloop
   endfacet
   facet normal 9.807853e-001 -1.950903e-001 0.000000e+000
      outer loop
         vertex 1.245597e+002 3.996757e+001 3.810000e+000
         vertex 1.294881e+002 6.474404e+001 1.778000e+001
         vertex 1.245597e+002 3.996757e+001 1.778000e+001
      endloop
   endfacet
   facet normal 9.807853e-001 1.950903e-001 0.000000e+000
      outer loop
         vertex 1.245597e+002 8.952052e+001 3.810000e+000
         vertex 1.245597e+002 8.952052e+001 1.778000e+001
         vertex 1.294881e+002 6.474404e+001 3.810000e+000
      endloop
   endfacet
   facet normal 9.807853e-001 1.950903e-001 0.000000e+000
      outer loop
         vertex 1.294881e+002 6.474404e+001 3.810000e+000
         vertex 1.245597e+002 8.952052e+001 1.778000e+001
         vertex 1.294881e+002 6.474404e+001 1.778000e+001
      endloop
   endfacet
   facet normal 8.314696e-001 5.555702e-001 0.000000e+000
      outer loop
         vertex 1.105250e+002 1.105250e+002 3.810000e+000
         vertex 1.105250e+002 1.105250e+002 1.778000e+001
         vertex 1.245597e+002 8.952052e+001 3.810000e+000
      endloop
   endfacet
   facet normal 8.314696e-001 5.555702e-001 0.000000e+000
      outer loop
         vertex 1.245597e+002 8.952052e+001 3.810000e+000
         vertex 1.105250e+002 1.105250e+002 1.778000e+001
         vertex 1.245597e+002 8.952052e+001 1.778000e+001
      endloop
   endfacet
   facet normal 5.555702e-001 8.314696e-001 0.000000e+000
      outer loop
         vertex 8.952052e+001 1.245597e+002 3.810000e+000
         vertex 8.952052e+001 1.245597e+002 1.778000e+001
         vertex 1.105250e+002 1.105250e+002 3.810000e+000
      endloop
   endfacet
   facet normal 5.555702e-001 8.314696e-001 0.000000e+000
      outer loop
         vertex 1.105250e+002 1.105250e+002 3.810000e+000
         vertex 8.952052e+001 1.245597e+002 1.778000e+001
         vertex 1.105250e+002 1.105250e+002 1.778000e+001
      endloop
   endfacet
   facet normal 1.950903e-001 9.807853e-001 0.000000e+000
      outer loop
         vertex 6.474404e+001 1.294881e+002 3.810000e+000
         vertex 6.474404e+001 1.294881e+002 1.778000e+001
         vertex 8.952052e+001 1.245597e+002 3.810000e+000
      endloop
   endfacet
   facet normal 1.950903e-001 9.807853e-001 0.000000e+000
      outer loop
         vertex 8.952052e+001 1.245597e+002 3.810000e+000
         vertex 6.474404e+001 1.294881e+002 1.778000e+001
         vertex 8.952052e+001 1.245597e+002 1.778000e+001
      endloop
   endfacet
   facet normal -1.950903e-001 9.807853e-001 0.000000e+000
      outer loop
         vertex 3.996757e+001 1.245597e+002 3.810000e+000
         vertex 3.996757e+001 1.245597e+002 1.778000e+001
         vertex 6.474404e+001 1.294881e+002 3.810000e+000
      endloop
   endfacet
   facet normal -1.950903e-001 9.807853e-001 0.000000e+000
      outer loop
         vertex 6.474404e+001 1.294881e+002 3.810000e+000
         vertex 3.996757e+001 1.245597e+002 1.778000e+001
         vertex 6.474404e+001 1.294881e+002 1.778000e+001
      endloop
   endfacet
   facet normal -5.555702e-001 8.314696e-001 0.000000e+000
      outer loop
         vertex 1.896309e+001 1.105250e+002 3.810000e+000
         vertex 1.896309e+001 1.105250e+002 1.778000e+001
         vertex 3.996757e+001 1.245597e+002 3.810000e+000
      endloop
   endfacet
   facet normal -5.555702e-001 8.314696e-001 0.000000e+000
      outer loop
         vertex 3.996757e+001 1.245597e+002 3.810000e+000
         vertex 1.896309e+001 1.105250e+002 1.778000e+001
         vertex 3.996757e+001 1.245597e+002 1.778000e+001
      endloop
   endfacet
   facet normal -8.314696e-001 5.555702e-001 0.000000e+000
      outer loop
         vertex 4.928347e+000 8.952052e+001 3.810000e+000
         vertex 4.928347e+000 8.952052e+001 1.778000e+001
         vertex 1.896309e+001 1.105250e+002 3.810000e+000
      endloop
   endfacet
   facet normal -8.314696e-001 5.555702e-001 0.000000e+000
      outer loop
         vertex 1.896309e+001 1.105250e+002 3.810000e+000
         vertex 4.928347e+000 8.952052e+001 1.778000e+001
         vertex 1.896309e+001 1.105250e+002 1.778000e+001
      endloop
   endfacet
   facet normal -9.807853e-001 1.950903e-001 0.000000e+000
      outer loop
         vertex 0.000000e+000 6.474404e+001 3.810000e+000
         vertex 0.000000e+000 6.474404e+001 1.778000e+001
         vertex 4.928347e+000 8.952052e+001 3.810000e+000
      endloop
   endfacet
   facet normal -9.807853e-001 1.950903e-001 0.000000e+000
      outer loop
         vertex 4.928347e+000 8.952052e+001 3.810000e+000
         vertex 0.000000e+000 6.474404e+001 1.778000e+001
         vertex 4.928347e+000 8.952052e+001 1.778000e+001
      endloop
   endfacet
   facet normal -9.807853e-001 -1.950903e-001 0.000000e+000
      outer loop
         vertex 4.928347e+000 3.996757e+001 3.810000e+000
         vertex 4.928347e+000 3.996757e+001 1.778000e+001
         vertex 0.000000e+000 6.474404e+001 3.810000e+000
      endloop
   endfacet
   facet normal -9.807853e-001 -1.950903e-001 0.000000e+000
      outer loop
         vertex 0.000000e+000 6.474404e+001 3.810000e+000
         vertex 4.928347e+000 3.996757e+001 1.778000e+001
         vertex 0.000000e+000 6.474404e+001 1.778000e+001
      endloop
   endfacet
   facet normal -8.314696e-001 -5.555702e-001 0.000000e+000
      outer loop
         vertex 1.896309e+001 1.896309e+001 3.810000e+000
         vertex 1.896309e+001 1.896309e+001 1.778000e+001
         vertex 4.928347e+000 3.996757e+001 3.810000e+000
      endloop
   endfacet
   facet normal -8.314696e-001 -5.555702e-001 0.000000e+000
      outer loop
         vertex 4.928347e+000 3.996757e+001 3.810000e+000
         vertex 1.896309e+001 1.896309e+001 1.778000e+001
         vertex 4.928347e+000 3.996757e+001 1.778000e+001
      endloop
   endfacet
   facet normal -5.555702e-001 -8.314696e-001 0.000000e+000
      outer loop
         vertex 3.996757e+001 4.928347e+000 3.810000e+000
         vertex 3.996757e+001 4.928347e+000 1.778000e+001
         vertex 1.896309e+001 1.896309e+001 3.810000e+000
      endloop
   endfacet
   facet normal -5.555702e-001 -8.314696e-001 0.000000e+000
      outer loop
         vertex 1.896309e+001 1.896309e+001 3.810000e+000
         vertex 3.996757e+001 4.928347e+000 1.778000e+001
         vertex 1.896309e+001 1.896309e+001 1.778000e+001
      endloop
   endfacet
   facet normal -1.950903e-001 -9.807853e-001 0.000000e+000
      outer loop
         vertex 6.474404e+001 0.000000e+000 3.810000e+000
         vertex 6.474404e+001 0.000000e+000 1.778000e+001
         vertex 3.996757e+001 4.928347e+000 3.810000e+000
      endloop
   endfacet
   facet normal -1.950903e-001 -9.807853e-001 0.000000e+000
      outer loop
         vertex 3.996757e+001 4.928347e+000 3.810000e+000
         vertex 6.474404e+001 0.000000e+000 1.778000e+001
         vertex 3.996757e+001 4.928347e+000 1.778000e+001
      endloop
   endfacet
   facet normal 1.950903e-001 -9.807853e-001 0.000000e+000
      outer loop
         vertex 8.952052e+001 4.928347e+000 3.810000e+000
         vertex 8.952052e+001 4.928347e+000 1.778000e+001
         vertex 6.474404e+001 0.000000e+000 3.810000e+000
      endloop
   endfacet
   facet normal 1.950903e-001 -9.807853e-001 0.000000e+000
      outer loop
         vertex 6.474404e+001 0.000000e+000 3.810000e+000
         vertex 8.952052e+001 4.928347e+000 1.778000e+001
         vertex 6.474404e+001 0.000000e+000 1.778000e+001
      endloop
   endfacet
   facet normal 5.555702e-001 -8.314696e-001 0.000000e+000
      outer loop
         vertex 1.105250e+002 1.896309e+001 3.810000e+000
         vertex 1.105250e+002 1.896309e+001 1.778000e+001
         vertex 8.952052e+001 4.928347e+000 3.810000e+000
      endloop
   endfacet
   facet normal 5.555702e-001 -8.314696e-001 0.000000e+000
      outer loop
         vertex 8.952052e+001 4.928347e+000 3.810000e+000
         vertex 1.105250e+002 1.896309e+001 1.778000e+001
         vertex 8.952052e+001 4.928347e+000 1.778000e+001
      endloop
   endfacet
   facet normal 8.314696e-001 -5.555702e-001 0.000000e+000
      outer loop
         vertex 1.245597e+002 3.996757e+001 3.810000e+000
         vertex 1.245597e+002 3.996757e+001 1.778000e+001
         vertex 1.105250e+002 1.896309e+001 3.810000e+000
      endloop
   endfacet
   facet normal 8.314696e-001 -5.555702e-001 0.000000e+000
      outer loop
         vertex 1.105250e+002 1.896309e+001 3.810000e+000
         vertex 1.245597e+002 3.996757e+001 1.778000e+001
         vertex 1.105250e+002 1.896309e+001 1.778000e+001
      endloop
   endfacet
   facet normal -9.832991e-001 1.819970e-001 0.000000e+000
      outer loop
         vertex 1.128566e+002 4.556260e+001 2.159000e+001
         vertex 1.165347e+002 6.543459e+001 2.159000e+001
         vertex 1.128566e+002 4.556260e+001 0.000000e+000
      endloop
   endfacet
   facet normal -9.832991e-001 1.819970e-001 0.000000e+000
      outer loop
         vertex 1.128566e+002 4.556260e+001 0.000000e+000
         vertex 1.165347e+002 6.543459e+001 2.159000e+001
         vertex 1.165347e+002 6.543459e+001 0.000000e+000
      endloop
   endfacet
   facet normal -9.780971e-001 -2.081490e-001 0.000000e+000
      outer loop
         vertex 1.165347e+002 6.543459e+001 2.159000e+001
         vertex 1.123281e+002 8.520143e+001 2.159000e+001
         vertex 1.165347e+002 6.543459e+001 0.000000e+000
      endloop
   endfacet
   facet normal -9.780971e-001 -2.081490e-001 0.000000e+000
      outer loop
         vertex 1.165347e+002 6.543459e+001 0.000000e+000
         vertex 1.123281e+002 8.520143e+001 2.159000e+001
         vertex 1.123281e+002 8.520143e+001 0.000000e+000
      endloop
   endfacet
   facet normal -8.239888e-001 -5.666061e-001 0.000000e+000
      outer loop
         vertex 1.123281e+002 8.520143e+001 2.159000e+001
         vertex 1.008773e+002 1.018538e+002 2.159000e+001
         vertex 1.123281e+002 8.520143e+001 0.000000e+000
      endloop
   endfacet
   facet normal -8.239888e-001 -5.666061e-001 0.000000e+000
      outer loop
         vertex 1.123281e+002 8.520143e+001 0.000000e+000
         vertex 1.008773e+002 1.018538e+002 2.159000e+001
         vertex 1.008773e+002 1.018538e+002 0.000000e+000
      endloop
   endfacet
   facet normal -5.444356e-001 -8.388026e-001 0.000000e+000
      outer loop
         vertex 1.008773e+002 1.018538e+002 2.159000e+001
         vertex 8.392548e+001 1.128566e+002 2.159000e+001
         vertex 1.008773e+002 1.018538e+002 -6.938894e-015
      endloop
   endfacet
   facet normal -5.444356e-001 -8.388026e-001 0.000000e+000
      outer loop
         vertex 1.008773e+002 1.018538e+002 -6.938894e-015
         vertex 8.392548e+001 1.128566e+002 2.159000e+001
         vertex 8.392548e+001 1.128566e+002 -6.938894e-015
      endloop
   endfacet
   facet normal -1.819970e-001 -9.832991e-001 0.000000e+000
      outer loop
         vertex 8.392548e+001 1.128566e+002 2.159000e+001
         vertex 6.405350e+001 1.165347e+002 2.159000e+001
         vertex 8.392548e+001 1.128566e+002 0.000000e+000
      endloop
   endfacet
   facet normal -1.819970e-001 -9.832991e-001 0.000000e+000
      outer loop
         vertex 8.392548e+001 1.128566e+002 0.000000e+000
         vertex 6.405350e+001 1.165347e+002 2.159000e+001
         vertex 6.405350e+001 1.165347e+002 0.000000e+000
      endloop
   endfacet
   facet normal 2.081490e-001 -9.780971e-001 0.000000e+000
      outer loop
         vertex 6.405350e+001 1.165347e+002 2.159000e+001
         vertex 4.428665e+001 1.123281e+002 2.159000e+001
         vertex 6.405350e+001 1.165347e+002 0.000000e+000
      endloop
   endfacet
   facet normal 2.081490e-001 -9.780971e-001 0.000000e+000
      outer loop
         vertex 6.405350e+001 1.165347e+002 0.000000e+000
         vertex 4.428665e+001 1.123281e+002 2.159000e+001
         vertex 4.428665e+001 1.123281e+002 0.000000e+000
      endloop
   endfacet
   facet normal 5.666061e-001 -8.239888e-001 0.000000e+000
      outer loop
         vertex 4.428665e+001 1.123281e+002 2.159000e+001
         vertex 2.763425e+001 1.008773e+002 2.159000e+001
         vertex 4.428665e+001 1.123281e+002 0.000000e+000
      endloop
   endfacet
   facet normal 5.666061e-001 -8.239888e-001 0.000000e+000
      outer loop
         vertex 4.428665e+001 1.123281e+002 0.000000e+000
         vertex 2.763425e+001 1.008773e+002 2.159000e+001
         vertex 2.763425e+001 1.008773e+002 0.000000e+000
      endloop
   endfacet
   facet normal 8.388026e-001 -5.444356e-001 0.000000e+000
      outer loop
         vertex 2.763425e+001 1.008773e+002 2.159000e+001
         vertex 1.663148e+001 8.392548e+001 2.159000e+001
         vertex 2.763425e+001 1.008773e+002 0.000000e+000
      endloop
   endfacet
   facet normal 8.388026e-001 -5.444356e-001 0.000000e+000
      outer loop
         vertex 2.763425e+001 1.008773e+002 0.000000e+000
         vertex 1.663148e+001 8.392548e+001 2.159000e+001
         vertex 1.663148e+001 8.392548e+001 0.000000e+000
      endloop
   endfacet
   facet normal 9.832991e-001 -1.819970e-001 0.000000e+000
      outer loop
         vertex 1.663148e+001 8.392548e+001 2.159000e+001
         vertex 1.295341e+001 6.405350e+001 2.159000e+001
         vertex 1.663148e+001 8.392548e+001 -6.938894e-015
      endloop
   endfacet
   facet normal 9.832991e-001 -1.819970e-001 0.000000e+000
      outer loop
         vertex 1.663148e+001 8.392548e+001 -6.938894e-015
         vertex 1.295341e+001 6.405350e+001 2.159000e+001
         vertex 1.295341e+001 6.405350e+001 -6.938894e-015
      endloop
   endfacet
   facet normal 9.780971e-001 2.081490e-001 0.000000e+000
      outer loop
         vertex 1.295341e+001 6.405350e+001 2.159000e+001
         vertex 1.716000e+001 4.428665e+001 2.159000e+001
         vertex 1.295341e+001 6.405350e+001 0.000000e+000
      endloop
   endfacet
   facet normal 9.780971e-001 2.081490e-001 0.000000e+000
      outer loop
         vertex 1.295341e+001 6.405350e+001 0.000000e+000
         vertex 1.716000e+001 4.428665e+001 2.159000e+001
         vertex 1.716000e+001 4.428665e+001 0.000000e+000
      endloop
   endfacet
   facet normal 8.239888e-001 5.666061e-001 0.000000e+000
      outer loop
         vertex 1.716000e+001 4.428665e+001 2.159000e+001
         vertex 2.861082e+001 2.763425e+001 2.159000e+001
         vertex 1.716000e+001 4.428665e+001 -6.938894e-015
      endloop
   endfacet
   facet normal 8.239888e-001 5.666061e-001 0.000000e+000
      outer loop
         vertex 1.716000e+001 4.428665e+001 -6.938894e-015
         vertex 2.861082e+001 2.763425e+001 2.159000e+001
         vertex 2.861082e+001 2.763425e+001 -6.938894e-015
      endloop
   endfacet
   facet normal 5.444356e-001 8.388026e-001 0.000000e+000
      outer loop
         vertex 2.861082e+001 2.763425e+001 2.159000e+001
         vertex 4.556260e+001 1.663148e+001 2.159000e+001
         vertex 2.861082e+001 2.763425e+001 0.000000e+000
      endloop
   endfacet
   facet normal 5.444356e-001 8.388026e-001 0.000000e+000
      outer loop
         vertex 2.861082e+001 2.763425e+001 0.000000e+000
         vertex 4.556260e+001 1.663148e+001 2.159000e+001
         vertex 4.556260e+001 1.663148e+001 0.000000e+000
      endloop
   endfacet
   facet normal 1.819970e-001 9.832991e-001 0.000000e+000
      outer loop
         vertex 4.556260e+001 1.663148e+001 2.159000e+001
         vertex 6.543459e+001 1.295341e+001 2.159000e+001
         vertex 4.556260e+001 1.663148e+001 0.000000e+000
      endloop
   endfacet
   facet normal 1.819970e-001 9.832991e-001 0.000000e+000
      outer loop
         vertex 4.556260e+001 1.663148e+001 0.000000e+000
         vertex 6.543459e+001 1.295341e+001 2.159000e+001
         vertex 6.543459e+001 1.295341e+001 0.000000e+000
      endloop
   endfacet
   facet normal -2.081490e-001 9.780971e-001 0.000000e+000
      outer loop
         vertex 6.543459e+001 1.295341e+001 2.159000e+001
         vertex 8.520143e+001 1.716000e+001 2.159000e+001
         vertex 6.543459e+001 1.295341e+001 0.000000e+000
      endloop
   endfacet
   facet normal -2.081490e-001 9.780971e-001 0.000000e+000
      outer loop
         vertex 6.543459e+001 1.295341e+001 0.000000e+000
         vertex 8.520143e+001 1.716000e+001 2.159000e+001
         vertex 8.520143e+001 1.716000e+001 0.000000e+000
      endloop
   endfacet
   facet normal -5.666061e-001 8.239888e-001 0.000000e+000
      outer loop
         vertex 8.520143e+001 1.716000e+001 2.159000e+001
         vertex 1.018538e+002 2.861082e+001 2.159000e+001
         vertex 8.520143e+001 1.716000e+001 0.000000e+000
      endloop
   endfacet
   facet normal -5.666061e-001 8.239888e-001 0.000000e+000
      outer loop
         vertex 8.520143e+001 1.716000e+001 0.000000e+000
         vertex 1.018538e+002 2.861082e+001 2.159000e+001
         vertex 1.018538e+002 2.861082e+001 0.000000e+000
      endloop
   endfacet
   facet normal -8.388026e-001 5.444356e-001 0.000000e+000
      outer loop
         vertex 1.018538e+002 2.861082e+001 2.159000e+001
         vertex 1.128566e+002 4.556260e+001 2.159000e+001
         vertex 1.018538e+002 2.861082e+001 0.000000e+000
      endloop
   endfacet
   facet normal -8.388026e-001 5.444356e-001 0.000000e+000
      outer loop
         vertex 1.018538e+002 2.861082e+001 0.000000e+000
         vertex 1.128566e+002 4.556260e+001 2.159000e+001
         vertex 1.128566e+002 4.556260e+001 0.000000e+000
      endloop
   endfacet
   facet normal -1.379497e-001 -6.935199e-001 7.071067e-001
      outer loop
         vertex 6.474404e+001 0.000000e+000 1.778000e+001
         vertex 6.474404e+001 3.884643e+000 2.159000e+001
         vertex 3.996757e+001 4.928347e+000 1.778000e+001
      endloop
   endfacet
   facet normal -1.379497e-001 -6.935199e-001 7.071067e-001
      outer loop
         vertex 3.996757e+001 4.928347e+000 1.778000e+001
         vertex 6.474404e+001 3.884643e+000 2.159000e+001
         vertex 4.145416e+001 8.517291e+000 2.159000e+001
      endloop
   endfacet
   facet normal 1.379497e-001 -6.935199e-001 7.071067e-001
      outer loop
         vertex 8.952052e+001 4.928347e+000 1.778000e+001
         vertex 8.803392e+001 8.517291e+000 2.159000e+001
         vertex 6.474404e+001 0.000000e+000 1.778000e+001
      endloop
   endfacet
   facet normal 1.379497e-001 -6.935199e-001 7.071067e-001
      outer loop
         vertex 6.474404e+001 0.000000e+000 1.778000e+001
         vertex 8.803392e+001 8.517291e+000 2.159000e+001
         vertex 6.474404e+001 3.884643e+000 2.159000e+001
      endloop
   endfacet
   facet normal -3.928475e-001 -5.879378e-001 7.071068e-001
      outer loop
         vertex 2.170995e+001 2.170995e+001 2.159000e+001
         vertex 1.896309e+001 1.896309e+001 1.778000e+001
         vertex 4.145416e+001 8.517291e+000 2.159000e+001
      endloop
   endfacet
   facet normal -3.928475e-001 -5.879378e-001 7.071068e-001
      outer loop
         vertex 4.145416e+001 8.517291e+000 2.159000e+001
         vertex 1.896309e+001 1.896309e+001 1.778000e+001
         vertex 3.996757e+001 4.928347e+000 1.778000e+001
      endloop
   endfacet
   facet normal 3.928475e-001 -5.879378e-001 7.071068e-001
      outer loop
         vertex 1.105250e+002 1.896309e+001 1.778000e+001
         vertex 1.077781e+002 2.170995e+001 2.159000e+001
         vertex 8.952052e+001 4.928347e+000 1.778000e+001
      endloop
   endfacet
   facet normal 3.928475e-001 -5.879378e-001 7.071068e-001
      outer loop
         vertex 8.952052e+001 4.928347e+000 1.778000e+001
         vertex 1.077781e+002 2.170995e+001 2.159000e+001
         vertex 8.803392e+001 8.517291e+000 2.159000e+001
      endloop
   endfacet
   facet normal -5.879378e-001 -3.928475e-001 7.071068e-001
      outer loop
         vertex 8.517291e+000 4.145416e+001 2.159000e+001
         vertex 4.928347e+000 3.996757e+001 1.778000e+001
         vertex 2.170995e+001 2.170995e+001 2.159000e+001
      endloop
   endfacet
   facet normal -5.879378e-001 -3.928475e-001 7.071068e-001
      outer loop
         vertex 2.170995e+001 2.170995e+001 2.159000e+001
         vertex 4.928347e+000 3.996757e+001 1.778000e+001
         vertex 1.896309e+001 1.896309e+001 1.778000e+001
      endloop
   endfacet
   facet normal 5.879378e-001 -3.928475e-001 7.071068e-001
      outer loop
         vertex 1.245597e+002 3.996757e+001 1.778000e+001
         vertex 1.209708e+002 4.145416e+001 2.159000e+001
         vertex 1.105250e+002 1.896309e+001 1.778000e+001
      endloop
   endfacet
   facet normal 5.879378e-001 -3.928475e-001 7.071068e-001
      outer loop
         vertex 1.105250e+002 1.896309e+001 1.778000e+001
         vertex 1.209708e+002 4.145416e+001 2.159000e+001
         vertex 1.077781e+002 2.170995e+001 2.159000e+001
      endloop
   endfacet
   facet normal -6.935199e-001 -1.379497e-001 7.071067e-001
      outer loop
         vertex 3.884643e+000 6.474404e+001 2.159000e+001
         vertex 0.000000e+000 6.474404e+001 1.778000e+001
         vertex 8.517291e+000 4.145416e+001 2.159000e+001
      endloop
   endfacet
   facet normal -6.935199e-001 -1.379497e-001 7.071067e-001
      outer loop
         vertex 8.517291e+000 4.145416e+001 2.159000e+001
         vertex 0.000000e+000 6.474404e+001 1.778000e+001
         vertex 4.928347e+000 3.996757e+001 1.778000e+001
      endloop
   endfacet
   facet normal 6.935199e-001 -1.379497e-001 7.071067e-001
      outer loop
         vertex 1.294881e+002 6.474404e+001 1.778000e+001
         vertex 1.256034e+002 6.474404e+001 2.159000e+001
         vertex 1.245597e+002 3.996757e+001 1.778000e+001
      endloop
   endfacet
   facet normal 6.935199e-001 -1.379497e-001 7.071067e-001
      outer loop
         vertex 1.245597e+002 3.996757e+001 1.778000e+001
         vertex 1.256034e+002 6.474404e+001 2.159000e+001
         vertex 1.209708e+002 4.145416e+001 2.159000e+001
      endloop
   endfacet
   facet normal -6.935199e-001 1.379497e-001 7.071067e-001
      outer loop
         vertex 8.517291e+000 8.803392e+001 2.159000e+001
         vertex 4.928347e+000 8.952052e+001 1.778000e+001
         vertex 3.884643e+000 6.474404e+001 2.159000e+001
      endloop
   endfacet
   facet normal -6.935199e-001 1.379497e-001 7.071067e-001
      outer loop
         vertex 3.884643e+000 6.474404e+001 2.159000e+001
         vertex 4.928347e+000 8.952052e+001 1.778000e+001
         vertex 0.000000e+000 6.474404e+001 1.778000e+001
      endloop
   endfacet
   facet normal 6.935199e-001 1.379497e-001 7.071067e-001
      outer loop
         vertex 1.245597e+002 8.952052e+001 1.778000e+001
         vertex 1.209708e+002 8.803392e+001 2.159000e+001
         vertex 1.294881e+002 6.474404e+001 1.778000e+001
      endloop
   endfacet
   facet normal 6.935199e-001 1.379497e-001 7.071067e-001
      outer loop
         vertex 1.294881e+002 6.474404e+001 1.778000e+001
         vertex 1.209708e+002 8.803392e+001 2.159000e+001
         vertex 1.256034e+002 6.474404e+001 2.159000e+001
      endloop
   endfacet
   facet normal -5.879378e-001 3.928475e-001 7.071068e-001
      outer loop
         vertex 2.170995e+001 1.077781e+002 2.159000e+001
         vertex 1.896309e+001 1.105250e+002 1.778000e+001
         vertex 8.517291e+000 8.803392e+001 2.159000e+001
      endloop
   endfacet
   facet normal -5.879378e-001 3.928475e-001 7.071068e-001
      outer loop
         vertex 8.517291e+000 8.803392e+001 2.159000e+001
         vertex 1.896309e+001 1.105250e+002 1.778000e+001
         vertex 4.928347e+000 8.952052e+001 1.778000e+001
      endloop
   endfacet
   facet normal 5.879378e-001 3.928475e-001 7.071068e-001
      outer loop
         vertex 1.105250e+002 1.105250e+002 1.778000e+001
         vertex 1.077781e+002 1.077781e+002 2.159000e+001
         vertex 1.245597e+002 8.952052e+001 1.778000e+001
      endloop
   endfacet
   facet normal 5.879378e-001 3.928475e-001 7.071068e-001
      outer loop
         vertex 1.245597e+002 8.952052e+001 1.778000e+001
         vertex 1.077781e+002 1.077781e+002 2.159000e+001
         vertex 1.209708e+002 8.803392e+001 2.159000e+001
      endloop
   endfacet
   facet normal -3.928475e-001 5.879378e-001 7.071068e-001
      outer loop
         vertex 4.145416e+001 1.209708e+002 2.159000e+001
         vertex 3.996757e+001 1.245597e+002 1.778000e+001
         vertex 2.170995e+001 1.077781e+002 2.159000e+001
      endloop
   endfacet
   facet normal -3.928475e-001 5.879378e-001 7.071068e-001
      outer loop
         vertex 2.170995e+001 1.077781e+002 2.159000e+001
         vertex 3.996757e+001 1.245597e+002 1.778000e+001
         vertex 1.896309e+001 1.105250e+002 1.778000e+001
      endloop
   endfacet
   facet normal 3.928475e-001 5.879378e-001 7.071068e-001
      outer loop
         vertex 8.952052e+001 1.245597e+002 1.778000e+001
         vertex 8.803392e+001 1.209708e+002 2.159000e+001
         vertex 1.105250e+002 1.105250e+002 1.778000e+001
      endloop
   endfacet
   facet normal 3.928475e-001 5.879378e-001 7.071068e-001
      outer loop
         vertex 1.105250e+002 1.105250e+002 1.778000e+001
         vertex 8.803392e+001 1.209708e+002 2.159000e+001
         vertex 1.077781e+002 1.077781e+002 2.159000e+001
      endloop
   endfacet
   facet normal -1.379497e-001 6.935199e-001 7.071067e-001
      outer loop
         vertex 6.474404e+001 1.256034e+002 2.159000e+001
         vertex 6.474404e+001 1.294881e+002 1.778000e+001
         vertex 4.145416e+001 1.209708e+002 2.159000e+001
      endloop
   endfacet
   facet normal -1.379497e-001 6.935199e-001 7.071067e-001
      outer loop
         vertex 4.145416e+001 1.209708e+002 2.159000e+001
         vertex 6.474404e+001 1.294881e+002 1.778000e+001
         vertex 3.996757e+001 1.245597e+002 1.778000e+001
      endloop
   endfacet
   facet normal 1.379497e-001 6.935199e-001 7.071067e-001
      outer loop
         vertex 6.474404e+001 1.294881e+002 1.778000e+001
         vertex 6.474404e+001 1.256034e+002 2.159000e+001
         vertex 8.952052e+001 1.245597e+002 1.778000e+001
      endloop
   endfacet
   facet normal 1.379497e-001 6.935199e-001 7.071067e-001
      outer loop
         vertex 8.952052e+001 1.245597e+002 1.778000e+001
         vertex 6.474404e+001 1.256034e+002 2.159000e+001
         vertex 8.803392e+001 1.209708e+002 2.159000e+001
      endloop
   endfacet
   facet normal -3.928475e-001 -5.879378e-001 -7.071068e-001
      outer loop
         vertex 4.145416e+001 8.517291e+000 -8.673617e-016
         vertex 3.996757e+001 4.928347e+000 3.810000e+000
         vertex 2.170995e+001 2.170995e+001 0.000000e+000
      endloop
   endfacet
   facet normal -3.928475e-001 -5.879378e-001 -7.071068e-001
      outer loop
         vertex 2.170995e+001 2.170995e+001 0.000000e+000
         vertex 3.996757e+001 4.928347e+000 3.810000e+000
         vertex 1.896309e+001 1.896309e+001 3.810000e+000
      endloop
   endfacet
   facet normal -1.379497e-001 -6.935199e-001 -7.071067e-001
      outer loop
         vertex 6.474404e+001 3.884643e+000 3.035766e-015
         vertex 6.474404e+001 0.000000e+000 3.810000e+000
         vertex 4.145416e+001 8.517291e+000 0.000000e+000
      endloop
   endfacet
   facet normal -1.379497e-001 -6.935199e-001 -7.071067e-001
      outer loop
         vertex 4.145416e+001 8.517291e+000 0.000000e+000
         vertex 6.474404e+001 0.000000e+000 3.810000e+000
         vertex 3.996757e+001 4.928347e+000 3.810000e+000
      endloop
   endfacet
   facet normal -5.879378e-001 -3.928475e-001 -7.071068e-001
      outer loop
         vertex 4.928347e+000 3.996757e+001 3.810000e+000
         vertex 8.517291e+000 4.145416e+001 -1.843144e-015
         vertex 1.896309e+001 1.896309e+001 3.810000e+000
      endloop
   endfacet
   facet normal -5.879378e-001 -3.928475e-001 -7.071068e-001
      outer loop
         vertex 1.896309e+001 1.896309e+001 3.810000e+000
         vertex 8.517291e+000 4.145416e+001 -1.843144e-015
         vertex 2.170995e+001 2.170995e+001 1.734723e-015
      endloop
   endfacet
   facet normal 1.379497e-001 -6.935199e-001 -7.071067e-001
      outer loop
         vertex 8.803392e+001 8.517291e+000 1.734723e-015
         vertex 8.952052e+001 4.928347e+000 3.810000e+000
         vertex 6.474404e+001 3.884643e+000 3.920827e-016
      endloop
   endfacet
   facet normal 1.379497e-001 -6.935199e-001 -7.071067e-001
      outer loop
         vertex 6.474404e+001 3.884643e+000 3.920827e-016
         vertex 8.952052e+001 4.928347e+000 3.810000e+000
         vertex 6.474404e+001 0.000000e+000 3.810000e+000
      endloop
   endfacet
   facet normal -6.935199e-001 -1.379497e-001 -7.071067e-001
      outer loop
         vertex 0.000000e+000 6.474404e+001 3.810000e+000
         vertex 3.884643e+000 6.474404e+001 -3.023191e-016
         vertex 4.928347e+000 3.996757e+001 3.810000e+000
      endloop
   endfacet
   facet normal -6.935199e-001 -1.379497e-001 -7.071067e-001
      outer loop
         vertex 4.928347e+000 3.996757e+001 3.810000e+000
         vertex 3.884643e+000 6.474404e+001 -3.023191e-016
         vertex 8.517291e+000 4.145416e+001 -1.734723e-015
      endloop
   endfacet
   facet normal 3.928475e-001 -5.879378e-001 -7.071068e-001
      outer loop
         vertex 1.077781e+002 2.170995e+001 -8.673617e-016
         vertex 1.105250e+002 1.896309e+001 3.810000e+000
         vertex 8.803392e+001 8.517291e+000 1.084202e-015
      endloop
   endfacet
   facet normal 3.928475e-001 -5.879378e-001 -7.071068e-001
      outer loop
         vertex 8.803392e+001 8.517291e+000 1.084202e-015
         vertex 1.105250e+002 1.896309e+001 3.810000e+000
         vertex 8.952052e+001 4.928347e+000 3.810000e+000
      endloop
   endfacet
   facet normal -6.935199e-001 1.379497e-001 -7.071067e-001
      outer loop
         vertex 4.928347e+000 8.952052e+001 3.810000e+000
         vertex 8.517291e+000 8.803392e+001 7.589415e-016
         vertex 0.000000e+000 6.474404e+001 3.810000e+000
      endloop
   endfacet
   facet normal -6.935199e-001 1.379497e-001 -7.071067e-001
      outer loop
         vertex 0.000000e+000 6.474404e+001 3.810000e+000
         vertex 8.517291e+000 8.803392e+001 7.589415e-016
         vertex 3.884643e+000 6.474404e+001 2.602085e-015
      endloop
   endfacet
   facet normal 5.879378e-001 -3.928475e-001 -7.071068e-001
      outer loop
         vertex 1.209708e+002 4.145416e+001 3.469447e-015
         vertex 1.245597e+002 3.996757e+001 3.810000e+000
         vertex 1.077781e+002 2.170995e+001 1.409463e-015
      endloop
   endfacet
   facet normal 5.879378e-001 -3.928475e-001 -7.071068e-001
      outer loop
         vertex 1.077781e+002 2.170995e+001 1.409463e-015
         vertex 1.245597e+002 3.996757e+001 3.810000e+000
         vertex 1.105250e+002 1.896309e+001 3.810000e+000
      endloop
   endfacet
   facet normal -5.879378e-001 3.928475e-001 -7.071068e-001
      outer loop
         vertex 1.896309e+001 1.105250e+002 3.810000e+000
         vertex 2.170995e+001 1.077781e+002 -7.589415e-016
         vertex 4.928347e+000 8.952052e+001 3.810000e+000
      endloop
   endfacet
   facet normal -5.879378e-001 3.928475e-001 -7.071068e-001
      outer loop
         vertex 4.928347e+000 8.952052e+001 3.810000e+000
         vertex 2.170995e+001 1.077781e+002 -7.589415e-016
         vertex 8.517291e+000 8.803392e+001 -8.673617e-016
      endloop
   endfacet
   facet normal 6.935199e-001 -1.379497e-001 -7.071067e-001
      outer loop
         vertex 1.256034e+002 6.474404e+001 8.673617e-016
         vertex 1.294881e+002 6.474404e+001 3.810000e+000
         vertex 1.209708e+002 4.145416e+001 -4.065758e-016
      endloop
   endfacet
   facet normal 6.935199e-001 -1.379497e-001 -7.071067e-001
      outer loop
         vertex 1.209708e+002 4.145416e+001 -4.065758e-016
         vertex 1.294881e+002 6.474404e+001 3.810000e+000
         vertex 1.245597e+002 3.996757e+001 3.810000e+000
      endloop
   endfacet
   facet normal -3.928475e-001 5.879378e-001 -7.071068e-001
      outer loop
         vertex 3.996757e+001 1.245597e+002 3.810000e+000
         vertex 4.145416e+001 1.209708e+002 4.336809e-016
         vertex 1.896309e+001 1.105250e+002 3.810000e+000
      endloop
   endfacet
   facet normal -3.928475e-001 5.879378e-001 -7.071068e-001
      outer loop
         vertex 1.896309e+001 1.105250e+002 3.810000e+000
         vertex 4.145416e+001 1.209708e+002 4.336809e-016
         vertex 2.170995e+001 1.077781e+002 -8.673617e-016
      endloop
   endfacet
   facet normal 6.935199e-001 1.379497e-001 -7.071067e-001
      outer loop
         vertex 1.209708e+002 8.803392e+001 8.673617e-016
         vertex 1.245597e+002 8.952052e+001 3.810000e+000
         vertex 1.256034e+002 6.474404e+001 -5.338978e-016
      endloop
   endfacet
   facet normal 6.935199e-001 1.379497e-001 -7.071067e-001
      outer loop
         vertex 1.256034e+002 6.474404e+001 -5.338978e-016
         vertex 1.245597e+002 8.952052e+001 3.810000e+000
         vertex 1.294881e+002 6.474404e+001 3.810000e+000
      endloop
   endfacet
   facet normal -1.379497e-001 6.935199e-001 -7.071067e-001
      outer loop
         vertex 6.474404e+001 1.294881e+002 3.810000e+000
         vertex 6.474404e+001 1.256034e+002 -8.386549e-017
         vertex 3.996757e+001 1.245597e+002 3.810000e+000
      endloop
   endfacet
   facet normal -1.379497e-001 6.935199e-001 -7.071067e-001
      outer loop
         vertex 3.996757e+001 1.245597e+002 3.810000e+000
         vertex 6.474404e+001 1.256034e+002 -8.386549e-017
         vertex 4.145416e+001 1.209708e+002 4.336809e-016
      endloop
   endfacet
   facet normal 5.879378e-001 3.928475e-001 -7.071068e-001
      outer loop
         vertex 1.077781e+002 1.077781e+002 2.602085e-015
         vertex 1.105250e+002 1.105250e+002 3.810000e+000
         vertex 1.209708e+002 8.803392e+001 -3.252607e-016
      endloop
   endfacet
   facet normal 5.879378e-001 3.928475e-001 -7.071068e-001
      outer loop
         vertex 1.209708e+002 8.803392e+001 -3.252607e-016
         vertex 1.105250e+002 1.105250e+002 3.810000e+000
         vertex 1.245597e+002 8.952052e+001 3.810000e+000
      endloop
   endfacet
   facet normal 1.379497e-001 6.935199e-001 -7.071067e-001
      outer loop
         vertex 8.952052e+001 1.245597e+002 3.810000e+000
         vertex 8.803392e+001 1.209708e+002 4.065758e-016
         vertex 6.474404e+001 1.294881e+002 3.810000e+000
      endloop
   endfacet
   facet normal 1.379497e-001 6.935199e-001 -7.071067e-001
      outer loop
         vertex 6.474404e+001 1.294881e+002 3.810000e+000
         vertex 8.803392e+001 1.209708e+002 4.065758e-016
         vertex 6.474404e+001 1.256034e+002 -4.336809e-016
      endloop
   endfacet
   facet normal 3.928475e-001 5.879378e-001 -7.071068e-001
      outer loop
         vertex 8.803392e+001 1.209708e+002 -8.673617e-016
         vertex 8.952052e+001 1.245597e+002 3.810000e+000
         vertex 1.077781e+002 1.077781e+002 1.626303e-015
      endloop
   endfacet
   facet normal 3.928475e-001 5.879378e-001 -7.071068e-001
      outer loop
         vertex 1.077781e+002 1.077781e+002 1.626303e-015
         vertex 8.952052e+001 1.245597e+002 3.810000e+000
         vertex 1.105250e+002 1.105250e+002 3.810000e+000
      endloop
   endfacet
endsolid